# Blender 4.5.1 LTS
# www.blender.org
mtllib big_sphere.mtl
o Sphere
v -0.334937 -0.009920 0.339696
v -0.072602 -0.009920 -0.114681
v -0.072602 0.383582 0.112507
v -0.072602 0.383582 0.566884
v -0.072602 -0.009920 0.794073
v -0.072602 -0.403421 0.566884
v -0.072602 -0.403421 0.112507
v 0.452066 -0.009920 -0.114681
v 0.452066 0.383582 0.112507
v 0.452066 0.383582 0.566884
v 0.452066 -0.009920 0.794073
v 0.452066 -0.403421 0.566884
v 0.452066 -0.403421 0.112507
v 0.714401 -0.009920 0.339696
vn -0.8321 0.2774 -0.4804
vn -0.8321 0.5547 -0.0000
vn -0.8321 0.2774 0.4804
vn -0.8321 -0.2774 0.4804
vn -0.8321 -0.5547 -0.0000
vn -0.8321 -0.2774 -0.4804
vn -0.0000 0.5000 -0.8660
vn -0.0000 1.0000 -0.0000
vn -0.0000 0.5000 0.8660
vn -0.0000 -0.5000 0.8660
vn -0.0000 -1.0000 -0.0000
vn -0.0000 -0.5000 -0.8660
vn 0.8321 0.2774 -0.4804
vn 0.8321 0.5547 -0.0000
vn 0.8321 0.2774 0.4804
vn 0.8321 -0.2774 0.4804
vn 0.8321 -0.5547 -0.0000
vn 0.8321 -0.2774 -0.4804
s 0
f 1//1 3//1 2//1
f 1//2 4//2 3//2
f 1//3 5//3 4//3
f 1//4 6//4 5//4
f 1//5 7//5 6//5
f 1//6 2//6 7//6
f 2//7 3//7 9//7
f 2//7 9//7 8//7
f 3//8 4//8 10//8
f 3//8 10//8 9//8
f 4//9 5//9 11//9
f 4//9 11//9 10//9
f 5//10 6//10 12//10
f 5//10 12//10 11//10
f 6//11 7//11 13//11
f 6//11 13//11 12//11
f 7//12 2//12 8//12
f 7//12 8//12 13//12
f 14//13 8//13 9//13
f 14//14 9//14 10//14
f 14//15 10//15 11//15
f 14//16 11//16 12//16
f 14//17 12//17 13//17
f 14//18 13//18 8//18
