ply
format ascii 1.0
element vertex 240
property float x
property float y
property float z
property float vx
property float vy
property float vz
property float density
end_header
0.260000 0.260000 0.410000 -52.829034 -657.847642 -40.524895 500.000000
0.260000 0.090000 0.410000 -71.361448 48.239880 -347.989466 500.000000
-0.260000 0.090000 0.410000 36.769604 43.973683 -62.378853 500.000000
-0.260000 0.215805 0.410000 150.761740 25.160947 -13.432959 500.000000
-0.260000 0.260000 0.290000 84.660926 -19.254697 121.102412 500.000000
-0.260000 0.090000 0.290000 37.122932 23.582084 112.424688 500.000000
-0.260000 0.260000 0.290000 221.605214 -81.492095 141.009943 500.000000
0.260000 0.110140 0.290000 -61.616881 -29.971938 100.836167 500.000000
0.260000 0.090000 0.410000 -97.731534 59.491316 -52.175797 500.000000
0.260000 0.260000 0.410000 -105.684416 -69.598019 -25.932898 500.000000
0.260000 0.090000 0.290000 -53.361145 20.706163 101.087190 500.000000
0.159949 0.260000 0.290000 83.989754 -36.288102 112.812055 500.000000
-0.260000 0.260000 0.410000 195.275742 -54.030137 -35.909138 500.000000
0.260000 0.260000 0.290000 -64.541319 -54.798901 120.996325 500.000000
0.260000 0.103007 0.290000 -72.224461 -31.398523 100.792628 500.000000
-0.260000 0.260000 0.290000 47.138072 -131.078487 29.996092 500.000000
0.080662 0.090000 0.290000 -35.867593 123.273319 29.333036 500.000000
0.260000 0.090000 0.290000 -71.577346 17.725046 100.768607 500.000000
0.260000 0.176993 0.410000 -48.253072 17.398677 -49.302194 500.000000
0.260000 0.090000 0.410000 -576.838640 166.049207 -101.153402 500.000000
-0.260000 0.260000 0.410000 107.724013 -52.758030 -164.621509 500.000000
-0.260000 0.090000 0.290000 52.255621 133.750892 83.081153 500.000000
0.260000 0.110279 0.290000 -53.898166 -29.944194 121.326191 500.000000
0.260000 0.090000 0.410000 -60.378670 187.755177 -57.412508 500.000000
0.260000 0.090000 0.290000 -74.973854 17.439198 101.479606 500.000000
-0.260000 0.260000 0.290000 207.125262 -17.647288 141.359288 500.000000
0.260000 0.260000 0.290000 -93.747817 -40.809281 191.305668 500.000000
-0.260000 0.260000 0.290000 234.179946 -27.049111 141.694349 500.000000
0.260000 0.090000 0.410000 -69.165756 46.397540 -109.531961 500.000000
0.260000 0.090000 0.290000 -54.577187 19.720870 100.194742 500.000000
-0.260000 0.090000 0.410000 161.023408 18.078928 -238.808746 500.000000
-0.260000 0.260000 0.290000 68.717419 -193.380367 125.944526 500.000000
-0.108663 0.260000 0.290000 -73.732502 -374.980623 312.590131 500.000000
-0.119682 0.260000 0.410000 28.063650 -88.868615 -16.932866 500.000000
0.260000 0.260000 0.290000 -59.268224 -21.831958 132.729665 500.000000
-0.260000 0.090000 0.290000 52.399340 131.710390 83.016872 500.000000
0.166355 0.260000 0.410000 85.270948 -60.461443 -19.093362 500.000000
-0.045656 0.178054 0.290000 42.868865 17.610866 81.145527 500.000000
-0.102498 0.090000 0.410000 -28.129918 134.569700 -97.040732 500.000000
-0.260000 0.260000 0.410000 63.031021 -87.090400 -28.247999 500.000000
0.260000 0.150054 0.410000 -289.679423 -21.989240 -20.140785 500.000000
0.260000 0.090000 0.410000 -80.599252 51.476453 -263.335234 500.000000
0.260000 0.260000 0.410000 -52.967952 -75.357440 -30.777807 500.000000
-0.260000 0.090000 0.290000 52.274634 131.711002 82.617366 500.000000
-0.030197 0.260000 0.405541 45.960612 -52.840849 23.108244 500.000000
-0.141117 0.090000 0.290000 -80.223386 163.462581 80.774852 500.000000
0.260000 0.090000 0.410000 -63.455427 63.376694 -53.442130 500.000000
0.260000 0.090000 0.290000 -61.083939 19.836674 101.718076 500.000000
-0.260000 0.090000 0.290000 55.468671 131.579534 82.671553 500.000000
0.167273 0.260000 0.290000 85.454531 -32.860317 110.669517 500.000000
-0.260000 0.106494 0.290000 146.741450 -30.701146 610.985858 500.000000
0.260000 0.090000 0.410000 -74.808694 50.674937 -197.874645 500.000000
-0.006674 0.260000 0.290000 -53.334818 -431.288714 273.023910 500.000000
-0.260000 0.260000 0.410000 52.295537 -106.447242 -17.805502 500.000000
0.260000 0.258107 0.290000 -97.786722 33.621423 153.273024 500.000000
0.234189 0.260000 0.290000 11.828071 -20.601185 122.712535 500.000000
0.260000 0.210819 0.410000 -54.203356 2.982243 -86.171754 500.000000
0.260000 0.102385 0.290000 -68.079174 -31.522939 100.767493 500.000000
0.260000 0.090000 0.290000 -65.858348 95.436604 112.075038 500.000000
0.234966 0.260000 0.410000 98.993151 -55.936262 -12.904155 500.000000
0.231897 0.260000 0.410000 98.379475 -56.585879 -12.909432 500.000000
-0.260000 0.090000 0.290000 53.332135 131.550582 82.308318 500.000000
0.260000 0.090000 0.290000 -66.842745 63.515821 16.411562 500.000000
-0.260000 0.090000 0.290000 52.667864 134.125857 82.601079 500.000000
0.260000 0.090787 0.410000 -46.567541 -33.842506 -105.871580 500.000000
-0.260000 0.090000 0.290000 52.178254 131.974584 82.281998 500.000000
0.260000 0.090000 0.410000 -73.613361 178.290009 -59.495904 500.000000
0.010633 0.260000 0.290000 -7.746266 -20.589153 129.349404 500.000000
-0.260000 0.260000 0.410000 70.829866 -87.140896 -21.790885 500.000000
0.159606 0.260000 0.410000 83.921242 -38.493354 -219.826318 500.000000
0.254869 0.260000 0.410000 55.510414 -30.177350 -87.110348 500.000000
-0.260000 0.260000 0.410000 85.299539 -19.117593 -359.953815 500.000000
0.260000 0.142980 0.290000 -24.767476 -23.403945 220.432133 500.000000
-0.072291 0.090000 0.410000 -46.766389 35.984258 -171.629131 500.000000
0.260000 0.090000 0.410000 -34.191241 106.731963 -97.318763 500.000000
-0.260000 0.090000 0.290000 69.337497 189.751019 80.695199 500.000000
-0.260000 0.090000 0.410000 171.743896 113.043676 -126.979407 500.000000
-0.220731 0.260000 0.290000 -96.146274 -967.113182 137.839723 500.000000
0.182793 0.260000 0.290000 88.558660 -92.338186 111.684893 500.000000
-0.180230 0.090000 0.410000 -58.755670 45.363106 -41.559349 500.000000
-0.260000 0.118389 0.410000 365.424710 -28.322278 -283.187855 500.000000
-0.260000 0.258987 0.290000 21.745091 33.797392 76.631827 500.000000
-0.260000 0.090000 0.290000 542.707310 17.841093 108.899043 500.000000
0.260000 0.260000 0.410000 -707.950078 -32.740316 -18.384300 500.000000
0.260000 0.260000 0.410000 -57.444774 -56.442276 -12.856506 500.000000
-0.200496 0.260000 0.290000 -51.330277 -21.852461 132.098195 500.000000
0.260000 0.260000 0.410000 -71.393685 -26.042160 -242.958182 500.000000
0.167016 0.260000 0.290000 85.403248 -66.635187 113.607689 500.000000
0.260000 0.129236 0.290000 -70.882154 -26.152852 137.387740 500.000000
0.179571 0.260000 0.410000 87.914116 -67.991319 -36.552350 500.000000
-0.260000 0.090000 0.290000 76.756491 201.590664 80.507907 500.000000
0.114103 0.201380 0.290000 74.820550 22.275902 26.718278 500.000000
0.260000 0.260000 0.290000 -58.701450 -84.517805 110.472241 500.000000
0.260000 0.090000 0.410000 -71.900779 51.470349 -144.606802 500.000000
-0.260000 0.090000 0.290000 98.372448 67.689284 182.081160 500.000000
0.260000 0.260000 0.290000 -76.537389 -51.946822 110.690696 500.000000
0.215585 0.260000 0.410000 95.117040 -62.460873 -12.299394 500.000000
-0.260000 0.260000 0.290000 46.668290 -21.900497 131.801204 500.000000
0.171869 0.260000 0.290000 86.373773 -77.339446 114.096597 500.000000
-0.260000 0.137729 0.290000 51.514615 -24.454180 124.181703 500.000000
0.260000 0.090000 0.410000 -66.706694 74.868001 -75.430931 500.000000
0.260000 0.090000 0.410000 -69.404449 50.002854 -197.883618 500.000000
-0.260000 0.193750 0.410000 55.723543 20.750009 -118.101661 500.000000
-0.183077 0.090000 0.410000 -29.423197 47.423215 -40.744941 500.000000
0.260000 0.090000 0.290000 -82.092834 44.662871 100.143538 500.000000
-0.260000 0.260000 0.410000 73.995347 -95.895938 -54.291279 500.000000
-0.260000 0.090000 0.410000 31.933166 39.893400 -43.501941 500.000000
-0.260000 0.090000 0.290000 79.784116 146.704616 80.718842 500.000000
0.260000 0.260000 0.290000 -128.334147 -21.407536 160.302244 500.000000
-0.216470 0.260000 0.290000 -95.293900 -293.540040 339.485519 500.000000
-0.260000 0.090000 0.290000 52.571669 137.909770 82.952925 500.000000
0.260000 0.090000 0.410000 -69.501611 46.304716 -347.777026 500.000000
-0.260000 0.237682 0.410000 119.939673 29.536416 -370.085926 500.000000
-0.260000 0.260000 0.410000 66.307807 -41.900969 -184.342332 500.000000
-0.260000 0.254086 0.410000 39.387314 32.817191 -31.713736 500.000000
-0.260000 0.090000 0.290000 122.788735 156.574246 80.578962 500.000000
0.260000 0.090000 0.410000 -69.397964 46.926089 -304.801213 500.000000
0.260000 0.167185 0.290000 -55.299542 -18.562936 19.248219 500.000000
-0.260000 0.090000 0.410000 120.893653 18.544978 -57.880252 500.000000
-0.172992 0.090000 0.290000 17.401666 72.179404 243.459097 500.000000
-0.260000 0.090000 0.290000 59.160437 131.708377 81.048540 500.000000
-0.260000 0.139674 0.410000 145.572063 -24.065239 -144.247280 500.000000
0.260000 0.095821 0.290000 -71.842463 -32.835791 101.473069 500.000000
0.251281 0.260000 0.290000 102.256265 -34.073065 113.863472 500.000000
-0.260000 0.090000 0.290000 52.346748 133.040815 82.959001 500.000000
0.260000 0.090000 0.410000 -83.311198 138.608236 -94.062219 500.000000
-0.252622 0.090000 0.290000 -102.524472 146.417845 106.815812 500.000000
-0.028501 0.260000 0.290000 -19.077210 -19.918596 131.646097 500.000000
0.260000 0.157494 0.290000 -370.078701 -20.501299 58.725457 500.000000
0.040135 0.090000 0.290000 60.027045 238.060074 149.852695 500.000000
-0.260000 0.260000 0.290000 36.748469 -46.993300 128.382720 500.000000
0.260000 0.260000 0.410000 -53.039737 -27.944601 -246.897361 500.000000
0.260000 0.090000 0.290000 -178.892043 31.333722 128.708346 500.000000
-0.260000 0.260000 0.290000 186.923341 -18.949166 141.452692 500.000000
-0.260000 0.260000 0.410000 46.404589 -82.516611 -14.050963 500.000000
-0.260000 0.260000 0.410000 57.878845 -112.717798 -13.660696 500.000000
-0.260000 0.260000 0.410000 58.731808 -85.610580 -28.544135 500.000000
0.072306 0.260000 0.410000 -37.538716 -20.393691 -116.321723 500.000000
0.260000 0.260000 0.410000 -71.264953 -25.014707 -17.317634 500.000000
-0.260000 0.090000 0.290000 52.739297 138.462414 83.204037 500.000000
-0.260000 0.098432 0.410000 153.626389 -32.313575 -148.712209 500.000000
-0.260000 0.090000 0.410000 302.356298 20.577629 -310.625596 500.000000
0.260000 0.090000 0.410000 -74.421017 82.203807 -67.801980 500.000000
0.260000 0.260000 0.290000 -73.459199 -20.622573 131.769106 500.000000
-0.260000 0.260000 0.410000 65.351751 -91.728445 -14.660797 500.000000
0.260000 0.090000 0.290000 -54.753823 124.334110 25.369756 500.000000
0.260000 0.091382 0.290000 -72.096942 -33.723570 100.767049 500.000000
0.260000 0.096176 0.290000 -67.879380 -32.764806 101.322601 500.000000
-0.260000 0.160898 0.410000 125.751350 -19.820400 -47.450509 500.000000
0.260000 0.090000 0.410000 -70.900052 196.647574 -55.550109 500.000000
0.260000 0.260000 0.290000 -56.048740 -34.987555 122.709822 500.000000
-0.184390 0.260000 0.290000 -88.877954 -21.083553 149.671110 500.000000
0.165528 0.260000 0.290000 85.105523 -33.207601 112.558836 500.000000
-0.138580 0.090000 0.290000 -2.509148 339.634286 92.343515 500.000000
0.260000 0.090000 0.410000 -526.989295 32.228980 -306.895635 500.000000
0.260000 0.260000 0.290000 -88.252004 -46.529688 134.841728 500.000000
0.260000 0.109361 0.290000 -63.949110 -30.127769 100.937800 500.000000
-0.260000 0.260000 0.290000 55.634144 -567.349390 321.766631 500.000000
0.260000 0.260000 0.410000 -64.638397 -46.539694 -287.673700 500.000000
-0.209750 0.090000 0.290000 -93.949968 131.080147 95.005708 500.000000
0.260000 0.144906 0.290000 -313.077377 -23.018852 46.558311 500.000000
0.071343 0.260000 0.397696 -2.828476 -20.137061 21.539130 500.000000
0.260000 0.219363 0.410000 -78.320774 25.872575 -26.022415 500.000000
-0.260000 0.090000 0.290000 89.309507 132.993256 82.738441 500.000000
0.260000 0.090000 0.410000 -35.886962 90.853968 -94.333271 500.000000
0.260000 0.260000 0.290000 -145.374331 -35.840919 153.161607 500.000000
0.160850 0.260000 0.410000 84.170088 -55.977321 -21.065091 500.000000
-0.260000 0.090000 0.290000 52.213064 133.080457 82.594468 500.000000
0.260000 0.090000 0.410000 -52.032223 116.239189 -95.233633 500.000000
-0.260000 0.260000 0.410000 62.156927 -90.222368 -14.871289 500.000000
-0.174839 0.090000 0.290000 -43.478476 30.362498 124.196816 500.000000
0.260000 0.090000 0.410000 -72.985714 49.197342 -68.817487 500.000000
0.238287 0.260000 0.410000 99.657444 -57.255921 -12.916202 500.000000
0.054109 0.120901 0.303991 29.717220 6.180238 -3.023532 500.000000
-0.260000 0.260000 0.410000 67.891470 -88.230657 -45.650891 500.000000
-0.260000 0.090000 0.410000 142.234011 170.688259 -134.229309 500.000000
-0.260000 0.090000 0.410000 34.496964 39.902174 -76.994723 500.000000
0.260000 0.260000 0.410000 -22.107145 -43.920419 -85.435928 500.000000
0.260000 0.260000 0.410000 -52.017504 -55.917183 -13.275217 500.000000
0.105946 0.260000 0.290000 -5.692223 -21.402583 128.965010 500.000000
-0.260000 0.260000 0.410000 93.598724 -35.000985 -316.324907 500.000000
0.260000 0.090000 0.290000 -54.449092 33.963369 100.564164 500.000000
0.038362 0.260000 0.410000 59.672414 -337.963842 -48.810730 500.000000
-0.260000 0.090000 0.410000 822.465470 198.855470 -57.145218 500.000000
0.260000 0.260000 0.290000 -164.709123 -181.449300 124.905607 500.000000
-0.260000 0.090000 0.290000 59.815936 117.800301 310.060377 500.000000
0.054726 0.260000 0.410000 32.007963 -23.009951 -95.018572 500.000000
0.260000 0.090000 0.410000 -93.629080 47.202969 -258.297661 500.000000
-0.260000 0.090000 0.290000 73.531739 165.249007 81.594357 500.000000
0.260000 0.090000 0.410000 -70.058369 63.002375 -53.424742 500.000000
0.228546 0.260000 0.410000 97.709215 -57.934976 -12.914656 500.000000
-0.065079 0.260000 0.410000 -42.226893 -25.426482 -224.946319 500.000000
0.260000 0.260000 0.290000 -32.176957 -22.429053 123.883176 500.000000
0.260000 0.260000 0.410000 -105.922661 -55.913715 -18.430019 500.000000
0.260000 0.090000 0.410000 -69.269630 75.981131 -74.841199 500.000000
0.169990 0.260000 0.290000 85.998000 -38.380474 112.593795 500.000000
0.260000 0.260000 0.410000 -30.764063 -22.829665 -201.125750 500.000000
0.260000 0.260000 0.410000 -173.911609 -92.479230 -25.555631 500.000000
-0.260000 0.260000 0.410000 57.562578 -85.683900 -42.492684 500.000000
0.056400 0.260000 0.290000 63.280015 -57.024181 112.076713 500.000000
0.231795 0.260000 0.410000 62.179173 -26.599641 -294.509233 500.000000
0.260000 0.260000 0.410000 -101.015645 -92.153413 -21.962555 500.000000
-0.215315 0.090000 0.290000 -19.754061 337.010563 68.368363 500.000000
0.260000 0.090000 0.290000 -77.755411 28.763775 100.576667 500.000000
-0.246505 0.260000 0.290000 -33.399972 -66.260051 121.815170 500.000000
0.260000 0.260000 0.410000 -47.626420 -28.093207 -83.466751 500.000000
0.260000 0.260000 0.410000 -99.866491 -101.588053 -199.886456 500.000000
-0.260000 0.260000 0.403222 179.217204 -35.431078 22.644479 500.000000
-0.260000 0.118060 0.410000 368.530692 -28.388034 -453.037106 500.000000
-0.260000 0.260000 0.290000 60.678202 -18.484558 180.561898 500.000000
0.028019 0.090000 0.410000 1.325999 82.997458 -95.622566 500.000000
0.260000 0.258489 0.290000 -51.925745 33.697724 123.748538 500.000000
0.260000 0.090000 0.410000 -67.324027 196.035994 -57.489857 500.000000
0.260000 0.090000 0.410000 -487.844318 113.563352 -128.058188 500.000000
-0.260000 0.260000 0.410000 61.825597 -19.129147 -283.283104 500.000000
0.260000 0.260000 0.410000 -52.683552 -88.614081 -16.644511 500.000000
-0.216864 0.090000 0.320327 -95.372785 125.499065 -17.934670 500.000000
0.260000 0.090000 0.410000 -102.250531 43.595706 -194.517606 500.000000
-0.128121 0.090000 0.301925 -7.307311 38.680102 -21.615040 500.000000
0.249723 0.153270 0.290000 101.944536 -21.346072 101.144012 500.000000
0.260000 0.090000 0.290000 -53.252237 20.582514 109.213103 500.000000
-0.260000 0.124379 0.410000 139.756155 -27.124138 -48.766854 500.000000
-0.260000 0.260000 0.410000 80.277503 -88.520784 -23.640314 500.000000
-0.260000 0.090000 0.410000 386.278361 17.547075 -221.125974 500.000000
0.260000 0.260000 0.404159 -80.973251 -58.493279 22.831742 500.000000
-0.053176 0.260000 0.410000 41.364806 -96.608818 -20.443025 500.000000
0.260000 0.090000 0.410000 -69.333336 49.581212 -373.526572 500.000000
-0.243928 0.260000 0.360727 -100.785576 -41.061203 -2.384958 500.000000
-0.260000 0.090000 0.410000 152.142512 153.100183 -136.512296 500.000000
0.260000 0.260000 0.410000 -62.145045 -24.721535 -260.684928 500.000000
-0.134062 0.260000 0.382239 -78.812441 -26.138105 18.447819 500.000000
0.260000 0.260000 0.410000 -31.839688 -46.747518 -81.712312 500.000000
-0.260000 0.260000 0.410000 86.697278 -75.299332 -239.689211 500.000000
-0.260000 0.260000 0.410000 201.442234 -35.012746 -65.744523 500.000000
-0.260000 0.174575 0.410000 87.037327 -5.974903 -53.893700 500.000000
0.206906 0.102668 0.290000 54.237744 -31.466301 209.943018 500.000000
-0.260000 0.102066 0.410000 126.029492 -31.586706 -56.712331 500.000000
-0.260000 0.238996 0.290000 46.644879 29.799264 39.524979 500.000000
0.260000 0.163771 0.290000 -90.084071 -19.245808 170.981411 500.000000
0.260000 0.260000 0.410000 -64.327301 -37.492222 -258.997570 500.000000
