ply
format ascii 1.0
element vertex 240
property float x
property float y
property float z
property float vx
property float vy
property float vz
property float density
end_header
-0.260000 0.090000 0.410000 104.693733 32.874506 -57.572694 500.000000
-0.260000 0.260000 0.290000 148.591580 -30.835358 14.822305 500.000000
-0.260000 0.260000 0.410000 96.442820 -83.740560 -38.017098 500.000000
0.260000 0.260000 0.410000 -87.551250 -17.499454 -103.341077 500.000000
-0.260000 0.236137 0.290000 118.396117 29.227372 28.823745 500.000000
-0.260000 0.260000 0.290000 484.389370 -64.893063 40.041861 500.000000
0.260000 0.090000 0.290000 -88.138816 109.062527 76.256364 500.000000
-0.260000 0.090000 0.410000 45.134006 18.728869 -20.724712 500.000000
-0.260000 0.260000 0.290000 75.600199 -196.777855 94.473562 500.000000
-0.260000 0.260000 0.290000 82.125200 -300.168705 66.210773 500.000000
0.260000 0.260000 0.327955 -252.028744 -31.193640 -16.408917 500.000000
-0.139640 0.090000 0.410000 -79.928052 40.742240 -12.726691 500.000000
-0.128636 0.102180 0.310584 -1.940378 -6.432012 -19.883224 500.000000
-0.260000 0.090000 0.290000 64.953071 322.313473 114.210766 500.000000
-0.260000 0.090000 0.290000 67.171146 40.666562 110.552808 500.000000
0.260000 0.090000 0.410000 -82.246885 83.837325 -75.660316 500.000000
0.260000 0.090000 0.410000 -92.591311 39.352887 -51.791472 500.000000
0.260000 0.260000 0.290000 -73.883623 -53.955934 40.619728 500.000000
-0.001073 0.090000 0.290000 3.800487 19.961540 57.795630 500.000000
0.260000 0.260000 0.410000 -23.193169 -54.867410 -28.137917 500.000000
-0.260000 0.090000 0.410000 74.637471 32.581072 -57.628367 500.000000
-0.260000 0.260000 0.290000 65.517979 -377.116891 43.823699 500.000000
-0.260000 0.090000 0.410000 91.638208 27.506192 -25.153364 500.000000
0.260000 0.260000 0.304338 -19.435258 -57.517947 2.867669 500.000000
-0.260000 0.188542 0.410000 35.840039 19.708459 -16.039422 500.000000
0.260000 0.235422 0.410000 -83.072030 29.084396 -78.721400 500.000000
-0.082867 0.090000 0.410000 -68.573332 47.367529 -33.099424 500.000000
-0.260000 0.090000 0.290000 40.546291 41.716015 60.477731 500.000000
0.164928 0.260000 0.290000 84.985674 -30.645192 14.866856 500.000000
0.260000 0.260000 0.290000 -423.254479 -37.699241 41.762190 500.000000
0.260000 0.260000 0.410000 -82.299275 -34.285582 -64.470558 500.000000
-0.102659 0.260000 0.410000 -18.315270 -27.689974 -14.569985 500.000000
-0.260000 0.090000 0.410000 360.331739 70.935130 -58.493913 500.000000
0.116515 0.260000 0.410000 14.981333 -77.079114 -44.141237 500.000000
0.260000 0.090000 0.410000 -76.075119 73.026329 -33.426508 500.000000
0.260000 0.090000 0.290000 -23.913018 17.381734 33.172706 500.000000
0.260000 0.090000 0.290000 -93.757598 40.227020 49.561502 500.000000
-0.260000 0.090000 0.290000 69.768506 154.475195 66.188625 500.000000
0.260000 0.090000 0.290000 -74.000924 24.003207 41.310743 500.000000
-0.155515 0.260000 0.410000 -17.054027 -14.059336 -203.476339 500.000000
0.144226 0.260000 0.410000 80.845196 -113.084095 -35.218327 500.000000
0.260000 0.235467 0.410000 -83.856543 29.093376 -78.736281 500.000000
-0.260000 0.090000 0.290000 66.363089 158.395409 84.336550 500.000000
-0.260000 0.090000 0.290000 85.779749 172.121302 77.037717 500.000000
-0.260000 0.090000 0.290000 118.470073 22.333537 16.612068 500.000000
0.260000 0.260000 0.290000 -137.666267 -69.326891 974.169994 500.000000
-0.260000 0.090000 0.410000 490.277321 66.146056 -77.850906 500.000000
-0.260000 0.229092 0.290000 95.558050 27.818317 18.502054 500.000000
0.260000 0.260000 0.410000 -52.818977 -81.524615 -101.896856 500.000000
-0.082401 0.090000 0.290000 -29.590975 38.254982 59.981703 500.000000
0.260000 0.260000 0.290000 -111.151754 -31.209406 49.449987 500.000000
0.260000 0.090000 0.410000 -118.915093 137.218609 -39.423556 500.000000
0.260000 0.090000 0.410000 -36.436878 35.278536 -52.247280 500.000000
-0.260000 0.260000 0.410000 281.688978 -186.971266 -73.778714 500.000000
0.260000 0.260000 0.410000 -63.342722 -228.537729 -82.188163 500.000000
-0.108783 0.260000 0.290000 30.243440 -46.196741 12.756382 500.000000
-0.260000 0.090000 0.410000 529.188477 58.261406 -18.846513 500.000000
-0.260000 0.090000 0.290000 67.650319 171.225292 135.382262 500.000000
0.260000 0.260000 0.290000 -107.432405 -39.172907 14.289000 500.000000
0.260000 0.260000 0.410000 -83.606292 -34.395013 -78.751957 500.000000
0.260000 0.260000 0.410000 -84.031926 -193.224417 -65.577641 500.000000
-0.260000 0.255867 0.294258 108.269087 33.173371 -23.148458 500.000000
-0.260000 0.260000 0.290000 45.130216 -34.867833 100.105408 500.000000
-0.260000 0.090000 0.290000 65.889539 163.490438 130.298947 500.000000
-0.260000 0.260000 0.290000 125.104647 -27.910146 29.100074 500.000000
-0.201010 0.090000 0.410000 -59.191667 124.012662 -40.976550 500.000000
-0.260000 0.251683 0.290000 35.309826 32.336664 15.189684 500.000000
0.260000 0.090000 0.410000 -66.592105 71.429343 -33.560949 500.000000
-0.260000 0.091115 0.290000 54.604427 -33.777096 104.961716 500.000000
0.260000 0.260000 0.410000 -78.739335 -44.389923 -39.201640 500.000000
-0.260000 0.260000 0.290000 49.499818 -54.509418 51.521171 500.000000
-0.260000 0.205651 0.410000 46.473747 -3.008041 -37.756232 500.000000
0.260000 0.090000 0.410000 -43.986397 26.400408 -142.956043 500.000000
0.260000 0.090000 0.293134 -45.763611 22.701472 -23.373103 500.000000
-0.260000 0.230983 0.290000 119.639462 28.196546 31.568037 500.000000
-0.260000 0.259610 0.307932 243.650460 33.922068 -20.413514 500.000000
-0.004387 0.090000 0.410000 -52.877341 197.131282 -16.856355 500.000000
0.260000 0.090000 0.410000 -79.858518 71.089049 -32.864536 500.000000
0.260000 0.240254 0.410000 -84.786518 30.050749 -80.408685 500.000000
0.260000 0.090000 0.290000 -92.960845 58.776605 97.661242 500.000000
-0.260000 0.230787 0.290000 119.599275 28.157397 31.362959 500.000000
-0.260000 0.230929 0.290000 119.652113 28.185890 31.593039 500.000000
0.260000 0.112359 0.290000 -22.159443 -29.528265 33.075112 500.000000
-0.260000 0.231141 0.290000 119.709816 28.228213 31.808000 500.000000
0.108047 0.090000 0.410000 -30.390646 89.074729 -15.334231 500.000000
-0.260000 0.090000 0.290000 98.207368 62.255783 36.656897 500.000000
0.260000 0.090000 0.410000 -86.678347 83.279308 -65.596124 500.000000
-0.139977 0.260000 0.294771 -17.459950 -19.707330 -23.045849 500.000000
-0.260000 0.231236 0.290000 119.703964 28.247190 31.343409 500.000000
-0.260000 0.213932 0.389241 34.075820 3.876768 19.848243 500.000000
-0.260000 0.090000 0.290000 314.195889 44.145619 61.321956 500.000000
0.260000 0.090000 0.290000 -154.578976 45.881579 59.948099 500.000000
0.260000 0.175463 0.410000 -81.114820 17.092625 -49.402919 500.000000
-0.141800 0.090000 0.410000 -80.359924 26.858438 -26.301611 500.000000
0.260000 0.260000 0.410000 -25.348365 -50.256931 -25.830138 500.000000
0.260000 0.090000 0.290000 -360.896630 73.369601 87.671203 500.000000
-0.260000 0.260000 0.410000 1075.726123 -22.278334 -42.144588 500.000000
0.260000 0.090000 0.410000 -40.927914 84.307298 -138.219172 500.000000
0.260000 0.260000 0.290000 -60.854675 -30.541962 13.312486 500.000000
0.260000 0.260000 0.290000 -30.902963 -60.000711 33.424658 500.000000
0.260000 0.260000 0.410000 -69.965385 -43.250967 -39.792813 500.000000
0.109750 0.260000 0.290000 73.950019 -30.455925 14.122604 500.000000
0.260000 0.235394 0.410000 -82.360033 29.078782 -78.753730 500.000000
0.260000 0.235530 0.410000 -84.798796 29.105955 -78.726463 500.000000
-0.260000 0.247503 0.410000 28.851724 31.500619 -17.394647 500.000000
0.260000 0.259939 0.370759 -18.706253 14.628927 -7.848258 500.000000
0.260000 0.260000 0.410000 -82.432393 -33.387004 -78.774633 500.000000
-0.221138 0.090000 0.290000 -96.227652 177.062088 162.306696 500.000000
0.034201 0.260000 0.290000 -45.159836 -30.094501 151.453398 500.000000
-0.258809 0.179755 0.410000 -48.250213 -16.049070 -11.214716 500.000000
-0.260000 0.090000 0.410000 82.463234 37.906763 -15.306803 500.000000
0.260000 0.260000 0.290000 -32.059742 -65.199225 55.795920 500.000000
0.260000 0.090000 0.410000 -95.251498 70.846755 -33.711556 500.000000
-0.260000 0.260000 0.290000 16.693427 -18.408620 216.617312 500.000000
-0.260000 0.217504 0.290000 110.586246 25.500802 65.367768 500.000000
-0.260000 0.090000 0.290000 65.966031 28.594920 119.978423 500.000000
0.260000 0.090000 0.410000 -70.063434 27.581526 -51.234755 500.000000
0.260000 0.260000 0.410000 -82.762362 -64.312493 -78.978064 500.000000
0.260000 0.260000 0.290000 -170.334130 -105.956024 90.021221 500.000000
0.260000 0.260000 0.410000 -82.852113 -53.009517 -79.190860 500.000000
0.260000 0.090000 0.410000 -95.477625 78.259132 -33.408491 500.000000
-0.171215 0.260000 0.410000 2.022626 -25.158738 -3.604531 500.000000
0.260000 0.090000 0.290000 -90.813290 49.126174 21.876552 500.000000
0.260000 0.090000 0.410000 -74.659385 72.234729 -33.421152 500.000000
0.260000 0.090000 0.290000 -69.889182 28.900898 41.920836 500.000000
-0.101940 0.260000 0.290000 -32.290169 -29.893956 106.317492 500.000000
0.216377 0.260000 0.290000 95.275341 -30.038751 28.019362 500.000000
-0.260000 0.260000 0.290000 99.303947 -32.174068 93.900094 500.000000
0.260000 0.230985 0.410000 -83.925894 28.197000 -85.315135 500.000000
-0.260000 0.090000 0.290000 76.980435 176.218446 124.370469 500.000000
-0.004128 0.260000 0.385669 -10.826383 -28.422185 19.133744 500.000000
0.260000 0.090000 0.410000 -95.089382 83.340968 -65.604819 500.000000
-0.260000 0.260000 0.290000 120.563744 -32.229714 33.451770 500.000000
-0.260000 0.260000 0.410000 61.022609 -52.392524 -39.965145 500.000000
0.260000 0.260000 0.290000 -1289.563403 -25.180835 30.586638 500.000000
0.260000 0.253178 0.410000 -83.089218 32.635551 -58.427610 500.000000
-0.012636 0.260000 0.290000 10.145013 -42.132006 305.107438 500.000000
-0.260000 0.260000 0.368995 35.159469 -69.404067 15.799094 500.000000
0.182160 0.090000 0.290000 25.330481 55.004636 84.385215 500.000000
0.260000 0.090000 0.381041 -59.264941 171.703808 18.208243 500.000000
-0.260000 0.231427 0.290000 119.103886 28.285420 31.085580 500.000000
-0.260000 0.231146 0.290000 119.641871 28.229165 31.593082 500.000000
-0.260000 0.090000 0.290000 131.228119 19.515596 50.685714 500.000000
-0.260000 0.230809 0.290000 119.573602 28.161841 31.280557 500.000000
0.242119 0.260000 0.290000 45.777607 -50.228847 50.609525 500.000000
-0.260000 0.260000 0.410000 168.909485 -68.057808 -53.945320 500.000000
0.260000 0.260000 0.290000 -52.902771 -151.224673 234.037538 500.000000
0.260000 0.090000 0.410000 -70.466310 82.891100 -65.651228 500.000000
-0.135833 0.090000 0.290000 24.833302 235.278613 27.889661 500.000000
-0.260000 0.232921 0.290000 119.812712 28.584130 31.660271 500.000000
0.260000 0.260000 0.290000 -65.789003 -34.596437 50.459853 500.000000
-0.138052 0.260000 0.410000 -79.610390 -64.295761 -49.381691 500.000000
-0.260000 0.231012 0.290000 119.658806 28.202443 31.592529 500.000000
0.260000 0.234370 0.410000 -82.591069 28.874034 -78.817102 500.000000
0.021667 0.260000 0.403677 56.333321 -21.901551 22.735464 500.000000
-0.260000 0.260000 0.410000 64.203267 -77.837935 -48.390961 500.000000
0.260000 0.090000 0.290000 -68.392380 41.001528 35.484962 500.000000
0.260000 0.090000 0.410000 -83.078050 90.433130 -35.762397 500.000000
0.260000 0.244663 0.410000 -174.463530 30.932535 -87.511349 500.000000
-0.260000 0.259320 0.290000 118.802552 33.864072 29.713624 500.000000
-0.260000 0.260000 0.290000 105.276974 -55.614475 16.950501 500.000000
-0.240025 0.260000 0.290000 -100.005075 -217.621261 44.647834 500.000000
0.260000 0.235554 0.410000 -83.509196 29.110748 -78.726805 500.000000
0.260000 0.090000 0.410000 -34.290255 132.157655 -39.169613 500.000000
-0.260000 0.260000 0.290000 65.351411 -360.411804 59.262293 500.000000
-0.260000 0.260000 0.344660 37.043382 -38.252528 -13.068017 500.000000
-0.227284 0.090000 0.410000 -97.456723 58.255825 -15.817404 500.000000
0.260000 0.090000 0.410000 -24.672519 122.061717 -38.927468 500.000000
0.260000 0.260000 0.410000 -82.757699 -58.412142 -79.170394 500.000000
-0.260000 0.260000 0.290000 125.850889 -17.212244 28.595475 500.000000
-0.260000 0.090000 0.290000 55.664585 185.925727 47.602244 500.000000
-0.260000 0.090000 0.410000 79.816422 33.388518 -58.267730 500.000000
0.047484 0.260000 0.290000 61.496825 -31.163044 14.434877 500.000000
0.260000 0.260000 0.410000 -80.434467 -314.263400 -32.428856 500.000000
0.222060 0.172751 0.335830 52.970923 4.712415 9.165919 500.000000
0.260000 0.213854 0.410000 -67.852372 24.770714 -47.545672 500.000000
-0.260000 0.231227 0.290000 119.884666 28.245475 37.300081 500.000000
0.260000 0.090000 0.290000 -30.237133 57.509028 100.107205 500.000000
0.260000 0.260000 0.410000 -82.219554 -61.630887 -79.191044 500.000000
-0.260000 0.219299 0.290000 129.840218 25.859733 111.456085 500.000000
-0.239453 0.090000 0.406861 -47.006741 29.189573 23.372298 500.000000
0.260000 0.090000 0.410000 -37.538721 123.530488 -38.919424 500.000000
-0.137629 0.090000 0.410000 -79.525823 64.911733 -32.780608 500.000000
-0.260000 0.090000 0.410000 52.024652 23.585789 -26.085289 500.000000
0.260000 0.260000 0.410000 -47.169606 -12.962897 -348.167648 500.000000
0.260000 0.260000 0.290000 -53.627464 -7.699646 33.078836 500.000000
0.260000 0.090000 0.410000 -84.107404 71.788954 -68.684624 500.000000
-0.260000 0.090000 0.410000 40.058637 60.482575 -52.004771 500.000000
0.173859 0.260000 0.290000 -17.228137 -17.639112 16.318974 500.000000
-0.260000 0.260000 0.290000 112.557089 -19.228191 34.849362 500.000000
0.260000 0.260000 0.410000 -135.998921 -43.174417 -32.116212 500.000000
0.260000 0.260000 0.410000 -35.303591 -58.790699 -25.440061 500.000000
0.260000 0.260000 0.410000 -81.932496 -65.586763 -79.119811 500.000000
0.258338 0.090461 0.410000 50.224183 -33.907804 -48.659308 500.000000
-0.260000 0.260000 0.347145 19.008986 -18.600024 11.429006 500.000000
0.139701 0.211165 0.351353 27.552585 14.761057 12.270531 500.000000
-0.260000 0.234374 0.290000 119.679836 28.874820 31.403576 500.000000
0.260000 0.090000 0.300537 -95.909719 43.976323 -21.892637 500.000000
-0.260000 0.090000 0.410000 69.534407 32.968642 -58.193766 500.000000
0.260000 0.244575 0.410000 -84.098315 30.914964 -78.737797 500.000000
-0.099658 0.260000 0.410000 -71.931574 -83.162984 -49.271389 500.000000
-0.260000 0.224576 0.290000 142.923604 26.915262 29.339614 500.000000
-0.146123 0.090000 0.410000 -81.224567 23.784052 -26.175948 500.000000
0.023815 0.090000 0.410000 -34.290235 38.278901 -62.780677 500.000000
0.260000 0.090000 0.290000 -95.792832 58.782442 110.974522 500.000000
0.191517 0.090000 0.410000 50.851172 3.646618 -24.877962 500.000000
0.260000 0.090000 0.410000 -82.697034 82.828460 -64.745960 500.000000
0.260000 0.260000 0.290000 -54.775858 -136.599919 219.027155 500.000000
-0.260000 0.233416 0.290000 119.687771 28.683192 31.376388 500.000000
0.214263 0.243920 0.290000 7.352413 30.783909 37.777698 500.000000
-0.226496 0.090000 0.410000 -97.299226 34.066630 -58.292123 500.000000
0.252243 0.260000 0.410000 25.441077 -55.794232 -23.503298 500.000000
0.260000 0.260000 0.410000 -38.500116 -27.170320 -265.859776 500.000000
0.260000 0.090000 0.290000 -92.212539 50.541203 41.919430 500.000000
0.260000 0.235331 0.410000 -85.129614 29.066209 -78.726401 500.000000
0.260000 0.260000 0.410000 -82.418410 -17.332865 -112.605119 500.000000
-0.260000 0.260000 0.290000 18.241367 -25.940263 9.858396 500.000000
0.260000 0.162906 0.375035 -27.216097 -6.698813 17.007018 500.000000
0.260000 0.233550 0.410000 -84.909907 28.710029 -80.334777 500.000000
0.112546 0.260000 0.410000 4.695759 -37.031313 -19.983942 500.000000
-0.126998 0.090000 0.410000 -77.399528 88.684553 -26.396369 500.000000
-0.260000 0.090000 0.410000 87.768671 72.251074 -414.277280 500.000000
0.205857 0.260000 0.290000 93.171341 -29.283321 19.021964 500.000000
0.260000 0.241767 0.410000 -161.316478 30.353488 -91.304381 500.000000
-0.148931 0.225774 0.410000 -68.568379 27.154711 -498.031721 500.000000
-0.260000 0.260000 0.410000 79.057728 -102.884401 -35.283502 500.000000
0.176192 0.259378 0.290000 67.123079 -0.041878 32.366320 500.000000
0.260000 0.197956 0.290000 -32.313400 -12.408814 18.858464 500.000000
0.260000 0.260000 0.410000 -20.233482 -42.922590 -31.070718 500.000000
0.260000 0.260000 0.410000 -119.188132 -50.335013 -14.419886 500.000000
-0.260000 0.260000 0.290000 156.074540 -37.399854 16.286429 500.000000
0.260000 0.090000 0.392660 -63.286692 91.240930 20.532090 500.000000
0.260000 0.260000 0.410000 -73.558444 -57.109099 -23.520908 500.000000
-0.260000 0.244853 0.290000 152.637731 30.970607 29.548484 500.000000
0.260000 0.252408 0.410000 -85.316153 32.481644 -58.279371 500.000000
0.260000 0.260000 0.410000 -83.224378 -21.699153 -86.839615 500.000000
0.193675 0.090000 0.290000 10.830029 42.305749 332.477165 500.000000
0.260000 0.090000 0.410000 -69.898609 69.588123 -27.682473 500.000000
0.260000 0.255309 0.410000 -76.910830 33.061774 -47.665333 500.000000
0.260000 0.260000 0.290000 -1246.871084 -20.142033 70.393865 500.000000
