ply
format ascii 1.0
element vertex 240
property float x
property float y
property float z
property float vx
property float vy
property float vz
property float density
end_header
-0.260000 0.090000 0.290000 94.129233 89.203617 93.563587 500.000000
-0.260000 0.090000 0.290000 46.857776 105.365899 51.144488 500.000000
0.260000 0.260000 0.290000 -55.132993 -19.810389 121.741350 500.000000
0.041229 0.124012 0.410000 7.703604 -27.197642 -167.000481 500.000000
-0.260000 0.090000 0.290000 83.429924 91.416187 92.223714 500.000000
0.176474 0.260000 0.384100 87.294874 -76.207931 18.820012 500.000000
-0.260000 0.090000 0.290000 60.288688 90.963704 113.566583 500.000000
0.260000 0.090000 0.290000 -66.064317 52.104222 150.809065 500.000000
-0.214420 0.090000 0.410000 -94.883955 19.451713 -16.080209 500.000000
0.260000 0.090000 0.290000 -67.031623 50.780945 148.429376 500.000000
-0.094541 0.260000 0.410000 -70.908150 -45.687793 -19.031909 500.000000
0.034264 0.090000 0.290000 -45.147245 16.000566 59.056521 500.000000
0.260000 0.090000 0.290000 -66.116472 50.116811 148.482949 500.000000
0.117758 0.109122 0.380784 75.551628 -30.175510 18.156883 500.000000
-0.206747 0.090000 0.410000 -93.349348 20.896888 -15.758986 500.000000
0.260000 0.090000 0.290000 -741.129185 26.429916 53.895593 500.000000
-0.260000 0.260000 0.290000 26.710859 -74.401726 27.528720 500.000000
-0.260000 0.260000 0.410000 8.723878 -18.809982 -18.844041 500.000000
-0.260000 0.260000 0.290000 63.003336 -157.909973 26.653848 500.000000
0.123989 0.260000 0.290000 76.797704 -55.215245 99.349039 500.000000
-0.149521 0.148481 0.290000 -16.824457 -22.303892 44.773317 500.000000
-0.236321 0.090000 0.410000 -99.264258 22.126869 -16.464309 500.000000
-0.217974 0.090000 0.410000 -95.594830 20.204496 -15.416466 500.000000
0.260000 0.090000 0.410000 -117.751557 126.352087 -20.817900 500.000000
0.260000 0.260000 0.410000 -66.126677 -56.239201 -25.190014 500.000000
0.260000 0.090000 0.410000 -156.867443 17.767244 -26.836040 500.000000
0.071798 0.109191 0.386467 66.359642 -30.161876 19.293469 500.000000
-0.210996 0.090000 0.410000 -94.199179 19.201832 -14.659417 500.000000
0.260000 0.260000 0.320129 -73.941856 -39.787455 -17.974151 500.000000
0.260000 0.260000 0.410000 -135.861460 -56.244946 -25.504007 500.000000
-0.260000 0.090000 0.290000 62.832431 88.214391 93.509337 500.000000
-0.260000 0.260000 0.290000 75.716554 -914.404290 94.810040 500.000000
0.260000 0.260000 0.290000 -29.137544 -181.185744 28.408910 500.000000
0.260000 0.096598 0.410000 -75.488947 -32.680467 -20.729419 500.000000
0.128783 0.109283 0.379873 77.756521 -30.143426 17.974658 500.000000
-0.222084 0.090000 0.410000 -96.416875 24.556681 -16.028425 500.000000
0.260000 0.090000 0.315867 -13.792048 19.687220 -18.826510 500.000000
0.145345 0.260000 0.290000 81.069096 -55.933649 98.837246 500.000000
-0.260000 0.090000 0.290000 111.399932 92.321524 94.462009 500.000000
-0.177609 0.260000 0.290000 -87.521822 -95.804687 20.503246 500.000000
0.260000 0.260000 0.410000 -99.522587 -68.132928 -21.910780 500.000000
0.141643 0.260000 0.290000 80.328506 -54.811005 99.251450 500.000000
-0.256872 0.090000 0.410000 -103.374477 135.659347 -37.898119 500.000000
-0.260000 0.090000 0.290000 100.694290 20.520623 46.304570 500.000000
0.260000 0.090000 0.290000 -88.213247 422.881062 113.236503 500.000000
-0.190596 0.122074 0.405652 -90.119134 -27.585251 23.130437 500.000000
0.246064 0.260000 0.410000 101.212850 -276.474391 -15.485949 500.000000
0.176176 0.096663 0.392488 31.916221 -32.667313 20.497514 500.000000
0.260000 0.090000 0.290000 -66.311627 54.554682 148.692000 500.000000
-0.062494 0.260000 0.410000 -64.498746 -32.665654 -18.400322 500.000000
-0.220802 0.090000 0.410000 -96.160485 21.272930 -15.821616 500.000000
0.260000 0.260000 0.290000 -53.864599 -46.367859 81.950554 500.000000
0.260000 0.260000 0.290000 -77.435668 -27.958112 107.241443 500.000000
-0.260000 0.090000 0.290000 52.349794 92.002351 88.907467 500.000000
-0.260000 0.260000 0.410000 43.094582 -21.382560 -37.550673 500.000000
-0.260000 0.260000 0.410000 171.921552 -25.837377 -19.488974 500.000000
-0.022967 0.090000 0.410000 -56.593353 11.895721 -23.247524 500.000000
0.260000 0.090000 0.290000 -73.796535 52.831370 157.478250 500.000000
0.260000 0.090000 0.290000 -293.014064 51.244659 110.661989 500.000000
0.135213 0.260000 0.290000 79.042638 -47.806462 155.493522 500.000000
0.260000 0.260000 0.410000 -177.880606 -57.943766 -25.231502 500.000000
-0.260000 0.090000 0.290000 64.987810 91.732136 95.254374 500.000000
-0.260000 0.163168 0.354271 33.257196 14.633582 12.854266 500.000000
0.260000 0.090000 0.290000 -99.431619 50.275686 149.903471 500.000000
-0.260000 0.090000 0.290000 94.574020 94.370844 91.429070 500.000000
0.260000 0.090000 0.290000 -115.461024 58.654511 150.091173 500.000000
0.245136 0.260000 0.290000 101.027290 -55.970839 98.853488 500.000000
-0.043224 0.260000 0.410000 -60.644708 -44.254767 -18.562021 500.000000
0.260000 0.260000 0.410000 -59.689570 -79.582936 -19.963679 500.000000
0.097911 0.090000 0.410000 71.582283 84.702511 -817.986263 500.000000
-0.196091 0.260000 0.410000 -13.847092 -37.236072 -28.635248 500.000000
-0.260000 0.090000 0.290000 67.239921 91.825493 91.990895 500.000000
-0.220103 0.090000 0.410000 -96.020590 20.638954 -15.628659 500.000000
-0.206064 0.143796 0.410000 -93.212881 -23.240827 -79.551915 500.000000
0.260000 0.090000 0.290000 -40.771443 12.225513 25.660538 500.000000
0.161468 0.260000 0.290000 84.293666 -53.865521 95.281058 500.000000
0.240133 0.203708 0.410000 10.702763 22.741518 -10.556833 500.000000
-0.206929 0.090000 0.410000 -93.385770 21.021999 -15.746124 500.000000
0.260000 0.260000 0.410000 -67.693343 -56.765200 -26.154208 500.000000
0.260000 0.190749 0.290000 -106.458980 20.149896 76.491246 500.000000
0.260000 0.090000 0.290000 -66.197646 50.251258 148.562634 500.000000
-0.260000 0.260000 0.290000 97.101984 -44.477990 13.246370 500.000000
0.260000 0.260000 0.290000 -116.491511 -28.398611 94.000298 500.000000
-0.260000 0.090000 0.290000 80.298589 92.058907 88.953261 500.000000
0.260000 0.260000 0.290000 -98.979944 -103.274314 95.871578 500.000000
-0.260000 0.260000 0.290000 120.992372 -51.858858 118.765636 500.000000
0.187777 0.260000 0.410000 -14.444580 -37.724059 -48.414418 500.000000
0.260000 0.121166 0.410000 -78.789646 -27.766838 -771.756975 500.000000
-0.260000 0.090000 0.290000 59.844035 91.326566 92.802829 500.000000
0.260000 0.260000 0.410000 -80.825442 -149.337399 -19.297027 500.000000
0.260000 0.090000 0.290000 -75.279504 63.867192 146.765440 500.000000
-0.260000 0.090000 0.290000 1185.451251 456.517098 87.939409 500.000000
0.154320 0.108978 0.379663 82.863990 -30.204439 17.932621 500.000000
0.260000 0.260000 0.410000 -82.142086 -17.643663 -629.550254 500.000000
-0.221019 0.090000 0.410000 -96.203844 18.940380 -15.081694 500.000000
0.100419 0.109136 0.383023 72.083847 -30.172726 18.604562 500.000000
-0.260000 0.090000 0.290000 75.470744 30.462245 18.866134 500.000000
0.037069 0.108057 0.369193 59.413791 -30.388639 15.838503 500.000000
-0.260000 0.260000 0.410000 129.794752 -19.782310 -20.549618 500.000000
-0.260000 0.260000 0.353381 146.907162 -193.198639 12.676155 500.000000
0.010031 0.254604 0.410000 -18.093162 32.920876 -28.808269 500.000000
-0.260000 0.199387 0.290000 86.562075 21.877348 111.480199 500.000000
-0.260000 0.090000 0.290000 137.964273 90.291222 93.502121 500.000000
0.260000 0.260000 0.410000 -150.532917 -26.569738 -19.902074 500.000000
0.260000 0.090000 0.410000 -60.546302 50.148791 -1175.846209 500.000000
0.260000 0.260000 0.410000 -99.121883 -34.439996 -21.384726 500.000000
0.260000 0.260000 0.410000 -82.091656 -31.190637 -37.973508 500.000000
0.260000 0.090000 0.290000 -107.621117 55.736069 147.094464 500.000000
-0.206771 0.090000 0.410000 -93.354255 20.639019 -15.756860 500.000000
-0.207321 0.090000 0.410000 -93.464110 20.693050 -15.844174 500.000000
-0.210617 0.090000 0.410000 -94.123472 21.159729 -15.359198 500.000000
-0.260000 0.090000 0.410000 104.240210 96.666594 -50.559900 500.000000
0.071345 0.260000 0.410000 -20.320137 -22.458734 -27.963098 500.000000
-0.260000 0.260000 0.410000 138.377714 -31.017072 -76.642465 500.000000
0.260000 0.260000 0.410000 -88.872276 -54.993059 -37.600175 500.000000
-0.260000 0.090000 0.290000 110.199761 93.484121 95.839035 500.000000
-0.067161 0.127596 0.366103 -7.738043 -26.480875 15.220542 500.000000
-0.260000 0.226201 0.410000 72.020851 27.240282 -20.413387 500.000000
-0.260000 0.090000 0.410000 104.169676 22.032017 -90.907838 500.000000
0.260000 0.148254 0.290000 -21.641797 -22.349270 27.215985 500.000000
0.260000 0.090000 0.290000 -66.166928 54.489944 149.548701 500.000000
0.260000 0.090000 0.290000 -113.748698 51.228784 147.265423 500.000000
0.076328 0.107635 0.383376 67.265602 -30.473023 18.675296 500.000000
0.260000 0.090000 0.410000 -412.961999 24.211150 -14.454043 500.000000
-0.229218 0.090000 0.410000 -97.843550 23.363611 -15.242683 500.000000
0.105652 0.260000 0.290000 73.130447 -874.840060 117.244480 500.000000
-0.260000 0.260000 0.410000 185.079155 -24.181060 -22.816850 500.000000
0.136720 0.126872 0.410000 38.031686 7.374485 -45.345836 500.000000
-0.207707 0.090000 0.410000 -93.541341 20.625428 -15.707421 500.000000
-0.260000 0.090000 0.290000 83.776859 49.074616 12.020581 500.000000
0.260000 0.090000 0.290000 -90.688318 50.169157 162.856272 500.000000
0.129300 0.260000 0.290000 77.859901 -57.018569 97.459705 500.000000
-0.097108 0.090000 0.410000 -0.108697 46.043251 -25.661322 500.000000
-0.086989 0.112895 0.410000 -69.397788 -29.420916 -521.961249 500.000000
0.260000 0.090000 0.290000 -66.152529 50.871210 148.378242 500.000000
-0.260000 0.260000 0.410000 115.237832 -38.684873 -36.592593 500.000000
0.260000 0.090000 0.410000 -30.404872 19.194235 -45.445658 500.000000
-0.260000 0.128287 0.290000 75.040915 -26.342576 47.420225 500.000000
-0.260000 0.090000 0.407304 229.951234 86.668181 23.460717 500.000000
-0.167924 0.090000 0.290000 -40.030732 15.180511 113.614217 500.000000
0.260000 0.090000 0.290000 -87.594989 51.367328 147.267603 500.000000
0.260000 0.161119 0.290000 -106.446378 -19.776292 37.400339 500.000000
0.257764 0.260000 0.290000 103.552744 -56.605039 98.857546 500.000000
0.118130 0.109289 0.382534 75.625921 -30.142241 18.506780 500.000000
0.260000 0.090000 0.410000 -82.446058 71.098054 -33.638514 500.000000
-0.228020 0.090000 0.410000 -97.603962 54.742644 -818.223773 500.000000
-0.260000 0.260000 0.290000 56.138508 -957.516592 89.265439 500.000000
0.260000 0.090000 0.290000 -66.317080 52.007229 148.952074 500.000000
-0.260000 0.260000 0.410000 152.827056 -30.346503 -149.496330 500.000000
0.059515 0.090000 0.410000 -40.097012 22.921790 -645.442773 500.000000
0.173475 0.109219 0.379252 86.694922 -30.156233 17.850445 500.000000
0.260000 0.090000 0.410000 -73.026220 182.028131 -19.517247 500.000000
-0.051228 0.260000 0.410000 -62.245549 -45.789910 -18.802631 500.000000
0.260000 0.090000 0.290000 -23.736034 30.435213 108.178426 500.000000
-0.260000 0.090000 0.290000 64.757847 91.836450 93.686222 500.000000
0.082159 0.109163 0.385302 68.431768 -30.167447 19.060378 500.000000
0.260000 0.090000 0.290000 -66.202823 52.007939 149.917300 500.000000
0.045504 0.105650 0.369511 61.100837 -30.869984 15.902102 500.000000
0.049331 0.131483 0.410000 -42.133727 -25.703387 -251.019769 500.000000
0.017607 0.090000 0.370697 55.521377 18.680140 16.139378 500.000000
-0.260000 0.090000 0.290000 81.072736 91.247455 92.675906 500.000000
-0.129751 0.090000 0.410000 -77.950276 25.982779 -12.166623 500.000000
0.003275 0.260000 0.290000 52.655075 -27.660898 155.226789 500.000000
0.260000 0.115753 0.290000 -43.775989 -28.849436 23.894179 500.000000
0.131830 0.090000 0.410000 78.365972 30.777235 -895.148734 500.000000
-0.206854 0.090000 0.410000 -93.370843 20.646044 -15.753384 500.000000
0.113311 0.090000 0.373581 74.662279 96.874710 16.716258 500.000000
0.260000 0.090000 0.290000 -227.545137 57.300762 151.066043 500.000000
-0.260000 0.090000 0.382097 33.618340 79.916713 18.419330 500.000000
0.142109 0.260000 0.290000 80.421734 -55.479512 102.004540 500.000000
-0.260000 0.090000 0.290000 145.725849 123.275811 74.325468 500.000000
0.166128 0.260000 0.290000 85.225515 -55.275824 98.857982 500.000000
0.260000 0.260000 0.290000 -59.170122 -81.195135 83.621105 500.000000
0.260000 0.260000 0.410000 -50.271088 -19.275501 -11.286430 500.000000
-0.014817 0.260000 0.410000 -18.121572 -17.787472 -19.340133 500.000000
0.026164 0.090000 0.410000 57.232836 19.114256 -572.110240 500.000000
0.232126 0.260000 0.410000 98.425228 -56.200627 -25.914796 500.000000
0.260000 0.090000 0.290000 -66.255465 50.710614 148.458309 500.000000
0.260000 0.090000 0.290000 -67.017583 50.716460 148.423193 500.000000
-0.260000 0.090000 0.410000 197.817929 51.378398 -276.542087 500.000000
-0.260000 0.090000 0.290000 69.748481 92.054618 89.103483 500.000000
-0.260000 0.260000 0.410000 57.113462 -31.524130 -18.517743 500.000000
0.200396 0.121969 0.410000 92.079281 -27.606243 -287.455624 500.000000
0.260000 0.090000 0.410000 -53.947151 364.862622 -13.699320 500.000000
-0.206948 0.090000 0.410000 -93.389665 20.716916 -15.739631 500.000000
-0.131610 0.090000 0.410000 -78.321983 22.500010 -15.067546 500.000000
-0.260000 0.090000 0.404800 7.698305 25.711238 22.959986 500.000000
-0.168562 0.252669 0.290000 -43.989609 13.187625 46.434663 500.000000
0.260000 0.090000 0.290000 -87.931631 51.761995 146.685152 500.000000
-0.145391 0.106281 0.410000 -81.078275 -13.598040 -69.636790 500.000000
-0.260000 0.260000 0.410000 170.588745 -173.583399 -18.013193 500.000000
-0.260000 0.100576 0.410000 60.304301 -31.884793 -20.807571 500.000000
0.130017 0.109280 0.375563 78.003466 -30.144025 17.112627 500.000000
0.260000 0.090000 0.290000 -66.387384 50.775233 148.425725 500.000000
-0.057570 0.090000 0.410000 -63.514067 113.267673 -27.384427 500.000000
-0.260000 0.090000 0.410000 100.945345 37.622516 -19.493839 500.000000
0.221704 0.243775 0.318590 24.046005 30.754960 -16.010943 500.000000
-0.260000 0.090000 0.290000 73.942113 91.945667 88.956595 500.000000
0.260000 0.090000 0.290000 -67.559855 50.927491 148.392092 500.000000
0.067054 0.260000 0.290000 65.410767 -98.313014 98.771778 500.000000
0.260000 0.260000 0.410000 -60.686000 -25.406305 -707.263971 500.000000
0.260000 0.090000 0.290000 -66.987305 50.775219 148.427442 500.000000
0.260000 0.260000 0.410000 -96.424299 -56.460097 -25.321633 500.000000
0.260000 0.260000 0.410000 -23.764546 -17.254654 -26.424842 500.000000
-0.208952 0.090000 0.410000 -93.790485 20.598471 -15.738694 500.000000
0.143160 0.260000 0.290000 80.632001 -57.670153 99.249197 500.000000
0.260000 0.090000 0.290000 -67.491654 50.776246 148.514028 500.000000
-0.208765 0.090000 0.410000 -93.752929 20.715603 -16.271422 500.000000
0.260000 0.090000 0.290000 -66.199158 50.170777 148.645296 500.000000
-0.113432 0.260000 0.290000 2.824927 -107.934263 55.224883 500.000000
0.260000 0.090000 0.290000 -60.927794 31.107035 56.090986 500.000000
0.199878 0.090000 0.410000 50.426898 209.882439 -19.295281 500.000000
-0.260000 0.090000 0.290000 59.336462 110.207871 185.622963 500.000000
-0.260000 0.260000 0.290000 170.494379 -56.930445 24.530559 500.000000
-0.260000 0.090000 0.290000 94.925348 89.373198 93.636378 500.000000
0.260000 0.090000 0.290000 -66.423683 50.732372 148.424833 500.000000
0.101600 0.260000 0.290000 72.320028 -126.235704 96.167526 500.000000
-0.260000 0.090000 0.290000 95.950154 90.511430 94.531828 500.000000
-0.128939 0.120407 0.410000 -77.787884 -27.918542 -23.582035 500.000000
0.260000 0.090000 0.290000 -94.446467 52.654532 148.728652 500.000000
-0.260000 0.090000 0.410000 80.146897 160.164561 -19.482409 500.000000
0.260000 0.090000 0.290000 -95.210086 51.327935 147.218964 500.000000
-0.260000 0.090000 0.290000 89.093130 89.242824 93.510061 500.000000
-0.260000 0.260000 0.290000 31.611995 -44.191869 32.937314 500.000000
0.260000 0.260000 0.410000 -74.981092 -57.935944 -26.983744 500.000000
-0.177759 0.260000 0.410000 -25.522877 -164.966343 -19.774554 500.000000
0.244488 0.190893 0.339221 25.796969 -13.821374 9.844295 500.000000
0.251515 0.090000 0.290000 8.253833 68.514527 12.584648 500.000000
-0.260000 0.090000 0.290000 57.709263 91.507245 93.683394 500.000000
0.260000 0.209173 0.341604 -47.541792 23.834606 -9.793247 500.000000
0.130269 0.260000 0.290000 78.053713 -45.268626 82.865709 500.000000
-0.260000 0.260000 0.410000 265.877059 -111.503905 -201.304130 500.000000
-0.260000 0.161293 0.290000 54.221881 -19.741368 44.418758 500.000000
0.260000 0.090000 0.290000 -66.119474 50.107554 148.497471 500.000000
-0.108583 0.090000 0.407232 -73.716639 20.567483 23.446354 500.000000
-0.207385 0.090000 0.410000 -93.476978 19.011376 -14.704249 500.000000
-0.260000 0.163472 0.361241 67.074585 -19.305696 14.248130 500.000000
0.200171 0.090000 0.410000 45.963033 12.454030 -9.564701 500.000000
-0.260000 0.260000 0.351830 88.020112 -45.547612 12.365950 500.000000
0.070403 0.260000 0.290000 66.080609 -607.709481 67.628896 500.000000
