ply
format ascii 1.0
element vertex 240
property float x
property float y
property float z
property float vx
property float vy
property float vz
property float density
end_header
-0.260000 0.090000 0.290000 208.395067 239.917866 18.110055 500.000000
-0.260000 0.260000 0.410000 57.396721 -75.017060 -200.099448 500.000000
0.144308 0.090000 0.290000 80.861661 90.873155 19.140775 500.000000
0.260000 0.231227 0.290000 -208.686070 28.245449 16.792543 500.000000
-0.260000 0.090000 0.410000 74.019382 49.943718 -85.836259 500.000000
0.260000 0.090000 0.410000 -107.912308 55.868271 -83.928275 500.000000
0.132749 0.260000 0.410000 78.549862 -65.619634 -350.480346 500.000000
0.260000 0.260000 0.410000 -56.478559 -148.122095 -16.713999 500.000000
0.260000 0.260000 0.290000 -270.051564 -114.705635 31.105068 500.000000
0.260000 0.090000 0.410000 -101.631543 212.236130 -79.533929 500.000000
0.260000 0.259203 0.290000 -156.132474 33.840536 13.062681 500.000000
0.260000 0.216251 0.290000 -149.534090 25.250294 19.829219 500.000000
-0.260000 0.260000 0.290000 99.312570 -61.082179 24.234595 500.000000
-0.260000 0.090000 0.290000 99.237654 243.520395 17.398454 500.000000
-0.260000 0.260000 0.290000 97.106359 -62.629209 14.131992 500.000000
-0.260000 0.090000 0.290000 396.396658 708.951989 19.461888 500.000000
0.260000 0.240051 0.290000 -146.336952 30.010149 22.709980 500.000000
-0.113573 0.189115 0.410000 -74.714593 19.823091 -185.571061 500.000000
0.015272 0.090000 0.290000 55.054367 128.676877 17.349953 500.000000
0.260000 0.090000 0.290000 -83.905409 126.654513 18.334100 500.000000
-0.260000 0.260000 0.290000 784.368515 -31.850932 49.525050 500.000000
0.165422 0.090000 0.410000 85.084471 215.763524 -81.646525 500.000000
-0.260000 0.260000 0.410000 61.872631 -105.877589 -179.668522 500.000000
0.260000 0.180059 0.290000 -146.995023 18.011865 17.495235 500.000000
0.260000 0.260000 0.410000 -135.072455 -62.522834 -154.257097 500.000000
0.175423 0.110126 0.290000 12.081641 -14.910668 10.702384 500.000000
-0.260000 0.090000 0.290000 117.110783 241.796474 17.863929 500.000000
0.260000 0.090000 0.394785 -69.742539 62.091234 20.957047 500.000000
-0.260000 0.178047 0.366416 61.826580 17.609324 15.283110 500.000000
-0.260000 0.260000 0.340670 897.197699 -21.937923 -13.865938 500.000000
0.260000 0.090000 0.410000 -82.498904 53.248280 -96.335093 500.000000
-0.213116 0.090000 0.410000 -94.623105 39.444676 -103.546891 500.000000
-0.036881 0.175152 0.410000 -59.376222 17.030457 -167.543645 500.000000
0.260000 0.260000 0.290000 -238.840024 -23.480801 19.717324 500.000000
0.260000 0.215454 0.290000 -173.136122 25.090897 21.271969 500.000000
0.032165 0.260000 0.410000 58.432997 -129.850585 -155.494607 500.000000
-0.260000 0.090000 0.410000 35.942627 78.715973 -95.422781 500.000000
-0.189520 0.098141 0.410000 -89.904008 -32.371881 -58.401207 500.000000
0.260000 0.260000 0.290000 -229.631916 -635.011794 16.192099 500.000000
-0.260000 0.260000 0.410000 65.882733 -22.165733 -162.336335 500.000000
-0.260000 0.260000 0.290000 98.674189 -62.606125 14.852848 500.000000
0.260000 0.090000 0.410000 -82.027850 292.454622 -39.748727 500.000000
0.260000 0.260000 0.290000 -78.529162 -45.617776 388.029600 500.000000
-0.260000 0.090000 0.410000 83.367984 39.595791 -102.597260 500.000000
-0.260000 0.091833 0.290000 20.999409 -33.633450 15.591450 500.000000
-0.260000 0.260000 0.410000 57.484439 -50.016347 -207.128279 500.000000
0.260000 0.090000 0.410000 -16.526108 34.497162 -67.219430 500.000000
0.260000 0.260000 0.410000 -65.275552 -47.192111 -30.006471 500.000000
-0.260000 0.260000 0.410000 57.447976 -53.568137 -207.962793 500.000000
-0.260000 0.090000 0.290000 149.637010 249.083313 18.443767 500.000000
0.260000 0.260000 0.290000 -249.169303 -99.117398 27.985145 500.000000
0.260000 0.221055 0.290000 -146.765928 26.210956 19.443776 500.000000
0.260000 0.090000 0.290000 -51.601190 32.390237 320.613191 500.000000
-0.156820 0.090000 0.290000 -83.363908 233.250617 26.501048 500.000000
-0.260000 0.260000 0.410000 58.471268 -46.644038 -180.781719 500.000000
-0.260000 0.090000 0.410000 55.991457 40.886852 -105.017670 500.000000
0.082543 0.090000 0.290000 68.508517 81.504262 19.147339 500.000000
-0.154206 0.090000 0.410000 -82.841204 252.545598 -115.301076 500.000000
0.075681 0.090000 0.290000 67.136251 79.020495 15.889114 500.000000
0.260000 0.260000 0.290000 -147.360721 -57.988385 24.987041 500.000000
0.021018 0.260000 0.410000 -29.721187 -160.648453 -36.838953 500.000000
0.260000 0.090000 0.380842 -149.222876 19.264184 18.168441 500.000000
0.260000 0.090000 0.290000 -58.948278 24.655483 19.390532 500.000000
-0.166109 0.090000 0.290000 -85.221813 237.393394 24.228644 500.000000
-0.260000 0.090000 0.410000 48.566944 36.370021 -66.675605 500.000000
0.037594 0.090000 0.290000 59.518835 97.672044 16.949929 500.000000
0.260000 0.245932 0.290000 -143.737139 31.186316 25.138584 500.000000
0.103417 0.260000 0.290000 72.683490 -64.290149 319.333561 500.000000
0.260000 0.260000 0.341817 -184.712947 -64.983208 -13.636562 500.000000
-0.260000 0.260000 0.290000 58.181742 -50.044621 13.758028 500.000000
0.073264 0.260000 0.410000 66.652719 -337.912128 -220.756256 500.000000
0.260000 0.206693 0.290000 -183.266178 23.338661 21.287761 500.000000
-0.260000 0.260000 0.410000 61.345419 -46.025599 -178.357523 500.000000
0.260000 0.090000 0.290000 -161.672676 112.842975 16.208710 500.000000
-0.155895 0.260000 0.290000 -83.179041 -605.033593 28.050520 500.000000
-0.260000 0.260000 0.290000 104.609690 -60.667198 14.690344 500.000000
-0.260000 0.260000 0.290000 98.850764 -62.801538 21.871823 500.000000
-0.094590 0.195465 0.410000 -70.918041 21.092942 -161.636351 500.000000
-0.260000 0.260000 0.290000 98.600437 -62.869129 23.034811 500.000000
0.033014 0.090000 0.290000 -9.848507 22.528029 17.863597 500.000000
0.260000 0.260000 0.321929 -230.028528 -31.309800 -17.614194 500.000000
0.260000 0.184754 0.290000 -108.778290 18.950873 194.700847 500.000000
0.034230 0.090000 0.343882 7.072519 8.483507 -13.223635 500.000000
-0.260000 0.260000 0.290000 34.844151 -106.344242 22.766179 500.000000
-0.260000 0.260000 0.410000 106.115709 -47.530456 -180.255144 500.000000
-0.260000 0.260000 0.360825 8.824243 -21.888948 14.165092 500.000000
0.260000 0.201238 0.290000 -167.459655 22.247569 21.702928 500.000000
0.260000 0.090000 0.410000 -83.800166 57.646989 -95.449751 500.000000
0.260000 0.090000 0.290000 -74.954411 92.745349 19.051216 500.000000
-0.260000 0.260000 0.410000 56.236847 -45.869928 -180.738827 500.000000
-0.057113 0.260000 0.410000 -63.422502 -30.455242 -163.114989 500.000000
-0.146091 0.090000 0.290000 -81.218270 250.986650 35.613661 500.000000
-0.260000 0.260000 0.410000 57.571793 -46.506445 -199.601427 500.000000
0.260000 0.179268 0.290000 -158.041703 17.853502 13.212972 500.000000
-0.260000 0.090000 0.410000 88.117913 103.875693 -82.612619 500.000000
0.260000 0.090000 0.410000 -49.437104 37.176275 -90.419207 500.000000
0.260000 0.090000 0.290000 -10.387770 35.400341 33.897431 500.000000
-0.195757 0.090000 0.410000 -91.151311 40.243913 -108.487304 500.000000
0.260000 0.260000 0.290000 -143.944430 -29.120183 18.908653 500.000000
-0.260000 0.090000 0.290000 84.671039 384.247392 40.774391 500.000000
-0.260000 0.090000 0.290000 60.524555 233.770405 24.570541 500.000000
-0.260000 0.090000 0.290000 28.819634 37.396920 300.507455 500.000000
-0.154751 0.260000 0.290000 -82.950247 -711.220350 26.813335 500.000000
-0.260000 0.090000 0.290000 83.489781 246.470686 20.337205 500.000000
-0.260000 0.175807 0.290000 74.476420 17.161352 932.705009 500.000000
0.260000 0.260000 0.290000 -237.536137 -26.324878 19.949020 500.000000
0.218741 0.152308 0.403671 47.924631 -10.858957 11.524213 500.000000
0.260000 0.215846 0.290000 -148.355218 25.169281 19.830887 500.000000
0.260000 0.260000 0.410000 -309.109614 -102.863453 -170.042677 500.000000
0.260000 0.090000 0.290000 -111.572622 93.761890 21.452290 500.000000
-0.260000 0.260000 0.398740 61.175617 -39.296195 21.748005 500.000000
0.260000 0.218279 0.290000 -146.203115 25.655714 20.966195 500.000000
0.260000 0.260000 0.290000 -33.823403 -33.660712 45.211947 500.000000
-0.260000 0.090000 0.290000 46.419001 21.996796 17.362564 500.000000
-0.260000 0.154087 0.369530 383.212934 -21.182588 15.905952 500.000000
-0.260000 0.260000 0.290000 101.549633 -62.670198 15.120334 500.000000
-0.260000 0.090000 0.290000 24.672669 55.258465 17.007568 500.000000
0.260000 0.090000 0.290000 -151.243735 87.702692 63.190897 500.000000
-0.260000 0.260000 0.290000 105.404073 -60.362520 15.450471 500.000000
0.260000 0.260000 0.410000 -51.681995 -62.215185 -19.443297 500.000000
-0.260000 0.090000 0.290000 54.673880 20.155940 497.889433 500.000000
-0.260000 0.090000 0.290000 53.776793 37.172857 343.220396 500.000000
-0.260000 0.260000 0.410000 57.237093 -48.857933 -219.265451 500.000000
0.260000 0.124718 0.358632 -52.704410 6.943532 13.726307 500.000000
-0.080876 0.098550 0.410000 -68.175198 -32.290002 -73.573810 500.000000
0.023881 0.090000 0.410000 29.272839 13.987834 -9.390788 500.000000
0.260000 0.260000 0.410000 -135.770358 -98.793917 -177.769724 500.000000
-0.260000 0.260000 0.290000 144.928918 -64.958577 12.531658 500.000000
-0.260000 0.090000 0.410000 134.859893 78.904380 -105.948895 500.000000
0.260000 0.260000 0.362253 -663.831625 -27.144737 -9.549466 500.000000
0.260000 0.260000 0.290000 -161.355005 -68.472328 17.628897 500.000000
0.151058 0.260000 0.290000 21.891757 -18.840374 225.070424 500.000000
0.260000 0.090000 0.410000 -54.241588 228.010713 -78.544432 500.000000
0.082684 0.260000 0.290000 68.536711 -62.989279 377.502407 500.000000
0.260000 0.090000 0.290000 -73.043345 81.770444 17.271550 500.000000
-0.260000 0.260000 0.290000 65.189106 -81.401616 907.413786 500.000000
0.260000 0.232761 0.290000 -146.660056 28.552132 21.549445 500.000000
-0.260000 0.223055 0.410000 91.572381 26.610973 -295.359575 500.000000
0.260000 0.260000 0.290000 -147.046663 -46.772872 24.390621 500.000000
-0.260000 0.090000 0.410000 146.087966 24.087585 -83.073851 500.000000
-0.260000 0.260000 0.410000 66.651946 -47.671332 -247.161518 500.000000
-0.260000 0.260000 0.410000 62.052715 -45.789778 -176.759850 500.000000
-0.260000 0.260000 0.290000 106.314584 -60.512479 15.956472 500.000000
0.148138 0.260000 0.410000 81.627686 -375.794968 -214.036067 500.000000
-0.260000 0.260000 0.290000 108.410873 -61.357289 21.895952 500.000000
0.260000 0.090000 0.410000 -85.842610 52.554920 -81.523287 500.000000
-0.260000 0.090000 0.290000 179.774922 247.455077 18.594851 500.000000
-0.107566 0.090000 0.331707 30.486860 109.910020 -15.658667 500.000000
-0.260000 0.090000 0.410000 36.114077 57.266945 -80.235347 500.000000
-0.260000 0.260000 0.290000 99.146573 -61.388553 24.921440 500.000000
0.260000 0.260000 0.290000 -46.663002 -18.541748 203.891317 500.000000
-0.260000 0.098214 0.290000 50.718363 -32.357110 46.957846 500.000000
0.260000 0.090000 0.327907 -60.198334 145.102730 -16.418581 500.000000
0.004940 0.260000 0.410000 52.988044 -99.780562 -165.113454 500.000000
0.028230 0.090000 0.290000 57.646090 79.020211 19.267082 500.000000
-0.260000 0.260000 0.399023 22.359466 -4.010157 21.804589 500.000000
0.260000 0.090000 0.290000 -79.649861 121.763479 17.515223 500.000000
-0.260000 0.260000 0.410000 57.316472 -47.763475 -204.951457 500.000000
0.260000 0.090000 0.410000 -127.987251 58.649402 -84.567158 500.000000
-0.213134 0.090000 0.410000 -94.626722 35.427604 -251.242732 500.000000
-0.058648 0.260000 0.410000 -63.729529 -69.520816 -23.220657 500.000000
-0.260000 0.193029 0.290000 497.590184 20.605868 21.072511 500.000000
0.190861 0.090000 0.410000 25.369687 51.663175 -82.570033 500.000000
-0.237298 0.260000 0.290000 -99.459574 -501.200390 30.522246 500.000000
-0.252587 0.260000 0.410000 -102.517463 -22.199297 -30.532950 500.000000
-0.139568 0.260000 0.410000 -79.913673 -26.130799 -192.458969 500.000000
0.260000 0.211137 0.290000 -144.643211 24.227353 19.876530 500.000000
-0.164151 0.260000 0.290000 -84.830130 -739.660138 28.864719 500.000000
-0.164684 0.260000 0.290000 -84.936744 -784.972766 28.885000 500.000000
0.260000 0.260000 0.290000 -128.636637 -36.809200 21.158951 500.000000
0.050309 0.090000 0.290000 -41.938210 284.510827 23.321998 500.000000
0.081709 0.090000 0.410000 68.341754 234.048390 -26.025680 500.000000
0.034575 0.090000 0.290000 58.915078 80.710633 18.828833 500.000000
-0.260000 0.260000 0.291602 189.065083 -92.914650 -23.679650 500.000000
-0.136827 0.090000 0.290000 -79.365403 235.899397 13.387432 500.000000
-0.260000 0.260000 0.410000 33.289270 -58.319348 -18.173232 500.000000
-0.260000 0.211203 0.410000 52.832956 24.240503 -180.431674 500.000000
0.124860 0.090000 0.290000 76.971934 178.105244 17.545694 500.000000
-0.182041 0.090000 0.410000 -88.408169 44.712515 -103.324514 500.000000
0.051769 0.255000 0.290000 -21.022601 32.999911 18.835204 500.000000
-0.171938 0.090000 0.290000 -86.387628 233.514867 27.424541 500.000000
-0.010816 0.090000 0.410000 22.199226 39.111398 -148.069586 500.000000
-0.260000 0.090000 0.290000 52.935382 293.458796 33.779921 500.000000
0.260000 0.260000 0.410000 -54.798238 -62.942659 -151.867705 500.000000
0.260000 0.260000 0.290000 -207.570485 -1026.620974 18.092315 500.000000
-0.207399 0.090000 0.410000 -4.197711 43.568730 -38.706621 500.000000
-0.260000 0.216421 0.336155 58.641115 -8.715855 -14.769009 500.000000
-0.260000 0.108222 0.410000 163.417984 -30.355511 -48.623266 500.000000
0.260000 0.254204 0.369571 -45.901964 32.840770 15.914130 500.000000
-0.033236 0.090000 0.290000 45.352750 78.375462 54.530452 500.000000
0.260000 0.090000 0.410000 -98.660364 36.770843 -66.749780 500.000000
0.260000 0.090000 0.410000 -92.029589 53.467106 -99.165530 500.000000
-0.260000 0.260000 0.410000 57.547551 -48.780462 -195.248363 500.000000
-0.260000 0.203515 0.290000 71.489739 6.602517 52.282875 500.000000
0.235529 0.090000 0.290000 99.105773 121.277464 17.387852 500.000000
-0.260000 0.260000 0.290000 98.617907 -61.759880 39.928730 500.000000
-0.193513 0.090000 0.410000 -90.702682 39.622023 -104.163190 500.000000
-0.032369 0.090000 0.290000 45.526158 80.639776 18.549315 500.000000
0.260000 0.206470 0.290000 -174.221543 23.293914 21.304405 500.000000
-0.260000 0.090000 0.290000 234.232936 239.399189 18.225592 500.000000
-0.260000 0.260000 0.410000 58.262093 -103.187234 -161.844642 500.000000
0.260000 0.090000 0.327144 -50.830897 21.434621 -16.571116 500.000000
-0.260000 0.260000 0.290000 98.629009 -64.215457 14.376025 500.000000
0.260000 0.260000 0.374146 -36.302195 -17.722345 16.829200 500.000000
0.260000 0.260000 0.290000 -189.093211 -27.372364 16.162613 500.000000
-0.059122 0.090000 0.410000 -14.522532 36.282134 -62.031682 500.000000
0.035151 0.090000 0.290000 59.030160 94.084021 15.771373 500.000000
0.260000 0.090000 0.410000 -91.271479 52.785862 -84.006842 500.000000
0.260000 0.229754 0.290000 -156.727993 27.950745 21.653641 500.000000
-0.260000 0.194445 0.290000 583.375501 20.888927 20.532919 500.000000
-0.162354 0.260000 0.290000 -84.470769 -663.118580 28.329377 500.000000
-0.260000 0.090000 0.290000 40.736603 41.717462 270.632142 500.000000
-0.008541 0.212256 0.290000 -53.708149 24.451233 955.599523 500.000000
-0.260000 0.090000 0.290000 204.716391 233.222223 17.833643 500.000000
-0.260000 0.197270 0.410000 150.949160 21.453922 -237.300663 500.000000
-0.260000 0.090000 0.410000 33.295061 62.249529 -82.280601 500.000000
-0.260000 0.195088 0.290000 1015.370903 21.017545 20.366671 500.000000
0.260000 0.090000 0.290000 -120.484441 108.992749 17.938683 500.000000
0.260000 0.200282 0.360677 -92.603804 -11.943525 14.135391 500.000000
0.066027 0.090000 0.290000 65.205401 80.503374 15.542097 500.000000
0.260000 0.206620 0.290000 -108.320622 23.323945 18.305765 500.000000
-0.234130 0.135407 0.290000 -8.848141 8.629415 36.678642 500.000000
-0.164061 0.090000 0.290000 -84.812225 246.871836 19.010174 500.000000
-0.041091 0.182034 0.290000 -60.218299 18.406894 912.887994 500.000000
-0.182072 0.090000 0.410000 -88.414414 269.275500 -114.172242 500.000000
0.065468 0.090000 0.290000 65.093571 79.332523 17.016621 500.000000
0.260000 0.260000 0.338185 -164.282756 -60.176499 -14.362977 500.000000
0.040482 0.090000 0.290000 -43.903619 234.057507 16.655805 500.000000
-0.260000 0.090000 0.290000 54.312555 34.467103 286.920420 500.000000
-0.260000 0.260000 0.361088 19.219027 -49.195893 14.217655 500.000000
0.260000 0.260000 0.410000 -329.214831 -99.050200 -171.073381 500.000000
-0.260000 0.260000 0.290000 206.001130 -46.615867 13.532574 500.000000
-0.260000 0.260000 0.290000 56.843233 -330.355373 28.937343 500.000000
-0.260000 0.260000 0.290000 99.645648 -60.516836 24.234664 500.000000
-0.260000 0.260000 0.410000 57.527643 -45.507667 -217.804810 500.000000
0.098515 0.260000 0.290000 71.702947 -62.954410 464.540210 500.000000
0.260000 0.260000 0.290000 -171.928702 -46.031601 19.454782 500.000000
0.223643 0.090000 0.290000 24.792247 33.413816 292.643057 500.000000
-0.260000 0.260000 0.410000 57.368308 -46.418192 -212.414728 500.000000
0.031334 0.090000 0.290000 58.266706 113.074807 235.983947 500.000000
