ply
format ascii 1.0
element vertex 240
property float x
property float y
property float z
property float vx
property float vy
property float vz
property float density
end_header
0.260000 0.260000 0.290000 -185.145233 -51.570618 102.747483 500.000000
0.260000 0.090000 0.410000 -135.022490 61.686538 -26.890989 500.000000
0.260000 0.090000 0.290000 -174.938853 94.356391 25.718131 500.000000
-0.260000 0.090000 0.290000 75.262485 35.005874 142.379649 500.000000
0.260000 0.090000 0.410000 -74.615077 29.234335 -54.901515 500.000000
-0.226995 0.090000 0.292183 -25.084804 129.834405 -23.563448 500.000000
-0.260000 0.260000 0.410000 43.012248 -156.910378 -152.499052 500.000000
-0.039467 0.260000 0.290000 44.106524 -20.396978 41.268361 500.000000
0.260000 0.227828 0.410000 -113.354379 27.565523 -179.965624 500.000000
0.260000 0.259150 0.410000 -89.853828 33.830031 -66.576694 500.000000
-0.260000 0.090000 0.410000 504.187085 22.236494 -16.363679 500.000000
0.260000 0.260000 0.290000 -55.652260 -67.310165 13.032227 500.000000
-0.118934 0.134340 0.410000 2.983537 8.868039 -19.275897 500.000000
0.260000 0.260000 0.410000 -55.637933 -353.269154 -162.331526 500.000000
-0.147139 0.260000 0.410000 -81.427865 -48.773997 -221.079835 500.000000
-0.260000 0.260000 0.290000 89.835188 -49.319875 151.408459 500.000000
-0.047883 0.260000 0.290000 42.423456 -52.303621 103.630541 500.000000
0.223091 0.210424 0.410000 96.618144 24.084760 -80.526807 500.000000
-0.020075 0.260000 0.410000 -56.015000 -21.705347 -101.201345 500.000000
0.212173 0.090000 0.290000 94.434510 101.819513 49.618984 500.000000
0.260000 0.260000 0.290000 -125.017126 -50.983598 102.858857 500.000000
0.260000 0.258060 0.410000 -56.741577 33.612059 -22.947098 500.000000
0.260000 0.260000 0.290000 -159.027414 -40.831207 37.892014 500.000000
0.078977 0.200347 0.290000 17.670646 22.069490 2.914747 500.000000
-0.163101 0.090000 0.377379 -84.620278 18.951131 17.475820 500.000000
-0.260000 0.090000 0.290000 66.301568 29.089727 93.126673 500.000000
0.260000 0.121549 0.290000 -62.046017 -27.690291 49.302315 500.000000
0.027214 0.260000 0.410000 -46.557235 -26.907728 -118.777726 500.000000
-0.260000 0.090000 0.410000 85.007371 21.139316 -29.691905 500.000000
-0.260000 0.090000 0.410000 846.726726 35.251047 -83.496422 500.000000
-0.260000 0.090000 0.290000 64.755629 68.587417 64.617105 500.000000
-0.011083 0.090000 0.408046 -35.409032 55.393952 23.609104 500.000000
0.260000 0.260000 0.290000 -696.553781 -127.711598 104.590398 500.000000
0.041608 0.237570 0.290000 -43.678320 29.514007 88.352480 500.000000
-0.260000 0.260000 0.290000 77.488114 -27.691680 66.916613 500.000000
0.114735 0.260000 0.410000 74.947004 -17.534514 -66.307650 500.000000
-0.260000 0.260000 0.410000 54.253039 -19.199820 -99.093991 500.000000
0.260000 0.260000 0.410000 -65.271904 -17.484518 -66.256321 500.000000
0.084590 0.260000 0.410000 68.917916 -38.965814 -82.590678 500.000000
-0.070245 0.234512 0.290000 -66.049057 28.902486 407.108715 500.000000
-0.260000 0.200607 0.290000 69.455754 22.121312 70.501083 500.000000
-0.260000 0.090000 0.290000 67.871027 29.098708 93.156444 500.000000
0.260000 0.260000 0.410000 -58.458877 -25.327472 -102.563859 500.000000
0.260000 0.260000 0.410000 -97.304701 -52.788097 -87.961492 500.000000
-0.229144 0.260000 0.410000 -35.911697 -19.787020 -33.163347 500.000000
-0.260000 0.090000 0.302401 214.003264 138.713595 -21.519743 500.000000
-0.242391 0.260000 0.290000 -100.478257 -22.795508 155.800381 500.000000
0.260000 0.090000 0.410000 -28.926472 27.824895 -34.252496 500.000000
0.066344 0.241680 0.290000 65.268720 30.335970 203.902506 500.000000
0.065554 0.260000 0.410000 -38.889253 -60.469890 -119.945367 500.000000
0.193889 0.257444 0.410000 90.777783 33.488888 -98.509577 500.000000
0.074457 0.260000 0.290000 66.891371 -198.718470 78.914905 500.000000
-0.040721 0.260000 0.290000 43.855787 -52.263760 104.372861 500.000000
-0.238034 0.236662 0.290000 -99.606756 29.332434 147.609098 500.000000
-0.260000 0.218725 0.290000 91.816849 25.744963 164.475886 500.000000
-0.260000 0.090000 0.410000 30.251043 52.250422 -25.469869 500.000000
0.260000 0.140401 0.290000 -1057.668457 -23.919776 33.963700 500.000000
0.260000 0.260000 0.410000 -61.034166 -50.995498 -204.688153 500.000000
-0.260000 0.090000 0.410000 214.919948 38.199137 -28.535895 500.000000
-0.260000 0.090000 0.290000 67.370387 68.806341 93.187805 500.000000
-0.260000 0.222617 0.290000 125.863215 26.523371 131.242234 500.000000
0.260000 0.090000 0.410000 -54.355486 33.181411 -20.393063 500.000000
0.077669 0.194920 0.410000 -36.466241 20.983914 -200.214379 500.000000
0.260000 0.260000 0.410000 -57.511472 -35.520809 -194.518249 500.000000
0.260000 0.090000 0.410000 -88.035800 55.834517 -55.454323 500.000000
0.094948 0.260000 0.290000 70.989689 -210.454217 82.022610 500.000000
0.010408 0.090000 0.410000 -32.808623 32.344391 -26.114461 500.000000
-0.260000 0.260000 0.290000 58.516646 -24.496792 67.185572 500.000000
-0.206259 0.260000 0.410000 -93.251735 -20.146024 -209.872825 500.000000
-0.260000 0.090000 0.290000 57.633779 88.801690 14.065287 500.000000
0.019577 0.228246 0.410000 -48.084661 27.649132 -101.677122 500.000000
-0.182344 0.220691 0.290000 -88.468709 26.138147 67.090376 500.000000
0.004447 0.260000 0.290000 -51.110548 -42.428547 285.810597 500.000000
0.095671 0.260000 0.410000 34.958915 -37.037058 -23.322553 500.000000
0.260000 0.090000 0.410000 -77.102445 28.203228 -60.391597 500.000000
0.260000 0.090000 0.410000 -325.192162 33.930313 -17.657373 500.000000
0.260000 0.260000 0.290000 -28.594536 -380.169327 21.293695 500.000000
-0.260000 0.260000 0.290000 85.057083 -23.816009 65.792345 500.000000
-0.260000 0.090000 0.290000 69.731492 30.056347 96.502176 500.000000
-0.260000 0.260000 0.410000 52.659076 -56.309647 -195.321104 500.000000
0.260000 0.090000 0.410000 -77.022050 28.164067 -59.981330 500.000000
0.260000 0.090000 0.410000 -77.127754 28.192569 -60.441616 500.000000
0.102080 0.260000 0.410000 72.416099 -19.944204 -66.113187 500.000000
0.260000 0.090000 0.410000 -77.243191 28.234903 -60.871655 500.000000
0.260000 0.162899 0.290000 -30.388450 -19.420225 30.687290 500.000000
0.143709 0.260000 0.410000 2.454648 -68.366566 -73.276301 500.000000
-0.260000 0.260000 0.290000 98.700653 -48.203520 131.274302 500.000000
-0.052677 0.090000 0.410000 24.184408 39.423455 -22.053709 500.000000
0.260000 0.090000 0.410000 -77.231485 28.253885 -59.942218 500.000000
-0.050377 0.194548 0.290000 3.879234 16.264772 19.892029 500.000000
-0.257733 0.260000 0.410000 -103.546504 -27.408757 -122.621713 500.000000
-0.260000 0.260000 0.410000 175.930735 -30.512186 -119.873152 500.000000
-0.260000 0.090000 0.290000 62.386063 17.094638 34.473490 500.000000
0.260000 0.260000 0.290000 -56.084244 -39.535363 40.189105 500.000000
0.140848 0.090000 0.290000 80.169641 84.961778 50.157586 500.000000
0.242362 0.260000 0.410000 100.472488 -62.626115 -150.709968 500.000000
-0.250955 0.090000 0.290000 -102.190916 44.564177 34.337575 500.000000
0.112976 0.119016 0.290000 74.595190 -28.196796 276.528926 500.000000
-0.260000 0.090000 0.410000 121.740503 20.932804 -26.582365 500.000000
0.156951 0.216777 0.410000 83.390150 25.355389 -66.813540 500.000000
0.172170 0.090000 0.290000 86.433968 85.333289 50.503339 500.000000
-0.260000 0.090000 0.410000 73.968875 20.760684 -28.203018 500.000000
-0.260000 0.090000 0.290000 64.877179 29.084111 93.191351 500.000000
-0.260000 0.090000 0.290000 69.756055 29.111292 93.136802 500.000000
-0.111142 0.090000 0.290000 -49.814966 27.649896 34.847105 500.000000
0.195964 0.186794 0.410000 28.204631 -14.641213 -7.799803 500.000000
-0.260000 0.090000 0.290000 65.021939 66.789765 93.233169 500.000000
0.260000 0.260000 0.410000 -21.948600 -62.672849 -258.554358 500.000000
0.260000 0.090000 0.315076 -35.542537 20.391072 -18.984882 500.000000
-0.017558 0.260000 0.362524 -55.511618 -13.614043 -1.415988 500.000000
0.106730 0.260000 0.290000 22.082971 -53.784381 30.667692 500.000000
0.146873 0.234343 0.410000 81.374611 28.868605 -111.568254 500.000000
-0.260000 0.260000 0.290000 115.851874 -23.331281 67.486872 500.000000
-0.134966 0.090000 0.410000 -27.207645 22.963143 -419.196125 500.000000
0.260000 0.090000 0.410000 -58.991069 25.506747 -128.009517 500.000000
-0.115310 0.260000 0.410000 -75.062029 -50.549471 -239.969624 500.000000
0.186599 0.260000 0.290000 59.043410 -48.664137 82.285802 500.000000
-0.260000 0.090000 0.290000 65.682060 128.657853 93.640144 500.000000
0.234395 0.242286 0.305569 98.879099 17.476806 -10.453681 500.000000
-0.260000 0.090000 0.290000 65.861611 106.045647 94.065853 500.000000
-0.260000 0.260000 0.290000 116.304259 -38.160289 66.880568 500.000000
-0.181328 0.209383 0.409555 -24.795237 5.227303 6.532641 500.000000
-0.260000 0.260000 0.410000 48.362732 -37.003241 -43.708188 500.000000
-0.260000 0.260000 0.290000 74.655835 -26.108026 66.905898 500.000000
0.208490 0.260000 0.410000 93.698003 -27.015517 -81.766365 500.000000
0.059511 0.090000 0.410000 -18.056441 59.802984 -212.606939 500.000000
-0.260000 0.090000 0.410000 95.299688 19.926122 -56.003689 500.000000
0.260000 0.090000 0.410000 -36.420310 64.364687 -185.089749 500.000000
-0.260000 0.090000 0.290000 68.009768 28.202085 106.317792 500.000000
0.260000 0.260000 0.410000 -79.700407 -60.985023 -182.657475 500.000000
0.050004 0.090000 0.290000 -41.999229 54.704978 19.186975 500.000000
-0.260000 0.260000 0.290000 115.527548 -48.326876 131.291695 500.000000
0.260000 0.090000 0.410000 -78.951514 64.476010 -64.160091 500.000000
0.260000 0.090000 0.290000 -104.077974 31.642212 29.615351 500.000000
0.258963 0.090000 0.410000 103.792514 50.378399 -58.429573 500.000000
-0.260000 0.090000 0.290000 66.335952 32.641864 52.527864 500.000000
-0.063361 0.090000 0.410000 -64.672167 83.610128 -609.936625 500.000000
-0.188974 0.090000 0.290000 -42.288111 138.847081 14.327385 500.000000
0.055508 0.260000 0.410000 -40.898436 -87.425552 -168.767988 500.000000
-0.260000 0.260000 0.290000 43.858114 -225.103253 18.257885 500.000000
0.260000 0.090000 0.410000 -76.031001 28.292125 -59.426420 500.000000
0.260000 0.090000 0.410000 -77.107264 28.235855 -60.441701 500.000000
-0.204739 0.260000 0.410000 -92.947785 -25.137826 -101.281458 500.000000
0.260000 0.090000 0.410000 -76.970689 28.168513 -59.816480 500.000000
0.013231 0.228483 0.410000 -49.353804 27.696645 -98.873041 500.000000
0.260000 0.090000 0.290000 -319.914040 62.981828 57.583776 500.000000
-0.260000 0.222279 0.410000 91.684858 26.455800 -468.162380 500.000000
-0.260000 0.260000 0.290000 66.267279 -47.426881 131.384540 500.000000
-0.260000 0.115775 0.410000 24.824805 -28.845062 -55.745339 500.000000
0.260000 0.090000 0.410000 -77.449040 28.590917 -60.576115 500.000000
-0.260000 0.090000 0.410000 131.611701 29.043841 -100.896227 500.000000
0.260000 0.090000 0.290000 -61.630890 55.455560 48.453882 500.000000
0.260000 0.090000 0.410000 -77.141143 28.209125 -60.440595 500.000000
-0.260000 0.090000 0.290000 65.339378 28.879306 93.318130 500.000000
-0.260000 0.170354 0.290000 55.904643 -17.929186 22.788602 500.000000
0.260000 0.090000 0.290000 -110.441127 82.547731 46.471848 500.000000
0.018440 0.260000 0.410000 55.687914 -19.012587 -66.398193 500.000000
-0.260000 0.260000 0.290000 91.497994 -62.515269 71.589731 500.000000
-0.260000 0.090000 0.290000 249.135131 30.938376 110.711435 500.000000
0.260000 0.090000 0.410000 -75.428169 33.872300 -56.681758 500.000000
0.260000 0.090000 0.410000 -48.369626 111.258303 -31.148544 500.000000
0.260000 0.221517 0.410000 -65.213561 26.303324 -83.508684 500.000000
-0.260000 0.090000 0.290000 67.176141 29.116086 93.137486 500.000000
0.074973 0.260000 0.290000 66.994514 -189.588404 78.406874 500.000000
0.260000 0.248558 0.410000 -67.528609 31.711611 -80.186097 500.000000
-0.155598 0.225663 0.410000 -48.175466 27.132628 -12.529221 500.000000
0.260000 0.130000 0.290000 -94.119288 -25.999963 22.109463 500.000000
0.021732 0.260000 0.290000 56.346342 -213.363651 77.920780 500.000000
-0.260000 0.090000 0.290000 65.672732 116.853886 94.024909 500.000000
0.260000 0.090000 0.410000 -89.528691 34.432870 -54.444851 500.000000
0.260000 0.260000 0.410000 -37.054980 -80.405835 -29.071590 500.000000
0.260000 0.260000 0.290000 -135.377713 -52.598908 104.137915 500.000000
-0.260000 0.090000 0.410000 61.512475 22.175287 -28.827724 500.000000
-0.260000 0.237032 0.290000 93.244585 29.406360 64.917646 500.000000
-0.042794 0.149189 0.290000 43.441133 -6.540715 9.213916 500.000000
-0.260000 0.090000 0.290000 35.853831 24.774851 30.757968 500.000000
0.260000 0.090000 0.410000 -77.592987 28.252169 -71.858815 500.000000
0.198693 0.260000 0.410000 5.626646 -62.230954 -199.494292 500.000000
-0.260000 0.090000 0.290000 64.596144 123.293157 94.066220 500.000000
0.260000 0.090000 0.410000 -97.509528 25.865776 -220.211318 500.000000
-0.004419 0.163545 0.290000 -26.282965 -19.291071 23.426265 500.000000
0.040208 0.260000 0.290000 60.041613 -181.473223 77.905141 500.000000
0.260000 0.260000 0.290000 -55.249927 -115.661680 53.150458 500.000000
0.260000 0.260000 0.290000 -79.779764 -32.988367 39.756348 500.000000
-0.092815 0.204347 0.290000 33.436921 22.869317 696.566349 500.000000
0.067897 0.201807 0.410000 65.579354 22.361373 -66.123247 500.000000
-0.260000 0.260000 0.290000 93.557293 -25.216221 137.453073 500.000000
0.077354 0.260000 0.290000 67.470789 -50.977178 104.085752 500.000000
0.260000 0.090000 0.344086 -16.435980 31.541707 -13.182748 500.000000
0.260000 0.090000 0.410000 -62.933831 38.465864 -66.956040 500.000000
0.168938 0.090000 0.290000 85.787568 84.562273 46.793045 500.000000
0.113176 0.090000 0.290000 74.635249 82.105225 50.824581 500.000000
-0.260000 0.090000 0.290000 64.021868 131.207098 93.923715 500.000000
0.007217 0.260000 0.290000 53.443461 -21.272231 97.244335 500.000000
-0.158953 0.090000 0.290000 -16.119075 37.208548 11.418586 500.000000
0.001938 0.137359 0.290000 52.387567 -24.528155 12.322503 500.000000
0.260000 0.090000 0.410000 -77.183215 28.881687 -60.062585 500.000000
-0.260000 0.260000 0.410000 58.558518 -26.700579 -21.841441 500.000000
0.260000 0.260000 0.290000 -114.808352 -51.758938 103.989947 500.000000
-0.260000 0.090000 0.290000 68.354706 30.920801 93.159477 500.000000
0.260000 0.090000 0.290000 -53.949857 93.200904 48.233213 500.000000
0.260000 0.090000 0.410000 -123.683444 26.921593 -55.933534 500.000000
0.260000 0.260000 0.290000 -56.949111 -33.384997 39.937712 500.000000
0.195266 0.260000 0.290000 -12.946762 -67.899785 106.290537 500.000000
-0.260000 0.260000 0.410000 58.324677 -56.321322 -221.955312 500.000000
-0.062738 0.119574 0.290000 39.452303 -28.085230 49.817201 500.000000
-0.260000 0.260000 0.290000 90.735743 -47.301567 129.573484 500.000000
-0.260000 0.231943 0.410000 83.298875 28.388597 -438.135999 500.000000
0.260000 0.090000 0.410000 -77.199089 28.690006 -60.008195 500.000000
0.177500 0.090000 0.292239 40.096600 30.313380 -5.880219 500.000000
0.260000 0.260000 0.290000 -73.027936 -53.955483 104.186714 500.000000
0.125037 0.090000 0.290000 77.007430 81.851675 46.624461 500.000000
-0.063232 0.190214 0.290000 39.353622 20.042708 531.911188 500.000000
0.139418 0.260000 0.410000 79.883571 -49.368733 -83.804548 500.000000
-0.260000 0.090000 0.290000 70.417874 29.071534 93.136678 500.000000
-0.260000 0.090000 0.290000 64.993966 34.672605 160.912858 500.000000
-0.179672 0.190824 0.298053 -33.368380 20.164869 -11.140924 500.000000
0.176379 0.196400 0.290000 52.991278 -12.719991 16.911052 500.000000
-0.260000 0.090000 0.290000 69.978338 28.715256 96.354319 500.000000
0.089068 0.213688 0.290000 69.813511 24.737598 40.025255 500.000000
0.260000 0.148038 0.290000 -77.208847 -22.392317 51.327049 500.000000
0.260000 0.260000 0.399564 -114.907692 -32.889237 21.912744 500.000000
-0.260000 0.090000 0.410000 93.195147 18.414873 -38.004259 500.000000
-0.260000 0.090000 0.290000 222.833752 30.359170 118.299596 500.000000
0.193911 0.090000 0.290000 90.782207 26.835491 988.568985 500.000000
0.260000 0.090000 0.290000 -140.158628 132.655130 20.249360 500.000000
-0.159423 0.259587 0.410000 20.115309 33.917462 -64.626669 500.000000
0.176046 0.260000 0.332465 51.902964 -11.622931 -5.316197 500.000000
0.189426 0.090000 0.290000 89.885194 85.827321 50.465937 500.000000
0.094414 0.090000 0.290000 70.882882 76.815166 28.893942 500.000000
0.260000 0.090000 0.410000 -149.992498 74.819115 -29.820035 500.000000
-0.260000 0.260000 0.290000 51.903923 -64.131333 20.582398 500.000000
0.103253 0.090000 0.290000 72.650515 82.641358 47.087880 500.000000
0.260000 0.090000 0.410000 -143.117002 30.978046 -56.351389 500.000000
-0.260000 0.090000 0.290000 70.791054 32.487914 52.231305 500.000000
-0.260000 0.090000 0.290000 66.606348 43.407596 109.367595 500.000000
0.139525 0.260000 0.410000 79.904999 -32.759035 -665.108590 500.000000
-0.260000 0.260000 0.290000 65.131550 -20.813296 55.425247 500.000000
-0.260000 0.090000 0.290000 53.975758 33.068205 30.997357 500.000000
0.255111 0.090000 0.410000 103.022136 40.294747 -138.163399 500.000000
