ply
format ascii 1.0
element vertex 240
property float x
property float y
property float z
property float vx
property float vy
property float vz
property float density
end_header
0.260000 0.260000 0.410000 -75.928676 -33.850373 -47.732169 500.000000
0.233720 0.260000 0.410000 36.785239 -39.760322 -24.283570 500.000000
0.060646 0.090000 0.410000 64.129225 69.968204 -54.672814 500.000000
0.260000 0.260000 0.410000 -321.472926 -33.165902 -47.946069 500.000000
-0.260000 0.260000 0.290000 276.314383 -41.527269 33.825524 500.000000
-0.116997 0.260000 0.290000 -75.399400 -73.566837 31.308890 500.000000
0.260000 0.090000 0.290000 -50.189733 26.102174 17.330113 500.000000
0.260000 0.260000 0.290000 -156.969042 -31.674320 30.781818 500.000000
-0.260000 0.238331 0.290000 167.741094 29.666101 30.521851 500.000000
-0.260000 0.241916 0.290000 221.859211 30.383265 30.259912 500.000000
-0.094503 0.090000 0.410000 -70.900686 73.108478 -33.933856 500.000000
0.260000 0.090000 0.410000 -32.013088 33.011931 -17.996350 500.000000
-0.047350 0.260000 0.290000 42.530086 -201.078881 115.131025 500.000000
0.178970 0.260000 0.410000 42.645102 -13.653195 -18.667725 500.000000
-0.260000 0.260000 0.290000 167.932828 -34.776631 23.891200 500.000000
-0.260000 0.090000 0.410000 52.544599 41.076882 -31.442349 500.000000
-0.260000 0.260000 0.410000 232.539487 -44.646530 -16.926680 500.000000
0.260000 0.090000 0.410000 -370.117941 17.864584 -72.170607 500.000000
-0.260000 0.260000 0.410000 83.715711 -25.038970 -17.718854 500.000000
-0.260000 0.260000 0.410000 85.082557 -28.340609 -18.266940 500.000000
0.260000 0.260000 0.290000 -169.964977 -32.073728 134.597420 500.000000
0.260000 0.260000 0.290000 -196.816924 -47.161514 32.839162 500.000000
0.260000 0.260000 0.290000 -159.598258 -34.273651 61.828707 500.000000
0.260000 0.090000 0.382911 -35.801795 24.944753 18.582243 500.000000
-0.260000 0.090000 0.290000 62.822069 327.360623 169.406127 500.000000
-0.135239 0.090000 0.410000 -79.047795 58.981719 -33.635593 500.000000
0.260000 0.260000 0.290000 -66.831323 -43.999183 39.638288 500.000000
0.260000 0.090000 0.290000 -99.808493 35.932772 45.783116 500.000000
0.220772 0.090000 0.410000 96.154333 250.581378 -81.437076 500.000000
-0.260000 0.222432 0.290000 24.278043 26.486404 31.663373 500.000000
-0.260000 0.260000 0.410000 127.638758 -40.254862 -36.875414 500.000000
0.105814 0.260000 0.290000 22.513237 -23.877294 16.154358 500.000000
-0.106848 0.101373 0.410000 30.630448 -31.725329 -54.624105 500.000000
0.260000 0.099333 0.290000 -537.292332 -32.133413 110.886863 500.000000
-0.260000 0.090000 0.410000 123.290638 41.034740 -31.290399 500.000000
0.112823 0.260000 0.410000 32.836138 -38.640199 -28.589586 500.000000
0.260000 0.260000 0.410000 -65.531485 -62.859870 -77.525954 500.000000
-0.260000 0.090000 0.290000 20.067171 345.896786 34.040974 500.000000
0.260000 0.090000 0.410000 -15.597028 37.986110 -104.130222 500.000000
-0.018378 0.260000 0.290000 48.324311 -20.642905 154.012820 500.000000
0.134116 0.090000 0.290000 0.607578 48.827140 21.911832 500.000000
-0.113934 0.090000 0.410000 -74.786809 58.313456 -33.647712 500.000000
-0.260000 0.260000 0.410000 87.189307 -182.313517 -69.083438 500.000000
0.260000 0.260000 0.290000 -206.432112 -77.593539 37.807694 500.000000
-0.003028 0.090000 0.410000 51.394352 134.108428 -66.080245 500.000000
0.260000 0.260000 0.302355 -142.289332 -37.660002 -21.528955 500.000000
0.260000 0.101578 0.410000 -93.946691 -31.684329 -54.869225 500.000000
0.260000 0.090000 0.410000 -90.920279 22.090346 -64.341289 500.000000
-0.260000 0.260000 0.410000 387.019685 -40.438925 -37.021236 500.000000
-0.260000 0.090000 0.410000 44.673827 26.696685 -21.582863 500.000000
0.260000 0.260000 0.410000 -96.673486 -22.683366 -27.809489 500.000000
0.260000 0.090000 0.410000 -331.729952 17.638868 -56.582526 500.000000
0.260000 0.260000 0.410000 -114.661171 -32.646230 -27.418608 500.000000
-0.260000 0.260000 0.410000 62.229047 -29.423287 -30.919272 500.000000
-0.260000 0.260000 0.410000 359.661285 -41.011716 -36.944446 500.000000
-0.260000 0.090000 0.410000 115.190972 59.444797 -33.902121 500.000000
-0.081913 0.090000 0.410000 -68.382510 56.547321 -33.918705 500.000000
-0.260000 0.162345 0.290000 285.314031 -19.530942 45.211516 500.000000
0.108874 0.090000 0.290000 73.774710 15.248037 52.571689 500.000000
0.260000 0.260000 0.410000 -240.415199 -33.231732 -47.850266 500.000000
0.260000 0.260000 0.410000 -283.421669 -33.850559 -47.798936 500.000000
0.003552 0.260000 0.290000 -51.289546 -14.546777 26.896619 500.000000
-0.260000 0.260000 0.290000 266.155324 -23.383291 42.375966 500.000000
0.260000 0.260000 0.328018 -10.060494 -20.775818 7.603618 500.000000
-0.102663 0.260000 0.290000 -72.532625 -56.870525 27.457530 500.000000
0.260000 0.090000 0.410000 -377.182962 17.500276 -56.250131 500.000000
-0.260000 0.090000 0.290000 96.704825 19.721440 55.613022 500.000000
-0.260000 0.090000 0.410000 272.619174 41.028486 -31.313199 500.000000
-0.260000 0.259970 0.290000 56.435177 33.994087 31.058880 500.000000
-0.260000 0.260000 0.410000 296.685876 -40.294232 -36.776961 500.000000
0.260000 0.260000 0.290000 -157.766790 -35.405418 52.735677 500.000000
0.260000 0.090000 0.410000 -185.688272 22.637715 -54.450899 500.000000
0.260000 0.248004 0.410000 -111.044069 31.600886 -24.876778 500.000000
-0.260000 0.260000 0.410000 60.070825 -41.897273 -13.211358 500.000000
0.260000 0.090000 0.290000 -255.824803 38.783041 46.766813 500.000000
-0.260000 0.260000 0.410000 512.668540 -33.358129 -48.287087 500.000000
-0.260000 0.163692 0.410000 59.803727 -19.261544 -598.036914 500.000000
-0.260000 0.090000 0.410000 89.792309 41.027205 -31.280303 500.000000
-0.237820 0.090000 0.410000 -99.563944 57.700702 -33.965339 500.000000
-0.260000 0.162451 0.290000 232.752446 -19.509748 45.692823 500.000000
0.260000 0.090000 0.290000 -408.298504 40.776393 46.765336 500.000000
0.260000 0.090000 0.290000 -299.441057 39.450344 46.766643 500.000000
0.057921 0.090000 0.410000 63.584223 28.916031 -25.293462 500.000000
0.260000 0.090000 0.290000 -125.188784 37.461029 46.768175 500.000000
0.078398 0.260000 0.290000 67.679633 -84.472376 145.042738 500.000000
-0.098618 0.090000 0.410000 -71.723664 56.539606 -88.966752 500.000000
0.260000 0.090000 0.410000 -155.664399 17.428610 -56.716997 500.000000
0.260000 0.260000 0.290000 -230.609490 -63.504045 57.700249 500.000000
0.260000 0.090000 0.290000 -81.664669 35.441857 46.766791 500.000000
-0.260000 0.260000 0.410000 63.253353 -55.833048 -42.294312 500.000000
-0.260000 0.165788 0.290000 154.697712 -18.842399 45.192629 500.000000
-0.037738 0.260000 0.410000 19.782270 -17.230590 -12.375883 500.000000
-0.260000 0.090000 0.410000 79.917984 58.492466 -67.691463 500.000000
0.120279 0.206205 0.410000 -27.944152 23.240956 -210.774280 500.000000
-0.260000 0.260000 0.410000 86.634938 -28.336826 -18.257952 500.000000
0.260000 0.260000 0.363561 -39.638322 -15.894706 14.712262 500.000000
-0.260000 0.260000 0.410000 86.146315 -25.733729 -18.754839 500.000000
-0.260000 0.090000 0.410000 379.874895 41.078568 -31.797164 500.000000
0.260000 0.260000 0.290000 -152.056724 -33.033448 28.629926 500.000000
0.260000 0.090000 0.290000 -274.574865 16.257803 1.442177 500.000000
-0.260000 0.260000 0.410000 326.401687 -40.289797 -36.779264 500.000000
0.260000 0.090000 0.410000 -328.475931 37.170481 -58.460756 500.000000
-0.132586 0.090000 0.410000 -78.517220 59.654947 -33.627418 500.000000
-0.125736 0.090000 0.410000 -77.147142 57.650504 -33.666779 500.000000
0.260000 0.260000 0.290000 -145.981375 -169.185243 49.151520 500.000000
-0.260000 0.090000 0.290000 32.414570 25.988600 22.785992 500.000000
0.260000 0.260000 0.410000 -192.260849 -29.779010 -31.336562 500.000000
-0.090467 0.260000 0.410000 33.906594 -118.502091 -14.848619 500.000000
-0.260000 0.260000 0.410000 55.569745 -8.731731 -26.952287 500.000000
-0.260000 0.116923 0.290000 100.473942 -28.615381 68.409970 500.000000
0.260000 0.090000 0.290000 -91.919334 45.731998 61.936132 500.000000
0.009462 0.090000 0.336109 -15.505296 131.119355 -14.778205 500.000000
0.260000 0.090000 0.410000 -219.958125 17.380199 -56.579515 500.000000
0.053139 0.260000 0.336999 -19.979293 -40.584966 -14.600288 500.000000
0.260000 0.090000 0.290000 -438.794079 40.403394 46.901649 500.000000
0.243383 0.090000 0.410000 100.676684 42.709714 -398.066814 500.000000
0.196418 0.260000 0.410000 91.283516 -32.221681 -27.219516 500.000000
0.260000 0.260000 0.410000 -88.856329 -33.348296 -47.851147 500.000000
-0.260000 0.183122 0.410000 55.522478 18.624484 -359.356014 500.000000
0.260000 0.260000 0.410000 -154.246984 -33.304257 -47.851976 500.000000
0.260000 0.090000 0.410000 -263.040649 17.409080 -56.578028 500.000000
-0.260000 0.090000 0.410000 76.927888 8.017565 -13.630371 500.000000
-0.260000 0.144608 0.290000 101.207775 -23.078482 48.522842 500.000000
-0.260000 0.090000 0.410000 163.172482 41.031651 -31.293483 500.000000
-0.254436 0.249798 0.410000 -14.037325 13.812099 -13.718530 500.000000
0.260000 0.090000 0.290000 -368.406174 38.790573 47.315439 500.000000
-0.260000 0.090000 0.290000 73.447835 130.337373 44.136211 500.000000
-0.260000 0.260000 0.290000 79.100285 -57.039558 27.708927 500.000000
-0.127245 0.090000 0.410000 -77.449045 61.121340 -33.632435 500.000000
0.042130 0.260000 0.410000 -43.574079 -36.057866 -23.991648 500.000000
-0.260000 0.197126 0.290000 106.339438 21.425277 112.278468 500.000000
0.260000 0.090000 0.410000 -176.703566 17.428878 -56.703996 500.000000
-0.260000 0.232636 0.290000 104.516850 28.527281 30.409359 500.000000
0.260000 0.090000 0.290000 -199.784344 30.183961 207.465303 500.000000
0.260000 0.260000 0.290000 -156.552293 -32.566193 51.893962 500.000000
-0.260000 0.090000 0.410000 317.182593 45.443264 -31.192691 500.000000
0.101116 0.260000 0.410000 72.223238 -19.971092 -42.005848 500.000000
0.102560 0.260000 0.290000 -31.487910 -116.421968 75.409399 500.000000
-0.260000 0.260000 0.410000 61.964196 -61.710549 -38.508008 500.000000
-0.260000 0.159853 0.290000 198.149799 -20.029454 48.402497 500.000000
0.260000 0.090000 0.290000 -342.974853 34.816587 46.768675 500.000000
0.260000 0.090000 0.290000 -168.752898 36.781605 46.767592 500.000000
-0.260000 0.163636 0.290000 300.537571 -19.272706 45.111819 500.000000
0.260000 0.090000 0.290000 -408.289329 40.101083 46.765196 500.000000
-0.260000 0.090000 0.290000 67.758449 29.973159 24.842063 500.000000
0.260000 0.260000 0.410000 -855.047855 -38.118706 -36.159035 500.000000
-0.199363 0.090000 0.410000 -91.872614 58.440340 -46.169841 500.000000
-0.260000 0.090000 0.410000 195.604821 41.073156 -31.428712 500.000000
0.260000 0.260000 0.410000 -80.625438 -186.197637 -39.938381 500.000000
-0.260000 0.163023 0.290000 159.478676 -19.395380 45.213660 500.000000
0.040791 0.090000 0.410000 60.158226 29.837952 -65.549598 500.000000
-0.260000 0.090000 0.410000 59.952036 101.409594 -34.257829 500.000000
0.260000 0.090000 0.290000 -212.227981 38.109199 46.766966 500.000000
-0.236015 0.115554 0.290000 -14.585132 -28.889134 49.760066 500.000000
0.260000 0.260000 0.290000 -76.122546 -57.266534 47.885826 500.000000
0.260000 0.228691 0.290000 -19.121689 10.176893 33.682694 500.000000
0.260000 0.260000 0.290000 -155.891540 -45.402769 51.484083 500.000000
0.083084 0.090000 0.410000 68.616710 17.456471 -56.607264 500.000000
0.260000 0.090000 0.410000 -294.968706 20.503707 -56.494265 500.000000
-0.260000 0.142096 0.290000 317.716368 -23.580807 45.504570 500.000000
-0.260000 0.260000 0.290000 93.843051 -83.762550 25.704618 500.000000
0.260000 0.260000 0.290000 -156.657637 -35.017513 51.806470 500.000000
-0.120971 0.090000 0.410000 -76.194223 56.976306 -33.643590 500.000000
-0.260000 0.090000 0.410000 450.201457 41.264978 -31.434258 500.000000
-0.260000 0.260000 0.290000 481.977476 -35.984420 57.007143 500.000000
-0.260000 0.260000 0.410000 84.181412 -196.547309 -13.406914 500.000000
-0.260000 0.260000 0.290000 68.522939 -73.766423 165.435966 500.000000
-0.260000 0.090000 0.410000 513.247852 41.225605 -31.468691 500.000000
0.260000 0.260000 0.410000 -88.863033 -33.325307 -47.851896 500.000000
0.013187 0.198296 0.327218 -12.935859 21.659266 -16.556326 500.000000
0.166956 0.090000 0.410000 -18.608720 38.960515 -29.893841 500.000000
-0.078894 0.260000 0.290000 -67.778892 -55.453575 165.630742 500.000000
-0.205172 0.260000 0.410000 -93.034358 -1048.146561 -24.077087 500.000000
-0.260000 0.260000 0.410000 255.713995 -41.345711 -36.750573 500.000000
0.207267 0.260000 0.410000 93.453497 -238.158615 -235.744231 500.000000
0.260000 0.090000 0.290000 -76.023761 20.914201 964.124289 500.000000
0.260000 0.147016 0.290000 -476.178513 -22.596876 22.257955 500.000000
0.260000 0.090000 0.290000 -222.727133 38.932818 44.082879 500.000000
-0.260000 0.260000 0.410000 171.201043 -40.361405 -36.932768 500.000000
-0.260000 0.109083 0.290000 116.115657 -30.183394 45.444714 500.000000
-0.260000 0.250932 0.290000 90.407005 32.186427 33.891842 500.000000
-0.260000 0.090000 0.410000 414.832701 41.231377 -31.421870 500.000000
-0.260000 0.260000 0.410000 82.307648 -66.013353 -35.636575 500.000000
-0.159507 0.164427 0.410000 -17.814563 -19.114605 -20.920505 500.000000
-0.260000 0.260000 0.410000 110.144440 -27.669375 -20.985286 500.000000
0.260000 0.231225 0.410000 -142.056580 28.245060 -29.500240 500.000000
0.260000 0.090000 0.410000 -118.910841 17.383834 -56.733619 500.000000
-0.156394 0.090000 0.410000 -83.278820 56.827148 -31.943958 500.000000
-0.260000 0.090000 0.290000 427.108875 55.473851 879.734817 500.000000
-0.260000 0.260000 0.290000 121.296537 -56.926503 27.797818 500.000000
0.260000 0.260000 0.410000 -290.642964 -33.265918 -47.668561 500.000000
-0.260000 0.260000 0.410000 93.219889 -28.066997 -17.988409 500.000000
-0.260000 0.260000 0.410000 214.430004 -40.376818 -36.932490 500.000000
-0.260000 0.260000 0.410000 89.397988 -27.468684 -18.998826 500.000000
0.047475 0.161028 0.380143 17.331305 14.205597 18.028635 500.000000
-0.047422 0.090000 0.377984 13.194643 122.396988 17.596891 500.000000
-0.260000 0.211577 0.290000 135.563068 24.315358 30.883104 500.000000
-0.260000 0.260000 0.410000 88.250359 -26.331383 -19.594176 500.000000
-0.206919 0.260000 0.290000 -93.383856 -54.222398 153.078000 500.000000
-0.260000 0.090000 0.410000 472.351753 44.803542 -31.342983 500.000000
0.260000 0.090000 0.410000 -184.417748 124.754666 -61.739800 500.000000
-0.260000 0.104726 0.290000 258.905256 -31.054709 45.105019 500.000000
0.260000 0.090000 0.290000 -106.199615 73.861249 48.098531 500.000000
-0.260000 0.090000 0.290000 462.655794 56.759112 87.106410 500.000000
0.260000 0.090000 0.290000 -32.841799 21.212560 23.446606 500.000000
0.260000 0.129915 0.290000 -92.322045 -26.017092 65.997664 500.000000
0.159311 0.090000 0.410000 -20.137897 41.072953 -31.398966 500.000000
-0.260000 0.090000 0.290000 90.419181 26.389655 52.846116 500.000000
-0.153178 0.090000 0.410000 -34.357481 29.703905 -25.790075 500.000000
-0.141276 0.090000 0.410000 -80.255251 57.007919 -97.102526 500.000000
0.098863 0.090000 0.290000 -32.227357 394.252162 146.136487 500.000000
-0.260000 0.260000 0.410000 90.643222 -28.119252 -18.638780 500.000000
-0.260000 0.260000 0.410000 95.950285 -27.872823 -19.206866 500.000000
-0.260000 0.164726 0.290000 145.009294 -19.054832 45.709882 500.000000
-0.116272 0.090000 0.410000 -75.254333 60.317448 -33.669842 500.000000
-0.260000 0.260000 0.410000 84.139857 -40.188811 -37.062955 500.000000
0.182198 0.260000 0.290000 88.439674 -13.054236 38.591641 500.000000
0.260000 0.260000 0.316770 -73.849233 -47.885114 -18.645956 500.000000
-0.128995 0.090000 0.410000 -77.798994 61.163299 -33.642064 500.000000
0.260000 0.090000 0.290000 -22.188312 91.924304 13.055343 500.000000
0.260000 0.090000 0.410000 -270.709847 17.362844 -56.226787 500.000000
0.123537 0.098573 0.410000 76.707421 -32.285332 -56.671096 500.000000
0.260000 0.260000 0.410000 -348.958620 -18.239506 -37.988200 500.000000
0.260000 0.090000 0.410000 -299.436347 20.971717 -56.517696 500.000000
-0.260000 0.090000 0.410000 186.209755 58.159379 -37.419509 500.000000
0.260000 0.090000 0.410000 -253.567924 51.240836 -54.476727 500.000000
0.260000 0.260000 0.321583 -203.794605 -15.010755 -17.683378 500.000000
0.260000 0.260000 0.373092 -35.526184 -11.261708 -7.381686 500.000000
-0.260000 0.260000 0.410000 83.334362 -28.285519 -18.278364 500.000000
-0.202071 0.090000 0.290000 -92.414197 68.483424 20.580050 500.000000
-0.260000 0.260000 0.410000 205.510916 -35.690608 -368.228346 500.000000
0.260000 0.260000 0.290000 -198.567240 -57.890133 36.106022 500.000000
-0.260000 0.260000 0.290000 56.740624 -83.895420 53.095939 500.000000
-0.260000 0.161841 0.290000 327.949587 -19.631709 45.268999 500.000000
-0.260000 0.090000 0.410000 358.553634 45.886279 -31.193988 500.000000
0.260000 0.260000 0.410000 -197.338751 -33.182266 -47.881777 500.000000
-0.260000 0.090000 0.290000 504.558439 38.248237 47.662418 500.000000
-0.260000 0.090000 0.410000 237.773862 41.021324 -31.282139 500.000000
-0.260000 0.090000 0.410000 280.979222 45.413470 -31.144069 500.000000
0.107658 0.090000 0.410000 -30.468431 38.020317 -34.561797 500.000000
