ply
format ascii 1.0
element vertex 240
property float x
property float y
property float z
property float vx
property float vy
property float vz
property float density
end_header
-0.260000 0.260000 0.410000 24.807372 -30.545676 -85.225268 500.000000
-0.260000 0.212506 0.290000 83.233049 24.501227 131.422560 500.000000
-0.260000 0.090000 0.410000 75.232693 22.410110 -65.754150 500.000000
0.061302 0.220975 0.410000 -39.739590 26.194954 -775.309866 500.000000
0.260000 0.148861 0.290000 -88.530018 -22.227817 19.048512 500.000000
0.014759 0.173880 0.410000 -49.048104 -17.223951 -29.611239 500.000000
-0.260000 0.090000 0.290000 41.848382 18.498407 222.919390 500.000000
-0.260000 0.090000 0.290000 68.440781 23.598674 68.197268 500.000000
0.099173 0.260000 0.410000 71.834610 -39.342031 -183.735932 500.000000
0.225674 0.090000 0.290000 97.134893 18.350570 50.601262 500.000000
-0.260000 0.256281 0.290000 106.929823 33.256116 131.863434 500.000000
0.260000 0.090000 0.290000 -262.947379 21.865692 47.223482 500.000000
-0.260000 0.090000 0.290000 44.129951 21.705802 43.091054 500.000000
-0.260000 0.134716 0.410000 104.583621 -25.056834 -48.930122 500.000000
-0.260000 0.090000 0.290000 79.623377 63.148396 57.025685 500.000000
-0.260000 0.240118 0.410000 157.077941 30.023627 -79.706505 500.000000
0.260000 0.260000 0.410000 -188.106955 -18.480671 -78.574929 500.000000
-0.260000 0.090000 0.290000 99.420833 136.477326 50.864606 500.000000
-0.260000 0.260000 0.410000 74.098315 -44.558070 -79.336318 500.000000
0.260000 0.260000 0.410000 -108.668211 -26.994000 -78.823578 500.000000
0.260000 0.260000 0.290000 -110.989405 -40.334055 117.028569 500.000000
-0.260000 0.208338 0.290000 200.298227 23.667649 255.997146 500.000000
-0.154648 0.132977 0.410000 -38.258429 -25.404501 -63.356004 500.000000
-0.217193 0.122503 0.410000 -15.246744 -27.499445 -54.877276 500.000000
-0.260000 0.090000 0.290000 98.144965 86.108073 233.336437 500.000000
-0.260000 0.260000 0.290000 84.075415 -17.155041 133.501706 500.000000
0.260000 0.090000 0.410000 -11.885126 19.627821 -70.063574 500.000000
0.260000 0.090000 0.290000 -58.575742 34.283882 87.557438 500.000000
0.260000 0.090000 0.290000 -128.857755 84.441771 29.942410 500.000000
-0.052368 0.090000 0.290000 41.526353 129.179547 463.090665 500.000000
-0.260000 0.212995 0.290000 93.433397 24.599005 105.575572 500.000000
0.027225 0.122000 0.410000 -12.924246 -27.600022 -70.396116 500.000000
0.260000 0.090000 0.410000 -58.633262 27.605646 -96.779533 500.000000
0.260000 0.125695 0.410000 -200.114037 -26.860931 -63.301666 500.000000
-0.260000 0.260000 0.290000 366.429185 -20.320591 306.873766 500.000000
-0.260000 0.090000 0.290000 160.234735 71.055405 239.479315 500.000000
0.260000 0.209171 0.410000 -72.212373 23.834297 -28.206701 500.000000
-0.260000 0.090000 0.410000 132.631760 19.331087 -93.408054 500.000000
-0.260000 0.260000 0.410000 437.235377 -23.294585 -116.000884 500.000000
-0.260000 0.260000 0.290000 14.850756 -18.521488 27.013216 500.000000
0.260000 0.230977 0.290000 -189.682899 28.195427 13.270643 500.000000
-0.260000 0.256293 0.290000 101.570283 33.258572 131.861416 500.000000
-0.033255 0.162155 0.410000 -27.199436 -19.569024 -23.365996 500.000000
-0.260000 0.090000 0.290000 128.235008 71.212415 136.965639 500.000000
0.181101 0.102012 0.410000 40.441718 -31.597609 -30.627021 500.000000
0.260000 0.260000 0.290000 -118.503878 -32.900647 59.607642 500.000000
0.260000 0.090000 0.410000 -73.384618 28.404256 -93.540733 500.000000
-0.188706 0.090000 0.410000 -89.741252 110.048080 -13.044525 500.000000
0.258312 0.090000 0.290000 103.662448 17.711037 51.708368 500.000000
0.260000 0.131465 0.410000 -35.779266 -25.706917 -63.265553 500.000000
0.260000 0.090000 0.410000 -60.796397 27.534162 -97.065598 500.000000
-0.260000 0.256437 0.290000 98.070720 33.287444 131.891083 500.000000
0.260000 0.090000 0.410000 -59.302219 27.538069 -98.400173 500.000000
-0.017500 0.146286 0.290000 -32.840398 -22.742810 43.082287 500.000000
0.028013 0.126978 0.410000 -46.397443 -26.604305 -63.184640 500.000000
-0.260000 0.260000 0.290000 93.285043 -17.149969 132.956860 500.000000
0.260000 0.090000 0.325582 -70.719180 34.713507 7.116462 500.000000
-0.260000 0.090000 0.290000 80.465845 64.344393 50.575242 500.000000
0.228701 0.123602 0.410000 34.434135 -11.588970 -13.797834 500.000000
0.260000 0.130831 0.410000 -451.541016 -25.833740 -63.938606 500.000000
0.260000 0.131072 0.410000 -372.937830 -25.785670 -65.292829 500.000000
-0.175992 0.090000 0.290000 -9.312797 217.595172 51.825293 500.000000
0.260000 0.260000 0.290000 -78.399732 -27.692320 91.758736 500.000000
-0.260000 0.258051 0.290000 89.497688 33.610274 132.028906 500.000000
-0.260000 0.260000 0.410000 56.003435 -18.842079 -869.968489 500.000000
-0.260000 0.090000 0.290000 103.503715 138.847988 50.909705 500.000000
-0.260000 0.260000 0.410000 59.515670 -29.264975 -281.414431 500.000000
-0.260000 0.260000 0.290000 94.355408 -19.154122 304.359785 500.000000
0.260000 0.260000 0.410000 -70.286446 -66.910534 -166.664716 500.000000
-0.178193 0.090000 0.410000 -8.241632 15.865979 -14.036905 500.000000
0.260000 0.125343 0.410000 -614.667568 -26.931393 -63.347901 500.000000
0.260000 0.260000 0.290000 -113.870282 -37.568663 60.859713 500.000000
0.260000 0.090000 0.410000 -60.417438 102.667481 -57.062435 500.000000
0.260000 0.260000 0.290000 -64.305500 -18.302360 305.393502 500.000000
-0.175166 0.260000 0.410000 -87.033292 -109.813066 -218.954402 500.000000
0.260000 0.260000 0.290000 -115.168101 -29.359619 59.981121 500.000000
0.260000 0.260000 0.410000 -75.149771 -35.184408 -271.825080 500.000000
-0.260000 0.260000 0.410000 57.557579 -29.622728 -283.526661 500.000000
-0.260000 0.162272 0.290000 130.452966 -19.545698 49.220411 500.000000
0.178501 0.260000 0.290000 26.705477 -17.824531 216.248827 500.000000
0.260000 0.090000 0.290000 -63.628065 67.814127 117.502104 500.000000
-0.159439 0.253035 0.290000 20.112160 12.693884 33.141169 500.000000
-0.260000 0.122874 0.410000 414.506817 -27.425272 -63.317362 500.000000
-0.000234 0.133076 0.410000 -52.046759 -25.384727 -65.099762 500.000000
-0.260000 0.136882 0.410000 138.325015 -24.623563 -63.338858 500.000000
-0.260000 0.260000 0.290000 485.699743 -25.594906 144.883153 500.000000
0.260000 0.260000 0.290000 -129.666259 -37.777367 60.860815 500.000000
0.260000 0.090000 0.290000 -412.502334 56.189562 56.504158 500.000000
-0.260000 0.113616 0.410000 386.634899 -29.276762 -63.370928 500.000000
-0.260000 0.145975 0.290000 136.988002 -22.804915 44.879327 500.000000
0.260000 0.260000 0.290000 -113.937954 -26.664415 21.069518 500.000000
-0.103986 0.260000 0.410000 31.202776 -11.177192 -24.373598 500.000000
-0.014443 0.156192 0.410000 -5.254216 -20.761595 -22.872991 500.000000
-0.260000 0.244727 0.290000 87.216182 30.945406 137.405768 500.000000
0.260000 0.260000 0.410000 -80.402092 -41.151989 -198.805493 500.000000
0.260000 0.260000 0.290000 -140.767366 -43.598877 138.854587 500.000000
-0.124184 0.090000 0.410000 0.840283 22.382636 -57.816324 500.000000
-0.260000 0.260000 0.290000 812.442380 -37.813054 68.846326 500.000000
0.260000 0.090000 0.290000 -55.014734 66.296569 131.103992 500.000000
-0.260000 0.090000 0.410000 53.148670 59.490718 -58.808252 500.000000
0.229332 0.260000 0.410000 97.866411 -43.562756 -517.042059 500.000000
-0.260000 0.256628 0.290000 93.287228 33.325649 131.891997 500.000000
-0.260000 0.260000 0.290000 88.463724 -17.156527 132.052864 500.000000
-0.037426 0.090000 0.410000 44.514822 49.008941 -48.563280 500.000000
0.260000 0.260000 0.290000 -141.206042 -26.448431 235.841120 500.000000
0.260000 0.090000 0.290000 -42.690370 36.549191 36.606214 500.000000
0.260000 0.090000 0.410000 -72.869308 27.570766 -95.650442 500.000000
0.260000 0.260000 0.290000 -114.295366 -35.364219 59.818118 500.000000
-0.260000 0.137240 0.410000 368.858872 -24.551937 -69.088452 500.000000
0.260000 0.090000 0.410000 -58.506836 27.664492 -88.514028 500.000000
-0.260000 0.255074 0.290000 281.431684 33.014833 222.376644 500.000000
-0.260000 0.214953 0.290000 74.958999 24.990648 112.161530 500.000000
0.260000 0.260000 0.290000 -110.132265 -37.410712 60.860749 500.000000
0.260000 0.260000 0.290000 -114.719471 -38.354687 74.777044 500.000000
0.097789 0.090000 0.290000 71.557894 48.707542 40.265988 500.000000
0.260000 0.260000 0.290000 -104.083092 -31.520255 61.628022 500.000000
-0.260000 0.188537 0.290000 87.478814 19.707413 131.642230 500.000000
0.260000 0.260000 0.410000 -57.455415 -139.679714 -48.457526 500.000000
-0.260000 0.090000 0.290000 69.990313 98.309165 28.730007 500.000000
0.260000 0.130373 0.410000 -696.198711 -25.925402 -62.575829 500.000000
0.260000 0.090000 0.410000 -86.481343 75.323333 -13.204306 500.000000
0.095759 0.090000 0.410000 -32.848142 25.443929 -32.687455 500.000000
-0.260000 0.090000 0.290000 86.233919 115.788222 231.653256 500.000000
-0.260000 0.260000 0.290000 244.259387 -19.789848 282.934653 500.000000
-0.260000 0.200748 0.290000 223.684808 22.149575 224.643645 500.000000
0.260000 0.260000 0.410000 -74.409767 -33.920489 -172.866147 500.000000
-0.181815 0.260000 0.337498 -72.586863 -29.585001 -14.500330 500.000000
0.260000 0.175047 0.290000 -93.872968 17.009321 107.595871 500.000000
0.038084 0.109987 0.410000 26.778812 -16.623996 -30.141517 500.000000
0.213275 0.156611 0.410000 7.461688 -5.367689 -3.866604 500.000000
-0.260000 0.090000 0.410000 14.024567 39.384260 -64.351063 500.000000
0.260000 0.260000 0.290000 -122.945149 -37.619386 60.860809 500.000000
0.245125 0.090000 0.410000 101.024939 56.419010 -59.342228 500.000000
-0.260000 0.260000 0.290000 73.895353 -351.444305 157.475536 500.000000
-0.260000 0.260000 0.410000 55.320213 -29.283441 -280.744240 500.000000
0.089109 0.260000 0.410000 -34.178112 -20.341636 -210.471948 500.000000
0.260000 0.260000 0.303135 -88.746250 -31.738399 -21.372980 500.000000
0.043313 0.090000 0.410000 60.662625 85.230924 -92.990041 500.000000
-0.146521 0.260000 0.290000 -81.304147 -259.775697 18.075336 500.000000
-0.260000 0.252300 0.290000 324.459390 32.459947 286.883352 500.000000
-0.260000 0.125949 0.290000 12.752349 -26.810186 62.929840 500.000000
-0.260000 0.252849 0.290000 76.336195 32.569864 219.553797 500.000000
0.260000 0.260000 0.290000 -120.832159 -31.317070 50.267645 500.000000
0.260000 0.110503 0.290000 -74.140596 -29.899360 126.402034 500.000000
0.019773 0.090000 0.410000 -48.045440 21.199924 -133.259348 500.000000
-0.260000 0.136478 0.410000 218.015353 -24.704386 -68.191915 500.000000
-0.260000 0.090000 0.290000 93.036103 60.692031 50.463479 500.000000
-0.260000 0.218315 0.290000 164.081952 25.662969 193.047949 500.000000
0.260000 0.186557 0.410000 -54.632355 19.311488 -85.943313 500.000000
0.260000 0.260000 0.410000 -56.470131 -48.484278 -177.985408 500.000000
-0.260000 0.260000 0.410000 148.354397 -75.732338 -19.194599 500.000000
-0.260000 0.260000 0.290000 88.766337 -19.935710 134.452656 500.000000
-0.260000 0.260000 0.290000 84.009851 -63.711788 113.849918 500.000000
-0.260000 0.260000 0.290000 54.953231 -110.562223 109.015238 500.000000
0.260000 0.260000 0.410000 -76.711390 -17.536636 -33.220723 500.000000
-0.002873 0.090000 0.410000 -52.574639 18.259258 -20.067062 500.000000
-0.260000 0.090000 0.290000 66.014773 63.588763 94.277945 500.000000
0.260000 0.090000 0.410000 -55.693014 150.142131 -61.038156 500.000000
0.260000 0.260000 0.290000 -288.635147 -40.307032 59.981010 500.000000
0.260000 0.210130 0.290000 -40.522781 24.026051 37.314182 500.000000
-0.260000 0.134196 0.410000 457.726408 -25.160771 -63.234545 500.000000
-0.260000 0.151226 0.290000 45.482243 -21.754728 38.746641 500.000000
0.260000 0.260000 0.290000 -134.523739 -37.809599 60.830970 500.000000
-0.007485 0.090000 0.410000 50.503087 125.309884 -18.010518 500.000000
0.260000 0.260000 0.410000 -71.808851 -35.195643 -220.141313 500.000000
-0.260000 0.136424 0.410000 442.491558 -24.715205 -63.821545 500.000000
0.260000 0.260000 0.295789 -92.312310 -25.787869 -22.842245 500.000000
-0.260000 0.200354 0.290000 88.630076 22.070761 131.083065 500.000000
0.260000 0.260000 0.410000 -72.952980 -48.823177 -205.911225 500.000000
-0.106230 0.207647 0.410000 -41.376300 23.529468 -81.517314 500.000000
0.260000 0.260000 0.410000 -38.411702 -43.246092 -81.315853 500.000000
0.260000 0.223502 0.290000 -1221.721061 26.700354 114.515987 500.000000
0.260000 0.131158 0.410000 -536.965506 -25.768382 -67.029992 500.000000
-0.044444 0.158632 0.313375 21.327109 -20.273585 4.675072 500.000000
0.260000 0.090000 0.290000 -39.030591 8.883764 39.186128 500.000000
0.058684 0.101706 0.410000 -11.341869 -31.658720 -63.855842 500.000000
-0.260000 0.214311 0.290000 506.610841 24.862133 34.704415 500.000000
-0.260000 0.132147 0.410000 290.429722 -25.570671 -62.745781 500.000000
-0.260000 0.260000 0.410000 295.680074 -41.825675 -407.652437 500.000000
0.260000 0.090000 0.290000 -28.049021 31.590922 157.295807 500.000000
0.260000 0.260000 0.290000 -113.379014 -38.222347 62.147310 500.000000
0.260000 0.260000 0.290000 -190.139166 -27.736429 360.397429 500.000000
0.260000 0.090000 0.410000 -92.375320 23.930005 -175.009265 500.000000
0.260000 0.260000 0.410000 -225.548334 -36.690107 -166.672200 500.000000
0.260000 0.260000 0.410000 -47.972762 -17.253666 -77.828687 500.000000
-0.065954 0.260000 0.387096 -29.771301 -14.064966 19.419186 500.000000
-0.260000 0.090000 0.410000 67.278625 27.002568 -16.940233 500.000000
0.260000 0.260000 0.290000 -193.929708 -31.137974 59.056484 500.000000
0.260000 0.260000 0.290000 -114.908937 -33.387770 284.949465 500.000000
0.260000 0.090000 0.410000 -77.190175 27.720201 -89.078124 500.000000
0.260000 0.131176 0.410000 -286.996905 -25.764705 -66.633203 500.000000
-0.260000 0.260000 0.290000 84.950383 -30.721338 339.732841 500.000000
-0.260000 0.260000 0.290000 107.225951 -17.057902 131.176275 500.000000
-0.260000 0.260000 0.410000 60.271009 -42.895985 -211.323623 500.000000
0.015665 0.260000 0.410000 -48.866931 -20.844546 -209.216330 500.000000
-0.260000 0.215887 0.290000 63.524450 25.177451 110.272495 500.000000
-0.260000 0.260000 0.290000 78.503852 -17.785926 116.835282 500.000000
0.188694 0.090000 0.410000 89.738819 27.516017 -88.617921 500.000000
0.260000 0.090000 0.290000 -27.400215 20.706938 46.753549 500.000000
0.260000 0.260000 0.290000 -267.679797 -32.594060 329.774122 500.000000
0.260000 0.260000 0.290000 -119.065536 -37.625483 60.863260 500.000000
-0.260000 0.260000 0.290000 98.555023 -27.407953 47.340135 500.000000
-0.150646 0.260000 0.410000 -66.294613 -17.429585 -61.667843 500.000000
0.260000 0.260000 0.290000 -236.061598 -31.097961 366.581306 500.000000
-0.260000 0.090000 0.410000 58.545720 18.621288 -87.409219 500.000000
0.260000 0.260000 0.322688 -33.798577 -25.602183 -17.462427 500.000000
-0.055725 0.240440 0.410000 -14.839356 30.087955 -79.852887 500.000000
-0.260000 0.260000 0.410000 63.599615 -29.242259 -281.382305 500.000000
0.260000 0.090000 0.290000 -52.182143 67.554279 231.257098 500.000000
-0.011530 0.090000 0.410000 49.693923 18.493969 -181.739421 500.000000
-0.016048 0.260000 0.410000 -55.209541 -26.159918 -282.446414 500.000000
-0.260000 0.260000 0.290000 20.885050 -46.057634 55.447773 500.000000
0.260000 0.260000 0.410000 -173.137786 -62.316831 -197.435290 500.000000
0.260000 0.149694 0.290000 -99.609807 -22.061211 55.522940 500.000000
0.260000 0.260000 0.290000 -114.991990 -37.433003 60.831031 500.000000
0.162919 0.260000 0.410000 84.583875 -65.125838 -494.515884 500.000000
-0.154357 0.090000 0.410000 -0.553103 34.902294 -16.411224 500.000000
-0.260000 0.179412 0.290000 88.578662 17.882384 131.607953 500.000000
-0.260000 0.260000 0.290000 85.387611 -19.870557 133.946332 500.000000
-0.076211 0.260000 0.290000 -34.112377 -24.359411 80.454993 500.000000
0.260000 0.090000 0.410000 -108.686607 36.042844 -23.684871 500.000000
0.260000 0.260000 0.410000 -30.644736 -38.420707 -314.801242 500.000000
0.260000 0.134356 0.410000 -117.310626 -25.128794 -67.256496 500.000000
-0.260000 0.257406 0.290000 88.480692 33.481173 131.891052 500.000000
-0.260000 0.260000 0.290000 94.465355 -17.155838 133.760273 500.000000
-0.025664 0.227930 0.410000 -57.132848 27.586024 -1053.004489 500.000000
-0.260000 0.237857 0.290000 59.971288 29.571311 103.814813 500.000000
0.260000 0.260000 0.290000 -28.377911 -24.245305 15.633989 500.000000
0.260000 0.260000 0.410000 -123.719482 -26.640396 -78.701573 500.000000
0.260000 0.260000 0.290000 -127.790339 -37.640498 61.445916 500.000000
0.260000 0.090000 0.294951 -140.376472 289.888198 -23.009874 500.000000
0.030173 0.260000 0.290000 -9.426252 -56.945516 73.250424 500.000000
0.260000 0.260000 0.290000 -112.153733 -44.749621 65.276263 500.000000
-0.260000 0.260000 0.290000 89.393996 -17.073922 133.771192 500.000000
-0.260000 0.260000 0.362582 18.716312 -37.197062 14.516367 500.000000
0.260000 0.260000 0.410000 -32.676248 -56.216564 -23.504336 500.000000
-0.255045 0.090000 0.290000 -48.075457 288.497120 50.424946 500.000000
-0.260000 0.260000 0.410000 130.093106 -20.339594 -209.338795 500.000000
-0.260000 0.260000 0.410000 52.378045 -20.341525 -210.730359 500.000000
0.260000 0.260000 0.290000 -199.922930 -39.946668 70.440956 500.000000
