ply
format ascii 1.0
element vertex 240
property float x
property float y
property float z
property float vx
property float vy
property float vz
property float density
end_header
-0.260000 0.090000 0.290000 89.566423 42.951819 24.437807 500.000000
0.260000 0.090000 0.410000 -53.608908 40.072247 -19.655893 500.000000
-0.260000 0.137755 0.290000 87.654336 -24.449014 24.968779 500.000000
-0.260000 0.090000 0.290000 81.203292 37.471491 26.150472 500.000000
-0.260000 0.090000 0.410000 18.360592 19.173543 -18.489161 500.000000
-0.260000 0.090000 0.410000 18.027906 41.599912 -27.345121 500.000000
0.260000 0.260000 0.410000 -96.503219 -26.968288 -69.019960 500.000000
-0.260000 0.090000 0.410000 59.750081 21.736945 -27.400734 500.000000
-0.260000 0.090000 0.410000 105.876518 52.774915 -33.727672 500.000000
-0.260000 0.090000 0.410000 104.629230 56.381185 -32.845916 500.000000
0.260000 0.260000 0.290000 -77.486255 -157.745650 37.929869 500.000000
-0.146563 0.090000 0.410000 -53.952412 24.695106 -19.819285 500.000000
0.260000 0.260000 0.318201 -33.183700 -24.770705 5.640252 500.000000
-0.077397 0.260000 0.410000 -67.479468 -44.332274 -12.228796 500.000000
0.135258 0.090000 0.410000 62.916999 227.619223 -24.870472 500.000000
-0.260000 0.260000 0.290000 70.930660 -38.101497 56.238965 500.000000
0.260000 0.090000 0.290000 -1257.427472 201.592047 15.599938 500.000000
-0.260000 0.260000 0.290000 72.137752 -41.574946 179.956456 500.000000
0.260000 0.090000 0.290000 -65.844002 44.600711 21.942616 500.000000
0.260000 0.090000 0.290000 -76.787894 71.035855 26.330965 500.000000
-0.260000 0.090000 0.323047 78.821996 49.234750 -17.390698 500.000000
0.260000 0.090000 0.410000 -27.798028 50.877702 -23.584985 500.000000
-0.260000 0.090000 0.410000 163.615537 42.564942 -109.741738 500.000000
-0.260000 0.260000 0.290000 25.513869 -130.926905 64.048663 500.000000
0.260000 0.198192 0.290000 -158.736611 21.638338 37.749654 500.000000
0.260000 0.260000 0.290000 -110.101779 -44.637640 35.541781 500.000000
0.260000 0.090000 0.325865 -120.423960 76.642154 -16.827051 500.000000
0.260000 0.260000 0.410000 -67.327561 -35.586574 -12.288151 500.000000
-0.260000 0.094342 0.290000 253.286365 -33.131671 49.025540 500.000000
-0.260000 0.090000 0.410000 112.192356 29.284216 -30.544321 500.000000
-0.260000 0.090000 0.290000 81.039418 37.995259 24.937616 500.000000
-0.220059 0.211537 0.375513 -96.011841 -9.692547 -6.897433 500.000000
-0.260000 0.260000 0.290000 30.976728 -25.541776 39.045812 500.000000
-0.174499 0.260000 0.410000 -86.899801 -45.577944 -721.005937 500.000000
-0.260000 0.260000 0.290000 70.738073 -37.764145 54.921079 500.000000
-0.260000 0.090000 0.290000 92.703113 119.013870 8.784938 500.000000
0.260000 0.230106 0.378339 -67.430622 28.021100 17.667855 500.000000
0.200730 0.090000 0.313739 47.129283 56.248993 -19.252285 500.000000
-0.260000 0.090000 0.384375 43.168708 5.352893 18.874946 500.000000
0.069233 0.090000 0.341134 -38.153422 8.813130 -13.773292 500.000000
0.260000 0.260000 0.410000 -53.697158 -235.133961 -140.569126 500.000000
0.260000 0.260000 0.290000 -93.043668 -39.287091 35.638809 500.000000
0.260000 0.256331 0.290000 -76.462150 33.266150 464.468466 500.000000
-0.260000 0.260000 0.410000 579.038631 -29.123172 -62.314078 500.000000
-0.260000 0.115051 0.290000 38.088141 -28.989896 39.782531 500.000000
0.260000 0.090000 0.410000 -93.125699 23.257143 -58.729111 500.000000
-0.260000 0.260000 0.290000 616.618970 -25.394020 39.663866 500.000000
-0.260000 0.260000 0.290000 592.388262 -75.419531 115.501115 500.000000
-0.260000 0.090000 0.290000 80.119559 39.469235 26.105409 500.000000
0.260000 0.260000 0.290000 -25.397867 -21.124711 135.500616 500.000000
0.260000 0.164109 0.290000 -95.781691 -19.178294 85.060298 500.000000
-0.260000 0.260000 0.290000 72.074874 -39.767234 55.108214 500.000000
0.260000 0.090000 0.290000 -53.512730 167.624764 14.820838 500.000000
-0.260000 0.090000 0.290000 163.230115 26.402722 27.452611 500.000000
-0.260000 0.090000 0.290000 80.447926 44.056409 25.490449 500.000000
-0.260000 0.260000 0.290000 96.779016 -185.165601 75.204011 500.000000
0.260000 0.260000 0.290000 -67.405177 -25.146273 37.808555 500.000000
0.260000 0.260000 0.410000 -88.165773 -30.119461 -66.295973 500.000000
0.260000 0.164862 0.290000 -85.569545 -19.027670 35.572052 500.000000
-0.260000 0.090000 0.290000 81.080200 37.998674 25.383231 500.000000
-0.260000 0.090000 0.290000 81.093481 42.954546 24.972159 500.000000
-0.107873 0.260000 0.290000 1.947988 -35.601548 39.821845 500.000000
-0.260000 0.090000 0.410000 122.354353 50.954417 -34.791209 500.000000
-0.029843 0.260000 0.410000 -57.968600 -39.376290 -12.730808 500.000000
-0.260000 0.090000 0.410000 92.059826 47.113348 -31.688125 500.000000
-0.260000 0.260000 0.290000 72.576274 -38.656873 52.432007 500.000000
0.260000 0.260000 0.410000 -171.186987 -30.880038 -66.161622 500.000000
-0.260000 0.260000 0.290000 70.442160 -37.714312 54.925275 500.000000
-0.260000 0.090000 0.410000 110.657174 63.242323 -29.925181 500.000000
-0.260000 0.090000 0.290000 80.928339 38.310540 24.149163 500.000000
-0.260000 0.090000 0.410000 148.951220 51.626853 -36.935070 500.000000
0.247308 0.260000 0.290000 101.461653 -73.677712 16.517596 500.000000
0.232779 0.090000 0.290000 13.501954 72.372864 15.392958 500.000000
-0.260000 0.201589 0.290000 60.020075 -11.682180 33.485129 500.000000
0.260000 0.260000 0.410000 -85.125638 -58.756325 -65.560415 500.000000
-0.260000 0.090000 0.290000 184.081216 29.600589 65.409736 500.000000
0.260000 0.260000 0.410000 -48.157301 -29.446388 -12.070676 500.000000
-0.260000 0.260000 0.290000 70.856132 -37.703693 54.903543 500.000000
0.260000 0.260000 0.290000 -192.234586 -34.380984 38.181935 500.000000
0.260000 0.260000 0.410000 -85.413072 -25.789390 -69.696239 500.000000
0.260000 0.260000 0.410000 -85.118703 -74.701983 -65.542425 500.000000
0.260000 0.260000 0.410000 -85.124481 -64.097403 -65.558028 500.000000
0.260000 0.090000 0.364796 -37.133204 32.722911 -9.040758 500.000000
0.260000 0.260000 0.410000 -85.132466 -48.186696 -65.577364 500.000000
0.260000 0.227551 0.290000 -41.185457 27.510257 18.525673 500.000000
0.260000 0.260000 0.290000 -80.780901 -25.084496 478.558979 500.000000
-0.260000 0.260000 0.290000 71.068942 -38.084084 55.924917 500.000000
0.244430 0.090000 0.410000 100.885944 331.909766 -102.817090 500.000000
0.260000 0.260000 0.410000 -85.135077 -32.022966 -65.568579 500.000000
-0.260000 0.090000 0.290000 32.064636 158.703231 68.323624 500.000000
0.260000 0.260000 0.410000 -91.433950 -26.327063 -65.570127 500.000000
0.180570 0.260000 0.410000 0.017985 -37.136277 -15.336279 500.000000
-0.260000 0.158056 0.410000 102.526569 -20.388808 -22.368754 500.000000
-0.260000 0.260000 0.410000 53.263319 -17.683940 -36.365519 500.000000
0.260000 0.090000 0.290000 -89.217301 71.005565 26.258996 500.000000
-0.024587 0.260000 0.410000 -56.917318 -37.994249 -16.198407 500.000000
0.260000 0.090000 0.290000 -85.305061 50.163420 30.237413 500.000000
-0.260000 0.260000 0.290000 69.641322 -38.116162 58.191084 500.000000
-0.022385 0.260000 0.290000 -41.060748 -22.364222 23.591355 500.000000
0.178791 0.152142 0.290000 7.323414 -21.571602 44.538504 500.000000
-0.260000 0.090000 0.290000 80.654570 38.275002 24.167609 500.000000
0.260000 0.260000 0.290000 -40.554055 -56.638072 32.123985 500.000000
0.260000 0.260000 0.290000 -107.977714 -50.027939 35.476321 500.000000
0.260000 0.260000 0.290000 -102.492848 -33.979066 35.791470 500.000000
0.260000 0.230730 0.410000 -44.832552 28.145985 -182.981876 500.000000
0.105951 0.108776 0.410000 27.885377 -30.244758 -32.986931 500.000000
-0.260000 0.090000 0.290000 81.043571 37.967222 25.383938 500.000000
-0.056597 0.260000 0.410000 -63.319332 -39.834387 -13.951658 500.000000
0.160186 0.260000 0.410000 26.028893 -34.586545 -14.207120 500.000000
-0.014308 0.260000 0.410000 -54.861577 -35.153196 -181.826426 500.000000
-0.260000 0.260000 0.410000 149.305476 -40.676843 -51.696227 500.000000
0.260000 0.090000 0.410000 -68.058227 21.145615 -26.927798 500.000000
-0.260000 0.260000 0.290000 71.336463 -37.696133 54.929974 500.000000
0.260000 0.090000 0.410000 -94.928075 46.676619 -30.990658 500.000000
0.260000 0.260000 0.410000 -84.556687 -70.158667 -66.037889 500.000000
0.260000 0.260000 0.410000 -39.713560 -35.166474 -12.416661 500.000000
0.260000 0.090000 0.290000 -18.033477 66.332347 13.226780 500.000000
-0.260000 0.090000 0.290000 81.053867 38.932174 25.390286 500.000000
0.092871 0.090000 0.410000 -19.894152 24.414467 -22.888186 500.000000
-0.260000 0.090000 0.290000 81.056668 38.579493 25.396926 500.000000
-0.260000 0.260000 0.290000 71.343519 -37.927432 54.920517 500.000000
0.132329 0.146898 0.290000 58.691592 -22.620369 73.270276 500.000000
0.260000 0.260000 0.410000 -96.705739 -25.240120 -67.323054 500.000000
-0.260000 0.260000 0.290000 70.693896 -37.739444 54.920912 500.000000
-0.260000 0.260000 0.410000 33.369479 -33.940702 -14.550512 500.000000
0.260000 0.260000 0.410000 -82.578365 -50.329148 -65.474567 500.000000
-0.260000 0.108393 0.410000 82.883650 -30.321413 -26.288750 500.000000
-0.260000 0.090000 0.410000 92.018530 48.466805 -33.709808 500.000000
0.260000 0.260000 0.290000 -103.701461 -61.768840 35.516496 500.000000
-0.260000 0.260000 0.410000 86.270445 -39.882792 -13.649001 500.000000
-0.260000 0.090000 0.330740 36.751835 50.987470 -15.852074 500.000000
-0.260000 0.260000 0.290000 71.331404 -38.086008 55.925188 500.000000
-0.260000 0.090000 0.410000 106.723362 47.495360 -31.823901 500.000000
-0.260000 0.152156 0.290000 80.515447 -21.568856 24.533627 500.000000
-0.260000 0.090000 0.410000 139.226903 28.893559 -30.195570 500.000000
-0.260000 0.260000 0.290000 69.937304 -73.072632 53.595476 500.000000
-0.136136 0.254269 0.410000 24.772853 32.853858 -16.217768 500.000000
-0.260000 0.223992 0.313966 55.575489 26.798456 -19.206824 500.000000
-0.260000 0.090000 0.290000 26.815544 209.789225 38.008338 500.000000
0.260000 0.260000 0.410000 -85.269398 -27.517971 -91.287271 500.000000
0.260000 0.260000 0.410000 -85.122022 -26.981742 -65.572119 500.000000
0.260000 0.260000 0.410000 -85.130486 -42.740436 -65.570945 500.000000
0.260000 0.260000 0.410000 -85.724203 -25.558451 -65.238210 500.000000
0.260000 0.260000 0.410000 -85.118544 -69.293496 -65.541164 500.000000
0.137274 0.118695 0.410000 79.454855 -28.261028 -49.993317 500.000000
-0.260000 0.090000 0.290000 35.256359 17.134672 24.925986 500.000000
-0.260000 0.141635 0.410000 100.529375 -23.673008 -12.436875 500.000000
-0.260000 0.260000 0.290000 70.563053 -38.071970 55.926636 500.000000
-0.260000 0.233927 0.290000 410.187524 28.785476 145.425842 500.000000
0.260000 0.260000 0.410000 -85.190162 -24.779084 -65.684631 500.000000
-0.260000 0.260000 0.290000 105.268834 -137.450057 125.175335 500.000000
0.260000 0.260000 0.290000 -273.662726 -384.342773 40.523801 500.000000
0.260000 0.260000 0.410000 -85.127101 -53.363667 -65.562935 500.000000
0.260000 0.260000 0.410000 -68.296860 -59.399829 -331.567418 500.000000
-0.099671 0.260000 0.410000 -51.434090 -24.850029 -252.897477 500.000000
-0.260000 0.260000 0.410000 39.152521 -10.867090 -269.057666 500.000000
-0.260000 0.090000 0.410000 133.936345 131.674291 -26.913729 500.000000
-0.260000 0.260000 0.290000 70.956596 -38.307316 54.993970 500.000000
-0.260000 0.260000 0.290000 71.992899 -62.711848 54.394748 500.000000
0.260000 0.260000 0.410000 -86.149447 -43.690706 -68.560835 500.000000
0.260000 0.090000 0.410000 -680.978186 48.952848 -31.126209 500.000000
-0.260000 0.090000 0.410000 140.070381 48.520949 -29.495037 500.000000
0.260000 0.260000 0.290000 -98.678004 -28.581004 35.605805 500.000000
-0.260000 0.260000 0.290000 69.434197 -39.609310 55.100290 500.000000
-0.260000 0.090000 0.410000 132.062996 57.336386 -32.629092 500.000000
0.260000 0.255319 0.290000 -54.281687 11.420265 18.988359 500.000000
-0.260000 0.090000 0.307847 74.185374 156.670020 -20.430548 500.000000
-0.260000 0.260000 0.290000 69.134080 -39.294271 55.092734 500.000000
-0.260000 0.090000 0.290000 81.053722 38.748068 25.396287 500.000000
0.141272 0.090000 0.410000 80.254320 39.282087 -51.569010 500.000000
-0.260000 0.260000 0.290000 87.844579 -21.155875 43.590500 500.000000
-0.260000 0.090000 0.310950 74.814165 21.924849 -19.809988 500.000000
0.260000 0.156504 0.386994 -227.539573 -20.699277 19.398798 500.000000
-0.260000 0.090000 0.290000 80.981231 46.731263 23.937835 500.000000
0.260000 0.260000 0.410000 -44.372775 -12.479866 -14.407714 500.000000
-0.260000 0.260000 0.290000 70.979473 -66.357349 35.896363 500.000000
0.260000 0.260000 0.410000 -85.140461 -37.460931 -65.753884 500.000000
0.260000 0.260000 0.410000 -78.469897 -34.993791 -17.276143 500.000000
-0.260000 0.090000 0.290000 81.036930 38.848501 25.396931 500.000000
0.260000 0.260000 0.410000 -85.184999 -67.963025 -67.530607 500.000000
-0.260000 0.090000 0.410000 116.157421 36.872409 -31.412554 500.000000
-0.260000 0.260000 0.290000 69.535563 -39.340103 55.092483 500.000000
-0.260000 0.090000 0.290000 69.901660 244.255090 15.019376 500.000000
-0.053750 0.090000 0.290000 -2.743618 20.155849 167.634808 500.000000
0.260000 0.090000 0.290000 -277.450222 65.661500 48.095875 500.000000
0.260000 0.090000 0.290000 -52.887110 19.314331 31.495583 500.000000
-0.260000 0.260000 0.290000 70.988717 -37.725533 56.021292 500.000000
0.260000 0.260000 0.290000 -127.039945 -27.386749 21.997446 500.000000
-0.260000 0.154256 0.290000 71.271466 -21.148792 32.597512 500.000000
-0.260000 0.090000 0.410000 96.813821 47.560272 -31.867517 500.000000
-0.260000 0.090000 0.290000 82.714980 38.272613 23.928080 500.000000
0.260000 0.090000 0.290000 -141.940858 68.845132 24.100853 500.000000
-0.260000 0.090000 0.290000 81.027973 38.971934 25.394709 500.000000
0.260000 0.090000 0.290000 -111.340147 64.054639 32.190935 500.000000
-0.168606 0.260000 0.290000 -7.201203 -19.497087 39.504538 500.000000
0.260000 0.106436 0.290000 -40.049446 -30.712891 18.119864 500.000000
-0.260000 0.090000 0.410000 110.420411 25.009218 -29.083405 500.000000
0.260000 0.090000 0.290000 -102.151454 54.948640 36.957712 500.000000
-0.260000 0.090000 0.316049 69.427621 29.794177 -18.790140 500.000000
-0.260000 0.260000 0.290000 69.168837 -67.949471 54.119685 500.000000
-0.260000 0.119967 0.290000 82.175364 -28.006643 23.755112 500.000000
0.260000 0.260000 0.410000 -85.691432 -72.662801 -65.165850 500.000000
0.260000 0.090000 0.410000 -27.574833 19.229083 -35.794590 500.000000
0.260000 0.090000 0.326962 -76.135396 21.419649 -16.607604 500.000000
0.089443 0.240638 0.397609 -34.111478 30.127614 21.521752 500.000000
-0.139369 0.260000 0.410000 -51.179586 -24.110649 -495.510364 500.000000
-0.260000 0.260000 0.290000 70.944707 -38.070016 55.898388 500.000000
0.260000 0.141901 0.410000 -118.246964 -23.619726 -23.994385 500.000000
0.126168 0.260000 0.410000 -26.766486 -204.412410 -26.861843 500.000000
0.260000 0.260000 0.290000 -114.935616 -28.834117 543.699269 500.000000
-0.260000 0.090000 0.324002 76.631041 27.835857 -17.199591 500.000000
0.260000 0.090000 0.290000 -121.310326 69.263524 29.308162 500.000000
0.260000 0.090000 0.290000 -163.802249 67.290449 33.856646 500.000000
0.260000 0.260000 0.410000 -92.528069 -25.428815 -67.949665 500.000000
0.260000 0.260000 0.290000 -94.915319 -55.332354 35.815998 500.000000
-0.260000 0.090000 0.290000 81.043135 37.466293 26.439533 500.000000
0.260000 0.090000 0.338445 -19.454631 33.463928 3.899485 500.000000
0.260000 0.090000 0.410000 -94.642357 105.127176 -47.187065 500.000000
0.260000 0.260000 0.290000 -105.102422 -62.104790 35.593591 500.000000
0.260000 0.090000 0.410000 -65.345800 17.386362 -32.492460 500.000000
-0.260000 0.260000 0.290000 75.049928 -37.554563 51.917475 500.000000
-0.260000 0.260000 0.290000 171.518670 -27.799959 54.090386 500.000000
0.260000 0.090000 0.290000 -62.227665 46.394971 96.827562 500.000000
-0.260000 0.260000 0.290000 71.428283 -66.460748 54.465345 500.000000
0.260000 0.260000 0.290000 -1284.564039 -38.053450 65.838265 500.000000
-0.260000 0.137110 0.290000 78.554304 -24.578020 24.335711 500.000000
0.260000 0.178444 0.290000 -20.985662 17.688833 24.031087 500.000000
-0.196809 0.260000 0.290000 -45.675160 -11.005407 18.701383 500.000000
0.260000 0.090000 0.290000 -62.790664 70.594770 26.422433 500.000000
-0.154172 0.090000 0.410000 -37.514264 46.571489 -149.549250 500.000000
0.260000 0.090000 0.410000 -35.365763 39.515562 -19.919636 500.000000
-0.260000 0.260000 0.410000 543.990218 -24.162096 -98.673227 500.000000
0.260000 0.090000 0.410000 -383.916166 50.016670 -250.435886 500.000000
0.260000 0.260000 0.410000 -86.695447 -28.842120 -66.756851 500.000000
-0.260000 0.260000 0.290000 69.909677 -76.620741 53.583881 500.000000
-0.260000 0.090000 0.290000 81.068283 37.602532 25.635586 500.000000
0.053395 0.114545 0.410000 62.678930 -29.090934 -44.877358 500.000000
-0.260000 0.260000 0.290000 70.545338 -37.656858 54.741840 500.000000
-0.260000 0.260000 0.290000 70.026266 -72.833972 53.275483 500.000000
-0.260000 0.260000 0.410000 52.143583 -74.445118 -13.453189 500.000000
