ply
format ascii 1.0
element vertex 240
property float x
property float y
property float z
property float vx
property float vy
property float vz
property float density
end_header
-0.260000 0.090000 0.290000 239.700415 31.476893 32.772439 500.000000
0.260000 0.090000 0.290000 -66.483234 421.503924 40.796298 500.000000
-0.175984 0.260000 0.290000 -87.196723 -66.449927 420.906499 500.000000
0.260000 0.090000 0.334460 -49.870790 38.551738 -15.108092 500.000000
-0.260000 0.090000 0.290000 196.878610 40.332251 27.409869 500.000000
-0.190696 0.090000 0.410000 -10.996303 21.587195 -17.981233 500.000000
-0.260000 0.090000 0.290000 104.260524 38.521284 112.830356 500.000000
0.260000 0.090000 0.290000 -92.295743 43.049062 28.780313 500.000000
-0.260000 0.090000 0.410000 86.967685 52.684837 -43.416525 500.000000
0.260000 0.090000 0.290000 -96.167270 37.752801 19.255889 500.000000
-0.260000 0.260000 0.410000 135.340195 -76.572295 -76.214276 500.000000
-0.058071 0.090000 0.290000 40.385758 18.285138 225.899337 500.000000
0.260000 0.090000 0.290000 -92.504487 35.094684 19.470309 500.000000
0.260000 0.090000 0.410000 -117.766510 20.992957 -23.498471 500.000000
-0.260000 0.090000 0.410000 83.896827 58.468635 -42.130944 500.000000
-0.260000 0.090000 0.290000 68.553050 40.133930 13.871433 500.000000
0.260000 0.260000 0.290000 -15.687891 -139.989886 12.863000 500.000000
-0.157507 0.260000 0.410000 -83.501377 -74.114568 -74.986354 500.000000
-0.260000 0.137141 0.290000 126.006023 -24.571720 56.482345 500.000000
0.260000 0.260000 0.290000 -83.451937 -57.503428 84.299174 500.000000
0.260000 0.090000 0.290000 -52.295285 44.444672 15.297853 500.000000
-0.260000 0.090000 0.410000 95.732985 63.391193 -44.953749 500.000000
-0.260000 0.090000 0.410000 88.390196 55.697583 -40.760130 500.000000
0.260000 0.090000 0.410000 -437.837163 466.283567 -70.480918 500.000000
-0.116228 0.260000 0.410000 -75.245677 -73.971622 -71.681717 500.000000
-0.219614 0.090000 0.410000 -95.922838 52.236221 -67.631754 500.000000
0.260000 0.090000 0.410000 -99.372902 20.965675 -25.772834 500.000000
-0.260000 0.090000 0.410000 85.597398 51.684776 -37.730311 500.000000
-0.260000 0.260000 0.290000 89.793820 -35.457504 26.620441 500.000000
-0.112329 0.260000 0.410000 -74.465803 -73.994622 -72.938476 500.000000
-0.260000 0.090000 0.290000 114.441337 27.517715 32.555314 500.000000
-0.260000 0.090000 0.290000 169.167445 18.546644 51.827305 500.000000
-0.152111 0.260000 0.290000 -82.422264 -603.174284 106.349706 500.000000
-0.202485 0.090000 0.410000 -92.496956 51.383085 -51.132443 500.000000
0.260000 0.090000 0.410000 -122.178609 20.928757 -23.133829 500.000000
-0.260000 0.090000 0.410000 90.035168 73.115650 -43.209279 500.000000
-0.047042 0.260000 0.290000 42.591532 -26.849695 18.111429 500.000000
0.260000 0.260000 0.290000 -91.999513 -60.378654 82.250854 500.000000
-0.260000 0.090000 0.290000 308.822871 43.955680 36.368190 500.000000
0.112323 0.260000 0.373302 26.152837 -209.278663 16.660382 500.000000
0.260000 0.260000 0.410000 -66.841958 -72.457781 -39.724817 500.000000
0.260000 0.260000 0.290000 -90.517502 -55.885558 83.908601 500.000000
0.168592 0.260000 0.410000 85.718373 -26.712833 -143.232335 500.000000
0.260000 0.090000 0.290000 -77.075994 81.542716 15.843883 500.000000
0.260000 0.250111 0.290000 -159.209111 32.022254 15.485729 500.000000
-0.260000 0.090000 0.410000 77.432936 30.036359 -25.346886 500.000000
-0.198955 0.260000 0.410000 -91.791060 -946.606088 -32.842699 500.000000
-0.260000 0.206562 0.410000 34.924453 -10.687627 -41.055912 500.000000
0.260000 0.090000 0.290000 -93.285569 52.856737 20.307010 500.000000
-0.159619 0.260000 0.410000 -83.923783 -78.903657 -73.686955 500.000000
-0.260000 0.090000 0.410000 89.522113 59.973607 -42.381597 500.000000
0.260000 0.260000 0.290000 -145.349629 -22.094031 14.666196 500.000000
0.260000 0.102553 0.360131 -281.684994 -31.489483 14.026296 500.000000
-0.260000 0.090000 0.290000 72.486715 42.678254 14.137267 500.000000
0.260000 0.260000 0.410000 -74.729026 -35.618652 -35.205374 500.000000
0.260000 0.260000 0.410000 -61.040857 -33.382919 -35.047466 500.000000
-0.260000 0.260000 0.290000 107.244763 -22.399832 14.451529 500.000000
0.260000 0.090000 0.290000 -123.243024 45.959385 55.472932 500.000000
-0.228308 0.090000 0.290000 -97.661513 33.693185 25.599469 500.000000
0.260000 0.260000 0.290000 -87.944323 -27.851670 309.003086 500.000000
-0.111953 0.260000 0.410000 -74.390699 -80.794127 -71.847781 500.000000
-0.260000 0.090000 0.290000 123.067802 41.596775 39.539469 500.000000
-0.127256 0.120560 0.410000 -10.636876 -27.888063 -21.970972 500.000000
0.260000 0.090000 0.290000 -225.844397 35.730564 25.155779 500.000000
-0.260000 0.090000 0.290000 241.480585 52.157668 24.229470 500.000000
0.260000 0.090000 0.290000 -290.000186 69.265814 25.907033 500.000000
0.260000 0.260000 0.290000 -131.938292 -60.527500 82.315860 500.000000
-0.260000 0.260000 0.410000 114.802600 -70.837202 -74.333742 500.000000
-0.260000 0.260000 0.410000 58.839803 -264.030081 -79.943247 500.000000
-0.147526 0.248039 0.290000 -39.832564 31.607776 19.642406 500.000000
-0.196060 0.260000 0.290000 -57.372286 -146.076743 20.656839 500.000000
-0.260000 0.090000 0.290000 132.081417 41.970417 26.478060 500.000000
-0.260000 0.090000 0.410000 89.242172 57.436343 -41.609355 500.000000
-0.260000 0.090000 0.410000 83.623746 21.342856 -297.439372 500.000000
-0.089943 0.090000 0.290000 17.003569 8.646593 74.545022 500.000000
0.260000 0.260000 0.290000 -98.452271 -52.101501 68.018123 500.000000
0.151046 0.140389 0.290000 5.705337 -23.922155 12.253148 500.000000
-0.260000 0.090000 0.410000 83.969709 58.969347 -42.079466 500.000000
0.260000 0.260000 0.410000 -111.393266 -76.077372 -32.545273 500.000000
0.260000 0.172857 0.410000 -410.015220 -17.428568 -14.489485 500.000000
0.260000 0.090000 0.290000 -92.829376 35.632794 19.789240 500.000000
0.260000 0.260000 0.290000 -46.083212 -21.764953 16.268107 500.000000
0.054719 0.260000 0.290000 29.511714 -39.284755 365.912728 500.000000
-0.260000 0.090000 0.290000 184.346079 42.904611 14.320547 500.000000
0.260000 0.260000 0.290000 -325.912240 -249.847539 70.381527 500.000000
0.260000 0.260000 0.290000 -48.767639 -51.305287 434.353231 500.000000
0.119168 0.260000 0.410000 5.091631 -99.172794 -165.217241 500.000000
0.260000 0.090000 0.291117 -302.256284 42.306396 -23.776588 500.000000
-0.260000 0.090000 0.290000 102.480889 39.973564 29.727659 500.000000
0.260000 0.260000 0.410000 -62.488200 -35.310868 -34.216678 500.000000
0.260000 0.090000 0.290000 -129.178432 90.128951 12.596181 500.000000
0.260000 0.257550 0.290000 -58.152150 33.509957 27.086860 500.000000
0.260000 0.090000 0.410000 -132.398900 21.050846 -23.049712 500.000000
-0.131832 0.260000 0.290000 -78.366453 -33.817275 20.595330 500.000000
-0.260000 0.090000 0.410000 89.608878 50.638410 -39.420324 500.000000
0.260000 0.090000 0.410000 -110.827314 20.987387 -24.394297 500.000000
-0.260000 0.260000 0.290000 269.751968 -21.625623 46.547924 500.000000
0.260000 0.090000 0.410000 -85.473919 21.419439 -18.859281 500.000000
0.260000 0.260000 0.410000 -89.212330 -79.089571 -36.571613 500.000000
-0.260000 0.127083 0.410000 570.262232 -26.583438 -19.636401 500.000000
0.260000 0.260000 0.410000 -31.826824 -65.873087 -72.345785 500.000000
0.260000 0.260000 0.372230 -58.258333 -41.646239 16.446025 500.000000
-0.260000 0.090000 0.290000 415.141235 35.829809 32.526431 500.000000
0.260000 0.260000 0.410000 -63.198846 -33.586980 -36.416625 500.000000
-0.176970 0.090000 0.290000 -87.393911 43.099396 21.100365 500.000000
-0.260000 0.260000 0.410000 56.602942 -83.357111 -85.630330 500.000000
-0.119927 0.260000 0.410000 -75.985406 -75.036677 -79.755532 500.000000
0.260000 0.090000 0.290000 -258.621891 57.585095 13.913062 500.000000
-0.260000 0.090000 0.410000 83.906647 57.436603 -42.122436 500.000000
-0.260000 0.090000 0.410000 84.126473 57.652844 -42.471879 500.000000
-0.260000 0.090000 0.410000 85.445904 59.520559 -40.530935 500.000000
-0.260000 0.260000 0.290000 296.250636 -32.196573 23.370513 500.000000
0.172811 0.260000 0.410000 23.815382 -89.881404 -97.607930 500.000000
0.260000 0.260000 0.410000 -53.878549 -64.178237 -263.793144 500.000000
0.260000 0.260000 0.410000 -196.155179 -68.984941 -78.354100 500.000000
-0.260000 0.090000 0.290000 304.019430 48.608738 41.879453 500.000000
0.260000 0.090000 0.410000 -24.642372 26.611865 -19.410365 500.000000
0.260000 0.260000 0.410000 -26.962482 -54.506674 -38.747513 500.000000
0.218089 0.090000 0.410000 64.840334 28.266952 -361.287149 500.000000
-0.260000 0.090000 0.290000 38.181384 29.969886 34.712136 500.000000
0.260000 0.090000 0.290000 -92.706428 52.597630 23.735856 500.000000
0.260000 0.090000 0.290000 -283.146804 39.545223 14.597306 500.000000
0.260000 0.090000 0.410000 -101.185772 21.588295 -24.535841 500.000000
-0.246243 0.090000 0.410000 -101.248680 62.926694 -30.416836 500.000000
-0.260000 0.090000 0.410000 92.890045 68.340810 -40.064627 500.000000
0.021461 0.090000 0.290000 -47.707711 30.211275 293.929111 500.000000
-0.139310 0.260000 0.410000 -79.862016 -74.590308 -72.236819 500.000000
-0.153496 0.107032 0.351114 21.300745 -10.830031 4.264841 500.000000
-0.260000 0.090000 0.410000 84.281019 57.382214 -41.924572 500.000000
0.260000 0.202524 0.290000 -30.954905 22.504825 47.133984 500.000000
0.260000 0.090000 0.290000 -190.850377 35.304193 76.997824 500.000000
0.260000 0.260000 0.290000 -85.577522 -64.720770 76.737598 500.000000
0.260000 0.260000 0.410000 -71.249527 -32.515226 -34.644622 500.000000
-0.260000 0.090000 0.296618 103.401163 44.674792 -22.676301 500.000000
0.260000 0.090000 0.290000 -92.648801 38.114077 19.051233 500.000000
-0.260000 0.260000 0.410000 454.641783 -48.545996 -146.493672 500.000000
-0.260000 0.260000 0.290000 65.328650 -33.699277 15.763082 500.000000
0.260000 0.090000 0.290000 -78.435225 50.241595 13.746895 500.000000
0.182443 0.260000 0.410000 88.488691 -32.375543 -43.774893 500.000000
0.260000 0.260000 0.366934 -45.232555 -25.394327 15.386777 500.000000
0.260000 0.090000 0.290000 -178.469696 40.099732 14.606031 500.000000
-0.260000 0.090000 0.290000 33.763339 24.196535 75.471328 500.000000
0.260000 0.260000 0.290000 -136.992033 -63.065721 82.332099 500.000000
0.260000 0.090000 0.410000 -117.915174 20.926384 -24.198632 500.000000
-0.260000 0.235962 0.410000 77.686035 29.192423 -134.672894 500.000000
0.162755 0.090000 0.290000 84.550938 93.862718 22.175852 500.000000
-0.260000 0.090000 0.290000 95.262662 18.128166 47.215048 500.000000
0.260000 0.090000 0.290000 -93.307397 42.660858 21.347924 500.000000
0.260000 0.260000 0.410000 -96.547897 -113.968602 -546.827560 500.000000
0.127444 0.090000 0.290000 -5.947017 41.793388 20.022393 500.000000
0.260000 0.090000 0.410000 -140.064780 20.954383 -22.885273 500.000000
0.260000 0.260000 0.410000 -64.743585 -30.087641 -34.277269 500.000000
-0.260000 0.260000 0.410000 118.005953 -76.980977 -75.296685 500.000000
-0.260000 0.090000 0.363393 46.158472 117.700693 14.678505 500.000000
-0.260000 0.090000 0.290000 122.147423 42.014271 33.263260 500.000000
0.260000 0.090000 0.410000 -103.519327 20.976822 -25.306407 500.000000
0.260000 0.090000 0.290000 -92.850094 42.663699 25.211127 500.000000
0.260000 0.090000 0.410000 -88.849780 22.382634 -18.986545 500.000000
0.189596 0.090000 0.290000 20.707601 41.772495 14.844357 500.000000
0.260000 0.090000 0.410000 -77.685012 35.370028 -19.461345 500.000000
-0.260000 0.090000 0.290000 187.444445 39.656937 29.219675 500.000000
-0.260000 0.090000 0.410000 53.082182 78.823095 -27.753793 500.000000
-0.148875 0.260000 0.290000 -81.775090 -40.755604 342.564815 500.000000
-0.260000 0.090000 0.290000 24.605123 42.943120 21.418368 500.000000
-0.218705 0.208344 0.410000 -11.180710 -10.331248 -3.203588 500.000000
-0.260000 0.090000 0.410000 83.939840 57.464719 -42.108526 500.000000
0.260000 0.090000 0.410000 -115.986882 348.312257 -20.615710 500.000000
0.260000 0.090000 0.290000 -738.603514 63.847593 29.808836 500.000000
0.260000 0.090000 0.410000 -37.527011 293.456716 -25.815593 500.000000
0.260000 0.260000 0.290000 -90.704063 -58.561086 94.927137 500.000000
0.209065 0.090000 0.290000 93.813052 182.522503 25.701971 500.000000
0.260000 0.260000 0.290000 -100.317015 -57.745878 82.333845 500.000000
0.260000 0.260000 0.290000 -166.583626 -161.481281 21.352149 500.000000
-0.260000 0.260000 0.290000 56.863833 -55.057910 19.288140 500.000000
-0.035135 0.260000 0.410000 22.483713 -71.182142 -77.421211 500.000000
0.260000 0.090000 0.303423 -103.367406 62.067445 -21.315401 500.000000
-0.131171 0.260000 0.410000 -78.234260 -73.815766 -74.582723 500.000000
0.260000 0.090000 0.290000 -93.060788 37.471311 19.371690 500.000000
0.260000 0.090000 0.290000 -96.111076 37.494708 19.231142 500.000000
-0.006299 0.090000 0.290000 -53.259853 186.941941 15.975805 500.000000
-0.260000 0.090000 0.290000 142.121419 42.887441 14.921780 500.000000
-0.164075 0.260000 0.410000 -84.815015 -74.137461 -74.156972 500.000000
-0.048500 0.090000 0.290000 -28.649364 39.670211 14.430385 500.000000
-0.079848 0.260000 0.329889 -67.969632 -32.879332 -16.022258 500.000000
-0.260000 0.090000 0.410000 83.977504 57.748359 -42.053484 500.000000
-0.260000 0.090000 0.410000 53.825995 64.884557 -39.363704 500.000000
0.260000 0.090000 0.410000 -55.670153 76.522116 -34.898668 500.000000
0.260000 0.090000 0.290000 -28.931816 19.165190 21.945874 500.000000
0.260000 0.090000 0.290000 -179.817066 41.679339 12.274842 500.000000
-0.260000 0.171233 0.410000 156.148081 -17.753355 -278.448345 500.000000
-0.146349 0.260000 0.410000 -81.269825 -79.640576 -72.136083 500.000000
0.040701 0.090000 0.410000 -43.859869 63.801083 -83.321372 500.000000
0.260000 0.090000 0.410000 -122.672758 20.929955 -21.408864 500.000000
0.260000 0.090000 0.290000 -93.588780 37.729942 19.241276 500.000000
-0.260000 0.090000 0.410000 24.194295 428.149729 -88.657622 500.000000
0.260000 0.260000 0.410000 -61.161198 -33.276590 -35.066958 500.000000
-0.260000 0.260000 0.290000 68.789812 -44.449709 21.783387 500.000000
-0.260000 0.090000 0.290000 158.905575 42.451388 14.333890 500.000000
0.260000 0.090000 0.290000 -98.281453 38.339337 19.106664 500.000000
0.260000 0.260000 0.290000 -60.665288 -229.991207 81.988835 500.000000
-0.142543 0.260000 0.290000 -80.508700 -38.347937 22.006286 500.000000
0.260000 0.090000 0.290000 -95.989889 37.729886 19.248147 500.000000
-0.113279 0.260000 0.410000 -74.655705 -74.855762 -72.208527 500.000000
-0.260000 0.260000 0.410000 68.460775 -14.579433 -105.802191 500.000000
-0.260000 0.090000 0.410000 84.779574 57.274326 -42.049733 500.000000
0.260000 0.260000 0.290000 -91.124833 -67.328565 83.899582 500.000000
0.260000 0.090000 0.290000 -98.008486 37.733994 19.594699 500.000000
-0.260000 0.090000 0.410000 84.704420 57.743107 -44.181785 500.000000
0.260000 0.090000 0.290000 -92.835426 35.310678 20.120082 500.000000
0.260000 0.130638 0.410000 -67.072323 -25.872366 -14.259300 500.000000
-0.214672 0.090000 0.381080 -24.878842 10.751769 -5.783937 500.000000
0.260000 0.260000 0.410000 -62.385571 -31.737485 -34.251696 500.000000
-0.260000 0.090000 0.290000 100.449431 115.542141 401.221346 500.000000
-0.260000 0.260000 0.290000 556.782478 -53.696204 49.976458 500.000000
-0.260000 0.090000 0.290000 242.886702 32.155604 33.063769 500.000000
0.260000 0.090000 0.290000 -93.734060 37.558396 19.237705 500.000000
0.260000 0.260000 0.290000 -74.491561 -341.744622 71.565983 500.000000
-0.260000 0.090000 0.290000 246.988281 36.711148 36.647624 500.000000
-0.260000 0.090000 0.410000 52.757223 30.703298 -73.439906 500.000000
0.260000 0.090000 0.290000 -205.891919 45.251611 20.453706 500.000000
0.260000 0.260000 0.410000 -61.369964 -32.664228 -35.021252 500.000000
0.260000 0.090000 0.290000 -208.948214 39.942063 14.411357 500.000000
-0.260000 0.090000 0.290000 219.544438 31.633809 32.558211 500.000000
0.260000 0.260000 0.290000 -35.458071 -20.622055 25.727244 500.000000
0.260000 0.260000 0.410000 -140.560150 -80.762901 -35.865226 500.000000
0.260000 0.260000 0.410000 -61.962946 -47.033276 -36.188400 500.000000
-0.013290 0.215275 0.319983 27.728344 25.054926 -18.003451 500.000000
0.148867 0.260000 0.356270 27.125853 -33.092133 13.253994 500.000000
-0.260000 0.090000 0.290000 93.936900 40.696695 33.251941 500.000000
-0.260000 0.260000 0.290000 64.568085 -37.215504 20.168109 500.000000
0.260000 0.260000 0.290000 -85.965364 -17.694630 18.328870 500.000000
0.247566 0.260000 0.299595 45.204899 -352.877597 -22.080948 500.000000
0.260000 0.090000 0.290000 -48.318543 39.317252 13.879010 500.000000
0.260000 0.090000 0.290000 -92.516500 35.057637 19.528430 500.000000
-0.260000 0.090000 0.410000 44.610372 57.150309 -25.979059 500.000000
-0.260000 0.090000 0.410000 84.152223 50.922543 -37.909736 500.000000
0.260000 0.090000 0.410000 -12.082713 12.254289 -17.464503 500.000000
-0.260000 0.260000 0.290000 42.559578 -21.173972 17.974976 500.000000
0.212249 0.098971 0.410000 57.788738 -32.205823 -23.626562 500.000000
0.260000 0.090000 0.290000 -93.679875 27.462539 22.515850 500.000000
