ply
format ascii 1.0
element vertex 240
property float x
property float y
property float z
property float vx
property float vy
property float vz
property float density
end_header
-0.077816 0.090000 0.410000 6.380128 40.432578 -12.037512 500.000000
0.260000 0.090000 0.290000 -53.380953 31.038062 54.874017 500.000000
-0.248181 0.133849 0.388488 -101.636278 -11.469852 19.697683 500.000000
0.260000 0.202267 0.410000 -149.373701 22.453452 -16.038962 500.000000
0.260000 0.090000 0.290000 -100.165212 63.674063 22.106456 500.000000
-0.260000 0.090000 0.290000 70.341878 29.198390 39.425924 500.000000
0.260000 0.260000 0.290000 -38.972507 -57.473168 33.979426 500.000000
0.260000 0.260000 0.410000 -236.972744 -33.369035 -21.631514 500.000000
-0.260000 0.090000 0.290000 90.657010 36.905273 430.173209 500.000000
0.240022 0.225652 0.290000 100.004333 27.130315 77.794075 500.000000
0.260000 0.090000 0.410000 -111.466369 126.646412 -44.113258 500.000000
-0.260000 0.090000 0.400781 83.688891 136.543521 22.156154 500.000000
-0.203373 0.150573 0.357371 -24.478265 12.114527 13.474275 500.000000
-0.260000 0.260000 0.290000 154.079194 -51.940228 13.641622 500.000000
-0.260000 0.260000 0.410000 156.461966 -66.143693 -43.346174 500.000000
-0.260000 0.260000 0.290000 54.209283 -21.049603 144.281803 500.000000
-0.260000 0.260000 0.410000 152.309306 -35.936729 -45.834927 500.000000
0.240191 0.224774 0.290000 100.038106 26.954871 77.798736 500.000000
-0.260000 0.090000 0.290000 131.674211 37.791602 195.205391 500.000000
-0.260000 0.090000 0.410000 73.192792 228.759602 -185.875783 500.000000
0.260000 0.255241 0.290000 -118.484442 33.048114 79.116665 500.000000
-0.026136 0.090000 0.290000 46.772801 49.613905 28.126937 500.000000
-0.260000 0.260000 0.290000 37.032255 -81.660154 37.316099 500.000000
0.260000 0.090000 0.290000 -30.193189 43.416801 13.321049 500.000000
-0.260000 0.260000 0.290000 102.617757 -62.763188 173.943160 500.000000
0.007538 0.212512 0.290000 -50.492347 24.502341 154.976221 500.000000
0.104444 0.260000 0.290000 72.888858 -54.719516 83.887551 500.000000
-0.260000 0.260000 0.290000 61.135391 -23.712123 138.449954 500.000000
0.150771 0.090000 0.290000 37.970355 118.561137 36.500102 500.000000
0.260000 0.090000 0.290000 -84.052997 34.744847 28.239145 500.000000
-0.260000 0.260000 0.410000 434.258774 -118.198034 -209.336908 500.000000
-0.260000 0.090000 0.290000 116.437627 31.743745 40.847965 500.000000
0.260000 0.090000 0.410000 -88.018673 48.261774 -83.971604 500.000000
0.260000 0.260000 0.290000 -96.470908 -58.519726 74.799320 500.000000
-0.260000 0.260000 0.410000 153.059466 -37.382734 -42.587873 500.000000
-0.260000 0.260000 0.410000 57.368182 -70.258492 -19.293542 500.000000
0.260000 0.090000 0.410000 -134.531877 74.393260 -44.398510 500.000000
-0.260000 0.260000 0.290000 105.564619 -69.580118 160.507029 500.000000
0.260000 0.260000 0.290000 -59.518609 -20.568563 52.351921 500.000000
0.242940 0.229728 0.290000 100.587942 27.945660 77.732482 500.000000
-0.260000 0.260000 0.410000 13.818477 -79.778897 -16.807975 500.000000
0.235927 0.225842 0.290000 99.185384 27.168313 77.772941 500.000000
-0.260000 0.260000 0.410000 151.099496 -38.967917 -43.722204 500.000000
0.034145 0.090000 0.290000 58.829063 58.404532 27.592489 500.000000
-0.260000 0.090000 0.410000 73.108368 76.903332 -182.330675 500.000000
-0.228883 0.107641 0.302022 -6.757500 -15.234025 -10.820982 500.000000
-0.049451 0.260000 0.290000 -61.890293 -66.679936 132.789307 500.000000
-0.260000 0.235503 0.410000 16.923965 29.100570 -30.929621 500.000000
-0.260000 0.090000 0.410000 112.239984 44.535035 -63.764421 500.000000
0.061229 0.090000 0.290000 64.245852 40.470004 38.219560 500.000000
0.260000 0.260000 0.290000 -54.842432 -65.069244 77.688902 500.000000
0.260000 0.090000 0.410000 -134.377774 74.524249 -41.969761 500.000000
-0.260000 0.090000 0.410000 177.074313 37.199119 -53.418129 500.000000
0.260000 0.212019 0.290000 -125.635985 24.403884 241.066451 500.000000
-0.260000 0.090000 0.290000 141.062816 28.301990 33.580193 500.000000
-0.218335 0.090000 0.410000 -10.246528 61.267477 -108.101047 500.000000
0.242903 0.220208 0.290000 100.580554 26.041528 78.640641 500.000000
-0.260000 0.260000 0.290000 296.179440 -53.579086 25.181351 500.000000
-0.260000 0.090000 0.290000 66.944373 30.038396 43.612389 500.000000
0.252687 0.260000 0.290000 102.537339 -52.794758 76.999472 500.000000
0.260000 0.260000 0.290000 -93.020372 -101.392389 170.125447 500.000000
0.260000 0.090000 0.410000 -71.804297 59.331491 -14.102225 500.000000
0.260000 0.090000 0.410000 -64.657416 20.765703 -21.957642 500.000000
0.260000 0.090000 0.410000 -137.296552 75.386591 -43.162957 500.000000
0.260000 0.260000 0.410000 -95.412304 -439.076118 -41.231610 500.000000
-0.260000 0.090000 0.290000 50.336480 32.385787 108.659292 500.000000
0.260000 0.260000 0.410000 -609.611016 -37.343098 -41.761934 500.000000
0.232123 0.197404 0.410000 57.718401 21.480780 -76.305959 500.000000
0.075382 0.090000 0.290000 -8.362524 187.225660 32.999938 500.000000
-0.260000 0.216876 0.410000 164.910341 25.375241 -47.893108 500.000000
0.175389 0.252641 0.410000 -16.922208 32.528119 -62.679772 500.000000
-0.260000 0.248755 0.290000 63.853551 31.751030 48.073338 500.000000
0.260000 0.260000 0.338699 -33.891254 -54.858415 -14.260169 500.000000
0.260000 0.226869 0.410000 -68.334742 27.373802 -234.514734 500.000000
0.260000 0.214893 0.290000 -70.756658 24.978604 38.101612 500.000000
0.260000 0.260000 0.290000 -58.750580 -161.586168 325.071612 500.000000
-0.027900 0.090000 0.410000 -21.948004 42.129551 -19.007771 500.000000
0.260000 0.237510 0.410000 -56.069691 29.502010 -238.695314 500.000000
-0.260000 0.260000 0.410000 154.067633 -33.687812 -43.351979 500.000000
-0.097110 0.090000 0.290000 -8.706461 38.073633 44.787085 500.000000
0.260000 0.260000 0.290000 -55.161143 -23.964109 77.564750 500.000000
-0.260000 0.187706 0.410000 169.595332 19.541190 -41.878887 500.000000
-0.260000 0.090000 0.410000 116.666567 123.275529 -193.582434 500.000000
-0.260000 0.200448 0.410000 154.636777 22.089528 -46.191429 500.000000
0.229689 0.226404 0.290000 97.937719 27.280887 77.347968 500.000000
-0.260000 0.259730 0.410000 151.381867 33.945901 -45.311353 500.000000
0.260000 0.090000 0.290000 -60.475379 46.981868 26.740684 500.000000
0.260000 0.090000 0.410000 -162.667752 60.769232 -75.042696 500.000000
0.260000 0.090000 0.290000 -388.541717 45.320359 181.258593 500.000000
-0.215145 0.260000 0.290000 -95.028996 -65.886995 139.588769 500.000000
0.260000 0.090000 0.410000 -104.173051 42.066762 -79.360374 500.000000
0.260000 0.197693 0.410000 -555.815636 21.538645 -45.631044 500.000000
0.243765 0.260000 0.290000 100.753097 -66.526247 87.506148 500.000000
-0.260000 0.090000 0.314534 33.575056 91.330865 -19.093263 500.000000
0.002680 0.090000 0.290000 52.536051 19.278582 29.464984 500.000000
0.253237 0.090000 0.290000 52.143244 21.451099 194.454440 500.000000
0.232834 0.220000 0.290000 98.566722 25.999995 77.218385 500.000000
-0.260000 0.222229 0.290000 215.664314 26.445756 132.525706 500.000000
-0.260000 0.260000 0.290000 128.860560 -133.087561 76.664783 500.000000
0.120514 0.260000 0.290000 -27.897200 -23.165758 132.453553 500.000000
-0.260000 0.090000 0.290000 44.272504 157.325846 18.345438 500.000000
-0.260000 0.090000 0.290000 72.316665 65.700997 58.453191 500.000000
0.260000 0.260000 0.290000 -52.671430 -61.698758 83.459607 500.000000
-0.260000 0.090000 0.410000 116.943380 68.662591 -198.164606 500.000000
0.260000 0.121792 0.410000 -94.729690 6.358383 -231.522569 500.000000
-0.260000 0.090000 0.410000 169.309065 46.929198 -12.142954 500.000000
0.260000 0.260000 0.379260 -37.826698 -74.586862 17.851941 500.000000
0.260000 0.090000 0.410000 -140.320985 140.103115 -40.664783 500.000000
0.260000 0.209372 0.410000 -56.074314 23.874459 -391.738270 500.000000
-0.260000 0.090000 0.410000 266.206048 74.092961 -29.750497 500.000000
0.190311 0.260000 0.290000 90.062290 -69.765967 169.057696 500.000000
-0.260000 0.090000 0.410000 297.373061 65.038468 -28.220969 500.000000
0.260000 0.260000 0.290000 -87.863180 -48.240791 131.731224 500.000000
0.108855 0.090000 0.410000 -30.229044 9.401808 -19.713821 500.000000
-0.260000 0.090000 0.290000 94.215863 37.185051 349.353682 500.000000
0.260000 0.260000 0.290000 -58.040884 -204.907263 410.617545 500.000000
0.260000 0.090000 0.290000 -43.251567 46.076443 20.886340 500.000000
-0.260000 0.090000 0.410000 207.032421 43.454391 -64.819662 500.000000
0.260000 0.260000 0.290000 -59.947226 -118.049376 238.416597 500.000000
0.260000 0.260000 0.410000 -205.239545 -78.999976 -246.529234 500.000000
0.129632 0.090000 0.290000 11.088016 44.785100 52.103758 500.000000
0.260000 0.090000 0.410000 -127.967904 72.445646 -43.169880 500.000000
0.006611 0.260000 0.290000 -50.677846 -73.111631 139.521191 500.000000
0.260000 0.090000 0.290000 -144.741237 39.958158 20.025593 500.000000
-0.260000 0.090000 0.410000 109.439812 191.700426 -185.067294 500.000000
0.240226 0.260000 0.290000 100.045172 -54.522374 83.462538 500.000000
0.260000 0.260000 0.290000 -85.217292 -99.457112 45.250386 500.000000
0.260000 0.090000 0.290000 -96.034041 34.948019 7.385963 500.000000
0.201976 0.090000 0.290000 57.322736 85.361128 36.355969 500.000000
-0.260000 0.090000 0.290000 58.337551 39.288356 51.285388 500.000000
0.224509 0.254206 0.290000 96.901703 32.841238 78.356190 500.000000
-0.260000 0.260000 0.410000 185.757673 -37.935273 -149.124959 500.000000
-0.260000 0.090000 0.410000 297.646957 66.839218 -106.444788 500.000000
-0.260000 0.260000 0.410000 155.214233 -75.126958 -43.474684 500.000000
-0.260000 0.090000 0.290000 69.116051 44.937191 264.597637 500.000000
0.260000 0.090000 0.410000 -89.540043 59.588964 -35.588545 500.000000
0.260000 0.260000 0.290000 -80.047396 -56.018420 122.564423 500.000000
0.152411 0.260000 0.290000 38.690230 -43.905973 33.636881 500.000000
-0.260000 0.260000 0.290000 99.095887 -238.528544 178.333698 500.000000
0.009289 0.090000 0.290000 53.857724 76.161368 33.145705 500.000000
0.260000 0.260000 0.290000 -46.666737 -44.429047 35.706753 500.000000
-0.183988 0.260000 0.290000 -88.797570 -95.948347 162.878195 500.000000
0.260000 0.260000 0.290000 -61.121653 -74.630644 152.027190 500.000000
-0.260000 0.200632 0.290000 43.515185 -11.873506 48.229158 500.000000
0.260000 0.260000 0.290000 -62.064687 -31.681798 68.001235 500.000000
0.260000 0.260000 0.410000 -274.077227 -33.709710 -24.052585 500.000000
-0.260000 0.090000 0.410000 45.765851 37.704060 -111.701942 500.000000
0.260000 0.090000 0.410000 -114.569232 93.761388 -42.760224 500.000000
-0.119387 0.260000 0.290000 -42.876206 -98.591254 12.957173 500.000000
0.223378 0.146913 0.290000 21.435748 -22.617451 15.388150 500.000000
0.260000 0.260000 0.290000 -54.050677 -44.278827 79.291081 500.000000
0.260000 0.260000 0.367343 -141.581014 -32.977357 15.468516 500.000000
0.012437 0.090000 0.290000 54.487388 42.612534 26.501571 500.000000
-0.260000 0.090000 0.410000 84.084834 78.177932 -187.918705 500.000000
-0.260000 0.090000 0.290000 73.512299 39.228745 108.544095 500.000000
-0.260000 0.090000 0.410000 116.343665 39.415575 -80.331988 500.000000
-0.260000 0.090000 0.410000 318.028947 86.769001 -33.950531 500.000000
-0.260000 0.260000 0.290000 23.546872 -67.595182 14.238515 500.000000
0.190973 0.090000 0.290000 90.194626 33.113812 24.024095 500.000000
-0.260000 0.090000 0.290000 59.047573 40.213514 19.296222 500.000000
0.260000 0.090000 0.410000 -85.196924 45.859099 -59.031354 500.000000
0.260000 0.176150 0.354256 -34.662973 17.230030 12.851228 500.000000
-0.260000 0.090000 0.410000 69.792145 61.748348 -241.855297 500.000000
0.260000 0.090000 0.410000 -55.669053 43.255889 -205.112932 500.000000
0.114954 0.260000 0.410000 -29.009275 -27.171162 -470.261124 500.000000
-0.212649 0.260000 0.410000 -29.948655 -18.306161 -15.717466 500.000000
-0.260000 0.260000 0.410000 151.328199 -37.366068 -43.343185 500.000000
0.260000 0.165694 0.410000 -57.312068 -18.861215 -15.555363 500.000000
-0.200797 0.221696 0.410000 -92.159374 26.339286 -389.094891 500.000000
-0.260000 0.260000 0.410000 157.040040 -42.618464 -43.370285 500.000000
-0.260000 0.090000 0.410000 61.290327 66.564012 -183.015296 500.000000
-0.260000 0.260000 0.410000 30.004035 -67.403598 -29.684026 500.000000
-0.260000 0.090000 0.290000 93.820962 78.557977 234.143075 500.000000
-0.260000 0.090000 0.290000 64.726041 39.319372 19.992343 500.000000
-0.260000 0.090000 0.290000 8.559338 26.290196 39.635518 500.000000
0.237368 0.232794 0.290000 99.473697 28.558777 77.322636 500.000000
-0.260000 0.090000 0.410000 146.150757 51.612905 -17.361121 500.000000
-0.260000 0.260000 0.410000 74.178620 -499.546895 -173.514124 500.000000
0.260000 0.234829 0.410000 -179.972443 28.965744 -33.532515 500.000000
-0.260000 0.090000 0.410000 45.433093 51.773443 -42.622015 500.000000
0.260000 0.260000 0.363818 -149.310778 -36.406729 14.763661 500.000000
0.100844 0.090000 0.290000 72.168810 33.353574 23.693055 500.000000
0.072697 0.090000 0.290000 66.539361 34.321846 56.847375 500.000000
-0.260000 0.244731 0.410000 147.220334 30.946197 -58.863344 500.000000
-0.260000 0.260000 0.290000 149.893555 -140.867557 129.976335 500.000000
0.260000 0.260000 0.410000 -67.474703 -71.126668 -241.717131 500.000000
-0.260000 0.090000 0.410000 69.135941 75.816860 -185.210330 500.000000
0.260000 0.260000 0.290000 -229.009141 -189.919593 37.099662 500.000000
0.260000 0.090000 0.410000 -139.547083 25.759824 -61.894404 500.000000
-0.260000 0.090000 0.290000 80.376079 74.639425 229.204787 500.000000
0.239253 0.224749 0.290000 99.850576 26.949781 77.787201 500.000000
-0.260000 0.090000 0.410000 76.797923 84.862293 -210.925408 500.000000
0.238768 0.260000 0.290000 99.753688 -46.768915 78.845257 500.000000
-0.260000 0.090000 0.290000 101.400133 39.749941 12.682797 500.000000
-0.260000 0.090000 0.290000 112.215421 38.986541 24.158596 500.000000
-0.260000 0.260000 0.410000 152.705079 -55.345493 -43.360218 500.000000
0.260000 0.260000 0.410000 -53.011483 -25.508206 -188.888552 500.000000
0.260000 0.260000 0.410000 -65.839482 -54.828511 -1020.807502 500.000000
0.260000 0.090000 0.290000 -83.973136 51.215843 319.220975 500.000000
0.260000 0.224896 0.410000 -70.366693 26.979294 -265.361363 500.000000
0.187810 0.149617 0.410000 -14.437904 11.923374 -194.693966 500.000000
-0.140514 0.090000 0.410000 -8.416459 5.932673 -12.108146 500.000000
-0.044507 0.090000 0.290000 20.852486 17.275645 39.686125 500.000000
-0.260000 0.090000 0.290000 52.275439 49.085557 26.904059 500.000000
0.260000 0.260000 0.410000 -91.059429 -20.984672 -229.920142 500.000000
0.260000 0.090000 0.410000 -135.865659 74.130092 -57.017553 500.000000
-0.201519 0.090000 0.410000 -35.945693 59.863163 -36.095452 500.000000
0.086731 0.090000 0.290000 69.346185 26.640035 57.423274 500.000000
0.260000 0.090000 0.410000 -126.048664 182.002792 -35.573658 500.000000
0.260000 0.090000 0.410000 -109.901400 80.802681 -41.518295 500.000000
-0.260000 0.090000 0.290000 62.470843 50.785900 20.448627 500.000000
-0.260000 0.090000 0.290000 78.157377 40.877397 52.447116 500.000000
0.197084 0.090000 0.410000 51.037100 46.881987 -14.025466 500.000000
0.192336 0.090000 0.290000 90.467175 62.133563 30.771517 500.000000
-0.053689 0.090000 0.290000 -13.982468 45.713161 13.932505 500.000000
0.093760 0.090000 0.290000 70.752026 25.792002 53.982839 500.000000
0.237322 0.224334 0.290000 99.464487 26.866733 78.079074 500.000000
0.260000 0.260000 0.410000 -96.856041 -71.104319 -239.909993 500.000000
0.092779 0.260000 0.410000 -33.444127 -19.918961 -275.694297 500.000000
0.251702 0.221883 0.290000 102.340303 26.376581 79.057089 500.000000
0.260000 0.090000 0.330421 -22.195706 47.181125 -15.915711 500.000000
-0.121080 0.260000 0.290000 -76.215923 -101.372347 163.528487 500.000000
0.260000 0.090000 0.410000 -81.595549 63.290817 -8.586956 500.000000
-0.260000 0.260000 0.366250 47.640606 -54.782589 15.250063 500.000000
0.015925 0.090000 0.290000 55.185098 22.144768 12.337304 500.000000
-0.260000 0.090000 0.410000 83.197823 54.053874 -192.444548 500.000000
-0.260000 0.260000 0.410000 206.010702 -18.838773 -498.281055 500.000000
-0.260000 0.090000 0.410000 62.490028 69.086101 -183.036311 500.000000
0.260000 0.090000 0.290000 -115.968635 46.016557 29.879585 500.000000
0.260000 0.224671 0.290000 -56.286499 26.934230 114.436772 500.000000
0.044841 0.260000 0.290000 60.968122 -65.904429 75.024240 500.000000
0.106114 0.200242 0.410000 59.070383 22.048494 -41.846234 500.000000
-0.260000 0.260000 0.290000 18.052764 -18.293017 42.858539 500.000000
-0.260000 0.090000 0.290000 74.261878 38.364843 493.479192 500.000000
0.260000 0.211465 0.410000 -12.371212 24.293081 -91.375799 500.000000
-0.260000 0.260000 0.410000 151.596525 -35.466507 -45.709528 500.000000
0.260000 0.243178 0.290000 -73.052565 30.635603 193.619080 500.000000
-0.260000 0.260000 0.290000 149.022659 -98.505347 150.384597 500.000000
0.260000 0.260000 0.290000 -95.272928 -62.400610 82.629039 500.000000
0.260000 0.090000 0.290000 -483.329365 39.379621 88.493757 500.000000
