ply
format ascii 1.0
element vertex 240
property float x
property float y
property float z
property float vx
property float vy
property float vz
property float density
end_header
0.260000 0.260000 0.410000 -84.958762 -173.873815 -54.276375 500.000000
0.260000 0.090000 0.410000 -152.337503 34.833762 -86.929422 500.000000
-0.260000 0.090000 0.410000 297.339457 73.047372 -15.579579 500.000000
-0.117848 0.090000 0.290000 -75.569607 96.996925 146.385876 500.000000
-0.219961 0.260000 0.290000 -95.992146 -125.910958 30.809758 500.000000
-0.260000 0.090000 0.290000 62.232779 23.215311 29.565038 500.000000
-0.260000 0.260000 0.290000 82.212640 -141.461443 35.783805 500.000000
-0.260000 0.260000 0.290000 147.398887 -205.547816 25.752564 500.000000
-0.260000 0.090000 0.410000 175.430451 37.640975 -13.027168 500.000000
0.260000 0.260000 0.410000 -98.164932 -26.896843 -50.630495 500.000000
-0.260000 0.090000 0.290000 113.671576 143.906853 25.293525 500.000000
-0.260000 0.260000 0.290000 117.494038 -97.073970 28.552527 500.000000
-0.260000 0.260000 0.410000 71.208919 -52.891356 -167.145828 500.000000
0.260000 0.260000 0.290000 -62.032987 -74.730424 30.246416 500.000000
0.260000 0.260000 0.290000 -76.712642 -198.762249 41.158683 500.000000
-0.126207 0.260000 0.329538 -77.241408 -153.850978 -16.092308 500.000000
0.260000 0.090000 0.321464 -54.519675 34.141237 -17.707177 500.000000
-0.260000 0.090000 0.290000 61.410246 143.161917 32.339737 500.000000
-0.260000 0.191499 0.410000 59.910950 -13.700201 -12.307547 500.000000
0.260000 0.090000 0.410000 -200.125264 64.266035 -25.263699 500.000000
-0.233342 0.260000 0.410000 -98.668314 -52.573521 -199.304560 500.000000
-0.260000 0.090000 0.290000 66.013894 50.742533 22.233145 500.000000
-0.260000 0.260000 0.290000 99.603258 -247.701094 30.327686 500.000000
-0.260000 0.090000 0.410000 228.529962 69.690895 -14.335714 500.000000
-0.260000 0.090000 0.290000 46.426976 143.090459 28.118227 500.000000
-0.260000 0.260000 0.290000 78.594715 -125.509334 35.871092 500.000000
0.260000 0.260000 0.290000 -69.330488 -71.234994 47.813825 500.000000
-0.260000 0.260000 0.290000 85.354532 -127.858451 35.954809 500.000000
-0.260000 0.090000 0.410000 392.227597 34.373981 -27.358560 500.000000
0.170998 0.090000 0.290000 45.899320 143.660738 25.267229 500.000000
-0.142688 0.090000 0.410000 -80.537508 66.580083 -74.951682 500.000000
-0.180125 0.260000 0.290000 -88.024934 -169.417575 32.019596 500.000000
0.109996 0.260000 0.290000 73.999228 -112.883207 78.119577 500.000000
0.260000 0.260000 0.404186 -74.157425 -22.211830 22.837132 500.000000
0.260000 0.260000 0.290000 -60.715458 -66.493342 33.178095 500.000000
-0.260000 0.090000 0.290000 66.049804 50.232685 22.217083 500.000000
0.081864 0.260000 0.290000 -35.627293 -17.587615 372.403716 500.000000
0.260000 0.215993 0.290000 -21.798148 -8.801352 20.288492 500.000000
-0.260000 0.090000 0.410000 373.110315 33.630805 -24.237686 500.000000
-0.260000 0.260000 0.410000 38.024418 -57.091580 -27.923993 500.000000
0.260000 0.260000 0.290000 -72.383593 -35.652230 543.473368 500.000000
0.260000 0.090000 0.410000 -78.316651 35.639622 -65.784946 500.000000
0.260000 0.260000 0.410000 -84.993472 -28.335862 -51.841019 500.000000
-0.260000 0.090000 0.290000 66.018644 50.232838 22.117261 500.000000
-0.111817 0.222154 0.290000 6.156513 26.430813 14.813189 500.000000
-0.260000 0.090000 0.290000 327.746047 40.851526 29.171113 500.000000
-0.260000 0.090000 0.410000 275.930881 38.616379 -13.344620 500.000000
-0.064809 0.090000 0.290000 5.242511 143.689661 31.081223 500.000000
-0.260000 0.090000 0.290000 66.816719 50.199989 22.130800 500.000000
0.118213 0.090000 0.290000 -28.357365 760.444112 28.000945 500.000000
-0.233804 0.260000 0.290000 -98.760749 -404.910297 154.150242 500.000000
0.260000 0.090000 0.410000 -325.806092 35.440998 -49.428562 500.000000
-0.260000 0.260000 0.290000 153.043750 -110.776216 72.009645 500.000000
0.260000 0.260000 0.410000 -114.838242 -61.715509 -25.314106 500.000000
0.260000 0.090000 0.290000 -88.652914 284.313385 38.310416 500.000000
-0.260000 0.090000 0.290000 155.539388 236.050277 30.678260 500.000000
0.260000 0.090000 0.410000 -333.267076 93.094400 -21.895922 500.000000
-0.260000 0.260000 0.290000 93.968383 -162.234525 30.462989 500.000000
-0.260000 0.090000 0.290000 30.914854 162.577370 39.692403 500.000000
-0.260000 0.260000 0.290000 231.920327 -22.836271 385.690369 500.000000
-0.260000 0.260000 0.290000 234.765093 -21.516160 387.204600 500.000000
-0.260000 0.090000 0.290000 66.282876 50.192754 22.040041 500.000000
-0.260000 0.090000 0.410000 39.429822 154.602442 -36.795538 500.000000
-0.260000 0.090000 0.290000 66.116898 50.836223 22.113192 500.000000
0.260000 0.260000 0.410000 -52.757085 -628.047258 -26.445947 500.000000
-0.260000 0.090000 0.290000 65.994562 50.298697 22.033465 500.000000
0.260000 0.090000 0.410000 -266.298281 67.322473 -14.858262 500.000000
0.153102 0.090000 0.290000 82.620358 123.803902 32.334514 500.000000
-0.166625 0.260000 0.410000 -55.499183 -63.559811 -26.310698 500.000000
-0.260000 0.228988 0.410000 97.210841 27.797684 -192.221920 500.000000
-0.260000 0.260000 0.410000 386.158629 -20.153693 -172.440034 500.000000
0.260000 0.260000 0.410000 -87.655914 -40.522927 -110.811870 500.000000
-0.260000 0.260000 0.290000 27.388436 -28.750512 55.087220 500.000000
0.260000 0.170077 0.410000 -76.140524 -17.984524 -42.873383 500.000000
-0.260000 0.090000 0.410000 81.795926 49.444379 -24.305103 500.000000
-0.260000 0.090000 0.290000 70.282040 64.734950 21.636980 500.000000
-0.169474 0.090000 0.410000 -85.894795 90.308173 -47.009769 500.000000
0.260000 0.260000 0.290000 -86.060997 -262.986844 34.555860 500.000000
0.260000 0.260000 0.290000 -77.354948 -42.260213 27.919763 500.000000
0.260000 0.146644 0.393730 -90.975983 -22.671204 20.745974 500.000000
-0.260000 0.260000 0.410000 112.877714 -121.906971 -208.050525 500.000000
-0.260000 0.090000 0.290000 57.806996 231.809658 19.348458 500.000000
-0.260000 0.090000 0.290000 188.560127 21.780844 28.684106 500.000000
0.260000 0.260000 0.410000 -248.643878 -17.687770 -48.744442 500.000000
0.260000 0.260000 0.410000 -86.112027 -23.609818 -47.363296 500.000000
0.260000 0.090000 0.290000 -63.999116 74.868340 33.022405 500.000000
0.260000 0.250142 0.410000 -89.597229 32.028408 -104.855297 500.000000
-0.260000 0.260000 0.290000 56.792330 -104.575154 28.751327 500.000000
-0.260000 0.260000 0.290000 107.432910 -98.866113 45.518085 500.000000
0.180778 0.260000 0.383919 -1.548353 -17.245139 18.783809 500.000000
-0.260000 0.090000 0.290000 72.135780 67.693251 21.590183 500.000000
-0.181712 0.188690 0.343114 -88.342396 -14.261934 -13.377241 500.000000
0.260000 0.260000 0.290000 -60.573844 -82.155953 27.616881 500.000000
0.260000 0.090000 0.410000 -181.544749 35.640652 -36.120838 500.000000
-0.260000 0.090000 0.290000 77.536830 34.236113 46.969685 500.000000
0.260000 0.260000 0.290000 -65.030310 -74.017807 27.671464 500.000000
-0.260000 0.260000 0.290000 181.176474 -17.332744 205.416759 500.000000
-0.125033 0.260000 0.290000 -77.006651 -126.572031 33.482932 500.000000
0.260000 0.260000 0.290000 -74.106852 -38.511617 28.522299 500.000000
0.260000 0.260000 0.290000 -28.683469 -96.800293 31.156972 500.000000
-0.260000 0.090000 0.410000 482.440597 41.486840 -18.838908 500.000000
0.096473 0.090000 0.410000 36.681972 35.274611 -49.430288 500.000000
0.260000 0.131090 0.410000 -78.320311 -25.782072 -29.559982 500.000000
0.260000 0.141444 0.391694 -52.653588 -23.711139 20.338871 500.000000
-0.260000 0.090000 0.290000 23.411601 149.890873 25.036056 500.000000
0.072073 0.260000 0.410000 -10.924179 -68.348622 -34.430895 500.000000
0.260000 0.090000 0.398644 -315.179447 72.026797 21.728758 500.000000
-0.260000 0.090000 0.290000 72.892274 53.979202 21.642888 500.000000
0.260000 0.260000 0.290000 -77.972187 -66.387297 40.067346 500.000000
0.260000 0.260000 0.290000 -106.168558 -94.123765 84.889184 500.000000
-0.260000 0.090000 0.290000 66.092863 51.781687 22.201105 500.000000
0.260000 0.090000 0.410000 -94.949187 34.350736 -86.876112 500.000000
-0.045084 0.090000 0.410000 -61.016739 242.582646 -112.583183 500.000000
-0.260000 0.260000 0.410000 46.266865 -47.481152 -66.922861 500.000000
-0.260000 0.090000 0.410000 154.316069 373.404255 -23.382063 500.000000
-0.260000 0.090000 0.290000 83.637581 56.445268 21.607937 500.000000
-0.260000 0.090000 0.410000 68.343059 34.505986 -76.140049 500.000000
-0.260000 0.260000 0.410000 11.616474 -88.246077 -80.943976 500.000000
-0.042418 0.090000 0.410000 -60.483699 66.696531 -29.744510 500.000000
0.223792 0.090000 0.290000 96.758436 18.037237 63.212645 500.000000
-0.260000 0.090000 0.290000 67.739159 50.232182 21.725268 500.000000
-0.260000 0.260000 0.410000 57.952393 -72.697024 -173.339600 500.000000
0.260000 0.260000 0.290000 -65.286497 -151.109259 35.749721 500.000000
-0.260000 0.260000 0.290000 253.579000 -103.046772 28.815996 500.000000
-0.260000 0.090000 0.290000 66.036663 50.565110 22.202623 500.000000
0.260000 0.090000 0.410000 -43.695553 57.409331 -23.492509 500.000000
0.260000 0.090000 0.290000 -451.093480 51.926482 29.124157 500.000000
0.260000 0.090000 0.290000 -28.324666 15.678177 32.907594 500.000000
0.260000 0.260000 0.290000 -125.991538 -59.410933 14.688081 500.000000
-0.223572 0.090000 0.290000 -96.714397 64.879354 39.898260 500.000000
-0.100248 0.260000 0.290000 -72.049566 -132.841657 32.628798 500.000000
0.260000 0.254895 0.410000 -85.011408 32.979076 -105.839519 500.000000
0.260000 0.090000 0.290000 -84.351528 146.560790 32.172797 500.000000
-0.260000 0.260000 0.290000 73.547112 -125.834618 35.894429 500.000000
0.260000 0.260000 0.410000 -100.058667 -55.734374 -24.375719 500.000000
0.260000 0.260000 0.410000 -33.176926 -63.281202 -24.279064 500.000000
-0.032346 0.260000 0.410000 -16.548720 -56.508454 -27.997612 500.000000
0.051411 0.090000 0.410000 62.282224 31.253656 -44.791051 500.000000
0.260000 0.247575 0.410000 -89.565065 31.514980 -48.477930 500.000000
-0.260000 0.090000 0.290000 66.134747 51.919773 22.263849 500.000000
-0.260000 0.260000 0.410000 59.988998 -143.807617 -174.455115 500.000000
-0.260000 0.090000 0.410000 75.582485 67.204414 -92.895990 500.000000
0.260000 0.090000 0.410000 -274.907283 43.317813 -16.933171 500.000000
0.260000 0.260000 0.290000 -64.261198 -66.191167 32.938090 500.000000
0.024759 0.260000 0.410000 -11.745902 -59.256469 -24.529436 500.000000
0.260000 0.090000 0.343799 -104.693591 169.796831 -13.240193 500.000000
-0.001171 0.260000 0.290000 29.348560 -159.410214 33.446023 500.000000
-0.260000 0.260000 0.290000 114.988666 -190.643651 28.447993 500.000000
-0.260000 0.260000 0.410000 52.999388 -17.891642 -149.155477 500.000000
0.260000 0.090000 0.410000 -115.278133 71.908659 -13.872966 500.000000
0.260000 0.260000 0.290000 -59.911041 -69.780384 30.674549 500.000000
0.260000 0.090000 0.290000 -75.715458 54.941020 37.412042 500.000000
-0.260000 0.090000 0.290000 94.763937 715.817929 28.485462 500.000000
0.260000 0.090000 0.290000 -63.147998 84.863765 33.643109 500.000000
0.260000 0.090000 0.410000 -187.669578 30.828832 -76.671809 500.000000
0.260000 0.260000 0.290000 -67.957310 -72.664288 33.705812 500.000000
-0.260000 0.260000 0.290000 146.300629 -170.523179 27.050679 500.000000
-0.147435 0.260000 0.290000 -81.487023 -262.856567 80.947232 500.000000
0.260000 0.260000 0.410000 -87.909388 -21.135611 -116.027682 500.000000
0.260000 0.090000 0.290000 -141.418642 33.805474 31.682590 500.000000
0.260000 0.260000 0.293512 -108.923692 -78.386299 -23.297610 500.000000
-0.260000 0.090000 0.290000 104.634231 51.537378 30.514662 500.000000
0.260000 0.090000 0.362300 -86.258272 120.004862 14.459948 500.000000
-0.260000 0.090000 0.290000 75.272327 50.553227 22.147513 500.000000
-0.187327 0.090000 0.410000 -53.586665 45.476902 -23.559117 500.000000
0.260000 0.260000 0.290000 -82.229827 -69.993605 38.283195 500.000000
-0.260000 0.260000 0.290000 52.518542 -17.539476 376.639891 500.000000
-0.260000 0.090000 0.290000 66.003260 50.575015 22.111539 500.000000
0.181119 0.090000 0.410000 36.243685 51.821072 -23.784055 500.000000
0.092258 0.260000 0.410000 4.947796 -57.712926 -24.581945 500.000000
0.260000 0.260000 0.290000 -25.360580 -15.176582 33.484215 500.000000
0.260000 0.090000 0.410000 -242.452387 35.072479 -17.187102 500.000000
-0.260000 0.260000 0.410000 230.558762 -24.202049 -143.463192 500.000000
0.260000 0.164095 0.410000 -88.505787 14.819099 -14.068845 500.000000
-0.260000 0.260000 0.410000 60.151427 -60.494032 -32.272027 500.000000
-0.095740 0.090000 0.410000 -71.147992 104.711369 -48.821245 500.000000
-0.260000 0.090000 0.410000 102.967455 72.029269 -19.231398 500.000000
0.260000 0.260000 0.410000 -77.282752 -20.481172 -65.497611 500.000000
0.260000 0.260000 0.410000 -84.755998 -23.478621 -47.467913 500.000000
0.259559 0.090000 0.290000 17.362024 12.110179 32.237243 500.000000
0.260000 0.260000 0.410000 -228.410551 -45.095026 -125.884664 500.000000
-0.260000 0.090000 0.290000 60.352362 147.219014 25.328594 500.000000
-0.260000 0.260000 0.410000 63.532840 -88.722333 -151.916537 500.000000
-0.260000 0.090000 0.410000 205.538049 111.749287 -29.560853 500.000000
0.260000 0.260000 0.290000 -87.060795 -106.375141 31.223185 500.000000
-0.260000 0.090000 0.290000 67.902944 46.757054 78.947087 500.000000
0.078790 0.090000 0.410000 -36.241910 92.767075 -35.962222 500.000000
-0.260000 0.090000 0.410000 116.145242 34.570630 -64.527738 500.000000
-0.260000 0.090000 0.290000 71.330030 58.612779 21.861648 500.000000
0.260000 0.090000 0.410000 -120.594748 38.521973 -13.342069 500.000000
-0.260000 0.260000 0.290000 279.257477 -20.266204 424.179542 500.000000
0.260000 0.090000 0.410000 -15.458138 42.868160 -57.105007 500.000000
0.260000 0.260000 0.290000 -53.946466 -66.642532 30.967721 500.000000
0.260000 0.260000 0.410000 -98.224458 -23.477754 -48.755865 500.000000
-0.260000 0.090000 0.410000 316.314922 41.764434 -18.692257 500.000000
-0.260000 0.205346 0.290000 193.479118 23.069219 33.172053 500.000000
0.260000 0.242115 0.410000 -79.445724 30.423094 -94.403264 500.000000
0.260000 0.260000 0.410000 -115.211821 -32.613823 -50.536233 500.000000
0.260000 0.260000 0.410000 -103.674640 -56.527198 -31.482387 500.000000
0.119988 0.260000 0.290000 -28.002416 -102.171415 28.368923 500.000000
-0.260000 0.241518 0.410000 274.498502 30.303604 -212.685690 500.000000
0.260000 0.260000 0.410000 -96.998417 -32.532415 -49.638486 500.000000
0.260000 0.090000 0.290000 -117.218564 85.972927 25.495563 500.000000
-0.260000 0.090000 0.290000 16.483592 145.919740 25.850165 500.000000
0.260000 0.260000 0.290000 -189.939386 -45.572557 30.742044 500.000000
0.260000 0.255267 0.410000 -83.658864 33.053336 -65.005602 500.000000
0.260000 0.260000 0.410000 -96.711295 -34.889705 -94.093621 500.000000
-0.202198 0.260000 0.290000 -92.439677 -123.393844 385.068781 500.000000
-0.260000 0.260000 0.410000 113.653651 -80.593851 -250.482818 500.000000
-0.160038 0.260000 0.290000 -84.007616 -125.718533 45.666161 500.000000
-0.260000 0.090000 0.410000 42.440351 20.739176 -23.881284 500.000000
0.260000 0.090000 0.290000 -77.388712 242.650755 30.934309 500.000000
-0.260000 0.090000 0.410000 283.060717 71.756972 -14.357020 500.000000
0.260000 0.090000 0.410000 -177.888557 51.151574 -31.986306 500.000000
0.260000 0.260000 0.410000 -71.922901 -39.918676 -91.641528 500.000000
0.260000 0.260000 0.410000 -84.922413 -31.648097 -48.309747 500.000000
0.260000 0.090000 0.410000 -123.669542 32.164033 -59.560752 500.000000
-0.260000 0.090000 0.410000 295.628126 33.669577 -48.591221 500.000000
0.260000 0.163333 0.410000 -83.916985 -19.333318 -26.760393 500.000000
-0.260000 0.260000 0.290000 90.821063 -128.637156 25.637157 500.000000
-0.260000 0.090000 0.290000 197.748387 143.875957 27.316177 500.000000
-0.260000 0.260000 0.410000 56.500138 -123.590895 -149.486367 500.000000
0.260000 0.260000 0.410000 -98.380415 -62.076903 -26.772914 500.000000
-0.260000 0.090000 0.410000 96.551427 66.447193 -70.533427 500.000000
0.260000 0.260000 0.290000 -100.681198 -42.075874 425.248331 500.000000
0.260000 0.260000 0.361811 -114.341308 -24.147883 14.362108 500.000000
-0.260000 0.090000 0.410000 235.975282 35.169290 -93.308774 500.000000
0.260000 0.260000 0.290000 -63.882242 -30.832683 56.503255 500.000000
-0.120498 0.090000 0.410000 -76.099509 100.316776 -49.391677 500.000000
0.260000 0.246842 0.410000 -87.286412 31.368479 -109.284409 500.000000
0.014784 0.090000 0.291326 54.956829 196.830223 -23.734787 500.000000
0.260000 0.260000 0.410000 -79.714474 -21.187536 -64.567247 500.000000
-0.103974 0.260000 0.410000 -58.831742 -54.098656 -81.197930 500.000000
-0.260000 0.260000 0.410000 72.749615 -48.139869 -174.600187 500.000000
0.260000 0.223767 0.410000 -120.012598 26.753410 -13.457491 500.000000
-0.260000 0.260000 0.290000 63.035863 -100.679021 52.820197 500.000000
-0.260000 0.260000 0.410000 53.086875 -158.308984 -151.471775 500.000000
0.260000 0.090000 0.310406 -689.742259 162.952603 -19.918884 500.000000
0.252055 0.260000 0.290000 102.410965 -77.103220 42.734437 500.000000
0.260000 0.260000 0.410000 -87.831659 -18.875057 -108.862814 500.000000
