ply
format ascii 1.0
element vertex 240
property float x
property float y
property float z
property float vx
property float vy
property float vz
property float density
end_header
-0.260000 0.260000 0.410000 35.773721 -39.008633 -24.951657 500.000000
0.260000 0.090000 0.290000 -213.457251 169.068883 32.853148 500.000000
0.260000 0.090000 0.410000 -38.137105 54.061041 -19.707834 500.000000
-0.260000 0.145635 0.410000 51.483856 -22.872968 -193.712943 500.000000
-0.260000 0.153323 0.410000 45.235906 -1.224409 -10.708656 500.000000
0.260000 0.260000 0.363905 -84.476707 -126.156876 14.780955 500.000000
-0.260000 0.090000 0.290000 88.704945 51.486149 55.712254 500.000000
-0.260000 0.090000 0.290000 95.349330 52.760503 17.053335 500.000000
-0.260000 0.260000 0.410000 63.175911 -18.521313 -45.905085 500.000000
-0.260000 0.260000 0.290000 177.207753 -956.645281 15.956246 500.000000
-0.260000 0.090000 0.290000 85.748152 441.190201 33.146098 500.000000
0.260000 0.090000 0.290000 -106.153484 20.480206 39.692577 500.000000
-0.260000 0.090000 0.302197 89.275019 52.287549 -21.560577 500.000000
-0.147903 0.260000 0.410000 -81.580648 -21.031725 -18.307407 500.000000
-0.260000 0.090000 0.290000 98.143418 62.642409 14.262000 500.000000
-0.132485 0.090000 0.410000 -78.497076 168.953987 -39.753369 500.000000
0.260000 0.090000 0.410000 -75.499829 670.610999 -19.626328 500.000000
-0.260000 0.090000 0.290000 103.090016 80.964399 12.722591 500.000000
0.260000 0.260000 0.410000 -57.214844 -30.713631 -23.444283 500.000000
0.260000 0.260000 0.410000 -98.647253 -117.761448 -19.686491 500.000000
0.260000 0.260000 0.290000 -75.185356 -35.123957 108.221306 500.000000
-0.260000 0.090000 0.290000 109.070566 195.443753 63.971278 500.000000
0.260000 0.260000 0.410000 -75.087110 -125.793859 -15.820904 500.000000
0.260000 0.260000 0.410000 -109.302159 -121.015689 -13.702609 500.000000
-0.260000 0.090000 0.290000 102.771227 68.379122 58.315061 500.000000
0.260000 0.260000 0.290000 -124.049025 -236.960554 33.560289 500.000000
0.260000 0.090000 0.410000 -64.223546 56.780824 -17.496078 500.000000
0.260000 0.090000 0.290000 -55.088988 23.583027 49.770459 500.000000
0.260000 0.090000 0.290000 -72.649720 36.115526 35.374712 500.000000
0.260000 0.090000 0.290000 -167.159204 33.004206 115.773752 500.000000
0.260000 0.090000 0.290000 -13.960747 132.562460 26.396914 500.000000
-0.172326 0.245446 0.410000 -27.104586 31.089240 -18.660655 500.000000
0.260000 0.090000 0.410000 -72.282667 86.278462 -115.203329 500.000000
0.260000 0.090000 0.410000 -102.127010 40.055541 -106.839333 500.000000
-0.260000 0.260000 0.290000 129.650345 -237.749890 102.583971 500.000000
-0.260000 0.090000 0.290000 118.284997 64.618057 59.849922 500.000000
-0.260000 0.090000 0.360406 76.567386 47.840178 14.081288 500.000000
-0.092756 0.090000 0.410000 -70.551124 53.291630 -40.600322 500.000000
-0.260000 0.260000 0.410000 119.772285 -19.508955 -38.689388 500.000000
0.260000 0.260000 0.339109 -80.444836 -237.732499 -14.178249 500.000000
0.260000 0.090000 0.290000 -59.794011 259.969343 13.573806 500.000000
0.260000 0.090000 0.290000 -805.851401 374.936372 33.145329 500.000000
0.260000 0.260000 0.290000 -88.253489 -38.034610 21.856673 500.000000
-0.260000 0.090000 0.290000 110.289535 64.657287 34.235823 500.000000
-0.061319 0.260000 0.410000 -64.263812 -19.976943 -13.733651 500.000000
0.260000 0.260000 0.290000 -77.062891 -33.266676 93.874349 500.000000
0.260000 0.090000 0.410000 -75.968232 86.477991 -114.394128 500.000000
-0.260000 0.090000 0.290000 38.107836 32.788708 21.392583 500.000000
-0.260000 0.090000 0.290000 315.073576 56.228314 37.709946 500.000000
-0.260000 0.260000 0.410000 26.638056 -222.075172 -15.808654 500.000000
0.260000 0.090000 0.410000 -72.823117 86.260602 -115.274801 500.000000
0.260000 0.090000 0.290000 -434.515301 323.490864 33.153294 500.000000
0.260000 0.090000 0.410000 -72.449803 86.261578 -115.608239 500.000000
0.260000 0.198594 0.290000 -60.348571 21.718799 51.820870 500.000000
0.260000 0.260000 0.410000 -84.460711 -158.171423 -15.778268 500.000000
0.260000 0.260000 0.290000 -62.870138 -236.959321 34.649753 500.000000
-0.260000 0.140498 0.410000 92.128044 -23.900427 -94.510520 500.000000
-0.260000 0.090000 0.290000 98.353917 62.941241 12.650290 500.000000
-0.260000 0.260000 0.290000 109.003579 -28.651546 67.307518 500.000000
0.260000 0.260000 0.410000 -187.303887 -138.523197 -15.966835 500.000000
0.260000 0.260000 0.410000 -167.633145 -180.168809 -16.305138 500.000000
-0.260000 0.090000 0.290000 178.090699 54.372050 14.421351 500.000000
-0.260000 0.260000 0.290000 95.931556 -25.350428 64.638662 500.000000
-0.260000 0.090000 0.290000 135.501308 219.484431 33.191604 500.000000
0.260000 0.260000 0.410000 -54.869234 -17.044798 -231.057493 500.000000
-0.260000 0.090000 0.290000 104.110167 81.556733 12.733859 500.000000
-0.260000 0.260000 0.410000 31.890055 -20.160696 -105.815401 500.000000
0.260000 0.260000 0.290000 -31.471331 -237.459828 78.235727 500.000000
-0.260000 0.260000 0.410000 903.484915 -125.945217 -41.632440 500.000000
-0.108867 0.156261 0.290000 30.226679 -20.747774 132.197289 500.000000
0.260000 0.090000 0.410000 -205.723983 80.664216 -106.850886 500.000000
0.260000 0.260000 0.290000 -75.905160 -34.433007 94.187187 500.000000
0.260000 0.090000 0.410000 -72.728436 105.032350 -105.280177 500.000000
-0.136821 0.260000 0.290000 -15.066816 -23.001702 118.018162 500.000000
0.260000 0.260000 0.410000 -74.180338 -135.403151 -54.874446 500.000000
0.260000 0.260000 0.290000 -76.229427 -32.381929 93.967665 500.000000
0.260000 0.260000 0.410000 -90.272421 -119.807882 -67.909352 500.000000
0.260000 0.260000 0.410000 -26.931143 -19.774141 -96.631284 500.000000
-0.260000 0.090000 0.290000 91.634880 47.061181 12.313273 500.000000
0.193270 0.090000 0.290000 -13.346063 8.907810 54.047442 500.000000
0.260000 0.090000 0.290000 -56.351366 31.960926 57.252463 500.000000
0.260000 0.155703 0.304662 -155.295376 -20.859493 -21.067577 500.000000
-0.260000 0.090000 0.410000 108.296430 39.256267 -33.081868 500.000000
0.260000 0.260000 0.410000 -77.717145 -17.321734 -19.250853 500.000000
-0.230153 0.260000 0.410000 -98.030607 -139.125591 -21.907296 500.000000
-0.260000 0.260000 0.290000 159.447682 -239.067572 62.113892 500.000000
0.260000 0.260000 0.290000 -79.851877 -34.485153 94.187462 500.000000
0.260000 0.090000 0.290000 -143.521432 29.056401 42.011456 500.000000
-0.260000 0.090000 0.410000 101.081126 26.481016 -33.095249 500.000000
-0.260000 0.090000 0.297714 93.424170 42.585511 -22.457244 500.000000
0.260000 0.260000 0.290000 -75.922068 -31.708517 84.245372 500.000000
0.260000 0.090000 0.373478 -21.186271 42.427773 16.695676 500.000000
-0.260000 0.204309 0.290000 34.253419 22.861831 114.918693 500.000000
0.260000 0.090000 0.290000 -248.040998 366.852462 34.461581 500.000000
0.260000 0.260000 0.410000 -91.584752 -121.298927 -49.664865 500.000000
0.260000 0.260000 0.290000 -82.625554 -35.939692 113.674665 500.000000
-0.069924 0.260000 0.410000 38.015239 -556.920435 -50.522400 500.000000
-0.260000 0.260000 0.290000 241.077723 -242.120029 43.117628 500.000000
0.260000 0.090000 0.290000 -54.199230 31.581748 60.651044 500.000000
0.260000 0.090000 0.410000 -30.639328 63.325907 -14.686587 500.000000
-0.260000 0.224821 0.410000 184.613877 26.964221 -135.263421 500.000000
0.260000 0.090000 0.290000 -87.963718 280.387012 33.154330 500.000000
0.260000 0.260000 0.290000 -77.817269 -236.961283 33.198314 500.000000
-0.140749 0.117191 0.410000 -80.149713 -28.561883 -29.395449 500.000000
0.260000 0.260000 0.290000 -82.735160 -31.654552 137.907322 500.000000
0.251199 0.090000 0.290000 102.239706 24.149039 37.039736 500.000000
0.260000 0.090000 0.410000 -75.839484 86.269747 -114.921230 500.000000
0.260000 0.260000 0.290000 -76.011369 -33.882214 93.926938 500.000000
-0.260000 0.260000 0.410000 106.576294 -180.696201 -23.343783 500.000000
0.260000 0.090000 0.410000 -72.251080 86.293164 -113.138227 500.000000
-0.260000 0.090000 0.290000 129.333801 462.088030 55.750014 500.000000
0.260000 0.090000 0.290000 -94.199642 71.395490 28.041570 500.000000
0.260000 0.260000 0.290000 -74.971194 -34.393542 94.187446 500.000000
0.260000 0.260000 0.290000 -76.117334 -34.629400 97.664514 500.000000
-0.260000 0.090000 0.309256 76.906061 49.033500 -20.148703 500.000000
0.260000 0.260000 0.290000 -73.459773 -32.921777 94.379153 500.000000
0.260000 0.090000 0.290000 -87.544526 84.509329 32.906996 500.000000
-0.260000 0.260000 0.410000 37.510346 -41.013775 -12.107796 500.000000
-0.260000 0.090000 0.338080 95.736497 71.427690 -14.384066 500.000000
0.260000 0.090000 0.410000 -225.492289 36.732992 -106.657971 500.000000
0.221148 0.090000 0.290000 96.229546 71.829301 163.493832 500.000000
-0.260000 0.090000 0.410000 760.483057 35.058504 -69.871731 500.000000
-0.260000 0.090000 0.290000 99.795130 75.795013 57.894501 500.000000
-0.260000 0.260000 0.290000 99.128691 -237.617295 96.603268 500.000000
-0.260000 0.090000 0.290000 114.913128 149.917562 56.139578 500.000000
0.260000 0.260000 0.410000 -90.087525 -119.492083 -43.183726 500.000000
0.113849 0.090000 0.358641 74.769733 607.465952 13.728296 500.000000
-0.260000 0.146711 0.290000 193.839225 11.342205 27.630165 500.000000
-0.260000 0.260000 0.365303 407.082325 -35.514421 15.060644 500.000000
-0.239868 0.260000 0.410000 -99.973555 -17.420566 -130.249606 500.000000
0.191650 0.090000 0.410000 67.763504 58.301474 -16.068873 500.000000
0.260000 0.260000 0.290000 -78.172568 -34.445681 94.187461 500.000000
-0.260000 0.090000 0.410000 222.997739 59.801084 -32.089232 500.000000
0.260000 0.260000 0.290000 -113.826310 -320.474286 39.549208 500.000000
0.260000 0.260000 0.410000 -114.236024 -19.653580 -81.271295 500.000000
0.260000 0.090000 0.410000 -69.349393 59.822153 -60.195200 500.000000
-0.260000 0.260000 0.410000 127.851582 -27.833285 -474.598294 500.000000
0.186640 0.090000 0.410000 32.993873 52.377640 -23.223226 500.000000
0.260000 0.260000 0.410000 -77.966397 -78.214283 -1067.435540 500.000000
-0.260000 0.090000 0.290000 140.081145 497.520509 71.849933 500.000000
0.260000 0.260000 0.290000 -48.147821 -73.616005 15.836072 500.000000
0.260000 0.090000 0.290000 -44.660209 427.203067 55.035832 500.000000
0.260000 0.260000 0.290000 -77.644625 -32.871010 91.540696 500.000000
-0.260000 0.260000 0.290000 404.437411 -160.166043 41.070723 500.000000
0.260000 0.090000 0.410000 -58.865874 58.027610 -124.317733 500.000000
-0.260000 0.260000 0.410000 68.965093 -97.838819 -23.119789 500.000000
-0.260000 0.090000 0.290000 101.494726 62.028661 12.622365 500.000000
-0.260000 0.090000 0.290000 100.023517 68.259665 48.246068 500.000000
-0.260000 0.186119 0.410000 31.024786 0.024752 -21.462708 500.000000
-0.260000 0.260000 0.410000 77.820201 -18.686666 -44.470020 500.000000
-0.215899 0.260000 0.410000 -95.179796 -32.611521 -14.500504 500.000000
0.240184 0.260000 0.290000 11.285292 -237.655545 33.800604 500.000000
0.260000 0.260000 0.290000 -208.318846 -248.591071 28.650997 500.000000
0.047818 0.260000 0.290000 6.611812 -260.294820 27.441874 500.000000
0.175069 0.090000 0.372958 87.013799 650.321406 16.591649 500.000000
0.132900 0.090000 0.290000 78.579987 30.747235 442.420402 500.000000
-0.260000 0.090000 0.290000 94.743167 62.752439 23.569862 500.000000
0.260000 0.090000 0.410000 -71.548058 116.893695 -106.273494 500.000000
0.260000 0.260000 0.290000 -119.571190 -35.117205 93.967638 500.000000
0.071430 0.090000 0.298323 2.823312 123.535300 -22.335457 500.000000
-0.260000 0.090000 0.410000 118.545780 20.869863 -33.061176 500.000000
0.260000 0.163356 0.313033 -44.469846 14.671217 -19.393438 500.000000
0.260000 0.260000 0.290000 -81.065547 -34.493207 94.180005 500.000000
0.010866 0.090000 0.290000 -49.826830 42.273512 181.778559 500.000000
0.260000 0.260000 0.410000 -89.437667 -119.810689 -54.995779 500.000000
-0.260000 0.260000 0.410000 125.053742 -54.470634 -22.027891 500.000000
-0.260000 0.260000 0.410000 44.779383 -27.999638 -544.978715 500.000000
-0.260000 0.090000 0.290000 106.342000 152.459184 32.767696 500.000000
0.260000 0.260000 0.410000 -89.723536 -123.215630 -51.440285 500.000000
0.233836 0.090000 0.410000 98.767300 37.305849 -111.504173 500.000000
-0.260000 0.250084 0.410000 28.982838 32.016891 -21.707379 500.000000
0.260000 0.090000 0.290000 -317.613592 213.772858 35.689134 500.000000
0.260000 0.260000 0.410000 -208.597092 -223.123739 -16.739105 500.000000
0.117967 0.169030 0.318315 -6.169578 15.806010 5.663087 500.000000
0.242054 0.090000 0.290000 100.410834 17.236528 37.684356 500.000000
0.260000 0.260000 0.410000 -97.977429 -115.679615 -15.946000 500.000000
-0.260000 0.090000 0.323077 185.586466 143.070539 -17.384563 500.000000
-0.260000 0.090000 0.410000 76.913575 52.124383 -32.939063 500.000000
-0.260000 0.260000 0.410000 84.402010 -24.139298 -111.564055 500.000000
0.214616 0.090000 0.290000 94.923102 22.910161 67.195356 500.000000
0.260000 0.260000 0.290000 -75.782413 -34.596334 94.508900 500.000000
0.260000 0.260000 0.290000 -94.961389 -31.976366 169.028449 500.000000
0.260000 0.090000 0.410000 -80.712980 85.360118 -134.748703 500.000000
0.260000 0.260000 0.410000 -127.850621 -120.184092 -41.636123 500.000000
-0.260000 0.090000 0.410000 45.908455 69.117013 -19.439649 500.000000
-0.260000 0.190716 0.290000 39.721557 20.143278 14.675469 500.000000
0.260000 0.090000 0.290000 -38.546139 55.208508 14.274990 500.000000
0.260000 0.260000 0.290000 -95.908479 -32.826262 93.736639 500.000000
0.260000 0.260000 0.290000 -76.164674 -33.388386 150.177331 500.000000
0.260000 0.090000 0.410000 -76.919034 86.307083 -113.279164 500.000000
0.260000 0.260000 0.410000 -146.148666 -266.656536 -16.639982 500.000000
0.260000 0.260000 0.290000 -79.059822 -240.349669 85.079596 500.000000
-0.260000 0.260000 0.290000 64.893658 -236.934774 58.689506 500.000000
-0.260000 0.260000 0.410000 99.055979 -23.911774 -77.572743 500.000000
0.165196 0.090000 0.410000 85.039112 523.489671 -52.262823 500.000000
-0.260000 0.090000 0.290000 32.739882 40.710941 27.568950 500.000000
0.260000 0.260000 0.290000 -71.416539 -237.117606 29.396407 500.000000
0.041113 0.090000 0.410000 -43.777452 21.314472 -39.403536 500.000000
0.212994 0.090000 0.290000 94.598880 20.190678 39.575160 500.000000
0.260000 0.260000 0.290000 -114.335373 -33.190073 161.377036 500.000000
0.260000 0.260000 0.290000 -77.203224 -34.447204 94.188073 500.000000
0.260000 0.260000 0.290000 -64.682801 -239.521021 20.792147 500.000000
-0.030018 0.090000 0.410000 45.996344 23.776634 -15.401185 500.000000
0.260000 0.260000 0.290000 -106.435380 -32.816264 170.573527 500.000000
0.202137 0.090000 0.410000 25.353206 53.114432 -24.293831 500.000000
0.126941 0.260000 0.410000 7.204776 -22.776877 -262.324407 500.000000
0.034677 0.142551 0.410000 12.953584 -23.489827 -25.650795 500.000000
-0.260000 0.260000 0.410000 60.395968 -23.166405 -78.657505 500.000000
0.260000 0.090000 0.290000 -53.491477 31.896001 85.675397 500.000000
-0.260000 0.120889 0.410000 57.266348 -27.822291 -62.670539 500.000000
0.260000 0.260000 0.410000 -77.015323 -123.506969 -71.459826 500.000000
-0.260000 0.260000 0.290000 69.774527 -244.181547 14.061560 500.000000
0.260000 0.260000 0.410000 -114.755456 -126.587120 -49.322510 500.000000
-0.260000 0.260000 0.290000 787.005114 -46.204822 23.038327 500.000000
0.260000 0.260000 0.290000 -76.185425 -34.399112 94.180020 500.000000
-0.052531 0.260000 0.410000 -62.506292 -17.624991 -129.646201 500.000000
-0.082007 0.090000 0.290000 35.598610 17.669151 214.037993 500.000000
-0.043473 0.090000 0.290000 -45.256102 65.366316 32.898009 500.000000
0.260000 0.260000 0.290000 -13.176789 -237.639035 33.671389 500.000000
-0.260000 0.090000 0.290000 40.053391 214.362452 21.088245 500.000000
0.260000 0.090000 0.290000 -82.213721 88.246113 693.960993 500.000000
-0.260000 0.216519 0.410000 49.008235 25.303791 -85.788728 500.000000
0.260000 0.260000 0.410000 -103.262470 -327.639452 -16.795669 500.000000
0.260000 0.090000 0.290000 -59.749886 250.899232 33.156200 500.000000
-0.260000 0.260000 0.290000 50.193911 -236.960618 35.711814 500.000000
0.260000 0.090000 0.410000 -58.461127 45.858989 -354.897599 500.000000
0.260000 0.090000 0.290000 -83.412405 291.822661 26.012070 500.000000
0.260000 0.260000 0.290000 -18.414111 -24.496807 45.618628 500.000000
0.260000 0.260000 0.410000 -102.407925 -117.673097 -19.656007 500.000000
0.260000 0.260000 0.290000 -79.383168 -34.450956 94.333653 500.000000
0.260000 0.090000 0.410000 -88.361065 114.307044 -322.000048 500.000000
-0.260000 0.232309 0.290000 27.324529 28.461731 18.316178 500.000000
0.260000 0.260000 0.290000 -75.476270 -36.227212 95.290688 500.000000
-0.260000 0.260000 0.290000 49.919098 -236.940597 33.660492 500.000000
-0.260000 0.196704 0.290000 47.708687 21.340798 47.621019 500.000000
-0.110332 0.260000 0.290000 -8.162813 -17.098647 21.453135 500.000000
0.260000 0.090000 0.290000 -294.694100 81.835056 14.535074 500.000000
-0.170270 0.260000 0.410000 -86.053937 -18.770594 -62.011634 500.000000
0.260000 0.260000 0.410000 -171.274918 -17.419406 -58.771850 500.000000
0.260000 0.260000 0.290000 -97.405920 -35.027166 96.581117 500.000000
