ply
format ascii 1.0
element vertex 240
property float x
property float y
property float z
property float vx
property float vy
property float vz
property float density
end_header
-0.260000 0.260000 0.290000 74.436808 -116.924607 361.034576 500.000000
-0.260000 0.260000 0.290000 53.167958 -42.587646 72.444982 500.000000
-0.260000 0.260000 0.410000 145.381653 -127.569810 -192.172936 500.000000
0.260000 0.246589 0.290000 -42.503313 31.317736 24.675760 500.000000
-0.260000 0.260000 0.410000 142.074116 -109.640501 -189.924384 500.000000
-0.260000 0.090000 0.410000 89.873262 18.081477 -17.909416 500.000000
0.158297 0.260000 0.410000 83.659300 -136.837357 -69.958864 500.000000
0.260000 0.260000 0.410000 -206.237461 -71.783167 -36.930460 500.000000
0.121323 0.174847 0.318458 36.853744 -1.556236 -18.308412 500.000000
-0.260000 0.090000 0.410000 116.442575 180.798038 -18.807968 500.000000
-0.106196 0.260000 0.290000 2.558743 -36.351301 11.557885 500.000000
0.260000 0.260000 0.368822 -226.031979 -197.074556 15.764317 500.000000
0.260000 0.090000 0.410000 -222.612584 153.404573 -77.005417 500.000000
0.035941 0.090000 0.410000 -44.811756 18.171263 -19.879786 500.000000
-0.260000 0.090000 0.410000 106.961257 59.095367 -71.417086 500.000000
-0.260000 0.260000 0.290000 72.645025 -114.092455 165.937745 500.000000
-0.091937 0.260000 0.290000 -19.757031 -13.184516 96.920145 500.000000
-0.132159 0.260000 0.290000 -78.431720 -60.117889 13.559262 500.000000
0.161445 0.090000 0.410000 84.289065 16.198853 -10.950145 500.000000
0.260000 0.090000 0.410000 -90.470464 59.429939 -73.820215 500.000000
0.260000 0.090000 0.410000 -109.850084 59.246650 -72.839729 500.000000
-0.260000 0.090000 0.290000 257.378917 45.174845 44.654445 500.000000
0.260000 0.160956 0.290000 -48.289783 -7.848016 24.320793 500.000000
-0.260000 0.260000 0.410000 246.284131 -83.506160 -243.994465 500.000000
0.260000 0.090000 0.290000 -165.175181 25.655965 33.126375 500.000000
0.260000 0.260000 0.290000 -91.726797 -18.942106 76.704335 500.000000
-0.092784 0.090000 0.410000 -70.556794 33.794384 -26.443714 500.000000
0.119492 0.260000 0.410000 75.898392 -22.829280 -99.242182 500.000000
0.190930 0.090000 0.290000 22.454432 25.489329 42.118857 500.000000
0.238862 0.090000 0.290000 16.159883 25.656205 33.135738 500.000000
-0.241806 0.260000 0.290000 -100.361164 -114.983863 246.862141 500.000000
-0.122563 0.090000 0.290000 27.487386 38.669786 125.003844 500.000000
-0.260000 0.090000 0.410000 59.633410 24.030538 -17.913523 500.000000
0.260000 0.090000 0.410000 -546.030098 31.810124 -17.596765 500.000000
0.073176 0.090000 0.290000 -10.842271 8.789188 6.105326 500.000000
0.260000 0.203420 0.290000 -78.704448 22.683929 23.894409 500.000000
0.260000 0.111733 0.290000 -51.011607 -29.653310 73.476494 500.000000
-0.260000 0.090000 0.410000 64.218757 19.936132 -18.823162 500.000000
-0.260000 0.090000 0.410000 55.346939 89.581239 -38.922632 500.000000
0.203233 0.260000 0.290000 92.646671 -211.639305 65.738070 500.000000
0.260000 0.090000 0.410000 -409.161833 60.260345 -88.076822 500.000000
-0.260000 0.090000 0.410000 99.420318 17.413884 -19.111036 500.000000
-0.081690 0.260000 0.290000 -68.337950 -26.588112 85.204145 500.000000
-0.260000 0.260000 0.290000 79.316144 -41.899026 44.657665 500.000000
-0.035734 0.260000 0.410000 44.853116 -27.318599 -32.506899 500.000000
-0.260000 0.090000 0.410000 64.532177 29.862039 -18.277900 500.000000
0.260000 0.090000 0.410000 -103.069264 64.577463 -86.013730 500.000000
-0.260000 0.090000 0.410000 20.474199 28.258730 -38.860541 500.000000
0.011675 0.260000 0.410000 6.107327 -80.776878 -21.402420 500.000000
0.260000 0.260000 0.290000 -88.771048 -43.880000 82.079305 500.000000
-0.098642 0.090000 0.290000 -41.393224 57.345267 20.825835 500.000000
-0.260000 0.090000 0.410000 60.405055 19.823343 -19.584371 500.000000
-0.260000 0.260000 0.410000 149.860872 -163.014045 -194.184680 500.000000
-0.260000 0.260000 0.290000 55.861705 -105.168839 431.433205 500.000000
-0.260000 0.260000 0.410000 34.649235 -25.527959 -22.078144 500.000000
-0.260000 0.260000 0.410000 103.903757 -35.087273 -28.929611 500.000000
0.260000 0.246884 0.410000 -474.491002 31.376877 -23.298067 500.000000
-0.260000 0.090000 0.410000 116.447977 94.682267 -19.127395 500.000000
-0.260000 0.260000 0.410000 150.243180 -109.110793 -190.969411 500.000000
-0.260000 0.090000 0.410000 71.447661 17.195394 -22.252840 500.000000
-0.009747 0.090000 0.290000 -38.808271 26.865536 33.138006 500.000000
0.116166 0.147298 0.290000 -28.766786 -22.540332 405.625553 500.000000
0.260000 0.090000 0.290000 -73.497336 113.778695 83.040662 500.000000
0.229574 0.260000 0.410000 97.914820 -138.141847 -72.389517 500.000000
-0.260000 0.260000 0.290000 66.335831 -114.185479 422.037125 500.000000
0.260000 0.260000 0.410000 -215.098614 -162.819776 -72.395999 500.000000
0.260000 0.090000 0.410000 -94.983951 59.768139 -75.112967 500.000000
0.260000 0.090000 0.410000 -151.501412 52.541656 -126.197545 500.000000
0.260000 0.090000 0.410000 -63.611865 60.706800 -87.911180 500.000000
0.260000 0.090000 0.290000 -23.827205 12.919436 52.675638 500.000000
0.137623 0.260000 0.290000 32.339169 -16.511656 19.428990 500.000000
-0.079692 0.090000 0.410000 -67.938371 33.108015 -19.396647 500.000000
0.038920 0.260000 0.303266 15.647997 -11.659617 -21.346796 500.000000
0.260000 0.090000 0.290000 -32.551345 30.990138 35.022412 500.000000
-0.260000 0.090000 0.290000 57.146231 27.226290 106.146317 500.000000
-0.260000 0.090000 0.410000 59.844555 19.884570 -18.735177 500.000000
-0.260000 0.090000 0.410000 140.578318 300.721884 -63.771935 500.000000
-0.260000 0.090000 0.410000 90.864291 80.789624 -28.241741 500.000000
0.260000 0.090000 0.290000 -87.151832 25.672380 33.156447 500.000000
0.260000 0.260000 0.410000 -134.970148 -184.219784 -71.320660 500.000000
0.260000 0.090000 0.410000 -136.654728 110.610225 -77.016416 500.000000
-0.260000 0.260000 0.290000 56.412339 -124.368890 38.223910 500.000000
-0.260000 0.090000 0.410000 62.359422 19.262586 -19.960401 500.000000
-0.260000 0.260000 0.410000 151.184515 -109.605937 -190.483156 500.000000
-0.260000 0.090000 0.410000 61.812947 21.599195 -20.018797 500.000000
-0.260000 0.090000 0.410000 69.186674 17.481789 -19.978497 500.000000
-0.074270 0.090000 0.410000 -66.853918 33.550653 -166.037503 500.000000
-0.260000 0.090000 0.290000 252.780304 72.310105 63.478628 500.000000
-0.260000 0.260000 0.290000 55.813613 -112.761289 394.826945 500.000000
0.190126 0.090000 0.410000 90.025263 62.359168 -104.393963 500.000000
-0.260000 0.090000 0.410000 115.999740 140.362622 -26.474734 500.000000
0.241869 0.260000 0.410000 100.373883 -145.504834 -69.432839 500.000000
-0.260000 0.260000 0.290000 206.738783 -70.139752 14.858045 500.000000
-0.260000 0.090000 0.290000 38.845976 39.462752 38.788093 500.000000
0.260000 0.090000 0.290000 -53.758002 116.480805 59.674539 500.000000
-0.255017 0.090000 0.410000 -103.003475 18.355622 -17.913763 500.000000
-0.147032 0.090000 0.290000 22.593566 90.195768 61.896086 500.000000
-0.260000 0.090000 0.410000 125.350523 17.979938 -21.976161 500.000000
0.260000 0.260000 0.410000 -294.633718 -55.451090 -147.084231 500.000000
0.029818 0.090000 0.410000 -46.036469 37.458068 -21.037557 500.000000
-0.260000 0.104742 0.290000 40.032954 -31.051670 61.171420 500.000000
0.260000 0.090000 0.290000 -60.960228 67.447128 268.294904 500.000000
0.260000 0.090000 0.410000 -37.919161 101.362592 -35.575217 500.000000
-0.260000 0.260000 0.410000 147.898948 -143.785381 -221.263292 500.000000
-0.260000 0.244476 0.290000 93.534161 30.895128 46.322525 500.000000
0.260000 0.090000 0.410000 -324.697945 59.312692 -93.896969 500.000000
0.108605 0.090000 0.290000 -3.178141 24.874403 33.525121 500.000000
0.260000 0.260000 0.410000 -141.312321 -150.178414 -72.302292 500.000000
-0.260000 0.090000 0.410000 101.135497 98.104682 -60.562858 500.000000
-0.064311 0.260000 0.309028 -64.862284 -89.152231 -20.194435 500.000000
0.210970 0.260000 0.290000 94.194002 -169.261392 43.848719 500.000000
0.260000 0.207880 0.290000 -49.757951 23.575988 39.502974 500.000000
-0.234401 0.159529 0.407800 -6.670370 -20.094236 6.783568 500.000000
-0.195515 0.260000 0.290000 -91.102993 -40.388364 13.495672 500.000000
-0.260000 0.090000 0.290000 49.337279 25.617114 33.513416 500.000000
-0.260000 0.090000 0.410000 138.374021 63.607335 -41.040906 500.000000
0.232532 0.090000 0.290000 53.024976 17.871078 18.384351 500.000000
-0.085452 0.246296 0.410000 34.909538 31.259111 -36.065444 500.000000
-0.260000 0.184596 0.290000 37.259013 18.919297 40.761895 500.000000
-0.173363 0.260000 0.290000 -86.672609 -160.842496 87.084371 500.000000
0.260000 0.260000 0.410000 -120.656886 -119.380381 -37.664566 500.000000
0.260000 0.260000 0.410000 -206.420069 -160.907047 -72.307827 500.000000
-0.206130 0.099942 0.410000 -93.226079 -32.011529 -19.526995 500.000000
-0.260000 0.260000 0.410000 151.678109 -110.057730 -207.984696 500.000000
0.260000 0.090000 0.290000 -57.151811 105.765410 60.001189 500.000000
0.260000 0.090000 0.410000 -84.321967 85.005416 -74.378615 500.000000
0.213105 0.260000 0.410000 10.342462 -45.619700 -12.792620 500.000000
0.255981 0.090000 0.410000 103.196220 61.465577 -252.569921 500.000000
-0.260000 0.090000 0.410000 68.862683 151.880938 -19.677804 500.000000
-0.053870 0.260000 0.290000 -62.773980 -22.697951 25.466911 500.000000
-0.260000 0.260000 0.410000 43.393758 -135.872492 -22.711607 500.000000
0.260000 0.090000 0.410000 -88.672407 59.486175 -73.761263 500.000000
0.260000 0.101359 0.290000 -46.894250 -31.728255 57.271516 500.000000
0.260000 0.090000 0.290000 -43.742861 27.233856 49.040976 500.000000
0.260000 0.163231 0.410000 -142.215633 14.646213 -36.538498 500.000000
-0.230199 0.178200 0.410000 -98.039897 17.640086 -35.287905 500.000000
-0.260000 0.193697 0.410000 110.557772 20.739339 -88.649184 500.000000
0.113825 0.090000 0.290000 -11.209460 28.885324 25.363799 500.000000
0.075272 0.260000 0.410000 67.054487 -135.167613 -79.219898 500.000000
-0.064217 0.260000 0.290000 -0.841772 -9.208451 8.210672 500.000000
0.260000 0.090000 0.410000 -72.222702 346.432665 -76.788099 500.000000
0.201905 0.090000 0.410000 92.380915 62.943479 -63.296351 500.000000
0.260000 0.090000 0.410000 -96.323296 59.676927 -75.119055 500.000000
0.260000 0.110399 0.410000 -47.448848 -29.920206 -21.551050 500.000000
-0.260000 0.212653 0.290000 149.663251 24.530530 27.667557 500.000000
-0.260000 0.260000 0.290000 93.602942 -18.917688 58.030257 500.000000
-0.260000 0.090000 0.410000 56.680357 30.396494 -21.771175 500.000000
0.259278 0.090000 0.290000 103.855504 46.065591 1173.348817 500.000000
-0.103593 0.260000 0.290000 -72.718674 -56.376003 19.623573 500.000000
0.260000 0.260000 0.290000 -65.122037 -28.003408 32.970890 500.000000
0.260000 0.156482 0.290000 -18.055407 -20.703632 8.563835 500.000000
-0.116296 0.260000 0.290000 -75.259231 -17.858645 27.755387 500.000000
0.260000 0.260000 0.410000 -84.276724 -1188.305353 -96.503942 500.000000
0.260000 0.090000 0.410000 -72.327854 192.787503 -79.351558 500.000000
-0.260000 0.260000 0.410000 141.349970 -109.598114 -189.299424 500.000000
-0.260000 0.090000 0.290000 111.464389 43.022785 48.727835 500.000000
0.260000 0.260000 0.410000 -55.742262 -32.216174 -36.838747 500.000000
-0.134271 0.097930 0.410000 -78.854167 -32.413989 -19.761272 500.000000
0.260000 0.090000 0.290000 -96.555130 110.195932 74.265530 500.000000
-0.260000 0.090000 0.290000 35.161310 35.066689 55.319833 500.000000
-0.260000 0.260000 0.410000 143.259420 -109.585625 -190.405459 500.000000
0.048255 0.260000 0.410000 61.650975 -136.665938 -110.269268 500.000000
0.231517 0.260000 0.410000 40.652157 -133.207657 -189.257330 500.000000
0.144744 0.090000 0.290000 60.733507 46.283086 19.628109 500.000000
0.260000 0.090000 0.290000 -52.875354 44.617480 54.933597 500.000000
-0.260000 0.090000 0.410000 95.729950 140.875562 -49.895186 500.000000
-0.260000 0.260000 0.410000 25.123973 -140.263560 -55.910568 500.000000
-0.260000 0.260000 0.410000 148.200554 -109.299743 -192.230014 500.000000
0.053597 0.090000 0.410000 38.126210 236.527305 -29.563177 500.000000
-0.260000 0.260000 0.410000 132.066795 -110.188825 -22.623635 500.000000
0.260000 0.260000 0.290000 -39.794319 -92.687343 205.313206 500.000000
-0.260000 0.090000 0.410000 62.787224 19.941012 -18.868734 500.000000
-0.260000 0.090000 0.410000 60.570622 20.910181 -19.636503 500.000000
0.260000 0.260000 0.290000 -191.855286 -122.819143 219.145042 500.000000
0.260000 0.260000 0.410000 -578.174674 -23.193630 -19.227446 500.000000
0.260000 0.251211 0.290000 -16.743317 24.944494 43.022024 500.000000
0.031467 0.260000 0.410000 58.293353 -42.138383 -146.955204 500.000000
0.260000 0.090000 0.410000 -72.139006 73.824050 -77.083786 500.000000
-0.260000 0.090000 0.410000 94.845528 223.697880 -18.784618 500.000000
-0.056761 0.193643 0.290000 16.982455 20.728629 46.553635 500.000000
-0.260000 0.090000 0.410000 92.855641 152.063124 -28.248591 500.000000
0.260000 0.260000 0.410000 -168.702923 -25.489320 -32.902943 500.000000
0.260000 0.143687 0.290000 -22.676368 -23.262602 13.560867 500.000000
-0.015392 0.260000 0.315631 -55.078454 -20.640177 -18.873712 500.000000
-0.260000 0.090000 0.410000 84.967618 119.065688 -39.146734 500.000000
0.260000 0.260000 0.290000 -240.440243 -64.833056 118.205870 500.000000
-0.260000 0.090000 0.410000 1133.787941 233.980913 -52.785421 500.000000
0.189965 0.260000 0.328734 89.992979 -36.591758 -4.246511 500.000000
-0.260000 0.090000 0.410000 24.049705 270.525498 -20.026270 500.000000
0.099013 0.090000 0.290000 -32.197385 64.082374 42.193385 500.000000
0.048445 0.090000 0.406524 -42.310907 37.713061 23.304846 500.000000
0.260000 0.090000 0.410000 -59.121434 75.928598 -196.760873 500.000000
0.260000 0.090000 0.410000 -95.848075 58.712232 -76.947343 500.000000
-0.140210 0.113872 0.410000 -80.042001 -29.225601 -19.063859 500.000000
0.105461 0.090000 0.290000 45.200187 26.186375 60.017549 500.000000
-0.260000 0.189710 0.290000 106.947266 19.941967 38.533620 500.000000
0.260000 0.090000 0.290000 -58.247999 107.588048 26.061536 500.000000
-0.260000 0.260000 0.410000 140.763755 -109.601504 -191.293233 500.000000
-0.260000 0.090000 0.410000 151.189320 264.263487 -18.692853 500.000000
0.260000 0.090000 0.410000 -83.825049 60.774868 -73.802188 500.000000
-0.084398 0.260000 0.290000 -68.879636 -73.032924 63.447019 500.000000
-0.260000 0.090000 0.410000 73.523617 137.573385 -18.821590 500.000000
-0.260000 0.090000 0.290000 94.029672 25.662901 33.130226 500.000000
-0.260000 0.241424 0.290000 98.374442 30.284807 18.763987 500.000000
0.253572 0.260000 0.290000 102.714426 -297.462167 29.927821 500.000000
-0.260000 0.090000 0.410000 60.235481 19.990332 -18.836016 500.000000
-0.260000 0.090000 0.410000 130.504222 306.443718 -18.653148 500.000000
0.260000 0.090000 0.290000 -70.214369 46.672246 60.569013 500.000000
0.260000 0.090000 0.410000 -114.846603 240.272691 -77.005690 500.000000
0.109354 0.090000 0.290000 73.870810 81.495787 63.535658 500.000000
0.260000 0.090000 0.410000 -184.941488 303.209575 -75.252249 500.000000
0.194522 0.260000 0.290000 17.186932 -32.950352 18.975036 500.000000
-0.260000 0.260000 0.410000 155.612166 -110.171277 -192.011529 500.000000
-0.260000 0.090000 0.410000 189.794937 17.640097 -22.104573 500.000000
-0.260000 0.260000 0.290000 57.596443 -117.777150 276.942900 500.000000
-0.260000 0.090000 0.410000 61.240090 57.131216 -19.028299 500.000000
0.260000 0.090000 0.410000 -87.459997 61.646168 -73.720934 500.000000
-0.260000 0.260000 0.290000 52.927013 -119.100214 208.380956 500.000000
0.260000 0.090000 0.290000 -149.537451 85.307978 81.600184 500.000000
0.147498 0.260000 0.410000 81.499565 -134.782167 -72.352667 500.000000
-0.260000 0.233916 0.290000 82.582869 28.783145 38.532997 500.000000
0.039748 0.260000 0.410000 59.949571 -135.106653 -72.305600 500.000000
-0.260000 0.260000 0.410000 146.299304 -110.144623 -189.311236 500.000000
0.260000 0.150750 0.293377 -109.439990 -4.842574 -23.324689 500.000000
0.260000 0.090000 0.290000 -43.447157 25.708920 33.182270 500.000000
0.099108 0.115918 0.410000 -32.178482 -28.816332 -48.952402 500.000000
0.251397 0.090000 0.410000 102.279497 47.392701 -98.535307 500.000000
0.260000 0.090000 0.290000 -93.369135 116.366168 140.246003 500.000000
-0.260000 0.260000 0.290000 66.723940 -113.950795 318.601918 500.000000
-0.013072 0.090000 0.410000 -54.614422 32.992921 -13.345865 500.000000
0.260000 0.090000 0.410000 -83.892959 59.119533 -73.305884 500.000000
0.260000 0.090000 0.290000 -52.693631 105.913427 59.431353 500.000000
0.260000 0.260000 0.378603 -69.319166 -64.406204 -6.279470 500.000000
0.260000 0.090000 0.410000 -200.830252 196.882826 -77.003882 500.000000
-0.260000 0.260000 0.290000 44.157735 -41.055801 91.694556 500.000000
-0.260000 0.090000 0.410000 72.034730 151.533770 -72.254742 500.000000
-0.106745 0.090000 0.410000 -24.697796 20.377877 -16.092965 500.000000
0.260000 0.090000 0.410000 -97.408589 50.794316 -78.974002 500.000000
0.090049 0.260000 0.290000 70.009721 -40.060619 300.573646 500.000000
-0.018436 0.090000 0.410000 -55.687231 34.668059 -19.111466 500.000000
