ply
format ascii 1.0
element vertex 240
property float x
property float y
property float z
property float vx
property float vy
property float vz
property float density
end_header
-0.109717 0.260000 0.290000 -25.862879 -80.883519 23.608081 500.000000
-0.260000 0.260000 0.410000 93.037675 -62.091473 -80.092045 500.000000
0.260000 0.191199 0.290000 -99.205384 -13.760283 17.836949 500.000000
0.215091 0.090000 0.290000 26.646861 22.451220 21.517790 500.000000
0.218620 0.260000 0.410000 95.724038 -124.282172 -25.137713 500.000000
-0.156030 0.260000 0.410000 -83.206053 -58.411209 -78.821272 500.000000
0.195139 0.090000 0.410000 91.027757 91.039708 -66.547584 500.000000
0.223904 0.090000 0.290000 96.780783 66.699592 21.809223 500.000000
0.260000 0.260000 0.344271 -96.889287 -69.356044 -13.145734 500.000000
-0.260000 0.090000 0.410000 65.602939 26.284751 -18.050408 500.000000
-0.260000 0.260000 0.290000 66.777225 -189.734279 29.808892 500.000000
-0.103695 0.260000 0.290000 -72.738977 -273.160933 21.881425 500.000000
-0.080982 0.090000 0.290000 -15.370009 12.114899 13.525055 500.000000
0.260000 0.213019 0.410000 -300.406025 -9.396236 -27.239378 500.000000
0.260000 0.090000 0.290000 -62.742996 130.678782 16.046560 500.000000
0.260000 0.090000 0.410000 -102.310236 40.344877 -37.257948 500.000000
0.260000 0.090000 0.290000 -54.435031 70.245619 21.025650 500.000000
-0.260000 0.090000 0.410000 65.636722 26.109257 -18.059734 500.000000
0.260000 0.260000 0.342719 -178.419404 -70.559469 -13.456267 500.000000
0.260000 0.260000 0.290000 -64.448677 -368.750641 19.640853 500.000000
-0.260000 0.090000 0.410000 202.606052 32.204216 -20.696334 500.000000
-0.260000 0.260000 0.410000 33.032820 -99.252913 -26.583841 500.000000
0.100290 0.090000 0.410000 72.058044 163.362387 -74.602375 500.000000
0.106400 0.260000 0.410000 26.180029 -86.852577 -26.598831 500.000000
0.260000 0.090000 0.410000 -199.156005 123.796883 -96.598321 500.000000
0.260000 0.090000 0.410000 -44.366775 22.742774 -58.653150 500.000000
-0.260000 0.090000 0.410000 38.479831 108.616642 -30.240793 500.000000
0.260000 0.090000 0.410000 -116.166576 45.671503 -25.590776 500.000000
-0.039081 0.260000 0.410000 44.183802 -235.908607 -67.475563 500.000000
-0.260000 0.260000 0.410000 154.397869 -69.506989 -26.808315 500.000000
-0.251267 0.090000 0.290000 -102.253491 236.475134 115.597777 500.000000
-0.211488 0.260000 0.410000 -94.297643 -63.502198 -78.367923 500.000000
-0.260000 0.260000 0.290000 19.867672 -32.917662 109.549658 500.000000
-0.260000 0.090000 0.410000 158.566590 116.219202 -12.059212 500.000000
0.260000 0.090000 0.290000 -55.935828 73.138551 14.529474 500.000000
-0.103117 0.090000 0.290000 -72.623418 140.554851 38.403294 500.000000
-0.260000 0.260000 0.290000 112.922173 -85.196417 30.379569 500.000000
0.260000 0.090000 0.410000 -205.051485 137.434802 -69.718059 500.000000
-0.260000 0.090000 0.320498 109.721045 41.133188 -17.900469 500.000000
-0.260000 0.090000 0.410000 66.186712 27.100326 -17.927187 500.000000
-0.129374 0.090000 0.290000 -77.874797 159.600938 27.967242 500.000000
-0.260000 0.090000 0.410000 64.783760 26.322759 -18.008128 500.000000
0.260000 0.090000 0.290000 -52.014641 76.309926 16.798858 500.000000
-0.260000 0.260000 0.410000 45.092248 -116.838784 -25.514665 500.000000
0.260000 0.260000 0.290000 -64.279768 -64.927237 12.548048 500.000000
-0.195095 0.183811 0.356127 -6.759190 -15.237835 -10.774638 500.000000
0.260000 0.090000 0.410000 -55.768114 131.632711 -14.266113 500.000000
-0.115081 0.090000 0.290000 -48.270098 29.104948 60.342099 500.000000
-0.009114 0.260000 0.290000 -53.822777 -89.092217 127.613772 500.000000
-0.260000 0.260000 0.410000 50.510459 -80.960311 -46.774387 500.000000
-0.260000 0.090000 0.410000 75.286196 129.321926 -17.840003 500.000000
-0.260000 0.260000 0.290000 112.613873 -85.458473 25.520605 500.000000
0.260000 0.260000 0.328831 -290.166676 -61.931707 -16.233829 500.000000
-0.260000 0.090000 0.303711 220.694415 24.393657 -21.257785 500.000000
0.260000 0.260000 0.410000 -218.805713 -41.723464 -43.514596 500.000000
-0.167102 0.260000 0.290000 -85.420488 -122.567156 199.452872 500.000000
-0.260000 0.090000 0.410000 66.179322 25.195658 -19.744018 500.000000
-0.218966 0.090000 0.410000 -12.060225 107.191799 -29.002465 500.000000
-0.131024 0.260000 0.410000 -78.204730 -60.091324 -87.197050 500.000000
-0.260000 0.090000 0.410000 68.136659 104.766042 -16.460755 500.000000
-0.260000 0.090000 0.290916 116.014438 202.851101 -23.816707 500.000000
-0.035106 0.260000 0.290000 -59.021114 -118.618453 27.837168 500.000000
0.175359 0.260000 0.290000 11.096516 -40.340918 36.561173 500.000000
-0.260000 0.260000 0.290000 118.453192 -87.183679 27.907716 500.000000
-0.260000 0.248248 0.290000 65.217656 31.649609 34.875286 500.000000
-0.172887 0.260000 0.410000 -86.577393 -64.787973 -217.327837 500.000000
0.252970 0.090000 0.290000 102.594053 73.173285 16.084899 500.000000
-0.056469 0.090000 0.290000 40.706232 21.484596 152.702544 500.000000
0.117195 0.260000 0.410000 75.438998 -374.549302 -65.967526 500.000000
0.260000 0.090000 0.290000 -79.645124 23.732599 25.143321 500.000000
0.260000 0.090000 0.361323 -16.720971 32.523742 14.264693 500.000000
-0.192687 0.090000 0.410000 -45.191855 31.755883 -94.499532 500.000000
0.028242 0.090000 0.410000 16.890746 109.744530 -14.213882 500.000000
-0.260000 0.090000 0.290000 66.153191 27.369587 21.597662 500.000000
0.082998 0.090000 0.410000 68.599613 24.981329 -76.173958 500.000000
-0.260000 0.090000 0.325345 110.434258 323.282779 -16.931033 500.000000
0.081840 0.260000 0.290000 -35.631924 -84.280475 27.046136 500.000000
-0.260000 0.090000 0.290000 41.614816 29.498513 29.961641 500.000000
0.260000 0.090000 0.290000 -57.952804 65.746355 16.058173 500.000000
-0.053578 0.260000 0.410000 -62.715598 -74.182832 -81.026623 500.000000
-0.260000 0.090000 0.410000 75.923797 47.088509 -17.591630 500.000000
0.260000 0.090000 0.290000 -89.018089 17.896691 13.111051 500.000000
0.260000 0.260000 0.290000 -151.427966 -157.705486 35.059779 500.000000
0.260000 0.090000 0.290000 -59.091454 20.445841 21.738881 500.000000
-0.260000 0.090000 0.410000 63.535743 26.435365 -17.157944 500.000000
0.260000 0.090000 0.290000 -52.579563 32.305988 19.978169 500.000000
-0.260000 0.260000 0.410000 107.230251 -93.987458 -23.810607 500.000000
0.225687 0.260000 0.290000 -6.862657 -81.848504 29.862738 500.000000
0.249235 0.260000 0.343721 101.846980 -84.439980 -13.255725 500.000000
0.260000 0.090000 0.410000 -88.916681 130.046357 -27.869085 500.000000
0.198717 0.260000 0.290000 -12.256690 -75.034060 138.448241 500.000000
0.256281 0.090000 0.290000 32.708093 19.918747 21.532066 500.000000
-0.260000 0.090000 0.410000 66.351915 132.236751 -37.480024 500.000000
0.025347 0.260000 0.410000 57.069480 -182.708575 -19.045923 500.000000
-0.260000 0.260000 0.410000 38.797583 -38.566339 -29.260638 500.000000
-0.007479 0.260000 0.410000 -53.495810 -42.890196 -388.895874 500.000000
-0.260000 0.090000 0.410000 64.164924 25.154112 -16.898704 500.000000
0.260000 0.090000 0.410000 -425.316425 24.686769 -13.738755 500.000000
0.260000 0.090000 0.335540 -240.736381 266.265234 -14.891939 500.000000
0.260000 0.090000 0.410000 -21.764901 44.578448 -13.594405 500.000000
-0.003930 0.260000 0.410000 -52.785985 -314.737385 -36.646622 500.000000
0.260000 0.260000 0.315820 -76.386724 -106.589258 -18.835993 500.000000
-0.260000 0.090000 0.410000 70.942969 122.579057 -29.384663 500.000000
0.260000 0.260000 0.290000 -151.981795 -48.439738 44.227469 500.000000
-0.260000 0.090000 0.290000 118.960889 6.347080 15.611312 500.000000
-0.004072 0.260000 0.290000 -52.814345 -93.882017 24.338886 500.000000
0.099907 0.090000 0.290000 71.981487 149.213033 17.902296 500.000000
-0.260000 0.260000 0.290000 124.503886 -216.655814 22.909861 500.000000
-0.260000 0.090000 0.374466 63.355541 23.867135 16.893169 500.000000
-0.233752 0.260000 0.290000 -98.750454 -133.571419 25.344858 500.000000
-0.260000 0.090000 0.410000 55.658098 138.718017 -200.629042 500.000000
-0.229719 0.260000 0.290000 -97.943815 -118.952661 24.475529 500.000000
-0.260000 0.090000 0.299703 133.824915 96.502139 -22.059328 500.000000
0.260000 0.159034 0.290000 -29.825589 -20.193166 39.452449 500.000000
0.260000 0.260000 0.343893 -103.728777 -69.781286 -13.221303 500.000000
-0.260000 0.090000 0.325464 109.056524 409.960103 -16.907261 500.000000
0.222500 0.260000 0.410000 96.499989 -87.953836 -23.439574 500.000000
0.260000 0.260000 0.333516 -344.361912 -77.482979 -15.296882 500.000000
-0.260000 0.090000 0.325297 112.811343 236.173826 -16.940611 500.000000
-0.260000 0.090000 0.290000 340.055139 158.039792 45.634764 500.000000
0.074192 0.260000 0.410000 -18.872786 -89.590715 -104.185834 500.000000
-0.260000 0.260000 0.290000 99.790262 -81.300013 27.921567 500.000000
0.260000 0.090000 0.410000 -44.552329 144.499930 -27.733889 500.000000
0.212784 0.260000 0.410000 94.556802 -78.207738 -19.299701 500.000000
0.260000 0.260000 0.290000 -136.969179 -294.605234 18.023283 500.000000
-0.260000 0.090000 0.410000 65.643790 108.222247 -29.390526 500.000000
0.184915 0.090000 0.410000 88.982930 181.413619 -90.441557 500.000000
0.200806 0.260000 0.343641 92.161103 -67.408391 -13.271828 500.000000
-0.084637 0.260000 0.410000 22.254349 -169.370148 -66.674638 500.000000
0.260000 0.260000 0.410000 -53.307018 -63.702591 -78.935293 500.000000
-0.260000 0.090000 0.410000 62.499436 31.997281 -19.174956 500.000000
0.260000 0.090000 0.290000 -121.353062 74.243981 227.671481 500.000000
-0.223094 0.260000 0.290000 -96.618841 -126.656965 181.622987 500.000000
0.260000 0.090000 0.290000 -60.246734 148.651031 16.303661 500.000000
0.260000 0.260000 0.343742 -53.419517 -85.238203 -13.251606 500.000000
-0.260000 0.260000 0.290000 22.911330 -55.578883 12.754318 500.000000
-0.260000 0.090000 0.410000 125.710316 111.215180 -107.616316 500.000000
-0.041040 0.090000 0.410000 43.791901 87.282052 -66.624687 500.000000
0.260000 0.090000 0.340116 -187.296764 477.233021 -13.976762 500.000000
-0.260000 0.260000 0.410000 40.119604 -152.361778 -36.624012 500.000000
0.053784 0.090000 0.410000 62.756847 88.879688 -71.382932 500.000000
0.260000 0.090000 0.410000 -82.683400 190.186958 -74.461804 500.000000
-0.260000 0.090000 0.325232 115.137748 149.301078 -16.953575 500.000000
-0.197171 0.260000 0.308697 -12.849874 -11.437664 -20.260630 500.000000
-0.260000 0.090000 0.325017 116.945527 63.368481 -16.996681 500.000000
0.231054 0.090000 0.290000 98.210773 67.100715 15.227712 500.000000
-0.147763 0.260000 0.290000 -9.905819 -75.426229 163.974419 500.000000
-0.260000 0.260000 0.290000 72.984826 -123.944369 27.102008 500.000000
0.094995 0.090000 0.410000 -33.001095 197.234495 -25.870592 500.000000
0.116200 0.260000 0.317703 32.455231 -22.622770 -18.459456 500.000000
-0.260000 0.090000 0.410000 73.702240 87.729385 -21.045264 500.000000
0.198461 0.090000 0.290000 91.692135 65.971788 14.835885 500.000000
-0.260000 0.260000 0.410000 40.749433 -85.246496 -23.332255 500.000000
0.260000 0.260000 0.290000 -86.240713 -67.477368 23.728188 500.000000
0.260000 0.260000 0.342677 -62.047809 -73.419098 -13.464651 500.000000
0.260000 0.260000 0.338678 -152.647528 -72.102371 -14.264404 500.000000
-0.243380 0.260000 0.290000 -100.675914 -145.533262 24.069312 500.000000
-0.154367 0.090000 0.410000 -27.688444 134.582816 -27.716688 500.000000
-0.260000 0.260000 0.410000 76.466046 -66.244065 -18.376002 500.000000
0.260000 0.260000 0.410000 -54.727476 -65.553445 -14.938338 500.000000
-0.260000 0.260000 0.290000 14.222470 -28.110859 59.654095 500.000000
0.134729 0.090000 0.290000 32.498855 17.233085 12.901109 500.000000
0.260000 0.260000 0.290000 -57.644901 -34.606205 131.640748 500.000000
-0.260000 0.260000 0.375366 106.741186 -86.533969 17.073241 500.000000
0.260000 0.090000 0.405867 -22.991945 52.618719 23.173303 500.000000
-0.062906 0.247839 0.357693 -31.891356 31.567843 13.538623 500.000000
0.260000 0.090000 0.290000 -52.472193 73.105209 16.040580 500.000000
-0.027303 0.260000 0.290000 -10.757032 -18.847384 31.088043 500.000000
0.260000 0.090000 0.406229 -86.147768 24.598109 23.245767 500.000000
0.260000 0.090000 0.290000 -63.899510 83.613345 16.094797 500.000000
0.260000 0.260000 0.290000 -40.635058 -44.241048 13.917789 500.000000
-0.153383 0.090000 0.290000 -82.676582 134.842834 32.441709 500.000000
0.260000 0.260000 0.299569 -103.771893 -100.997305 -22.086259 500.000000
0.260000 0.260000 0.410000 -66.087717 -63.764642 -16.330984 500.000000
-0.183885 0.260000 0.410000 -88.776920 -52.593045 -79.240782 500.000000
-0.260000 0.090000 0.410000 65.072154 27.713615 -17.107265 500.000000
0.260000 0.260000 0.339977 -209.979146 -97.093882 -14.004664 500.000000
0.260000 0.252961 0.290000 -63.839158 32.592280 28.723938 500.000000
0.211094 0.090000 0.290000 29.250511 28.966947 60.174348 500.000000
-0.012406 0.260000 0.290000 -54.481275 -103.573553 85.315884 500.000000
0.190187 0.090000 0.290000 90.037413 72.833156 14.797620 500.000000
-0.260000 0.260000 0.410000 58.435497 -66.723714 -17.713748 500.000000
-0.260000 0.260000 0.410000 52.804570 -68.660766 -84.039797 500.000000
0.260000 0.090000 0.290000 -44.253847 29.305329 47.090779 500.000000
0.260000 0.090000 0.337667 -285.880453 281.831214 -14.466621 500.000000
-0.260000 0.090000 0.290000 64.432533 142.287864 36.007313 500.000000
0.260000 0.260000 0.290000 -56.332014 -62.753500 18.309460 500.000000
0.233630 0.243645 0.302461 58.409306 7.374685 -21.507783 500.000000
0.206378 0.260000 0.290000 80.425039 -36.566048 89.717018 500.000000
0.260000 0.260000 0.303989 -79.634766 -105.401459 -21.202256 500.000000
-0.260000 0.090000 0.410000 65.449139 26.104166 -18.036656 500.000000
0.260000 0.260000 0.290000 -71.661571 -80.850969 69.758390 500.000000
-0.260000 0.090000 0.410000 65.352224 92.710963 -20.153365 500.000000
0.260000 0.260000 0.321816 -139.328527 -61.140231 -17.636751 500.000000
0.260000 0.260000 0.342507 -139.533088 -72.869118 -13.498656 500.000000
0.260000 0.090000 0.290000 -55.226828 109.075506 16.074655 500.000000
0.071275 0.090000 0.290000 66.255068 51.028561 377.923996 500.000000
-0.260000 0.090000 0.403985 91.827630 108.901892 22.796936 500.000000
-0.260000 0.260000 0.312079 83.643769 -83.048353 -19.584215 500.000000
-0.260000 0.090000 0.290000 70.218464 26.974946 83.311725 500.000000
0.260000 0.090000 0.383405 -12.118404 11.207722 18.680952 500.000000
-0.098432 0.094757 0.404682 -7.525266 -10.674496 22.936444 500.000000
-0.148769 0.260000 0.290889 -19.362568 -34.557371 -23.822229 500.000000
0.260000 0.260000 0.410000 -41.179264 -83.302697 -30.158441 500.000000
-0.260000 0.090000 0.290000 111.617892 41.970051 12.405379 500.000000
-0.260000 0.260000 0.290000 115.590541 -84.669922 55.625277 500.000000
-0.021791 0.260000 0.290000 -56.358202 -119.758118 72.258876 500.000000
-0.260000 0.260000 0.410000 55.612131 -53.293111 -85.191898 500.000000
0.212135 0.260000 0.290000 94.427099 -343.175406 19.350998 500.000000
-0.260000 0.260000 0.290000 63.646343 -98.019128 24.617400 500.000000
0.260000 0.260000 0.410000 -61.576008 -86.704373 -17.243818 500.000000
0.260000 0.260000 0.410000 -92.958209 -66.881599 -81.259425 500.000000
-0.058101 0.260000 0.290000 -63.620220 -93.492428 26.466675 500.000000
-0.260000 0.260000 0.410000 76.738666 -124.298804 -31.874390 500.000000
0.016223 0.260000 0.410000 12.738038 -91.446390 -27.819727 500.000000
-0.260000 0.260000 0.410000 57.018341 -51.596599 -78.309222 500.000000
-0.260000 0.090000 0.410000 65.062941 26.021095 -18.620566 500.000000
-0.260000 0.090000 0.290000 123.215025 142.243152 32.391818 500.000000
0.260000 0.090000 0.382981 -31.212898 39.157629 18.596112 500.000000
-0.260000 0.090000 0.410000 67.939567 25.530804 -20.577147 500.000000
0.205989 0.125583 0.410000 22.604908 -26.883411 -14.441502 500.000000
0.260000 0.090000 0.410000 -70.098008 201.038187 -75.762773 500.000000
0.205006 0.260000 0.367676 93.001163 -126.470064 15.535162 500.000000
-0.053575 0.090000 0.290000 41.284915 109.594250 15.301275 500.000000
-0.260000 0.162107 0.410000 55.186496 -19.578621 -24.528778 500.000000
0.260000 0.260000 0.290000 -84.466043 -19.211639 32.783177 500.000000
-0.251564 0.090000 0.383749 -44.707452 37.576936 18.749767 500.000000
0.260000 0.260000 0.290000 -43.035335 -49.287069 13.959835 500.000000
0.192364 0.260000 0.410000 90.472729 -92.056013 -40.596500 500.000000
-0.260000 0.090000 0.410000 78.175143 26.088610 -91.356436 500.000000
-0.260000 0.090000 0.410000 26.555737 130.992765 -12.509179 500.000000
-0.189238 0.090000 0.290000 14.152457 22.051336 52.647031 500.000000
-0.172435 0.090000 0.307044 -56.864842 36.593896 -20.591155 500.000000
0.260000 0.260000 0.345666 -65.926769 -72.749861 -12.866844 500.000000
0.150449 0.090000 0.290000 48.006081 24.298217 182.850946 500.000000
0.260000 0.090000 0.290000 -53.009016 69.304876 20.774772 500.000000
-0.260000 0.090000 0.301282 109.073264 30.628111 -21.743647 500.000000
0.260000 0.090000 0.325553 -261.135964 197.007711 -16.889447 500.000000
-0.260000 0.090000 0.410000 156.169954 123.983155 -27.723060 500.000000
-0.260000 0.260000 0.340551 953.915639 -76.334929 -13.889769 500.000000
