ply
format ascii 1.0
element vertex 240
property float x
property float y
property float z
property float vx
property float vy
property float vz
property float density
end_header
0.260000 0.090000 0.290000 -222.301315 53.839585 23.396629 500.000000
0.260000 0.090000 0.290000 -50.717955 32.640346 12.792232 500.000000
0.260000 0.090000 0.290000 -57.047472 173.072668 47.685547 500.000000
-0.158782 0.246677 0.410000 -83.756477 31.335341 -69.980011 500.000000
0.260000 0.090000 0.290000 -30.558875 29.484810 29.677890 500.000000
-0.260000 0.260000 0.290000 84.824337 -34.956315 21.351591 500.000000
0.089798 0.090000 0.290000 9.685876 28.927353 28.389431 500.000000
0.132742 0.090000 0.290000 78.548346 25.457389 48.078450 500.000000
-0.026088 0.137028 0.410000 -57.217500 -24.594461 -66.702159 500.000000
0.135159 0.090000 0.290000 79.031740 25.126746 47.483845 500.000000
-0.260000 0.204173 0.290000 31.081027 22.834610 37.850576 500.000000
-0.260000 0.251324 0.290000 23.095573 16.268245 14.769032 500.000000
0.132872 0.090000 0.290000 78.574410 24.960802 47.497232 500.000000
-0.260000 0.260000 0.290000 91.684950 -35.676151 37.696497 500.000000
0.260000 0.119418 0.290000 -408.442022 -28.116331 472.570871 500.000000
0.260000 0.090000 0.290000 -207.950153 19.042244 23.863036 500.000000
-0.260000 0.260000 0.320391 34.498280 -19.873864 -17.921729 500.000000
-0.260000 0.217716 0.410000 33.205743 25.543102 -30.497778 500.000000
0.180658 0.260000 0.322577 25.143758 -40.742657 -17.484652 500.000000
-0.260000 0.260000 0.290000 164.368307 -29.713326 32.559846 500.000000
-0.260000 0.260000 0.290000 319.538514 -28.245757 24.709215 500.000000
-0.260000 0.142834 0.410000 103.607384 -23.433280 -72.817875 500.000000
-0.009613 0.140886 0.410000 -53.922573 -23.822737 -67.058315 500.000000
0.138007 0.090000 0.290000 79.601416 58.342913 462.770676 500.000000
0.260000 0.260000 0.410000 -73.519475 -69.632865 -204.259654 500.000000
0.253013 0.090000 0.410000 102.602546 31.215789 -446.495497 500.000000
-0.260000 0.260000 0.410000 52.923667 -19.284396 -12.201397 500.000000
-0.021384 0.131506 0.290000 -56.276897 -25.698700 742.846756 500.000000
0.260000 0.260000 0.410000 -59.163032 -68.297187 -276.258648 500.000000
0.260000 0.260000 0.410000 -90.942332 -69.634300 -204.338103 500.000000
0.260000 0.090000 0.290000 -28.017925 28.240394 23.733478 500.000000
0.260000 0.260000 0.290000 -39.023159 -229.763531 25.772210 500.000000
0.260000 0.260000 0.290000 -80.866209 -125.894739 44.094617 500.000000
-0.260000 0.260000 0.290000 53.246276 -144.789475 71.958083 500.000000
0.121296 0.260000 0.365091 52.537230 -18.212009 -8.981796 500.000000
-0.260000 0.135400 0.410000 149.010142 -24.920004 -67.985651 500.000000
-0.027544 0.156357 0.410000 -31.840144 -20.728687 -393.166185 500.000000
0.260000 0.260000 0.290000 -117.578791 -93.112875 51.377636 500.000000
-0.260000 0.090000 0.290000 96.449244 31.779217 25.812315 500.000000
0.053974 0.260000 0.410000 62.794880 -58.850748 -359.966472 500.000000
0.260000 0.260000 0.290000 -76.184910 -79.652546 219.405280 500.000000
-0.260000 0.260000 0.290000 87.750161 -29.611436 32.535486 500.000000
0.260000 0.090000 0.410000 -58.218493 49.607439 -487.224915 500.000000
0.260000 0.090000 0.290000 -260.554667 19.311347 13.220412 500.000000
0.188084 0.090000 0.290000 89.616889 118.102036 38.690332 500.000000
0.260000 0.260000 0.290000 -120.088190 -172.584652 47.011997 500.000000
-0.260000 0.260000 0.290000 265.245334 -70.928905 130.191802 500.000000
0.260000 0.260000 0.372188 -61.633669 -171.970077 -7.562468 500.000000
0.133360 0.090000 0.290000 78.671935 26.069676 47.549466 500.000000
0.211707 0.090000 0.290000 20.848625 18.030818 16.484108 500.000000
-0.260000 0.142097 0.410000 78.063640 -23.580628 -67.670787 500.000000
0.260000 0.260000 0.290000 -87.044385 -92.209830 57.472259 500.000000
0.260000 0.090000 0.290000 -92.919538 456.929770 63.796712 500.000000
0.260000 0.090000 0.290000 -73.522882 29.186869 22.228086 500.000000
0.203023 0.236999 0.410000 45.984137 29.399871 -12.863155 500.000000
-0.260000 0.227426 0.410000 62.380388 27.485166 -20.651946 500.000000
-0.087709 0.090000 0.410000 34.458175 97.794929 -18.619243 500.000000
0.152062 0.090000 0.290000 82.412388 25.639079 49.744854 500.000000
0.260000 0.090000 0.290000 -95.981273 25.242613 38.047047 500.000000
-0.260000 0.260000 0.290000 95.709502 -27.861744 46.587006 500.000000
0.260000 0.260000 0.410000 -101.440587 -70.058741 -204.270020 500.000000
-0.260000 0.090000 0.290000 52.606926 29.119283 25.218186 500.000000
0.082505 0.260000 0.290000 35.251538 -8.970443 20.713147 500.000000
0.216115 0.090000 0.290000 95.223076 25.000499 47.852172 500.000000
0.260000 0.090000 0.290000 -157.415395 57.790305 22.880789 500.000000
0.256167 0.090000 0.290000 103.233494 27.094086 47.899073 500.000000
-0.260000 0.260000 0.290000 200.507237 -32.421249 42.910755 500.000000
0.224623 0.260000 0.290000 96.924506 -64.329580 498.208847 500.000000
0.260000 0.260000 0.290000 -57.024030 -86.065037 248.489072 500.000000
0.038163 0.090000 0.410000 -44.367345 45.388821 -300.711212 500.000000
-0.201658 0.199674 0.410000 0.405450 21.934878 -27.971016 500.000000
-0.260000 0.090000 0.290000 44.188036 29.142583 26.580447 500.000000
-0.173525 0.142789 0.410000 -86.705026 -23.442266 -67.487518 500.000000
0.260000 0.260000 0.410000 -56.165619 -112.341977 -219.435938 500.000000
0.069543 0.105070 0.290000 65.908671 -30.986085 16.808047 500.000000
0.260000 0.260000 0.290000 -82.556739 -92.700044 50.673188 500.000000
0.146745 0.090000 0.290000 -22.651067 31.930697 66.257686 500.000000
0.260000 0.119440 0.290000 -279.629661 -28.112062 126.793693 500.000000
0.260000 0.260000 0.410000 -73.910898 -69.764283 -204.500553 500.000000
0.232549 0.090000 0.290000 98.509809 322.531657 39.288244 500.000000
0.133075 0.090000 0.290000 78.614975 24.994396 47.517142 500.000000
0.260000 0.257874 0.410000 -271.141085 33.574824 -106.913160 500.000000
0.260000 0.260000 0.290000 -102.692025 -87.720126 60.482946 500.000000
0.260000 0.090000 0.290000 -103.520009 29.208004 34.152851 500.000000
0.260000 0.260000 0.290000 -98.316674 -106.428187 60.950495 500.000000
-0.260000 0.260000 0.290000 88.411341 -30.155207 39.480879 500.000000
0.260000 0.184537 0.410000 -266.260259 18.907390 -26.440534 500.000000
-0.260000 0.260000 0.410000 77.581744 -83.010084 -224.557222 500.000000
0.260000 0.090000 0.290000 -73.136710 29.018018 23.201569 500.000000
0.260000 0.260000 0.290000 -59.493160 -99.295069 376.658230 500.000000
0.155767 0.090000 0.290000 83.153476 28.396559 47.068084 500.000000
-0.260000 0.090000 0.290000 364.816452 122.778732 24.182549 500.000000
0.260000 0.221837 0.290000 -17.172189 26.367391 17.883609 500.000000
0.204002 0.090000 0.410000 92.800325 39.677874 -182.840098 500.000000
-0.260000 0.148190 0.410000 118.971574 -22.361940 -67.529020 500.000000
-0.260000 0.260000 0.290000 93.946502 -37.152353 17.804211 500.000000
0.260000 0.121898 0.410000 -41.848245 -27.620476 -62.356450 500.000000
-0.260000 0.260000 0.290000 98.197393 -34.143905 31.538813 500.000000
-0.258543 0.212296 0.410000 -103.708528 24.459235 -20.916967 500.000000
-0.260000 0.260000 0.410000 55.245908 -48.619796 -16.566640 500.000000
-0.000671 0.151570 0.410000 51.865789 -21.686098 -446.986890 500.000000
0.260000 0.145889 0.290000 -54.572904 -22.822294 31.221337 500.000000
-0.260000 0.090000 0.290000 103.086727 31.271916 25.572473 500.000000
0.260000 0.090000 0.290000 -77.207368 302.935957 280.657264 500.000000
-0.260000 0.090000 0.410000 32.909111 44.310768 -296.313282 500.000000
0.260000 0.260000 0.290000 -73.579496 -73.018485 265.335945 500.000000
0.260000 0.260000 0.410000 -77.508238 -63.374617 -207.453541 500.000000
0.236578 0.090000 0.290000 99.315636 26.364865 47.150296 500.000000
0.260000 0.120107 0.290000 -365.060002 -27.978532 385.641965 500.000000
0.260000 0.120982 0.410000 -197.133245 -27.803672 -27.546499 500.000000
-0.062727 0.125925 0.410000 39.454501 -26.815035 -139.768662 500.000000
-0.260000 0.090000 0.410000 137.372164 40.655106 -121.546206 500.000000
-0.168234 0.090000 0.359750 -22.969894 13.498154 13.950065 500.000000
-0.260000 0.240368 0.410000 53.998868 30.073643 -34.932755 500.000000
0.260000 0.260000 0.410000 -79.202339 -69.321523 -207.360266 500.000000
-0.260000 0.090000 0.290000 96.149364 32.069708 26.156384 500.000000
-0.207228 0.182386 0.325237 -14.541239 18.477232 -16.952695 500.000000
0.260000 0.090000 0.371629 -56.331953 87.668771 16.325712 500.000000
-0.260000 0.090000 0.410000 137.354542 22.008929 -131.626451 500.000000
-0.260000 0.260000 0.333895 72.881647 -53.172868 -15.221004 500.000000
0.132998 0.090000 0.290000 78.599624 26.053500 47.763527 500.000000
0.251889 0.090000 0.290000 102.377788 25.238646 47.193013 500.000000
-0.260000 0.260000 0.290000 89.343997 -18.336594 35.864952 500.000000
0.260000 0.090000 0.290000 -107.472983 32.826208 174.314892 500.000000
-0.260000 0.143191 0.410000 146.239733 -23.361852 -69.681954 500.000000
-0.260000 0.260000 0.290000 115.138063 -234.492985 37.030890 500.000000
-0.260000 0.223287 0.410000 65.668047 26.657446 -21.483475 500.000000
0.200198 0.260000 0.410000 6.646093 -25.564823 -41.868288 500.000000
0.260000 0.121863 0.290000 -114.501854 -27.627333 58.207919 500.000000
0.260000 0.090000 0.410000 -35.944201 18.460410 -8.931690 500.000000
0.194269 0.090000 0.290000 90.853763 24.973881 51.088641 500.000000
-0.260000 0.260000 0.290000 149.971494 -30.163597 32.087825 500.000000
0.087910 0.090000 0.410000 69.581924 25.347460 -450.435282 500.000000
0.260000 0.260000 0.410000 -64.480271 -82.266825 -331.686651 500.000000
0.132962 0.090000 0.290000 78.592428 25.149301 47.471069 500.000000
-0.222170 0.259528 0.410000 -96.433921 33.905513 -24.925588 500.000000
-0.260000 0.090000 0.403447 54.464467 31.573869 22.689323 500.000000
0.260000 0.260000 0.290000 -112.510544 -164.986233 12.005824 500.000000
-0.260000 0.090000 0.290000 231.416571 40.005080 102.550868 500.000000
-0.158291 0.260000 0.290000 20.341705 -25.058604 28.460344 500.000000
0.186540 0.090000 0.290000 89.307926 25.273264 47.193558 500.000000
0.260000 0.260000 0.290000 -63.201483 -103.964680 37.449994 500.000000
-0.260000 0.260000 0.290000 211.231206 -31.690925 42.959500 500.000000
-0.164794 0.260000 0.410000 -84.958770 -23.933123 -29.739813 500.000000
-0.260000 0.090000 0.410000 195.534655 44.547314 -26.780316 500.000000
-0.260000 0.090000 0.410000 117.515511 19.552678 -269.896063 500.000000
-0.008188 0.260000 0.290000 -5.762355 -240.538027 24.386827 500.000000
0.133373 0.090000 0.290000 78.674660 25.433154 47.614450 500.000000
-0.260000 0.238693 0.410000 57.609291 29.738535 -53.136578 500.000000
-0.260000 0.090000 0.410000 23.562827 29.795042 -190.116218 500.000000
0.260000 0.260000 0.290000 -44.934565 -19.194710 34.125165 500.000000
-0.260000 0.090000 0.290000 41.173121 77.766947 16.982761 500.000000
-0.025121 0.260000 0.290000 46.975861 -67.235961 428.507245 500.000000
-0.260000 0.090000 0.290000 243.218180 19.534100 37.045823 500.000000
0.260000 0.090000 0.290000 -24.759512 29.145349 24.672865 500.000000
0.260000 0.260000 0.290000 -827.511933 -35.933329 13.039779 500.000000
0.133088 0.090000 0.290000 78.617562 25.433331 47.855628 500.000000
-0.260000 0.260000 0.290000 70.711558 -19.947508 35.038015 500.000000
-0.260000 0.260000 0.410000 437.053681 -69.437683 -184.858191 500.000000
-0.260000 0.090000 0.290000 101.271305 20.031633 15.521063 500.000000
0.260000 0.090000 0.290000 -40.051452 29.045332 33.530612 500.000000
0.044917 0.090000 0.290000 60.983379 24.790608 351.174367 500.000000
0.055143 0.090000 0.290000 -40.971306 337.629184 41.720326 500.000000
-0.015075 0.260000 0.304325 0.718424 -370.553243 -21.135051 500.000000
0.179647 0.090000 0.410000 -16.070639 32.788484 -318.131484 500.000000
0.260000 0.120242 0.290000 -322.396255 -27.951643 300.208157 500.000000
-0.260000 0.090000 0.290000 92.626782 80.812386 38.558057 500.000000
0.260000 0.090000 0.290000 -79.622793 26.755829 48.142660 500.000000
-0.260000 0.090000 0.290000 121.435474 25.577090 122.853390 500.000000
-0.260000 0.228649 0.290000 79.843164 27.729783 25.500249 500.000000
-0.260000 0.090000 0.290000 105.026069 39.513592 20.780910 500.000000
0.260000 0.260000 0.290000 -106.117221 -93.151948 51.742509 500.000000
0.260000 0.260000 0.290000 -88.369995 -100.911596 57.889654 500.000000
0.114336 0.090000 0.290000 74.867239 31.383561 22.689074 500.000000
-0.091243 0.090000 0.290000 33.751484 184.884724 112.149320 500.000000
-0.020213 0.090000 0.410000 -56.042516 17.822477 -216.867625 500.000000
-0.260000 0.248533 0.410000 210.535799 31.706661 -19.266457 500.000000
0.133219 0.090000 0.290000 78.643869 25.109173 47.491075 500.000000
0.135124 0.090000 0.290000 79.024724 25.110634 47.482301 500.000000
-0.260000 0.090000 0.410000 160.750962 29.340622 -178.004005 500.000000
-0.231876 0.090000 0.290000 -64.106331 29.199804 30.133933 500.000000
0.260000 0.242217 0.373598 -45.192218 30.443422 16.719695 500.000000
-0.122379 0.260000 0.410000 -76.475857 -30.415810 -91.047211 500.000000
-0.260000 0.090000 0.290000 33.949522 117.995810 13.897158 500.000000
0.260000 0.120237 0.290000 -236.184223 -27.952516 214.127608 500.000000
0.247508 0.090000 0.290000 19.254989 24.564693 16.273154 500.000000
-0.260000 0.090000 0.290000 168.802450 23.241941 147.779885 500.000000
0.006806 0.118863 0.290033 53.361264 -28.227370 -23.993416 500.000000
0.187381 0.090000 0.290000 89.476157 25.371878 47.048023 500.000000
-0.260000 0.260000 0.410000 34.638320 -17.113677 -42.943903 500.000000
-0.260000 0.260000 0.410000 62.047363 -50.659533 -20.283197 500.000000
-0.260000 0.260000 0.410000 119.995234 -160.973243 -36.565057 500.000000
-0.260000 0.260000 0.290000 207.426172 -23.966733 57.598373 500.000000
0.133549 0.090000 0.290000 78.709793 25.125319 47.482933 500.000000
0.057044 0.090000 0.410000 63.408853 33.138849 -447.958971 500.000000
-0.260000 0.090000 0.410000 136.548998 25.903950 -113.784880 500.000000
-0.067877 0.090000 0.410000 -65.575469 17.522373 -80.981614 500.000000
0.260000 0.090000 0.290000 -20.064781 29.172499 40.640399 500.000000
0.136479 0.090000 0.290000 79.295715 25.163364 47.474529 500.000000
-0.260000 0.260000 0.290000 111.159297 -40.482003 32.415508 500.000000
0.260000 0.090000 0.410000 -60.387029 421.473321 -313.023913 500.000000
0.135048 0.090000 0.290000 79.009593 25.125316 47.483362 500.000000
0.260000 0.260000 0.410000 -81.089171 -69.688055 -204.292538 500.000000
0.056161 0.090000 0.410000 63.232227 108.066978 -29.175244 500.000000
0.166349 0.124241 0.410000 85.269854 -27.151856 -74.657766 500.000000
0.260000 0.260000 0.290000 -85.686687 -93.546825 51.480558 500.000000
0.136308 0.090000 0.290000 79.261633 25.125572 47.504997 500.000000
0.260000 0.123608 0.410000 -84.027262 -27.278334 -445.785161 500.000000
0.133079 0.090000 0.290000 78.615730 24.974286 47.537797 500.000000
0.260000 0.260000 0.290000 -67.639154 -27.237154 13.811496 500.000000
0.119907 0.090000 0.290000 75.981458 20.210899 24.411591 500.000000
-0.098983 0.090000 0.410000 -71.796605 64.989958 -73.639613 500.000000
0.260000 0.090000 0.290000 -138.979095 33.735562 46.392912 500.000000
-0.260000 0.260000 0.290000 100.780201 -31.422423 15.934754 500.000000
0.260000 0.090000 0.290000 -87.416350 58.230369 23.461832 500.000000
0.133640 0.090000 0.290000 78.727933 25.114610 47.482710 500.000000
-0.260000 0.260000 0.290000 140.263875 -47.458393 31.764914 500.000000
0.260000 0.090000 0.290000 -50.015822 59.467022 23.837985 500.000000
0.249736 0.260000 0.410000 101.947108 -94.668811 -204.450068 500.000000
0.203659 0.090000 0.290000 92.731833 25.594893 47.558625 500.000000
-0.260000 0.090000 0.410000 131.352860 56.518992 -113.782024 500.000000
0.205567 0.090000 0.290000 93.113438 25.263421 47.181404 500.000000
0.260000 0.090000 0.290000 -64.396528 33.522103 24.767462 500.000000
-0.157648 0.213255 0.306877 -11.134274 24.651056 -20.624657 500.000000
0.260000 0.260000 0.410000 -75.731702 -70.056787 -204.707808 500.000000
0.098002 0.260000 0.290000 71.600428 -105.264362 322.710767 500.000000
0.117754 0.212182 0.290000 -28.449161 -9.563616 327.652739 500.000000
-0.260000 0.090000 0.290000 705.308815 30.445068 14.398547 500.000000
0.260000 0.090000 0.290000 -160.524174 29.063163 23.421542 500.000000
-0.260000 0.260000 0.410000 38.993920 -12.865758 -12.773692 500.000000
-0.260000 0.260000 0.290000 111.703044 -27.227942 28.441664 500.000000
-0.260000 0.260000 0.410000 85.856829 -35.147877 -66.081671 500.000000
0.260000 0.226934 0.290000 -52.614780 27.386703 12.212858 500.000000
0.132880 0.090000 0.290000 78.575910 24.958489 47.500860 500.000000
0.047818 0.090000 0.290000 61.563615 19.121710 14.292128 500.000000
0.260000 0.125301 0.290000 -153.648255 -26.939894 479.267967 500.000000
0.260000 0.161766 0.410000 -25.849768 14.353237 -21.233831 500.000000
0.241019 0.103951 0.399016 40.927421 -31.209763 21.803122 500.000000
0.260000 0.206616 0.290000 -45.258311 23.323194 35.441954 500.000000
-0.260000 0.260000 0.290000 75.872149 -167.757305 24.634304 500.000000
