ply
format ascii 1.0
element vertex 240
property float x
property float y
property float z
property float vx
property float vy
property float vz
property float density
end_header
0.260000 0.090000 0.410000 -71.531430 330.025770 -20.867890 500.000000
0.260000 0.260000 0.290000 -69.253341 -59.353688 21.200508 500.000000
-0.034740 0.190661 0.410000 -42.703536 20.132140 -160.076923 500.000000
0.260000 0.260000 0.290989 -144.268304 -56.751086 -23.802107 500.000000
0.199424 0.260000 0.290000 91.884885 -60.660449 29.813544 500.000000
0.047498 0.260000 0.410000 61.499640 -418.806727 -28.465292 500.000000
-0.260000 0.260000 0.409296 28.372471 -25.091239 23.859124 500.000000
0.074793 0.090000 0.312975 36.225559 122.614372 -19.405062 500.000000
0.257516 0.090000 0.403670 52.776275 25.362993 22.733983 500.000000
0.260000 0.090000 0.290000 -84.215721 104.068326 57.529723 500.000000
-0.260000 0.260000 0.290000 103.885235 -53.068772 28.133910 500.000000
-0.260000 0.260000 0.290000 58.370820 -47.429824 18.544587 500.000000
0.013997 0.260000 0.410000 -15.306104 -17.741801 -34.739133 500.000000
0.260000 0.260000 0.388829 -69.283992 -37.893682 19.765823 500.000000
0.260000 0.090000 0.389318 -59.750793 345.784485 19.863522 500.000000
0.260000 0.090000 0.410000 -77.772650 339.561001 -194.519776 500.000000
0.260000 0.090000 0.410000 -65.916359 339.533020 -20.829937 500.000000
-0.260000 0.090000 0.290000 170.870745 27.389608 31.591309 500.000000
0.260000 0.090000 0.290000 -88.618136 120.999012 52.985617 500.000000
-0.260000 0.260000 0.410000 111.120534 -192.958197 -37.428422 500.000000
0.260000 0.090000 0.410000 -55.025666 332.207855 -14.369929 500.000000
-0.260000 0.090000 0.290000 57.972962 90.905612 58.158521 500.000000
-0.260000 0.090000 0.410000 900.260044 139.415519 -19.711659 500.000000
-0.260000 0.260000 0.290000 33.678978 -24.297096 36.602218 500.000000
-0.260000 0.260000 0.290000 80.647369 -44.316224 22.323964 500.000000
0.260000 0.260000 0.410000 -83.873280 -38.304691 -12.148304 500.000000
0.260000 0.260000 0.410000 -40.035749 -34.048967 -33.991196 500.000000
-0.260000 0.260000 0.290000 75.209576 -29.793413 175.759629 500.000000
0.260000 0.260000 0.290000 -324.679842 -57.788692 43.664430 500.000000
0.183894 0.260000 0.410000 -15.221244 -45.071782 -14.555973 500.000000
0.260000 0.135350 0.410000 -87.874796 -24.929980 -13.960270 500.000000
-0.260000 0.090000 0.290000 64.139632 8.751521 85.250451 500.000000
0.260000 0.260000 0.410000 -151.950731 -19.723135 -36.291991 500.000000
0.151617 0.090000 0.290000 -21.676691 86.632338 29.881624 500.000000
-0.260000 0.090000 0.410000 62.309740 110.942314 -35.775187 500.000000
0.260000 0.090000 0.290000 -85.827884 104.981487 55.373691 500.000000
-0.260000 0.090000 0.290000 52.692556 117.439308 28.861354 500.000000
0.260000 0.090000 0.290000 -85.107902 106.124127 54.963628 500.000000
0.040936 0.090000 0.372714 60.187140 261.780736 16.542752 500.000000
-0.260000 0.090000 0.290000 94.191159 68.295861 39.982227 500.000000
-0.260000 0.090000 0.410000 27.023467 18.489611 -64.475017 500.000000
0.260000 0.260000 0.410000 -96.440315 -38.376610 -12.386683 500.000000
-0.260000 0.251612 0.357452 252.243184 32.322474 13.490475 500.000000
0.260000 0.260000 0.375758 -98.526434 -36.898112 17.151540 500.000000
0.192204 0.260000 0.410000 10.431952 -33.407994 -39.104928 500.000000
0.141912 0.260000 0.410000 80.382305 -489.953654 -26.593929 500.000000
0.260000 0.090000 0.290000 -134.425921 85.856181 14.091321 500.000000
0.057980 0.090000 0.290000 -40.403989 23.710314 198.099212 500.000000
-0.260000 0.090000 0.290000 120.088555 21.171903 22.873411 500.000000
0.260000 0.229666 0.290000 -32.404736 27.933165 157.944075 500.000000
-0.260000 0.090000 0.290000 147.490357 65.036623 175.570142 500.000000
-0.260000 0.260000 0.410000 56.679302 -30.809083 -19.143377 500.000000
0.260000 0.090000 0.410000 -59.406823 332.259422 -19.992989 500.000000
-0.142128 0.090000 0.341432 -80.425578 68.970992 -13.713596 500.000000
0.260000 0.090000 0.410000 -93.640481 47.714369 -299.155093 500.000000
0.115753 0.090000 0.290000 23.209922 25.799778 18.291204 500.000000
-0.260000 0.260000 0.290000 68.036024 -52.971907 19.131460 500.000000
0.259585 0.090000 0.394980 103.916901 324.998015 20.995951 500.000000
0.112822 0.260000 0.290000 74.564395 -213.214179 203.254069 500.000000
0.260000 0.260000 0.410000 -92.431568 -356.325134 -12.637798 500.000000
0.260000 0.090000 0.410000 -366.261268 50.830859 -33.041977 500.000000
-0.185738 0.090000 0.290000 -37.351048 26.751042 50.451942 500.000000
0.260000 0.090000 0.377558 -12.396814 45.055002 17.511649 500.000000
0.260000 0.260000 0.396577 -121.474301 -38.396126 21.315478 500.000000
0.172734 0.260000 0.290000 86.546837 -274.560181 34.926975 500.000000
-0.260000 0.260000 0.410000 76.144778 -29.267993 -44.362805 500.000000
0.260000 0.260000 0.290000 -86.585601 -55.575099 14.983484 500.000000
-0.260000 0.090000 0.410000 59.101827 90.404352 -37.929047 500.000000
0.260000 0.090000 0.402436 -32.443211 34.123032 22.487262 500.000000
-0.086829 0.260000 0.410000 -69.365871 -73.994258 -42.428434 500.000000
0.260000 0.090000 0.290000 -74.283142 95.663714 56.788392 500.000000
-0.102285 0.218425 0.410000 -51.475826 25.685074 -23.411009 500.000000
-0.260000 0.260000 0.290000 20.521963 -30.259186 35.241508 500.000000
0.260000 0.090000 0.290000 -87.711530 104.425976 55.695677 500.000000
-0.260000 0.260000 0.290000 119.560995 -53.081629 70.570316 500.000000
0.260000 0.153347 0.382413 -76.247403 -21.330665 18.482667 500.000000
-0.134153 0.260000 0.410000 -46.814634 -22.278500 -34.721701 500.000000
0.060231 0.090000 0.410000 -39.953802 168.521866 -43.633173 500.000000
0.260000 0.260000 0.410000 -111.337502 -46.044650 -39.176763 500.000000
0.260000 0.090000 0.395484 -82.820422 325.156570 21.096864 500.000000
-0.260000 0.260000 0.290000 118.917307 -52.768089 67.285502 500.000000
-0.260000 0.260000 0.290000 119.763630 -52.996287 70.970791 500.000000
0.260000 0.090000 0.290000 -87.660086 122.236480 53.813230 500.000000
-0.260000 0.260000 0.290000 120.687879 -53.335235 74.413911 500.000000
-0.125387 0.260000 0.290000 -12.509769 -10.818268 18.328906 500.000000
0.260000 0.260000 0.357816 -26.494598 -8.807605 13.563172 500.000000
0.260000 0.090000 0.410000 -60.986624 330.125612 -18.870448 500.000000
-0.155574 0.090000 0.410000 3.755681 24.231691 -16.546396 500.000000
-0.260000 0.260000 0.290000 120.594154 -53.487222 66.972352 500.000000
-0.066945 0.260000 0.290000 -65.389069 -20.411767 39.626189 500.000000
0.014597 0.090000 0.290000 32.936600 200.594930 230.184714 500.000000
-0.030031 0.090000 0.290000 -58.006121 179.937225 87.311073 500.000000
-0.260000 0.260000 0.290000 77.531620 -52.362834 18.813927 500.000000
-0.260000 0.090000 0.410000 76.029743 129.040145 -38.103667 500.000000
-0.260000 0.260000 0.410000 54.010426 -57.976641 -41.741060 500.000000
0.260000 0.090000 0.370006 -67.055925 486.706578 16.001168 500.000000
-0.076618 0.260000 0.410000 -67.323592 -326.755367 -67.562957 500.000000
-0.260000 0.260000 0.290000 184.933987 -73.942778 16.137589 500.000000
0.260000 0.260000 0.290000 -618.786844 -56.135236 18.767627 500.000000
0.260000 0.090000 0.290000 -79.643891 89.050979 59.423077 500.000000
-0.260000 0.260000 0.410000 79.089968 -60.951370 -44.509544 500.000000
0.260000 0.260000 0.290000 -236.299169 -54.757141 31.743525 500.000000
0.260000 0.260000 0.410000 -72.467852 -38.259724 -12.666194 500.000000
0.260000 0.260000 0.410000 -111.534181 -38.477366 -12.229407 500.000000
-0.062680 0.260000 0.410000 -2.354697 -39.328245 -48.057305 500.000000
-0.260000 0.090000 0.290000 31.945409 8.463564 9.001448 500.000000
0.260000 0.260000 0.410000 -73.626982 -340.177928 -13.001043 500.000000
0.260000 0.260000 0.409417 -84.040524 -46.467809 23.883405 500.000000
0.199390 0.090000 0.290000 15.006521 22.231254 20.065685 500.000000
0.260000 0.164867 0.403412 -54.417421 -12.020358 22.682352 500.000000
-0.152195 0.260000 0.410000 -82.438910 -18.896518 -193.336511 500.000000
-0.260000 0.090000 0.380186 18.284586 101.487373 18.037112 500.000000
-0.260000 0.090000 0.410000 57.423057 80.571960 -40.341734 500.000000
-0.165935 0.260000 0.410000 -85.186944 -56.673253 -20.055921 500.000000
-0.260000 0.260000 0.382752 21.727504 -24.660446 18.550381 500.000000
0.260000 0.090000 0.388815 -58.877391 360.330737 19.763019 500.000000
0.260000 0.090000 0.410000 -60.055327 330.864462 -21.449110 500.000000
0.260000 0.260000 0.410000 -78.912731 -835.570532 -16.259785 500.000000
-0.117698 0.159768 0.393465 -13.273496 -20.046340 20.692902 500.000000
0.260000 0.260000 0.410000 -80.350441 -654.509176 -19.668539 500.000000
-0.260000 0.090000 0.410000 66.673887 151.714716 -35.486350 500.000000
0.061631 0.260000 0.410000 -2.308252 -37.310064 -13.564577 500.000000
0.151441 0.260000 0.410000 61.865393 -26.954826 -14.846760 500.000000
-0.260000 0.090000 0.410000 57.568413 102.775594 -35.689809 500.000000
0.260000 0.205724 0.383581 -42.082236 23.144739 18.716182 500.000000
-0.198186 0.260000 0.410000 -91.637120 -127.727147 -15.630201 500.000000
0.260000 0.260000 0.290000 -407.086167 -48.075148 254.332011 500.000000
-0.018789 0.260000 0.410000 -55.757721 -141.023495 -15.361101 500.000000
0.260000 0.260000 0.410000 -97.551247 -31.197129 -117.772750 500.000000
0.260000 0.090000 0.409166 -68.118392 382.493924 23.833235 500.000000
-0.260000 0.090000 0.290000 28.976612 26.282394 37.578506 500.000000
0.260000 0.090000 0.410000 -61.808141 331.904511 -19.514623 500.000000
0.256146 0.135088 0.399646 66.870939 -24.982450 21.929248 500.000000
-0.184674 0.260000 0.312462 -88.934785 -58.478614 -19.507616 500.000000
0.121583 0.090000 0.290000 -27.683485 25.198856 153.144005 500.000000
-0.048879 0.260000 0.410000 -61.775708 -69.067716 -43.649768 500.000000
-0.260000 0.106851 0.410000 33.032158 -30.629845 -12.504468 500.000000
0.109260 0.260000 0.410000 73.851924 -490.967173 -19.865973 500.000000
-0.260000 0.260000 0.403403 61.076679 -43.530696 22.680640 500.000000
0.189261 0.260000 0.410000 33.250807 -28.201796 -38.505514 500.000000
-0.260000 0.260000 0.290000 110.982450 -53.793389 62.842602 500.000000
-0.260000 0.260000 0.290000 119.599573 -53.342864 70.971472 500.000000
0.260000 0.090000 0.290000 -104.460188 108.827818 53.633137 500.000000
-0.260000 0.260000 0.290000 118.506082 -52.803685 65.965630 500.000000
-0.128794 0.255009 0.290000 -18.237111 33.001791 36.032526 500.000000
0.260000 0.260000 0.410000 -58.850372 -417.627910 -13.220454 500.000000
-0.212060 0.090000 0.410000 -94.412089 79.529162 -37.934340 500.000000
0.260000 0.090000 0.410000 -60.636179 323.763605 -19.662071 500.000000
0.260000 0.260000 0.358761 -54.345368 -109.597294 -10.247704 500.000000
-0.260000 0.260000 0.290000 122.336010 -56.185673 72.047660 500.000000
0.260000 0.260000 0.372495 -28.258813 -50.881549 16.499016 500.000000
0.260000 0.260000 0.410000 -52.381219 -401.526832 -21.122865 500.000000
-0.260000 0.260000 0.290000 119.870829 -53.128850 70.962622 500.000000
0.260000 0.260000 0.410000 -76.168798 -36.619802 -13.681341 500.000000
0.004239 0.090000 0.290000 -25.245643 16.860167 11.927479 500.000000
-0.260000 0.260000 0.410000 617.360346 -38.647133 -12.228997 500.000000
0.260000 0.090000 0.290000 -92.691925 104.794778 56.083078 500.000000
0.260000 0.090000 0.336568 -120.427936 478.320810 -14.686464 500.000000
-0.258452 0.260000 0.410000 -103.690388 -56.303937 -282.816463 500.000000
-0.260000 0.260000 0.290000 106.155863 -98.471189 40.867403 500.000000
0.260000 0.260000 0.290000 -69.304051 -456.578369 55.291546 500.000000
0.260000 0.090000 0.290000 -68.218135 105.283521 193.080895 500.000000
0.260000 0.260000 0.410000 -90.876192 -38.515754 -12.234881 500.000000
-0.260000 0.260000 0.410000 59.056370 -29.742828 -14.944800 500.000000
-0.260000 0.090000 0.290000 324.751735 57.921750 28.863415 500.000000
0.164504 0.090000 0.290000 37.645703 93.854997 24.334761 500.000000
0.260000 0.260000 0.329728 -83.472003 -58.792418 -16.054478 500.000000
-0.260000 0.260000 0.410000 22.486080 -27.401313 -16.012844 500.000000
0.260000 0.260000 0.410000 -78.838037 -741.053341 -19.340694 500.000000
0.065591 0.260000 0.290000 65.118165 -103.204046 26.844268 500.000000
0.260000 0.260000 0.290000 -70.605230 -12.282109 38.661020 500.000000
0.260000 0.090000 0.410000 -57.206297 338.980199 -20.683947 500.000000
0.260000 0.260000 0.290000 -136.565917 -66.083282 36.745292 500.000000
-0.260000 0.090000 0.410000 52.508289 29.196537 -19.770763 500.000000
-0.155128 0.159093 0.290000 -13.652412 -20.181323 37.920280 500.000000
0.071014 0.260000 0.290000 66.202746 -14.050407 12.343052 500.000000
-0.260000 0.260000 0.290000 123.488525 -53.473481 162.382857 500.000000
0.260000 0.260000 0.399889 -101.013883 -38.924826 21.977716 500.000000
0.260000 0.260000 0.410000 -70.217539 -792.614127 -19.671484 500.000000
-0.260000 0.260000 0.407839 215.027407 -32.730224 23.567877 500.000000
-0.023551 0.090000 0.410000 -5.325024 25.822170 -185.907999 500.000000
-0.260000 0.260000 0.410000 36.523044 -27.674175 -14.984428 500.000000
0.260000 0.260000 0.410000 -103.615655 -20.431505 -38.285137 500.000000
-0.260000 0.090000 0.410000 265.751563 76.620615 -34.638739 500.000000
-0.260000 0.090000 0.290000 29.249004 72.686695 44.222884 500.000000
0.260000 0.090000 0.290000 -56.605002 89.507584 53.898601 500.000000
0.260000 0.090000 0.410000 -107.576809 146.554877 -82.774277 500.000000
0.260000 0.090000 0.410000 -58.293240 323.562466 -18.716539 500.000000
-0.260000 0.132874 0.290000 42.814361 -5.818128 12.484665 500.000000
-0.260000 0.260000 0.358148 29.384632 -85.269446 13.629682 500.000000
-0.260000 0.260000 0.410000 76.502077 -54.777765 -14.800849 500.000000
-0.260000 0.260000 0.410000 31.853213 -35.103943 -47.081756 500.000000
0.260000 0.260000 0.410000 -65.619174 -855.982942 -18.530411 500.000000
0.260000 0.260000 0.410000 -50.515095 -20.558692 -168.735716 500.000000
0.174136 0.260000 0.290000 37.862697 -12.443316 39.810892 500.000000
0.260000 0.179774 0.410000 -37.056405 -16.045298 -37.327484 500.000000
-0.260000 0.260000 0.290000 120.207676 -58.513728 67.936074 500.000000
-0.073757 0.260000 0.407567 10.021785 -40.602770 23.513402 500.000000
0.260000 0.090000 0.410000 -58.064479 330.273426 -18.236678 500.000000
0.260000 0.260000 0.410000 -100.313245 -52.966537 -12.410971 500.000000
-0.260000 0.260000 0.410000 165.029145 -123.948143 -26.332419 500.000000
-0.260000 0.260000 0.290000 492.512836 -42.820196 34.876729 500.000000
-0.260000 0.090000 0.410000 82.954432 79.796292 -36.090856 500.000000
-0.260000 0.090000 0.290000 85.798186 510.364571 25.862707 500.000000
0.260000 0.090000 0.395006 -97.795097 325.439134 21.001234 500.000000
0.260000 0.260000 0.410000 -40.187348 -38.061450 -38.113896 500.000000
0.260000 0.090000 0.410000 -84.983696 323.399720 -19.679737 500.000000
-0.220453 0.090000 0.410000 -96.090654 84.115828 -31.976796 500.000000
-0.260000 0.260000 0.290000 120.334774 -56.979033 67.500599 500.000000
-0.136481 0.260000 0.345495 -79.296122 -9.625852 -0.709268 500.000000
0.260000 0.090000 0.410000 -58.133892 347.722341 -19.722710 500.000000
-0.260000 0.260000 0.410000 41.350358 -33.073741 -13.450978 500.000000
-0.260000 0.176472 0.358853 64.694878 17.294386 13.770623 500.000000
0.169054 0.090000 0.388175 85.810702 345.071320 19.635055 500.000000
0.260000 0.260000 0.410000 -116.833530 -38.159021 -12.228417 500.000000
0.260000 0.260000 0.292066 -62.334259 -54.215497 -23.586875 500.000000
-0.081984 0.090000 0.395506 35.603126 67.427879 21.101250 500.000000
0.018788 0.090000 0.290000 55.757641 17.861254 24.123626 500.000000
0.260000 0.260000 0.410000 -113.314059 -35.306215 -37.992835 500.000000
0.050208 0.090000 0.297799 -41.958338 64.286543 -22.440250 500.000000
0.260000 0.260000 0.410000 -42.183922 -39.483108 -39.469627 500.000000
-0.148132 0.170527 0.290000 -81.626324 -2.249098 87.781003 500.000000
0.202579 0.167901 0.290000 4.028960 -18.419810 6.104439 500.000000
-0.259577 0.260000 0.410000 -103.915368 -51.662381 -287.859636 500.000000
0.077510 0.260000 0.290000 67.502091 -37.918880 46.027329 500.000000
0.229009 0.260000 0.410000 97.801880 -439.832919 -26.051994 500.000000
0.079369 0.260000 0.402729 -3.233932 -22.408475 22.545707 500.000000
-0.176194 0.148948 0.382130 -40.140329 -22.210432 18.426097 500.000000
-0.260000 0.260000 0.410000 92.907123 -64.907134 -44.210057 500.000000
0.179632 0.090000 0.410000 87.926481 30.126606 -192.984479 500.000000
0.260000 0.260000 0.290000 -63.774525 -159.192375 44.662993 500.000000
-0.260000 0.260000 0.290000 47.833663 -50.631513 32.719995 500.000000
-0.260000 0.260000 0.410000 23.907234 -39.396807 -17.161626 500.000000
0.238214 0.260000 0.290000 99.642879 -55.352407 19.431052 500.000000
-0.037027 0.260000 0.410000 -59.405305 -68.658755 -43.613470 500.000000
0.260000 0.260000 0.410000 -86.313728 -152.951298 -142.193253 500.000000
0.196652 0.260000 0.410000 25.108577 -30.619462 -40.169176 500.000000
-0.014296 0.090000 0.290000 -54.859279 140.217902 21.406456 500.000000
0.018587 0.090000 0.410000 27.022746 26.299709 -76.632569 500.000000
0.260000 0.260000 0.370524 -74.164696 -86.865197 16.104750 500.000000
