ply
format ascii 1.0
element vertex 240
property float x
property float y
property float z
property float vx
property float vy
property float vz
property float density
end_header
-0.260000 0.260000 0.394831 183.863916 -68.198882 20.966140 500.000000
-0.260000 0.260000 0.410000 103.285352 -90.877541 -69.459727 500.000000
-0.260000 0.096006 0.410000 54.623710 -32.798889 -21.193388 500.000000
0.260000 0.260000 0.407710 -92.818815 -26.459376 23.542015 500.000000
-0.260000 0.260000 0.290000 90.708319 -40.426005 18.323116 500.000000
0.220510 0.090000 0.410000 52.443036 11.889790 -140.680833 500.000000
0.239449 0.260000 0.353088 99.889826 -820.595764 12.617520 500.000000
-0.001823 0.090000 0.290000 51.635422 164.301770 27.283399 500.000000
0.260000 0.090000 0.290000 -353.679624 37.215020 13.629635 500.000000
-0.186970 0.090000 0.410000 -89.394012 64.962773 -87.121280 500.000000
0.260000 0.090000 0.410000 -106.805393 47.041678 -30.561553 500.000000
-0.147894 0.260000 0.410000 -35.602865 -24.077646 -14.018446 500.000000
-0.260000 0.234835 0.337910 157.823216 28.967006 -14.417997 500.000000
-0.063587 0.090000 0.410000 39.282503 23.906746 -49.983426 500.000000
0.260000 0.260000 0.410000 -779.467562 -78.704669 -152.348542 500.000000
0.260000 0.090000 0.290000 -302.696574 106.079892 209.290000 500.000000
0.260000 0.260000 0.290000 -149.864209 -21.607139 160.310830 500.000000
0.260000 0.090000 0.410000 -108.575884 45.276205 -35.081351 500.000000
0.260000 0.260000 0.290000 -212.683695 -33.106032 163.623350 500.000000
0.260000 0.260000 0.290000 -87.525937 -26.619990 116.356004 500.000000
0.128481 0.090000 0.290000 77.696125 79.917659 33.560214 500.000000
-0.260000 0.090000 0.290000 62.746356 61.320492 26.008615 500.000000
0.260000 0.260000 0.290000 -78.885823 -78.099646 27.996551 500.000000
-0.260000 0.157556 0.290000 73.598622 13.511137 48.359868 500.000000
-0.260000 0.090000 0.290000 54.147640 32.940875 36.448055 500.000000
-0.260000 0.090000 0.410000 59.955802 69.888228 -171.377937 500.000000
-0.226416 0.090000 0.290000 -47.116368 30.672652 12.349566 500.000000
-0.260000 0.260000 0.290000 122.930828 -794.886347 115.552317 500.000000
-0.260000 0.090000 0.410000 99.374334 83.197181 -207.520164 500.000000
0.046576 0.090000 0.290000 -42.684879 22.842146 415.537825 500.000000
-0.260000 0.260000 0.410000 72.688545 -92.432209 -68.882770 500.000000
0.260000 0.125666 0.410000 -486.946398 -26.866818 -17.417838 500.000000
0.260000 0.260000 0.386968 -81.742542 -41.133639 19.393534 500.000000
0.260000 0.260000 0.290000 -65.828612 -159.319474 21.024222 500.000000
-0.260000 0.090000 0.290000 60.237808 132.641457 244.405028 500.000000
0.097992 0.090000 0.342137 -2.057901 23.585020 -13.572696 500.000000
-0.260000 0.260000 0.410000 84.250957 -70.009396 -12.307300 500.000000
-0.158784 0.090000 0.410000 -83.756827 74.984384 -22.884849 500.000000
-0.260000 0.090000 0.410000 89.174773 51.142911 -210.752706 500.000000
-0.006809 0.090000 0.290000 6.425315 8.822421 35.188257 500.000000
0.260000 0.260000 0.410000 -37.564547 -57.883351 -33.626434 500.000000
0.260000 0.090000 0.410000 -106.775636 47.019398 -30.302730 500.000000
-0.260000 0.260000 0.410000 70.163506 -101.300155 -70.893341 500.000000
-0.260000 0.260000 0.290000 25.601307 -40.305428 26.318966 500.000000
-0.260000 0.090000 0.410000 68.367676 75.559354 -206.395142 500.000000
-0.260000 0.090000 0.410000 324.942841 687.569781 -56.966010 500.000000
0.260000 0.260000 0.406624 -79.038565 -95.018280 23.324709 500.000000
-0.260000 0.090000 0.410000 99.117488 56.619687 -41.481208 500.000000
-0.260000 0.260000 0.410000 88.880280 -92.443699 -68.891873 500.000000
0.260000 0.260000 0.290000 -69.013246 -88.464444 16.391966 500.000000
0.260000 0.260000 0.395139 -78.784417 -25.804944 21.027731 500.000000
0.260000 0.090000 0.410000 -106.179309 45.262113 -34.108182 500.000000
0.260000 0.260000 0.394895 -79.907401 -26.426933 20.978925 500.000000
0.260000 0.260000 0.410000 -227.425297 -25.790297 -51.902592 500.000000
-0.260000 0.260000 0.410000 87.172445 -92.479455 -68.887079 500.000000
-0.260000 0.090000 0.410000 52.859242 69.238058 -249.032311 500.000000
0.260000 0.090000 0.410000 -103.682611 44.677524 -30.935051 500.000000
-0.260000 0.260000 0.410000 57.062972 -1087.959775 -250.333124 500.000000
-0.050511 0.260000 0.290000 41.897857 -20.839338 15.187538 500.000000
0.260000 0.260000 0.407650 -87.758320 -26.463486 23.530053 500.000000
0.260000 0.260000 0.407618 -90.443247 -26.502120 23.523644 500.000000
0.157516 0.260000 0.360873 25.773302 -20.034977 14.174590 500.000000
-0.260000 0.260000 0.290000 90.074097 -39.293291 18.856913 500.000000
0.260000 0.090000 0.410000 -105.476251 61.706654 -51.787718 500.000000
0.260000 0.160874 0.303223 -123.242485 -19.825105 -21.355494 500.000000
0.260000 0.090000 0.410000 -109.016955 45.253461 -34.087430 500.000000
-0.260000 0.090000 0.290000 55.677125 119.875087 112.084852 500.000000
-0.260000 0.090000 0.290000 69.567501 132.645885 157.874524 500.000000
0.104663 0.090000 0.290000 14.116528 35.853988 28.519996 500.000000
-0.260000 0.260000 0.410000 83.241234 -92.434666 -68.876624 500.000000
0.260000 0.260000 0.290000 -58.968072 -156.585284 26.954745 500.000000
0.260000 0.090000 0.410000 -97.061879 45.574193 -33.975104 500.000000
-0.260000 0.090000 0.410000 65.482821 108.201589 -41.056227 500.000000
0.260000 0.090000 0.290000 -71.515405 216.612676 50.569913 500.000000
-0.260000 0.164153 0.290000 101.997582 -19.169417 35.500480 500.000000
-0.260000 0.260000 0.410000 96.723852 -92.001683 -69.595138 500.000000
-0.019975 0.090000 0.410000 -6.106302 5.635714 -37.927664 500.000000
-0.260000 0.090000 0.290000 58.142772 132.638856 331.408241 500.000000
0.260000 0.260000 0.410000 -75.781194 -295.471853 -21.570938 500.000000
0.260000 0.260000 0.290000 -438.945653 -19.575410 19.064941 500.000000
0.128566 0.090000 0.290000 77.713192 89.534795 36.324486 500.000000
0.060604 0.090000 0.290000 64.120822 89.452008 36.324567 500.000000
0.260000 0.260000 0.290000 -146.062388 -242.101470 23.048313 500.000000
-0.252741 0.260000 0.290000 -41.314137 -17.128383 36.260145 500.000000
0.260000 0.260000 0.290000 -95.786262 -40.922045 25.799403 500.000000
0.260000 0.090000 0.410000 -100.700390 46.704301 -33.915909 500.000000
0.260000 0.090000 0.410000 -95.187478 45.248987 -34.116577 500.000000
0.077456 0.183182 0.290000 28.486241 10.439360 27.560789 500.000000
0.260000 0.260000 0.290000 -184.518116 -363.846292 29.924021 500.000000
0.260000 0.260000 0.410000 -223.520588 -28.879199 -59.974172 500.000000
0.077419 0.260000 0.290000 -15.648872 -64.483746 19.032358 500.000000
0.041579 0.179493 0.391208 -2.299304 8.631484 9.367497 500.000000
-0.260000 0.090000 0.410000 72.104443 70.873234 -206.155817 500.000000
0.260000 0.256815 0.410000 -31.715205 33.362973 -14.412003 500.000000
0.251880 0.260000 0.290000 37.633181 -26.083499 137.889397 500.000000
0.260000 0.260000 0.290000 -43.819399 -32.017217 125.088247 500.000000
0.030386 0.260000 0.290000 -9.350332 -24.080486 67.501803 500.000000
-0.260000 0.090000 0.410000 68.318106 67.605603 -108.215290 500.000000
-0.260000 0.090000 0.290000 129.597744 34.724289 20.595731 500.000000
-0.260000 0.260000 0.290000 41.728621 -61.358991 299.789067 500.000000
-0.260000 0.260000 0.410000 85.096229 -92.434390 -68.876768 500.000000
0.260000 0.090000 0.410000 -105.976159 46.481478 -34.225440 500.000000
-0.260000 0.090000 0.410000 53.243503 70.079114 -127.987152 500.000000
-0.260000 0.090000 0.410000 168.980015 59.332676 -38.398217 500.000000
-0.260000 0.239738 0.290000 168.434352 29.947672 21.877599 500.000000
-0.108175 0.090000 0.410000 3.426282 25.634277 -18.088563 500.000000
0.260000 0.260000 0.397341 -84.752008 -26.247930 21.468127 500.000000
0.107756 0.090000 0.340715 -4.243925 146.121413 -13.857069 500.000000
0.260000 0.260000 0.399109 -134.255148 -24.301781 21.821702 500.000000
0.260000 0.260000 0.290000 -43.815465 -54.715355 20.482109 500.000000
-0.260000 0.090000 0.290000 60.950269 115.178298 119.870436 500.000000
-0.260000 0.260000 0.410000 21.658074 -17.026980 -20.288043 500.000000
0.260000 0.090000 0.410000 -99.201357 45.245964 -34.107994 500.000000
-0.260000 0.090000 0.292674 19.599521 59.994011 -23.465110 500.000000
0.147605 0.090000 0.290000 81.520989 89.511508 36.332996 500.000000
-0.260000 0.090000 0.410000 132.604661 71.594265 -228.464827 500.000000
-0.260000 0.090000 0.410000 80.315161 220.255031 -263.653182 500.000000
-0.260000 0.260000 0.406526 418.976078 -68.357346 23.305239 500.000000
0.234025 0.260000 0.410000 10.903321 -10.624537 -22.421554 500.000000
0.260000 0.260000 0.407651 -82.378774 -26.468014 23.530267 500.000000
0.260000 0.090000 0.410000 -101.891013 45.247767 -34.107901 500.000000
-0.099980 0.090000 0.290000 32.003962 104.346537 25.365288 500.000000
-0.260000 0.260000 0.290000 55.337453 -778.259284 111.658934 500.000000
-0.260000 0.090000 0.290000 62.728235 132.641915 200.830383 500.000000
0.260000 0.090000 0.290000 -65.286177 190.262135 68.668503 500.000000
0.103660 0.090000 0.290000 72.732078 89.410817 36.358830 500.000000
0.260000 0.090000 0.410000 -161.069800 48.525756 -313.604270 500.000000
0.014799 0.260000 0.410000 54.959884 -40.846683 -14.650765 500.000000
0.197838 0.260000 0.410000 36.439140 -23.151660 -12.606554 500.000000
-0.066905 0.159477 0.410000 5.578942 -20.104592 -21.302640 500.000000
0.260000 0.090000 0.290000 -55.511286 121.346970 12.217459 500.000000
0.260000 0.090000 0.410000 -96.500960 45.249003 -34.115765 500.000000
0.260000 0.090000 0.410000 -38.335151 32.189995 -27.119613 500.000000
-0.260000 0.260000 0.290000 46.137564 -35.295939 46.602762 500.000000
-0.260000 0.090000 0.290000 56.031736 119.519801 22.047997 500.000000
-0.260000 0.090000 0.290000 72.297130 132.896050 415.531150 500.000000
0.260000 0.090000 0.410000 -247.931995 120.138256 -197.424683 500.000000
0.187509 0.090000 0.307443 31.972875 68.719147 -20.511438 500.000000
0.260000 0.260000 0.410000 -244.130179 -27.591634 -50.250773 500.000000
-0.260000 0.090000 0.290000 60.771600 131.965462 111.634818 500.000000
0.086921 0.260000 0.290000 69.384252 -448.783461 36.797004 500.000000
-0.260000 0.260000 0.290000 27.177701 -30.125371 42.917863 500.000000
-0.260000 0.260000 0.290000 91.865027 -39.367203 19.027806 500.000000
0.128560 0.090000 0.290000 77.712046 89.492634 36.324477 500.000000
0.260000 0.090000 0.341123 -97.940163 42.314454 10.224671 500.000000
0.260000 0.260000 0.400351 -126.130301 -26.768584 22.070268 500.000000
-0.260000 0.260000 0.410000 130.779347 -138.562645 -16.754392 500.000000
-0.260000 0.090000 0.290000 64.811029 132.673212 31.106250 500.000000
-0.260000 0.260000 0.392930 240.340226 -77.734014 20.585935 500.000000
-0.260000 0.260000 0.290000 125.150226 -33.459247 19.033765 500.000000
0.260000 0.260000 0.396301 -30.039049 -184.209230 21.260231 500.000000
-0.236133 0.090000 0.410000 -99.226615 71.942716 -279.785329 500.000000
-0.260000 0.260000 0.290000 42.899841 -1.614891 35.566360 500.000000
-0.260000 0.260000 0.290000 249.185811 -37.239245 17.208413 500.000000
-0.150861 0.260000 0.290000 -1.815359 -17.358931 17.931850 500.000000
0.260000 0.090000 0.290000 -31.367314 42.701783 31.366804 500.000000
-0.260000 0.260000 0.290000 91.364283 -54.029348 22.022395 500.000000
0.260000 0.090000 0.356817 -71.094460 316.378527 13.363488 500.000000
0.260000 0.090000 0.410000 -103.884292 45.440966 -34.102672 500.000000
-0.260000 0.090000 0.410000 60.184684 55.745206 -169.731277 500.000000
0.260000 0.260000 0.290000 -190.164981 -99.761285 12.428998 500.000000
0.122532 0.260000 0.290000 -27.493556 -41.002034 22.042490 500.000000
0.260000 0.090000 0.410000 -94.994759 45.772648 -30.288330 500.000000
-0.260000 0.090000 0.410000 72.545843 67.538764 -34.341503 500.000000
-0.260000 0.260000 0.290000 103.547700 -40.079969 19.770326 500.000000
0.260000 0.260000 0.290000 -109.679436 -55.205495 87.720741 500.000000
0.260000 0.260000 0.306031 -116.559117 -95.904256 -20.793870 500.000000
-0.260000 0.090000 0.410000 76.495822 67.543666 -76.749508 500.000000
-0.260000 0.260000 0.406531 375.490219 -68.356011 23.306247 500.000000
0.095297 0.090000 0.366479 71.059410 180.448922 -8.704112 500.000000
-0.202569 0.260000 0.410000 -92.513789 -62.114300 -12.374324 500.000000
0.260000 0.161596 0.290000 -68.547506 -19.680790 19.304991 500.000000
0.260000 0.260000 0.367366 -92.718746 -83.791384 15.473243 500.000000
-0.260000 0.260000 0.410000 80.683583 -92.500305 -68.874977 500.000000
-0.260000 0.260000 0.410000 75.423600 -101.565560 -81.469001 500.000000
-0.220884 0.260000 0.290000 -96.176751 -503.513396 168.174568 500.000000
0.260000 0.260000 0.410000 -95.999043 -30.562848 -158.772182 500.000000
-0.206808 0.111762 0.290000 -7.762836 -29.647670 35.330839 500.000000
-0.260000 0.260000 0.410000 75.407900 -92.438860 -68.886350 500.000000
-0.260000 0.260000 0.290000 67.218674 -47.479118 19.048559 500.000000
0.260000 0.090000 0.410000 -150.938824 57.742281 -128.898373 500.000000
-0.260000 0.090000 0.290000 78.490453 132.681627 74.540856 500.000000
-0.260000 0.260000 0.410000 69.858771 -94.040171 -68.805436 500.000000
-0.260000 0.090000 0.290000 105.832980 444.689831 107.072582 500.000000
0.260000 0.260000 0.290000 -227.984481 -22.294712 57.232907 500.000000
-0.260000 0.090000 0.410000 74.323245 90.978947 -38.992426 500.000000
-0.260000 0.090000 0.410000 970.633911 37.238118 -34.123123 500.000000
-0.260000 0.090000 0.410000 61.723121 68.775042 -146.433021 500.000000
-0.260000 0.090000 0.290000 76.302777 122.106950 163.531104 500.000000
0.260000 0.260000 0.290000 -53.362695 -60.533413 17.948266 500.000000
0.260000 0.260000 0.407537 -90.894078 -26.465620 23.507365 500.000000
-0.260000 0.260000 0.290000 47.396600 -25.473402 150.681622 500.000000
-0.260000 0.260000 0.410000 78.106448 -92.439822 -68.886333 500.000000
-0.260000 0.260000 0.290000 38.406013 -25.378307 54.087508 500.000000
-0.034264 0.090000 0.410000 -58.852736 675.174849 -32.019262 500.000000
0.260000 0.260000 0.410000 -51.662891 -2.021869 -159.922367 500.000000
0.260000 0.113633 0.290000 -69.628493 -29.273417 46.552999 500.000000
0.260000 0.260000 0.290000 -37.781028 -35.671044 31.091715 500.000000
-0.094585 0.090000 0.290000 -7.680578 50.085610 23.658438 500.000000
-0.260000 0.090000 0.290000 82.046045 132.887799 115.293519 500.000000
0.260000 0.090000 0.410000 -96.982559 51.949388 -34.430152 500.000000
-0.260000 0.260000 0.290000 91.581623 -39.291492 19.027850 500.000000
-0.260000 0.143994 0.290000 44.979777 -23.201245 35.581106 500.000000
-0.260000 0.090000 0.290000 78.521813 122.187184 114.050844 500.000000
0.260000 0.090000 0.410000 -161.592194 37.446092 -36.249482 500.000000
-0.260000 0.260000 0.316797 88.522075 -42.799690 -18.640683 500.000000
0.260000 0.090000 0.290000 -285.432184 110.207225 228.075805 500.000000
-0.260000 0.090000 0.290000 55.284740 120.291354 111.912126 500.000000
-0.260000 0.260000 0.290000 89.772435 -275.917742 82.313002 500.000000
-0.260000 0.090000 0.410000 83.170120 71.267791 -207.991295 500.000000
-0.259182 0.090000 0.290000 -103.836489 131.227286 117.736023 500.000000
-0.260000 0.260000 0.290000 68.550388 -24.175912 85.350021 500.000000
0.260000 0.260000 0.290000 -54.092858 -31.543139 39.462594 500.000000
-0.038117 0.260000 0.290000 -36.422666 -62.507751 19.064687 500.000000
0.260000 0.090000 0.410000 -99.025882 46.728085 -30.295926 500.000000
-0.260000 0.260000 0.410000 69.973146 -92.428086 -68.894477 500.000000
-0.003058 0.090000 0.328636 -9.510373 31.173739 7.727141 500.000000
0.260000 0.090000 0.410000 -34.210297 300.392143 -36.571117 500.000000
-0.220863 0.090000 0.410000 -96.172625 70.431930 -214.830647 500.000000
0.128646 0.126543 0.290000 -26.270797 -26.691439 129.972061 500.000000
0.260000 0.090000 0.410000 -102.369804 45.244881 -34.085973 500.000000
-0.260000 0.260000 0.410000 65.158298 -90.879469 -70.118497 500.000000
0.260000 0.260000 0.401493 -94.534768 -25.527510 22.298661 500.000000
0.260000 0.090000 0.410000 -104.163208 45.470184 -34.104135 500.000000
-0.260000 0.090000 0.410000 59.677368 69.990400 -212.625509 500.000000
0.260000 0.090000 0.410000 -101.299628 47.359895 -33.976716 500.000000
-0.260000 0.090000 0.410000 979.921790 112.871117 -52.041054 500.000000
-0.169794 0.132909 0.290000 1.763909 8.581775 21.660539 500.000000
0.260000 0.260000 0.290000 -154.576607 -27.296092 94.905106 500.000000
0.260000 0.090000 0.410000 -96.312726 45.452593 -109.168573 500.000000
-0.260000 0.260000 0.410000 77.549678 -92.147287 -89.567325 500.000000
-0.260000 0.260000 0.290000 54.479803 -18.417759 26.212641 500.000000
0.260000 0.260000 0.325112 -79.641066 -39.048996 -16.977601 500.000000
-0.260000 0.090000 0.410000 59.882425 59.483233 -208.089295 500.000000
-0.260000 0.090000 0.290000 74.879727 132.923971 371.889934 500.000000
0.260000 0.260000 0.407670 -85.069025 -26.460398 23.533987 500.000000
-0.260000 0.090000 0.410000 72.967165 55.883700 -174.425551 500.000000
-0.260000 0.090000 0.290000 67.379363 132.638876 287.787144 500.000000
-0.260000 0.090000 0.290000 70.016953 132.884023 457.416257 500.000000
-0.260000 0.248388 0.290000 82.498158 31.677674 16.670645 500.000000
