ply
format ascii 1.0
element vertex 240
property float x
property float y
property float z
property float vx
property float vy
property float vz
property float density
end_header
-0.260000 0.260000 0.290000 161.765477 -90.569110 33.895671 500.000000
0.260000 0.190802 0.410000 -21.041913 20.160376 -83.506804 500.000000
-0.160122 0.090000 0.410000 -84.024412 50.592856 -14.566848 500.000000
0.260000 0.090000 0.410000 -52.131858 35.911908 -17.610500 500.000000
0.260000 0.198299 0.290000 -59.052918 21.659784 13.385931 500.000000
-0.260000 0.260000 0.290000 51.290581 -22.603976 84.614090 500.000000
-0.260000 0.090000 0.290000 84.947440 69.455568 19.993064 500.000000
0.260000 0.104133 0.410000 -46.609935 -31.173489 -20.425815 500.000000
0.260000 0.260000 0.290000 -67.870244 -65.073442 30.009302 500.000000
-0.260000 0.260000 0.410000 30.931710 -22.447039 -60.425521 500.000000
-0.260000 0.090000 0.410000 60.779489 94.532345 -126.507222 500.000000
-0.005304 0.090000 0.303487 -53.060779 28.666997 -21.302575 500.000000
0.054885 0.090000 0.290000 11.714467 36.559663 13.588088 500.000000
0.260000 0.090000 0.290000 -78.594037 35.541559 37.728381 500.000000
-0.260000 0.153529 0.290000 149.081668 -21.294292 23.773638 500.000000
-0.260000 0.260000 0.410000 88.503091 -28.905937 -20.562461 500.000000
-0.260000 0.260000 0.290000 116.803865 -166.696606 33.591768 500.000000
0.260000 0.139566 0.320614 -34.174038 -24.086890 -17.877121 500.000000
-0.260000 0.260000 0.410000 66.182191 -158.012360 -24.040512 500.000000
-0.241859 0.260000 0.410000 -79.731271 -45.185783 -13.188183 500.000000
0.260000 0.260000 0.290000 -66.776129 -43.259867 54.040415 500.000000
-0.081341 0.090000 0.410000 -38.873448 30.885346 -44.054992 500.000000
-0.260000 0.260000 0.290000 42.159121 -66.404470 24.651050 500.000000
-0.260000 0.090000 0.410000 110.729759 88.045658 -53.850899 500.000000
-0.130500 0.090000 0.290000 -78.100087 7.307677 20.751196 500.000000
-0.260000 0.090000 0.290000 70.998690 142.882603 21.746756 500.000000
0.260000 0.192211 0.290000 -180.114637 13.682889 21.821688 500.000000
-0.260000 0.090000 0.299585 27.838162 20.646362 -22.082932 500.000000
0.260000 0.090000 0.410000 -62.308946 42.991065 -19.827017 500.000000
0.092109 0.196155 0.290000 25.720490 -12.769093 61.199802 500.000000
0.260000 0.260000 0.290000 -143.741148 -81.204567 41.084690 500.000000
-0.009578 0.090000 0.410000 -53.915539 39.748653 -270.621509 500.000000
-0.169096 0.090000 0.290000 -85.819218 45.868793 44.565850 500.000000
-0.063538 0.260000 0.290000 39.292428 -300.599706 17.455704 500.000000
0.260000 0.131109 0.290000 -261.809991 -25.778144 23.887600 500.000000
-0.260000 0.260000 0.410000 43.840428 -29.758788 -43.162007 500.000000
-0.007436 0.174709 0.290000 -33.781455 -17.058130 45.623311 500.000000
-0.260000 0.260000 0.410000 38.075474 -38.907994 -39.878596 500.000000
0.140960 0.090000 0.290000 -6.917273 55.567804 24.224322 500.000000
-0.250057 0.260000 0.410000 -102.011398 -134.697177 -64.794241 500.000000
-0.060920 0.260000 0.410000 10.421500 -75.118600 -14.812907 500.000000
0.260000 0.090000 0.290000 -55.568207 39.405455 25.677141 500.000000
0.015435 0.090000 0.290000 55.087049 47.022844 13.897675 500.000000
0.260000 0.090000 0.290000 -49.633173 27.570072 22.300726 500.000000
0.260000 0.090000 0.290000 -155.115267 50.365705 19.461562 500.000000
-0.260000 0.260000 0.290000 84.750350 -27.560056 77.187575 500.000000
0.008622 0.090000 0.410000 13.381533 48.832723 -38.861752 500.000000
-0.145646 0.124165 0.410000 22.870809 -27.167049 -8.084464 500.000000
0.260000 0.260000 0.410000 -42.334008 -28.134526 -57.048503 500.000000
-0.105219 0.090000 0.290000 -9.398780 69.262488 16.657551 500.000000
-0.260000 0.260000 0.301971 21.981561 -101.867497 -21.605795 500.000000
-0.260000 0.090000 0.290000 33.547045 34.423637 31.315275 500.000000
-0.260000 0.260000 0.290000 64.679997 -108.454655 26.890069 500.000000
-0.260000 0.090000 0.410000 90.119986 19.147376 -36.450585 500.000000
0.260000 0.260000 0.410000 -16.882021 -52.728205 -37.707521 500.000000
0.122755 0.090000 0.333113 76.550930 16.306922 -4.931079 500.000000
-0.260000 0.090000 0.410000 66.493316 93.756302 -37.531896 500.000000
0.260000 0.260000 0.290000 -83.665661 -67.307790 22.947071 500.000000
0.260000 0.260000 0.303201 -63.159408 -45.173948 -21.359817 500.000000
0.260000 0.260000 0.290000 -80.659778 -35.728975 24.134399 500.000000
0.260000 0.260000 0.290000 -183.763601 -92.254480 30.353844 500.000000
0.260000 0.260000 0.410000 -94.443982 -82.295278 -98.532684 500.000000
0.260000 0.143844 0.290000 -146.736901 -23.231202 23.932166 500.000000
0.260000 0.090000 0.290000 -52.832084 39.563227 25.359872 500.000000
0.100780 0.260000 0.410000 35.435319 -46.959176 -40.460543 500.000000
-0.109100 0.090000 0.384713 -28.991857 31.449541 18.942599 500.000000
0.260000 0.090000 0.410000 -53.173350 26.495584 -38.250103 500.000000
0.022558 0.115974 0.290000 -15.967066 -28.805182 24.531284 500.000000
0.260000 0.260000 0.290000 -120.132566 -93.466363 23.822693 500.000000
0.260000 0.090000 0.290000 -245.034321 78.510345 13.017534 500.000000
0.204349 0.260000 0.410000 92.869827 -119.583938 -54.490527 500.000000
-0.260000 0.090000 0.410000 73.757595 93.295694 -20.713042 500.000000
0.149234 0.090000 0.410000 81.846808 140.737209 -42.583361 500.000000
-0.260000 0.260000 0.410000 58.922923 -25.310764 -45.740172 500.000000
0.260000 0.090000 0.410000 -89.567595 38.340556 -42.620575 500.000000
-0.034107 0.260000 0.290000 -27.308402 -84.976422 68.915283 500.000000
-0.075757 0.090000 0.290000 -67.151488 66.778295 29.631009 500.000000
0.260000 0.156937 0.364962 -34.508671 -20.612560 4.457687 500.000000
0.260000 0.090000 0.290000 -151.233467 150.462141 19.285478 500.000000
0.260000 0.260000 0.290000 -80.929745 -67.465565 22.629815 500.000000
0.260000 0.090000 0.410000 -84.413547 35.830024 -16.318874 500.000000
0.260000 0.090000 0.410000 -91.190109 37.657219 -45.827199 500.000000
-0.260000 0.260000 0.410000 58.511014 -167.920863 -30.667270 500.000000
0.260000 0.090000 0.410000 -98.590625 40.371198 -73.396466 500.000000
0.022905 0.260000 0.410000 -47.419062 -36.022279 -43.741990 500.000000
-0.098188 0.260000 0.290000 -48.192853 -35.013341 49.228432 500.000000
-0.260000 0.260000 0.290000 77.329955 -91.368578 17.901537 500.000000
0.260000 0.260000 0.290000 -73.989468 -85.932140 71.136546 500.000000
0.260000 0.090000 0.410000 -97.840162 41.588160 -13.811462 500.000000
-0.022925 0.260000 0.410000 -56.584978 -47.935793 -52.431544 500.000000
-0.117513 0.090000 0.290000 9.554576 30.206485 21.459868 500.000000
-0.042273 0.090000 0.290000 -60.454537 47.462568 35.839920 500.000000
-0.260000 0.090000 0.410000 55.681956 88.880541 -53.025519 500.000000
-0.260000 0.121220 0.290000 54.894483 -27.756064 39.198673 500.000000
-0.213867 0.090000 0.290000 -94.773355 51.365827 44.478440 500.000000
0.260000 0.099998 0.290000 -62.317614 -32.000442 23.864772 500.000000
-0.133801 0.260000 0.410000 -78.760228 -64.286904 -19.517059 500.000000
-0.046415 0.260000 0.410000 -61.283017 -46.185674 -43.812792 500.000000
0.260000 0.176113 0.410000 -27.241732 17.222513 -28.880747 500.000000
0.191843 0.260000 0.410000 90.368514 -70.226819 -75.585897 500.000000
-0.226823 0.090000 0.290000 -97.364676 51.351560 60.701269 500.000000
0.034799 0.090000 0.327286 -45.040171 70.536911 -16.542733 500.000000
0.260000 0.090000 0.290000 -56.416140 38.469100 24.574735 500.000000
-0.260000 0.090000 0.290000 358.640634 25.964048 22.399907 500.000000
-0.128141 0.090000 0.290000 -77.628223 66.209693 48.388558 500.000000
0.260000 0.202940 0.290000 -33.434866 22.588100 30.950611 500.000000
0.260000 0.260000 0.290000 -55.500949 -34.515488 24.036650 500.000000
-0.260000 0.090000 0.290000 138.506313 89.941379 20.096333 500.000000
0.260000 0.260000 0.410000 -32.134522 -54.596493 -31.083334 500.000000
0.260000 0.260000 0.290000 -114.097456 -40.214527 24.602637 500.000000
-0.260000 0.090000 0.410000 62.788754 90.032350 -26.940983 500.000000
0.093159 0.090000 0.290000 70.631885 52.771386 24.057999 500.000000
0.260000 0.260000 0.290000 -221.190866 -97.645124 37.032178 500.000000
0.260000 0.090000 0.290000 -63.457764 31.895024 55.748866 500.000000
0.260000 0.090000 0.290000 -44.708599 34.666333 22.435148 500.000000
-0.260000 0.156500 0.290000 142.650487 -20.700099 23.796025 500.000000
-0.260000 0.260000 0.290000 69.872773 -97.284778 38.549681 500.000000
0.260000 0.260000 0.290000 -31.468860 -51.440350 18.267029 500.000000
0.260000 0.260000 0.290000 -84.513699 -66.371469 21.844700 500.000000
-0.260000 0.260000 0.290000 235.058584 -36.515005 24.285097 500.000000
-0.206971 0.090000 0.290000 -1.336440 17.038326 36.286144 500.000000
0.190911 0.260000 0.298210 45.243546 -18.892053 -22.357958 500.000000
-0.260000 0.090000 0.290000 69.510328 44.056541 43.354003 500.000000
0.260000 0.139595 0.290000 -223.840209 -24.080920 23.893469 500.000000
0.021326 0.090000 0.290000 56.265174 52.856956 38.609510 500.000000
-0.260000 0.226944 0.290000 19.889775 27.388793 40.913945 500.000000
-0.096877 0.090000 0.290000 -41.422091 133.154458 19.617989 500.000000
0.260000 0.260000 0.290000 -194.029923 -33.702360 24.012628 500.000000
-0.260000 0.090000 0.410000 303.946139 36.909169 -19.538933 500.000000
-0.260000 0.123964 0.290000 186.525991 -27.207166 22.939055 500.000000
0.260000 0.260000 0.410000 -102.752576 -85.885678 -34.206363 500.000000
-0.260000 0.260000 0.290000 83.908093 -105.612778 23.059641 500.000000
0.260000 0.260000 0.290000 -61.295732 -56.057963 26.798097 500.000000
-0.125998 0.097303 0.410000 8.454942 -32.539363 -47.457668 500.000000
-0.260000 0.153313 0.290000 78.259320 -21.337328 23.742162 500.000000
0.260000 0.090000 0.290000 -214.648347 39.065143 22.796348 500.000000
0.260000 0.260000 0.290000 -71.382879 -51.424126 39.123293 500.000000
-0.260000 0.260000 0.290000 83.827953 -25.070939 20.013735 500.000000
-0.260000 0.090000 0.290000 55.005178 125.256103 15.260967 500.000000
0.260000 0.090000 0.290000 -108.274188 17.810584 21.078593 500.000000
-0.118200 0.090000 0.410000 -22.376911 32.658163 -13.745963 500.000000
0.260000 0.090000 0.410000 -89.876494 40.432281 -45.832651 500.000000
-0.260000 0.260000 0.410000 193.030738 -60.556657 -29.225248 500.000000
-0.190941 0.090000 0.410000 -90.188170 90.601544 -75.029671 500.000000
0.099403 0.205660 0.410000 71.880685 17.935049 -49.298807 500.000000
0.260000 0.260000 0.290000 -59.497124 -36.951121 39.286425 500.000000
0.260000 0.260000 0.290000 -62.390210 -73.680669 22.969128 500.000000
-0.260000 0.260000 0.290000 74.523834 -40.426022 24.240306 500.000000
0.260000 0.237224 0.410000 -49.921402 29.444742 -13.319157 500.000000
0.260000 0.090000 0.410000 -111.787307 63.194821 -54.449754 500.000000
0.110034 0.260000 0.290000 -9.260419 -29.920401 35.943253 500.000000
-0.260000 0.260000 0.290000 244.069338 -17.580555 15.896441 500.000000
0.260000 0.090000 0.410000 -92.048458 38.718658 -45.761794 500.000000
0.260000 0.090000 0.290000 -62.260336 25.335975 38.795834 500.000000
0.082921 0.090000 0.290000 68.584101 45.778518 25.699195 500.000000
-0.260000 0.090000 0.290000 108.557444 30.869955 22.378120 500.000000
-0.260000 0.260000 0.410000 98.801338 -28.263790 -48.842124 500.000000
0.260000 0.199510 0.410000 -93.475050 21.901933 -43.672257 500.000000
-0.042232 0.090000 0.410000 -60.446482 142.754652 -22.413552 500.000000
-0.246851 0.260000 0.410000 -101.370138 -46.807589 -71.879954 500.000000
0.181149 0.260000 0.327822 88.229881 -66.565679 -16.435661 500.000000
-0.260000 0.260000 0.410000 37.603136 -31.797096 -7.132373 500.000000
-0.260000 0.090000 0.290000 193.237671 26.271412 22.443734 500.000000
-0.260000 0.090000 0.290000 65.926340 45.150646 44.139123 500.000000
0.260000 0.260000 0.410000 -58.322481 -100.877450 -43.796535 500.000000
0.101888 0.090000 0.410000 42.268449 28.880872 -26.021389 500.000000
0.260000 0.211930 0.410000 -24.887980 24.386009 -40.963574 500.000000
-0.260000 0.090000 0.290000 36.737355 30.514148 23.057359 500.000000
-0.260000 0.260000 0.290000 223.031518 -36.504182 21.659354 500.000000
0.088076 0.260000 0.306476 56.850280 -44.522788 -20.704876 500.000000
-0.115132 0.260000 0.410000 -75.026308 -45.236923 -54.211232 500.000000
0.260000 0.260000 0.410000 -52.785485 -69.731413 -21.234654 500.000000
0.234391 0.090000 0.410000 98.878124 53.503215 -42.592846 500.000000
0.260000 0.260000 0.410000 -43.556289 -35.562349 -20.711107 500.000000
-0.035274 0.260000 0.410000 44.945224 -80.773623 -44.192078 500.000000
-0.157244 0.260000 0.290000 -11.041299 -38.761111 24.892686 500.000000
0.260000 0.090000 0.317739 -161.433718 54.901402 -18.452281 500.000000
-0.260000 0.090000 0.290000 274.407433 29.546737 12.467162 500.000000
-0.260000 0.260000 0.290000 158.719797 -36.052712 24.310917 500.000000
-0.260000 0.090000 0.290000 54.133730 41.365627 18.732773 500.000000
0.260000 0.260000 0.410000 -95.248252 -82.729267 -23.734691 500.000000
-0.260000 0.090000 0.290000 68.661849 44.992841 44.456369 500.000000
0.047296 0.090000 0.290000 -42.540898 44.356596 32.274444 500.000000
-0.260000 0.146250 0.290000 94.252310 -22.750091 23.773661 500.000000
-0.031785 0.090000 0.290000 45.642925 53.499928 27.954106 500.000000
0.121357 0.260000 0.410000 1.937267 -68.670170 -151.256292 500.000000
-0.260000 0.090000 0.410000 40.098832 48.210369 -27.703420 500.000000
-0.260000 0.260000 0.290000 55.763193 -38.815437 16.669139 500.000000
-0.043048 0.090000 0.410000 -23.862008 18.927675 -55.225796 500.000000
0.260000 0.090000 0.290000 -26.179677 480.120698 13.996141 500.000000
0.260000 0.090000 0.290000 -63.911628 16.717825 15.895783 500.000000
0.028183 0.090000 0.399986 -12.205583 48.765863 21.997199 500.000000
-0.260000 0.260000 0.290000 126.222211 -35.749462 15.173797 500.000000
0.260000 0.090000 0.401214 -68.622350 21.759310 22.242749 500.000000
0.024420 0.260000 0.410000 12.065723 -41.866648 -62.809651 500.000000
-0.027121 0.090000 0.410000 -57.424184 19.405967 -32.661287 500.000000
0.260000 0.090000 0.410000 -94.745612 81.835698 -21.528044 500.000000
-0.260000 0.090000 0.290000 55.894691 99.860406 18.610940 500.000000
-0.260000 0.260000 0.290000 53.931436 -92.552172 12.826740 500.000000
0.260000 0.090000 0.290000 -59.503115 156.229754 19.134510 500.000000
-0.244151 0.260000 0.290000 -73.288576 -30.990741 73.682674 500.000000
-0.260000 0.090000 0.410000 148.310952 48.018999 -40.058945 500.000000
-0.212594 0.260000 0.290000 -69.446286 -97.879882 42.607508 500.000000
0.159748 0.090000 0.410000 83.949610 38.877392 -63.811633 500.000000
0.260000 0.260000 0.290000 -57.913177 -68.183672 23.056538 500.000000
0.260000 0.090000 0.290000 -168.691445 97.386362 18.285436 500.000000
-0.260000 0.260000 0.290000 269.481935 -37.512280 24.381764 500.000000
0.260000 0.260000 0.410000 -34.445260 -16.427259 -23.230616 500.000000
0.260000 0.090000 0.410000 -95.763288 69.547298 -18.041167 500.000000
-0.069346 0.134750 0.290000 -20.990521 8.949941 24.341345 500.000000
-0.260000 0.260000 0.290000 54.487246 -232.271029 24.725858 500.000000
-0.108382 0.260000 0.290000 30.323661 -49.384323 49.095903 500.000000
0.038149 0.090000 0.290000 59.629781 40.281355 25.786607 500.000000
0.260000 0.260000 0.290000 -89.801493 -228.107132 17.588142 500.000000
-0.260000 0.090000 0.290000 401.071096 23.415141 22.391974 500.000000
0.260000 0.090000 0.410000 -34.044533 15.609666 -17.895830 500.000000
-0.146805 0.090000 0.290000 -81.360945 44.073759 75.647081 500.000000
-0.036972 0.260000 0.410000 24.858203 -34.498004 -39.860653 500.000000
0.260000 0.090000 0.290000 -119.161225 75.535219 17.464090 500.000000
-0.122335 0.260000 0.410000 27.532919 -121.683013 -52.598944 500.000000
0.260000 0.090000 0.290000 -120.038156 108.980078 29.289370 500.000000
-0.234667 0.260000 0.323261 -9.830017 -30.680254 -17.347746 500.000000
-0.260000 0.090000 0.410000 28.271921 21.770942 -14.187891 500.000000
-0.206950 0.090000 0.410000 -93.390047 105.133694 -21.930957 500.000000
-0.190071 0.200700 0.290000 -9.589535 22.139980 13.393972 500.000000
-0.260000 0.260000 0.290000 147.959989 -28.073898 73.372871 500.000000
0.260000 0.260000 0.290000 -124.545452 -34.405858 24.056527 500.000000
-0.260000 0.152228 0.410000 24.294689 -21.554366 -14.613956 500.000000
-0.235565 0.090000 0.290000 -99.113042 58.093655 50.427068 500.000000
0.260000 0.260000 0.410000 -17.343699 -41.367735 -30.958640 500.000000
-0.260000 0.259079 0.410000 9.150926 33.815774 -118.413614 500.000000
0.167581 0.090000 0.337631 85.516104 305.976738 -14.473738 500.000000
0.260000 0.260000 0.290000 -31.663648 -42.867279 24.237548 500.000000
0.260000 0.090000 0.410000 -40.122643 24.711564 -59.695858 500.000000
0.260000 0.090000 0.290000 -205.158829 35.790722 22.505724 500.000000
-0.260000 0.258036 0.410000 34.182444 33.607156 -22.640473 500.000000
0.260000 0.090000 0.290000 -127.525913 38.008387 34.895403 500.000000
-0.260000 0.108797 0.292970 11.106835 -30.240684 -23.406001 500.000000
-0.111069 0.139903 0.410000 -30.944805 -24.019452 -14.248911 500.000000
0.260000 0.245126 0.410000 -74.225422 31.025262 -14.372765 500.000000
