ply
format ascii 1.0
element vertex 240
property float x
property float y
property float z
property float vx
property float vy
property float vz
property float density
end_header
-0.245568 0.260000 0.290000 -101.113615 -181.547311 286.464283 500.000000
-0.260000 0.090000 0.410000 60.334956 46.512844 -107.626518 500.000000
-0.252199 0.260000 0.290000 -43.491829 -12.226382 80.042649 500.000000
-0.260000 0.090000 0.290000 97.790556 45.194515 383.468787 500.000000
0.260000 0.090000 0.410000 -49.823263 30.782790 -15.222354 500.000000
0.260000 0.090000 0.290000 -61.490471 209.346572 17.653168 500.000000
0.260000 0.126307 0.410000 -76.596181 -26.738651 -600.079769 500.000000
0.063727 0.260000 0.290000 -2.213180 -61.290913 40.589059 500.000000
0.260000 0.260000 0.410000 -345.964010 -30.068451 -413.743138 500.000000
-0.186646 0.260000 0.410000 -89.329219 -52.021901 -36.365267 500.000000
0.259424 0.090000 0.410000 103.884863 26.649616 -15.982191 500.000000
0.031910 0.090000 0.401887 58.381983 23.830857 22.377490 500.000000
-0.059936 0.171294 0.290000 -14.786735 -17.741135 17.542351 500.000000
-0.207134 0.090000 0.410000 -93.426798 23.373639 -626.617953 500.000000
-0.122544 0.260000 0.410000 -76.508829 -187.867363 -513.901197 500.000000
-0.260000 0.260000 0.290000 53.676332 -186.313268 373.260023 500.000000
-0.217502 0.260000 0.290000 -95.500497 -186.299282 286.445313 500.000000
0.260000 0.260000 0.410000 -85.638401 -23.103062 -15.767146 500.000000
-0.208653 0.260000 0.410000 -93.730502 -60.485066 -34.093798 500.000000
0.260000 0.090000 0.290000 -143.070208 97.221989 169.088092 500.000000
-0.163068 0.260000 0.290000 -84.613593 -182.637974 283.216433 500.000000
0.032040 0.260000 0.410000 58.407904 -54.852939 -29.047353 500.000000
0.260000 0.260000 0.290000 -468.199189 -96.919971 27.075947 500.000000
-0.091518 0.137326 0.410000 33.696400 -24.534849 -20.215272 500.000000
0.143264 0.090000 0.410000 80.652887 22.274452 -13.077954 500.000000
-0.260000 0.090000 0.290000 61.926218 21.516278 186.343268 500.000000
-0.140146 0.090000 0.290000 -80.029281 19.389114 197.261133 500.000000
0.116082 0.109851 0.410000 75.216472 -30.029773 -89.776343 500.000000
-0.260000 0.090000 0.410000 188.010210 45.730578 -118.855138 500.000000
0.260000 0.090000 0.336780 -82.228132 22.533557 -14.643974 500.000000
-0.260000 0.090000 0.290000 55.738894 179.598153 72.239229 500.000000
0.062865 0.227864 0.410000 64.572996 27.572806 -42.589852 500.000000
-0.260000 0.137715 0.290000 95.953781 -24.457093 198.411153 500.000000
0.118243 0.260000 0.410000 -6.674715 -43.304838 -14.912897 500.000000
0.233394 0.260000 0.290000 98.678829 -82.687289 35.105499 500.000000
-0.194705 0.260000 0.410000 -90.940968 -52.478364 -35.287528 500.000000
0.005644 0.260000 0.410000 53.128850 -68.116392 -14.402517 500.000000
-0.191106 0.260000 0.410000 -90.221171 -53.049537 -35.082549 500.000000
0.260000 0.260000 0.410000 -30.207203 -130.856559 -24.027211 500.000000
0.213084 0.260000 0.410000 94.616835 -43.550956 -19.961531 500.000000
0.057011 0.260000 0.290000 63.402273 -36.473667 49.451463 500.000000
-0.260000 0.090000 0.290000 68.207675 21.552225 186.462419 500.000000
0.260000 0.260000 0.410000 -126.260152 -76.272918 -103.964268 500.000000
-0.260000 0.090000 0.410000 54.983056 22.741336 -352.056776 500.000000
0.148013 0.092936 0.290000 -8.838150 -33.412702 20.113252 500.000000
0.260000 0.090000 0.290000 -84.346922 244.908911 13.546934 500.000000
-0.260000 0.260000 0.410000 69.763252 -42.918170 -14.651652 500.000000
-0.260000 0.208532 0.410000 52.863243 23.706425 -136.651244 500.000000
0.260000 0.260000 0.404093 -60.253803 -19.995005 22.818623 500.000000
0.016320 0.260000 0.410000 -48.735984 -230.415118 -85.851403 500.000000
0.260000 0.260000 0.410000 -73.951198 -41.921754 -87.738143 500.000000
0.260000 0.098266 0.290000 -115.858309 -32.346793 159.948498 500.000000
-0.184966 0.260000 0.290000 -88.993226 -182.663748 286.026985 500.000000
-0.260000 0.260000 0.290000 41.036291 -34.479146 7.013525 500.000000
-0.260000 0.260000 0.290000 61.607488 -40.440712 425.559483 500.000000
0.260000 0.218972 0.410000 -57.935735 25.794483 -12.923639 500.000000
0.080224 0.090000 0.404821 68.044738 26.601196 22.964214 500.000000
0.260000 0.260000 0.410000 -136.567024 -179.001999 -512.688132 500.000000
0.227652 0.090000 0.410000 22.965972 106.578965 -101.575297 500.000000
-0.260000 0.090000 0.290000 66.203959 180.474353 186.587935 500.000000
-0.260000 0.260000 0.290000 197.870465 -41.998415 292.549209 500.000000
-0.260000 0.224950 0.410000 20.615922 26.990020 -26.017763 500.000000
0.168314 0.260000 0.410000 -18.337289 -33.032866 -430.380318 500.000000
-0.260000 0.090000 0.410000 76.930414 23.103748 -778.522384 500.000000
0.260000 0.090000 0.410000 -103.536311 137.243283 -17.434826 500.000000
0.260000 0.105969 0.290000 -125.587930 -30.806196 172.554173 500.000000
-0.260000 0.090000 0.410000 68.998508 44.624111 -104.518931 500.000000
0.217359 0.260000 0.290000 95.471800 -72.421136 36.182133 500.000000
-0.260000 0.260000 0.410000 55.392494 -34.422184 -469.036154 500.000000
0.260000 0.090000 0.290000 -57.248290 45.120840 26.792701 500.000000
-0.136996 0.260000 0.410000 -79.399195 -47.820675 -35.994696 500.000000
-0.260000 0.260000 0.290000 17.238493 -37.871946 12.541780 500.000000
-0.157286 0.107523 0.410000 20.542719 -30.495428 -19.535090 500.000000
-0.204121 0.260000 0.410000 -92.824128 -52.200679 -35.448479 500.000000
0.260000 0.090000 0.410000 -59.778325 26.656043 -37.195017 500.000000
-0.152560 0.090000 0.410000 -82.512083 37.373420 -70.698004 500.000000
-0.260000 0.107295 0.290000 50.280764 -30.541028 19.116203 500.000000
-0.260000 0.260000 0.290000 34.553033 -84.239738 30.600646 500.000000
-0.260000 0.090000 0.290000 75.653825 25.384988 199.853066 500.000000
-0.260000 0.260000 0.410000 79.539396 -179.161002 -410.795338 500.000000
0.260000 0.090000 0.410000 -59.456562 26.499313 -35.553026 500.000000
0.260000 0.090000 0.410000 -59.879617 26.613383 -37.395203 500.000000
-0.203863 0.260000 0.410000 -92.772699 -61.103641 -34.507498 500.000000
0.260000 0.090000 0.410000 -60.341624 26.782814 -39.116327 500.000000
-0.260000 0.090000 0.410000 26.628892 36.256380 -13.473151 500.000000
0.112897 0.190446 0.410000 -29.420662 -13.910842 -293.298889 500.000000
-0.192862 0.260000 0.290000 -90.572477 -181.597214 285.465909 500.000000
-0.189927 0.219068 0.316090 -6.870523 25.813589 -18.781986 500.000000
0.260000 0.090000 0.410000 -60.294774 26.858788 -35.396491 500.000000
-0.260000 0.156198 0.410000 38.052898 -20.760467 -19.783587 500.000000
0.210195 0.260000 0.410000 39.119448 -100.269380 -118.394886 500.000000
0.256667 0.260000 0.410000 57.339547 -89.945142 -43.619790 500.000000
0.127690 0.090000 0.403234 77.537927 26.296737 22.646762 500.000000
0.260000 0.260000 0.290000 -56.197527 -91.733712 36.269419 500.000000
0.260000 0.090000 0.290000 -114.524298 29.752825 171.243721 500.000000
-0.092641 0.260000 0.410000 -70.528232 -250.645659 -373.090091 500.000000
0.115643 0.090000 0.290000 38.452202 168.964088 59.514403 500.000000
0.260000 0.090000 0.389856 -92.456536 37.083974 19.971102 500.000000
-0.260000 0.090000 0.410000 335.019959 44.904096 -106.410440 500.000000
-0.163793 0.260000 0.410000 -84.758565 -44.515158 -37.311700 500.000000
0.260000 0.090000 0.290000 -127.060054 31.239713 172.627520 500.000000
-0.260000 0.090000 0.410000 143.833020 44.215254 -112.896458 500.000000
-0.260000 0.090000 0.290000 56.225374 21.493802 186.602128 500.000000
-0.260000 0.090000 0.290000 75.752133 21.602587 186.383807 500.000000
-0.260000 0.090000 0.290000 27.475198 22.355970 30.952014 500.000000
-0.098065 0.226425 0.334751 32.387011 27.284923 8.950210 500.000000
-0.260000 0.090000 0.290000 56.804749 172.403398 186.769498 500.000000
-0.260000 0.090000 0.410000 62.001472 25.694637 -1034.834580 500.000000
0.260000 0.201429 0.390595 -19.922553 22.285863 20.119015 500.000000
-0.033597 0.090000 0.410000 -58.719444 20.626742 -1.884955 500.000000
-0.260000 0.155646 0.290000 49.774099 -20.870898 97.895298 500.000000
-0.085770 0.260000 0.410000 34.846019 -57.763530 -216.430086 500.000000
0.208967 0.260000 0.290000 93.793492 -67.506293 37.388144 500.000000
-0.260000 0.090000 0.304362 11.965482 28.388460 -21.127695 500.000000
-0.127948 0.090000 0.410000 26.410462 18.444549 -357.393031 500.000000
-0.113172 0.260000 0.410000 -74.634425 -194.973914 -589.508362 500.000000
-0.188208 0.260000 0.290000 -89.641505 -181.966511 286.754792 500.000000
-0.260000 0.090000 0.290000 59.446757 420.018469 188.398335 500.000000
-0.203982 0.090000 0.410000 -17.256917 8.625756 -10.364286 500.000000
-0.260000 0.090000 0.290000 60.165376 329.517480 190.102153 500.000000
0.255209 0.260000 0.290000 103.041774 -103.067876 34.961121 500.000000
-0.012335 0.090000 0.290000 -14.793202 18.652982 16.389430 500.000000
0.260000 0.125224 0.335145 -33.261538 -26.955249 -14.970970 500.000000
0.209694 0.260000 0.290000 93.938808 -78.605053 35.062822 500.000000
0.044821 0.260000 0.410000 -43.035809 -85.946229 -52.230974 500.000000
-0.260000 0.090000 0.323997 67.125318 63.845052 -17.200611 500.000000
-0.260000 0.090000 0.410000 229.201113 40.875251 -224.157589 500.000000
-0.260000 0.090000 0.331080 72.035115 71.014288 -15.784031 500.000000
-0.260000 0.090000 0.290000 68.762959 17.963662 239.138172 500.000000
-0.249515 0.260000 0.410000 -101.902930 -207.921637 -500.962401 500.000000
-0.112905 0.260000 0.410000 29.418973 -22.549597 -18.759978 500.000000
-0.196969 0.260000 0.290000 -91.393708 -182.486355 285.787885 500.000000
0.260000 0.090000 0.410000 -67.178754 171.828673 -52.277459 500.000000
-0.260000 0.090000 0.290000 37.975827 29.447677 9.712610 500.000000
-0.198310 0.215969 0.410000 -63.978450 25.193740 -78.914909 500.000000
-0.260000 0.090000 0.290000 62.063832 35.733021 23.854379 500.000000
0.046103 0.090000 0.290000 61.220679 327.472146 18.720630 500.000000
0.260000 0.090000 0.290000 -36.675245 245.418183 13.867896 500.000000
0.174115 0.090000 0.410000 86.822995 23.119657 -672.516556 500.000000
0.260000 0.118969 0.290000 -64.347283 -28.206187 19.509026 500.000000
0.260000 0.090000 0.410000 -55.490140 27.011833 -33.332139 500.000000
0.260000 0.090000 0.410000 -59.797609 26.786628 -37.395544 500.000000
-0.260000 0.260000 0.410000 54.784239 -54.401034 -34.417474 500.000000
0.260000 0.090000 0.410000 -59.251002 26.517106 -34.893257 500.000000
-0.016914 0.260000 0.410000 22.376069 -48.079849 -22.760176 500.000000
-0.234189 0.090000 0.290000 -98.837734 211.115689 186.879167 500.000000
-0.260000 0.260000 0.290000 164.232091 -41.851981 21.065653 500.000000
-0.191111 0.260000 0.290000 -90.222154 -178.417318 285.861583 500.000000
-0.027270 0.090000 0.410000 -57.454001 57.417453 -213.349629 500.000000
0.260000 0.090000 0.410000 -61.165481 28.207672 -37.933501 500.000000
0.073167 0.090000 0.410000 -37.366669 29.498802 -357.967416 500.000000
-0.201854 0.090000 0.290000 -92.370702 203.067790 190.829077 500.000000
0.260000 0.090000 0.410000 -59.933203 26.679648 -37.391120 500.000000
-0.260000 0.090000 0.290000 58.075240 20.674110 187.109535 500.000000
0.225240 0.174300 0.362826 44.200153 16.860087 14.565258 500.000000
0.260000 0.090000 0.290000 -396.109050 20.091166 156.492415 500.000000
-0.229016 0.260000 0.410000 -97.803243 -52.385033 -35.642130 500.000000
-0.260000 0.260000 0.290000 60.331341 -239.124883 53.803389 500.000000
-0.260000 0.090000 0.290000 793.682231 28.915140 256.722880 500.000000
0.260000 0.090000 0.410000 -53.077458 49.345071 -22.347324 500.000000
-0.260000 0.090000 0.410000 60.360303 245.066093 -124.666966 500.000000
-0.106679 0.260000 0.410000 -73.335748 -52.629342 -104.123420 500.000000
-0.260000 0.090000 0.290000 65.426526 21.621775 186.386543 500.000000
0.260000 0.103596 0.290000 -117.046463 -31.280879 157.849882 500.000000
0.260000 0.260000 0.410000 -162.559210 -38.365228 -14.403548 500.000000
0.023534 0.260000 0.410000 -28.193995 -46.915194 -12.140145 500.000000
-0.200057 0.090000 0.290000 -92.011392 33.184018 86.105877 500.000000
0.260000 0.115299 0.290000 -98.767174 -28.940115 158.383733 500.000000
-0.260000 0.090000 0.290000 59.409422 372.775372 189.938284 500.000000
0.260000 0.090000 0.410000 -109.511227 51.588611 -13.394670 500.000000
-0.260000 0.090000 0.410000 61.010699 22.984057 -116.354177 500.000000
-0.173967 0.260000 0.290000 -86.793465 -186.022968 286.372343 500.000000
-0.260000 0.090000 0.410000 93.981231 49.876639 -115.396598 500.000000
0.184400 0.260000 0.290000 88.880078 -41.825656 27.105491 500.000000
-0.065853 0.260000 0.410000 17.854918 -15.621173 -18.931112 500.000000
0.260000 0.189755 0.351462 -41.967410 -14.049081 12.292410 500.000000
0.260000 0.090000 0.410000 -61.741592 26.851919 -83.089652 500.000000
-0.260000 0.090000 0.410000 68.220065 23.041910 -798.437097 500.000000
-0.260000 0.090000 0.290000 55.100586 398.547310 190.103625 500.000000
0.260000 0.090000 0.410000 -141.452508 17.300986 -676.832997 500.000000
0.023541 0.219080 0.290000 9.418542 25.816007 93.702635 500.000000
0.260000 0.113936 0.290000 -105.783408 -29.212889 157.869689 500.000000
-0.260000 0.134174 0.290000 71.794168 -25.165231 199.407399 500.000000
0.260000 0.260000 0.290000 -151.032314 -65.531165 34.537432 500.000000
-0.111544 0.260000 0.410000 29.691296 -45.745811 -22.081317 500.000000
-0.048628 0.260000 0.410000 -61.725602 -44.743402 -34.550172 500.000000
-0.260000 0.260000 0.290000 68.573228 -89.843775 317.406709 500.000000
-0.179400 0.260000 0.290000 -87.880030 -178.316783 285.388982 500.000000
-0.045964 0.090000 0.352174 42.807178 115.846632 12.434727 500.000000
-0.111011 0.090000 0.410000 29.797735 77.491982 -113.036647 500.000000
0.260000 0.090000 0.290000 -125.766522 28.153899 157.777929 500.000000
0.260000 0.090000 0.290000 -103.449240 18.320139 173.913214 500.000000
-0.260000 0.090000 0.290000 52.802158 430.221327 189.533275 500.000000
-0.192526 0.133538 0.290000 -90.505190 -25.292376 264.611298 500.000000
0.139444 0.197780 0.410000 -6.938412 -12.443985 -19.876074 500.000000
0.068166 0.090000 0.290000 -38.366788 49.075631 49.265819 500.000000
0.260000 0.090000 0.410000 -60.101584 29.371404 -35.878230 500.000000
0.005024 0.090000 0.410000 15.756285 25.199983 -53.343160 500.000000
-0.178257 0.260000 0.290000 -87.651349 -181.671096 285.149134 500.000000
-0.260000 0.090000 0.290000 70.143505 28.844797 186.474559 500.000000
0.260000 0.090000 0.290000 -170.015881 62.728012 163.541867 500.000000
0.260000 0.090000 0.410000 -246.206983 21.526627 -19.352747 500.000000
0.260000 0.260000 0.290000 -59.658918 -67.118566 35.263290 500.000000
0.171130 0.260000 0.410000 86.226010 -264.528758 -12.903577 500.000000
-0.260000 0.260000 0.410000 102.215011 -179.207733 -517.394277 500.000000
-0.140904 0.090000 0.290000 -80.180830 21.394697 199.321806 500.000000
-0.260000 0.260000 0.290000 57.280601 -178.235438 285.870413 500.000000
-0.260000 0.260000 0.290000 148.034618 -45.721569 19.829756 500.000000
0.260000 0.090000 0.410000 -60.165116 28.604251 -35.660547 500.000000
-0.260000 0.208463 0.290000 41.473979 -10.307316 6.274666 500.000000
-0.178604 0.260000 0.290000 -87.720738 -190.392518 285.891892 500.000000
0.260000 0.090000 0.290000 -108.196292 17.305363 157.103210 500.000000
0.063394 0.260000 0.410000 64.678828 -8.805400 -6.856082 500.000000
0.260000 0.260000 0.410000 -52.150683 -172.491327 -28.885383 500.000000
-0.260000 0.090000 0.290000 78.400938 21.443466 186.383311 500.000000
-0.260000 0.090000 0.290000 56.692794 43.860670 457.644378 500.000000
0.120208 0.260000 0.410000 40.438383 -33.720902 -11.199914 500.000000
-0.260000 0.179304 0.410000 33.496398 17.860759 -16.748948 500.000000
-0.260000 0.090000 0.290000 76.641780 20.017531 199.261296 500.000000
-0.127759 0.260000 0.290000 -35.593414 -32.135475 32.920461 500.000000
-0.150884 0.090000 0.290000 -82.176750 22.105293 199.999450 500.000000
-0.260000 0.090000 0.410000 56.609201 26.956081 -43.854783 500.000000
0.222707 0.090000 0.320269 4.025645 9.235818 6.053879 500.000000
-0.260000 0.090000 0.290000 688.416047 26.596977 287.093027 500.000000
-0.134115 0.090000 0.410000 -42.325072 18.955419 -22.983614 500.000000
0.260000 0.090000 0.290000 -515.046435 220.634374 51.543004 500.000000
-0.148904 0.147951 0.410000 -45.654554 -22.409792 -28.562902 500.000000
-0.260000 0.090000 0.410000 17.401148 11.613235 -10.126028 500.000000
0.260000 0.090000 0.290000 -133.966418 33.216962 172.477824 500.000000
0.260000 0.240607 0.290000 -34.719723 30.121471 115.589350 500.000000
-0.260000 0.090000 0.410000 57.596363 96.417335 -119.354270 500.000000
-0.020763 0.090000 0.410000 47.847498 25.431296 -18.274652 500.000000
0.260000 0.090000 0.290000 -99.477523 20.465884 158.957940 500.000000
0.260000 0.090000 0.410000 -323.984881 37.761551 -21.025106 500.000000
-0.260000 0.090000 0.290000 79.894518 35.116867 22.667456 500.000000
-0.260000 0.090000 0.290000 63.146042 78.820782 251.344419 500.000000
-0.125772 0.106858 0.290000 -64.484927 -30.628436 21.550435 500.000000
0.035458 0.260000 0.398621 9.950866 -70.090760 21.724219 500.000000
0.203077 0.221475 0.290000 36.898139 26.295052 46.146404 500.000000
-0.150013 0.090000 0.410000 -82.002603 47.311489 -398.032540 500.000000
