ply
format ascii 1.0
element vertex 240
property float x
property float y
property float z
property float vx
property float vy
property float vz
property float density
end_header
-0.148112 0.260000 0.410000 -81.622392 -85.926731 -48.837522 500.000000
0.207978 0.260000 0.290000 13.264359 -78.641409 33.574571 500.000000
0.260000 0.260000 0.410000 -92.477514 -24.445776 -49.875533 500.000000
0.260000 0.260000 0.410000 -79.572023 -74.953058 -52.239542 500.000000
-0.131851 0.260000 0.290000 -40.098429 -38.353111 29.357087 500.000000
-0.150390 0.260000 0.290000 -82.078005 -83.216825 35.402031 500.000000
-0.260000 0.090000 0.290000 193.054861 52.234861 136.394097 500.000000
0.004892 0.260000 0.290000 52.978372 -41.851801 33.336007 500.000000
0.260000 0.260000 0.290000 -48.388975 -90.651617 38.546148 500.000000
0.260000 0.260000 0.290000 -45.893671 -97.866257 36.782124 500.000000
0.099986 0.090000 0.410000 71.997180 315.574309 -75.828016 500.000000
0.123199 0.178763 0.290000 -27.360110 17.752679 39.697869 500.000000
0.120517 0.171993 0.290000 39.778202 -17.601444 5.690375 500.000000
0.260000 0.090000 0.290000 -67.493208 88.686720 24.512758 500.000000
-0.179327 0.260000 0.290000 16.134638 -455.359615 23.575509 500.000000
0.260000 0.090000 0.410000 -57.604627 76.222042 -69.329316 500.000000
0.255603 0.260000 0.410000 103.120628 -403.383826 -31.133206 500.000000
0.260000 0.246139 0.332615 -131.631577 31.227833 -15.476983 500.000000
-0.260000 0.260000 0.410000 59.276319 -20.290873 -32.482893 500.000000
-0.260000 0.260000 0.410000 81.170352 -73.176259 -41.262097 500.000000
0.260000 0.260000 0.410000 -74.808175 -98.485782 -17.320089 500.000000
0.190382 0.260000 0.290000 30.492794 -100.834149 35.384729 500.000000
0.260000 0.260000 0.290000 -163.900648 -70.225723 190.618564 500.000000
-0.068341 0.090000 0.410000 -65.668285 250.330650 -128.082849 500.000000
-0.260000 0.090000 0.410000 236.827157 21.643443 -75.469097 500.000000
-0.260000 0.090000 0.410000 139.532148 89.298009 -71.052200 500.000000
0.153158 0.260000 0.410000 82.631628 -153.158706 -15.377751 500.000000
0.153078 0.090000 0.290000 82.615637 71.191483 24.619174 500.000000
-0.218864 0.260000 0.410000 -95.772806 -27.095612 -95.974105 500.000000
0.260000 0.260000 0.290000 -61.024328 -43.656533 32.177593 500.000000
0.260000 0.260000 0.410000 -79.244187 -76.000872 -49.813189 500.000000
0.260000 0.260000 0.410000 -13.159771 -9.685417 -6.824057 500.000000
-0.175750 0.090000 0.410000 -87.149952 51.096337 -78.062115 500.000000
0.260000 0.090000 0.386189 -74.646155 91.177553 19.237757 500.000000
0.260000 0.090000 0.410000 -57.219348 75.547155 -66.692829 500.000000
-0.221175 0.260000 0.293433 -96.235034 -238.088526 -23.313351 500.000000
0.007075 0.090000 0.290000 -4.183974 28.023386 17.718701 500.000000
-0.034916 0.104537 0.410000 -0.344374 -31.092565 -19.206622 500.000000
-0.177886 0.126950 0.290000 -87.577288 -9.957169 18.928692 500.000000
0.260000 0.171847 0.410000 -38.162962 -17.630667 -13.727686 500.000000
0.018795 0.090000 0.290000 55.758984 470.397456 281.264960 500.000000
-0.260000 0.090000 0.410000 105.407036 78.594123 -71.246307 500.000000
-0.260000 0.090000 0.410000 72.235358 33.274285 -929.129099 500.000000
0.260000 0.090000 0.290000 -1158.363791 58.260908 124.708377 500.000000
-0.120045 0.260000 0.410000 1.575499 -28.996738 -79.536076 500.000000
0.171947 0.260000 0.290000 86.389335 -45.631091 90.389080 500.000000
-0.256875 0.090000 0.410000 -103.374942 50.797355 -79.270571 500.000000
0.260000 0.090000 0.410000 -1100.803375 150.878402 -187.885841 500.000000
0.260000 0.260000 0.410000 -77.403985 -78.949600 -52.149391 500.000000
0.112785 0.090000 0.410000 74.557086 42.257667 -271.023539 500.000000
-0.260000 0.260000 0.310069 173.712279 -19.175219 -19.986237 500.000000
0.260000 0.090000 0.410000 -59.893676 79.554423 -67.067200 500.000000
0.198119 0.260000 0.410000 91.623870 -334.966136 -26.726864 500.000000
-0.226370 0.260000 0.410000 -97.274063 -41.701410 -51.052173 500.000000
0.260000 0.260000 0.410000 -78.060892 -88.126368 -50.919147 500.000000
0.260000 0.090000 0.410000 -109.315394 370.430217 -107.269720 500.000000
-0.260000 0.090000 0.410000 54.116692 50.305117 -75.586930 500.000000
-0.260000 0.090000 0.290000 176.375769 58.538795 130.944751 500.000000
-0.260000 0.260000 0.336000 166.571062 -18.970606 -14.799941 500.000000
0.260000 0.260000 0.410000 -79.325773 -76.007703 -50.704654 500.000000
0.260000 0.260000 0.410000 -79.352342 -85.922061 -49.882294 500.000000
-0.117613 0.090000 0.410000 2.725043 71.220871 -79.614866 500.000000
0.260000 0.260000 0.290000 -81.354242 -87.009559 40.673843 500.000000
0.260000 0.090000 0.290000 -57.979961 78.772273 25.517032 500.000000
0.260000 0.260000 0.290000 -20.747540 -79.325184 34.465867 500.000000
0.260000 0.090000 0.410000 -60.896748 77.333096 -61.713331 500.000000
-0.260000 0.090000 0.290000 342.460020 60.060332 130.675981 500.000000
0.260000 0.090000 0.410000 -56.627361 75.447462 -66.701221 500.000000
0.260000 0.260000 0.290000 -57.953071 -111.592531 30.938952 500.000000
0.260000 0.260000 0.410000 -79.021971 -76.631600 -48.235867 500.000000
0.260000 0.260000 0.290000 -134.563472 -88.354824 44.962813 500.000000
-0.260000 0.194691 0.410000 101.063179 20.938126 -32.993451 500.000000
0.165269 0.260000 0.410000 85.053860 -144.425164 -28.114341 500.000000
0.260000 0.260000 0.410000 -37.194416 -11.675574 -66.912724 500.000000
-0.260000 0.090000 0.290000 170.293966 115.826950 129.473265 500.000000
-0.220528 0.260000 0.410000 -96.105554 -52.251797 -128.403141 500.000000
-0.118398 0.090000 0.290000 28.320471 58.191396 24.195973 500.000000
0.260000 0.090000 0.410000 -57.455531 75.426218 -66.657747 500.000000
-0.260000 0.090000 0.410000 303.840564 68.779353 -76.333885 500.000000
-0.260000 0.090000 0.290000 170.868980 49.876472 137.746996 500.000000
-0.260000 0.090000 0.290000 170.280093 147.726300 129.437275 500.000000
-0.260000 0.090000 0.290000 170.291652 126.511796 129.468490 500.000000
0.158148 0.260000 0.410000 41.809558 -65.214751 -7.093041 500.000000
-0.260000 0.090000 0.290000 170.307626 94.682366 129.507171 500.000000
0.186379 0.090000 0.410000 22.461939 27.514903 -36.981152 500.000000
-0.260000 0.090000 0.410000 80.875111 50.181531 -957.317467 500.000000
0.260000 0.090000 0.410000 -57.881265 76.187208 -68.701049 500.000000
-0.260000 0.260000 0.290000 78.010532 -663.996924 136.958216 500.000000
-0.260000 0.090000 0.290000 170.312850 62.346764 129.489596 500.000000
-0.007767 0.260000 0.327094 -53.553459 -317.495583 -16.581160 500.000000
-0.260000 0.090000 0.290000 182.913770 50.952088 129.492694 500.000000
0.180480 0.090000 0.290000 88.095948 74.291418 30.723208 500.000000
0.260000 0.260000 0.290000 -41.687124 -5.465789 15.821697 500.000000
-0.109558 0.090000 0.290000 -37.316778 35.341536 72.798764 500.000000
-0.260000 0.260000 0.410000 106.036266 -73.115661 -41.118117 500.000000
0.260000 0.090000 0.290000 -56.928416 76.007499 32.453966 500.000000
-0.260000 0.260000 0.410000 98.209553 -31.419468 -49.077224 500.000000
0.260000 0.090000 0.410000 -55.025249 76.251381 -73.234616 500.000000
0.182919 0.251411 0.347152 -15.416223 32.282228 -12.569616 500.000000
0.142174 0.260000 0.334597 -23.565176 -17.980567 -15.080583 500.000000
0.260000 0.260000 0.410000 -78.474289 -76.560505 -48.272769 500.000000
-0.033438 0.090000 0.410000 45.312341 35.553617 -64.215320 500.000000
-0.260000 0.090000 0.410000 135.282910 100.081416 -70.921247 500.000000
-0.260000 0.090000 0.410000 124.310320 67.975306 -71.551709 500.000000
0.106422 0.090000 0.290000 -30.715536 28.151662 366.106474 500.000000
-0.033476 0.260000 0.290000 -58.695142 -30.250152 52.389796 500.000000
0.260000 0.260000 0.410000 -79.252497 -75.944782 -50.706069 500.000000
0.260000 0.090000 0.290000 -63.332032 79.688696 27.959343 500.000000
0.030042 0.090000 0.290000 58.008375 69.186971 28.467910 500.000000
0.260000 0.090000 0.290000 -54.872162 70.323972 363.792860 500.000000
0.260000 0.090000 0.290000 -298.682505 81.374030 103.467363 500.000000
-0.018446 0.260000 0.290000 48.310709 -42.061610 31.418315 500.000000
0.260000 0.090000 0.410000 -58.416453 75.411093 -66.710623 500.000000
0.184890 0.260000 0.290000 88.977954 -92.381840 46.417161 500.000000
-0.260000 0.090000 0.290000 169.155779 138.637378 130.428454 500.000000
0.112297 0.090000 0.290000 74.459445 70.351284 24.872754 500.000000
0.184781 0.260000 0.410000 88.956223 -132.191644 -22.709531 500.000000
0.260000 0.260000 0.410000 -79.273094 -77.875195 -50.718768 500.000000
0.192342 0.260000 0.290000 90.468334 -47.917897 35.190470 500.000000
0.260000 0.260000 0.410000 -79.278696 -77.169647 -50.732051 500.000000
0.260000 0.090000 0.410000 -58.430569 75.873818 -66.691704 500.000000
-0.161129 0.260000 0.410000 -84.225736 -22.625158 -146.530783 500.000000
-0.260000 0.090000 0.290000 193.460003 48.777655 132.999430 500.000000
0.260000 0.090000 0.410000 -57.130969 75.497739 -66.692494 500.000000
0.039545 0.090000 0.290000 59.908918 67.895434 29.154369 500.000000
-0.260000 0.090000 0.290000 165.198139 98.968350 129.301526 500.000000
-0.005656 0.260000 0.290000 -53.131127 -29.306785 27.601274 500.000000
0.260000 0.260000 0.290000 -20.664924 -82.032886 38.510411 500.000000
-0.260000 0.090000 0.410000 126.728176 123.569337 -71.001618 500.000000
0.260000 0.090000 0.290000 -172.580909 79.785531 27.353878 500.000000
-0.008823 0.114973 0.410000 -6.180911 -29.005406 -15.806017 500.000000
0.260000 0.090000 0.410000 -58.406333 76.191057 -68.701592 500.000000
0.260000 0.260000 0.290000 -50.083156 -80.089431 34.737499 500.000000
0.260000 0.260000 0.410000 -78.195971 -21.564858 -49.004999 500.000000
0.260000 0.260000 0.290000 -115.109173 -42.874992 31.479888 500.000000
0.260000 0.090000 0.410000 -55.617374 146.183328 -64.040900 500.000000
-0.260000 0.090000 0.290000 24.778900 31.146834 30.763114 500.000000
-0.098471 0.090000 0.410000 -71.694182 26.135715 -19.160844 500.000000
-0.169209 0.260000 0.325283 -66.811566 -419.688249 -16.943365 500.000000
-0.260000 0.090000 0.290000 170.581559 53.334505 180.939938 500.000000
-0.260000 0.090000 0.290000 170.286733 52.261777 129.496680 500.000000
-0.260000 0.090000 0.290000 170.303666 83.787104 129.494330 500.000000
-0.260000 0.090000 0.290000 171.491398 49.414477 128.828692 500.000000
-0.260000 0.090000 0.290000 170.279776 136.906600 129.434754 500.000000
-0.260000 0.260000 0.290000 56.573655 -28.266748 31.282132 500.000000
-0.155961 0.260000 0.410000 -83.192193 -34.277525 -49.813955 500.000000
-0.125481 0.260000 0.290000 -77.096160 -23.675454 20.064781 500.000000
0.260000 0.090000 0.410000 -56.869213 76.162973 -68.704489 500.000000
0.260000 0.090000 0.410000 -736.302827 28.791633 -247.751566 500.000000
-0.260000 0.090000 0.290000 170.423047 47.855350 129.721759 500.000000
0.260000 0.232564 0.326473 -198.809708 28.512809 -16.705397 500.000000
-0.260000 0.247071 0.410000 485.929519 31.414112 -71.307546 500.000000
-0.260000 0.090000 0.290000 170.296894 105.038918 129.478307 500.000000
-0.260000 0.090000 0.290000 136.627934 117.114281 661.621279 500.000000
0.157499 0.090000 0.290000 31.600964 49.712048 505.979854 500.000000
0.042903 0.191537 0.290000 -43.419439 20.307456 538.302930 500.000000
0.260000 0.260000 0.290000 -104.524974 -248.496331 24.914293 500.000000
0.260000 0.090000 0.410000 -57.656513 76.633792 -66.838649 500.000000
0.260000 0.090000 0.410000 -59.729681 125.456126 -65.639879 500.000000
-0.260000 0.090000 0.290000 172.342100 85.688121 135.475616 500.000000
0.256191 0.260000 0.290000 33.724689 -83.194647 33.707613 500.000000
0.260000 0.260000 0.290000 -116.796619 -82.141206 30.078414 500.000000
-0.260000 0.090000 0.410000 116.678644 57.176370 -71.180282 500.000000
0.260000 0.090000 0.410000 -54.610886 79.238487 -67.051348 500.000000
0.260000 0.260000 0.290000 -100.777184 -99.777215 36.348350 500.000000
-0.260000 0.198218 0.410000 107.397800 21.643539 -37.936249 500.000000
0.260000 0.260000 0.410000 -65.532485 -313.412985 -20.360741 500.000000
0.260000 0.090000 0.410000 -54.010489 78.608238 -67.036231 500.000000
0.260000 0.260000 0.410000 -79.272803 -77.506887 -50.730773 500.000000
-0.260000 0.260000 0.290000 57.373336 -78.583481 34.434369 500.000000
0.260000 0.090000 0.410000 -91.441661 42.321583 -44.025508 500.000000
0.260000 0.260000 0.410000 -66.790398 -43.851576 -19.740017 500.000000
0.224524 0.260000 0.290000 19.843890 -15.644673 9.035632 500.000000
0.260000 0.260000 0.410000 -79.127783 -93.477486 -47.813100 500.000000
0.013278 0.191363 0.290000 54.655682 20.272620 28.867848 500.000000
-0.015847 0.090000 0.410000 -55.169465 68.328977 -71.762296 500.000000
-0.260000 0.090000 0.290000 170.323620 73.225434 129.860299 500.000000
0.084424 0.090000 0.290000 68.884886 70.004814 34.600297 500.000000
0.260000 0.260000 0.410000 -79.239211 -77.707805 -50.732062 500.000000
-0.260000 0.090000 0.290000 170.412718 134.244987 133.414641 500.000000
0.260000 0.260000 0.290000 -68.956769 -58.837340 33.914565 500.000000
0.260000 0.090000 0.410000 -54.813675 78.699928 -67.035729 500.000000
0.260000 0.260000 0.410000 -56.962798 -488.629319 -29.971479 500.000000
-0.040032 0.260000 0.410000 43.993549 -40.321854 -335.306795 500.000000
-0.260000 0.260000 0.410000 482.609620 -62.424480 -84.804348 500.000000
-0.260000 0.136929 0.337322 105.797239 9.385757 -14.535524 500.000000
0.260000 0.090000 0.410000 -57.720772 75.469911 -68.893852 500.000000
0.201906 0.090000 0.410000 92.381164 54.783353 -42.418168 500.000000
0.260000 0.260000 0.410000 -59.703133 -21.144683 -65.137021 500.000000
0.260000 0.260000 0.290000 -30.258301 -80.219292 34.824755 500.000000
0.260000 0.260000 0.410000 -82.596196 -76.555726 -47.793584 500.000000
-0.260000 0.260000 0.410000 211.513495 -68.793563 -36.800599 500.000000
0.260000 0.260000 0.410000 -79.221293 -77.954737 -50.727616 500.000000
-0.260000 0.260000 0.410000 150.294593 -59.209841 -52.985385 500.000000
-0.132600 0.090000 0.410000 -78.519998 39.003204 -78.980051 500.000000
-0.061539 0.260000 0.410000 39.692121 -30.720500 -36.197223 500.000000
0.260000 0.260000 0.290000 -57.479406 -35.104048 29.254910 500.000000
-0.260000 0.260000 0.410000 131.911960 -40.992642 -62.521660 500.000000
0.260000 0.260000 0.410000 -56.014471 -59.594381 -18.719900 500.000000
0.260000 0.090000 0.410000 -54.080023 135.934221 -65.089603 500.000000
0.260000 0.260000 0.410000 -81.516679 -28.004343 -47.447558 500.000000
-0.260000 0.090000 0.290000 171.425839 143.646908 128.683937 500.000000
-0.010594 0.260000 0.290000 49.881210 -37.772533 46.706491 500.000000
0.120663 0.260000 0.410000 76.132657 -42.848383 -16.529537 500.000000
0.260000 0.090000 0.290000 -34.116872 30.135145 21.576183 500.000000
0.116529 0.090000 0.290000 75.305792 48.232967 991.350656 500.000000
0.260000 0.090000 0.410000 -57.632728 76.159063 -68.647977 500.000000
0.170264 0.260000 0.290000 -17.947240 -22.762415 19.127695 500.000000
0.260000 0.090000 0.290000 -26.770043 408.927075 53.786172 500.000000
-0.260000 0.090000 0.410000 149.202340 57.682727 -1087.631995 500.000000
0.260000 0.260000 0.410000 -70.425110 -55.676709 -17.128931 500.000000
-0.260000 0.260000 0.410000 170.240646 -69.630585 -47.218192 500.000000
-0.260000 0.260000 0.410000 255.248763 -65.683308 -56.317757 500.000000
-0.260000 0.090000 0.290000 185.102558 49.155140 134.252968 500.000000
-0.260000 0.090000 0.410000 109.151314 110.693011 -71.600778 500.000000
0.260000 0.260000 0.410000 -79.251624 -74.942660 -52.817816 500.000000
0.141114 0.260000 0.318947 -23.777103 -65.037283 -18.210534 500.000000
-0.260000 0.260000 0.358210 183.250049 -207.973446 13.642076 500.000000
-0.260000 0.090000 0.410000 129.530828 124.241411 -71.155849 500.000000
-0.067844 0.260000 0.290000 38.431221 -34.780719 64.417817 500.000000
0.260000 0.090000 0.410000 -65.845402 75.127876 -60.683986 500.000000
0.260000 0.090000 0.410000 -258.835341 55.613365 -65.030989 500.000000
-0.260000 0.260000 0.410000 52.041580 -23.880419 -182.295556 500.000000
0.260000 0.090000 0.410000 -58.600144 132.955965 -65.781112 500.000000
0.255168 0.090000 0.410000 103.033504 76.119211 -90.126500 500.000000
0.260000 0.260000 0.410000 -74.272649 -24.574816 -48.609061 500.000000
0.140475 0.090000 0.410000 80.095056 17.691333 -48.023464 500.000000
0.031567 0.200082 0.410000 -45.686581 22.016318 -37.363069 500.000000
-0.260000 0.260000 0.410000 53.167897 -72.293838 -41.445086 500.000000
0.033399 0.260000 0.290000 58.679851 -90.623650 293.701620 500.000000
-0.047265 0.260000 0.290000 -39.653110 -79.051765 33.665957 500.000000
0.260000 0.090000 0.290000 -1088.249432 48.336275 197.444864 500.000000
0.235756 0.260000 0.290000 99.151245 -91.104834 483.726885 500.000000
-0.260000 0.090000 0.290000 173.434376 55.983469 131.866739 500.000000
0.260000 0.090000 0.410000 -55.562105 153.281476 -64.017706 500.000000
0.260000 0.260000 0.410000 -79.301934 -75.215210 -51.209497 500.000000
-0.260000 0.260000 0.290000 39.793198 -29.096877 21.047452 500.000000
0.260000 0.090000 0.410000 -56.833773 75.332522 -66.334251 500.000000
0.260000 0.090000 0.410000 -55.795347 145.705877 -63.400740 500.000000
0.260000 0.090000 0.290000 -104.310113 148.927473 26.962157 500.000000
