ply
format ascii 1.0
element vertex 240
property float x
property float y
property float z
property float vx
property float vy
property float vz
property float density
end_header
0.260000 0.090000 0.290000 -68.332690 76.119608 21.008454 500.000000
-0.260000 0.260000 0.410000 195.985980 -85.645564 -16.657411 500.000000
-0.174285 0.260000 0.290000 -86.856960 -27.023668 22.784562 500.000000
-0.002626 0.090000 0.290000 51.474876 52.135853 96.988354 500.000000
-0.033861 0.090000 0.356206 45.227792 78.239723 -10.758723 500.000000
-0.162504 0.090000 0.410000 -84.500787 63.062008 -188.260125 500.000000
0.183418 0.260000 0.410000 88.683693 -29.440467 -142.712317 500.000000
0.216631 0.260000 0.410000 95.326133 -30.077457 -123.388515 500.000000
0.260000 0.090000 0.290000 -82.029726 65.878982 31.482065 500.000000
0.260000 0.090000 0.371025 -88.580778 503.604532 16.204903 500.000000
0.168639 0.260000 0.410000 85.727765 -224.235462 -131.432542 500.000000
-0.260000 0.203725 0.410000 142.349496 22.745099 -20.076145 500.000000
0.186292 0.260000 0.290000 89.258441 -29.375876 789.896241 500.000000
-0.260000 0.090000 0.318239 80.017669 19.809209 -18.352217 500.000000
0.230597 0.260000 0.410000 98.119403 -35.016964 -121.993256 500.000000
-0.260000 0.260000 0.290000 33.447762 -101.838118 19.896200 500.000000
-0.260000 0.260000 0.290000 62.104820 -335.215779 22.743820 500.000000
0.255323 0.260000 0.410000 103.064554 -44.175278 -121.223777 500.000000
-0.026003 0.106467 0.290000 -57.200695 -30.706652 20.159762 500.000000
-0.233113 0.090000 0.290000 -98.622502 58.866098 18.281347 500.000000
-0.260000 0.090000 0.410000 62.316237 19.919670 -60.841829 500.000000
0.260000 0.260000 0.410000 -54.521676 -101.398202 -146.840620 500.000000
-0.115342 0.090000 0.290000 -75.068388 62.881275 16.349048 500.000000
-0.260000 0.090000 0.290000 54.637341 60.492802 15.290171 500.000000
0.253729 0.260000 0.410000 102.745858 -37.884481 -144.013340 500.000000
-0.260000 0.090000 0.410000 86.741578 120.811143 -23.521244 500.000000
-0.260000 0.260000 0.290000 56.468194 -28.383194 21.678982 500.000000
-0.260000 0.219235 0.410000 116.824575 25.847030 -25.113639 500.000000
-0.260000 0.260000 0.410000 125.602421 -19.187966 -17.917831 500.000000
-0.260000 0.260000 0.410000 172.843600 -17.632753 -58.105814 500.000000
-0.260000 0.260000 0.410000 96.266357 -67.397592 -13.430221 500.000000
-0.221641 0.260000 0.316472 -9.862928 -57.040699 -18.705567 500.000000
-0.260000 0.260000 0.290000 60.496671 -43.128048 70.519475 500.000000
-0.260000 0.260000 0.290000 75.414832 -20.022800 66.338601 500.000000
0.260000 0.090000 0.410000 -64.808372 144.252037 -51.404843 500.000000
0.260000 0.260000 0.410000 -59.127544 -36.004499 -144.780546 500.000000
0.122769 0.260000 0.290000 76.553886 -26.162681 8.010809 500.000000
-0.260000 0.260000 0.290000 47.971274 -28.716181 20.319554 500.000000
0.260000 0.090000 0.290000 -110.319529 66.372657 27.875285 500.000000
-0.160815 0.090000 0.290000 -84.162982 118.831498 236.285459 500.000000
-0.260000 0.260000 0.360205 119.176412 -131.082749 14.041015 500.000000
-0.260000 0.260000 0.410000 492.098040 -188.549765 -16.803460 500.000000
-0.260000 0.090000 0.410000 68.848567 21.374609 -17.670991 500.000000
0.260000 0.260000 0.410000 -55.130983 -36.024109 -131.977244 500.000000
-0.260000 0.160114 0.341096 32.301425 -19.977161 -13.780741 500.000000
-0.260000 0.090000 0.410000 63.254755 18.991276 -53.670258 500.000000
-0.260000 0.260000 0.290000 62.338958 -43.227786 70.114983 500.000000
-0.069493 0.260000 0.410000 38.101393 -20.094483 -125.557504 500.000000
0.260000 0.260000 0.410000 -157.493034 -31.810855 -133.713798 500.000000
0.260000 0.090000 0.290000 -63.766211 167.625759 16.438307 500.000000
-0.260000 0.260000 0.290000 60.766824 -43.119121 70.555201 500.000000
-0.260000 0.260000 0.410000 306.483281 -162.834393 -16.807441 500.000000
-0.260000 0.260000 0.290000 60.580217 -43.119609 70.721875 500.000000
-0.046702 0.260000 0.410000 -61.340346 -90.872773 -33.911112 500.000000
-0.162198 0.090000 0.290000 -84.439591 79.065915 16.327735 500.000000
-0.260000 0.090000 0.410000 56.160265 120.810527 -24.065831 500.000000
0.200534 0.124444 0.290000 92.106729 -3.210770 47.673785 500.000000
0.231649 0.260000 0.410000 98.329840 -35.166337 -121.187637 500.000000
0.260000 0.090000 0.410000 -54.487723 39.730554 -33.771288 500.000000
-0.260000 0.090000 0.290000 93.628226 69.244316 16.421995 500.000000
-0.260000 0.090000 0.290000 83.795372 90.061794 16.591103 500.000000
0.260000 0.260000 0.410000 -89.021642 -30.882995 -122.072908 500.000000
0.219534 0.090000 0.410000 95.906886 38.080432 -32.437213 500.000000
0.260000 0.260000 0.410000 -67.733180 -113.415022 -131.455288 500.000000
-0.014278 0.174793 0.290000 -54.855685 -17.041316 123.939806 500.000000
0.260000 0.260000 0.410000 -52.042203 -44.471358 -121.229409 500.000000
0.260000 0.090000 0.290000 -66.391432 66.698431 61.428348 500.000000
-0.144650 0.090000 0.410000 -80.930069 121.060714 -45.853025 500.000000
0.260000 0.090000 0.290000 -502.059751 119.575022 29.346375 500.000000
0.044083 0.090000 0.410000 30.589973 10.828697 -66.057649 500.000000
-0.260000 0.260000 0.290000 127.199394 -40.321680 66.344376 500.000000
-0.260000 0.090000 0.410000 62.676044 19.574287 -53.826635 500.000000
-0.260000 0.260000 0.290000 60.719496 -52.502472 65.559232 500.000000
-0.016605 0.145020 0.410000 24.043298 -22.995909 -58.969457 500.000000
-0.110809 0.090000 0.290000 -74.161848 67.684692 35.870822 500.000000
-0.260000 0.090000 0.410000 62.838134 18.549020 -53.716903 500.000000
-0.191249 0.090000 0.290000 -90.249814 59.889053 42.386608 500.000000
0.125376 0.161150 0.290000 -26.924743 -19.769961 56.743900 500.000000
0.198064 0.260000 0.410000 91.612770 -27.228630 -121.019178 500.000000
0.260000 0.134564 0.410000 -96.385213 8.912712 -26.993587 500.000000
-0.260000 0.260000 0.410000 117.455583 -17.111262 -28.853567 500.000000
-0.260000 0.090000 0.348967 77.962203 8.343684 8.861067 500.000000
0.260000 0.260000 0.290000 -54.134235 -47.988896 23.320728 500.000000
-0.128489 0.173409 0.290000 -77.697750 -17.318182 18.063584 500.000000
-0.260000 0.090000 0.290000 348.334118 85.459916 14.895033 500.000000
0.260000 0.090000 0.410000 -79.703095 144.910703 -31.175162 500.000000
-0.260000 0.090000 0.410000 64.648878 19.600353 -53.826773 500.000000
-0.260000 0.246594 0.410000 161.028106 31.318833 -21.235251 500.000000
0.245276 0.260000 0.290000 101.055126 -41.603005 23.327417 500.000000
0.207028 0.260000 0.290000 93.405566 -24.806436 835.323513 500.000000
-0.260000 0.090000 0.410000 62.684495 18.212403 -48.857049 500.000000
0.097025 0.260000 0.410000 -32.595017 -21.212443 -286.725436 500.000000
-0.088740 0.260000 0.410000 34.252092 -13.016341 -57.417812 500.000000
-0.260000 0.260000 0.410000 213.272890 -184.508970 -17.461397 500.000000
-0.197809 0.090000 0.290000 -91.561809 60.634385 33.266699 500.000000
-0.260000 0.090000 0.410000 66.035348 20.327429 -63.567784 500.000000
0.260000 0.090000 0.290000 -80.546468 278.385605 25.279558 500.000000
0.260000 0.090000 0.410000 -120.507305 146.436527 -21.679546 500.000000
-0.260000 0.259217 0.410000 116.379825 33.843455 -30.552370 500.000000
-0.136806 0.260000 0.290000 -79.361198 -31.654856 20.274614 500.000000
0.260000 0.260000 0.290000 -105.597294 -226.003292 70.504280 500.000000
-0.260000 0.260000 0.410000 133.257223 -141.288654 -16.807959 500.000000
-0.260000 0.090000 0.410000 63.631844 120.811507 -23.340304 500.000000
-0.260000 0.090000 0.290000 31.116249 33.736677 14.718625 500.000000
-0.260000 0.090000 0.410000 66.090136 18.185428 -75.680892 500.000000
0.260000 0.220998 0.410000 -802.529359 26.199520 -18.724869 500.000000
-0.260000 0.260000 0.290000 62.274602 -43.123692 70.378463 500.000000
-0.260000 0.090000 0.410000 62.729134 19.298963 -53.696545 500.000000
0.260000 0.090000 0.290000 -103.723488 146.942403 20.204756 500.000000
-0.260000 0.260000 0.290000 60.480882 -43.135397 69.487201 500.000000
0.260000 0.260000 0.410000 -64.650329 -234.681319 -142.731192 500.000000
-0.260000 0.260000 0.410000 136.374290 -36.822885 -14.252313 500.000000
-0.260000 0.090000 0.410000 62.209185 19.554559 -53.826764 500.000000
-0.260000 0.090000 0.410000 62.782103 19.672457 -55.564836 500.000000
0.124477 0.260000 0.290000 76.895450 -27.134547 680.918962 500.000000
-0.260000 0.090000 0.410000 61.453675 18.818872 -53.922593 500.000000
-0.260000 0.260000 0.410000 133.047687 -43.377922 -16.684328 500.000000
0.260000 0.090000 0.290000 -69.200745 77.121881 14.588427 500.000000
0.218577 0.260000 0.290000 95.715430 -35.882555 233.147965 500.000000
-0.260000 0.260000 0.290000 137.080890 -18.361972 66.247944 500.000000
0.260000 0.260000 0.410000 -275.806185 -35.939986 -81.699720 500.000000
0.260000 0.260000 0.290000 -380.138983 -45.890584 41.710664 500.000000
0.238853 0.260000 0.410000 99.770632 -41.591341 -143.803121 500.000000
0.235516 0.090000 0.410000 99.103174 144.185757 -48.415283 500.000000
0.260000 0.260000 0.410000 -57.442102 -78.641769 -142.925916 500.000000
-0.190325 0.090000 0.290000 -90.064965 59.731194 30.026958 500.000000
0.260000 0.260000 0.410000 -39.575171 -303.656499 -6.832846 500.000000
0.260000 0.090000 0.410000 -96.890429 82.927358 -16.695734 500.000000
0.260000 0.090000 0.410000 -210.199591 23.225368 -165.232880 500.000000
-0.260000 0.090000 0.290000 416.085242 34.565722 71.104422 500.000000
0.260000 0.260000 0.290000 -33.815759 -29.147401 17.762486 500.000000
-0.260000 0.090000 0.410000 63.809447 19.580622 -53.826772 500.000000
0.260000 0.260000 0.290000 -111.469313 -58.258514 22.824545 500.000000
-0.260000 0.090000 0.410000 81.631579 162.556910 -26.514907 500.000000
-0.260000 0.161753 0.290000 57.103643 -19.649431 49.065870 500.000000
-0.260000 0.260000 0.290000 59.030428 -29.903450 43.022804 500.000000
0.260000 0.090000 0.290000 -114.357981 70.533589 245.765166 500.000000
0.260000 0.260000 0.290000 -70.106029 -26.186333 22.694228 500.000000
-0.129735 0.090000 0.290000 -77.946939 39.097575 542.021826 500.000000
0.260000 0.260000 0.410000 -70.022428 -252.392373 -150.778795 500.000000
-0.228011 0.090000 0.410000 -97.602126 39.160578 -14.661491 500.000000
-0.260000 0.260000 0.410000 111.611683 -214.675611 -27.745570 500.000000
-0.260000 0.090000 0.410000 63.545545 18.793496 -52.503741 500.000000
0.260000 0.090000 0.410000 -202.165516 105.470387 -20.656364 500.000000
-0.260000 0.260000 0.290000 53.790078 -29.006419 75.075452 500.000000
0.260000 0.090000 0.290000 -84.923459 105.525986 20.092792 500.000000
0.247349 0.260000 0.410000 101.469730 -34.710180 -121.173679 500.000000
0.239995 0.260000 0.410000 99.998952 -37.824770 -138.980316 500.000000
-0.104688 0.175545 0.302450 31.062391 -2.114724 -21.509917 500.000000
0.260000 0.090000 0.290000 -89.349701 65.961635 30.764744 500.000000
-0.260000 0.090000 0.322831 236.803900 24.560405 -17.433812 500.000000
0.260000 0.090000 0.410000 -997.350960 120.329551 -21.591245 500.000000
-0.260000 0.090000 0.410000 128.865288 126.624856 -21.067250 500.000000
0.080869 0.090000 0.410000 6.610159 130.114873 -13.692988 500.000000
0.260000 0.260000 0.410000 -51.613079 -325.073894 -46.833227 500.000000
0.260000 0.243702 0.410000 -39.586056 30.740408 -221.930213 500.000000
0.213601 0.260000 0.410000 94.720148 -35.071963 -126.645825 500.000000
-0.260000 0.260000 0.290000 60.129465 -58.431550 66.055757 500.000000
-0.260000 0.090000 0.410000 84.503255 19.916295 -53.716890 500.000000
0.084853 0.260000 0.290000 2.684595 -61.752196 11.596496 500.000000
0.260000 0.260000 0.290000 -59.257518 -38.798191 23.310385 500.000000
0.037626 0.090000 0.290000 -44.474871 7.741174 39.332802 500.000000
-0.260000 0.090000 0.410000 65.255552 19.604378 -53.823045 500.000000
-0.259091 0.260000 0.410000 -53.991336 -21.131617 -91.172411 500.000000
-0.187076 0.090000 0.290000 -89.415274 59.890456 35.931473 500.000000
0.260000 0.090000 0.290000 -112.959475 83.848318 19.547005 500.000000
0.260000 0.090000 0.290000 -72.834187 70.616741 280.944951 500.000000
0.260000 0.260000 0.410000 -53.157793 -79.912208 -131.243396 500.000000
-0.188505 0.090000 0.290000 -89.701070 61.592491 34.154181 500.000000
0.260000 0.260000 0.290000 -435.305286 -18.654409 62.994414 500.000000
0.260000 0.260000 0.290000 -58.131370 -534.319051 18.687724 500.000000
-0.260000 0.260000 0.410000 248.049203 -107.991137 -18.074997 500.000000
-0.260000 0.090000 0.290000 104.272104 111.533764 16.808031 500.000000
0.087127 0.248040 0.346379 -6.168035 15.802059 5.612634 500.000000
0.260000 0.183245 0.410000 -648.624866 18.648969 -18.972156 500.000000
-0.229764 0.090000 0.290000 -97.952850 57.825448 16.411580 500.000000
0.260000 0.260000 0.290000 -92.761716 -72.728764 433.194443 500.000000
0.124471 0.260000 0.290000 76.894139 -54.421206 23.249345 500.000000
0.260000 0.090000 0.290000 -92.639631 68.687143 64.301823 500.000000
0.260000 0.204598 0.410000 -246.958604 22.919688 -33.564880 500.000000
-0.260000 0.090000 0.410000 62.614687 19.655928 -53.987449 500.000000
-0.260000 0.090000 0.410000 72.201626 18.346292 -91.237320 500.000000
-0.260000 0.260000 0.290000 64.710695 -42.669000 80.289535 500.000000
-0.260000 0.090000 0.290000 63.909199 60.077110 29.253355 500.000000
-0.030513 0.260000 0.290000 45.897439 -62.915214 16.501471 500.000000
-0.061424 0.260000 0.363124 39.715163 -89.005479 14.624772 500.000000
-0.260000 0.260000 0.363710 108.555525 -28.731717 14.741998 500.000000
-0.260000 0.090000 0.410000 72.675045 18.771127 -53.601421 500.000000
-0.260000 0.090000 0.410000 62.805766 19.052115 -81.814266 500.000000
-0.260000 0.260000 0.290000 62.814232 -43.142355 69.557651 500.000000
-0.260000 0.090000 0.290000 73.055881 133.294593 16.758482 500.000000
-0.260000 0.090000 0.410000 64.252956 122.505250 -49.274050 500.000000
0.064386 0.090000 0.410000 64.877208 143.844586 -29.463423 500.000000
0.260000 0.090000 0.290000 -99.964444 68.573415 47.311202 500.000000
0.260000 0.260000 0.290000 -101.831854 -261.674457 37.865737 500.000000
-0.096325 0.260000 0.410000 32.735010 -24.054440 -128.644784 500.000000
-0.260000 0.090000 0.410000 60.432330 120.889648 -21.439856 500.000000
-0.189166 0.246163 0.290000 -46.055699 31.232511 19.721321 500.000000
0.260000 0.191003 0.410000 -307.719042 20.200608 -19.760440 500.000000
-0.260000 0.090000 0.410000 81.886043 18.952985 -87.412630 500.000000
-0.260000 0.090000 0.410000 63.324903 19.581383 -53.827078 500.000000
-0.260000 0.090000 0.410000 57.066356 122.091036 -17.138870 500.000000
0.184926 0.208854 0.332768 42.988936 23.770756 -15.446460 500.000000
-0.260000 0.090000 0.410000 77.937096 18.766130 -92.009653 500.000000
0.260000 0.260000 0.290000 -20.887030 -26.554939 19.079157 500.000000
0.162956 0.146144 0.290000 7.202974 -22.771183 131.153932 500.000000
0.105504 0.090000 0.290000 14.165405 16.703659 12.846736 500.000000
0.260000 0.090000 0.290000 -80.640166 68.200840 47.853423 500.000000
-0.260000 0.260000 0.410000 116.026049 -17.078809 -43.060955 500.000000
0.026296 0.090000 0.290000 57.259141 68.193195 34.068050 500.000000
-0.124981 0.090000 0.290000 -76.996108 61.738123 44.161391 500.000000
0.088784 0.090000 0.361554 69.756784 147.467013 14.310719 500.000000
-0.260000 0.090000 0.290000 57.363292 63.277805 33.095565 500.000000
0.260000 0.090000 0.406426 -393.398706 48.504868 23.285109 500.000000
-0.260000 0.090000 0.410000 62.816139 19.557343 -53.823053 500.000000
-0.260000 0.171874 0.290000 92.639277 -17.625219 64.830512 500.000000
0.211497 0.182899 0.410000 58.700739 18.579810 -106.967162 500.000000
-0.260000 0.260000 0.410000 29.866855 -32.674812 -16.421147 500.000000
-0.053202 0.090000 0.410000 -62.640391 121.150293 -23.576779 500.000000
-0.059768 0.260000 0.410000 40.046378 -110.854782 -125.405380 500.000000
-0.260000 0.260000 0.410000 130.383049 -45.245778 -347.116458 500.000000
0.059140 0.260000 0.290000 63.828017 -202.384385 44.432062 500.000000
-0.256183 0.090000 0.290000 -103.236539 163.778248 16.836306 500.000000
-0.260000 0.260000 0.410000 119.154356 -126.548995 -16.808894 500.000000
-0.009093 0.090000 0.410000 50.181355 143.857505 -17.977620 500.000000
-0.260000 0.260000 0.290000 53.587759 -22.923744 190.334393 500.000000
-0.260000 0.260000 0.410000 130.982219 -147.004837 -13.237854 500.000000
-0.079382 0.113925 0.410000 -67.876321 -29.215014 -29.548811 500.000000
-0.251911 0.090000 0.290000 -102.382212 58.821934 18.266109 500.000000
-0.260000 0.090000 0.410000 64.414585 19.583258 -53.899849 500.000000
-0.260000 0.260000 0.290000 68.533709 -57.138572 173.890039 500.000000
-0.123336 0.260000 0.381332 27.332813 -215.111299 18.266410 500.000000
-0.260000 0.090000 0.410000 62.461656 20.471151 -54.378239 500.000000
-0.010467 0.090000 0.410000 49.906614 143.847497 -16.952230 500.000000
-0.021494 0.260000 0.410000 47.701167 -41.125729 -23.780120 500.000000
-0.260000 0.174528 0.396997 23.633560 -17.094416 21.399440 500.000000
-0.260000 0.260000 0.365010 236.592746 -42.041170 15.002006 500.000000
-0.260000 0.090000 0.290000 35.977517 38.215198 31.022101 500.000000
-0.260000 0.172921 0.290000 85.615792 -17.415829 37.819026 500.000000
-0.260000 0.090000 0.410000 73.423566 19.871287 -55.023282 500.000000
