ply
format ascii 1.0
element vertex 240
property float x
property float y
property float z
property float vx
property float vy
property float vz
property float density
end_header
0.260000 0.260000 0.410000 -135.753193 -23.107126 -53.425785 500.000000
-0.136318 0.260000 0.410000 -79.263693 -210.785870 -102.265603 500.000000
-0.063170 0.090000 0.410000 22.562754 39.605264 -210.369396 500.000000
0.002711 0.260000 0.290000 -51.457739 -27.204451 334.140606 500.000000
0.260000 0.260000 0.410000 -114.348114 -27.533601 -50.745229 500.000000
-0.260000 0.201821 0.290000 87.313743 22.364272 18.865697 500.000000
0.260000 0.260000 0.410000 -68.051668 -26.628363 -93.443855 500.000000
-0.260000 0.260000 0.410000 52.534472 -21.611649 -96.259300 500.000000
0.260000 0.260000 0.290000 -92.347717 -38.912973 31.868616 500.000000
-0.260000 0.260000 0.410000 54.469691 -18.964262 -91.498427 500.000000
0.260000 0.090000 0.290000 -70.925688 65.505538 38.122164 500.000000
0.260000 0.181407 0.410000 -43.683834 18.281360 -112.894995 500.000000
-0.260000 0.260000 0.410000 52.638815 -17.635578 -91.605606 500.000000
-0.260000 0.260000 0.290000 75.396653 -23.678497 17.314744 500.000000
0.260000 0.260000 0.290000 -90.812722 -41.804053 31.226007 500.000000
0.242028 0.260000 0.410000 100.405574 -27.434467 -43.977853 500.000000
-0.041895 0.090000 0.410000 -60.379080 148.072994 -23.714544 500.000000
-0.201298 0.090000 0.290000 -8.758269 37.050389 37.508160 500.000000
0.260000 0.090000 0.410000 -65.038821 228.858095 -29.205219 500.000000
-0.260000 0.090000 0.410000 64.061993 106.841414 -59.422543 500.000000
-0.065399 0.260000 0.410000 -65.079734 -22.309257 -89.519965 500.000000
0.260000 0.260000 0.290000 -96.729126 -44.264636 32.637010 500.000000
0.260000 0.260000 0.290000 -93.058771 -40.418919 30.540794 500.000000
-0.260000 0.260000 0.290000 235.388869 -246.263826 40.799640 500.000000
-0.260000 0.090000 0.290000 52.588903 36.976644 35.856505 500.000000
-0.260000 0.260000 0.290000 313.640562 -29.038841 52.838985 500.000000
-0.260000 0.260000 0.290000 66.202326 -23.664860 18.451619 500.000000
0.260000 0.260000 0.290000 -91.662767 -38.413084 29.026314 500.000000
0.206467 0.090000 0.410000 93.293446 17.724441 -13.282367 500.000000
-0.260000 0.090000 0.290000 192.098055 36.988139 36.484668 500.000000
0.260000 0.260000 0.410000 -73.140690 -21.128075 -53.317252 500.000000
0.260000 0.256438 0.410000 -100.496301 33.287520 -62.950627 500.000000
0.227025 0.090000 0.410000 75.827354 330.282472 -53.138120 500.000000
-0.260000 0.260000 0.290000 150.842126 -26.184092 40.622633 500.000000
-0.260000 0.260000 0.290000 77.602108 -23.646406 17.132472 500.000000
0.260000 0.260000 0.290000 -93.881024 -49.125488 31.765022 500.000000
0.140804 0.112780 0.410000 37.569220 -29.443941 -14.140587 500.000000
-0.260000 0.090000 0.410000 68.334574 108.278621 -58.398672 500.000000
0.260000 0.260000 0.410000 -170.305020 -29.344822 -55.223171 500.000000
0.260000 0.090000 0.410000 -26.543004 104.612128 -16.900510 500.000000
-0.074533 0.090000 0.290000 -66.906575 36.219619 41.374275 500.000000
-0.260000 0.090000 0.410000 67.593778 106.032708 -59.227311 500.000000
0.260000 0.126462 0.290000 -103.396975 -26.707501 75.556628 500.000000
-0.189267 0.260000 0.410000 -89.853475 -40.853063 -89.792903 500.000000
-0.260000 0.260000 0.410000 96.846235 -763.398098 -21.090587 500.000000
0.260000 0.260000 0.290000 -87.581692 -27.591938 22.836353 500.000000
-0.260000 0.090000 0.290000 21.539588 477.572046 16.442866 500.000000
0.016595 0.260000 0.290000 55.318938 -32.675675 20.548936 500.000000
-0.260000 0.260000 0.410000 53.029246 -26.514107 -92.023839 500.000000
0.260000 0.090000 0.290000 -64.514643 39.454593 36.858667 500.000000
0.260000 0.260000 0.290000 -93.624569 -42.556326 31.351298 500.000000
-0.260000 0.090000 0.410000 95.002098 89.141716 -24.615887 500.000000
-0.260000 0.090000 0.410000 142.157358 52.311972 -75.211744 500.000000
0.260000 0.260000 0.410000 -52.169084 -28.706283 -44.110734 500.000000
-0.113958 0.090000 0.290000 -74.791584 17.804865 39.115144 500.000000
-0.045535 0.093127 0.290000 -61.106990 -33.374580 39.036211 500.000000
0.260000 0.148027 0.361994 -55.369994 -22.394503 14.398892 500.000000
-0.260000 0.260000 0.410000 68.003762 -23.066401 -109.601856 500.000000
-0.260000 0.260000 0.410000 506.576442 -19.891981 -15.939942 500.000000
-0.260000 0.090000 0.410000 66.307552 92.019723 -171.742765 500.000000
-0.260000 0.090000 0.290000 276.160200 40.386742 35.939505 500.000000
0.260000 0.260000 0.410000 -77.452749 -28.165691 -56.808380 500.000000
-0.191506 0.090000 0.290000 -12.849968 14.492540 12.225726 500.000000
-0.260000 0.260000 0.410000 119.290022 -17.953428 -94.447542 500.000000
0.260000 0.260000 0.410000 -136.643036 -33.444701 -49.155462 500.000000
-0.260000 0.260000 0.410000 151.358897 -34.716338 -94.823064 500.000000
-0.260000 0.090000 0.410000 88.298323 108.353023 -58.431166 500.000000
0.260000 0.090000 0.290000 -60.659619 62.638753 37.182147 500.000000
0.066857 0.090000 0.290000 65.371314 159.209522 39.986154 500.000000
-0.260000 0.260000 0.387985 24.119964 -127.147477 19.596945 500.000000
-0.126856 0.090000 0.393039 13.840824 74.490755 20.607886 500.000000
0.260000 0.260000 0.410000 -81.958331 -28.352461 -50.279452 500.000000
0.260000 0.260000 0.290000 -93.484639 -41.288053 30.965287 500.000000
0.260000 0.260000 0.290000 -90.676220 -23.246417 158.844096 500.000000
0.254739 0.133223 0.410000 68.936337 8.644658 -37.239013 500.000000
-0.260000 0.090000 0.410000 71.560042 104.141214 -51.284316 500.000000
0.186619 0.090000 0.351006 7.114639 22.472315 12.201122 500.000000
0.260000 0.260000 0.290000 -90.849153 -42.054339 31.200276 500.000000
-0.260000 0.090000 0.290000 55.723125 38.028942 37.785441 500.000000
-0.260000 0.090000 0.337326 204.955474 18.459135 -14.534899 500.000000
-0.260000 0.260000 0.410000 52.801214 -17.904557 -91.765027 500.000000
-0.193829 0.090000 0.410000 -90.765815 88.977224 -25.416617 500.000000
0.202241 0.090000 0.410000 29.504336 19.637467 -182.886106 500.000000
0.260000 0.260000 0.410000 -108.083553 -28.819431 -44.202349 500.000000
-0.260000 0.090000 0.410000 185.257904 202.986307 -52.465684 500.000000
-0.207247 0.090000 0.410000 -93.449484 103.743219 -234.400136 500.000000
0.260000 0.090000 0.290000 -14.447663 49.573993 96.902227 500.000000
-0.260000 0.260000 0.290000 157.445205 -21.269212 1543.060226 500.000000
0.260000 0.260000 0.410000 -67.162092 -27.354306 -51.903809 500.000000
-0.052770 0.090000 0.290000 -62.553955 17.651013 38.620925 500.000000
-0.260000 0.260000 0.410000 70.970631 -45.144974 -88.169509 500.000000
-0.250229 0.260000 0.410000 -102.045888 -843.242378 -30.523204 500.000000
-0.260000 0.260000 0.290000 82.710877 -23.707434 17.090425 500.000000
-0.260000 0.090000 0.401443 152.441088 31.941072 22.288590 500.000000
0.260000 0.260000 0.290000 -93.667939 -37.890049 29.871081 500.000000
-0.260000 0.260000 0.290000 71.927989 -23.675713 17.762537 500.000000
0.260000 0.151898 0.410000 -136.603105 -21.620490 -23.243596 500.000000
-0.260000 0.260000 0.290000 59.254707 -23.891681 14.995774 500.000000
-0.186356 0.090000 0.290000 -89.271106 39.534648 39.798085 500.000000
0.260000 0.090000 0.290000 -293.888928 360.602759 12.728001 500.000000
0.100497 0.090000 0.290000 -31.900586 32.928132 57.680500 500.000000
-0.031686 0.090000 0.410000 -58.337278 20.818628 -201.194169 500.000000
0.260000 0.260000 0.410000 -223.449742 -25.282992 -53.302815 500.000000
-0.056322 0.092107 0.290000 -63.264415 -33.578588 39.720611 500.000000
-0.260000 0.260000 0.404645 48.934028 -21.806624 22.928930 500.000000
0.055675 0.090000 0.290000 63.135047 68.897044 42.828940 500.000000
-0.113997 0.090000 0.290000 1.185943 37.509049 39.892032 500.000000
-0.260000 0.260000 0.410000 135.674161 -28.877621 -88.827765 500.000000
0.260000 0.260000 0.290000 -90.817631 -41.288183 31.221754 500.000000
0.260000 0.260000 0.290000 -90.927513 -41.396273 31.396426 500.000000
0.260000 0.260000 0.290000 -91.587042 -42.329867 30.426229 500.000000
0.260000 0.099056 0.406578 -149.849098 -32.188774 23.315626 500.000000
0.172945 0.090000 0.290000 0.026829 44.928874 51.916127 500.000000
-0.009733 0.090000 0.290000 -53.946552 32.080928 153.379182 500.000000
-0.260000 0.090000 0.290000 98.093013 34.483653 60.683873 500.000000
0.260000 0.260000 0.410000 -167.903952 -31.670719 -57.978054 500.000000
-0.028471 0.260000 0.290000 -57.694254 -26.487195 15.271242 500.000000
0.124812 0.090000 0.290000 -27.037514 27.246409 40.885751 500.000000
0.260000 0.260000 0.290000 -205.831775 -44.074883 181.561681 500.000000
0.090211 0.260000 0.410000 70.042169 -22.353828 -54.395370 500.000000
-0.260000 0.260000 0.410000 52.739757 -26.384590 -93.737780 500.000000
-0.260000 0.260000 0.410000 147.933169 -19.860222 -89.169790 500.000000
-0.260000 0.260000 0.290000 67.108517 -23.976086 17.833289 500.000000
-0.260000 0.260000 0.290000 825.960096 -41.929935 28.068685 500.000000
0.260000 0.260000 0.290000 -95.308059 -46.738744 30.193141 500.000000
-0.260000 0.241024 0.410000 43.172016 30.204853 -146.902110 500.000000
-0.237939 0.090000 0.290000 -19.725694 37.287098 36.133910 500.000000
-0.053438 0.090000 0.381726 20.011650 5.669658 6.122366 500.000000
0.260000 0.260000 0.290000 -91.004764 -41.260996 31.122850 500.000000
0.099300 0.260000 0.410000 -32.140066 -98.175319 -23.996168 500.000000
-0.260000 0.260000 0.410000 101.797933 -17.740303 -120.361276 500.000000
-0.260000 0.090000 0.410000 65.124486 110.449066 -55.642822 500.000000
-0.096565 0.097464 0.290000 -71.312993 -32.507114 38.834841 500.000000
0.260000 0.260000 0.290000 -66.855111 -29.428067 1043.886291 500.000000
-0.260000 0.260000 0.410000 52.710951 -19.144850 -91.396127 500.000000
0.260000 0.090000 0.290000 -230.534054 51.496112 73.252524 500.000000
0.084172 0.091545 0.368551 68.834446 -33.691099 15.710114 500.000000
-0.196062 0.260000 0.410000 -91.212323 -25.206904 -88.744705 500.000000
-0.033562 0.098159 0.290000 -43.201055 -32.368261 23.513387 500.000000
0.032230 0.132969 0.410000 -45.554049 -25.406189 -220.409233 500.000000
-0.260000 0.260000 0.410000 95.609333 -20.137398 -89.174152 500.000000
0.068127 0.260000 0.410000 65.625326 -19.467937 -74.769422 500.000000
-0.260000 0.090000 0.410000 90.824480 109.621775 -58.439283 500.000000
-0.260000 0.260000 0.290000 75.470965 -23.645220 17.664730 500.000000
0.193690 0.260000 0.290000 90.738091 -142.236888 67.342443 500.000000
0.260000 0.260000 0.400606 -54.438459 -52.234245 22.121182 500.000000
0.260000 0.254346 0.410000 -63.553960 32.869156 -60.645125 500.000000
-0.260000 0.260000 0.410000 53.040157 -21.417601 -92.544150 500.000000
-0.223024 0.090000 0.290000 -96.604757 56.969609 294.859433 500.000000
0.260000 0.260000 0.389842 -14.558503 -24.560182 19.968324 500.000000
-0.260000 0.260000 0.290000 86.542785 -23.659216 17.008228 500.000000
-0.064044 0.109599 0.290000 -64.808751 -30.080162 38.651213 500.000000
0.260000 0.090000 0.290000 -62.260870 65.709824 37.663491 500.000000
0.069243 0.260000 0.410000 65.848643 -60.607213 -216.366889 500.000000
0.260000 0.260000 0.410000 -76.992685 -28.374382 -53.671129 500.000000
-0.260000 0.260000 0.290000 68.274980 -23.670432 18.218469 500.000000
-0.260000 0.260000 0.410000 52.811570 -21.419021 -94.475208 500.000000
-0.260000 0.260000 0.290000 60.942183 -24.373149 15.059389 500.000000
0.260000 0.260000 0.364947 -37.114654 -22.368529 14.989325 500.000000
-0.260000 0.260000 0.290000 55.361302 -30.865096 15.296725 500.000000
0.260000 0.260000 0.410000 -109.632315 -27.196036 -51.649886 500.000000
0.260000 0.260000 0.290000 -75.409760 -51.978403 24.039466 500.000000
-0.260000 0.090000 0.410000 39.912644 51.717380 -171.209150 500.000000
0.022348 0.260000 0.410000 56.469602 -28.838680 -47.750294 500.000000
-0.260000 0.260000 0.393726 28.173824 -6.336499 -3.254828 500.000000
0.260000 0.260000 0.290000 -90.834223 -41.302237 31.214801 500.000000
-0.260000 0.260000 0.290000 74.507078 -187.294061 15.873752 500.000000
-0.260000 0.260000 0.410000 375.597488 -32.007990 -96.773416 500.000000
-0.092877 0.260000 0.290000 -70.575422 -159.873679 18.472993 500.000000
-0.260000 0.090000 0.410000 67.687032 107.370094 -64.735023 500.000000
0.260000 0.260000 0.410000 -238.977582 -91.272088 -14.937928 500.000000
-0.260000 0.090000 0.410000 72.492150 106.962605 -58.440155 500.000000
-0.260000 0.090000 0.410000 105.616097 158.815657 -27.957919 500.000000
0.041859 0.090000 0.386171 60.371764 27.522172 19.234283 500.000000
0.075791 0.090000 0.290000 22.185208 35.582176 38.725444 500.000000
-0.260000 0.260000 0.290000 57.073197 -31.733551 1143.665079 500.000000
-0.260000 0.090000 0.290000 18.751175 36.899474 37.306480 500.000000
-0.260000 0.260000 0.410000 52.916887 -18.823557 -91.556311 500.000000
-0.260000 0.260000 0.410000 54.441602 -18.835252 -91.486057 500.000000
-0.238158 0.260000 0.369628 -46.371740 -93.446339 15.925557 500.000000
0.260000 0.260000 0.410000 -86.976966 -28.810848 -44.502883 500.000000
0.260000 0.090000 0.290000 -114.255553 37.170960 37.093569 500.000000
-0.260000 0.260000 0.361902 47.898888 -19.830336 14.380481 500.000000
-0.260000 0.095642 0.290000 31.812955 -32.871681 13.264452 500.000000
0.260000 0.260000 0.290000 -90.853049 -41.444017 31.187288 500.000000
0.260000 0.260000 0.290000 -75.781561 -45.011106 29.842779 500.000000
-0.183568 0.260000 0.290000 -88.713676 -51.435598 23.013307 500.000000
0.051386 0.186731 0.410000 -41.722835 19.346141 -92.843041 500.000000
-0.260000 0.260000 0.410000 96.282828 -20.926979 -88.008885 500.000000
0.260000 0.174271 0.290000 -81.098464 0.607640 139.211918 500.000000
-0.043234 0.090000 0.290000 20.623001 39.811786 36.083538 500.000000
-0.178544 0.260000 0.290000 -43.848904 -31.892566 41.674790 500.000000
-0.260000 0.260000 0.290000 77.849116 -23.647005 16.270222 500.000000
-0.260000 0.260000 0.410000 53.180809 -18.952836 -91.491122 500.000000
0.260000 0.260000 0.290000 -60.969904 -226.592292 54.482763 500.000000
-0.046136 0.093659 0.290000 -61.227299 -33.268279 39.045954 500.000000
0.101474 0.090000 0.398645 72.294735 22.219410 21.728901 500.000000
0.260000 0.260000 0.410000 -95.366761 -28.592881 -44.209018 500.000000
-0.260000 0.260000 0.410000 55.526485 -19.257448 -91.423835 500.000000
-0.260000 0.090000 0.410000 52.671886 193.060945 -58.267699 500.000000
-0.260000 0.090000 0.400978 109.601054 47.503898 22.195690 500.000000
-0.260000 0.260000 0.410000 54.381026 -18.952808 -91.494557 500.000000
-0.260000 0.090000 0.290000 113.201346 37.418563 36.119818 500.000000
0.114949 0.090000 0.290000 74.989729 34.517344 52.912190 500.000000
0.260000 0.260000 0.290000 -91.253971 -41.207068 31.185413 500.000000
-0.260000 0.090000 0.410000 67.897358 111.752595 -59.222803 500.000000
-0.260000 0.260000 0.410000 55.390041 -18.954862 -91.667784 500.000000
0.260000 0.260000 0.290000 -91.216405 -41.441392 32.251138 500.000000
-0.260000 0.260000 0.410000 52.804238 -17.743545 -91.930402 500.000000
-0.127557 0.090000 0.307627 -77.511425 210.099500 -20.474603 500.000000
-0.260000 0.153725 0.410000 121.887807 12.744982 -111.246831 500.000000
-0.052257 0.101352 0.290000 -62.451352 -31.729576 38.638430 500.000000
0.260000 0.260000 0.410000 -66.146639 -65.128317 -237.600128 500.000000
0.260000 0.090000 0.410000 -280.082166 26.841491 -24.957431 500.000000
0.260000 0.260000 0.410000 -137.345903 -23.446389 -53.571410 500.000000
-0.260000 0.260000 0.410000 53.253428 -18.867088 -91.489337 500.000000
-0.260000 0.090000 0.410000 59.583070 248.921870 -53.057745 500.000000
0.260000 0.260000 0.410000 -139.396135 -25.723542 -55.362850 500.000000
0.260000 0.260000 0.290000 -75.247326 -27.925314 46.876058 500.000000
-0.260000 0.260000 0.410000 109.316589 -22.712613 -92.097167 500.000000
-0.047180 0.096720 0.290000 -61.436011 -32.656077 39.023107 500.000000
-0.260000 0.260000 0.410000 110.844307 -20.058586 -89.076842 500.000000
0.260000 0.260000 0.410000 -125.677946 -23.185563 -53.318700 500.000000
-0.140718 0.090000 0.410000 -80.143676 88.405936 -30.144849 500.000000
-0.260000 0.090000 0.290000 70.302758 40.371095 39.444984 500.000000
-0.050144 0.090000 0.290000 -62.028838 23.510686 39.606529 500.000000
0.115503 0.260000 0.290000 25.758537 -13.824799 9.895793 500.000000
0.210246 0.094574 0.410000 12.275794 -33.085126 -20.934113 500.000000
0.260000 0.260000 0.410000 -62.891260 -27.715773 -53.665471 500.000000
0.080370 0.090000 0.390570 68.074073 18.603220 20.114031 500.000000
-0.260000 0.090000 0.410000 65.318351 86.942637 -26.446707 500.000000
0.260000 0.090000 0.290000 -531.889639 197.171463 402.759934 500.000000
-0.045521 0.260000 0.410000 -61.104110 -19.746268 -88.810743 500.000000
-0.260000 0.260000 0.410000 52.644820 -17.617059 -91.634659 500.000000
0.260000 0.260000 0.290000 -71.175054 -41.145077 23.152350 500.000000
0.260000 0.260000 0.290000 -90.940384 -38.032075 29.116000 500.000000
0.034310 0.260000 0.290000 -45.137978 -19.310341 14.298573 500.000000
-0.029644 0.154155 0.379607 46.071116 -21.168952 17.921450 500.000000
0.260000 0.090000 0.290000 -176.084677 65.225105 12.417716 500.000000
-0.260000 0.228206 0.410000 53.226344 27.641156 -93.127949 500.000000
