ply
format ascii 1.0
element vertex 240
property float x
property float y
property float z
property float vx
property float vy
property float vz
property float density
end_header
0.070914 0.090000 0.290000 66.182734 40.462034 60.325953 500.000000
-0.260000 0.260000 0.410000 56.757592 -300.230794 -173.297555 500.000000
0.081814 0.090000 0.290000 68.362736 40.461080 69.638214 500.000000
0.260000 0.260000 0.290000 -330.585583 -56.518793 67.153605 500.000000
0.260000 0.090000 0.410000 -40.162160 10.177029 -29.353769 500.000000
0.260000 0.090000 0.410000 -193.732981 31.641940 -21.721291 500.000000
0.260000 0.260000 0.410000 -77.486174 -36.018409 -819.829407 500.000000
-0.260000 0.112813 0.410000 77.555775 -29.437370 -27.612452 500.000000
0.093785 0.095360 0.290000 70.756972 -32.927930 121.199268 500.000000
-0.260000 0.090000 0.410000 89.607807 729.816713 -84.097393 500.000000
0.260000 0.260000 0.290000 -120.256230 -67.715087 52.226000 500.000000
0.260000 0.260000 0.290000 -93.848260 -50.525207 79.306951 500.000000
-0.260000 0.260000 0.290000 236.163256 -94.619302 92.213490 500.000000
0.078033 0.090000 0.290000 67.606535 40.316005 59.547970 500.000000
-0.260000 0.260000 0.290000 227.333767 -100.810678 51.781801 500.000000
0.236582 0.260000 0.290000 99.316394 -32.802757 77.839106 500.000000
0.260000 0.260000 0.290000 -81.052711 -60.050123 90.836298 500.000000
0.134020 0.260000 0.410000 78.804091 -39.662976 -121.408891 500.000000
0.260000 0.090000 0.290000 -105.461708 219.838584 66.771128 500.000000
0.260000 0.090000 0.290000 -331.094067 211.744844 70.709800 500.000000
0.260000 0.133233 0.375897 -98.244688 -25.353464 17.179347 500.000000
0.151700 0.260000 0.410000 82.339904 -25.916598 -301.067676 500.000000
-0.260000 0.260000 0.410000 74.671510 -423.743780 -91.526934 500.000000
0.260000 0.260000 0.290000 -83.686438 -36.040432 69.965909 500.000000
0.260000 0.260000 0.410000 -460.898772 -23.624016 -34.480664 500.000000
0.054455 0.260000 0.410000 23.255003 -14.478967 -21.291095 500.000000
0.075262 0.090000 0.290000 67.052440 40.636672 60.561844 500.000000
0.047707 0.090000 0.410000 -42.458615 245.522768 -22.948134 500.000000
-0.048549 0.161168 0.410000 11.437719 -19.766490 -27.323411 500.000000
-0.143813 0.106363 0.290000 -20.545896 -30.727397 27.678305 500.000000
0.260000 0.090000 0.410000 -92.017567 21.155607 -71.378734 500.000000
-0.260000 0.090000 0.410000 133.592769 17.106001 -31.382264 500.000000
0.145255 0.260000 0.410000 81.051073 -34.074219 -49.254814 500.000000
0.260000 0.260000 0.290000 -451.267365 -93.971570 78.859128 500.000000
0.260000 0.260000 0.290000 -188.308019 -50.206239 85.081107 500.000000
0.260000 0.163776 0.410000 -113.334600 -19.244858 -24.441985 500.000000
0.260000 0.090000 0.410000 -42.560293 120.615539 -67.724417 500.000000
0.128286 0.090000 0.410000 30.952847 43.641497 -72.941674 500.000000
-0.242523 0.090000 0.290000 -100.504674 23.102112 23.100483 500.000000
-0.260000 0.155369 0.410000 245.456254 -20.926254 -27.813626 500.000000
-0.260000 0.260000 0.290000 233.608388 -100.718294 54.666742 500.000000
0.260000 0.145748 0.410000 -324.516409 -22.850333 -12.111170 500.000000
0.260000 0.260000 0.410000 -235.764206 -31.072954 -20.395415 500.000000
-0.260000 0.090000 0.410000 277.903070 17.710816 -27.581512 500.000000
0.260000 0.090000 0.290000 -69.390900 43.910666 59.724496 500.000000
-0.260000 0.260000 0.410000 57.108665 -200.170530 -201.429023 500.000000
-0.260000 0.090000 0.410000 71.578392 18.371353 -34.933986 500.000000
-0.260000 0.130809 0.320832 68.535866 -25.838254 -17.833536 500.000000
-0.260000 0.260000 0.410000 56.962730 -214.385846 -204.768995 500.000000
0.074056 0.090000 0.290000 66.811185 72.235786 62.527654 500.000000
0.090457 0.093514 0.290000 70.091375 -33.297239 107.750536 500.000000
0.260000 0.260000 0.290000 -82.769554 -52.447583 77.764337 500.000000
-0.260000 0.090000 0.402576 50.751077 18.612471 22.515160 500.000000
-0.260000 0.090000 0.290000 54.414599 25.823292 23.494832 500.000000
-0.260000 0.260000 0.410000 61.058247 -186.673551 -95.982277 500.000000
-0.260000 0.090000 0.410000 168.332746 22.878091 -37.268829 500.000000
0.260000 0.090000 0.290000 -132.384262 31.048174 73.964481 500.000000
-0.260000 0.090000 0.410000 110.015149 870.009541 -78.426574 500.000000
0.260000 0.090000 0.290000 -129.638276 21.107842 60.924678 500.000000
0.260000 0.260000 0.290000 -85.150030 -232.077397 99.949523 500.000000
-0.260000 0.116658 0.410000 85.941794 -28.668353 -38.731863 500.000000
0.076078 0.173021 0.410000 20.165563 16.604100 -23.943944 500.000000
0.260000 0.090000 0.290000 -31.136068 75.288728 74.922352 500.000000
-0.260000 0.090000 0.290000 58.132642 42.404359 14.399757 500.000000
-0.260000 0.090000 0.410000 72.743299 25.745100 -32.735842 500.000000
0.260000 0.090000 0.290000 -114.395375 95.753557 65.170184 500.000000
0.260000 0.260000 0.290000 -70.647773 -62.403745 100.556026 500.000000
0.260000 0.260000 0.410000 -65.665782 -32.337550 -23.517906 500.000000
0.260000 0.260000 0.290000 -234.640645 -260.071993 27.234737 500.000000
0.040617 0.148485 0.290000 60.123411 -22.302930 54.992343 500.000000
0.260000 0.095844 0.410000 -104.310379 -32.831272 -86.618419 500.000000
0.260000 0.260000 0.290000 -228.850404 -46.699850 85.144311 500.000000
-0.260000 0.260000 0.410000 72.561450 -184.198373 -86.279927 500.000000
0.089658 0.090000 0.290000 69.931623 43.912766 60.329005 500.000000
-0.260000 0.090000 0.290000 54.003036 24.482337 28.942163 500.000000
-0.260000 0.260000 0.290000 257.362894 -92.958503 54.016385 500.000000
-0.260000 0.260000 0.290000 234.315062 -101.500360 82.757426 500.000000
0.020276 0.260000 0.410000 56.055262 -42.204341 -20.973885 500.000000
-0.260000 0.260000 0.290000 233.313225 -101.770864 87.411828 500.000000
0.081462 0.090000 0.290000 68.292376 40.581455 64.398236 500.000000
0.260000 0.260000 0.290000 -416.002104 -125.304694 35.194352 500.000000
0.078272 0.190728 0.410000 33.822935 10.071573 -6.166939 500.000000
-0.037081 0.260000 0.290000 21.715503 -17.164160 24.950104 500.000000
0.260000 0.128686 0.290000 -67.311599 -26.262849 83.654941 500.000000
-0.260000 0.260000 0.410000 251.745422 -190.221260 -93.874768 500.000000
-0.172592 0.090000 0.410000 -10.958802 21.871225 -28.388235 500.000000
0.260000 0.260000 0.290000 -165.589735 -44.516472 86.805888 500.000000
0.260000 0.090000 0.410000 -97.225781 38.761139 -67.835211 500.000000
0.082827 0.090000 0.290000 68.565472 41.842912 69.602998 500.000000
-0.260000 0.260000 0.410000 52.115433 -183.575335 -95.810611 500.000000
0.200452 0.260000 0.410000 92.090414 -121.838918 -31.528309 500.000000
-0.260000 0.090000 0.290000 50.120745 96.810049 59.967185 500.000000
-0.260000 0.260000 0.410000 57.458281 -186.122862 -171.304329 500.000000
0.260000 0.260000 0.290000 -127.897323 -35.723533 52.827490 500.000000
0.260000 0.090000 0.410000 -65.175234 217.124891 -16.455128 500.000000
-0.260000 0.090000 0.410000 91.004503 29.152545 -127.252488 500.000000
-0.042691 0.260000 0.410000 43.461851 -31.223318 -16.479223 500.000000
-0.260000 0.090000 0.410000 126.645109 20.304827 -51.155504 500.000000
0.260000 0.260000 0.290000 -71.477392 -116.541436 75.622674 500.000000
-0.260000 0.090000 0.290000 226.474252 630.173276 80.622509 500.000000
-0.260000 0.090000 0.290000 129.830288 27.903695 15.768167 500.000000
0.260000 0.090000 0.402796 -24.744024 17.962227 22.559249 500.000000
-0.260000 0.090000 0.290000 53.548144 23.299930 21.297516 500.000000
0.081035 0.090000 0.290000 68.207065 40.383308 72.263190 500.000000
0.131401 0.260000 0.410000 78.280287 -34.301040 -23.003649 500.000000
0.260000 0.260000 0.290000 -446.048962 -105.354102 79.786421 500.000000
-0.260000 0.260000 0.290000 47.835340 -10.682026 6.536334 500.000000
0.260000 0.260000 0.290000 -89.130193 -50.363093 79.313629 500.000000
-0.251138 0.260000 0.410000 -102.227624 -198.554352 -91.837861 500.000000
0.083629 0.090000 0.290000 68.725709 40.261170 79.468878 500.000000
0.260000 0.162384 0.410000 -64.584247 -19.523240 -27.339351 500.000000
0.260000 0.260000 0.290000 -80.517071 -51.336491 83.857345 500.000000
0.260000 0.188920 0.410000 -9.373611 -3.747969 -12.995444 500.000000
0.260000 0.090000 0.290000 -67.008015 64.643384 66.809254 500.000000
0.171642 0.090000 0.410000 42.789822 38.310488 -22.462879 500.000000
-0.260000 0.260000 0.290000 245.116222 -100.974723 55.737251 500.000000
0.260000 0.090000 0.290000 -79.031086 197.762594 65.401000 500.000000
0.102178 0.090000 0.290000 72.435571 25.152275 251.393454 500.000000
-0.260000 0.260000 0.290000 260.542098 -91.739150 57.058494 500.000000
-0.260000 0.156443 0.410000 80.963285 -20.711396 -27.311268 500.000000
-0.260000 0.154276 0.410000 165.166294 -21.144849 -22.011792 500.000000
0.260000 0.090000 0.402677 -21.282832 18.105276 22.535374 500.000000
-0.260000 0.260000 0.410000 56.118712 -195.534213 -250.005579 500.000000
-0.079547 0.153752 0.410000 3.139133 -21.249561 -27.304989 500.000000
0.056320 0.090000 0.340050 31.336329 42.813854 -13.989964 500.000000
-0.260000 0.260000 0.290000 27.510084 -26.415235 12.811857 500.000000
-0.219168 0.260000 0.410000 -95.833528 -182.264450 -127.757188 500.000000
-0.260000 0.260000 0.290000 418.724727 -110.133056 45.377095 500.000000
0.260000 0.090000 0.410000 -69.584919 117.194738 -109.863241 500.000000
-0.005429 0.260000 0.355088 50.914124 -35.675041 13.017583 500.000000
0.260000 0.260000 0.290000 -141.157778 -274.036103 70.500853 500.000000
-0.260000 0.260000 0.290000 60.334817 -75.399320 895.960235 500.000000
-0.260000 0.090000 0.410000 52.967007 792.942711 -80.272209 500.000000
0.260000 0.260000 0.410000 -57.382247 -32.398348 -23.054906 500.000000
0.260000 0.090000 0.290000 -287.622797 32.113465 66.457349 500.000000
-0.260000 0.171150 0.410000 238.439047 -17.769905 -23.411641 500.000000
0.260000 0.260000 0.290000 -82.345835 -57.132495 86.191620 500.000000
-0.260000 0.260000 0.410000 193.538714 -53.242786 -554.556818 500.000000
0.260000 0.260000 0.290000 -83.893111 -187.190811 97.562539 500.000000
-0.260000 0.090000 0.340606 523.035725 60.134052 -13.878781 500.000000
-0.260000 0.260000 0.410000 93.799745 -190.785087 -361.653910 500.000000
-0.260000 0.260000 0.410000 75.392258 -183.254550 -79.885569 500.000000
-0.260000 0.260000 0.290000 264.186059 -92.339301 59.083565 500.000000
0.260000 0.096746 0.410000 -134.572712 -32.650805 -76.647035 500.000000
-0.260000 0.260000 0.290000 272.575633 -95.720322 82.853995 500.000000
0.260000 0.090000 0.410000 -105.400523 18.380480 -12.095491 500.000000
0.072579 0.090000 0.290000 66.515743 68.251369 62.713416 500.000000
-0.146971 0.090000 0.290000 -81.394127 114.310814 31.282543 500.000000
0.260000 0.090000 0.410000 -33.097116 40.193331 -6.923050 500.000000
-0.260000 0.260000 0.290000 235.498921 -95.845443 94.962319 500.000000
-0.260000 0.260000 0.290000 54.940431 -74.204200 811.199990 500.000000
0.260000 0.090000 0.356396 -66.677481 33.817508 13.279176 500.000000
0.260000 0.090000 0.290000 -69.634483 557.342163 30.179686 500.000000
-0.104196 0.260000 0.410000 -72.839137 -186.215772 -77.933591 500.000000
0.134525 0.090000 0.290000 78.905035 40.401778 76.754930 500.000000
0.260000 0.162264 0.410000 -80.010519 -19.547139 -27.336829 500.000000
0.260000 0.090000 0.290000 -314.062860 192.170343 67.432557 500.000000
-0.260000 0.260000 0.410000 56.436413 -191.153869 -192.716735 500.000000
0.260000 0.090000 0.410000 -274.081573 42.773228 -24.278375 500.000000
-0.260000 0.090000 0.302662 57.913585 105.075852 -21.467676 500.000000
0.156155 0.090000 0.410000 19.655932 23.567373 -75.696576 500.000000
0.260000 0.260000 0.290000 -53.206150 -41.215882 84.283895 500.000000
0.260000 0.090000 0.410000 -12.831711 17.781728 -16.283487 500.000000
-0.260000 0.090000 0.290000 86.599777 20.000270 22.369056 500.000000
0.052240 0.260000 0.410000 62.448087 -11.302801 -6.881933 500.000000
0.020762 0.090000 0.410000 56.152320 17.633745 -723.414203 500.000000
0.260000 0.260000 0.290000 -74.274045 -48.478206 79.496302 500.000000
-0.260000 0.090000 0.290000 57.308635 24.183570 31.620534 500.000000
-0.260000 0.090000 0.290000 57.524556 23.193337 29.294599 500.000000
-0.084086 0.260000 0.290000 -68.817279 -147.314025 84.629006 500.000000
0.028326 0.090000 0.402214 57.665113 240.058066 22.442753 500.000000
0.260000 0.152895 0.410000 -135.654388 -21.421025 -25.573690 500.000000
0.260000 0.090000 0.290000 -113.187221 27.871975 72.689783 500.000000
-0.260000 0.260000 0.290000 595.362345 -222.016230 42.608306 500.000000
0.198526 0.090000 0.290000 91.705211 45.099776 51.609764 500.000000
0.260000 0.132170 0.410000 -77.391431 -25.566015 -19.747575 500.000000
-0.260000 0.260000 0.410000 38.492052 -48.499126 -94.581296 500.000000
0.260000 0.090000 0.290000 -149.320064 417.656783 67.554508 500.000000
-0.260000 0.090000 0.410000 121.155609 38.189714 -30.492236 500.000000
0.083312 0.260000 0.410000 68.662406 -42.185407 -23.302282 500.000000
-0.260000 0.090000 0.290000 60.465673 26.880930 27.191023 500.000000
0.062707 0.090000 0.410000 64.541368 70.976294 -585.307398 500.000000
-0.260000 0.090000 0.290000 99.455358 266.800705 52.627819 500.000000
0.260000 0.260000 0.410000 -139.615458 -25.304291 -24.917544 500.000000
-0.245717 0.090000 0.290000 -101.143453 26.298785 23.100666 500.000000
-0.134107 0.260000 0.410000 -44.735413 -32.665558 -65.210864 500.000000
0.099648 0.199983 0.363612 9.861007 21.996584 14.722481 500.000000
0.223937 0.090000 0.410000 81.394299 19.934241 -24.715764 500.000000
-0.260000 0.137238 0.410000 36.435119 -24.552392 -27.659121 500.000000
-0.094058 0.090000 0.290000 -70.811593 38.653160 218.186092 500.000000
-0.260000 0.090000 0.410000 71.308837 27.494965 -33.058376 500.000000
0.260000 0.090000 0.410000 -130.163483 22.031443 -82.707364 500.000000
-0.260000 0.260000 0.410000 57.361260 -195.224152 -153.882076 500.000000
-0.260000 0.260000 0.290000 286.102414 -17.903880 181.220411 500.000000
0.260000 0.090000 0.290000 -193.611189 190.225253 66.922805 500.000000
-0.260000 0.260000 0.290000 233.383141 -97.331530 155.023087 500.000000
-0.260000 0.090000 0.410000 125.747326 17.815805 -33.848907 500.000000
0.127428 0.090000 0.290000 77.485631 44.063357 74.044191 500.000000
0.260000 0.260000 0.290000 -192.652077 -46.610308 85.210923 500.000000
0.068902 0.090000 0.290000 65.780347 40.733835 60.291670 500.000000
-0.260000 0.156468 0.410000 214.953098 -20.706399 -25.942596 500.000000
-0.260000 0.260000 0.351401 85.845109 -27.705549 12.280154 500.000000
-0.260000 0.260000 0.290000 233.427573 -107.159014 52.758448 500.000000
-0.260000 0.142807 0.410000 59.868507 -23.438592 -31.116046 500.000000
0.260000 0.260000 0.290000 -252.171285 -109.546336 64.632507 500.000000
-0.260000 0.090000 0.410000 54.709845 25.574785 -14.182162 500.000000
0.260000 0.090000 0.290000 -113.417507 81.393865 60.453463 500.000000
0.260000 0.090000 0.410000 -127.129200 19.304811 -22.035747 500.000000
0.260000 0.260000 0.290000 -122.639609 -55.929063 86.608631 500.000000
0.260000 0.260000 0.290000 -53.192402 -41.782446 82.123919 500.000000
-0.260000 0.090000 0.290000 56.589130 24.264655 29.641538 500.000000
0.260000 0.090000 0.404579 -34.723658 18.384594 22.915815 500.000000
0.073726 0.260000 0.410000 66.745179 -47.368991 -22.576950 500.000000
0.060007 0.090000 0.290000 64.001481 22.095056 57.293218 500.000000
0.251785 0.260000 0.410000 102.356930 -30.273523 -328.453596 500.000000
0.260000 0.090000 0.410000 -46.539051 27.579042 -15.123301 500.000000
0.260000 0.260000 0.290000 -58.020275 -42.031420 81.458956 500.000000
0.088686 0.090000 0.290000 69.737115 41.502978 66.967184 500.000000
0.260000 0.210115 0.410000 -156.849268 24.022927 -28.326905 500.000000
0.143672 0.090000 0.290000 80.734368 48.488215 61.707844 500.000000
0.260000 0.137301 0.350978 -10.167507 9.460186 2.784216 500.000000
0.145817 0.260000 0.410000 81.163436 -33.556067 -23.065997 500.000000
0.081318 0.090000 0.290000 68.263565 40.580984 67.041169 500.000000
0.102730 0.260000 0.410000 72.546045 -36.067269 -21.531403 500.000000
-0.260000 0.090000 0.410000 121.168105 936.968390 -73.908592 500.000000
0.260000 0.090000 0.290000 -125.550753 22.356615 65.437096 500.000000
0.260000 0.260000 0.290000 -152.875186 -240.834640 28.688361 500.000000
0.146836 0.090000 0.364250 81.367290 38.127213 14.850021 500.000000
-0.260000 0.090000 0.408850 36.786074 18.501653 23.770088 500.000000
0.157129 0.090000 0.410000 3.284550 26.056647 -13.885485 500.000000
-0.248789 0.260000 0.410000 -101.757793 -183.289675 -96.221495 500.000000
-0.260000 0.260000 0.290000 663.142204 -36.723583 49.382866 500.000000
0.032529 0.090000 0.290000 -45.494245 19.557875 70.908854 500.000000
-0.260000 0.260000 0.290000 237.496272 -92.356738 92.213766 500.000000
-0.260000 0.260000 0.410000 57.281579 -182.125458 -244.159664 500.000000
0.260000 0.260000 0.410000 -63.719687 -32.346009 -23.049083 500.000000
0.260000 0.260000 0.290000 -183.475700 -184.224105 77.808385 500.000000
-0.260000 0.090000 0.404440 71.946989 19.047276 22.887955 500.000000
-0.260000 0.260000 0.410000 56.643875 -185.769650 -222.586958 500.000000
0.260000 0.090000 0.405907 -90.651844 18.571620 23.181332 500.000000
