ply
format ascii 1.0
element vertex 240
property float x
property float y
property float z
property float vx
property float vy
property float vz
property float density
end_header
-0.225130 0.090000 0.290000 -97.025970 26.490889 33.979851 500.000000
0.079564 0.090000 0.290000 67.912867 508.371323 30.481975 500.000000
0.260000 0.090000 0.410000 -136.003431 121.390008 -29.729791 500.000000
0.260000 0.260000 0.290000 -65.638350 -101.095845 348.354352 500.000000
-0.260000 0.090000 0.290000 114.760584 103.150741 6.508442 500.000000
0.260000 0.090000 0.410000 -85.990197 114.454268 -196.932795 500.000000
-0.012778 0.159104 0.410000 -10.079652 -20.179256 -7.780914 500.000000
0.260000 0.090000 0.410000 -106.928285 150.734301 -33.798217 500.000000
-0.108944 0.090000 0.410000 -73.788855 42.470251 -57.019460 500.000000
0.260000 0.260000 0.410000 -65.244358 -162.054875 -136.872521 500.000000
0.260000 0.090000 0.410000 -86.377297 32.034552 -34.261757 500.000000
-0.260000 0.260000 0.290000 52.857022 -124.107195 37.732033 500.000000
0.260000 0.090000 0.410000 -86.397159 32.075540 -34.071080 500.000000
-0.260000 0.090000 0.290000 72.246234 371.178302 34.389603 500.000000
0.260000 0.090000 0.410000 -86.472743 32.105377 -34.261298 500.000000
-0.260000 0.109878 0.290000 27.020926 -30.024453 21.524285 500.000000
0.260000 0.090000 0.410000 -88.738284 30.389559 -33.841831 500.000000
0.164624 0.260000 0.290000 -19.075297 -31.654347 93.176596 500.000000
-0.260000 0.260000 0.290000 98.775382 -114.381607 34.752158 500.000000
0.260000 0.260000 0.290000 -43.962715 -21.240427 86.715168 500.000000
-0.101066 0.260000 0.290000 -72.213243 -73.153440 36.745667 500.000000
-0.260000 0.090000 0.290000 327.149879 40.969476 30.956111 500.000000
-0.260000 0.090000 0.410000 53.677381 221.374517 -56.141695 500.000000
-0.260000 0.090000 0.410000 53.994573 186.856254 -54.535622 500.000000
0.260000 0.260000 0.410000 -62.522442 -219.508946 -315.508014 500.000000
0.260000 0.260000 0.290000 -156.010221 -132.995412 22.234399 500.000000
0.089345 0.090000 0.290000 69.868985 82.043493 121.378322 500.000000
0.260000 0.090000 0.410000 -86.454378 32.071753 -34.075318 500.000000
-0.061743 0.090000 0.410000 -64.348559 56.745686 -59.264029 500.000000
0.260000 0.240278 0.290000 -35.793391 30.055649 28.733438 500.000000
-0.260000 0.090000 0.290000 88.283601 295.023977 34.426824 500.000000
0.260000 0.090000 0.410000 -105.852912 40.518623 -31.175589 500.000000
0.260000 0.260000 0.290000 -79.828461 -131.117452 15.764248 500.000000
0.260000 0.260000 0.290000 -56.076651 -355.854009 54.559082 500.000000
0.260000 0.260000 0.410000 -47.618429 -9.876912 -25.035821 500.000000
-0.260000 0.090000 0.313738 74.344693 42.460209 -19.252410 500.000000
0.260000 0.260000 0.290000 -56.176905 -126.570621 15.583806 500.000000
0.157299 0.148756 0.409952 39.012392 -22.248892 23.990302 500.000000
0.260000 0.090000 0.410000 -86.428247 32.109083 -34.253143 500.000000
-0.009161 0.090000 0.410000 -53.832270 45.479026 -185.037853 500.000000
0.260000 0.090000 0.410000 -86.442550 32.052876 -34.073774 500.000000
0.260000 0.260000 0.290000 -164.491915 -133.045761 21.618502 500.000000
0.260000 0.090000 0.410000 -82.468340 29.239958 -52.946573 500.000000
0.260000 0.090000 0.410000 -88.759160 54.001009 -125.297944 500.000000
0.260000 0.090000 0.290000 -67.438126 81.439851 125.087273 500.000000
0.026226 0.090000 0.290000 57.245275 112.439341 117.575061 500.000000
0.260000 0.260000 0.410000 -160.661982 -20.650921 -151.907601 500.000000
-0.029762 0.260000 0.410000 -57.952421 -78.163470 -28.756195 500.000000
0.053399 0.090000 0.290000 62.679802 84.985585 118.110794 500.000000
-0.251270 0.260000 0.290000 -102.253902 -122.879912 37.376081 500.000000
0.076452 0.090000 0.410000 67.290445 126.141176 -194.925563 500.000000
-0.260000 0.090000 0.410000 30.508903 58.256931 -16.211875 500.000000
-0.260000 0.090000 0.410000 835.993263 104.683770 -44.677259 500.000000
0.079785 0.090000 0.290000 67.956917 426.964017 30.436784 500.000000
-0.252197 0.090000 0.321700 -51.201153 9.587593 -17.660034 500.000000
0.260000 0.090000 0.410000 -86.935188 34.760588 -34.102686 500.000000
0.260000 0.090000 0.410000 -86.446298 32.215048 -34.068780 500.000000
0.260000 0.260000 0.410000 -63.881292 -138.104290 -151.398845 500.000000
0.059260 0.090000 0.290000 63.852097 136.323470 195.659086 500.000000
0.260000 0.090000 0.410000 -159.574229 64.178707 -28.256005 500.000000
0.260000 0.090000 0.410000 -86.689319 32.251920 -34.421425 500.000000
-0.023813 0.260000 0.410000 -10.298598 -25.115504 -16.527248 500.000000
-0.193495 0.090000 0.290000 -90.698981 25.134606 38.256965 500.000000
-0.260000 0.090000 0.410000 79.412265 63.849876 -54.768235 500.000000
0.260000 0.090000 0.410000 -84.443540 73.392260 -151.734313 500.000000
-0.260000 0.260000 0.290000 170.260861 -162.329667 150.958631 500.000000
0.125066 0.109359 0.410000 38.541934 -6.115734 -7.293919 500.000000
0.260000 0.260000 0.410000 -132.532129 -106.485450 -131.828380 500.000000
0.018457 0.260000 0.291726 -48.308678 -120.143400 -23.654797 500.000000
-0.260000 0.090000 0.290000 71.692261 85.945755 102.035390 500.000000
-0.260000 0.260000 0.410000 84.117196 -20.807845 -33.523933 500.000000
0.260000 0.260000 0.290000 -66.827688 -130.952279 15.514315 500.000000
0.260000 0.260000 0.410000 -70.814322 -950.951638 -153.583096 500.000000
0.260000 0.260000 0.348660 -142.282113 -25.883297 -12.268067 500.000000
0.113785 0.090000 0.290000 74.756996 39.930748 28.724250 500.000000
-0.260000 0.090000 0.290000 86.753538 17.865248 22.336390 500.000000
0.260000 0.090000 0.410000 -85.932653 30.264819 -37.775753 500.000000
0.260000 0.090000 0.410000 -86.462267 32.110423 -34.250551 500.000000
0.260000 0.090000 0.410000 -85.725025 29.320441 -44.320579 500.000000
0.260000 0.090000 0.410000 -129.967543 151.969376 -29.819719 500.000000
0.260000 0.090000 0.410000 -87.071614 26.966498 -33.522563 500.000000
0.078946 0.090000 0.290000 67.789123 79.148497 30.300330 500.000000
-0.114654 0.090000 0.290000 -74.930803 25.836253 28.686429 500.000000
-0.067277 0.090000 0.410000 -65.455458 146.447895 -54.506483 500.000000
0.260000 0.260000 0.306109 -54.049390 -217.558003 -20.778283 500.000000
0.260000 0.090000 0.410000 -87.342180 42.734649 -34.204676 500.000000
0.260000 0.260000 0.290000 -77.111334 -145.268750 405.058233 500.000000
0.260000 0.260000 0.290000 -54.509588 -148.606442 14.908699 500.000000
0.081589 0.090000 0.290000 68.317737 340.246233 30.410215 500.000000
0.260000 0.090000 0.410000 -86.364954 32.111836 -34.269072 500.000000
0.260000 0.090000 0.410000 -86.586589 32.133143 -34.252438 500.000000
-0.260000 0.090000 0.410000 72.193102 44.794383 -54.750233 500.000000
0.041020 0.090000 0.290000 60.204088 81.366375 124.239163 500.000000
-0.161527 0.090000 0.290000 -84.305464 32.541985 453.643658 500.000000
-0.105566 0.090000 0.410000 -73.113246 44.366440 -63.520549 500.000000
-0.260000 0.090000 0.290000 75.128878 26.673282 34.080399 500.000000
0.260000 0.260000 0.410000 -62.822587 -224.529664 -257.999834 500.000000
0.260000 0.185262 0.290000 -63.223183 -14.947610 13.964437 500.000000
0.050852 0.090000 0.290000 62.170406 94.647055 181.104116 500.000000
0.260000 0.090000 0.410000 -86.397127 32.095845 -34.251067 500.000000
-0.260000 0.112293 0.359423 32.176437 -29.541497 13.884650 500.000000
-0.074414 0.090000 0.410000 -66.882811 44.379630 -55.587310 500.000000
0.108783 0.090000 0.290000 73.756510 80.977999 125.752960 500.000000
0.260000 0.090000 0.410000 -114.581139 101.578821 -29.686841 500.000000
-0.027855 0.260000 0.290000 -57.571042 -13.575636 37.506602 500.000000
0.260000 0.090000 0.410000 -86.421998 32.052645 -34.075190 500.000000
-0.260000 0.260000 0.335741 89.073841 -38.128580 -14.851776 500.000000
-0.260000 0.260000 0.290000 47.724909 -146.736599 39.497147 500.000000
0.260000 0.090000 0.410000 -86.369620 32.111788 -34.258415 500.000000
0.260000 0.090000 0.410000 -166.760739 71.616233 -29.275104 500.000000
-0.060247 0.090000 0.410000 -64.049342 42.691374 -63.322100 500.000000
0.260000 0.090000 0.410000 -92.627583 32.120867 -36.569814 500.000000
-0.135197 0.131729 0.356277 24.960675 -11.576861 -10.744540 500.000000
0.260000 0.260000 0.290000 -58.419462 -130.530976 15.407127 500.000000
0.260000 0.260000 0.290000 -72.582443 -144.937297 291.984460 500.000000
-0.260000 0.260000 0.410000 36.557398 -293.525690 -20.007614 500.000000
-0.260000 0.260000 0.290000 261.247379 -147.395191 241.880849 500.000000
0.260000 0.164304 0.410000 -422.604059 -19.139271 -29.966269 500.000000
0.260000 0.260000 0.364135 -17.736179 -47.904040 14.826949 500.000000
-0.063299 0.090000 0.410000 -64.659850 44.500271 -56.125494 500.000000
0.260000 0.090000 0.410000 -143.647028 215.322819 -30.125319 500.000000
-0.184150 0.090000 0.410000 -88.829985 102.057718 -54.798846 500.000000
-0.260000 0.090000 0.290000 166.514495 30.166186 35.576432 500.000000
-0.175802 0.090000 0.410000 -87.160365 124.665454 -54.511137 500.000000
-0.096487 0.090000 0.410000 -71.297500 44.374567 -58.093606 500.000000
0.232781 0.090000 0.290000 98.556128 81.776101 120.015358 500.000000
0.055057 0.090000 0.290000 63.011451 82.107900 117.337134 500.000000
0.260000 0.090000 0.410000 -92.757046 30.720893 -39.043680 500.000000
-0.161903 0.192386 0.290000 19.619490 -13.522867 12.975370 500.000000
-0.260000 0.090000 0.410000 905.056043 30.082738 -47.576054 500.000000
-0.260000 0.090000 0.410000 49.246784 32.257846 -49.984139 500.000000
0.260000 0.174984 0.290000 -124.134593 -17.003268 19.148560 500.000000
0.260000 0.260000 0.410000 -73.783616 -145.044750 -132.658027 500.000000
-0.086894 0.260000 0.410000 -69.378898 -122.587469 -33.705254 500.000000
-0.260000 0.260000 0.290000 66.456652 -144.240208 47.418260 500.000000
0.260000 0.090000 0.410000 -90.229095 32.451574 -34.028773 500.000000
0.260000 0.090000 0.410000 -88.799588 30.941162 -34.417179 500.000000
-0.260000 0.260000 0.410000 87.121885 -19.551263 -33.869860 500.000000
-0.224504 0.195438 0.290568 -46.699213 21.087552 -23.886310 500.000000
-0.139315 0.260000 0.410000 -13.166913 -95.505689 -12.920466 500.000000
0.214517 0.090000 0.290000 94.903452 81.473845 126.376476 500.000000
-0.260000 0.260000 0.410000 294.529715 -309.322842 -56.762020 500.000000
0.260000 0.260000 0.290000 -131.839125 -142.106362 16.633741 500.000000
0.260000 0.260000 0.290000 -55.825669 -126.690206 16.730520 500.000000
0.260000 0.090000 0.410000 -164.693414 26.899421 -28.707700 500.000000
-0.116648 0.090000 0.410000 -75.329650 47.654459 -186.338077 500.000000
-0.258486 0.260000 0.290000 -103.697266 -124.625708 37.861630 500.000000
-0.023155 0.260000 0.410000 -56.631012 -55.571788 -37.019645 500.000000
-0.023600 0.260000 0.290000 -56.720099 -114.336961 284.351897 500.000000
0.260000 0.090000 0.410000 -82.689305 28.177678 -33.010249 500.000000
-0.254524 0.260000 0.410000 -102.904730 -181.964314 -37.279013 500.000000
-0.260000 0.260000 0.410000 64.836812 -105.475843 -48.059424 500.000000
0.249501 0.206331 0.339863 55.088394 -10.733811 -14.027450 500.000000
0.260000 0.090000 0.410000 -83.043652 22.049394 -48.863032 500.000000
0.260000 0.090000 0.410000 -91.815162 32.874978 -29.276013 500.000000
-0.060905 0.090000 0.410000 -64.181089 45.764981 -62.691427 500.000000
-0.260000 0.260000 0.290000 64.110206 -117.452786 53.025029 500.000000
0.008598 0.090000 0.290000 53.719661 80.923342 124.034702 500.000000
0.260000 0.260000 0.410000 -62.632116 -119.622929 -268.819866 500.000000
0.260000 0.260000 0.290000 -58.587283 -131.196298 15.286336 500.000000
-0.260000 0.260000 0.290000 210.820473 -43.022598 3.129247 500.000000
-0.260000 0.260000 0.410000 67.779258 -154.875683 -21.902843 500.000000
-0.260000 0.090000 0.410000 77.367401 85.275993 -54.650348 500.000000
0.260000 0.090000 0.290000 -88.246236 154.151437 174.294104 500.000000
-0.103614 0.260000 0.410000 -72.722766 -42.940717 -159.497141 500.000000
0.186630 0.260000 0.319007 89.325911 -219.749229 -18.198515 500.000000
0.177581 0.090000 0.343078 11.695818 38.788741 -13.384459 500.000000
0.260000 0.090000 0.410000 -103.499976 184.626015 -29.788274 500.000000
-0.074219 0.090000 0.290000 37.156295 65.315733 24.502841 500.000000
-0.085427 0.090000 0.410000 -69.085367 153.405858 -53.253216 500.000000
-0.095549 0.260000 0.290000 -71.109853 -17.858105 43.359946 500.000000
-0.260000 0.260000 0.301667 27.934961 -52.884507 -21.666681 500.000000
0.260000 0.090000 0.410000 -86.439547 32.163791 -34.036856 500.000000
-0.260000 0.090000 0.290000 74.589627 268.328270 33.541685 500.000000
0.161295 0.090000 0.290000 -19.741093 47.089787 765.058201 500.000000
-0.260000 0.260000 0.410000 81.800959 -175.551917 -33.893003 500.000000
0.260000 0.090000 0.410000 -92.306437 197.826778 -30.003225 500.000000
-0.260000 0.260000 0.290000 523.841669 -95.548461 20.209862 500.000000
-0.260000 0.260000 0.304343 125.654711 -115.357458 -21.131479 500.000000
-0.260000 0.090000 0.410000 33.005890 111.613516 -170.207613 500.000000
0.260000 0.090000 0.410000 -86.365149 32.126623 -34.250553 500.000000
0.260000 0.260000 0.290000 -68.691451 -143.562973 385.865043 500.000000
0.260000 0.260000 0.290000 -83.497061 -151.623303 313.850277 500.000000
-0.219898 0.090000 0.290043 -48.007130 18.349438 -18.569041 500.000000
0.260000 0.090000 0.410000 -86.427654 32.123536 -34.253203 500.000000
-0.260000 0.090000 0.290000 66.757616 191.300487 33.557565 500.000000
-0.260000 0.260000 0.410000 161.440137 -346.096027 -37.120472 500.000000
0.260000 0.090000 0.410000 -87.881212 70.999355 -30.121476 500.000000
0.260000 0.090000 0.410000 -93.716619 106.206472 -145.365206 500.000000
0.260000 0.260000 0.410000 -29.780438 -17.959192 -148.165400 500.000000
0.260000 0.090000 0.410000 -84.924816 105.211486 -234.552577 500.000000
0.260000 0.090000 0.290000 -60.204372 82.019999 126.470323 500.000000
-0.260000 0.090000 0.290000 280.121584 63.163371 62.831992 500.000000
-0.178624 0.090000 0.290000 -87.724854 26.357549 42.620017 500.000000
-0.260000 0.260000 0.290000 86.272167 -117.586227 35.753553 500.000000
-0.260000 0.183701 0.410000 30.936800 18.740128 -60.854827 500.000000
-0.084332 0.090000 0.410000 -68.866323 44.379043 -76.851487 500.000000
0.260000 0.090000 0.410000 -92.079948 54.283581 -29.283206 500.000000
0.260000 0.260000 0.290000 -56.207408 -300.919381 43.851555 500.000000
0.260000 0.164686 0.290000 -214.054639 -19.062835 47.843600 500.000000
0.260000 0.090000 0.410000 -87.425288 32.338516 -34.093054 500.000000
0.260000 0.260000 0.410000 -74.736335 -65.431782 -161.674387 500.000000
0.260000 0.090000 0.410000 -86.457425 32.069387 -35.784477 500.000000
0.260000 0.090000 0.410000 -86.712729 32.219123 -34.197678 500.000000
0.119218 0.090000 0.290000 75.843629 21.041595 24.886899 500.000000
0.260000 0.260000 0.410000 -62.924615 -81.881167 -232.356969 500.000000
0.260000 0.260000 0.290000 -56.971894 -324.058458 112.062108 500.000000
-0.202707 0.090000 0.290000 -92.541308 25.090855 34.841666 500.000000
0.260000 0.090000 0.410000 -86.427194 30.305890 -38.825634 500.000000
-0.260000 0.090000 0.410000 125.479347 20.378235 -16.968278 500.000000
0.260000 0.090000 0.410000 -86.387993 32.111990 -34.070653 500.000000
-0.260000 0.090000 0.410000 300.246336 46.103310 -58.747558 500.000000
-0.260000 0.090000 0.410000 54.011749 102.840526 -54.508410 500.000000
-0.113999 0.090000 0.290000 29.200262 176.680896 390.253112 500.000000
0.078155 0.090000 0.290000 67.631086 166.048160 30.382662 500.000000
0.234554 0.260000 0.410000 98.910796 -101.279876 -148.398768 500.000000
0.260000 0.260000 0.290000 -59.021702 -305.999951 166.643900 500.000000
0.082501 0.090000 0.290000 68.500208 253.079767 30.340793 500.000000
0.260000 0.260000 0.410000 -62.627254 -167.358529 -244.890246 500.000000
0.260000 0.090000 0.410000 -88.620614 64.158125 -29.828790 500.000000
0.260000 0.260000 0.410000 -63.440554 -21.474764 -277.572780 500.000000
-0.198896 0.260000 0.410000 -91.779142 -419.664657 -36.552166 500.000000
0.260000 0.090000 0.410000 -125.098962 151.972959 -29.784367 500.000000
-0.260000 0.090000 0.410000 65.559405 53.989786 -54.652824 500.000000
-0.099826 0.260000 0.410000 -71.965214 -124.870866 -38.079819 500.000000
0.260000 0.090000 0.290000 -63.538663 46.503233 731.466198 500.000000
0.260000 0.090000 0.410000 -94.352475 30.518192 -39.003262 500.000000
-0.175222 0.090000 0.290000 -87.044302 25.562106 38.481440 500.000000
-0.260000 0.090000 0.410000 319.272321 76.144798 -174.859611 500.000000
0.260000 0.260000 0.410000 -56.426662 -99.857080 -155.996847 500.000000
0.150923 0.090000 0.290000 82.184504 81.283107 132.866021 500.000000
-0.131407 0.090000 0.410000 -78.281450 44.360846 -68.955164 500.000000
-0.143236 0.260000 0.410000 -80.647177 -39.567069 -218.854431 500.000000
0.260000 0.090000 0.410000 -86.391859 32.086119 -34.071079 500.000000
0.046925 0.090000 0.290000 61.385046 87.965307 117.195280 500.000000
-0.071948 0.260000 0.410000 -66.389653 -109.147043 -32.208698 500.000000
-0.260000 0.090000 0.410000 1010.553088 29.919625 -23.987323 500.000000
0.260000 0.215133 0.299761 -72.643196 25.026686 -22.047728 500.000000
0.047378 0.090000 0.290000 61.475611 86.348022 117.330837 500.000000
-0.260000 0.090000 0.410000 1170.843700 94.206854 -130.207191 500.000000
