ply
format ascii 1.0
element vertex 240
property float x
property float y
property float z
property float vx
property float vy
property float vz
property float density
end_header
-0.004567 0.260000 0.349582 14.649866 -20.211198 -12.083569 500.000000
-0.260000 0.253872 0.410000 69.028805 32.774400 -38.102590 500.000000
-0.260000 0.090000 0.410000 82.051170 138.326765 -74.788594 500.000000
-0.260000 0.260000 0.297323 92.649222 -134.075259 -22.535466 500.000000
-0.260000 0.260000 0.410000 92.414542 -32.700741 -21.723287 500.000000
0.192197 0.260000 0.410000 90.439459 -20.297574 -44.576836 500.000000
-0.260000 0.090000 0.410000 203.523137 224.024430 -23.964122 500.000000
-0.260000 0.090000 0.290000 118.818644 107.552688 45.258407 500.000000
0.260000 0.260000 0.410000 -55.374621 -24.150001 -239.899027 500.000000
0.260000 0.260000 0.410000 -138.454715 -179.405216 -40.421662 500.000000
-0.260000 0.260000 0.290000 57.712062 -79.302981 22.077419 500.000000
0.260000 0.260000 0.410000 -55.908487 -75.157356 -832.654823 500.000000
-0.260000 0.199428 0.410000 15.127860 9.771016 -8.520147 500.000000
0.260000 0.090000 0.358915 -85.562170 73.326975 13.782986 500.000000
0.260000 0.090000 0.290000 -86.004825 138.996570 30.665459 500.000000
0.096409 0.090000 0.410000 71.281776 57.885892 -72.193697 500.000000
0.260000 0.090000 0.290000 -83.929111 123.897572 31.909466 500.000000
0.260000 0.260000 0.410000 -97.506038 -316.405458 -40.336750 500.000000
0.260000 0.260000 0.410000 -75.877820 -24.593049 -122.446057 500.000000
0.252050 0.260000 0.290000 102.410040 -119.622813 129.734398 500.000000
-0.260000 0.260000 0.410000 252.576557 -606.327677 -46.379492 500.000000
0.260000 0.260000 0.410000 -33.764879 -24.800489 -14.035416 500.000000
0.010547 0.090000 0.410000 54.109451 88.182869 -18.725490 500.000000
-0.260000 0.260000 0.410000 57.438091 -22.574878 -17.331784 500.000000
0.260000 0.090000 0.410000 -59.838497 78.736973 -87.020314 500.000000
-0.231818 0.260000 0.410000 -47.871199 -21.673698 -77.444069 500.000000
0.260000 0.090000 0.410000 -68.509711 27.352772 -41.908861 500.000000
0.131030 0.090000 0.410000 78.205987 59.216788 -69.278570 500.000000
0.252692 0.260000 0.410000 20.384261 -59.264596 -18.221008 500.000000
-0.260000 0.260000 0.410000 84.360636 -18.240086 -24.788793 500.000000
0.260000 0.090000 0.290000 -224.861990 165.016013 113.636185 500.000000
0.260000 0.260000 0.410000 -68.261534 -21.569917 -45.287669 500.000000
-0.199913 0.260000 0.290000 -91.982515 -40.120836 42.001419 500.000000
-0.260000 0.090000 0.410000 232.261112 224.547505 -44.366099 500.000000
0.260000 0.090000 0.290000 -84.304080 124.620360 30.286421 500.000000
0.104726 0.090000 0.290000 72.945286 141.053359 18.642714 500.000000
-0.260000 0.260000 0.290000 69.241823 -53.183187 22.220008 500.000000
0.260000 0.090000 0.410000 -61.311525 82.144505 -80.304088 500.000000
-0.260000 0.090000 0.410000 213.792177 205.579333 -33.146782 500.000000
0.260000 0.260000 0.410000 -76.260436 -116.287188 -41.098178 500.000000
-0.112957 0.090000 0.290000 29.408510 145.812148 17.400299 500.000000
0.260000 0.260000 0.410000 -419.656884 -181.409441 -40.153861 500.000000
0.260000 0.090000 0.290000 -83.324386 125.412716 30.853418 500.000000
-0.056712 0.260000 0.410000 -18.171506 -29.194752 -13.768461 500.000000
0.251628 0.260000 0.290000 102.325639 -43.715323 127.962326 500.000000
-0.260000 0.090000 0.290000 254.633762 149.975127 94.535653 500.000000
-0.260000 0.090000 0.410000 28.017322 33.479615 -66.353491 500.000000
-0.107561 0.260000 0.290000 30.487795 -385.627967 20.801829 500.000000
0.260000 0.260000 0.290000 -70.723308 -27.535575 68.695318 500.000000
0.260000 0.260000 0.410000 -99.006473 -20.230523 -19.080494 500.000000
-0.260000 0.090000 0.410000 211.455001 227.820985 -45.810326 500.000000
-0.260000 0.260000 0.290000 69.164791 -53.248664 21.005949 500.000000
0.260000 0.260000 0.290000 -103.131657 -23.868615 63.523579 500.000000
-0.260000 0.260000 0.410000 260.651322 -393.850364 -121.366206 500.000000
0.260000 0.260000 0.410000 -80.570887 -19.849493 -41.654740 500.000000
-0.260000 0.260000 0.290000 229.793375 -33.337099 57.446671 500.000000
0.260000 0.260000 0.410000 -48.935876 -458.765998 -40.411255 500.000000
0.260000 0.090000 0.410000 -156.592837 74.146180 -12.659777 500.000000
0.175214 0.260000 0.410000 87.042849 -20.717467 -46.669517 500.000000
0.260000 0.090000 0.410000 -618.762188 224.475303 -45.124308 500.000000
-0.260000 0.090000 0.410000 230.536517 245.975465 -92.010550 500.000000
-0.118862 0.260000 0.339242 -75.772347 -45.654257 -14.151595 500.000000
-0.083137 0.260000 0.299975 -68.627322 -26.376369 -22.004973 500.000000
-0.260000 0.260000 0.290000 70.623801 -53.679724 21.602392 500.000000
-0.220604 0.090000 0.290000 -96.120850 310.343174 55.055408 500.000000
0.092197 0.260000 0.410000 70.439329 -21.890853 -79.184403 500.000000
-0.260000 0.090000 0.290000 305.079863 109.539102 55.320488 500.000000
0.260000 0.260000 0.290000 -128.793372 -54.764954 39.395443 500.000000
-0.007801 0.260000 0.410000 -16.636756 -93.584752 -16.471625 500.000000
0.260000 0.260000 0.290000 -86.606016 -182.068068 25.644145 500.000000
0.066056 0.260000 0.290000 -21.866566 -16.558431 31.357103 500.000000
0.135367 0.260000 0.410000 79.073335 -410.951521 -24.067578 500.000000
-0.055459 0.090000 0.290000 -63.091758 44.281281 133.922826 500.000000
-0.154634 0.260000 0.290000 -82.926840 -97.430406 129.613471 500.000000
-0.260000 0.260000 0.410000 259.038751 -333.169125 -20.103135 500.000000
-0.260000 0.090000 0.410000 213.408312 276.060602 -169.453379 500.000000
-0.199411 0.260000 0.314740 -34.302198 -21.059506 -19.052028 500.000000
-0.058184 0.260000 0.290000 -63.636869 -79.863358 140.329149 500.000000
0.260000 0.090000 0.290000 -84.808014 122.773448 30.668361 500.000000
0.007549 0.260000 0.410000 20.931909 -19.032045 -22.363328 500.000000
-0.260000 0.090000 0.410000 211.614295 207.276443 -45.748274 500.000000
0.260000 0.260000 0.290000 -86.181200 -74.089336 22.034614 500.000000
0.260000 0.260000 0.290000 -72.935997 -66.895117 133.586675 500.000000
0.260000 0.260000 0.290000 -79.334974 -82.157079 23.434949 500.000000
0.260000 0.260000 0.410000 -519.158853 -153.566133 -39.557763 500.000000
0.260000 0.260000 0.290000 -83.482033 -691.754848 31.651334 500.000000
-0.260000 0.260000 0.410000 72.575048 -24.356925 -24.039768 500.000000
-0.260000 0.260000 0.290000 83.306109 -46.372941 37.538124 500.000000
-0.260000 0.260000 0.410000 236.563391 -23.526397 -101.277609 500.000000
-0.260000 0.090000 0.410000 150.911163 37.004806 -69.750969 500.000000
-0.260000 0.260000 0.290000 54.066350 -37.024133 39.696403 500.000000
-0.260000 0.260000 0.290000 296.365484 -176.834763 25.885449 500.000000
0.260000 0.090000 0.410000 -537.648551 232.532137 -49.180222 500.000000
0.007278 0.260000 0.290000 53.455642 -51.285068 517.742636 500.000000
0.260000 0.186377 0.410000 -118.380791 19.275380 -14.704237 500.000000
0.260000 0.212206 0.410000 -456.214880 24.441260 -107.421830 500.000000
0.260000 0.260000 0.410000 -399.432268 -388.884869 -39.204664 500.000000
0.260000 0.260000 0.410000 -110.182533 -169.757051 -66.219874 500.000000
0.260000 0.090000 0.410000 -72.956306 113.889531 -38.394445 500.000000
-0.134179 0.144198 0.410000 -50.938609 -23.160468 -66.185173 500.000000
0.061885 0.260000 0.410000 64.376951 -84.344431 -34.039368 500.000000
0.202069 0.260000 0.410000 92.413726 -38.544071 -54.087964 500.000000
-0.260000 0.090000 0.410000 210.369924 226.136400 -48.694552 500.000000
0.260000 0.260000 0.290000 -73.074366 -39.596073 135.877138 500.000000
-0.219492 0.090000 0.290000 -95.898306 305.434617 115.766791 500.000000
0.260000 0.260000 0.290000 -99.250089 -28.732331 42.891603 500.000000
0.070238 0.090000 0.410000 -37.952356 70.703207 -137.194783 500.000000
-0.260000 0.260000 0.290000 72.135626 -86.029587 20.353629 500.000000
-0.175111 0.260000 0.290000 -87.022128 -125.601000 200.140529 500.000000
0.260000 0.260000 0.290000 -147.685407 -42.310520 51.692980 500.000000
0.260000 0.090000 0.410000 -106.484810 56.081339 -84.479810 500.000000
0.260000 0.260000 0.290000 -163.264677 -37.784504 50.928424 500.000000
-0.260000 0.090000 0.410000 227.958928 219.410044 -72.820935 500.000000
-0.042253 0.136997 0.311210 -30.221487 9.399457 -19.757930 500.000000
0.260000 0.260000 0.410000 -57.153579 -24.289853 -199.499906 500.000000
-0.260000 0.090000 0.410000 213.053603 297.712691 -212.209643 500.000000
-0.260000 0.260000 0.410000 63.965496 -23.904336 -21.113396 500.000000
0.260000 0.260000 0.290000 -118.106639 -26.995400 69.222795 500.000000
-0.260000 0.090000 0.410000 214.006402 254.300707 -126.142791 500.000000
-0.260000 0.090000 0.290000 102.956976 130.361067 157.672313 500.000000
-0.026967 0.260000 0.410000 -31.319788 -22.387362 -26.020598 500.000000
-0.260000 0.260000 0.290000 65.960688 -52.209633 21.605853 500.000000
-0.165292 0.090000 0.410000 -34.380574 43.758812 -69.718476 500.000000
-0.260000 0.260000 0.410000 114.696464 -20.846029 -20.683140 500.000000
0.260000 0.260000 0.290000 -69.323602 -101.098263 129.330263 500.000000
0.260000 0.090000 0.410000 -562.441200 225.008174 -46.547900 500.000000
-0.260000 0.090000 0.410000 226.636501 245.008205 -29.597402 500.000000
-0.260000 0.260000 0.410000 90.349521 -18.341644 -14.365052 500.000000
0.230571 0.260000 0.410000 5.719059 -45.023736 -18.486136 500.000000
0.132191 0.260000 0.410000 78.438293 -25.341229 -50.505006 500.000000
0.260000 0.090000 0.410000 -487.118231 74.651670 -41.227690 500.000000
0.260000 0.090000 0.290000 -100.648329 124.896547 83.539149 500.000000
0.260000 0.260000 0.290000 -163.401587 -38.684634 90.029699 500.000000
0.260000 0.090000 0.290000 -85.381143 143.486869 30.729695 500.000000
0.186070 0.260000 0.410000 89.213954 -28.164902 -157.133043 500.000000
-0.207517 0.260000 0.290000 -93.503490 -45.782960 17.816169 500.000000
-0.260000 0.090000 0.410000 224.052562 223.297340 -68.239325 500.000000
0.242765 0.090000 0.410000 18.070799 21.979664 -16.790564 500.000000
0.260000 0.090000 0.410000 -58.078044 166.595587 -89.214982 500.000000
0.260000 0.260000 0.410000 -76.373207 -38.070124 -16.544027 500.000000
-0.260000 0.090000 0.410000 207.368750 217.504916 -24.827448 500.000000
-0.260000 0.090000 0.410000 58.542359 47.971993 -81.393733 500.000000
-0.260000 0.090000 0.410000 214.593386 232.599818 -82.964955 500.000000
-0.041173 0.260000 0.410000 43.765445 -62.254220 -24.085331 500.000000
-0.260000 0.090000 0.410000 215.064719 211.133781 -40.968384 500.000000
-0.260000 0.090000 0.290000 137.365118 107.722973 46.468566 500.000000
0.114953 0.260000 0.290000 74.990557 -24.121016 92.657561 500.000000
-0.260000 0.260000 0.290000 59.263091 -62.864737 21.401078 500.000000
-0.260000 0.090000 0.354535 64.232431 49.283293 12.906987 500.000000
0.260000 0.090000 0.366746 -16.074463 27.643432 15.349133 500.000000
-0.260000 0.090000 0.410000 211.059278 217.429836 -46.611103 500.000000
-0.260000 0.090000 0.410000 70.777034 31.107293 -96.308247 500.000000
0.124904 0.260000 0.410000 22.493325 -21.301090 -13.223032 500.000000
0.260000 0.260000 0.290000 -56.649560 -44.352450 130.755581 500.000000
0.208045 0.260000 0.410000 93.609045 -25.311431 -79.126820 500.000000
0.260000 0.260000 0.290000 -72.774590 -24.976541 76.976849 500.000000
0.260000 0.260000 0.290000 -173.589811 -48.646816 53.792427 500.000000
-0.056861 0.090000 0.361899 40.627762 81.152309 14.379715 500.000000
0.260000 0.260000 0.409853 -119.350108 -17.802494 23.970560 500.000000
0.135741 0.260000 0.410000 79.148129 -25.803686 -34.514635 500.000000
-0.185807 0.260000 0.290000 -89.161498 -38.919810 29.534531 500.000000
0.080920 0.260000 0.410000 -35.815930 -12.341618 -18.296594 500.000000
0.235052 0.260000 0.290000 99.010318 -36.139891 157.716544 500.000000
-0.038206 0.260000 0.290000 -59.641291 -37.618542 102.556362 500.000000
-0.237447 0.095234 0.290000 -70.480167 -32.953298 235.094425 500.000000
-0.260000 0.090000 0.319968 155.593973 24.986466 -18.006414 500.000000
0.260000 0.090000 0.290000 -83.438703 124.612030 30.663965 500.000000
-0.093289 0.260000 0.295583 -70.657741 -39.347289 -22.883470 500.000000
-0.260000 0.260000 0.290000 68.345542 -29.436249 194.516793 500.000000
0.260000 0.090000 0.290000 -86.293776 127.237448 30.677511 500.000000
0.192554 0.260000 0.290000 90.510812 -38.547068 128.304543 500.000000
-0.032054 0.090000 0.290000 45.589262 139.626335 23.836414 500.000000
0.260000 0.260000 0.410000 -56.956180 -44.970869 -141.909772 500.000000
0.164126 0.260000 0.410000 84.825101 -25.356733 -34.862604 500.000000
-0.116634 0.260000 0.410000 28.673189 -18.843861 -44.681605 500.000000
0.260000 0.260000 0.410000 -346.980719 -12.043418 -40.796553 500.000000
0.260000 0.260000 0.290000 -87.674084 -31.073548 45.499977 500.000000
0.188754 0.090000 0.290000 89.750733 355.633833 95.730111 500.000000
-0.260000 0.260000 0.290000 94.493135 -127.322284 35.452090 500.000000
0.113289 0.260000 0.290000 74.657890 -31.153795 58.126989 500.000000
-0.260000 0.090000 0.410000 74.728299 29.013096 -144.160064 500.000000
-0.260000 0.256734 0.408197 56.804983 33.346768 23.639341 500.000000
0.260000 0.260000 0.410000 -96.820789 -17.157521 -28.391473 500.000000
0.260000 0.260000 0.290000 -81.263726 -469.427443 36.756578 500.000000
0.260000 0.090000 0.410000 -83.469924 117.778464 -65.042921 500.000000
-0.080960 0.090000 0.290000 -68.191933 126.425636 155.267010 500.000000
0.231771 0.260000 0.290000 98.354293 -43.172235 129.401762 500.000000
-0.260000 0.090000 0.410000 298.504350 290.221782 -25.523631 500.000000
-0.260000 0.260000 0.290000 71.748775 -28.872781 30.965685 500.000000
0.242355 0.260000 0.410000 100.471018 -43.012109 -139.441278 500.000000
0.260000 0.260000 0.410000 -229.143513 -304.554545 -40.269355 500.000000
0.260000 0.260000 0.290000 -53.007095 -47.693721 142.255805 500.000000
0.260000 0.090000 0.410000 -624.918048 219.990890 -43.979585 500.000000
0.260000 0.260000 0.410000 -60.744767 -25.571961 -31.208794 500.000000
0.260000 0.260000 0.410000 -66.150988 -25.190361 -36.945182 500.000000
0.260000 0.090000 0.290000 -84.126939 133.599073 30.672479 500.000000
-0.008666 0.090000 0.290000 -53.733208 103.623496 128.860931 500.000000
-0.072786 0.090000 0.290000 -66.557220 118.279091 544.691108 500.000000
-0.260000 0.260000 0.410000 84.320716 -26.473334 -170.239950 500.000000
-0.172917 0.260000 0.290000 -86.583490 -156.328431 143.709326 500.000000
0.132785 0.194506 0.290000 -11.005060 8.977834 97.346735 500.000000
-0.187106 0.119657 0.349229 -9.318340 5.931428 -12.154247 500.000000
0.108369 0.176361 0.410000 30.575157 17.272271 -19.813326 500.000000
0.101889 0.260000 0.410000 72.377778 -30.238539 -38.317552 500.000000
-0.198847 0.090000 0.290000 -91.769328 101.362431 149.370349 500.000000
-0.260000 0.260000 0.290000 69.908540 -53.051637 28.527892 500.000000
-0.260000 0.260000 0.290000 122.300776 -30.611863 18.868037 500.000000
0.260000 0.223178 0.410000 -23.650027 26.635540 -28.679446 500.000000
-0.260000 0.260000 0.290000 65.001317 -106.973987 17.808727 500.000000
-0.260000 0.260000 0.290000 56.929781 -56.387065 20.780275 500.000000
0.152852 0.260000 0.410000 82.570497 -31.088487 -35.090686 500.000000
0.231264 0.260000 0.410000 98.252900 -26.135540 -51.085717 500.000000
0.260000 0.260000 0.339632 -65.514736 -26.323663 -14.073628 500.000000
0.260000 0.260000 0.410000 -40.388462 -32.438651 -15.362881 500.000000
0.260000 0.260000 0.359403 -44.745429 -22.850697 13.880606 500.000000
-0.063113 0.218938 0.410000 -31.374537 25.787656 -26.959815 500.000000
0.260000 0.260000 0.410000 -341.275440 -319.409387 -40.250235 500.000000
-0.227821 0.090000 0.290000 -97.564137 126.414466 154.363721 500.000000
0.159175 0.136943 0.290000 13.279103 -24.611313 137.837674 500.000000
-0.260000 0.260000 0.410000 100.550592 -348.800058 -41.151531 500.000000
0.126904 0.260000 0.290000 -26.619132 -23.591268 146.910218 500.000000
-0.098504 0.090000 0.410000 4.515152 50.673461 -81.718460 500.000000
-0.167805 0.260000 0.366811 -85.561058 -47.633407 -8.637757 500.000000
-0.009707 0.090000 0.410000 50.058514 34.830861 -183.368055 500.000000
-0.260000 0.200705 0.351432 51.290330 22.141024 12.286371 500.000000
0.260000 0.260000 0.290000 -56.206175 -32.293700 133.017887 500.000000
0.260000 0.090000 0.290000 -110.771837 115.351132 258.065366 500.000000
0.198551 0.260000 0.290000 91.710186 -39.807771 128.315048 500.000000
-0.260000 0.260000 0.410000 100.314094 -23.874401 -25.608789 500.000000
-0.260000 0.260000 0.410000 308.434472 -295.197732 -59.352870 500.000000
0.243920 0.090000 0.410000 39.815960 35.009464 -37.478544 500.000000
0.260000 0.260000 0.290000 -29.387014 -15.963000 20.943278 500.000000
-0.084324 0.090000 0.410000 35.135158 56.507977 -21.495951 500.000000
0.211792 0.260000 0.410000 94.358427 -24.879594 -271.543683 500.000000
0.053018 0.260000 0.290000 -41.396472 -63.606281 50.559167 500.000000
0.260000 0.090000 0.290000 -83.572827 123.662531 31.846785 500.000000
-0.260000 0.260000 0.410000 253.103859 -441.079127 -102.107993 500.000000
0.260000 0.090000 0.410000 -83.034595 96.603159 -75.244258 500.000000
-0.260000 0.090000 0.410000 231.662355 226.487189 -48.279430 500.000000
-0.260000 0.260000 0.410000 283.944264 -20.556840 -54.907866 500.000000
