ply
format ascii 1.0
element vertex 240
property float x
property float y
property float z
property float vx
property float vy
property float vz
property float density
end_header
0.218375 0.260000 0.410000 95.674994 -47.484126 -41.849349 500.000000
-0.260000 0.260000 0.410000 272.910545 -73.732736 -255.901165 500.000000
0.260000 0.090000 0.410000 -26.684670 17.619184 -13.654763 500.000000
0.260000 0.260000 0.410000 -109.189520 -47.313103 -41.902795 500.000000
-0.260000 0.260000 0.290000 115.138301 -107.007275 52.988513 500.000000
-0.260000 0.260000 0.331636 43.661835 -18.382521 -15.672827 500.000000
-0.190152 0.090000 0.410000 -39.846907 30.856594 -23.480760 500.000000
0.164221 0.260000 0.290000 84.844298 -17.856123 82.911974 500.000000
-0.260000 0.090000 0.333605 91.841971 112.794045 -15.279091 500.000000
-0.260000 0.090000 0.334259 105.587986 95.526217 -15.148218 500.000000
0.260000 0.090000 0.410000 -109.328246 27.511676 -51.594078 500.000000
0.059343 0.090000 0.410000 63.868690 24.230537 -56.147384 500.000000
0.158429 0.260000 0.290000 -6.635839 -50.252917 28.790901 500.000000
-0.141376 0.260000 0.290000 -80.275135 -10.776562 19.486340 500.000000
-0.260000 0.260000 0.410000 82.299511 -105.311003 -587.720121 500.000000
0.260000 0.090000 0.380480 -1166.620500 82.444129 18.095976 500.000000
-0.260000 0.260000 0.290000 96.490485 -38.521729 621.282467 500.000000
0.260000 0.090000 0.410000 -116.414224 20.445776 -69.683524 500.000000
-0.260000 0.260000 0.290000 61.673334 -34.380331 634.522274 500.000000
-0.260000 0.260000 0.290000 64.414246 -35.847479 445.339103 500.000000
0.196693 0.260000 0.290000 91.338680 -17.955920 108.851555 500.000000
0.260000 0.260000 0.290000 -52.378623 -21.725786 83.426026 500.000000
0.170791 0.260000 0.290000 86.158181 -18.505598 90.669414 500.000000
0.172501 0.163385 0.290000 46.664891 -19.322975 193.485860 500.000000
0.260000 0.090000 0.290000 -43.130061 131.830413 43.849050 500.000000
-0.260000 0.090000 0.383536 156.952940 107.544483 18.707150 500.000000
-0.071684 0.260000 0.290000 0.544750 -19.086465 49.365781 500.000000
-0.260000 0.090000 0.290000 349.349396 33.324175 27.798695 500.000000
-0.260000 0.090000 0.410000 228.299569 153.779383 -23.323796 500.000000
0.177198 0.090000 0.330716 60.651289 82.600117 -15.856811 500.000000
-0.260000 0.260000 0.410000 150.456421 -79.954806 -253.592074 500.000000
-0.019003 0.090000 0.410000 48.199309 45.354800 -35.830415 500.000000
0.260000 0.260000 0.410000 -64.859880 -106.042675 -33.601235 500.000000
0.260000 0.260000 0.290000 -137.420398 -355.932449 63.477997 500.000000
-0.260000 0.090000 0.377675 129.981146 100.087316 17.534946 500.000000
0.260000 0.208866 0.361321 -29.547569 23.773171 14.264232 500.000000
0.192396 0.260000 0.410000 90.479281 -54.732479 -49.293665 500.000000
-0.112402 0.090000 0.291135 -16.087946 134.571219 -23.772971 500.000000
-0.260000 0.090000 0.410000 187.472932 25.473068 -36.262966 500.000000
0.260000 0.090000 0.290000 -59.797154 11.196495 38.808554 500.000000
-0.260000 0.137975 0.410000 80.935950 -24.405039 -53.100756 500.000000
0.260000 0.090000 0.410000 -109.209148 27.422503 -50.558199 500.000000
-0.260000 0.260000 0.410000 140.350746 -115.445980 -261.638755 500.000000
0.260000 0.260000 0.290000 -54.781094 -29.329594 84.667474 500.000000
-0.260000 0.090000 0.410000 104.186619 123.206815 -18.820577 500.000000
0.251162 0.260000 0.410000 102.232381 -30.512888 -223.225064 500.000000
0.260000 0.260000 0.410000 -54.037982 -321.700650 -41.467942 500.000000
0.206531 0.090000 0.410000 93.306140 21.501638 -67.727268 500.000000
-0.260000 0.260000 0.410000 215.258764 -80.000791 -253.628505 500.000000
0.260000 0.260000 0.290000 -150.165811 -72.359313 44.938969 500.000000
0.260000 0.260000 0.410000 -53.020823 -44.693923 -36.871441 500.000000
0.260000 0.090000 0.410000 -106.822488 20.389378 -65.788640 500.000000
0.260000 0.260000 0.410000 -57.515251 -47.183257 -36.773775 500.000000
0.260000 0.260000 0.410000 -647.913750 -44.635301 -202.518069 500.000000
-0.260000 0.260000 0.410000 208.423687 -80.143894 -253.609321 500.000000
-0.260000 0.090000 0.384200 127.957370 104.687238 18.840071 500.000000
0.260000 0.090000 0.410000 -96.830033 18.049697 -53.088916 500.000000
-0.260000 0.090000 0.296902 120.764533 33.518945 -22.619654 500.000000
-0.077349 0.090000 0.290000 -67.469754 8.206143 13.242259 500.000000
0.260000 0.260000 0.410000 -88.936325 -47.329552 -41.878857 500.000000
0.260000 0.260000 0.410000 -99.681981 -47.484173 -41.866032 500.000000
0.007666 0.094373 0.313968 53.533258 -17.963889 -19.206386 500.000000
-0.260000 0.260000 0.290000 112.600047 -102.473979 55.124852 500.000000
0.260000 0.090000 0.410000 -104.008659 86.204852 -136.546895 500.000000
-0.028466 0.250599 0.290000 46.306711 32.119871 42.632861 500.000000
0.260000 0.090000 0.410000 -118.179511 20.354749 -65.705587 500.000000
-0.260000 0.090000 0.290000 78.853056 54.559409 13.908382 500.000000
-0.260000 0.090000 0.377732 167.292250 100.085754 17.546339 500.000000
0.260000 0.090000 0.290000 -45.190151 143.489206 12.119462 500.000000
-0.260000 0.260000 0.410000 192.690248 -79.964641 -253.567477 500.000000
0.166215 0.260000 0.290000 85.242952 -18.788384 88.397410 500.000000
0.260000 0.090000 0.410000 -70.332081 21.638405 -65.256026 500.000000
0.174314 0.090000 0.410000 86.862875 253.842631 -57.210421 500.000000
0.260000 0.260000 0.290000 -206.998392 -31.470503 181.731637 500.000000
0.260000 0.090000 0.290000 -93.885731 34.144930 40.046276 500.000000
-0.260000 0.260000 0.410000 246.650202 -78.231763 -256.443105 500.000000
0.020735 0.211720 0.410000 -3.681268 -9.655981 -149.417804 500.000000
-0.260000 0.090000 0.377650 121.611281 100.085434 17.529900 500.000000
0.260000 0.115505 0.410000 -263.165533 -28.899056 -50.580702 500.000000
-0.260000 0.260000 0.290000 102.942030 -23.823351 55.953984 500.000000
0.260000 0.090000 0.290000 -131.983468 34.642998 40.045907 500.000000
0.260000 0.090000 0.290000 -104.783877 34.311665 40.046234 500.000000
-0.218666 0.260000 0.401289 -95.733136 -682.649116 22.257791 500.000000
0.260000 0.090000 0.290000 -61.244452 33.814606 40.046617 500.000000
-0.260000 0.260000 0.290000 79.378551 -34.031057 82.911640 500.000000
0.260000 0.090000 0.410000 -84.894383 26.161401 -65.019114 500.000000
0.260000 0.090000 0.410000 -62.830228 20.336843 -65.822240 500.000000
0.260000 0.260000 0.290000 -60.822104 -25.809164 89.637868 500.000000
-0.236602 0.090000 0.290000 -17.670511 33.189953 12.373038 500.000000
0.260000 0.260000 0.410000 -632.286260 -56.997759 -234.822276 500.000000
-0.260000 0.260000 0.290000 83.151825 -175.155130 55.828906 500.000000
0.059129 0.090000 0.290000 9.752196 8.711651 6.050454 500.000000
-0.260000 0.090000 0.410000 119.144091 104.449289 -17.862612 500.000000
-0.260000 0.162755 0.410000 65.350719 -19.449032 -52.653704 500.000000
-0.260000 0.260000 0.290000 64.756941 -35.835061 531.526887 500.000000
-0.260000 0.090000 0.290000 35.306032 30.479909 71.148145 500.000000
-0.260000 0.260000 0.290000 67.442395 -35.872095 249.804201 500.000000
-0.260000 0.090000 0.378941 194.091075 100.098267 17.788185 500.000000
0.151947 0.260000 0.290000 82.389494 -18.195718 82.374298 500.000000
0.260000 0.090000 0.290000 -72.967905 28.400074 1083.643381 500.000000
-0.260000 0.260000 0.410000 200.114287 -79.963533 -253.568053 500.000000
0.260000 0.090000 0.410000 -106.009428 25.269605 -66.257941 500.000000
-0.260000 0.090000 0.383515 130.099249 108.316447 18.703067 500.000000
0.221131 0.090000 0.410000 96.226192 20.320522 -50.506359 500.000000
0.136767 0.260000 0.290000 79.353496 -52.214887 87.501865 500.000000
0.260000 0.090000 0.410000 -29.000718 54.640696 -1.670591 500.000000
0.260000 0.260000 0.410000 -76.904413 -46.466850 -37.752720 500.000000
0.260000 0.260000 0.290000 -22.021738 -29.610672 7.057136 500.000000
0.260000 0.260000 0.410000 -275.026677 -38.677939 -38.460262 500.000000
-0.260000 0.260000 0.290000 80.215819 -99.494846 61.630749 500.000000
-0.260000 0.090000 0.290000 99.958758 35.760566 45.070097 500.000000
-0.093308 0.090000 0.324171 -4.029962 32.762949 6.834273 500.000000
0.260000 0.090000 0.410000 -78.894848 20.324747 -65.787888 500.000000
-0.260000 0.192382 0.355062 32.134244 20.476391 13.012497 500.000000
0.260000 0.090000 0.290000 -139.603224 34.549798 40.079967 500.000000
-0.260000 0.090000 0.410000 361.313388 107.335418 -107.160757 500.000000
-0.260000 0.090000 0.410000 152.009821 702.392335 -248.012136 500.000000
0.250676 0.260000 0.410000 102.135236 -47.358677 -41.879077 500.000000
0.108009 0.152546 0.410000 17.897298 12.509141 -89.780272 500.000000
0.260000 0.260000 0.410000 -67.406217 -47.347673 -41.879284 500.000000
0.260000 0.090000 0.410000 -89.659575 20.331963 -65.787516 500.000000
-0.097762 0.090000 0.290000 -71.552480 90.087745 65.558311 500.000000
-0.260000 0.090000 0.290000 77.491269 33.949770 12.137684 500.000000
-0.260000 0.090000 0.377682 139.945990 100.086545 17.536487 500.000000
0.260000 0.090000 0.290000 -237.759550 437.772477 169.492659 500.000000
0.260000 0.090000 0.290000 -122.015799 34.146812 40.183358 500.000000
0.260000 0.090000 0.299573 -374.630086 81.358368 -22.085425 500.000000
0.260000 0.260000 0.340616 -75.166753 -97.961308 -13.876879 500.000000
-0.119302 0.090000 0.410000 28.139518 20.608127 -50.497779 500.000000
-0.150019 0.180100 0.351121 -2.157622 18.019994 12.224207 500.000000
-0.068407 0.090000 0.290000 -65.681311 153.839542 29.248350 500.000000
0.260000 0.090000 0.410000 -68.087136 20.336910 -65.818991 500.000000
-0.260000 0.090000 0.333886 75.670912 114.519234 -15.222870 500.000000
0.260000 0.090000 0.290000 -79.883221 31.996327 80.199095 500.000000
0.163180 0.260000 0.290000 84.636039 -18.078969 88.187098 500.000000
-0.260000 0.090000 0.377431 178.426829 101.188827 17.486119 500.000000
-0.256928 0.090000 0.410000 -103.385574 353.411140 -74.686954 500.000000
0.260000 0.260000 0.290000 -42.293286 -29.091884 19.389051 500.000000
0.260000 0.260000 0.410000 -714.770298 -51.844641 -195.907131 500.000000
-0.260000 0.090000 0.290000 99.243638 102.951002 12.107125 500.000000
0.260000 0.090000 0.290000 -115.661419 33.153855 40.046742 500.000000
0.260000 0.090000 0.290000 -72.129569 33.644843 40.046471 500.000000
-0.260000 0.260000 0.290000 119.767628 -102.769787 55.808791 500.000000
0.260000 0.090000 0.290000 -131.981176 34.474262 40.045872 500.000000
0.260000 0.090000 0.347771 -121.572743 55.642623 -12.445703 500.000000
0.260000 0.260000 0.410000 -242.509284 -48.550618 -38.957670 500.000000
0.219099 0.113956 0.410000 95.819878 -29.208809 -53.630004 500.000000
-0.260000 0.090000 0.378020 148.049508 100.096915 17.604063 500.000000
0.230110 0.260000 0.410000 98.022073 -85.549823 -39.901983 500.000000
-0.260000 0.260000 0.290000 84.582384 -63.431879 55.834255 500.000000
-0.260000 0.260000 0.410000 54.269905 -672.705967 -20.461272 500.000000
-0.260000 0.090000 0.385089 114.155416 115.172527 19.017825 500.000000
0.260000 0.090000 0.290000 -82.992441 33.976561 40.046315 500.000000
0.260000 0.260000 0.290000 -97.190934 -41.096030 48.206632 500.000000
-0.260000 0.260000 0.290000 23.646541 -22.401483 51.426795 500.000000
0.260000 0.090000 0.290000 -18.510003 146.244289 23.511413 500.000000
0.161529 0.260000 0.290000 84.305844 -21.286342 88.084685 500.000000
0.260000 0.260000 0.410000 -22.224290 -26.321818 -21.524881 500.000000
0.260000 0.090000 0.410000 -97.637214 21.105196 -65.766587 500.000000
-0.260000 0.090000 0.296163 132.175982 58.633985 -22.767410 500.000000
0.260000 0.260000 0.290000 -635.034395 -117.571071 29.078537 500.000000
0.163443 0.260000 0.290000 84.688682 -18.691461 88.165237 500.000000
0.260000 0.090000 0.410000 -62.058912 22.432678 -50.500567 500.000000
-0.260000 0.090000 0.378034 211.662811 100.144843 17.606835 500.000000
-0.260000 0.260000 0.290000 166.523481 -105.622387 58.780470 500.000000
-0.260000 0.260000 0.290000 55.958724 -73.899877 330.728152 500.000000
0.182323 0.260000 0.290000 10.060311 -102.140502 41.554489 500.000000
-0.260000 0.090000 0.378120 227.415531 100.135006 17.624041 500.000000
0.250693 0.260000 0.410000 102.138586 -47.352932 -41.879264 500.000000
-0.122540 0.204106 0.330934 -14.649213 -11.178731 8.186882 500.000000
0.044242 0.154180 0.410000 60.848318 -21.164009 -49.563477 500.000000
0.015946 0.247060 0.290000 55.189196 31.411941 77.157475 500.000000
0.260000 0.260000 0.410000 -108.789021 -276.768186 -25.756310 500.000000
-0.260000 0.260000 0.410000 182.454053 -80.227337 -253.560885 500.000000
-0.260000 0.260000 0.410000 161.402624 -116.508178 -303.964518 500.000000
-0.260000 0.090000 0.290000 88.260090 29.560121 240.914076 500.000000
0.260000 0.260000 0.410000 -121.917476 -63.736085 -630.233264 500.000000
0.260000 0.090000 0.290000 -85.615805 34.182354 39.375657 500.000000
-0.260000 0.260000 0.410000 161.339789 -79.981424 -253.606403 500.000000
-0.260000 0.260000 0.290000 83.838834 -113.560445 55.893695 500.000000
0.260000 0.090000 0.325162 -334.055781 118.248658 -16.967669 500.000000
-0.260000 0.090000 0.378003 202.825603 100.136448 17.600644 500.000000
-0.260000 0.260000 0.410000 139.131139 -86.390169 -253.282569 500.000000
-0.260000 0.238700 0.290000 323.407898 29.739970 409.878438 500.000000
-0.260000 0.260000 0.290000 96.304114 -41.410507 208.717602 500.000000
0.194349 0.090000 0.410000 90.869740 172.516279 -54.300011 500.000000
0.260000 0.090000 0.410000 -53.646875 20.325655 -65.826393 500.000000
-0.260000 0.090000 0.379309 167.420002 104.650288 17.861739 500.000000
-0.260000 0.090000 0.290000 161.407002 63.492419 219.821434 500.000000
-0.260000 0.260000 0.290000 76.406898 -110.854793 51.482483 500.000000
0.260000 0.260000 0.410000 -101.486304 -47.338094 -41.833456 500.000000
-0.260000 0.260000 0.290000 65.140881 -35.438635 582.728419 500.000000
-0.260000 0.260000 0.410000 172.139881 -79.985274 -253.606334 500.000000
-0.260000 0.260000 0.290000 69.884312 -36.686051 196.117720 500.000000
0.258086 0.260000 0.344553 25.077648 -21.521180 -13.089437 500.000000
-0.260000 0.090000 0.309149 27.702510 30.659959 -20.170111 500.000000
-0.260000 0.090000 0.332702 82.347231 51.071224 -15.459537 500.000000
-0.260000 0.260000 0.290000 74.358474 -37.470316 104.085144 500.000000
0.260000 0.260000 0.290000 -59.062955 -18.322943 74.020014 500.000000
-0.260000 0.090000 0.377806 217.197266 101.028986 17.561223 500.000000
0.260000 0.090000 0.410000 -70.014624 47.153649 -67.077252 500.000000
-0.260000 0.260000 0.290000 118.633400 -102.466778 55.808968 500.000000
0.260000 0.090000 0.290000 -56.499736 42.909723 40.379025 500.000000
-0.260000 0.090000 0.290000 170.288669 63.813551 21.777243 500.000000
-0.217896 0.090000 0.410000 -62.739051 34.317364 -14.653334 500.000000
-0.260000 0.260000 0.290000 106.388618 -116.507126 16.958024 500.000000
0.260000 0.090000 0.378126 -1100.247645 101.290858 17.625247 500.000000
-0.260000 0.090000 0.290000 77.282540 56.225513 13.217050 500.000000
-0.260000 0.260000 0.366376 104.392669 -1090.712035 15.275270 500.000000
-0.260000 0.090000 0.410000 163.437605 106.028613 -25.209633 500.000000
-0.260000 0.090000 0.290000 63.808180 99.996462 36.527131 500.000000
-0.260000 0.260000 0.290000 67.850547 -36.297360 321.242704 500.000000
-0.260000 0.260000 0.290000 73.052909 -37.136524 137.587231 500.000000
-0.260000 0.260000 0.290000 80.817651 -138.810721 55.958169 500.000000
0.260000 0.090000 0.410000 -78.192551 26.256594 -50.530969 500.000000
-0.260000 0.260000 0.410000 139.588888 -79.938304 -253.638929 500.000000
0.002443 0.090000 0.313431 -51.511407 13.081775 -19.313810 500.000000
-0.260000 0.248720 0.410000 53.963922 31.743948 -126.630629 500.000000
-0.260000 0.090000 0.383552 109.421542 109.714914 18.710389 500.000000
0.050447 0.090000 0.410000 -19.721139 48.098963 -13.196872 500.000000
0.260000 0.090000 0.410000 -91.575824 20.320410 -65.699754 500.000000
-0.260000 0.260000 0.410000 120.318972 -73.740452 -258.537685 500.000000
0.260000 0.260000 0.410000 -116.057133 -43.583574 -39.414708 500.000000
0.260000 0.090000 0.410000 -98.753512 21.222134 -65.772442 500.000000
-0.260000 0.090000 0.392989 145.702064 104.366064 20.597774 500.000000
0.260000 0.090000 0.410000 -87.292692 28.785266 -65.262479 500.000000
0.260000 0.090000 0.410000 -54.353725 309.076449 -137.556824 500.000000
-0.069718 0.145595 0.290000 -17.643786 4.799307 85.858332 500.000000
-0.260000 0.260000 0.290000 64.035142 -35.848347 359.481734 500.000000
0.260000 0.090000 0.410000 -67.333769 21.151729 -366.200501 500.000000
-0.260000 0.260000 0.410000 169.911584 -78.814497 -336.375518 500.000000
0.260000 0.260000 0.290000 -52.815961 -24.406461 84.242290 500.000000
0.260000 0.260000 0.290000 -38.022744 -107.004749 13.279837 500.000000
-0.260000 0.090000 0.296758 131.465269 73.596864 -22.648411 500.000000
-0.260000 0.090000 0.377434 188.763762 101.299518 17.486767 500.000000
0.260000 0.260000 0.410000 -78.173185 -47.317192 -41.886730 500.000000
-0.260000 0.090000 0.290781 180.758361 59.188469 -23.843727 500.000000
-0.260000 0.090000 0.377654 158.585829 100.083964 17.530818 500.000000
-0.260000 0.090000 0.377309 169.381085 101.181382 17.461822 500.000000
0.177101 0.102753 0.376241 53.073246 -31.449307 17.248162 500.000000
