ply
format ascii 1.0
element vertex 240
property float x
property float y
property float z
property float vx
property float vy
property float vz
property float density
end_header
0.260000 0.090000 0.290000 -66.118815 128.292123 69.351448 500.000000
0.062987 0.260000 0.410000 64.597341 -510.363440 -408.879198 500.000000
0.260000 0.090000 0.290000 -70.481153 128.288306 106.620418 500.000000
-0.260000 0.260000 0.290000 92.171300 -30.356357 226.433910 500.000000
-0.260000 0.260000 0.410000 40.939459 -9.310830 -81.418558 500.000000
-0.260000 0.090000 0.410000 99.109656 124.578108 -41.801131 500.000000
0.260000 0.260000 0.290000 -52.067211 -24.743164 19.791033 500.000000
-0.260000 0.090000 0.410000 143.548433 56.846916 -20.593432 500.000000
0.260000 0.090000 0.290000 -75.272185 32.248501 312.974953 500.000000
-0.260000 0.260000 0.410000 221.611458 -22.586435 -24.224209 500.000000
-0.260000 0.260000 0.290000 85.080949 -71.432615 193.797816 500.000000
0.260000 0.260000 0.290000 -106.517988 -77.640053 65.548486 500.000000
-0.260000 0.260000 0.290000 114.899177 -50.847611 264.607561 500.000000
0.260000 0.090000 0.290000 -68.967941 127.707695 66.237852 500.000000
0.100009 0.260000 0.290000 72.001848 -76.550191 103.356906 500.000000
-0.121484 0.260000 0.290000 27.703199 -41.393665 62.753532 500.000000
0.260000 0.260000 0.290000 -55.306410 -115.761590 111.692345 500.000000
0.260000 0.260000 0.410000 -58.129279 -51.045344 -415.925010 500.000000
-0.260000 0.260000 0.290000 92.736471 -29.761981 222.587245 500.000000
-0.260000 0.260000 0.290000 91.138740 -29.076409 221.610901 500.000000
-0.203144 0.228426 0.309683 -7.997883 27.685188 -20.063352 500.000000
0.260000 0.260000 0.290000 -21.809979 -54.644910 12.741515 500.000000
-0.260000 0.260000 0.410000 161.432350 -993.648127 -45.485477 500.000000
0.260000 0.260000 0.290000 -65.847365 -19.667694 28.162869 500.000000
-0.260000 0.260000 0.410000 58.663218 -30.739543 -66.854700 500.000000
-0.179299 0.090000 0.410000 16.140253 19.929099 -85.255104 500.000000
0.260000 0.090000 0.290000 -67.859158 128.991051 70.295516 500.000000
-0.010652 0.260000 0.410000 9.990826 -24.579573 -35.113190 500.000000
0.260000 0.090000 0.410000 -73.165869 39.284203 -109.397239 500.000000
0.027679 0.090000 0.290000 -13.755978 61.484664 56.591049 500.000000
-0.260000 0.090000 0.410000 66.559488 82.606453 -278.839529 500.000000
-0.260000 0.090000 0.410000 367.814430 66.401207 -35.680621 500.000000
0.260000 0.260000 0.410000 -62.625715 -28.678019 -127.149969 500.000000
-0.260000 0.260000 0.290000 100.976858 -34.295234 221.257542 500.000000
0.260000 0.260000 0.290000 -484.573922 -76.363451 88.658367 500.000000
0.260000 0.090000 0.410000 -109.890941 38.508623 -97.865676 500.000000
0.260000 0.232274 0.410000 -29.648801 28.454729 -250.107100 500.000000
-0.128296 0.202378 0.410000 26.340731 22.475635 -291.963881 500.000000
-0.260000 0.090000 0.290000 193.208952 51.567779 88.197886 500.000000
0.260000 0.090000 0.410000 -70.681233 39.133299 -111.358823 500.000000
-0.125252 0.260000 0.290000 26.949516 -76.180866 114.902747 500.000000
0.260000 0.090000 0.410000 -955.066021 45.723395 -48.516267 500.000000
-0.233622 0.260000 0.410000 -98.724401 -50.298671 -62.181840 500.000000
0.260000 0.090000 0.410000 -101.135062 70.879751 -110.426676 500.000000
0.260000 0.090000 0.290000 -211.394616 142.094033 66.944331 500.000000
-0.260000 0.260000 0.410000 91.138753 -98.817714 -485.358011 500.000000
-0.260000 0.090000 0.410000 119.626311 71.465282 -49.894989 500.000000
0.260000 0.090000 0.290000 -28.962406 18.055842 34.270731 500.000000
-0.260000 0.260000 0.410000 90.554664 -155.713148 -498.725929 500.000000
0.260000 0.090000 0.290000 -67.376389 255.455117 78.162960 500.000000
0.260000 0.090000 0.290000 -73.940279 32.987514 259.151250 500.000000
0.260000 0.260000 0.290000 -62.177723 -85.333971 59.374486 500.000000
-0.260000 0.090000 0.410000 80.867216 72.430908 -39.545391 500.000000
-0.260000 0.090000 0.290000 209.866496 62.458054 89.776089 500.000000
-0.260000 0.260000 0.410000 106.946573 -44.797353 -63.317560 500.000000
-0.260000 0.090000 0.410000 506.847501 89.501724 -59.239278 500.000000
0.260000 0.090000 0.290000 -463.502846 90.616543 123.934741 500.000000
-0.260000 0.260000 0.410000 304.454086 -22.212881 -24.450773 500.000000
0.260000 0.090000 0.290000 -452.513029 50.833947 71.747630 500.000000
0.260000 0.260000 0.290000 -71.705096 -804.265698 148.166171 500.000000
0.260000 0.090000 0.410000 -87.187910 57.365216 -155.055573 500.000000
-0.123959 0.101571 0.410000 27.208164 -31.685712 -95.872835 500.000000
-0.260000 0.231334 0.375908 54.343450 28.266781 17.181636 500.000000
-0.015746 0.260000 0.290000 -31.171886 -19.865958 27.105479 500.000000
-0.260000 0.090000 0.410000 124.288393 100.975796 -41.097783 500.000000
-0.260000 0.260000 0.290000 93.851459 -30.509846 224.399765 500.000000
0.260000 0.260000 0.359219 -133.825123 -154.878777 13.843774 500.000000
0.260000 0.260000 0.410000 -163.242005 -21.727524 -24.145718 500.000000
0.110797 0.260000 0.290000 74.159384 -78.980713 83.040125 500.000000
0.260000 0.090000 0.290000 -53.993688 10.987135 48.005595 500.000000
-0.170034 0.228689 0.410000 -86.006729 27.737755 -346.707390 500.000000
0.260000 0.260000 0.290000 -646.836559 -62.329841 88.911329 500.000000
-0.260000 0.260000 0.410000 152.987039 -34.890693 -24.484839 500.000000
0.260000 0.090000 0.290000 -73.620604 142.102434 69.363661 500.000000
-0.260000 0.090000 0.290000 208.219404 57.091497 111.576528 500.000000
0.023735 0.260000 0.290000 56.747027 -45.120155 91.442227 500.000000
-0.260000 0.260000 0.290000 107.501826 -78.388871 226.759906 500.000000
0.003317 0.260000 0.410000 -51.336625 -101.367678 -83.950786 500.000000
-0.260000 0.260000 0.290000 103.491999 -79.471556 245.389031 500.000000
0.260000 0.090000 0.290000 -70.340357 128.770065 85.649291 500.000000
0.129715 0.260000 0.290000 77.942965 -118.299653 70.405336 500.000000
-0.260000 0.090000 0.290000 33.839872 9.448664 10.465676 500.000000
-0.260000 0.110534 0.354500 22.860649 -4.586011 -11.099969 500.000000
0.260000 0.090000 0.290000 -203.072962 18.911208 162.717317 500.000000
0.252552 0.260000 0.410000 102.510372 -32.677340 -30.670109 500.000000
0.260000 0.090000 0.410000 -75.578475 87.531777 -113.658768 500.000000
0.260000 0.260000 0.290000 -393.648624 -53.591318 95.561452 500.000000
-0.082800 0.241522 0.410000 -68.560040 30.304338 -271.534460 500.000000
0.260000 0.090000 0.290000 -70.886840 133.818590 106.479478 500.000000
-0.260000 0.260000 0.410000 71.153824 -32.397044 -62.630484 500.000000
0.260000 0.260000 0.410000 -84.716539 -379.929891 -56.204952 500.000000
0.260000 0.220444 0.290000 -74.036119 26.088876 217.132747 500.000000
-0.260000 0.260000 0.410000 92.538056 -42.593275 -364.786823 500.000000
-0.260000 0.260000 0.290000 82.567778 -44.023329 202.111164 500.000000
-0.176791 0.090000 0.290000 16.641744 868.664460 21.489780 500.000000
-0.260000 0.090000 0.410000 197.371669 114.612753 -419.363430 500.000000
-0.183289 0.260000 0.410000 -88.657839 -30.820202 -65.960264 500.000000
0.260000 0.194424 0.410000 -85.480819 20.884766 -204.292990 500.000000
0.260000 0.260000 0.290000 -16.983147 -341.856558 50.802916 500.000000
-0.260000 0.260000 0.290000 113.407971 -31.787025 227.458159 500.000000
-0.260000 0.090000 0.290000 511.683150 70.783909 58.853659 500.000000
-0.260000 0.090000 0.410000 78.898737 69.828242 -39.632846 500.000000
-0.260000 0.090000 0.290000 206.398908 52.359456 80.982341 500.000000
0.260000 0.090000 0.290000 -70.169643 127.977053 117.125935 500.000000
0.260000 0.260000 0.410000 -57.081095 -29.585804 -22.087559 500.000000
-0.260000 0.260000 0.290000 100.146485 -63.081292 237.337822 500.000000
0.260000 0.090000 0.410000 -92.439490 21.699089 -14.411250 500.000000
0.260000 0.260000 0.290000 -87.634887 -76.991227 65.575212 500.000000
-0.260000 0.260000 0.410000 67.144932 -92.349117 -46.729934 500.000000
0.260000 0.090000 0.290000 -71.207487 127.488239 145.964105 500.000000
0.260000 0.090000 0.410000 -78.142123 39.065025 -109.460525 500.000000
0.260000 0.260000 0.290000 -53.162620 -80.887054 83.760509 500.000000
0.167389 0.260000 0.290000 -18.522146 -10.468708 13.457055 500.000000
0.260000 0.206680 0.290000 -260.603826 23.336055 64.635167 500.000000
-0.260000 0.090000 0.290000 43.549578 152.691424 14.988787 500.000000
-0.000015 0.260000 0.290000 51.996948 -77.208330 79.008658 500.000000
-0.260000 0.260000 0.290000 95.270613 -30.276907 225.817916 500.000000
0.260000 0.090000 0.290000 -78.631179 67.020333 834.030270 500.000000
0.014973 0.260000 0.290000 54.994678 -40.239567 94.123127 500.000000
0.260000 0.090000 0.410000 -70.943271 39.093237 -109.348294 500.000000
0.260000 0.090000 0.410000 -70.862233 39.843070 -88.138091 500.000000
-0.260000 0.090000 0.410000 77.164705 70.400449 -39.584066 500.000000
-0.260000 0.260000 0.410000 87.176562 -80.261302 -679.781002 500.000000
0.260000 0.090000 0.410000 -71.066379 40.343560 -109.323189 500.000000
-0.260000 0.090000 0.290000 31.935654 170.713022 23.929990 500.000000
0.260000 0.155455 0.290000 -54.576074 -0.516040 47.473747 500.000000
0.000532 0.260000 0.315754 22.758964 -38.201999 -18.849121 500.000000
0.233549 0.260000 0.290000 98.709748 -95.760887 76.689231 500.000000
0.192351 0.192221 0.341962 -0.494572 -13.555715 10.392388 500.000000
-0.145864 0.260000 0.410000 -62.385952 -51.599379 -26.057479 500.000000
0.260000 0.122556 0.290000 -407.806273 -27.488738 33.367087 500.000000
0.080632 0.260000 0.410000 68.126414 -44.811423 -22.341026 500.000000
-0.260000 0.260000 0.410000 75.666560 -22.321133 -24.158474 500.000000
0.260000 0.260000 0.410000 -130.089638 -21.970848 -22.292700 500.000000
-0.260000 0.260000 0.290000 92.232382 -30.227698 222.784803 500.000000
0.260000 0.090000 0.410000 -98.881181 35.554837 -93.737472 500.000000
0.260000 0.260000 0.290000 -60.481878 -104.084379 93.102971 500.000000
-0.260000 0.260000 0.290000 322.363620 -54.762046 19.801344 500.000000
0.260000 0.260000 0.290000 -66.674532 -624.616285 138.612754 500.000000
0.247188 0.090000 0.290000 101.437676 172.289434 25.465123 500.000000
0.182059 0.260000 0.410000 88.411746 -72.306304 -1162.767251 500.000000
0.053324 0.260000 0.410000 62.664762 -42.161576 -34.994154 500.000000
-0.007296 0.260000 0.290000 50.540875 -42.642697 95.755026 500.000000
-0.072841 0.246884 0.410000 -66.568141 31.376888 -306.801973 500.000000
-0.260000 0.260000 0.290000 260.638793 -55.254415 227.146422 500.000000
-0.260000 0.090000 0.410000 70.524045 71.500168 -41.650339 500.000000
0.260000 0.090000 0.290000 -66.785189 239.508924 78.906406 500.000000
0.188321 0.260000 0.410000 79.372259 -22.137853 -22.344918 500.000000
-0.260000 0.090000 0.290000 68.386702 160.226109 12.567787 500.000000
-0.260000 0.260000 0.290000 112.240190 -55.755209 275.609683 500.000000
0.109865 0.260000 0.410000 73.972916 -36.708592 -22.365469 500.000000
-0.260000 0.090000 0.410000 76.377164 133.287395 -21.059875 500.000000
0.072367 0.260000 0.290000 -37.526553 -29.473977 37.757497 500.000000
0.192416 0.260000 0.410000 90.483240 -53.766815 -26.830812 500.000000
0.260000 0.090000 0.290000 -91.577028 128.050970 135.102506 500.000000
0.260000 0.090000 0.410000 -75.624421 39.112959 -109.450690 500.000000
-0.260000 0.260000 0.290000 92.195784 -29.809883 222.872254 500.000000
-0.260000 0.260000 0.410000 88.448129 -62.729394 -450.487917 500.000000
-0.260000 0.090000 0.410000 98.971959 169.130378 -53.432372 500.000000
-0.260000 0.090000 0.290000 223.869581 379.630024 38.706071 500.000000
0.260000 0.090000 0.410000 -40.435091 94.313486 -302.640917 500.000000
0.036686 0.260000 0.290000 59.337267 -75.065527 78.497037 500.000000
-0.260000 0.090000 0.410000 86.330640 69.106072 -59.661721 500.000000
-0.260000 0.090000 0.290000 338.672888 39.154082 85.270687 500.000000
-0.162194 0.090000 0.290000 -59.976299 20.397764 14.766415 500.000000
0.260000 0.090000 0.290000 -47.924436 35.701962 20.137269 500.000000
0.059477 0.260000 0.290000 63.895402 -104.132709 68.042180 500.000000
-0.260000 0.090000 0.290000 221.448544 55.895821 122.295478 500.000000
-0.260000 0.090000 0.290000 222.312669 51.932865 112.986994 500.000000
-0.260000 0.090000 0.290000 136.411857 24.999368 318.544749 500.000000
0.082406 0.260000 0.410000 -35.518741 -27.648111 -44.947409 500.000000
0.260000 0.090000 0.410000 -199.217427 42.863265 -102.394899 500.000000
0.260000 0.090000 0.290000 -386.673609 77.904950 118.833220 500.000000
0.257879 0.260000 0.290000 103.575774 -527.220693 63.574316 500.000000
0.260000 0.090000 0.290000 -117.191074 146.853014 34.468041 500.000000
0.260000 0.203425 0.322341 -42.190387 -11.315015 5.635340 500.000000
0.260000 0.090000 0.410000 -56.849686 32.204902 -378.566941 500.000000
-0.260000 0.260000 0.290000 99.366404 -29.468232 222.360423 500.000000
-0.260000 0.090000 0.410000 318.039594 150.780462 -32.118633 500.000000
0.260000 0.260000 0.410000 -37.834753 -61.140617 -23.282748 500.000000
-0.260000 0.090000 0.290000 234.083137 66.690762 104.568397 500.000000
0.260000 0.090000 0.290000 -66.163601 247.958155 18.338859 500.000000
-0.260000 0.260000 0.290000 139.950538 -25.029620 194.443940 500.000000
-0.089249 0.260000 0.410000 -69.849864 -20.795267 -86.503887 500.000000
-0.260000 0.090000 0.290000 194.487162 64.360995 88.198620 500.000000
0.199755 0.260000 0.410000 91.950918 -129.664139 -259.969505 500.000000
0.112930 0.260000 0.410000 74.586075 -44.013179 -29.504195 500.000000
0.260000 0.090000 0.410000 -88.629122 79.778188 -98.959430 500.000000
0.260000 0.090000 0.410000 -88.329121 49.128625 -110.739599 500.000000
0.050018 0.090000 0.410000 62.003691 151.402439 -19.070869 500.000000
-0.260000 0.090000 0.410000 118.547524 107.978943 -42.388601 500.000000
-0.260000 0.090000 0.410000 69.270677 86.112534 -324.004191 500.000000
-0.260000 0.260000 0.410000 92.149741 -79.020312 -295.055931 500.000000
0.260000 0.260000 0.395341 -63.826360 -28.787569 21.068149 500.000000
-0.260000 0.260000 0.290000 92.541453 -29.811964 222.602864 500.000000
-0.260000 0.260000 0.370997 97.139716 -27.711897 16.199491 500.000000
-0.260000 0.090000 0.410000 336.416134 69.241918 -45.552388 500.000000
0.260000 0.090000 0.290000 -88.736701 142.705124 124.253750 500.000000
0.260000 0.260000 0.290000 -501.960131 -61.971468 89.177929 500.000000
0.260000 0.090000 0.290000 -65.313612 129.379911 69.214240 500.000000
0.260000 0.090000 0.410000 -101.556902 41.431165 -103.866894 500.000000
-0.086792 0.260000 0.410000 16.992420 -21.079426 -24.611036 500.000000
0.027760 0.260000 0.290000 57.551998 -101.962942 90.293482 500.000000
0.260000 0.090000 0.410000 -93.478972 46.816581 -124.510213 500.000000
-0.260000 0.260000 0.290000 93.872211 -32.233552 229.677885 500.000000
-0.260000 0.090000 0.410000 89.245342 100.295925 -51.210312 500.000000
-0.260000 0.260000 0.290000 85.408441 -24.584225 192.177847 500.000000
0.260000 0.090000 0.410000 -165.098594 77.258683 -88.235622 500.000000
0.260000 0.260000 0.290000 -221.749496 -99.267887 94.771969 500.000000
0.027932 0.260000 0.290000 57.586343 -77.333428 63.084667 500.000000
-0.260000 0.090000 0.290000 218.569057 56.220325 114.375455 500.000000
-0.260000 0.090000 0.410000 72.510374 71.517142 -39.764866 500.000000
0.260000 0.260000 0.410000 -33.998192 -81.886356 -20.379825 500.000000
0.260000 0.090000 0.290000 -61.753975 54.784913 57.214018 500.000000
0.260000 0.260000 0.290000 -48.713934 -63.455800 14.141860 500.000000
-0.260000 0.090000 0.410000 71.077794 108.316871 -53.937104 500.000000
0.053565 0.260000 0.290000 62.713036 -78.329385 74.598678 500.000000
0.260000 0.090000 0.290000 -73.231379 132.458127 95.930579 500.000000
-0.260000 0.260000 0.410000 53.914306 -29.927166 -65.754346 500.000000
0.260000 0.090000 0.290000 -95.237652 160.414022 74.881967 500.000000
0.098251 0.169714 0.290000 13.358036 -18.057115 9.462843 500.000000
0.260000 0.260000 0.410000 -62.850564 -26.604272 -22.337089 500.000000
0.260000 0.090000 0.290000 -70.282704 128.768179 96.226679 500.000000
0.260000 0.260000 0.410000 -45.606303 -36.654603 -16.195334 500.000000
-0.260000 0.260000 0.410000 350.051752 -22.006460 -22.365882 500.000000
0.260000 0.090000 0.290000 -436.154188 55.831709 89.806954 500.000000
0.176796 0.260000 0.290000 87.359259 -92.593059 87.362893 500.000000
0.119138 0.260000 0.410000 33.310797 -20.408928 -29.757808 500.000000
-0.260000 0.090000 0.410000 72.807151 71.985744 -41.576038 500.000000
-0.260000 0.090000 0.410000 80.161477 102.225499 -50.063104 500.000000
-0.260000 0.260000 0.410000 66.204705 -31.253716 -64.275007 500.000000
0.051229 0.260000 0.290000 -41.754229 -86.923525 81.756584 500.000000
0.155659 0.090000 0.290000 83.131864 38.011499 281.500963 500.000000
-0.260000 0.260000 0.290000 120.234536 -41.791755 264.608668 500.000000
-0.260000 0.260000 0.410000 91.830826 -26.594050 -656.383289 500.000000
0.260000 0.260000 0.410000 -155.453341 -21.761376 -22.269395 500.000000
-0.260000 0.260000 0.290000 95.947696 -55.425987 278.031105 500.000000
-0.260000 0.090000 0.410000 86.396938 74.171203 -40.292427 500.000000
-0.260000 0.260000 0.410000 89.278476 -41.179578 -570.040608 500.000000
-0.260000 0.090000 0.410000 86.090377 72.267484 -40.879528 500.000000
