ply
format ascii 1.0
element vertex 240
property float x
property float y
property float z
property float vx
property float vy
property float vz
property float density
end_header
-0.260000 0.260000 0.410000 63.877138 -80.944363 -34.642196 500.000000
0.260000 0.090000 0.290000 -64.562737 255.108091 204.405177 500.000000
-0.260000 0.260000 0.410000 66.057723 -80.942455 -53.271694 500.000000
0.209040 0.103648 0.410000 93.807936 -31.270442 -113.451244 500.000000
0.141722 0.158204 0.290000 80.344405 -20.359148 58.771268 500.000000
0.235423 0.260000 0.290000 99.084662 -63.300720 23.696725 500.000000
-0.260000 0.090000 0.404089 87.022206 29.706112 22.817840 500.000000
0.260000 0.260000 0.290000 -71.756101 -29.443686 13.095556 500.000000
-0.260000 0.260000 0.410000 68.452598 -32.935405 -156.421347 500.000000
0.260000 0.091844 0.290000 -130.483973 -33.631192 30.181764 500.000000
0.173597 0.090000 0.410000 86.719370 36.168182 -97.137304 500.000000
-0.260000 0.090000 0.410000 114.239955 56.147135 -34.281226 500.000000
0.260000 0.090000 0.410000 -58.265047 25.878270 -132.533267 500.000000
-0.260000 0.260000 0.410000 65.301319 -80.652227 -33.085815 500.000000
0.260000 0.090000 0.410000 -40.599590 38.265564 -51.640223 500.000000
-0.260000 0.090000 0.410000 25.833909 20.691840 -31.344674 500.000000
-0.260000 0.090000 0.410000 88.641352 75.202555 -57.346682 500.000000
-0.260000 0.090000 0.290000 69.219047 45.595749 242.912231 500.000000
0.211865 0.106619 0.410000 94.372965 -30.676216 -111.528396 500.000000
0.203878 0.110046 0.410000 92.775636 -29.990816 -111.040347 500.000000
-0.260000 0.260000 0.290000 24.743458 -25.359814 17.231623 500.000000
-0.260000 0.090000 0.368852 71.897836 44.652790 15.770300 500.000000
0.260000 0.090000 0.290000 -100.402489 502.216216 40.809547 500.000000
-0.260000 0.090000 0.410000 93.910350 27.169089 -15.593663 500.000000
0.230317 0.090000 0.290000 98.063411 20.891057 51.491292 500.000000
-0.061820 0.197314 0.290000 23.495797 21.462824 42.641431 500.000000
-0.260000 0.260000 0.410000 64.747076 -81.293734 -35.114104 500.000000
0.260000 0.132801 0.290000 -34.673447 -25.439734 17.577504 500.000000
-0.105738 0.260000 0.290000 -73.147577 -19.637191 54.709464 500.000000
-0.041084 0.260000 0.410000 -13.752539 -30.734646 -28.263932 500.000000
0.072714 0.260000 0.290000 66.542724 -42.320198 142.185957 500.000000
0.260000 0.260000 0.290000 -183.860748 -34.219624 20.637243 500.000000
-0.260000 0.090000 0.290000 71.466618 34.415305 98.566257 500.000000
0.253056 0.090000 0.410000 102.611279 17.604164 -110.863712 500.000000
-0.260000 0.090000 0.410000 303.214878 55.509013 -45.832925 500.000000
-0.260000 0.260000 0.290000 54.931734 -19.249498 48.945124 500.000000
0.049880 0.260000 0.290000 -42.024063 -241.254127 135.525930 500.000000
-0.026478 0.260000 0.290000 20.363695 -20.383769 145.969385 500.000000
0.260000 0.260000 0.410000 -96.580182 -26.091303 -45.049329 500.000000
-0.093318 0.260000 0.290000 -70.663563 -19.561758 55.690011 500.000000
0.260000 0.090000 0.410000 -53.153435 38.080729 -57.412220 500.000000
-0.260000 0.260000 0.290000 477.413627 -22.855982 24.276588 500.000000
-0.260000 0.090000 0.290000 462.046293 28.411201 40.832333 500.000000
-0.245549 0.260000 0.290000 -101.109778 -35.431015 55.224053 500.000000
-0.260000 0.260000 0.410000 136.495597 -87.843471 -33.438960 500.000000
0.260000 0.090000 0.290000 -65.265118 54.921013 260.686824 500.000000
0.260000 0.260000 0.290000 -59.798065 -36.751021 27.742630 500.000000
-0.193039 0.260000 0.410000 -90.607811 -25.840974 -17.106533 500.000000
0.260000 0.090000 0.290000 -64.973152 83.361099 267.368990 500.000000
-0.260000 0.260000 0.410000 64.505757 -144.508843 -39.046773 500.000000
-0.260000 0.260000 0.410000 67.786823 -33.304813 -129.516699 500.000000
-0.260000 0.090000 0.410000 92.076044 59.993015 -31.195093 500.000000
0.144234 0.260000 0.290000 80.846834 -37.233712 22.569139 500.000000
0.260000 0.260000 0.410000 -104.906857 -31.535070 -45.838232 500.000000
0.260000 0.090000 0.290000 -73.166908 27.918076 49.723197 500.000000
0.260000 0.260000 0.290000 -253.359706 -45.766962 32.413593 500.000000
-0.260000 0.260000 0.410000 262.515975 -62.111615 -61.926539 500.000000
0.260000 0.093711 0.290000 -171.894177 -33.257739 30.295016 500.000000
-0.260000 0.260000 0.410000 257.022537 -42.225641 -35.839967 500.000000
-0.260000 0.090000 0.410000 96.838393 419.358006 -75.578477 500.000000
-0.175831 0.260000 0.290000 -87.166113 -28.675437 77.532924 500.000000
-0.024750 0.090000 0.290000 19.841783 16.608249 47.948935 500.000000
0.039415 0.260000 0.410000 59.883044 -150.615265 -147.138143 500.000000
0.260000 0.160684 0.410000 -109.715573 -19.863280 -27.687811 500.000000
0.260000 0.260000 0.290000 -62.128516 -51.502548 23.345139 500.000000
0.217438 0.102881 0.410000 95.487673 -31.423893 -112.434428 500.000000
-0.260000 0.090000 0.410000 67.825373 79.911179 -76.791839 500.000000
-0.260000 0.090000 0.290000 121.760287 30.941057 47.078951 500.000000
0.219515 0.090000 0.410000 21.743677 39.480457 -41.484925 500.000000
-0.260000 0.260000 0.410000 57.816197 -22.307567 -23.972127 500.000000
-0.260000 0.260000 0.290000 36.878237 -32.839717 173.332816 500.000000
-0.260000 0.090000 0.410000 384.323430 48.494177 -45.959370 500.000000
0.260000 0.090000 0.290000 -96.180966 22.966075 30.312044 500.000000
-0.260000 0.260000 0.410000 67.627028 -87.847671 -34.648301 500.000000
0.260000 0.260000 0.410000 -104.083519 -28.852467 -56.735708 500.000000
0.260000 0.090000 0.410000 -100.679878 22.555453 -56.111030 500.000000
0.260000 0.090000 0.410000 -54.567302 39.645435 -113.614202 500.000000
-0.260000 0.090000 0.290000 46.464256 50.679811 41.989576 500.000000
0.260000 0.090000 0.410000 -52.562893 40.186641 -122.926420 500.000000
-0.260000 0.260000 0.410000 65.987344 -81.183270 -42.788937 500.000000
0.245436 0.090000 0.410000 23.144149 59.134202 -35.169338 500.000000
-0.090843 0.140370 0.351930 33.831393 10.074091 12.386012 500.000000
-0.145658 0.090000 0.410000 22.868356 34.336911 -49.863259 500.000000
-0.260000 0.260000 0.410000 132.335884 -26.268543 -81.312637 500.000000
0.260000 0.090000 0.290000 -454.668089 35.015854 45.506777 500.000000
-0.117798 0.260000 0.290000 -75.559581 -43.754947 56.839696 500.000000
-0.260000 0.090000 0.410000 257.764986 44.126141 -49.283499 500.000000
-0.260000 0.260000 0.290000 22.705073 -77.543237 135.755878 500.000000
-0.260000 0.260000 0.410000 66.260512 -83.706857 -53.201243 500.000000
0.260000 0.090000 0.290000 -55.275333 21.719585 49.379751 500.000000
-0.260000 0.090000 0.290000 82.508852 209.990706 63.103956 500.000000
-0.155981 0.260000 0.410000 -83.196280 -193.669859 -119.916271 500.000000
0.260000 0.090000 0.290000 -65.964582 26.816333 200.417399 500.000000
0.161034 0.090000 0.410000 84.206831 22.466988 -101.292932 500.000000
0.198480 0.260000 0.397177 75.054231 -434.219858 21.435309 500.000000
0.260000 0.260000 0.290000 -98.660915 -58.319302 212.430142 500.000000
-0.260000 0.090000 0.290000 33.867545 28.712010 32.997895 500.000000
-0.168804 0.260000 0.290000 -85.760814 -40.620534 102.388069 500.000000
-0.260000 0.090000 0.410000 69.485097 188.218316 -26.910510 500.000000
0.260000 0.096496 0.410000 -57.519632 -32.700751 -113.963240 500.000000
0.260000 0.260000 0.410000 -255.777204 -35.696950 -30.380908 500.000000
0.134394 0.260000 0.290000 78.878853 -35.932708 22.612856 500.000000
0.260000 0.260000 0.410000 -103.173500 -26.487042 -41.442464 500.000000
-0.260000 0.260000 0.410000 65.902010 -80.786871 -58.523047 500.000000
-0.260000 0.090000 0.290000 68.695106 34.869067 46.050168 500.000000
0.248906 0.090000 0.410000 101.781114 31.993571 -118.901829 500.000000
-0.202082 0.198468 0.337717 -92.416380 21.693664 -14.456685 500.000000
-0.260000 0.090000 0.410000 104.801054 55.822813 -34.294586 500.000000
0.260000 0.090000 0.290000 -53.271425 51.687582 41.431608 500.000000
-0.260000 0.260000 0.410000 66.420793 -80.542529 -72.938273 500.000000
-0.130613 0.260000 0.290000 -78.122588 -19.527630 54.741099 500.000000
-0.260000 0.090000 0.410000 87.569757 57.770180 -43.384683 500.000000
0.257563 0.207660 0.357031 18.034790 -10.468000 13.406192 500.000000
-0.260000 0.260000 0.410000 131.728555 -129.319984 -47.612262 500.000000
-0.042307 0.260000 0.374540 43.538656 -76.640400 16.907984 500.000000
0.260000 0.090000 0.410000 -76.177548 38.593775 -59.554024 500.000000
0.224532 0.104045 0.410000 96.906469 -31.191013 -113.143325 500.000000
-0.260000 0.260000 0.410000 70.131645 -50.316668 -416.879277 500.000000
0.260000 0.090000 0.410000 -107.040618 20.115853 -62.197481 500.000000
-0.094628 0.260000 0.290000 -70.925535 -19.541732 54.684997 500.000000
-0.094223 0.260000 0.290000 -70.844518 -19.916555 44.082547 500.000000
0.125726 0.260000 0.290000 77.145259 -36.218740 22.588472 500.000000
0.260000 0.090000 0.290000 -63.284553 45.645295 357.872246 500.000000
-0.095243 0.260000 0.290000 -71.048613 -20.166737 54.672448 500.000000
-0.100362 0.260000 0.410000 31.927655 -85.648931 -12.923468 500.000000
-0.015170 0.090000 0.410000 -55.033927 52.843681 -25.581071 500.000000
0.260000 0.090000 0.290000 -46.875202 19.096942 113.294154 500.000000
0.260000 0.090000 0.410000 -423.521947 56.917161 -38.826111 500.000000
0.194755 0.125267 0.392251 0.480817 -13.390800 10.057868 500.000000
-0.260000 0.090000 0.290000 41.321771 37.617788 13.051807 500.000000
-0.260000 0.090000 0.410000 208.886741 503.300029 -16.663864 500.000000
0.260000 0.090000 0.298059 -75.175581 22.401902 -22.388214 500.000000
0.260000 0.093170 0.290000 -57.531096 -33.365961 30.148905 500.000000
-0.260000 0.090000 0.290000 105.188874 31.062684 46.152709 500.000000
0.209345 0.104291 0.410000 93.869003 -31.141816 -111.627150 500.000000
-0.234282 0.260000 0.290000 -98.856461 -17.772974 46.881538 500.000000
-0.260000 0.090000 0.410000 91.228359 69.365587 -48.054603 500.000000
0.260000 0.090000 0.391610 -161.971165 27.834995 20.321921 500.000000
-0.260000 0.090000 0.410000 94.323817 329.558506 -70.803109 500.000000
0.260000 0.260000 0.410000 -1042.391259 -100.174319 -12.718794 500.000000
0.260000 0.090000 0.290000 -138.671681 36.143884 581.243167 500.000000
0.260000 0.090000 0.290000 -101.844465 21.077800 17.519074 500.000000
0.260000 0.090000 0.410000 -114.331214 21.316596 -66.249109 500.000000
-0.260000 0.260000 0.290000 97.419852 -32.659199 153.384463 500.000000
0.260000 0.090000 0.410000 -131.116518 28.081118 -113.807411 500.000000
0.092531 0.260000 0.290000 70.506278 -36.768460 23.621348 500.000000
-0.260000 0.260000 0.410000 64.210236 -136.537880 -39.418397 500.000000
0.260000 0.149082 0.297346 -80.307536 -22.183517 -22.530744 500.000000
0.081848 0.260000 0.362438 68.369528 -80.406795 14.487594 500.000000
0.260000 0.090000 0.410000 -56.935888 28.331452 -138.032943 500.000000
0.260000 0.090000 0.297939 -64.283734 18.350760 -22.412228 500.000000
0.121790 0.260000 0.290000 76.357917 -67.654262 13.328719 500.000000
-0.260000 0.112650 0.410000 106.014162 -29.470069 -18.882259 500.000000
0.260000 0.090000 0.290000 -23.873164 27.002214 13.613820 500.000000
-0.260000 0.260000 0.410000 76.602838 -80.823819 -67.508927 500.000000
-0.118028 0.260000 0.290000 -75.605515 -19.551590 54.736182 500.000000
0.209162 0.106379 0.410000 93.832414 -30.724106 -111.670865 500.000000
0.260000 0.090000 0.290000 -63.920167 36.881692 243.256453 500.000000
0.234735 0.260000 0.290000 98.946999 -85.571222 29.510874 500.000000
0.260000 0.260000 0.410000 -111.906638 -190.081142 -20.309649 500.000000
0.057875 0.260000 0.290000 -40.424983 -47.144954 151.307147 500.000000
-0.260000 0.090000 0.410000 32.931895 37.523025 -44.238033 500.000000
0.171544 0.260000 0.290000 86.308877 -35.571715 32.624762 500.000000
0.260000 0.260000 0.410000 -169.293844 -19.886017 -43.586097 500.000000
-0.260000 0.192001 0.363569 59.188976 20.400242 14.713746 500.000000
-0.260000 0.260000 0.390417 54.782383 -34.661673 20.083386 500.000000
-0.260000 0.090000 0.410000 75.080044 52.051933 -34.660038 500.000000
0.260000 0.260000 0.410000 -110.696424 -28.254779 -62.093834 500.000000
0.260000 0.260000 0.410000 -111.128378 -26.273800 -57.440763 500.000000
0.260000 0.218104 0.410000 -68.188782 25.620882 -160.193773 500.000000
-0.260000 0.121772 0.290000 53.957695 -27.645618 22.493779 500.000000
-0.260000 0.260000 0.290000 99.583811 -21.426275 51.209169 500.000000
-0.260000 0.260000 0.410000 224.111638 -55.757519 -59.376461 500.000000
0.260000 0.090000 0.410000 -776.926793 280.765605 -33.286501 500.000000
-0.260000 0.260000 0.410000 89.406433 -90.222325 -17.205161 500.000000
0.041307 0.260000 0.290000 -43.738573 -25.209949 39.550608 500.000000
-0.024177 0.250984 0.290000 -56.835474 32.196850 189.260668 500.000000
0.245006 0.108087 0.410000 101.001230 -30.382542 -111.415013 500.000000
0.260000 0.260000 0.290000 -158.979622 -76.398584 18.856700 500.000000
-0.260000 0.090000 0.290000 59.074704 50.641933 46.647590 500.000000
0.260000 0.260000 0.410000 -117.012131 -33.650891 -53.232524 500.000000
-0.260000 0.260000 0.381427 63.899525 -140.761366 18.285457 500.000000
0.260000 0.130275 0.410000 -70.787575 -25.945046 -97.460285 500.000000
0.198636 0.090000 0.290000 57.577021 49.385778 43.267017 500.000000
0.260000 0.260000 0.410000 -97.219126 -32.486301 -45.049696 500.000000
0.089570 0.090000 0.290000 -22.036895 65.347694 130.504036 500.000000
0.050343 0.090000 0.290000 -12.517410 22.001847 14.774546 500.000000
-0.183035 0.260000 0.290000 -88.606965 -39.879122 49.491864 500.000000
-0.181535 0.260000 0.290000 -88.307038 -24.558171 55.380476 500.000000
0.260000 0.260000 0.314424 -30.994095 -75.682294 -19.115139 500.000000
0.260000 0.260000 0.290000 -59.258808 -55.003236 23.990385 500.000000
0.086266 0.260000 0.290000 69.253228 -44.072796 164.762578 500.000000
0.260000 0.090000 0.290000 -65.770476 45.024966 165.561305 500.000000
-0.216494 0.090000 0.410000 -95.298771 29.765247 -351.187102 500.000000
0.210890 0.106369 0.410000 94.177996 -30.726187 -111.536204 500.000000
0.260000 0.090000 0.410000 -52.702776 31.304717 -258.198549 500.000000
0.260000 0.260000 0.290000 -168.165569 -35.639621 25.571879 500.000000
-0.260000 0.260000 0.410000 75.183054 -88.148935 -62.086000 500.000000
-0.260000 0.090000 0.410000 311.905543 48.315041 -46.092633 500.000000
-0.260000 0.260000 0.410000 63.474644 -81.488112 -34.573611 500.000000
-0.247658 0.260000 0.290000 -101.531513 -20.710404 51.944982 500.000000
-0.206517 0.090000 0.290000 -23.944957 53.216941 12.329660 500.000000
0.260000 0.090000 0.410000 -52.791672 50.966895 -53.594233 500.000000
-0.207278 0.260000 0.290000 -93.455602 -23.402438 62.264062 500.000000
0.217542 0.094264 0.410000 95.508420 -33.147165 -115.072824 500.000000
0.186114 0.260000 0.290000 89.222842 -51.162698 28.400125 500.000000
0.175234 0.132501 0.410000 87.046779 -25.499763 -96.327523 500.000000
-0.260000 0.260000 0.290000 82.528660 -38.619684 44.131301 500.000000
-0.260000 0.090000 0.410000 171.839541 66.958017 -48.888868 500.000000
-0.260000 0.090000 0.410000 32.904393 38.656485 -39.916815 500.000000
0.260000 0.260000 0.410000 -109.257043 -28.416991 -58.134819 500.000000
0.102461 0.260000 0.290000 72.492105 -36.776945 22.678849 500.000000
-0.260000 0.090000 0.290000 57.156975 61.011818 45.196546 500.000000
-0.260000 0.260000 0.410000 61.695302 -44.200595 -28.575106 500.000000
-0.260000 0.090000 0.375851 85.346039 49.056998 17.170252 500.000000
0.095299 0.260000 0.290000 71.059888 -55.172157 29.763176 500.000000
-0.260000 0.090000 0.410000 42.562970 39.154580 -38.586499 500.000000
-0.260000 0.260000 0.410000 67.432468 -83.026808 -47.928205 500.000000
0.206579 0.090000 0.290000 93.315772 20.484977 50.941263 500.000000
-0.260000 0.260000 0.410000 78.432660 -97.001014 -37.406716 500.000000
0.165025 0.090000 0.337057 13.354697 9.026300 9.411440 500.000000
-0.260000 0.090000 0.290000 71.579010 33.378730 46.174897 500.000000
-0.260000 0.260000 0.410000 65.958525 -81.182328 -48.076216 500.000000
-0.260000 0.090000 0.290000 62.959361 38.402449 43.104903 500.000000
0.260000 0.094743 0.290000 -194.686895 -33.051373 29.252850 500.000000
-0.260000 0.260000 0.410000 248.845306 -44.723853 -44.867212 500.000000
0.222009 0.090000 0.410000 9.042492 46.284606 -43.645595 500.000000
-0.260000 0.157969 0.290000 81.387390 -20.406194 14.901627 500.000000
0.103944 0.260000 0.290000 72.788807 -37.011186 23.584207 500.000000
0.140706 0.260000 0.290000 80.141273 -52.127241 27.826666 500.000000
0.260000 0.090000 0.290000 -52.801438 21.148074 50.201792 500.000000
-0.243633 0.090000 0.410000 -58.972469 43.450133 -42.498735 500.000000
0.260000 0.260000 0.410000 -41.555540 -19.000998 -140.690775 500.000000
0.260000 0.090000 0.410000 -60.932055 21.351481 -132.533820 500.000000
0.260000 0.090000 0.290000 -65.611061 18.818866 346.176527 500.000000
-0.260000 0.090000 0.290000 117.867076 30.957978 46.141060 500.000000
0.227917 0.090000 0.410000 97.583382 28.166882 -139.243350 500.000000
0.171876 0.260000 0.290000 86.375158 -38.103640 22.942563 500.000000
0.260000 0.090000 0.290000 -64.335229 26.109674 303.016766 500.000000
0.170343 0.260000 0.290000 86.068674 -37.152021 23.236039 500.000000
