ply
format ascii 1.0
element vertex 240
property float x
property float y
property float z
property float vx
property float vy
property float vz
property float density
end_header
-0.260000 0.260000 0.410000 26.803877 -81.239066 -42.764101 500.000000
-0.260000 0.260000 0.290000 108.621983 -49.008751 15.420719 500.000000
-0.260000 0.090000 0.410000 301.089588 66.128599 -43.589590 500.000000
0.110680 0.136494 0.290000 74.136025 -24.701277 15.464114 500.000000
-0.044126 0.090000 0.360080 25.276046 43.475309 14.015989 500.000000
0.133008 0.090000 0.318541 78.601601 29.688734 -18.291733 500.000000
-0.260000 0.090000 0.385920 15.825382 59.998968 19.184096 500.000000
0.260000 0.090000 0.290000 -17.127911 76.545293 66.237486 500.000000
-0.030593 0.093937 0.410000 -58.118639 -33.212569 -35.371538 500.000000
0.260000 0.090000 0.290000 -106.584088 54.034488 12.164035 500.000000
-0.260000 0.260000 0.290000 203.464344 -66.528738 17.185243 500.000000
-0.260000 0.090000 0.290000 67.022284 20.843744 31.911485 500.000000
0.260000 0.090000 0.290000 -73.185222 69.956692 14.108993 500.000000
0.260000 0.090000 0.410000 -44.167211 49.300200 -18.582178 500.000000
-0.260000 0.090000 0.290000 74.414536 30.040541 43.589778 500.000000
-0.260000 0.260000 0.410000 56.243463 -60.068300 -20.674553 500.000000
-0.260000 0.260000 0.410000 52.382491 -73.953441 -16.146568 500.000000
-0.260000 0.090000 0.290000 153.650318 323.526476 18.931162 500.000000
-0.260000 0.260000 0.410000 56.148186 -178.330933 -19.192896 500.000000
-0.260000 0.260000 0.410000 52.558460 -108.029008 -17.141816 500.000000
0.260000 0.260000 0.290000 -56.220482 -67.284239 245.621075 500.000000
0.200328 0.260000 0.410000 92.065684 -34.381314 -16.187793 500.000000
-0.260000 0.090000 0.410000 59.338843 26.049812 -42.030326 500.000000
-0.260000 0.090000 0.410000 23.807366 31.467853 -8.097649 500.000000
-0.260000 0.090000 0.290000 148.543882 121.932546 749.242055 500.000000
-0.260000 0.260000 0.290000 111.993413 -68.637900 23.742150 500.000000
-0.260000 0.090000 0.320677 69.110433 72.617317 -17.864507 500.000000
0.260000 0.090000 0.390424 -146.633969 134.706593 20.084749 500.000000
-0.226525 0.090000 0.290000 -97.304904 311.858133 14.082816 500.000000
0.008184 0.090000 0.410000 -50.363113 465.800640 -13.905783 500.000000
0.080012 0.260000 0.290000 68.002458 -49.221934 24.605344 500.000000
-0.260000 0.090000 0.410000 70.382557 31.669395 -70.209973 500.000000
0.260000 0.090000 0.410000 -234.654730 61.246521 -46.190775 500.000000
-0.260000 0.090000 0.410000 58.931392 28.584282 -41.812754 500.000000
0.199546 0.260000 0.410000 91.909116 -36.607014 -23.003249 500.000000
-0.260000 0.090000 0.383182 428.193288 65.095152 18.636331 500.000000
-0.094121 0.260000 0.318763 -16.906645 -47.284441 -18.247474 500.000000
-0.260000 0.090000 0.410000 530.813272 53.805673 -154.266592 500.000000
-0.159816 0.260000 0.290000 -22.383287 -71.641669 22.120033 500.000000
-0.078599 0.260000 0.290000 36.280183 -74.122610 19.735658 500.000000
0.076455 0.160626 0.290000 10.963039 -19.874728 36.250018 500.000000
-0.260000 0.260000 0.290000 182.013682 -66.533654 17.177167 500.000000
-0.080330 0.090000 0.300861 -8.549030 39.151035 -21.827772 500.000000
-0.260000 0.090000 0.362576 300.079732 75.776485 14.515121 500.000000
-0.004129 0.090000 0.290000 -14.077625 63.214927 19.932132 500.000000
0.260000 0.260000 0.290000 -86.296093 -37.533078 15.801955 500.000000
0.260000 0.090000 0.410000 -293.692645 64.442719 -33.228442 500.000000
0.099505 0.260000 0.410000 41.094441 -22.886411 -29.592554 500.000000
0.260000 0.090000 0.290000 -119.646303 51.474961 16.594870 500.000000
-0.260000 0.090000 0.410000 59.030769 26.373246 -41.668205 500.000000
0.260000 0.090000 0.410000 -243.312036 60.960426 -47.335665 500.000000
-0.260000 0.260000 0.290000 168.007272 -66.591432 17.295902 500.000000
0.260000 0.090000 0.410000 -237.332034 60.976063 -52.676906 500.000000
0.260000 0.090000 0.290000 -22.661524 28.389712 43.015817 500.000000
0.224747 0.197189 0.290000 72.975429 21.437870 12.342258 500.000000
-0.260000 0.260000 0.290000 148.853402 -68.617600 21.561497 500.000000
-0.144108 0.211838 0.342234 23.178375 10.046444 -13.553196 500.000000
-0.260000 0.090000 0.290000 77.786362 34.827304 17.773034 500.000000
0.061739 0.182159 0.410000 -15.712965 18.431876 -55.267970 500.000000
-0.260000 0.090000 0.410000 58.828838 26.422258 -44.362443 500.000000
-0.260000 0.090000 0.410000 58.912541 26.412941 -49.783475 500.000000
-0.051285 0.090000 0.290000 41.742924 870.869345 17.467652 500.000000
-0.260000 0.260000 0.360247 55.743683 -101.559144 14.049311 500.000000
-0.260000 0.260000 0.290000 133.695148 -67.237468 17.847517 500.000000
0.155067 0.260000 0.290000 83.013413 -75.408052 21.508815 500.000000
-0.260000 0.090000 0.290000 169.991324 333.014630 19.111662 500.000000
-0.260000 0.260000 0.410000 236.137656 -72.327828 -15.679678 500.000000
0.202457 0.260000 0.410000 92.491416 -36.607152 -20.302907 500.000000
-0.260000 0.090000 0.297741 17.584742 16.824964 -22.451891 500.000000
-0.082800 0.260000 0.301337 17.726484 -20.996521 -21.732573 500.000000
-0.260000 0.090000 0.410000 58.717309 28.498961 -41.997817 500.000000
0.260000 0.260000 0.290000 -67.750782 -56.216149 20.813191 500.000000
0.260000 0.260000 0.410000 -61.356227 -24.495796 -54.629781 500.000000
0.204282 0.260000 0.410000 92.856317 -39.681583 -14.842709 500.000000
-0.260000 0.136031 0.410000 172.106819 -24.793820 -38.137795 500.000000
0.260000 0.260000 0.290000 -72.945118 -23.360614 17.296750 500.000000
0.260000 0.260000 0.410000 -64.846033 -40.315816 -312.871268 500.000000
-0.260000 0.260000 0.410000 228.300260 -73.759757 -24.134024 500.000000
0.260000 0.090000 0.290000 -73.133974 22.197799 39.509128 500.000000
-0.260000 0.260000 0.402760 60.999321 -71.117232 22.551975 500.000000
0.260000 0.090000 0.388330 -166.856649 268.914725 19.666070 500.000000
-0.076150 0.090000 0.290000 -52.165810 19.911348 20.134481 500.000000
-0.260000 0.090000 0.410000 61.435092 31.167500 -41.875916 500.000000
-0.260000 0.090000 0.410000 104.143102 27.236045 -40.970588 500.000000
-0.260000 0.090000 0.410000 59.866223 24.889682 -41.961764 500.000000
0.254969 0.260000 0.290000 102.993793 -55.295856 20.811346 500.000000
0.260000 0.260000 0.290000 -130.971941 -57.051459 20.817601 500.000000
-0.260000 0.090000 0.290000 71.459455 38.559328 44.402588 500.000000
-0.260000 0.090000 0.410000 62.635106 34.966555 -42.090473 500.000000
0.260000 0.090000 0.290000 -97.826031 28.486102 43.662965 500.000000
-0.193684 0.138610 0.290000 -90.736846 -24.278080 71.767211 500.000000
0.046394 0.090000 0.290000 -42.721119 16.892050 17.914928 500.000000
-0.159019 0.090000 0.290000 3.104098 34.348275 19.249566 500.000000
-0.260000 0.260000 0.290000 124.563806 -61.904625 39.367504 500.000000
0.260000 0.260000 0.410000 -85.869325 -64.202054 -20.598203 500.000000
0.260000 0.260000 0.403449 -89.694607 -129.269365 22.689752 500.000000
-0.260000 0.207627 0.348661 26.325854 -10.474507 -1.202313 500.000000
0.260000 0.260000 0.290000 -22.808743 -59.805719 42.638972 500.000000
0.260000 0.090000 0.376398 -132.382425 262.775246 17.279658 500.000000
-0.260000 0.090000 0.410000 212.704478 214.533344 -15.790579 500.000000
0.260000 0.260000 0.295706 -82.357559 -27.925367 -22.858856 500.000000
-0.260000 0.260000 0.290000 148.862147 -66.667885 17.299561 500.000000
-0.260000 0.260000 0.290000 129.556882 -68.643845 17.943404 500.000000
0.114042 0.090000 0.410000 -29.191504 145.203321 -30.497793 500.000000
0.205198 0.260000 0.410000 93.039675 -69.196684 -14.672262 500.000000
-0.260000 0.260000 0.363608 89.394450 -17.025739 -9.278404 500.000000
0.260000 0.090000 0.410000 -291.630272 61.106924 -41.671925 500.000000
0.260000 0.260000 0.290000 -69.452120 -47.393175 16.644356 500.000000
-0.260000 0.090000 0.410000 60.167831 24.935197 -64.977672 500.000000
0.260000 0.090000 0.410000 -234.148748 61.482036 -13.110551 500.000000
0.199768 0.260000 0.410000 91.953583 -36.062044 -19.116921 500.000000
-0.109561 0.260000 0.290000 30.087767 -49.997707 22.889507 500.000000
0.260000 0.260000 0.290000 -52.789899 -55.583972 20.817339 500.000000
0.260000 0.260000 0.290000 -71.149542 -59.362097 76.515335 500.000000
-0.028768 0.090000 0.392330 -28.847375 181.140502 20.465989 500.000000
0.260000 0.260000 0.290000 -28.578943 -32.008252 23.888241 500.000000
-0.260000 0.260000 0.290000 125.614947 -39.415535 16.299911 500.000000
0.260000 0.260000 0.410000 -57.410499 -7.507503 -54.488879 500.000000
0.110065 0.090000 0.290000 74.012918 171.140539 19.731634 500.000000
-0.260000 0.090000 0.410000 58.661011 26.422749 -38.907178 500.000000
0.077496 0.260000 0.339365 30.023164 -22.264194 -14.126995 500.000000
0.096602 0.090000 0.410000 32.427022 97.951523 -122.827375 500.000000
-0.260000 0.090000 0.389202 131.952881 240.483444 19.840428 500.000000
0.200323 0.260000 0.410000 92.064553 -36.607028 -21.643423 500.000000
0.180113 0.260000 0.410000 88.022515 -38.859238 -15.407477 500.000000
0.231491 0.260000 0.410000 98.298173 -35.256385 -14.647933 500.000000
0.159897 0.260000 0.290000 23.691040 -80.092769 28.962972 500.000000
-0.260000 0.260000 0.353770 60.534271 -23.827334 12.754016 500.000000
-0.260000 0.260000 0.329671 27.255538 -5.789945 -16.065802 500.000000
0.131977 0.176854 0.366872 10.130696 2.030368 2.741113 500.000000
0.068602 0.090000 0.290000 -38.279580 153.502663 20.283865 500.000000
0.260000 0.260000 0.290000 -104.071650 -56.419160 20.817579 500.000000
0.260000 0.260000 0.410000 -29.621083 -18.631316 -101.316612 500.000000
-0.260000 0.090000 0.368903 164.684897 27.263397 15.780679 500.000000
-0.260000 0.260000 0.410000 219.345050 -72.401741 -12.997191 500.000000
0.203309 0.260000 0.410000 92.661782 -36.614959 -28.343549 500.000000
-0.028963 0.260000 0.290000 -24.926953 -81.791209 28.030764 500.000000
0.260000 0.090000 0.410000 -121.384597 291.874557 -31.024459 500.000000
0.044066 0.090000 0.290000 -23.630677 28.445865 41.533144 500.000000
0.199712 0.260000 0.410000 91.942432 -36.585918 -18.859913 500.000000
0.260000 0.090000 0.290000 -92.990711 36.735736 135.896510 500.000000
-0.260000 0.260000 0.367755 305.472272 -55.640182 15.550993 500.000000
0.260000 0.260000 0.360300 -166.845853 -79.928549 14.059978 500.000000
0.260000 0.090000 0.382872 -208.934410 57.319319 18.574492 500.000000
0.139826 0.090000 0.300496 79.965178 49.258874 -21.900890 500.000000
-0.260000 0.090000 0.410000 59.939485 25.099991 -61.388795 500.000000
-0.260000 0.090000 0.290000 128.096575 20.209380 17.325723 500.000000
0.200973 0.260000 0.410000 92.194547 -36.608005 -16.346874 500.000000
-0.260000 0.260000 0.410000 44.178412 -38.634107 -45.638244 500.000000
0.260000 0.260000 0.360308 -154.204672 -93.374676 14.061625 500.000000
-0.260000 0.146117 0.410000 58.418426 -22.776648 -67.909536 500.000000
-0.260000 0.260000 0.290000 130.768039 -79.767061 27.548169 500.000000
-0.260000 0.260000 0.365460 134.196297 -246.888157 15.092023 500.000000
0.260000 0.260000 0.359767 -56.580010 -442.319835 13.953334 500.000000
-0.260000 0.260000 0.333475 64.086698 -61.665709 -15.305046 500.000000
-0.050671 0.090000 0.410000 21.421805 63.754078 -37.344277 500.000000
0.260000 0.090000 0.361234 -84.451195 252.481409 14.246712 500.000000
0.260000 0.260000 0.410000 -31.932806 -26.791736 -19.337692 500.000000
0.260000 0.260000 0.290000 -767.222380 -67.176085 17.296308 500.000000
-0.260000 0.260000 0.290000 12.896648 -48.055106 23.901181 500.000000
-0.260000 0.090000 0.410000 62.811317 26.725765 -41.544540 500.000000
0.260000 0.090000 0.290000 -89.322817 26.618134 28.535838 500.000000
0.260000 0.260000 0.290000 -150.413317 -57.180461 20.698150 500.000000
0.104501 0.260000 0.410000 31.584868 -23.226896 -51.177356 500.000000
0.260000 0.260000 0.360532 -215.270990 -40.193555 14.106392 500.000000
-0.260000 0.090000 0.410000 60.299760 25.335398 -43.894024 500.000000
-0.260000 0.141316 0.290000 74.405043 -23.736804 39.997756 500.000000
-0.260000 0.260000 0.290000 130.222677 -44.144986 14.061949 500.000000
0.260000 0.260000 0.410000 -56.053012 -94.907263 -49.040079 500.000000
-0.260000 0.260000 0.410000 72.145692 -47.076267 -27.911909 500.000000
-0.260000 0.260000 0.410000 84.073911 -173.075143 -27.111245 500.000000
-0.260000 0.260000 0.342249 102.247602 -43.355196 -13.550136 500.000000
-0.260000 0.090000 0.410000 58.809974 26.271463 -56.737406 500.000000
0.158827 0.090000 0.301488 29.641806 39.199678 -21.702347 500.000000
-0.260000 0.260000 0.290000 52.967685 -18.448610 29.289213 500.000000
-0.260000 0.090000 0.410000 75.093352 39.791259 -44.031700 500.000000
-0.206179 0.131839 0.290000 -21.426590 -25.632240 44.491007 500.000000
-0.260000 0.090000 0.410000 60.082160 26.923482 -39.587665 500.000000
0.260000 0.260000 0.301477 -70.294199 -89.090008 -21.704665 500.000000
-0.260000 0.090000 0.360306 84.639758 124.194122 14.061104 500.000000
0.260000 0.260000 0.290000 -65.784552 -58.832428 25.966614 500.000000
0.205242 0.260000 0.410000 93.048330 -36.608267 -17.702329 500.000000
0.260000 0.090000 0.301469 -369.719821 23.893452 -21.706180 500.000000
0.213774 0.260000 0.410000 94.754876 -46.345049 -18.717541 500.000000
-0.260000 0.260000 0.410000 55.024661 -69.041773 -13.159120 500.000000
0.054355 0.090000 0.410000 -4.444342 15.235978 -38.906426 500.000000
0.083053 0.260000 0.410000 68.610563 -23.049225 -42.268407 500.000000
0.260000 0.260000 0.290000 -388.177287 -30.478228 13.596021 500.000000
0.204559 0.260000 0.410000 92.911789 -36.278265 -20.479431 500.000000
0.260000 0.090000 0.410000 -308.923256 61.704993 -15.368176 500.000000
-0.260000 0.090000 0.410000 58.926440 26.385133 -55.149066 500.000000
-0.260000 0.260000 0.401379 137.962007 -122.645281 22.275807 500.000000
-0.260000 0.260000 0.290000 204.649545 -68.249118 14.435005 500.000000
-0.260000 0.260000 0.371239 239.181299 -120.274110 16.247884 500.000000
0.043444 0.260000 0.410000 60.688779 -38.629426 -25.052623 500.000000
0.179757 0.260000 0.290000 87.951449 -50.295992 56.154377 500.000000
-0.260000 0.154383 0.290000 104.042062 -21.123363 81.585502 500.000000
0.260000 0.090000 0.410000 -179.569004 60.887808 -13.526350 500.000000
-0.260000 0.090000 0.290000 32.266415 67.123417 53.201449 500.000000
0.206351 0.260000 0.410000 93.270247 -36.614701 -18.974090 500.000000
0.260000 0.260000 0.290000 -88.544048 -56.443563 20.827389 500.000000
0.260000 0.260000 0.360300 -77.607617 -109.514135 14.059981 500.000000
0.083412 0.090000 0.290000 68.682423 24.836907 15.889774 500.000000
0.205251 0.260000 0.410000 93.050287 -36.280769 -18.935310 500.000000
0.260000 0.090000 0.319869 -73.204405 48.677970 -18.026198 500.000000
-0.260000 0.172630 0.290000 63.393710 -17.474037 33.273461 500.000000
-0.260000 0.260000 0.410000 55.704682 -60.197104 -21.260814 500.000000
-0.260000 0.260000 0.410000 252.483925 -72.236907 -15.551091 500.000000
-0.260000 0.090000 0.380046 13.536935 259.971449 18.009174 500.000000
-0.132730 0.090000 0.290000 -31.842442 73.277468 17.070605 500.000000
-0.260000 0.260000 0.410000 108.412080 -59.899621 -19.810261 500.000000
-0.260000 0.260000 0.380994 12.598740 -179.928120 18.198875 500.000000
0.260000 0.260000 0.410000 -457.059390 -148.917860 -15.113740 500.000000
-0.260000 0.090000 0.290000 45.430142 28.369724 96.488974 500.000000
0.260000 0.260000 0.290000 -72.240257 -55.673189 20.698396 500.000000
0.260000 0.260000 0.301472 -78.496393 -121.612524 -21.705500 500.000000
0.085549 0.152047 0.410000 -34.890250 -21.590502 -64.489055 500.000000
-0.260000 0.260000 0.290000 130.016901 -35.763348 16.162723 500.000000
-0.260000 0.260000 0.290000 117.245257 -79.506296 25.521691 500.000000
-0.260000 0.260000 0.355264 70.781053 -87.449268 13.052799 500.000000
-0.260000 0.090000 0.335485 45.546871 87.250478 -14.902952 500.000000
-0.260000 0.260000 0.301090 50.146877 -152.918915 -21.781930 500.000000
-0.260000 0.090000 0.410000 58.975058 25.161241 -57.644144 500.000000
-0.260000 0.260000 0.290000 129.624793 -66.979114 17.295781 500.000000
-0.260000 0.260000 0.290000 153.577401 -68.641088 24.777024 500.000000
0.119275 0.260000 0.290000 75.854993 -55.194340 20.813244 500.000000
0.193328 0.260000 0.290000 90.665624 -57.585421 29.402574 500.000000
0.082748 0.260000 0.290000 68.549694 -88.907987 50.000113 500.000000
-0.260000 0.260000 0.410000 54.777406 -106.613435 -16.653119 500.000000
0.260000 0.260000 0.290000 -123.463837 -56.503657 23.159387 500.000000
-0.220550 0.260000 0.290000 -22.309249 -26.137978 15.206422 500.000000
-0.260000 0.260000 0.362542 67.469239 -219.127064 14.508337 500.000000
0.260000 0.260000 0.290000 -60.880537 -84.956917 38.489807 500.000000
-0.260000 0.260000 0.290000 133.280142 -68.313233 24.820723 500.000000
0.204115 0.260000 0.410000 92.822971 -36.615830 -26.981646 500.000000
0.260000 0.128003 0.309488 -56.274704 -26.399499 -20.102426 500.000000
0.260000 0.239370 0.290000 -36.905723 29.874069 18.860092 500.000000
0.201774 0.260000 0.410000 92.354846 -36.606933 -24.357066 500.000000
0.202597 0.260000 0.410000 92.519468 -36.614583 -29.650650 500.000000
0.260000 0.260000 0.290000 -412.164308 -65.733777 59.160758 500.000000
