ply
format ascii 1.0
element vertex 240
property float x
property float y
property float z
property float vx
property float vy
property float vz
property float density
end_header
-0.260000 0.090000 0.410000 34.633696 19.238151 -19.549961 500.000000
-0.260000 0.260000 0.410000 70.322200 -119.318947 -17.249642 500.000000
0.004109 0.260000 0.290000 52.821847 -96.471208 197.973859 500.000000
-0.229813 0.090000 0.290000 -97.962632 18.221369 25.523363 500.000000
0.260000 0.090000 0.410000 -61.903241 19.692414 -24.080015 500.000000
0.039767 0.102413 0.410000 59.953328 -31.517371 -125.697089 500.000000
-0.253052 0.090000 0.410000 -102.610473 554.770124 -41.326915 500.000000
-0.260000 0.260000 0.410000 120.907398 -64.412831 -32.741689 500.000000
0.215003 0.093204 0.290000 74.512840 -33.359282 24.993410 500.000000
-0.260000 0.090000 0.290000 560.383669 126.922354 127.818650 500.000000
-0.260000 0.260000 0.410000 54.803010 -110.214920 -34.751650 500.000000
-0.260000 0.090000 0.410000 57.465597 69.548857 -45.539230 500.000000
-0.245489 0.090000 0.290000 -101.097720 267.558331 215.415456 500.000000
-0.260000 0.090000 0.410000 237.995986 217.765675 -111.071054 500.000000
-0.260000 0.260000 0.410000 205.843211 -70.124227 -32.393065 500.000000
0.208467 0.260000 0.333068 46.898890 -25.507282 -15.386453 500.000000
-0.260000 0.260000 0.325934 71.218480 -114.587816 -16.813134 500.000000
-0.260000 0.260000 0.410000 200.661707 -86.344861 -32.200731 500.000000
-0.192702 0.224120 0.410000 -16.667773 26.823943 -10.870361 500.000000
0.260000 0.112527 0.290000 -191.129723 -29.494665 84.408180 500.000000
0.260000 0.090000 0.410000 -564.253495 328.872797 -19.316508 500.000000
0.260000 0.260000 0.410000 -122.778128 -47.438118 -36.678954 500.000000
0.204602 0.102859 0.410000 92.920450 -31.428113 -196.787013 500.000000
-0.260000 0.106521 0.290000 100.753059 -30.695756 23.216475 500.000000
-0.260000 0.260000 0.410000 227.857844 -84.056046 -37.893755 500.000000
-0.254074 0.090000 0.410000 -102.814858 43.430511 -44.124862 500.000000
0.260000 0.090000 0.328600 -112.344001 157.006158 -16.280056 500.000000
-0.251750 0.090000 0.410000 -102.349993 118.730961 -46.808376 500.000000
-0.260000 0.260000 0.410000 52.736505 -102.714173 -17.564564 500.000000
-0.260000 0.260000 0.410000 64.539957 -102.325595 -27.605738 500.000000
-0.194067 0.260000 0.410000 -90.813477 -114.759597 -16.443311 500.000000
0.260000 0.246307 0.410000 -69.809800 31.261402 -50.724786 500.000000
0.260000 0.260000 0.290000 -164.600798 -53.758905 20.342432 500.000000
0.260000 0.090000 0.290000 -57.282852 11.258005 22.173310 500.000000
0.260000 0.090000 0.410000 -53.376803 40.331322 -117.182618 500.000000
0.260000 0.260000 0.410000 -123.928909 -31.099423 -36.164242 500.000000
-0.260000 0.090000 0.290000 55.559306 53.767025 73.055413 500.000000
0.260000 0.090000 0.332005 -82.431692 14.093842 -15.599088 500.000000
0.260000 0.091962 0.290000 -102.584298 -33.607563 78.205338 500.000000
0.260000 0.090000 0.290000 -138.018065 29.692675 130.276398 500.000000
-0.153909 0.260000 0.290000 -82.781749 -74.275622 152.666727 500.000000
-0.260000 0.260000 0.410000 144.307324 -145.030091 -17.286133 500.000000
-0.260000 0.090000 0.290000 138.290063 173.037257 166.611182 500.000000
0.260000 0.260000 0.410000 -122.930364 -31.104322 -32.965322 500.000000
0.260000 0.152206 0.386932 -48.660173 12.441214 19.386417 500.000000
0.260000 0.260000 0.410000 -25.539324 -285.345409 -18.211949 500.000000
-0.260000 0.260000 0.290000 228.998574 -40.061693 20.241416 500.000000
-0.260000 0.260000 0.410000 116.640091 -103.252848 -39.803207 500.000000
0.260000 0.260000 0.410000 -148.505645 -30.051636 -33.399202 500.000000
-0.260000 0.090000 0.410000 63.329863 42.102428 -28.383830 500.000000
-0.260000 0.260000 0.290000 79.009655 -51.648552 20.351363 500.000000
-0.260000 0.260000 0.410000 97.930520 -138.604973 -17.287127 500.000000
0.260000 0.260000 0.290000 -82.914561 -53.106923 20.393000 500.000000
0.187977 0.260000 0.405643 89.595372 -22.706436 23.128619 500.000000
0.064314 0.090000 0.410000 64.862885 19.757348 -282.625257 500.000000
0.260000 0.090000 0.410000 -104.685154 30.482531 -36.977627 500.000000
-0.099220 0.260000 0.290000 -71.843952 -42.382679 64.256473 500.000000
-0.260000 0.260000 0.410000 172.651539 -70.622329 -32.191804 500.000000
0.247981 0.117842 0.410000 101.596223 -28.431692 -112.776742 500.000000
-0.260000 0.090000 0.290000 110.495220 17.534509 23.499269 500.000000
-0.260000 0.090000 0.290000 108.038409 22.735910 23.541522 500.000000
0.260000 0.260000 0.410000 -131.397986 -29.819809 -30.490712 500.000000
-0.260000 0.090000 0.410000 110.059615 23.751646 -46.933601 500.000000
0.260000 0.260000 0.410000 -126.079038 -50.440535 -32.834910 500.000000
-0.122249 0.260000 0.290000 27.550255 -86.082540 222.143759 500.000000
0.260000 0.260000 0.410000 -122.158628 -33.214878 -30.279962 500.000000
-0.260000 0.091159 0.290000 60.152016 -33.768123 53.792016 500.000000
0.260000 0.090000 0.410000 -54.380466 30.379431 -90.115086 500.000000
0.260000 0.090000 0.290000 -200.465083 30.097002 78.572907 500.000000
-0.260000 0.090000 0.410000 57.179185 64.366371 -22.827459 500.000000
-0.196034 0.260000 0.290000 -91.206823 -50.284064 71.630651 500.000000
0.260000 0.090000 0.410000 -384.660496 78.265063 -17.835028 500.000000
0.161431 0.260000 0.290000 10.226997 -54.363172 19.103211 500.000000
0.217195 0.195336 0.410000 23.377061 21.067167 -14.725663 500.000000
0.260000 0.090860 0.290000 -146.067306 -33.827993 80.204319 500.000000
0.260000 0.260000 0.410000 -259.556038 -495.842060 -17.574151 500.000000
0.260000 0.110345 0.290000 -444.412878 -29.931067 15.254833 500.000000
0.260000 0.260000 0.290000 -251.065510 -67.531395 14.191860 500.000000
-0.260000 0.090000 0.410000 75.757313 518.344435 -36.513991 500.000000
0.049164 0.260000 0.370448 61.832799 -35.043534 16.089513 500.000000
-0.247010 0.260000 0.410000 -101.401952 -102.195298 -20.296914 500.000000
0.260000 0.090000 0.322846 -37.054100 29.867779 -17.430733 500.000000
0.097799 0.260000 0.410000 71.559717 -94.420309 -94.917864 500.000000
-0.150673 0.090000 0.290000 21.865420 230.385976 115.636515 500.000000
-0.260000 0.090000 0.290000 174.135373 21.586096 23.117746 500.000000
0.260000 0.090000 0.410000 -57.098361 40.495895 -112.128081 500.000000
-0.260000 0.090000 0.410000 292.888181 39.383945 -20.880354 500.000000
-0.260000 0.090000 0.410000 63.124550 312.539357 -51.909910 500.000000
-0.260000 0.260000 0.410000 195.095244 -49.122954 -325.413307 500.000000
-0.260000 0.090000 0.290000 66.141052 114.057721 212.847168 500.000000
0.260000 0.260000 0.410000 -318.961371 -590.644401 -16.074474 500.000000
-0.260000 0.090000 0.410000 20.761398 12.709612 -72.331069 500.000000
-0.260000 0.090000 0.410000 191.235889 455.726291 -26.804232 500.000000
-0.260000 0.260000 0.410000 74.641424 -144.020478 -17.450522 500.000000
-0.260000 0.108488 0.311985 58.680301 -30.302474 -19.603035 500.000000
-0.260000 0.090000 0.410000 334.049067 194.928949 -28.553412 500.000000
-0.260000 0.090000 0.290000 94.977470 69.776188 18.657030 500.000000
0.260000 0.090000 0.410000 -67.293599 40.877133 -109.755530 500.000000
-0.260000 0.090000 0.410000 67.010070 398.248845 -55.824618 500.000000
0.022081 0.260000 0.410000 56.416276 -49.485235 -208.251140 500.000000
0.226369 0.260000 0.290000 97.273743 -137.908020 208.793764 500.000000
-0.260000 0.260000 0.410000 54.649097 -133.221659 -17.287257 500.000000
0.260000 0.090000 0.410000 -147.045059 41.275831 -12.337821 500.000000
-0.260000 0.173373 0.290000 94.876140 -17.325324 23.073669 500.000000
-0.260000 0.260000 0.410000 284.860134 -302.038361 -27.195744 500.000000
0.260000 0.090000 0.290000 -225.811768 100.200502 338.810507 500.000000
-0.260000 0.260000 0.290000 146.278779 -40.462398 20.307239 500.000000
0.260000 0.260000 0.410000 -343.204154 -151.161113 -17.763470 500.000000
0.260000 0.090000 0.410000 -52.613783 36.932605 -337.974806 500.000000
0.260000 0.260000 0.290000 -250.928649 -53.883241 20.084538 500.000000
0.260000 0.260000 0.410000 -125.308784 -80.739066 -35.652209 500.000000
-0.260000 0.260000 0.410000 55.427912 -107.120348 -16.648715 500.000000
0.260000 0.090000 0.410000 -662.076209 48.400223 -17.363925 500.000000
0.260000 0.090000 0.410000 -232.562510 253.873320 -18.418955 500.000000
0.029605 0.090000 0.290000 57.920919 130.553752 254.043278 500.000000
0.260000 0.260000 0.410000 -687.550517 -230.189167 -16.643424 500.000000
-0.260000 0.260000 0.410000 54.596743 -108.758158 -17.256367 500.000000
-0.260000 0.090000 0.410000 17.636104 19.488585 -41.030090 500.000000
-0.260000 0.260000 0.290000 81.240677 -49.202093 110.654560 500.000000
-0.152703 0.090000 0.290000 -82.540665 24.835904 19.278841 500.000000
0.260000 0.260000 0.410000 -178.066329 -31.083304 -20.403422 500.000000
0.260000 0.260000 0.290000 -117.230525 -92.907245 201.599741 500.000000
-0.260000 0.260000 0.410000 202.784527 -75.878392 -37.841418 500.000000
-0.260000 0.090000 0.410000 130.595987 51.812958 -53.957974 500.000000
0.260000 0.260000 0.410000 -123.507800 -41.752396 -35.700861 500.000000
0.260000 0.110730 0.290000 -91.763169 -29.853911 78.786294 500.000000
0.260000 0.260000 0.410000 -114.823896 -148.864885 -226.726996 500.000000
0.260000 0.090000 0.410000 -61.392746 25.008891 -108.510287 500.000000
0.260000 0.159081 0.410000 -89.703890 -20.183802 -145.623407 500.000000
-0.260000 0.171302 0.290000 191.063493 -17.739611 37.162078 500.000000
0.047033 0.090000 0.410000 61.406611 97.089956 -170.211301 500.000000
-0.260000 0.090000 0.410000 145.904311 89.162204 -19.323178 500.000000
0.241040 0.260000 0.410000 100.207947 -95.719548 -247.056397 500.000000
-0.241306 0.090000 0.410000 -100.261254 53.861250 -44.872868 500.000000
0.260000 0.090000 0.290000 -23.668446 24.772127 15.130006 500.000000
0.260000 0.090000 0.290000 -96.763491 234.896729 13.472743 500.000000
0.260000 0.090000 0.290000 -103.593351 17.843438 132.647623 500.000000
0.137701 0.090000 0.410000 79.540187 162.907736 -36.530152 500.000000
0.030006 0.162298 0.290000 11.290414 -19.540312 138.757963 500.000000
0.260000 0.260000 0.410000 -126.651009 -85.164194 -37.662912 500.000000
0.260000 0.162103 0.290000 -312.227133 -19.579439 238.796104 500.000000
-0.232408 0.260000 0.410000 -98.481694 -151.557769 -20.020075 500.000000
-0.260000 0.260000 0.410000 94.825215 -385.804208 -18.161559 500.000000
0.260000 0.090000 0.410000 -87.696516 30.641436 -109.499880 500.000000
0.260000 0.090000 0.290000 -156.600651 66.830494 21.480765 500.000000
-0.260000 0.090000 0.410000 13.252607 26.585793 -74.142883 500.000000
-0.260000 0.260000 0.410000 204.822157 -79.432652 -32.188252 500.000000
-0.260000 0.260000 0.410000 171.051776 -75.594200 -36.636607 500.000000
-0.082890 0.097333 0.388022 7.261094 -10.480656 19.604411 500.000000
-0.260000 0.092995 0.290000 54.411423 -33.401020 19.807986 500.000000
-0.260000 0.090000 0.410000 169.995518 59.135319 -124.791102 500.000000
0.260000 0.090000 0.410000 -286.379563 34.354110 -109.733467 500.000000
-0.260000 0.090000 0.410000 61.932602 44.883145 -43.511698 500.000000
0.132952 0.090000 0.410000 78.590490 32.512675 -85.297913 500.000000
0.260000 0.260000 0.406920 -122.051411 -103.323759 23.383973 500.000000
0.260000 0.090000 0.410000 -83.171381 238.092103 -134.104816 500.000000
-0.260000 0.260000 0.410000 139.581761 -65.036706 -33.555466 500.000000
0.260000 0.260000 0.290000 -314.775846 -60.390056 19.227247 500.000000
-0.260000 0.090000 0.410000 238.792215 146.670256 -22.467389 500.000000
0.260000 0.260000 0.410000 -80.495035 -26.052946 -132.161191 500.000000
0.110598 0.260000 0.410000 74.119630 -92.110490 -181.859552 500.000000
0.067751 0.090000 0.290000 65.550173 161.218436 86.353626 500.000000
-0.260000 0.090000 0.410000 348.337660 13.959824 -22.323843 500.000000
0.260000 0.260000 0.410000 -419.475814 -41.371581 -33.934788 500.000000
0.260000 0.110333 0.290000 -162.579096 -29.933471 80.222875 500.000000
0.239850 0.090000 0.410000 99.970097 21.169944 -368.146884 500.000000
-0.260000 0.090000 0.290000 51.152090 17.863263 88.842774 500.000000
0.260000 0.260000 0.410000 -122.437360 -42.069817 -32.781969 500.000000
0.260000 0.106080 0.290000 -126.065544 -30.783941 79.789601 500.000000
0.260000 0.090000 0.290000 -131.019013 54.771008 23.166221 500.000000
0.107784 0.260000 0.410000 73.556882 -194.692506 -219.309540 500.000000
-0.260000 0.260000 0.410000 83.330465 -124.902103 -17.603833 500.000000
-0.260000 0.090000 0.290000 113.154672 28.100840 23.595723 500.000000
0.041799 0.211634 0.290000 -4.532250 -9.673157 2.984382 500.000000
0.260000 0.090000 0.290000 -176.936721 38.822954 269.625072 500.000000
0.260000 0.115347 0.290000 -210.098314 -28.930613 82.530814 500.000000
0.194299 0.260000 0.290000 90.859859 -99.612707 299.411126 500.000000
0.007991 0.260000 0.290000 -50.401794 -53.843082 58.515107 500.000000
-0.260000 0.090000 0.290000 130.679950 17.381749 26.470308 500.000000
0.260000 0.090000 0.410000 -88.418538 36.887225 -87.046161 500.000000
0.260000 0.090000 0.410000 -451.125333 205.459270 -17.835886 500.000000
-0.260000 0.260000 0.410000 63.514295 -216.366520 -30.563731 500.000000
-0.260000 0.260000 0.290000 234.775843 -28.149944 22.792434 500.000000
-0.260000 0.107560 0.290000 103.069701 -30.488029 26.705279 500.000000
0.260000 0.248232 0.410000 -25.294604 31.646414 -39.514539 500.000000
0.260000 0.260000 0.290000 -348.065631 -71.814429 18.382259 500.000000
-0.124736 0.260000 0.290000 -76.947270 -49.266901 135.243408 500.000000
-0.260000 0.260000 0.410000 248.665486 -87.331779 -21.074658 500.000000
0.260000 0.260000 0.410000 -293.140152 -299.649669 -24.773885 500.000000
-0.260000 0.260000 0.290000 281.865933 -37.064662 20.102191 500.000000
-0.260000 0.090000 0.290000 105.355067 33.537945 23.583343 500.000000
0.260000 0.090000 0.410000 -93.026498 42.170025 -18.377393 500.000000
-0.144661 0.090000 0.410000 -80.932149 49.185687 -46.404108 500.000000
-0.260000 0.090000 0.290000 562.291263 17.353981 67.744111 500.000000
0.216961 0.260000 0.290000 95.392168 -146.820385 200.639094 500.000000
-0.260000 0.090000 0.410000 65.505655 86.302580 -43.791615 500.000000
0.260000 0.090000 0.410000 -88.848499 36.175077 -19.222343 500.000000
0.260000 0.090000 0.290000 -82.587550 18.885511 78.803942 500.000000
0.260000 0.090000 0.290000 -94.231077 18.430530 244.336638 500.000000
-0.260000 0.202751 0.410000 246.601035 3.601749 -29.737475 500.000000
-0.033600 0.090000 0.410000 -49.507703 126.556283 -18.618006 500.000000
0.260000 0.090000 0.290000 -78.510099 31.128022 60.524211 500.000000
-0.067652 0.090000 0.410000 -65.530362 19.948069 -41.521798 500.000000
-0.260000 0.260000 0.410000 250.130011 -174.732920 -30.663850 500.000000
0.014731 0.090000 0.410000 54.946219 143.130722 -116.328655 500.000000
-0.240889 0.195071 0.290000 -83.999150 21.014240 41.566572 500.000000
0.242016 0.243867 0.410000 15.149919 13.580144 -11.524447 500.000000
-0.254756 0.090000 0.290000 -20.828280 17.259816 24.549944 500.000000
-0.243438 0.260000 0.410000 -100.687599 -102.187189 -23.846703 500.000000
-0.226993 0.090000 0.313408 -97.398612 17.688928 -19.318479 500.000000
0.260000 0.105717 0.290000 -97.997118 -30.856530 82.276028 500.000000
-0.187221 0.090000 0.306803 -89.444103 36.847973 -20.639476 500.000000
-0.260000 0.099563 0.290000 101.434158 -32.087464 27.665284 500.000000
0.260000 0.096384 0.290000 -188.517382 -32.723123 232.067317 500.000000
0.260000 0.090000 0.410000 -196.666801 76.698721 -17.982509 500.000000
0.260000 0.090000 0.290000 -23.564620 9.226755 19.865484 500.000000
-0.205985 0.090000 0.410000 -93.196906 19.917151 -63.746873 500.000000
-0.028165 0.260000 0.410000 -57.632961 -106.083931 -17.190610 500.000000
0.058717 0.090000 0.410000 63.743458 35.390106 -86.223571 500.000000
-0.260000 0.260000 0.410000 35.675061 -29.878803 -35.206627 500.000000
-0.260000 0.260000 0.410000 53.930970 -109.224852 -99.816538 500.000000
-0.132519 0.260000 0.290000 -78.503883 -90.899013 64.208803 500.000000
0.260000 0.090000 0.290000 -276.114330 41.146063 93.381678 500.000000
-0.251254 0.260000 0.410000 -102.250846 -129.538880 -17.287490 500.000000
-0.260000 0.090000 0.290000 362.524705 38.008203 11.582777 500.000000
0.260000 0.090000 0.290000 -48.480331 73.234452 50.279446 500.000000
-0.260000 0.260000 0.410000 54.080676 -134.649877 -16.395248 500.000000
-0.101073 0.209723 0.364481 31.785336 23.944576 14.896156 500.000000
0.260000 0.110941 0.290000 -287.658626 -29.811883 92.702296 500.000000
-0.260000 0.090000 0.410000 218.821950 40.726055 -20.407031 500.000000
-0.260000 0.260000 0.290000 82.548790 -24.095616 47.467656 500.000000
0.260000 0.260000 0.290000 -12.836000 -55.941541 27.259043 500.000000
0.260000 0.090000 0.410000 -395.854626 526.529166 -17.983840 500.000000
-0.252069 0.090000 0.290000 -102.413798 50.822717 458.634098 500.000000
-0.260000 0.192784 0.358133 94.138186 20.556882 13.626632 500.000000
-0.260000 0.196782 0.290000 79.437662 -12.643687 17.156095 500.000000
-0.260000 0.260000 0.290000 70.376380 -52.833684 101.303418 500.000000
-0.260000 0.162183 0.290000 96.090764 -19.563308 27.147214 500.000000
0.255541 0.260000 0.290000 17.514119 -48.862222 17.077253 500.000000
-0.260000 0.090000 0.410000 236.301197 60.665328 -22.743096 500.000000
