ply
format ascii 1.0
element vertex 240
property float x
property float y
property float z
property float vx
property float vy
property float vz
property float density
end_header
0.260000 0.090000 0.410000 -51.958548 29.992131 -34.207882 500.000000
0.260000 0.238659 0.410000 -96.545087 29.731745 -19.364987 500.000000
-0.260000 0.179687 0.382442 108.322171 17.937427 18.488329 500.000000
-0.260000 0.090000 0.290000 117.702664 193.653150 37.171668 500.000000
0.260000 0.090000 0.410000 -370.408773 33.845218 -37.272714 500.000000
0.035715 0.260000 0.410000 59.143050 -185.233120 -47.218411 500.000000
0.055567 0.090000 0.410000 63.113334 207.871093 -52.820231 500.000000
-0.260000 0.090000 0.290000 67.249325 94.099958 129.018684 500.000000
-0.260000 0.260000 0.290000 59.135213 -20.976134 46.218710 500.000000
-0.260000 0.090000 0.410000 239.245321 51.581168 -116.705507 500.000000
0.260000 0.090000 0.290000 -58.444753 97.917029 24.519788 500.000000
0.260000 0.090000 0.290000 -60.783302 84.318011 23.890782 500.000000
0.165883 0.260000 0.318542 18.057107 -18.179161 -18.291502 500.000000
0.062154 0.260000 0.410000 64.430738 -39.124162 -76.763867 500.000000
0.260000 0.260000 0.290000 -367.300066 -27.491326 39.391826 500.000000
0.260000 0.090000 0.333250 -52.345420 202.219457 -15.349946 500.000000
0.260000 0.090000 0.290000 -192.257543 195.599644 23.723612 500.000000
-0.260000 0.090000 0.410000 239.786423 48.770243 -116.854876 500.000000
-0.260000 0.260000 0.290000 74.067044 -162.303879 48.696497 500.000000
0.260000 0.090000 0.290000 -68.885058 83.797536 24.483059 500.000000
-0.060836 0.090000 0.410000 -64.167158 218.507080 -90.916128 500.000000
0.260000 0.090000 0.410000 -226.938783 36.306773 -38.656020 500.000000
-0.260000 0.260000 0.410000 90.326466 -57.019044 -55.585668 500.000000
0.260000 0.090000 0.410000 -128.001299 17.259685 -56.290355 500.000000
-0.260000 0.260000 0.410000 62.293817 -53.783375 -53.739698 500.000000
0.260000 0.260000 0.325515 -51.727962 -22.291065 -16.896927 500.000000
0.260000 0.090000 0.410000 -115.612158 159.847352 -70.598377 500.000000
-0.081753 0.211282 0.290000 -28.357030 24.256494 12.269927 500.000000
-0.260000 0.090000 0.304097 122.657087 65.904570 -21.180583 500.000000
0.260000 0.090000 0.410000 -289.561163 22.847029 -34.392552 500.000000
-0.260000 0.260000 0.403492 50.510089 -54.890220 22.698367 500.000000
0.026961 0.260000 0.410000 57.392272 -266.784626 -45.977004 500.000000
0.260000 0.260000 0.410000 -62.995326 -66.558961 -17.636972 500.000000
-0.260000 0.206401 0.314353 80.066449 23.280210 -19.129430 500.000000
-0.260000 0.090000 0.290000 64.050549 197.239046 12.433313 500.000000
0.260000 0.090000 0.290000 -98.770099 215.506809 52.650142 500.000000
-0.260000 0.260000 0.290000 194.779071 -145.185015 125.824218 500.000000
-0.260000 0.090000 0.410000 112.685119 815.788521 -54.661296 500.000000
-0.260000 0.260000 0.290000 143.562459 -29.091263 44.016242 500.000000
-0.260000 0.090000 0.410000 248.595725 64.644368 -114.731857 500.000000
0.260000 0.260000 0.290000 -159.838966 -27.516982 39.452691 500.000000
-0.260000 0.090000 0.410000 226.124376 52.189945 -116.028295 500.000000
0.260000 0.260000 0.290000 -164.730244 -32.492376 51.444061 500.000000
0.260000 0.090000 0.410000 -174.993021 35.196558 -40.731629 500.000000
-0.260000 0.260000 0.290000 95.937001 -47.121337 141.924966 500.000000
0.260000 0.235243 0.410000 -75.077857 29.048664 -19.474612 500.000000
-0.260000 0.260000 0.410000 55.705207 -52.080504 -53.612557 500.000000
-0.034995 0.126489 0.410000 45.001016 -26.702177 -30.895428 500.000000
0.260000 0.235603 0.410000 -85.842697 29.120689 -19.487628 500.000000
0.260000 0.090000 0.410000 -259.678490 30.145474 -25.132799 500.000000
-0.260000 0.218135 0.308947 31.878657 25.626988 -20.210622 500.000000
-0.260000 0.260000 0.290000 189.840565 -149.382743 47.991042 500.000000
-0.260000 0.260000 0.290000 124.808387 -104.216887 63.815233 500.000000
-0.260000 0.090000 0.290000 68.928656 193.548204 38.510463 500.000000
-0.260000 0.260000 0.410000 74.775672 -57.357765 -55.603031 500.000000
0.163998 0.260000 0.410000 84.799631 -330.225937 -45.771451 500.000000
-0.260000 0.090000 0.410000 248.477355 34.136957 -143.832360 500.000000
0.057095 0.090000 0.410000 63.419022 150.077450 -50.924046 500.000000
-0.260000 0.260000 0.410000 60.118292 -206.329692 -96.018374 500.000000
-0.112994 0.260000 0.410000 -74.598881 -49.850426 -64.752444 500.000000
0.260000 0.260000 0.290000 -58.132474 -39.469875 42.743078 500.000000
0.260000 0.260000 0.290000 -116.926116 -48.710504 52.231028 500.000000
0.260000 0.260000 0.410000 -26.047278 -20.249894 -22.828696 500.000000
0.260000 0.260000 0.290000 -95.196846 -138.345277 38.073088 500.000000
0.260000 0.260000 0.290000 -67.412990 -164.536171 340.891759 500.000000
0.260000 0.260000 0.293895 -92.573309 -287.437498 -23.221032 500.000000
-0.260000 0.090000 0.290000 85.455001 197.795034 37.352889 500.000000
0.093266 0.090000 0.290574 53.321986 134.850248 -23.885288 500.000000
-0.260000 0.090000 0.410000 98.128301 48.002887 -57.631192 500.000000
0.260000 0.090000 0.290000 -81.886271 120.886218 19.539405 500.000000
0.260000 0.217454 0.410000 -63.964965 25.490808 -17.232428 500.000000
0.260000 0.090000 0.292896 -35.419832 196.240284 -23.420738 500.000000
-0.260000 0.260000 0.410000 82.250148 -56.121526 -55.565221 500.000000
-0.260000 0.090000 0.290000 162.240779 191.672057 38.445713 500.000000
0.260000 0.185915 0.405826 -39.104455 19.182958 23.165247 500.000000
-0.260000 0.260000 0.290000 154.979229 -26.190590 44.017288 500.000000
0.260000 0.260000 0.290000 -117.393502 -27.523073 39.567967 500.000000
0.260000 0.260000 0.290000 -63.234518 -30.950536 309.951007 500.000000
0.260000 0.260000 0.290000 -290.388662 -27.519820 39.577879 500.000000
0.260000 0.260000 0.410000 -60.018399 -18.979699 -90.626363 500.000000
0.260000 0.213728 0.410000 -57.883933 24.745545 -24.657065 500.000000
0.260000 0.090000 0.290000 -23.305520 194.854211 19.687553 500.000000
0.260000 0.090000 0.290000 -35.120733 80.548526 86.059861 500.000000
-0.260000 0.090000 0.290000 113.544978 108.666659 40.714134 500.000000
-0.260000 0.090000 0.410000 206.134675 53.993573 -102.410743 500.000000
-0.260000 0.090000 0.290000 198.877464 90.357738 12.514302 500.000000
0.260000 0.123949 0.294209 -110.906070 -27.210157 -23.158283 500.000000
0.061582 0.260000 0.354692 8.621070 -45.613486 12.938473 500.000000
-0.260000 0.260000 0.290000 98.004509 -328.468856 47.090155 500.000000
0.260000 0.224005 0.410000 -134.983477 26.801081 -19.063029 500.000000
0.260000 0.090000 0.410000 -139.228229 26.103509 -18.056273 500.000000
-0.260000 0.090000 0.290000 126.416752 193.824543 37.398421 500.000000
-0.260000 0.260000 0.410000 56.639651 -57.302301 -55.896549 500.000000
-0.260000 0.090000 0.410000 64.168127 27.244857 -60.007097 500.000000
0.260000 0.090000 0.410000 -121.469731 37.015540 -42.199502 500.000000
0.260000 0.169957 0.328705 -56.011721 -18.008576 -16.258990 500.000000
-0.260000 0.090000 0.410000 216.212367 33.471517 -98.258458 500.000000
0.024077 0.090000 0.410000 56.815466 91.209457 -47.623120 500.000000
-0.260000 0.260000 0.290000 126.152888 -35.463739 51.047400 500.000000
-0.260000 0.090000 0.410000 129.769436 199.866864 -45.327560 500.000000
-0.260000 0.090000 0.323886 50.671364 56.040100 -17.222879 500.000000
0.260000 0.260000 0.290000 -120.451432 -194.570137 43.629471 500.000000
-0.260000 0.260000 0.410000 191.681884 -54.484179 -73.569443 500.000000
-0.260000 0.090000 0.290000 105.642377 38.887426 400.941367 500.000000
0.260000 0.260000 0.290000 -90.839989 -100.088329 47.701939 500.000000
-0.260000 0.260000 0.290000 80.722353 -19.597694 44.341895 500.000000
0.260000 0.260000 0.290000 -107.493044 -27.185341 57.053700 500.000000
0.260000 0.090000 0.290000 -56.453279 86.729805 23.885953 500.000000
0.260000 0.206219 0.410000 -59.117738 23.243833 -20.021769 500.000000
0.260000 0.260000 0.290000 -113.399424 -288.244799 12.307181 500.000000
0.152878 0.260000 0.290000 82.575656 -26.072429 38.928434 500.000000
-0.260000 0.260000 0.290000 82.624435 -398.139153 46.530278 500.000000
-0.260000 0.260000 0.290000 529.748754 -34.821640 56.342610 500.000000
-0.260000 0.090000 0.290000 136.011240 40.935098 324.451244 500.000000
-0.260000 0.260000 0.290000 77.677573 -85.716707 46.812200 500.000000
-0.260000 0.260000 0.290000 132.907067 -26.158471 43.903200 500.000000
0.260000 0.090000 0.410000 -376.609570 21.263985 -31.002500 500.000000
-0.260000 0.260000 0.290000 131.352429 -359.729311 48.495712 500.000000
-0.260000 0.260000 0.290000 193.061512 -26.203638 44.062939 500.000000
0.260000 0.090000 0.290000 -147.100516 204.367055 226.293589 500.000000
-0.260000 0.260000 0.311926 61.946608 -355.717033 -19.614752 500.000000
0.260000 0.260000 0.290000 -91.167296 -138.914822 38.294789 500.000000
0.260000 0.233552 0.410000 -128.620665 28.710429 -19.663910 500.000000
0.260000 0.136741 0.410000 -204.638138 -24.651807 -79.083130 500.000000
-0.058930 0.090000 0.290000 40.214008 53.997734 168.349588 500.000000
0.260000 0.090000 0.410000 -229.984024 153.526603 -56.995746 500.000000
0.260000 0.235043 0.410000 -473.954703 29.008531 -55.327417 500.000000
-0.260000 0.260000 0.290000 107.765342 -28.645150 47.222778 500.000000
0.260000 0.090000 0.410000 -265.262636 45.468754 -65.261620 500.000000
0.114560 0.090000 0.290000 74.912045 55.274952 19.414618 500.000000
-0.260000 0.181070 0.410000 24.287258 18.213920 -141.572543 500.000000
-0.252979 0.090000 0.410000 -102.595752 236.595280 -23.241671 500.000000
0.200966 0.260000 0.410000 92.193159 -360.112738 -45.563915 500.000000
0.260000 0.260000 0.290000 -328.441807 -27.301916 43.510541 500.000000
-0.260000 0.260000 0.290000 110.653505 -382.378075 47.062205 500.000000
0.260000 0.260000 0.290000 -264.031122 -27.541946 52.944635 500.000000
0.260000 0.090000 0.290259 -68.276093 192.206433 -23.948112 500.000000
0.030301 0.090000 0.410000 58.060289 152.817883 -54.055391 500.000000
-0.260000 0.260000 0.290000 120.751808 -35.591373 50.611417 500.000000
0.260000 0.090000 0.410000 -248.028132 46.447362 -71.441542 500.000000
-0.260000 0.260000 0.410000 91.081541 -56.689929 -56.638339 500.000000
-0.260000 0.260000 0.410000 100.280260 -56.086800 -55.540303 500.000000
-0.260000 0.260000 0.290000 230.331885 -26.227102 44.110836 500.000000
0.260000 0.189096 0.371524 -86.117124 19.819128 16.304779 500.000000
-0.260000 0.260000 0.290000 259.293762 -26.291987 44.300826 500.000000
-0.260000 0.090000 0.290000 49.968664 100.526430 23.623321 500.000000
0.260000 0.090000 0.410000 -203.849274 30.124566 -20.520425 500.000000
0.260000 0.260000 0.290000 -110.300081 -134.026527 40.456274 500.000000
-0.021042 0.108865 0.290000 -3.978272 -30.226953 6.691356 500.000000
0.260000 0.260000 0.290000 -75.789741 -27.506187 39.625366 500.000000
-0.260000 0.260000 0.410000 387.958687 -34.862536 -164.763149 500.000000
0.117090 0.260000 0.334210 -28.582086 -62.566745 8.842023 500.000000
0.260000 0.090000 0.410000 -217.200676 26.159078 -24.929884 500.000000
-0.260000 0.260000 0.290000 107.548866 -23.388131 321.030911 500.000000
-0.260000 0.260000 0.290000 77.805880 -140.276039 48.761242 500.000000
-0.260000 0.260000 0.290000 75.230219 -173.415104 55.168618 500.000000
0.227355 0.090000 0.290000 97.471082 83.721205 24.470257 500.000000
0.260000 0.233915 0.410000 -118.040737 28.782904 -19.440662 500.000000
0.038847 0.260000 0.410000 59.769332 -110.215655 -47.326264 500.000000
-0.260000 0.260000 0.410000 55.574343 -96.885784 -57.366986 500.000000
0.089244 0.193194 0.290000 34.920050 10.318114 6.994760 500.000000
0.260000 0.090000 0.290000 -36.934460 192.664172 13.981244 500.000000
0.260000 0.260000 0.410000 -58.583013 -42.031395 -15.584917 500.000000
0.260000 0.260000 0.410000 -71.323523 -18.044599 -62.043521 500.000000
0.260000 0.199482 0.410000 -78.451077 21.896424 -18.827016 500.000000
0.002950 0.090000 0.315989 52.590027 20.301702 -5.661580 500.000000
-0.260000 0.090000 0.290000 79.450032 196.704631 36.642699 500.000000
-0.260000 0.260000 0.290000 91.140717 -20.209859 438.907240 500.000000
-0.260000 0.260000 0.410000 56.381965 -65.170108 -72.746770 500.000000
0.260000 0.260000 0.290000 -403.520634 -20.490494 40.164115 500.000000
0.199132 0.090000 0.290000 91.826362 86.258292 23.905619 500.000000
0.260000 0.090000 0.290000 -123.656037 83.927272 15.699251 500.000000
0.260000 0.260000 0.290000 -898.609348 -104.982335 25.566648 500.000000
-0.260000 0.260000 0.410000 54.767959 -68.230741 -78.007636 500.000000
0.237044 0.147617 0.410000 9.438183 -22.476550 -68.341113 500.000000
-0.260000 0.090000 0.410000 230.743649 74.467532 -101.599015 500.000000
-0.254244 0.260000 0.290000 -25.638394 -21.886492 12.034155 500.000000
0.105786 0.260000 0.410000 -30.842739 -72.414399 -28.475341 500.000000
0.083089 0.141320 0.410000 68.617847 -18.047652 -47.486838 500.000000
0.260000 0.260000 0.410000 -68.344771 -18.280127 -19.916902 500.000000
-0.260000 0.090000 0.290000 89.510194 192.349303 15.680998 500.000000
-0.260000 0.188739 0.410000 731.772887 19.747767 -15.816913 500.000000
-0.260000 0.260000 0.410000 232.475622 -347.115581 -57.074522 500.000000
-0.260000 0.090000 0.290000 213.103034 44.488604 436.532085 500.000000
-0.260000 0.260000 0.290000 129.307797 -35.199475 43.428842 500.000000
0.260000 0.090000 0.290000 -114.597441 196.521763 72.576824 500.000000
-0.260000 0.260000 0.363934 104.770829 -109.755362 -9.213270 500.000000
0.260000 0.260000 0.290000 -82.124477 -21.629496 65.025270 500.000000
0.260000 0.260000 0.410000 -53.313207 -54.989957 -70.640744 500.000000
0.260000 0.260000 0.290000 -511.975274 -175.529088 18.486570 500.000000
-0.260000 0.090000 0.410000 236.781874 48.688703 -116.485234 500.000000
0.260000 0.260000 0.410000 -222.706561 -63.179181 -12.664595 500.000000
-0.260000 0.260000 0.410000 172.316410 -50.487055 -61.682865 500.000000
0.245056 0.260000 0.360681 78.307872 -12.879834 14.136202 500.000000
-0.260000 0.260000 0.290000 77.176517 -148.545592 49.034022 500.000000
0.260000 0.260000 0.290000 -246.821973 -27.502820 39.841919 500.000000
0.046363 0.090000 0.410000 61.272536 140.639997 -47.968318 500.000000
-0.260000 0.237441 0.350144 18.742572 29.488155 -11.971157 500.000000
-0.260000 0.096836 0.290000 76.076586 -32.632840 13.612037 500.000000
0.260000 0.090000 0.410000 -10.870785 30.147012 -29.803170 500.000000
-0.260000 0.260000 0.410000 64.734391 -58.286418 -55.307685 500.000000
0.052966 0.260000 0.367333 -9.057573 -21.495473 15.466692 500.000000
0.260000 0.260000 0.290000 -203.210448 -27.541306 39.443775 500.000000
-0.260000 0.090000 0.330576 57.990334 117.114425 -15.884771 500.000000
-0.260000 0.260000 0.290000 173.985487 -39.339861 55.725693 500.000000
0.260000 0.260000 0.290000 -63.386541 -86.816214 378.108396 500.000000
0.260000 0.260000 0.410000 -52.732732 -146.062979 -14.954886 500.000000
-0.260000 0.260000 0.410000 57.178366 -100.655899 -56.415680 500.000000
0.260000 0.090000 0.290000 -66.375542 87.061427 24.137804 500.000000
-0.260000 0.260000 0.290000 84.900027 -142.546273 48.802950 500.000000
0.260000 0.260000 0.410000 -461.261261 -20.775534 -38.442085 500.000000
-0.260000 0.260000 0.410000 98.993946 -118.154084 -1142.286694 500.000000
0.260000 0.260000 0.290000 -88.891132 -34.153170 30.281980 500.000000
0.260000 0.090000 0.410000 -112.051980 29.879545 -43.590852 500.000000
0.260000 0.090000 0.410000 -146.387652 40.626459 -51.638259 500.000000
0.025222 0.260000 0.410000 57.044447 -76.070100 -46.197948 500.000000
-0.260000 0.090000 0.410000 230.596074 47.358133 -125.837830 500.000000
0.260000 0.090000 0.290000 -133.192245 191.610777 14.887342 500.000000
-0.081396 0.260000 0.322700 35.720865 -25.366610 -17.460060 500.000000
-0.260000 0.090000 0.410000 276.671516 39.505063 -157.176745 500.000000
-0.017646 0.090000 0.410000 48.470756 163.871095 -88.776926 500.000000
-0.260000 0.260000 0.410000 54.152205 -54.238535 -56.983060 500.000000
-0.260000 0.100438 0.410000 52.943004 -31.912409 -57.795805 500.000000
0.260000 0.260000 0.290000 -41.848446 -60.861139 26.410748 500.000000
0.055856 0.090000 0.410000 63.171175 150.993454 -50.906437 500.000000
0.260000 0.090000 0.410000 -57.123950 24.856283 -20.452577 500.000000
-0.260000 0.260000 0.410000 66.725876 -54.373767 -54.056658 500.000000
0.206556 0.090000 0.290000 93.311223 85.471381 23.826703 500.000000
0.260000 0.260000 0.410000 -199.516729 -106.503376 -412.528379 500.000000
0.196434 0.090000 0.290000 91.286793 133.007082 19.772586 500.000000
0.260000 0.205624 0.410000 -59.431370 23.124863 -20.037847 500.000000
0.260000 0.090000 0.410000 -36.183696 281.375423 -15.580908 500.000000
0.260000 0.260000 0.290000 -121.944798 -19.074098 49.724415 500.000000
-0.260000 0.260000 0.290000 102.666305 -26.089383 43.977477 500.000000
0.260000 0.234756 0.410000 -64.340436 28.951198 -19.641129 500.000000
0.260000 0.090000 0.290000 -169.415962 180.531030 19.705111 500.000000
-0.260000 0.260000 0.290000 133.205412 -35.646668 50.105002 500.000000
-0.260000 0.260000 0.290000 131.456631 -26.566828 61.199872 500.000000
0.260000 0.234029 0.410000 -107.342486 28.805789 -19.557063 500.000000
-0.260000 0.260000 0.290000 79.892366 -111.205303 52.144449 500.000000
