ply
format ascii 1.0
element vertex 240
property float x
property float y
property float z
property float vx
property float vy
property float vz
property float density
end_header
0.101457 0.090000 0.290000 7.612183 9.993259 15.162628 500.000000
0.260000 0.090000 0.410000 -1088.324345 363.239943 -44.610262 500.000000
0.260000 0.090000 0.410000 -32.889361 40.274465 -20.730309 500.000000
-0.260000 0.260000 0.410000 61.464460 -169.156983 -336.136057 500.000000
-0.260000 0.260000 0.410000 65.776261 -181.125775 -20.785300 500.000000
-0.165735 0.090000 0.410000 -85.146902 179.080249 -19.556946 500.000000
-0.260000 0.090000 0.410000 101.031608 77.844233 -32.450609 500.000000
-0.260000 0.090000 0.290000 64.363291 29.369345 54.752064 500.000000
0.260000 0.260000 0.410000 -81.776184 -58.584528 -117.000477 500.000000
0.260000 0.260000 0.410000 -102.533542 -97.374663 -67.161546 500.000000
0.260000 0.260000 0.290000 -89.373038 -21.203417 23.831597 500.000000
0.260000 0.260000 0.410000 -81.909569 -71.328591 -265.099060 500.000000
-0.084372 0.090000 0.290000 18.991955 28.903593 17.373455 500.000000
0.260000 0.090000 0.290000 -108.961126 18.324912 60.257090 500.000000
0.260000 0.090000 0.327238 -163.253607 34.731416 -16.552480 500.000000
-0.260000 0.090000 0.410000 65.127358 36.331977 -42.447041 500.000000
-0.260000 0.090000 0.324837 159.117622 30.958986 -17.032594 500.000000
0.260000 0.260000 0.410000 -92.302616 -131.603838 -67.140331 500.000000
0.260000 0.260000 0.410000 -86.898858 -58.695223 -87.655140 500.000000
-0.260000 0.260000 0.290000 440.767991 -146.405364 36.569739 500.000000
-0.260000 0.260000 0.410000 105.792659 -324.446172 -26.945641 500.000000
0.260000 0.260000 0.410000 -76.377043 -58.747051 -60.569007 500.000000
0.201088 0.090000 0.290000 27.128191 26.766799 40.521126 500.000000
0.260000 0.260000 0.410000 -236.853027 -53.472094 -14.310300 500.000000
0.164492 0.090000 0.410000 84.898440 34.585672 -36.979315 500.000000
0.260000 0.260000 0.410000 -196.218623 -51.406798 -51.969358 500.000000
0.185158 0.260000 0.410000 89.031683 -236.779508 -20.864851 500.000000
-0.260000 0.090000 0.410000 61.430979 36.664503 -41.718583 500.000000
-0.260000 0.260000 0.410000 455.619331 -160.009818 -13.790243 500.000000
-0.260000 0.260000 0.410000 63.763997 -177.512787 -21.551215 500.000000
0.260000 0.090000 0.290000 -90.303833 41.233487 29.128006 500.000000
0.260000 0.260000 0.410000 -84.995948 -57.939901 -68.377306 500.000000
0.013820 0.260000 0.290000 54.764098 -149.013900 21.083613 500.000000
-0.260000 0.090000 0.410000 108.212236 77.974932 -37.548359 500.000000
-0.218002 0.090000 0.328731 -10.271158 31.139571 -16.253771 500.000000
0.056349 0.090000 0.410000 -40.730100 35.393118 -87.456030 500.000000
0.260000 0.260000 0.290000 -48.291444 -51.078580 23.867554 500.000000
0.168173 0.090000 0.410000 85.634558 35.437097 -35.301161 500.000000
-0.260000 0.090000 0.410000 103.597486 73.235440 -34.745039 500.000000
0.260000 0.260000 0.410000 -86.994454 -81.604779 -67.330572 500.000000
0.023307 0.090000 0.410000 -47.338518 36.435332 -134.861293 500.000000
0.260000 0.260000 0.410000 -172.791215 -97.875414 -67.094637 500.000000
-0.260000 0.090000 0.327736 388.177341 31.337542 -16.452874 500.000000
0.036592 0.260000 0.290000 -44.681644 -23.560943 158.862220 500.000000
-0.260000 0.260000 0.290000 478.748856 -127.444319 36.105743 500.000000
-0.260000 0.090000 0.290000 98.298275 39.969084 67.064556 500.000000
-0.194244 0.260000 0.410000 -14.859326 -19.853799 -18.751291 500.000000
-0.260000 0.260000 0.290000 86.261339 -212.868813 17.827998 500.000000
0.260000 0.090000 0.290000 -74.494942 347.948745 20.713733 500.000000
0.260000 0.260000 0.410000 -92.677496 -57.605256 -61.829508 500.000000
-0.260000 0.090000 0.410000 103.013507 78.792861 -37.909222 500.000000
0.260000 0.260000 0.290000 -132.803989 -51.011122 23.564217 500.000000
0.260000 0.090000 0.290000 -84.896463 312.786480 19.419974 500.000000
-0.260000 0.260000 0.410000 107.810135 -271.358824 -45.681033 500.000000
0.260000 0.260000 0.410000 -88.071410 -57.510057 -67.469628 500.000000
-0.260000 0.090000 0.290000 117.527416 347.795521 33.471857 500.000000
0.260000 0.260000 0.410000 -80.167480 -167.172270 -67.158946 500.000000
0.260000 0.090000 0.410000 -66.624798 33.438591 -18.399177 500.000000
-0.076509 0.090000 0.410000 -67.301868 113.934514 -19.678248 500.000000
0.260000 0.090000 0.410000 -182.105006 71.000663 -26.510946 500.000000
-0.260000 0.090000 0.410000 107.781319 83.329040 -49.453064 500.000000
0.022120 0.260000 0.410000 56.424067 -53.915488 -42.779647 500.000000
0.260000 0.090000 0.410000 -65.542613 371.906011 -21.452648 500.000000
-0.260000 0.260000 0.290000 71.626872 -50.890186 23.713418 500.000000
0.260000 0.090000 0.290000 -86.458122 81.527807 16.105358 500.000000
-0.082455 0.090000 0.410000 -68.490975 107.351983 -26.575999 500.000000
-0.260000 0.090000 0.290000 110.902818 29.865674 57.266192 500.000000
0.260000 0.260000 0.290000 -88.617901 -152.672145 13.388809 500.000000
-0.034788 0.260000 0.290000 45.042396 -60.033297 986.197601 500.000000
0.260000 0.260000 0.310470 -78.077360 -184.478921 -19.906075 500.000000
-0.260000 0.090000 0.331516 43.274259 13.907292 -15.696723 500.000000
-0.260000 0.260000 0.407752 57.274959 -238.332267 23.550352 500.000000
0.260000 0.127736 0.290000 -59.594235 -26.452709 34.940254 500.000000
0.260000 0.260000 0.290000 -57.275571 -163.332714 34.930597 500.000000
-0.260000 0.260000 0.410000 107.407235 -256.197647 -20.380506 500.000000
-0.260000 0.090000 0.410000 103.501572 90.846278 -68.803355 500.000000
0.066346 0.090000 0.410000 65.269157 73.753229 -47.832821 500.000000
-0.042967 0.260000 0.290000 43.406652 -158.943315 39.718800 500.000000
0.260000 0.090000 0.327575 -54.268727 30.678124 -16.485085 500.000000
0.073452 0.090000 0.357263 66.690425 81.571440 13.452683 500.000000
-0.260000 0.090000 0.410000 103.053309 73.659489 -37.893717 500.000000
0.260000 0.260000 0.319488 -77.971219 -157.500356 -18.102387 500.000000
0.260000 0.260000 0.290000 -74.661896 -155.702875 36.922558 500.000000
0.260000 0.260000 0.315989 -76.260684 -159.516088 -18.802137 500.000000
0.260000 0.260000 0.410000 -197.651538 -90.918832 -66.945703 500.000000
0.260000 0.260000 0.295461 -77.296830 -311.824536 -22.907876 500.000000
-0.260000 0.260000 0.410000 60.819374 -179.041076 -21.364072 500.000000
0.260000 0.260000 0.290000 -429.553157 -73.182724 28.418090 500.000000
-0.260000 0.260000 0.410000 101.791778 -178.833569 -40.661907 500.000000
-0.260000 0.090000 0.410000 87.885690 31.114481 -43.891163 500.000000
0.260000 0.183051 0.290000 -145.189393 18.610287 28.233764 500.000000
-0.260000 0.260000 0.290000 137.083599 -160.702012 25.598272 500.000000
0.260000 0.090000 0.410000 -161.837501 73.013788 -27.524379 500.000000
-0.260000 0.260000 0.290000 72.178118 -129.332509 131.431132 500.000000
0.036441 0.090000 0.290000 59.288217 27.117693 124.540886 500.000000
0.260000 0.090000 0.410000 -118.295832 129.635226 -34.892997 500.000000
0.260000 0.260000 0.410000 -167.738144 -149.712641 -66.857482 500.000000
0.260000 0.260000 0.410000 -95.469807 -94.964093 -73.607166 500.000000
0.197269 0.090000 0.410000 91.453818 43.369086 -24.829384 500.000000
-0.027703 0.260000 0.410000 46.459378 -49.954759 -48.566576 500.000000
-0.260000 0.260000 0.410000 75.146194 -156.734325 -14.266281 500.000000
-0.260000 0.260000 0.410000 110.736669 -145.580885 -19.302438 500.000000
-0.260000 0.090000 0.410000 102.742383 78.371942 -38.629890 500.000000
0.260000 0.260000 0.290000 -74.696467 -148.882189 37.494831 500.000000
0.260000 0.090000 0.290000 -125.868939 79.959685 31.134273 500.000000
0.260000 0.090000 0.290000 -81.324101 411.164794 14.268543 500.000000
0.161417 0.090000 0.410000 17.199009 35.649084 -51.532442 500.000000
-0.260000 0.260000 0.290000 92.162530 -55.394521 23.401604 500.000000
0.018257 0.260000 0.290000 55.651300 -170.370799 55.110288 500.000000
0.260000 0.260000 0.290000 -93.338090 -149.560396 16.461358 500.000000
0.260000 0.090000 0.410000 -54.104528 28.924809 -36.344530 500.000000
0.260000 0.260000 0.290000 -97.230582 -148.429567 16.270333 500.000000
-0.260000 0.090000 0.410000 107.137269 76.691257 -44.658241 500.000000
-0.260000 0.260000 0.379319 190.665639 -17.172648 17.863842 500.000000
0.260000 0.260000 0.410000 -82.220653 -58.619470 -106.906855 500.000000
-0.260000 0.090000 0.410000 103.412942 96.256388 -79.486671 500.000000
0.260000 0.260000 0.410000 -751.672140 -131.029917 -19.361015 500.000000
0.260000 0.090000 0.290000 -86.537339 370.931094 20.845250 500.000000
-0.260000 0.090000 0.410000 103.651014 85.409230 -57.981533 500.000000
-0.260000 0.090000 0.290000 60.400069 35.068284 82.839983 500.000000
0.122448 0.090000 0.410000 76.489527 580.781615 -14.979295 500.000000
0.260000 0.260000 0.290000 -94.262247 -38.586834 23.714029 500.000000
-0.183372 0.090000 0.410000 15.325549 26.867162 -25.427575 500.000000
-0.260000 0.260000 0.410000 71.343388 -178.163881 -20.525420 500.000000
0.260000 0.260000 0.290000 -73.759336 -164.248556 35.859090 500.000000
0.260000 0.090000 0.410000 -168.032331 71.133809 -26.866652 500.000000
-0.260000 0.090000 0.410000 106.806840 83.087355 -33.858171 500.000000
-0.260000 0.260000 0.410000 65.260317 -177.538161 -18.946849 500.000000
-0.260000 0.260000 0.408316 268.763652 -151.450421 23.663204 500.000000
-0.260000 0.090000 0.410000 57.122211 335.424357 -17.023862 500.000000
0.260000 0.090000 0.410000 -149.211714 33.564895 -25.537315 500.000000
-0.260000 0.090000 0.290000 331.465945 31.209329 21.535287 500.000000
0.260000 0.260000 0.290000 -97.264789 -148.654465 26.039815 500.000000
0.260000 0.090000 0.327227 -109.964823 35.853303 -16.554601 500.000000
-0.260000 0.090000 0.410000 56.225901 495.445157 -43.466630 500.000000
-0.035069 0.260000 0.290000 44.986192 -150.428548 14.256139 500.000000
-0.260000 0.090000 0.410000 106.161203 77.662559 -43.513455 500.000000
-0.260000 0.260000 0.410000 216.160062 -67.158999 -29.152990 500.000000
0.160093 0.090000 0.410000 84.018687 56.538514 -37.527687 500.000000
0.260000 0.260000 0.410000 -87.022630 -62.062437 -61.195778 500.000000
-0.260000 0.090000 0.410000 101.992494 76.215232 -32.666324 500.000000
0.260000 0.135498 0.410000 -48.399414 -24.900424 -28.541396 500.000000
-0.260000 0.090000 0.410000 103.797681 79.986927 -47.192882 500.000000
-0.260000 0.260000 0.410000 54.094602 -154.582226 -12.034768 500.000000
-0.260000 0.090000 0.410000 103.915451 74.623305 -36.699387 500.000000
-0.260000 0.090000 0.290000 68.997343 29.411893 55.054436 500.000000
0.093391 0.090000 0.290000 -33.321849 190.142274 23.749311 500.000000
-0.097938 0.260000 0.290000 -45.730202 -18.728040 23.662663 500.000000
0.260000 0.090000 0.290000 -28.047442 25.911706 42.767425 500.000000
-0.082851 0.260000 0.290000 -41.375983 -33.156504 57.334492 500.000000
-0.260000 0.090000 0.410000 102.914629 76.196472 -38.109308 500.000000
0.260000 0.260000 0.410000 -32.371265 -23.358663 -32.630259 500.000000
-0.260000 0.090000 0.290000 52.091742 12.887266 34.680386 500.000000
0.260000 0.260000 0.290000 -70.592717 -150.070573 36.215207 500.000000
-0.260000 0.090000 0.410000 99.515017 417.738956 -24.136317 500.000000
0.260000 0.090000 0.290000 -76.394555 327.986506 22.781367 500.000000
0.260000 0.260000 0.290000 -99.810325 -151.143524 16.985906 500.000000
0.162093 0.090000 0.351954 8.006249 37.457045 -11.609231 500.000000
0.260000 0.260000 0.290000 -87.255488 -153.485982 547.415713 500.000000
-0.260000 0.090000 0.387544 201.334787 129.958505 19.508771 500.000000
-0.106354 0.260000 0.290000 30.729136 -148.713718 15.422908 500.000000
0.079018 0.260000 0.290000 -36.196399 -7.014171 50.799899 500.000000
-0.260000 0.260000 0.290000 317.851164 -125.551207 42.180356 500.000000
0.032055 0.260000 0.290000 58.410930 -148.388104 27.099886 500.000000
0.041093 0.260000 0.290000 60.218552 -176.628473 63.966312 500.000000
-0.260000 0.260000 0.410000 54.571616 -459.986498 -65.814366 500.000000
-0.260000 0.090000 0.328161 306.977969 31.137492 -16.367828 500.000000
-0.055138 0.260000 0.410000 40.972386 -52.340042 -35.332627 500.000000
0.260000 0.090000 0.290000 -72.930218 144.538643 66.915747 500.000000
0.260000 0.090000 0.327164 -235.061368 31.793429 -16.567210 500.000000
-0.260000 0.260000 0.290000 124.673013 -126.150455 32.886608 500.000000
-0.038307 0.090000 0.339429 -10.525793 37.314647 -14.114266 500.000000
0.260000 0.260000 0.410000 -82.171333 -63.786571 -92.518102 500.000000
-0.021842 0.090000 0.410000 -56.368345 249.551637 -13.111700 500.000000
0.256667 0.090000 0.410000 40.314384 10.178352 -24.527106 500.000000
0.260000 0.260000 0.410000 -154.633253 -55.559728 -67.255212 500.000000
0.260000 0.090000 0.290000 -78.341025 647.069172 14.921391 500.000000
-0.026930 0.090000 0.290000 -57.385999 90.598302 58.002130 500.000000
-0.260000 0.260000 0.290000 86.644661 -148.331042 27.988550 500.000000
-0.260000 0.090000 0.290000 101.321658 413.556504 15.322442 500.000000
0.260000 0.260000 0.410000 -15.565034 -35.574330 -39.230419 500.000000
0.260000 0.090000 0.290000 -73.437491 286.153797 182.104132 500.000000
0.260000 0.260000 0.410000 -92.131408 -56.837474 -64.155833 500.000000
0.260000 0.260000 0.290000 -76.742585 -256.275871 12.729487 500.000000
0.223539 0.090000 0.410000 96.707800 44.340796 -31.487921 500.000000
0.260000 0.090000 0.290000 -56.278811 37.345575 39.136631 500.000000
-0.260000 0.260000 0.290000 325.672510 -127.307767 34.796427 500.000000
-0.260000 0.090000 0.410000 124.764136 94.384668 -32.840276 500.000000
0.098572 0.090000 0.290000 -18.910436 128.387006 26.052893 500.000000
-0.260000 0.260000 0.410000 365.845755 -153.897274 -43.140690 500.000000
0.260000 0.260000 0.410000 -125.191916 -128.642916 -67.123493 500.000000
0.260000 0.260000 0.290000 -69.682645 -150.905392 39.088546 500.000000
0.260000 0.090000 0.410000 -183.643144 69.880162 -26.224919 500.000000
0.260000 0.260000 0.410000 -83.117902 -58.939802 -64.859734 500.000000
0.260000 0.260000 0.410000 -84.468633 -58.844460 -66.292956 500.000000
-0.260000 0.090000 0.327842 82.688925 33.382873 -16.431597 500.000000
0.260000 0.090000 0.290000 -63.684190 26.781909 32.877756 500.000000
0.260000 0.090000 0.290000 -53.248517 30.634006 136.998702 500.000000
-0.260000 0.260000 0.410000 63.754023 -179.569860 -57.892113 500.000000
0.260000 0.260000 0.290000 -65.218741 -178.047971 40.519094 500.000000
-0.260000 0.260000 0.290000 42.007955 -22.483211 24.337090 500.000000
-0.260000 0.090000 0.332635 91.502629 141.789980 8.526911 500.000000
0.134478 0.090000 0.290000 -25.104498 19.351161 618.690524 500.000000
-0.144502 0.090000 0.410000 -80.900328 513.938924 -14.344408 500.000000
0.260000 0.090000 0.290000 -101.374531 26.345348 38.300514 500.000000
0.050244 0.260000 0.290000 -26.736272 -51.305002 25.443624 500.000000
-0.260000 0.090000 0.290000 63.902992 358.902687 23.553153 500.000000
-0.260000 0.090000 0.370209 36.010396 168.420306 16.041861 500.000000
0.260000 0.260000 0.290000 -140.076672 -47.303714 22.765304 500.000000
0.260000 0.239674 0.290000 -147.355167 29.934789 23.507489 500.000000
-0.120860 0.090000 0.410000 -76.171995 547.469280 -13.834269 500.000000
-0.260000 0.260000 0.410000 257.207007 -146.898094 -20.035982 500.000000
-0.260000 0.090000 0.410000 38.535182 13.161522 -64.033505 500.000000
0.260000 0.260000 0.410000 -78.031929 -60.655427 -60.900671 500.000000
-0.260000 0.090000 0.290000 29.058653 13.152247 67.486103 500.000000
-0.102727 0.090000 0.380790 7.712197 19.884869 18.157944 500.000000
0.260000 0.260000 0.410000 -153.207803 -132.354362 -67.118716 500.000000
0.260000 0.090000 0.290000 -70.380598 39.366522 42.070697 500.000000
0.260000 0.260000 0.290000 -274.042693 -35.275907 34.762782 500.000000
-0.260000 0.260000 0.410000 67.809049 -260.103028 -25.639437 500.000000
0.127825 0.090000 0.290000 77.564911 384.595816 36.721360 500.000000
0.260000 0.107044 0.410000 -204.869094 -30.591269 -23.073664 500.000000
0.044206 0.260000 0.410000 60.841191 -54.409610 -35.889340 500.000000
-0.260000 0.090000 0.410000 74.389028 30.571408 -70.614700 500.000000
0.260000 0.204993 0.363499 -55.268819 -11.001364 -9.300186 500.000000
0.260000 0.090000 0.290000 -70.480476 742.433220 36.782928 500.000000
0.260000 0.090000 0.290000 -61.796002 28.823669 65.216684 500.000000
-0.260000 0.260000 0.290000 108.111502 -126.465721 32.891153 500.000000
-0.260000 0.260000 0.410000 67.749960 -178.920518 -21.756091 500.000000
-0.260000 0.260000 0.410000 119.748731 -246.710514 -30.187032 500.000000
-0.260000 0.090000 0.410000 236.222891 30.618729 -39.716626 500.000000
0.260000 0.090000 0.322219 -72.442858 42.964385 -17.556129 500.000000
-0.177754 0.117062 0.410000 1.231146 -28.587537 -15.491281 500.000000
-0.260000 0.090000 0.410000 97.589643 485.056793 -72.592268 500.000000
-0.124993 0.260000 0.290000 -49.705062 -17.372134 12.647202 500.000000
-0.260000 0.090000 0.325148 226.898611 30.900262 -16.970346 500.000000
-0.260000 0.260000 0.410000 105.924405 -283.158906 -40.869378 500.000000
0.222451 0.090000 0.410000 96.490252 39.049817 -34.036884 500.000000
-0.260000 0.090000 0.410000 108.062627 78.459592 -38.526166 500.000000
-0.260000 0.260000 0.410000 113.629865 -178.091627 -29.076451 500.000000
