ply
format ascii 1.0
element vertex 240
property float x
property float y
property float z
property float vx
property float vy
property float vz
property float density
end_header
0.260000 0.260000 0.380284 -106.770572 -201.402551 18.056816 500.000000
0.260000 0.090000 0.290000 -64.669590 58.840374 178.708990 500.000000
0.260000 0.260000 0.385435 -22.777818 -52.264505 19.086908 500.000000
-0.260000 0.260000 0.410000 104.310531 -119.966413 -21.314572 500.000000
0.260000 0.260000 0.290000 -60.666433 -51.192064 42.996536 500.000000
-0.260000 0.260000 0.290000 54.841903 -29.307735 90.135741 500.000000
0.260000 0.090000 0.290000 -64.897384 32.803365 175.220098 500.000000
-0.022336 0.090000 0.290000 -56.467276 75.561253 40.593613 500.000000
-0.260000 0.090000 0.410000 134.986375 280.495066 -44.048222 500.000000
-0.257024 0.260000 0.290000 -103.404739 -107.470522 87.939162 500.000000
-0.260000 0.260000 0.410000 78.048270 -515.889141 -35.015519 500.000000
-0.260000 0.260000 0.410000 74.749601 -80.023513 -14.855681 500.000000
0.260000 0.090000 0.410000 -72.064971 39.728948 -62.405730 500.000000
0.260000 0.260000 0.376727 -52.206835 -203.203321 17.345410 500.000000
0.260000 0.090000 0.410000 -70.962182 40.502241 -57.355875 500.000000
0.260000 0.260000 0.387041 -200.745586 -435.855292 19.408278 500.000000
-0.260000 0.260000 0.410000 73.152691 -182.376574 -30.594548 500.000000
-0.254244 0.260000 0.290000 -28.134216 -17.827053 92.786754 500.000000
0.260000 0.260000 0.410000 -222.348740 -64.321311 -12.021445 500.000000
-0.260000 0.260000 0.410000 76.002646 -63.340220 -33.838901 500.000000
0.260000 0.090000 0.410000 -414.494882 25.117509 -75.047338 500.000000
0.260000 0.260000 0.290000 -62.859378 -107.854180 40.837579 500.000000
0.260000 0.090000 0.290000 -66.906871 74.265992 168.496603 500.000000
-0.260000 0.260000 0.379982 73.479369 -186.978730 17.996330 500.000000
-0.260000 0.090000 0.290000 67.520021 32.773130 109.346672 500.000000
0.154970 0.090000 0.343259 -4.090525 18.567643 10.651827 500.000000
0.260000 0.260000 0.379054 -61.140948 -202.341597 17.810758 500.000000
-0.095130 0.260000 0.410000 -71.025977 -35.388194 -346.756686 500.000000
0.049072 0.176981 0.410000 61.814481 -0.213066 -17.537607 500.000000
0.260000 0.090000 0.290000 -450.176237 19.957292 70.893569 500.000000
-0.161386 0.260000 0.290000 -84.277274 -27.998094 96.337473 500.000000
-0.260000 0.260000 0.290000 26.787388 -28.646936 51.784963 500.000000
-0.260000 0.260000 0.290000 31.990383 -9.321280 83.775393 500.000000
-0.260000 0.090000 0.410000 119.386209 234.899028 -38.356395 500.000000
-0.260000 0.260000 0.410000 86.544673 -234.992564 -15.274254 500.000000
-0.086317 0.090000 0.290000 -23.696414 64.909651 77.752036 500.000000
0.156333 0.260000 0.290000 83.266682 -65.574198 47.788466 500.000000
-0.260000 0.090000 0.290000 91.463703 148.551707 29.219923 500.000000
-0.260000 0.090000 0.410000 114.783808 540.554726 -36.594415 500.000000
0.260000 0.090000 0.290000 -68.911318 32.422668 159.833120 500.000000
0.260000 0.090000 0.410000 -71.745872 40.490703 -57.716200 500.000000
-0.159032 0.260000 0.290000 -83.806347 -147.568922 68.051941 500.000000
-0.132596 0.090000 0.410000 -78.519123 245.963541 -222.446403 500.000000
0.260000 0.260000 0.290000 -65.339437 -46.019536 51.374710 500.000000
-0.124956 0.090000 0.367785 27.008821 767.465346 15.557091 500.000000
0.260000 0.090000 0.290000 -64.713435 46.343782 182.222347 500.000000
0.168388 0.260000 0.290000 -18.322318 -18.625070 81.783578 500.000000
-0.066310 0.090000 0.290000 -65.261904 25.109829 47.238062 500.000000
0.260000 0.090000 0.290000 -64.695210 48.119142 182.639479 500.000000
0.260000 0.260000 0.381952 -77.399602 -205.984018 18.390436 500.000000
-0.260000 0.090000 0.410000 124.548994 272.703746 -42.488821 500.000000
-0.260000 0.260000 0.410000 73.366373 -27.136165 -16.749928 500.000000
-0.260000 0.252211 0.410000 59.854988 32.442140 -184.936798 500.000000
-0.260000 0.260000 0.410000 82.106037 -116.596205 -14.277300 500.000000
0.260000 0.090000 0.290000 -65.206701 44.658135 169.053034 500.000000
0.256550 0.260000 0.290000 103.309946 -46.664888 52.584579 500.000000
-0.260000 0.260000 0.388431 110.818556 -40.743238 19.686217 500.000000
-0.260000 0.260000 0.290000 123.413505 -129.204819 57.660399 500.000000
-0.260000 0.260000 0.377004 85.289884 -39.501895 17.400835 500.000000
-0.260000 0.090000 0.410000 73.662982 252.146624 -40.990307 500.000000
-0.030488 0.090000 0.290000 -10.301168 80.304052 18.440872 500.000000
-0.260000 0.260000 0.410000 74.756264 -18.305288 -253.124597 500.000000
-0.260000 0.213548 0.410000 63.527519 24.709518 -34.366972 500.000000
0.213585 0.260000 0.410000 75.938911 -118.667014 -12.347980 500.000000
0.219437 0.260000 0.290000 95.887494 -44.407099 33.418868 500.000000
-0.260000 0.260000 0.410000 57.481411 -48.824604 -13.061222 500.000000
-0.260000 0.260000 0.410000 71.853639 -252.723803 -35.915191 500.000000
-0.140409 0.090000 0.410000 -48.765259 32.656711 -159.602540 500.000000
-0.260000 0.090000 0.290000 92.333073 49.675676 119.080140 500.000000
0.255054 0.090000 0.410000 103.010890 34.211749 -57.168947 500.000000
0.260000 0.090000 0.290000 -19.846258 168.912378 110.374665 500.000000
-0.260000 0.260000 0.410000 91.607321 -203.000805 -12.748708 500.000000
0.260000 0.090000 0.290000 -66.643344 44.349008 167.841301 500.000000
-0.260000 0.260000 0.410000 114.875564 -56.436354 -32.776500 500.000000
-0.260000 0.090000 0.410000 105.824333 302.443565 -13.997238 500.000000
0.260000 0.090000 0.410000 -74.712773 39.521517 -57.634971 500.000000
0.260000 0.090000 0.410000 -71.834134 40.588382 -61.224683 500.000000
-0.260000 0.218985 0.290000 56.252049 4.703992 80.822541 500.000000
0.260000 0.090000 0.410000 -71.709007 40.622167 -61.806010 500.000000
0.260000 0.202664 0.410000 -116.845711 22.532791 -13.558229 500.000000
-0.260000 0.090000 0.290000 114.979717 76.998109 265.768701 500.000000
-0.260000 0.260000 0.410000 54.378500 -158.476227 -97.679880 500.000000
0.097558 0.132428 0.290000 12.665629 8.485546 49.481199 500.000000
0.138400 0.090000 0.410000 79.679979 62.353501 -61.671733 500.000000
0.260000 0.090000 0.290000 -89.021748 45.101211 168.789826 500.000000
-0.205828 0.090000 0.410000 10.834479 18.220669 -165.847115 500.000000
-0.260000 0.260000 0.410000 83.707823 -349.069496 -12.061673 500.000000
-0.167891 0.260000 0.290000 -85.578184 -30.196853 95.894921 500.000000
-0.260000 0.260000 0.410000 71.528380 -46.390310 -34.197361 500.000000
0.260000 0.090000 0.290000 -64.089827 44.271197 169.031595 500.000000
-0.260000 0.106055 0.290000 71.619925 -30.788992 81.560860 500.000000
-0.260000 0.260000 0.410000 107.567914 -125.461433 -20.482538 500.000000
0.260000 0.090000 0.290000 -64.757099 44.589359 178.460055 500.000000
-0.260000 0.260000 0.358385 79.000696 -265.317433 13.676916 500.000000
0.260000 0.260000 0.290000 -67.713742 -78.150566 41.385163 500.000000
0.003878 0.260000 0.290000 -51.224414 -19.964264 93.380329 500.000000
-0.132540 0.260000 0.410000 -78.507912 -17.725707 -41.618423 500.000000
-0.260000 0.260000 0.290000 17.531248 -46.811942 54.254368 500.000000
-0.260000 0.090000 0.410000 71.955450 237.717706 -37.952204 500.000000
0.189255 0.260000 0.410000 89.851050 -273.547521 -20.357468 500.000000
0.068556 0.260000 0.410000 65.711189 -198.329663 -12.257765 500.000000
-0.089925 0.260000 0.410000 34.014964 -100.169851 -150.188382 500.000000
-0.260000 0.090000 0.410000 187.277134 355.520953 -13.378831 500.000000
0.183351 0.260000 0.391417 88.670116 -204.678063 20.283355 500.000000
0.150136 0.260000 0.410000 82.027256 -100.659566 -468.037633 500.000000
-0.260000 0.090000 0.410000 118.734499 236.320556 -38.472201 500.000000
0.260000 0.090000 0.410000 -25.663181 8.652785 -5.160963 500.000000
-0.260000 0.260000 0.410000 74.160449 -157.326918 -14.701254 500.000000
-0.260000 0.090000 0.290000 154.515205 52.938016 117.237340 500.000000
-0.260000 0.260000 0.410000 89.832440 -46.898441 -35.397567 500.000000
0.211942 0.090000 0.410000 94.388477 38.616236 -669.907758 500.000000
-0.260000 0.260000 0.410000 73.085019 -43.621499 -16.249186 500.000000
0.090853 0.090000 0.410000 -33.829418 239.987155 -51.099129 500.000000
-0.001952 0.260000 0.376548 51.609503 -92.471900 17.309530 500.000000
0.260000 0.260000 0.410000 -191.555406 -10.925055 -9.568150 500.000000
0.260000 0.090000 0.410000 -73.183183 40.522730 -57.849905 500.000000
-0.110654 0.260000 0.374773 29.869136 -109.098173 16.954632 500.000000
-0.260000 0.260000 0.410000 109.662531 -43.869677 -56.261119 500.000000
0.260000 0.090000 0.410000 -75.109851 39.369222 -58.014926 500.000000
0.001640 0.090000 0.290000 -51.672002 32.619346 41.957895 500.000000
0.039311 0.260000 0.410000 59.862118 -91.551725 -248.852303 500.000000
0.034826 0.260000 0.410000 58.965277 -100.057850 -171.538995 500.000000
0.260000 0.090000 0.290000 -64.589800 45.764749 188.289106 500.000000
-0.010542 0.090000 0.410000 -54.108467 36.562043 -30.577413 500.000000
-0.214451 0.090000 0.290000 -26.715022 24.253441 36.802248 500.000000
0.065437 0.159926 0.351272 8.311295 13.985149 -11.745690 500.000000
-0.260000 0.090000 0.290000 67.868878 50.903795 121.099825 500.000000
0.260000 0.090000 0.410000 -94.866616 41.666592 -56.555937 500.000000
0.260000 0.260000 0.290000 -91.078244 -65.668375 53.050062 500.000000
-0.260000 0.090000 0.410000 331.806820 37.686715 -46.510601 500.000000
-0.260000 0.090000 0.410000 80.657612 257.386713 -37.312556 500.000000
0.128279 0.165820 0.410000 -4.555736 -18.836100 -112.483337 500.000000
-0.020138 0.260000 0.290000 -56.027599 -115.355681 87.444547 500.000000
0.260000 0.090000 0.410000 -71.307842 34.070660 -188.678329 500.000000
-0.260000 0.260000 0.410000 70.573111 -40.904370 -33.307773 500.000000
0.260000 0.090000 0.410000 -55.008124 49.885758 -503.868904 500.000000
-0.260000 0.260000 0.410000 73.313924 -73.714013 -24.737960 500.000000
0.221777 0.260000 0.290000 96.355381 -237.793847 159.856274 500.000000
-0.260000 0.090000 0.410000 73.506010 246.540881 -40.692204 500.000000
0.260000 0.260000 0.290000 -96.690723 -38.267586 41.615715 500.000000
0.260000 0.090000 0.290000 -69.295809 45.171627 202.232939 500.000000
0.260000 0.090000 0.290000 -66.996885 44.231134 167.042706 500.000000
0.260000 0.090000 0.410000 -75.564976 39.444180 -58.267854 500.000000
0.260000 0.090000 0.290000 -12.118309 187.849128 107.016402 500.000000
0.260000 0.090000 0.410000 -76.612820 39.866464 -61.236744 500.000000
-0.178100 0.260000 0.290000 -87.620076 -27.651507 88.933572 500.000000
0.260000 0.260000 0.382707 -92.464425 -205.170123 18.541479 500.000000
-0.035263 0.260000 0.290000 14.460479 -54.942065 17.018820 500.000000
0.157190 0.260000 0.290000 83.438084 -54.852661 40.196857 500.000000
0.260000 0.090000 0.410000 -71.981997 39.882091 -62.749055 500.000000
0.026678 0.090000 0.410000 -46.664405 232.430388 -130.410323 500.000000
0.040521 0.090000 0.410000 60.104244 714.950922 -23.453923 500.000000
-0.121662 0.260000 0.290000 -76.332421 -78.316291 183.589978 500.000000
0.260000 0.090000 0.290000 -70.299626 49.878253 82.559895 500.000000
0.260000 0.260000 0.410000 -270.944779 -39.501934 -14.119891 500.000000
0.022107 0.090000 0.410000 56.421475 21.087732 -588.505969 500.000000
-0.260000 0.260000 0.410000 73.875459 -60.895377 -33.429576 500.000000
0.260000 0.090000 0.290000 -64.629477 45.217685 181.134264 500.000000
-0.260000 0.260000 0.290000 64.876660 -30.697924 90.455096 500.000000
0.260000 0.260000 0.290000 -60.399298 -26.633551 125.605424 500.000000
0.060349 0.090000 0.293671 23.799351 34.975729 -23.265823 500.000000
0.260000 0.260000 0.410000 -249.705144 -126.785035 -15.434897 500.000000
0.229944 0.260000 0.290000 7.816673 -26.639215 41.571391 500.000000
-0.260000 0.090000 0.410000 545.746710 255.613498 -21.677254 500.000000
-0.260000 0.090000 0.290000 774.024128 31.350134 78.953205 500.000000
-0.260000 0.127981 0.290000 39.892272 -26.403808 96.229941 500.000000
-0.260000 0.260000 0.410000 72.305193 -217.772291 -13.150711 500.000000
0.086835 0.090000 0.410000 50.197154 369.736541 -14.404217 500.000000
0.260000 0.090000 0.410000 -109.637288 392.385998 -14.414354 500.000000
-0.260000 0.090000 0.410000 64.304302 241.560834 -39.076949 500.000000
-0.260000 0.260000 0.410000 139.421286 -142.210164 -15.331248 500.000000
0.260000 0.260000 0.290000 -30.805351 -116.994606 13.034081 500.000000
0.260000 0.260000 0.410000 -81.924423 -40.346969 -14.046224 500.000000
0.260000 0.090000 0.290000 -116.822335 55.829546 885.392625 500.000000
-0.260000 0.260000 0.403858 145.454229 -117.920061 22.771614 500.000000
0.260000 0.090000 0.290000 -52.619494 50.494032 87.773275 500.000000
0.013736 0.260000 0.290000 54.747130 -156.574307 98.170304 500.000000
0.260000 0.260000 0.377461 -45.317754 -90.681124 17.492258 500.000000
-0.260000 0.260000 0.290000 206.658383 -46.254494 51.674012 500.000000
0.231989 0.260000 0.383939 36.043866 -20.243763 18.787782 500.000000
0.260000 0.260000 0.410000 -92.445114 -116.764473 -13.724617 500.000000
0.165691 0.260000 0.290000 35.301457 -19.624084 74.040140 500.000000
0.030620 0.260000 0.410000 58.124097 -228.165674 -16.861192 500.000000
-0.013937 0.090000 0.290000 -54.787408 32.982986 108.152297 500.000000
-0.260000 0.090000 0.410000 103.757054 736.289003 -37.544182 500.000000
-0.231628 0.260000 0.290000 -4.845877 -33.410713 19.376720 500.000000
0.036851 0.260000 0.290000 59.370252 -27.761610 49.895885 500.000000
0.260000 0.090000 0.290000 -99.214865 280.272297 25.934739 500.000000
0.030484 0.260000 0.410000 -45.903261 -80.838908 -45.400836 500.000000
0.260000 0.260000 0.410000 -80.244059 -39.178133 -27.233628 500.000000
-0.242172 0.260000 0.290000 -100.434363 -19.761603 81.548816 500.000000
-0.209027 0.260000 0.290000 -93.805381 -28.107477 97.752309 500.000000
0.260000 0.090000 0.290000 -64.744982 45.726025 176.284178 500.000000
0.108023 0.090000 0.410000 73.604562 30.672085 -33.062892 500.000000
0.260000 0.260000 0.410000 -256.916829 -61.219727 -22.843511 500.000000
0.260000 0.090000 0.410000 -71.717739 40.067701 -70.250552 500.000000
-0.260000 0.260000 0.290000 88.950599 -50.874019 52.093095 500.000000
-0.069827 0.260000 0.382483 -7.491535 -40.309976 18.496500 500.000000
-0.260000 0.260000 0.410000 87.087155 -372.822501 -12.710528 500.000000
0.260000 0.260000 0.380862 -119.685964 -201.143284 18.172322 500.000000
0.260000 0.090000 0.290000 -65.102145 72.921219 159.587347 500.000000
-0.079006 0.252694 0.290000 -67.801249 32.538846 103.609156 500.000000
0.260000 0.090000 0.410000 -71.723288 41.295139 -57.477857 500.000000
0.078466 0.090000 0.410000 -36.306773 39.472989 -26.300932 500.000000
-0.260000 0.090000 0.410000 94.521734 236.844110 -36.579677 500.000000
-0.260000 0.260000 0.290000 20.778740 -26.145640 31.032837 500.000000
0.047886 0.260000 0.410000 2.547035 -47.031198 -12.515054 500.000000
-0.205237 0.260000 0.290000 -93.047477 -27.766947 90.175014 500.000000
-0.260000 0.260000 0.410000 78.345129 -167.950745 -22.772338 500.000000
0.260000 0.260000 0.410000 -292.514478 -52.915589 -15.443863 500.000000
-0.260000 0.090000 0.410000 52.633061 331.477346 -14.136626 500.000000
-0.030357 0.260000 0.410000 45.928664 -102.329529 -135.254822 500.000000
-0.260000 0.260000 0.410000 32.977374 -6.485911 -477.655300 500.000000
0.260000 0.260000 0.378902 -104.931739 -198.055648 17.780480 500.000000
0.260000 0.260000 0.290000 -75.679649 -99.762547 127.935044 500.000000
0.143099 0.260000 0.290000 80.619851 -57.343261 41.219200 500.000000
0.260000 0.090000 0.410000 -508.412710 28.141273 -15.486889 500.000000
-0.260000 0.260000 0.410000 94.287122 -54.511772 -33.641248 500.000000
-0.203368 0.260000 0.375734 -92.673604 -8.160601 3.011470 500.000000
-0.260000 0.260000 0.385331 93.454763 -40.243251 19.066187 500.000000
-0.260000 0.260000 0.402430 54.152344 -288.763259 22.486062 500.000000
-0.260000 0.090000 0.410000 67.444946 83.359262 -18.314580 500.000000
-0.260000 0.260000 0.388660 37.448578 -123.404762 19.732099 500.000000
-0.260000 0.260000 0.410000 23.765704 -15.083720 -456.305471 500.000000
-0.260000 0.260000 0.290000 119.442239 -158.559248 57.096083 500.000000
-0.053011 0.260000 0.393368 -23.695830 -39.658044 20.673668 500.000000
-0.260000 0.090000 0.290000 82.122150 51.692409 86.873773 500.000000
-0.260000 0.260000 0.410000 163.213782 -116.992226 -12.802249 500.000000
0.037504 0.260000 0.410000 59.500893 -98.705344 -143.396728 500.000000
-0.153724 0.090000 0.410000 21.255138 31.867230 -82.572697 500.000000
-0.260000 0.090000 0.290000 164.565110 51.031902 117.752554 500.000000
0.260000 0.090000 0.410000 -125.393979 32.497863 -57.056252 500.000000
0.248364 0.090000 0.410000 101.672764 174.327000 -64.756432 500.000000
0.260000 0.090000 0.410000 -72.231463 39.446357 -62.405765 500.000000
0.260000 0.090000 0.290000 -64.735031 44.090121 187.559005 500.000000
0.260000 0.090000 0.410000 -43.994245 32.259408 -232.184940 500.000000
-0.260000 0.090000 0.410000 85.942562 246.170379 -38.225171 500.000000
0.260000 0.260000 0.410000 -189.603848 -18.730046 -153.802265 500.000000
0.260000 0.090000 0.290000 -64.655388 44.545246 184.864776 500.000000
0.260000 0.260000 0.410000 -218.948498 -56.523018 -122.549890 500.000000
