ply
format ascii 1.0
element vertex 240
property float x
property float y
property float z
property float vx
property float vy
property float vz
property float density
end_header
-0.260000 0.260000 0.410000 133.022975 -18.619125 -30.392475 500.000000
0.260000 0.260000 0.410000 -20.301987 -254.097616 -15.216359 500.000000
-0.260000 0.260000 0.290000 67.984826 -60.901349 14.885698 500.000000
-0.068534 0.090000 0.410000 -65.706763 83.464187 -207.178444 500.000000
0.260000 0.260000 0.410000 -90.564456 -76.348302 -40.050302 500.000000
-0.169845 0.260000 0.290000 -85.968961 -57.434349 98.466235 500.000000
-0.062748 0.090000 0.370859 -9.993907 10.882690 -7.828268 500.000000
-0.260000 0.260000 0.290000 53.450899 -75.569816 16.919401 500.000000
0.260000 0.260000 0.290000 -70.556563 -21.426858 28.780447 500.000000
-0.260000 0.090000 0.290000 52.935893 81.006515 78.777179 500.000000
-0.171780 0.252348 0.290000 -86.355964 32.469651 17.151113 500.000000
0.260000 0.090000 0.410000 -103.300366 62.276528 -88.174725 500.000000
-0.171879 0.252553 0.290000 -86.375821 32.510628 17.055798 500.000000
0.260000 0.260000 0.410000 -69.313443 -210.323234 -53.986841 500.000000
-0.172257 0.252702 0.290000 -86.451387 32.540458 17.150884 500.000000
0.101193 0.090000 0.410000 72.238537 313.423659 -33.975799 500.000000
-0.183582 0.244125 0.290000 -88.716359 30.825070 16.941203 500.000000
0.147692 0.101762 0.410000 -3.386297 -31.647553 -56.888519 500.000000
0.260000 0.090000 0.410000 -126.252790 57.415165 -86.685226 500.000000
0.039814 0.090000 0.410000 -44.037133 43.547538 -76.395091 500.000000
-0.079631 0.090000 0.410000 4.287091 36.567274 -18.343798 500.000000
0.260000 0.260000 0.410000 -196.728319 -45.266682 -52.270593 500.000000
0.009495 0.260000 0.290000 53.899006 -112.343228 31.909076 500.000000
0.011081 0.260000 0.290000 54.216119 -95.088480 31.106243 500.000000
-0.255753 0.090000 0.290000 -103.150590 109.725947 168.071287 500.000000
-0.260000 0.090000 0.410000 78.026800 99.409552 -44.163637 500.000000
-0.260000 0.260000 0.410000 188.795546 -41.017600 -60.646918 500.000000
-0.172165 0.252534 0.290000 -86.433026 32.506842 17.057917 500.000000
-0.260000 0.260000 0.290000 132.455670 -28.366126 29.649615 500.000000
0.076915 0.260000 0.410000 -36.617063 -502.584872 -38.295783 500.000000
0.260000 0.260000 0.410000 -77.329802 -172.257109 -54.005446 500.000000
-0.260000 0.260000 0.290000 52.913347 -20.475797 15.608416 500.000000
-0.139465 0.090000 0.410000 -79.892943 98.470832 -40.929458 500.000000
-0.020739 0.090000 0.410000 -56.147713 210.807983 -60.321502 500.000000
-0.181253 0.210623 0.290000 -88.250522 -9.875342 22.873628 500.000000
0.260000 0.260000 0.290000 -77.066525 -34.317865 242.082395 500.000000
-0.021240 0.090000 0.410000 -56.247940 96.198046 -40.839262 500.000000
0.260000 0.090000 0.410000 -15.840189 15.596421 -11.973079 500.000000
-0.172035 0.252721 0.290000 -86.406902 32.544163 17.146807 500.000000
-0.260000 0.260000 0.290000 52.822516 -23.529604 92.518851 500.000000
-0.172106 0.252440 0.290000 -86.421201 32.487970 17.057145 500.000000
-0.260000 0.090000 0.410000 82.266472 99.434720 -43.855775 500.000000
-0.152240 0.238379 0.290000 -82.447988 29.675758 26.491178 500.000000
-0.183686 0.260000 0.290000 -88.737230 -27.215299 62.657792 500.000000
-0.260000 0.260000 0.410000 60.868196 -40.902550 -62.503439 500.000000
0.260000 0.260000 0.410000 -181.707339 -56.206849 -58.747932 500.000000
-0.260000 0.156768 0.290000 100.632078 -20.646500 86.292729 500.000000
0.260000 0.090000 0.290000 -30.989761 39.071750 14.399079 500.000000
0.260000 0.260000 0.410000 -74.698222 -42.487001 -59.014765 500.000000
-0.260000 0.090000 0.410000 466.978321 62.068255 -72.871400 500.000000
0.260000 0.260000 0.290000 -38.495057 -64.989287 97.462580 500.000000
-0.106318 0.260000 0.290508 30.736412 -30.805147 -23.898471 500.000000
0.260000 0.260000 0.290000 -418.008112 -54.012671 26.178313 500.000000
-0.260000 0.260000 0.410000 63.829645 -213.410171 -15.193762 500.000000
-0.260000 0.243042 0.290000 76.383822 30.608483 213.752921 500.000000
-0.174569 0.260000 0.290000 -86.913715 -17.597502 17.071598 500.000000
-0.172125 0.253251 0.290000 -86.424948 32.650101 17.054649 500.000000
-0.260000 0.090000 0.290000 52.254540 69.034392 86.038418 500.000000
-0.097829 0.260000 0.410000 -31.417953 -68.146291 -97.773346 500.000000
-0.260000 0.260000 0.290000 79.767270 -32.302872 14.148990 500.000000
-0.173340 0.253435 0.290000 -86.667908 32.686964 17.230927 500.000000
-0.109833 0.134446 0.327137 -17.204027 -25.110737 -16.572623 500.000000
-0.260000 0.217845 0.410000 60.433397 25.568940 -19.906857 500.000000
0.138137 0.260000 0.290000 79.627356 -33.600909 31.222520 500.000000
-0.162113 0.260000 0.290000 -84.422692 -36.908493 75.872661 500.000000
0.260000 0.090000 0.410000 -161.985010 81.382139 -144.771363 500.000000
0.260000 0.104191 0.373236 -18.069034 -1.033625 -7.352733 500.000000
-0.260000 0.090000 0.290000 86.570874 53.229156 76.255776 500.000000
-0.260000 0.090000 0.290000 41.681914 60.056422 12.538455 500.000000
0.260000 0.260000 0.410000 -69.036537 -67.748302 -87.799930 500.000000
0.260000 0.155038 0.290000 -82.408832 -20.992334 17.007387 500.000000
-0.074479 0.090000 0.410000 -66.895772 98.388268 -40.804526 500.000000
-0.260000 0.090000 0.290000 55.720138 475.350501 87.130255 500.000000
-0.260000 0.090000 0.290000 72.390381 18.525707 14.010148 500.000000
-0.260000 0.260000 0.410000 67.272207 -19.966126 -14.337740 500.000000
0.260000 0.260000 0.410000 -76.564992 -33.717916 -47.961982 500.000000
-0.169557 0.243502 0.290000 -85.911432 30.700361 18.907670 500.000000
-0.172205 0.252728 0.290000 -86.440913 32.545503 17.145511 500.000000
-0.168519 0.238781 0.290000 -85.703856 29.756220 22.179263 500.000000
-0.260000 0.260000 0.290000 64.967640 -76.187199 14.930651 500.000000
-0.175251 0.227014 0.290000 -87.050107 27.402868 16.781609 500.000000
0.260000 0.260000 0.410000 -98.503562 -39.571507 -15.125600 500.000000
-0.070782 0.219158 0.410000 8.774386 25.831672 -14.318048 500.000000
-0.225572 0.260000 0.290000 -31.658973 -73.201331 27.271692 500.000000
-0.014998 0.090000 0.290000 -54.999660 134.104402 568.110020 500.000000
-0.176603 0.260000 0.290000 -87.320606 -21.583532 17.122580 500.000000
-0.125883 0.090000 0.410000 -77.176569 105.544521 -235.522530 500.000000
-0.012905 0.090000 0.410000 -54.581084 107.212905 -40.501802 500.000000
-0.260000 0.260000 0.410000 124.569216 -170.068622 -15.180417 500.000000
-0.171718 0.252735 0.290000 -86.343624 32.546915 17.154770 500.000000
-0.172826 0.252841 0.290000 -86.565203 32.568217 17.146455 500.000000
0.102050 0.260000 0.290000 72.410026 -24.075582 31.213521 500.000000
0.260000 0.260000 0.410000 -257.712239 -40.677073 -62.078308 500.000000
-0.260000 0.252671 0.410000 115.564328 32.534199 -226.734557 500.000000
0.055569 0.260000 0.290000 32.226980 -22.307752 31.943715 500.000000
0.260000 0.260000 0.410000 -70.754347 -38.120657 -53.832284 500.000000
-0.257253 0.090000 0.290000 -103.450655 112.235642 139.324807 500.000000
-0.064080 0.090000 0.410000 -64.816028 39.725174 -15.795450 500.000000
0.260000 0.260000 0.410000 -126.142624 -47.315655 -90.499295 500.000000
-0.171879 0.252655 0.290000 -86.375790 32.530929 17.145769 500.000000
-0.083995 0.090000 0.410000 35.201072 51.427571 -55.009183 500.000000
-0.127107 0.260000 0.290000 -10.538688 -22.185348 27.811927 500.000000
-0.229973 0.260000 0.410000 -67.751194 -40.483018 -62.834640 500.000000
-0.260000 0.260000 0.290000 57.276367 -50.998240 14.864229 500.000000
0.139942 0.192131 0.410000 33.559406 -13.573837 -19.013307 500.000000
-0.172003 0.252439 0.290000 -86.400654 32.487739 17.057853 500.000000
0.202375 0.090000 0.290000 92.475066 19.062661 131.608435 500.000000
0.260000 0.090000 0.410000 -100.735065 73.587900 -89.057022 500.000000
-0.171741 0.252734 0.290000 -86.348289 32.546867 17.149442 500.000000
-0.260000 0.260000 0.290000 83.359624 -36.020702 14.658412 500.000000
-0.260000 0.260000 0.290000 291.945819 -21.341420 31.677939 500.000000
-0.203023 0.252780 0.290000 -92.604683 32.555944 18.304852 500.000000
-0.006041 0.090000 0.318952 25.831044 7.078664 -7.465047 500.000000
-0.032449 0.090000 0.410000 -58.489875 98.177675 -40.750947 500.000000
-0.103245 0.090000 0.410000 -72.648933 105.378840 -179.001305 500.000000
0.260000 0.090000 0.307490 -58.635211 146.819085 -20.502025 500.000000
0.260000 0.090000 0.410000 -207.464881 73.917099 -190.219093 500.000000
-0.260000 0.090000 0.290000 211.241834 22.416784 15.004267 500.000000
0.141297 0.090000 0.410000 -23.740580 26.471186 -101.577547 500.000000
-0.260000 0.260000 0.290000 61.220882 -22.245596 28.080903 500.000000
-0.260000 0.260000 0.290000 71.805667 -107.855977 15.083413 500.000000
-0.234481 0.260000 0.290000 -10.066215 -51.015928 27.417283 500.000000
0.260000 0.260000 0.410000 -116.433910 -39.866603 -54.580083 500.000000
-0.260000 0.260000 0.290000 65.166540 -62.318765 27.276303 500.000000
0.107796 0.260000 0.290000 40.856700 -22.193571 29.078770 500.000000
0.260000 0.260000 0.410000 -98.776096 -40.879587 -60.026373 500.000000
0.165075 0.260000 0.410000 22.003479 -41.048855 -58.628008 500.000000
-0.203671 0.245782 0.290000 -92.734113 31.156321 19.541475 500.000000
-0.084294 0.125786 0.354801 15.521805 -13.319870 12.960164 500.000000
0.260000 0.257216 0.290000 -452.530733 33.443255 27.627343 500.000000
-0.012652 0.260000 0.290000 49.469535 -17.808905 28.831080 500.000000
-0.260000 0.218780 0.410000 62.539157 8.759213 -14.277186 500.000000
-0.260000 0.090000 0.290000 57.204392 72.503703 76.670489 500.000000
-0.260000 0.090000 0.290000 65.527805 61.277576 16.873726 500.000000
0.260000 0.090000 0.410000 -110.098180 72.340072 -93.016413 500.000000
-0.191034 0.254433 0.290000 -90.206797 32.886568 17.034650 500.000000
-0.183888 0.246883 0.290000 -88.777648 31.376535 17.228804 500.000000
0.260000 0.161320 0.290000 -83.910779 -19.736085 17.180305 500.000000
-0.260000 0.260000 0.290000 23.216115 -14.103275 11.949480 500.000000
-0.260000 0.090000 0.345152 18.062596 47.741053 -12.969616 500.000000
0.260000 0.260000 0.410000 -98.355903 -40.726722 -64.468538 500.000000
0.260000 0.090000 0.290000 -187.587312 154.715575 28.623363 500.000000
-0.260000 0.090000 0.410000 65.944600 103.963765 -41.364084 500.000000
-0.019484 0.090000 0.410000 -55.896801 96.257822 -41.412460 500.000000
-0.260000 0.226679 0.290000 82.326221 27.335807 14.374781 500.000000
0.260000 0.260000 0.290000 -86.548270 -24.185929 93.634031 500.000000
-0.260000 0.090000 0.410000 443.567898 62.595764 -87.636453 500.000000
-0.260000 0.090000 0.290000 116.608075 27.779100 18.529548 500.000000
-0.260000 0.090000 0.410000 58.212704 57.153622 -142.515996 500.000000
-0.153344 0.233069 0.290000 -82.668897 28.613744 16.525516 500.000000
-0.260000 0.090000 0.290000 350.786789 91.043192 18.868264 500.000000
0.260000 0.090000 0.290000 -72.771185 52.818988 24.273214 500.000000
0.260000 0.260000 0.290000 -34.096187 -5.505229 27.725564 500.000000
-0.155116 0.202435 0.290000 -83.023155 22.486996 24.449920 500.000000
-0.198962 0.256549 0.290000 -91.792465 33.309866 14.658866 500.000000
-0.260000 0.260000 0.290000 211.252853 -22.877695 31.362712 500.000000
0.260000 0.090000 0.410000 -108.925302 58.950303 -95.818973 500.000000
0.260000 0.260000 0.410000 -127.143101 -40.452613 -61.977197 500.000000
-0.256301 0.090000 0.290000 -103.260236 59.796157 144.733391 500.000000
-0.033288 0.090000 0.410000 -58.657650 98.510244 -40.690568 500.000000
0.260000 0.090000 0.410000 -182.258848 21.746161 -70.878424 500.000000
0.260000 0.090000 0.298016 -74.242019 77.512386 -22.396753 500.000000
0.127915 0.260000 0.290000 77.583011 -44.311247 31.163591 500.000000
-0.260000 0.260000 0.410000 71.269518 -77.248794 -87.100392 500.000000
0.119707 0.090000 0.290000 44.664203 21.466144 79.751220 500.000000
0.260000 0.090000 0.290000 -37.172512 109.846493 19.552741 500.000000
0.220719 0.260000 0.290000 8.627643 -19.389649 14.595043 500.000000
-0.257372 0.260000 0.290000 -103.474349 -92.511424 14.914932 500.000000
-0.105836 0.260000 0.410000 -6.323558 -32.649901 -12.224854 500.000000
0.260000 0.260000 0.290000 -49.903799 -76.678979 26.645314 500.000000
-0.260000 0.170728 0.410000 71.951848 -17.854302 -21.650128 500.000000
0.096726 0.090000 0.290000 71.345256 26.618214 329.438254 500.000000
-0.172091 0.252994 0.290000 -86.418199 32.598857 17.038691 500.000000
0.260000 0.260000 0.410000 -70.484800 -158.913125 -53.563005 500.000000
-0.260000 0.260000 0.410000 59.021608 -23.539261 -386.309972 500.000000
0.260000 0.090000 0.290000 -81.251019 87.847773 17.191874 500.000000
-0.201418 0.260000 0.290000 -92.283617 -99.110150 15.022381 500.000000
0.260000 0.090000 0.410000 -338.723386 48.001363 -79.416218 500.000000
0.260000 0.090000 0.290000 -80.160494 57.813827 382.189444 500.000000
-0.093836 0.260000 0.290000 33.232765 -57.476664 88.927551 500.000000
-0.171719 0.252808 0.290000 -86.343819 32.561699 17.145512 500.000000
-0.083795 0.090000 0.410000 -68.759019 104.691869 -225.928594 500.000000
-0.157803 0.090000 0.410000 -83.560527 108.720917 -189.931186 500.000000
-0.260000 0.219424 0.290000 133.282437 25.884783 0.211082 500.000000
-0.172032 0.252793 0.290000 -86.406308 32.558613 17.146837 500.000000
0.260000 0.260000 0.410000 -66.569930 -120.410398 -53.570943 500.000000
0.260000 0.090000 0.290000 -121.060094 173.097313 18.805182 500.000000
-0.179298 0.260000 0.290000 -87.859502 -35.712341 15.081491 500.000000
-0.208467 0.260000 0.290000 -93.693445 -53.311485 72.688906 500.000000
-0.092086 0.170223 0.290000 -70.417252 -17.955483 84.422124 500.000000
-0.164519 0.260000 0.290000 -84.903848 -52.814117 117.271409 500.000000
-0.260000 0.260000 0.410000 57.252268 -41.192548 -63.194782 500.000000
0.260000 0.260000 0.410000 -173.220988 -56.360413 -68.203913 500.000000
-0.260000 0.221756 0.410000 41.618304 26.351257 -21.292631 500.000000
0.260000 0.090000 0.410000 -120.003022 59.017004 -87.185776 500.000000
-0.105293 0.260000 0.290000 30.941327 -10.199033 30.444269 500.000000
-0.260000 0.260000 0.290000 25.617688 -22.185052 38.440231 500.000000
-0.200286 0.260000 0.290000 -92.057186 -27.356550 14.662462 500.000000
-0.021392 0.090000 0.410000 -56.278434 183.348278 -54.969221 500.000000
-0.260000 0.260000 0.410000 107.218704 -53.479361 -25.995399 500.000000
-0.177018 0.253868 0.290000 -87.403693 32.773538 17.066783 500.000000
-0.260000 0.090000 0.290000 57.680625 32.707755 91.174830 500.000000
-0.172180 0.252522 0.290000 -86.436072 32.504477 17.912282 500.000000
-0.173457 0.253271 0.290000 -86.691312 32.654176 17.119081 500.000000
-0.260000 0.195241 0.410000 100.674134 21.048135 -12.425345 500.000000
-0.257763 0.090000 0.290000 -103.552657 40.930270 126.506767 500.000000
-0.025214 0.090000 0.410000 -57.042709 194.914611 -89.065050 500.000000
-0.260000 0.223827 0.410000 56.913869 26.765388 -19.964664 500.000000
-0.172029 0.243707 0.290000 -86.405849 30.741422 19.432479 500.000000
0.260000 0.208706 0.290000 -62.841369 23.741217 12.327341 500.000000
-0.171833 0.252735 0.290000 -86.366657 32.547070 17.055585 500.000000
0.260000 0.260000 0.290000 -150.202673 -24.729879 33.211676 500.000000
0.011166 0.260000 0.290000 54.233289 -53.091283 31.092641 500.000000
-0.260000 0.260000 0.410000 28.571114 -88.316563 -195.049605 500.000000
0.260000 0.260000 0.410000 -174.147983 -83.004005 -15.166785 500.000000
0.260000 0.090000 0.290000 -377.589794 50.630573 79.903824 500.000000
-0.035460 0.090000 0.410000 -59.091949 185.887859 -116.348386 500.000000
-0.260000 0.260000 0.410000 198.592854 -126.502653 -15.145724 500.000000
-0.256277 0.090000 0.290000 -103.255374 83.657640 132.771748 500.000000
-0.182994 0.260000 0.290000 -88.598718 -32.292584 14.935186 500.000000
-0.260000 0.152649 0.290000 52.034229 -21.470125 149.108690 500.000000
-0.260000 0.090000 0.290000 62.544180 209.775898 18.296295 500.000000
-0.260000 0.260000 0.290000 62.533959 -76.188990 14.912979 500.000000
0.068890 0.260000 0.290000 65.778013 -28.672116 31.164829 500.000000
-0.260000 0.090000 0.290000 45.859052 62.418962 19.060629 500.000000
-0.260000 0.260000 0.410000 58.918976 -23.438829 -365.613269 500.000000
-0.211646 0.244768 0.290000 -94.329142 30.953671 19.521271 500.000000
-0.260000 0.217781 0.410000 108.120434 25.556137 -19.221722 500.000000
0.260000 0.260000 0.290000 -159.713250 -39.746809 91.252960 500.000000
-0.225282 0.090000 0.290000 -97.056423 49.915848 88.336811 500.000000
0.260000 0.260000 0.410000 -33.211898 -40.631678 -68.984043 500.000000
0.260000 0.260000 0.290000 -56.146328 -22.764737 35.252297 500.000000
0.054569 0.090000 0.290000 39.560885 19.779909 109.421979 500.000000
-0.171853 0.252606 0.290000 -86.370522 32.521205 17.055798 500.000000
0.260000 0.260000 0.410000 -246.938846 -43.975771 -58.557457 500.000000
-0.260000 0.090000 0.290000 74.849403 54.559345 16.125351 500.000000
0.260000 0.256401 0.290000 -505.265861 33.280183 15.835973 500.000000
-0.127073 0.260000 0.290000 -77.414575 -161.689766 48.949828 500.000000
0.260000 0.260000 0.410000 -165.663686 -43.167475 -58.625192 500.000000
0.260000 0.260000 0.290000 -585.390814 -48.775543 68.932419 500.000000
