ply
format ascii 1.0
element vertex 240
property float x
property float y
property float z
property float vx
property float vy
property float vz
property float density
end_header
0.260000 0.090000 0.290000 -81.643127 171.897724 44.928741 500.000000
0.141657 0.090000 0.410000 80.331306 157.318224 -67.117639 500.000000
-0.260000 0.090000 0.290000 185.001516 23.867631 94.721292 500.000000
-0.260000 0.090000 0.290000 159.183816 124.908490 99.450541 500.000000
0.068641 0.090000 0.410000 65.728223 70.460977 -58.679293 500.000000
0.260000 0.090000 0.410000 -82.098556 161.571196 -70.266942 500.000000
0.260000 0.260000 0.410000 -100.343435 -62.554027 -27.821037 500.000000
-0.260000 0.090000 0.410000 52.991658 31.295212 -21.159831 500.000000
0.050508 0.090000 0.410000 62.101641 178.040370 -77.064126 500.000000
0.058656 0.090000 0.410000 63.731266 190.951350 -73.534797 500.000000
-0.260000 0.260000 0.290000 62.158940 -618.797904 92.403668 500.000000
0.260000 0.090000 0.410000 -27.366837 12.852659 -78.860790 500.000000
-0.078374 0.260000 0.337125 36.325191 -17.498346 -14.575032 500.000000
-0.260000 0.260000 0.410000 135.021408 -85.630726 -14.247388 500.000000
-0.260000 0.247014 0.410000 16.118642 31.402707 -13.796150 500.000000
-0.260000 0.260000 0.290000 105.382410 -139.967120 79.402842 500.000000
-0.260000 0.090000 0.290000 103.145816 781.941003 57.226883 500.000000
0.036029 0.090000 0.410000 -24.059177 30.310120 -15.428092 500.000000
0.260000 0.210107 0.362010 -111.618761 -9.978583 14.402056 500.000000
0.260000 0.090000 0.290000 -162.382311 146.390186 29.773973 500.000000
-0.260000 0.090000 0.290000 149.653639 171.986188 29.593457 500.000000
0.037918 0.090000 0.410000 59.583597 200.560290 -70.739201 500.000000
-0.260000 0.090000 0.410000 327.888431 88.058305 -335.809471 500.000000
0.260000 0.260000 0.290000 -64.608493 -497.323821 126.443629 500.000000
0.260000 0.260000 0.290000 -472.705759 -39.824705 21.187434 500.000000
0.260000 0.260000 0.290000 -278.062685 -175.170729 12.351233 500.000000
-0.260000 0.090000 0.290000 82.651482 281.360498 25.707770 500.000000
-0.260000 0.260000 0.410000 82.636269 -50.630659 -14.460277 500.000000
0.260000 0.090000 0.290000 -95.797201 54.205063 139.226282 500.000000
-0.260000 0.090000 0.410000 122.080502 34.905647 -18.842379 500.000000
-0.260000 0.090000 0.290000 158.527974 127.004664 94.596572 500.000000
0.204043 0.178473 0.358028 23.346358 17.694536 13.605662 500.000000
0.260000 0.260000 0.290000 -86.096017 -98.746553 26.374884 500.000000
-0.260000 0.154239 0.290000 149.215609 -21.152256 19.285809 500.000000
-0.260000 0.260000 0.290000 104.611650 -138.616990 74.128476 500.000000
0.260000 0.090000 0.410000 -96.259163 471.392857 -22.764233 500.000000
0.027995 0.260000 0.410000 57.598958 -56.056241 -24.577431 500.000000
-0.033194 0.260000 0.375715 -6.222972 -31.099813 17.143076 500.000000
0.260000 0.176736 0.410000 -87.468677 17.347184 -23.456243 500.000000
0.111125 0.260000 0.290000 74.224985 -14.148215 25.554560 500.000000
-0.260000 0.108048 0.410000 55.762300 -30.390451 -532.296316 500.000000
0.260000 0.260000 0.290000 -209.793854 -153.757120 12.739551 500.000000
0.260000 0.260000 0.395194 -57.578870 -31.701482 21.038894 500.000000
0.255259 0.260000 0.410000 103.051754 -75.971521 -15.976543 500.000000
-0.127923 0.227471 0.290000 4.511244 27.494117 159.005590 500.000000
-0.260000 0.090000 0.410000 86.411599 38.855823 -135.296638 500.000000
0.260000 0.260000 0.290000 -102.325430 -98.148427 28.792455 500.000000
0.255888 0.260000 0.409141 103.177663 -260.888892 23.828201 500.000000
-0.260000 0.090000 0.290000 154.846612 132.903654 99.270194 500.000000
-0.260000 0.260000 0.378899 74.568319 -50.522872 17.779856 500.000000
0.260000 0.090000 0.410000 -347.512151 33.455623 -19.436279 500.000000
-0.260000 0.260000 0.290000 109.961717 -146.633638 74.877417 500.000000
-0.260000 0.090000 0.290000 91.646065 645.070007 48.411904 500.000000
0.260000 0.090000 0.290000 -97.298845 83.424211 49.359189 500.000000
-0.260000 0.090000 0.290000 156.160768 151.261967 96.809064 500.000000
-0.260000 0.130196 0.290000 218.700942 -25.960820 214.076110 500.000000
0.260000 0.260000 0.290000 -107.185197 -97.163682 21.423164 500.000000
0.260000 0.260000 0.410000 -66.974246 -75.166053 -16.918750 500.000000
0.260000 0.090000 0.410000 -333.226110 33.046292 -14.248672 500.000000
-0.260000 0.090000 0.290000 158.691188 127.018329 96.379967 500.000000
-0.260000 0.090000 0.290000 158.744340 146.852205 94.734819 500.000000
-0.131238 0.260000 0.290000 -1.232667 -112.070928 158.552640 500.000000
-0.260000 0.090000 0.410000 162.751256 121.634997 -35.839446 500.000000
-0.260000 0.260000 0.410000 115.989697 -65.796395 -16.256486 500.000000
0.112327 0.090000 0.410000 74.465423 156.952937 -68.900582 500.000000
-0.260000 0.260000 0.290000 111.968390 -142.189813 64.166854 500.000000
0.260000 0.260000 0.410000 -399.252328 -78.210132 -16.381032 500.000000
-0.260000 0.260000 0.290000 103.427364 -138.417550 74.145266 500.000000
-0.260000 0.090000 0.410000 115.936337 170.814152 -16.364432 500.000000
-0.260000 0.090000 0.290000 158.083425 128.266447 91.441107 500.000000
-0.260000 0.090000 0.410000 269.198311 124.326251 -44.419691 500.000000
0.260000 0.090000 0.290000 -202.178250 20.943367 13.232406 500.000000
-0.260000 0.090000 0.290000 85.074344 263.888867 51.187582 500.000000
0.179360 0.198886 0.290000 87.871925 21.777156 125.830239 500.000000
0.260000 0.260000 0.410000 -54.806627 -189.780161 -13.974806 500.000000
0.260000 0.090000 0.290000 -96.130034 104.530442 204.101124 500.000000
-0.260000 0.260000 0.410000 28.326215 -24.623356 -13.613644 500.000000
-0.260000 0.260000 0.290000 105.084139 -138.375052 74.058294 500.000000
0.260000 0.260000 0.290000 -606.769115 -134.122227 22.917482 500.000000
0.260000 0.260000 0.410000 -55.957034 -57.835692 -30.527727 500.000000
0.260000 0.260000 0.410000 -54.778871 -253.599908 -13.902803 500.000000
0.260000 0.260000 0.410000 -54.801997 -211.156903 -13.965253 500.000000
-0.050900 0.090000 0.361193 41.820013 130.462117 14.238679 500.000000
0.260000 0.260000 0.410000 -54.833956 -147.477043 -14.042640 500.000000
0.074069 0.260000 0.395248 66.813784 -55.036956 21.049556 500.000000
0.260000 0.260000 0.399331 -53.078060 -62.249554 21.866131 500.000000
-0.260000 0.260000 0.290000 105.935833 -139.897432 78.145976 500.000000
0.260000 0.234650 0.410000 -122.227042 28.929965 -221.392417 500.000000
0.260000 0.260000 0.410000 -54.844406 -82.784504 -14.007479 500.000000
0.260000 0.090000 0.410000 -53.566804 630.247096 -16.030341 500.000000
0.260000 0.260000 0.410000 -80.054561 -59.987634 -14.013678 500.000000
-0.260000 0.260000 0.410000 88.118083 -56.832228 -26.671694 500.000000
0.140073 0.212386 0.316720 80.014634 24.477290 -18.655973 500.000000
0.077026 0.147881 0.410000 -36.594726 -22.423895 -145.587400 500.000000
0.260000 0.090000 0.290000 -212.126997 146.268960 29.485939 500.000000
-0.260000 0.260000 0.410000 113.886030 -60.265332 -30.134158 500.000000
0.260000 0.090000 0.290000 -196.469523 62.855010 45.408268 500.000000
-0.260000 0.260000 0.290000 100.222293 -140.025813 87.215501 500.000000
0.260000 0.090000 0.410000 -15.419932 27.385879 -12.017784 500.000000
0.260000 0.090000 0.410000 -23.570944 31.065714 -14.529385 500.000000
-0.260000 0.090000 0.290000 156.987775 128.124219 91.514930 500.000000
-0.260000 0.260000 0.290000 35.467063 -58.608818 69.172153 500.000000
0.260000 0.260000 0.290000 -269.561893 -196.743424 12.089255 500.000000
0.260000 0.260000 0.290000 -247.610730 -132.513696 13.350522 500.000000
0.260000 0.260000 0.314057 -21.005642 -53.441433 -19.188675 500.000000
0.260000 0.090000 0.410000 -58.709785 55.611085 -104.251056 500.000000
-0.260000 0.090000 0.290000 158.544597 126.892454 96.382798 500.000000
-0.260000 0.260000 0.410000 126.696773 -67.629745 -21.142448 500.000000
-0.260000 0.260000 0.410000 58.022260 -46.620535 -22.159859 500.000000
-0.260000 0.260000 0.410000 109.772393 -48.895161 -692.993647 500.000000
-0.260000 0.260000 0.410000 597.526783 -71.001336 -172.199895 500.000000
-0.260000 0.090000 0.410000 48.322741 31.714943 -17.323416 500.000000
-0.260000 0.260000 0.290000 107.006490 -138.344794 74.164074 500.000000
-0.260000 0.090000 0.410000 89.000914 132.382447 -47.329168 500.000000
0.260000 0.260000 0.410000 -52.529502 -235.416068 -15.885814 500.000000
-0.260000 0.260000 0.410000 74.477841 -48.949801 -14.967578 500.000000
-0.260000 0.090000 0.290000 88.977723 239.415459 40.375146 500.000000
-0.260000 0.090000 0.290000 158.585802 130.754285 96.408202 500.000000
-0.260000 0.090000 0.410000 90.491694 43.430665 -24.869752 500.000000
-0.260000 0.090000 0.290000 158.597010 129.342822 96.434775 500.000000
-0.260000 0.260000 0.290000 107.034730 -139.270488 74.126226 500.000000
0.260000 0.090000 0.290000 -84.247145 45.261843 240.365782 500.000000
0.260000 0.260000 0.410000 -101.153986 -55.637332 -21.029463 500.000000
-0.260000 0.260000 0.290000 104.434846 -138.518131 74.127807 500.000000
-0.260000 0.260000 0.410000 59.923323 -44.036754 -23.533154 500.000000
0.260000 0.260000 0.410000 -44.611610 -156.051839 -13.631214 500.000000
0.260000 0.090000 0.410000 -53.144365 53.723874 -54.661488 500.000000
0.080108 0.090000 0.410000 68.021674 157.485396 -76.992514 500.000000
0.260000 0.260000 0.290000 -252.447760 -243.732073 12.250040 500.000000
-0.260000 0.260000 0.410000 345.254438 -67.823468 -19.931185 500.000000
0.022081 0.260000 0.351305 -1.620568 -29.011592 12.261059 500.000000
-0.260000 0.260000 0.290000 106.986245 -139.905133 78.147062 500.000000
0.106657 0.090000 0.410000 73.331328 157.492345 -69.444002 500.000000
-0.260000 0.090000 0.290000 156.430995 18.104296 92.979772 500.000000
-0.260000 0.090000 0.410000 230.279258 33.342145 -17.446594 500.000000
-0.260000 0.260000 0.290000 101.406857 -279.926594 68.823221 500.000000
-0.062865 0.260000 0.410000 -64.573058 -62.309337 -48.679320 500.000000
0.260000 0.150679 0.403740 -71.645195 -21.864107 22.747907 500.000000
0.164849 0.090000 0.410000 84.969777 839.610583 -16.897061 500.000000
0.260000 0.260000 0.410000 -55.382003 -64.754040 -116.942109 500.000000
0.260000 0.260000 0.410000 -54.792156 -62.607875 -14.021651 500.000000
0.260000 0.260000 0.410000 -54.826033 -125.679329 -14.016950 500.000000
0.260000 0.260000 0.410000 -57.202281 -56.911397 -12.685234 500.000000
0.260000 0.260000 0.410000 -54.778237 -231.953370 -13.897759 500.000000
0.260000 0.090000 0.410000 -113.175711 51.643273 -62.025064 500.000000
0.260000 0.090000 0.290000 -83.213334 68.572604 46.882112 500.000000
0.260000 0.090000 0.410000 -77.115453 42.458366 -39.584693 500.000000
-0.260000 0.260000 0.290000 103.911194 -139.848951 78.152858 500.000000
0.240300 0.260000 0.402731 10.615131 -32.634334 22.546195 500.000000
0.260000 0.260000 0.410000 -55.064873 -53.792114 -14.471957 500.000000
0.033428 0.090000 0.410000 -20.534356 27.892235 -16.657172 500.000000
0.260000 0.090000 0.290000 -972.109952 31.422062 89.880408 500.000000
0.260000 0.260000 0.410000 -54.812485 -168.196979 -13.984893 500.000000
0.260000 0.260000 0.291463 -272.027908 -230.837886 -23.707378 500.000000
-0.000505 0.260000 0.410000 -52.101068 -99.448919 -997.890682 500.000000
0.260000 0.090000 0.307817 -43.392690 20.300494 -20.436529 500.000000
-0.260000 0.225206 0.410000 209.110914 27.041116 -22.730915 500.000000
-0.260000 0.260000 0.290000 105.486210 -140.790837 74.420193 500.000000
-0.260000 0.260000 0.290000 109.633640 -238.461257 72.022021 500.000000
0.260000 0.260000 0.410000 -58.904246 -129.482618 -25.983469 500.000000
0.087567 0.090000 0.410000 69.513443 160.412528 -67.383398 500.000000
-0.260000 0.090000 0.410000 233.655057 111.895676 -14.642892 500.000000
0.260000 0.260000 0.290000 -232.343215 -110.909935 12.607466 500.000000
-0.260000 0.260000 0.290000 99.393350 -146.001601 74.845703 500.000000
0.037710 0.090000 0.410000 59.541997 198.474234 -72.667103 500.000000
0.260000 0.090000 0.290000 -214.850768 21.648963 23.120558 500.000000
-0.260000 0.090000 0.290000 131.097430 601.952485 35.676343 500.000000
-0.260000 0.260000 0.290000 98.192239 -144.740771 74.815463 500.000000
-0.260000 0.090000 0.290000 158.585220 130.017476 96.432219 500.000000
0.113259 0.090000 0.410000 74.651797 155.617032 -68.837570 500.000000
0.236876 0.260000 0.350875 99.375292 -77.037800 12.174967 500.000000
-0.260000 0.090000 0.290000 133.613912 62.689335 34.434573 500.000000
0.125305 0.169664 0.303879 11.781225 15.932896 -21.224198 500.000000
-0.260000 0.090000 0.290000 158.295105 161.966990 90.595354 500.000000
-0.260000 0.090000 0.350671 54.657648 18.578960 -11.865764 500.000000
0.260000 0.260000 0.290000 -54.106809 -133.221231 13.771812 500.000000
0.260000 0.260000 0.410000 -54.865955 -104.549022 -14.749130 500.000000
-0.260000 0.260000 0.410000 68.901753 -48.256671 -34.427998 500.000000
-0.260000 0.090000 0.290000 158.518019 130.419418 96.434798 500.000000
0.260000 0.260000 0.410000 -55.044210 -226.628388 -21.860158 500.000000
-0.260000 0.090000 0.410000 137.949646 65.275419 -22.317256 500.000000
-0.260000 0.260000 0.290000 99.799034 -144.924198 74.814458 500.000000
-0.260000 0.090000 0.290000 113.953595 952.476369 54.902824 500.000000
-0.260000 0.090000 0.383868 43.993622 62.597017 0.760275 500.000000
0.260000 0.090000 0.290000 -965.468437 124.881068 116.880991 500.000000
0.121242 0.090000 0.410000 3.108281 8.816547 -14.485995 500.000000
-0.260000 0.260000 0.290000 105.614761 -138.462460 78.531683 500.000000
-0.260000 0.260000 0.290000 82.548300 -97.078434 25.566351 500.000000
-0.260000 0.090000 0.290000 119.435692 17.263728 125.252215 500.000000
0.096658 0.090000 0.410000 71.331658 155.868774 -69.618527 500.000000
-0.260000 0.090000 0.290000 165.233736 128.114660 90.556312 500.000000
0.260000 0.090000 0.290000 -423.135999 137.622528 20.848671 500.000000
-0.260000 0.090000 0.290000 158.482172 130.913410 96.425903 500.000000
0.260000 0.090000 0.290000 -300.666538 118.450128 53.226612 500.000000
0.260000 0.260000 0.290000 -77.463709 -74.553693 28.211257 500.000000
-0.260000 0.210156 0.369026 39.697726 0.249836 15.805120 500.000000
0.067753 0.090000 0.410000 65.550601 64.052302 -58.474873 500.000000
0.260000 0.195940 0.290000 -263.891889 21.188014 123.820047 500.000000
-0.260000 0.090000 0.290000 112.056448 94.183140 32.393807 500.000000
-0.260000 0.260000 0.290000 98.331343 -259.422973 70.921180 500.000000
-0.260000 0.090000 0.290000 163.074141 30.986618 89.864079 500.000000
0.260000 0.260000 0.410000 -57.071120 -245.438433 -12.395629 500.000000
-0.260000 0.090000 0.410000 49.893664 23.134484 -47.907984 500.000000
-0.260000 0.090000 0.290000 76.150819 60.682426 28.011941 500.000000
0.014441 0.260000 0.410000 54.888131 -60.282346 -32.484118 500.000000
-0.260000 0.260000 0.304091 67.021655 -85.938642 -21.181812 500.000000
-0.260000 0.260000 0.290000 105.438627 -139.841128 78.039804 500.000000
0.260000 0.090000 0.410000 -17.951588 40.631826 -37.710048 500.000000
0.066507 0.260000 0.410000 65.301369 -818.074449 -58.207354 500.000000
0.260000 0.260000 0.408501 -60.343118 -73.326120 23.700293 500.000000
-0.260000 0.090000 0.290000 140.885228 86.345757 29.211042 500.000000
0.260000 0.090000 0.290000 -340.568958 139.297006 41.689244 500.000000
0.260000 0.090000 0.290000 -510.629152 131.400410 59.893079 500.000000
0.260000 0.260000 0.410000 -84.433581 -56.392551 -23.537366 500.000000
0.260000 0.260000 0.290000 -217.284451 -217.972399 13.448687 500.000000
-0.260000 0.090000 0.290000 158.542851 124.887688 100.607392 500.000000
0.260000 0.090000 0.410000 -23.782925 125.202924 -17.660127 500.000000
-0.231633 0.223979 0.290000 -32.940977 -7.204190 9.566866 500.000000
0.260000 0.260000 0.290000 -258.054593 -245.076587 12.558586 500.000000
-0.260000 0.090000 0.410000 38.440598 17.149248 -83.340154 500.000000
-0.260000 0.260000 0.290000 121.868307 -137.778211 62.107622 500.000000
-0.260000 0.260000 0.290000 507.949981 -98.738894 70.803921 500.000000
0.260000 0.090000 0.290000 -104.109703 47.773014 311.913823 500.000000
-0.260000 0.260000 0.290000 107.373969 -253.464891 72.304561 500.000000
-0.260000 0.260000 0.290000 93.203450 -139.761404 121.008179 500.000000
-0.260000 0.090000 0.290000 148.582310 24.125779 92.187690 500.000000
-0.260000 0.260000 0.290000 70.258952 -22.874829 36.779899 500.000000
0.260000 0.090000 0.290000 -45.698026 22.021838 21.973902 500.000000
0.260000 0.090000 0.290000 -106.362920 144.624888 30.140046 500.000000
-0.260000 0.090000 0.410000 58.694669 128.865122 -542.030983 500.000000
0.151001 0.090000 0.410000 82.200182 158.137969 -67.300472 500.000000
0.259207 0.260000 0.410000 103.841370 -54.773877 -155.318830 500.000000
-0.260000 0.090000 0.410000 99.176938 129.827748 -922.183638 500.000000
0.260000 0.260000 0.410000 -61.089519 -70.053715 -18.763333 500.000000
-0.260000 0.260000 0.290000 101.296290 -294.126634 68.776819 500.000000
-0.260000 0.090000 0.290000 158.643497 125.432929 97.389916 500.000000
-0.138031 0.090000 0.410000 -79.606298 58.208307 -42.056380 500.000000
-0.260000 0.260000 0.290000 103.840296 -138.187609 73.411132 500.000000
-0.260000 0.260000 0.290000 101.762896 -278.971441 67.542563 500.000000
-0.260000 0.260000 0.410000 208.675407 -206.145268 -19.147528 500.000000
