ply
format ascii 1.0
element vertex 240
property float x
property float y
property float z
property float vx
property float vy
property float vz
property float density
end_header
0.260000 0.090000 0.290000 -68.089259 37.780987 25.021670 500.000000
-0.145534 0.090000 0.353701 -51.833193 31.738151 12.740273 500.000000
0.260000 0.090000 0.290000 -85.548968 37.765713 174.186045 500.000000
-0.260000 0.260000 0.290000 57.398200 -47.448148 159.559114 500.000000
0.260000 0.090000 0.341751 -75.491432 18.454664 -13.649852 500.000000
-0.260000 0.090000 0.410000 172.237797 242.627158 -72.669351 500.000000
-0.260000 0.184784 0.410000 24.847918 -15.043258 -21.399344 500.000000
0.217382 0.090000 0.410000 95.476432 32.407684 -24.149374 500.000000
0.260000 0.090000 0.410000 -72.750851 25.097227 -14.939940 500.000000
0.260000 0.260000 0.410000 -85.780109 -84.907533 -92.301108 500.000000
-0.260000 0.260000 0.410000 186.840708 -262.956335 -17.684626 500.000000
0.260000 0.260000 0.290000 -400.315313 -91.768979 40.066658 500.000000
-0.260000 0.260000 0.290000 148.367252 -129.465045 312.350366 500.000000
0.260000 0.090000 0.290000 -79.492526 35.441888 12.559895 500.000000
0.260000 0.260000 0.290000 -118.091582 -87.407127 191.383698 500.000000
-0.015833 0.260000 0.290000 -2.356303 -39.577518 38.133701 500.000000
0.260000 0.260000 0.290000 -195.356092 -244.339177 224.743831 500.000000
0.260000 0.090000 0.295640 -139.986262 20.131246 -22.871933 500.000000
-0.260000 0.260000 0.290000 59.660314 -45.069140 144.162715 500.000000
-0.260000 0.260000 0.290000 53.265346 -42.325115 140.254868 500.000000
-0.061241 0.122445 0.290000 -26.916582 -8.496659 40.097750 500.000000
-0.260000 0.138953 0.290000 67.430436 -12.831646 13.357858 500.000000
0.208489 0.090000 0.410000 93.697791 29.647010 -121.604972 500.000000
-0.260000 0.126613 0.360121 59.434606 -26.677349 14.024290 500.000000
-0.260000 0.260000 0.410000 212.467328 -108.133949 -122.253150 500.000000
-0.182909 0.215600 0.309213 -28.044790 25.119978 -20.157312 500.000000
0.260000 0.090000 0.290000 -75.054762 40.578359 28.800184 500.000000
0.260000 0.260000 0.343973 -62.504140 -91.827282 10.794551 500.000000
0.260000 0.090000 0.410000 -64.325428 33.112150 -121.322934 500.000000
-0.260000 0.090000 0.290000 56.805392 147.358062 21.886654 500.000000
-0.260000 0.090000 0.307470 100.066725 111.896569 -20.505912 500.000000
0.248756 0.090000 0.410000 101.751252 24.698650 -82.955995 500.000000
0.260000 0.260000 0.410000 -225.586890 -54.022058 -504.174071 500.000000
-0.260000 0.260000 0.290000 92.642729 -63.213630 138.840537 500.000000
-0.245023 0.260000 0.290000 -101.004622 -124.546445 135.398841 500.000000
0.260000 0.090000 0.410000 -211.312738 30.007990 -75.169355 500.000000
-0.260000 0.260000 0.410000 72.317264 -47.943757 -1000.368438 500.000000
-0.011914 0.186766 0.410000 -19.269098 -14.646842 -8.202951 500.000000
-0.260000 0.090000 0.290000 94.188972 92.497731 43.553661 500.000000
0.260000 0.090000 0.410000 -54.381000 32.508175 -129.173918 500.000000
-0.075518 0.260000 0.290000 -67.103602 -178.800967 246.843051 500.000000
-0.260000 0.228381 0.344428 100.030221 27.676100 -13.114364 500.000000
-0.260000 0.260000 0.410000 175.243745 -186.411495 -103.551906 500.000000
0.260000 0.090000 0.410000 -176.268476 159.569207 -125.443118 500.000000
0.260000 0.090000 0.290000 -649.537421 93.021400 15.387488 500.000000
-0.260000 0.260000 0.290000 70.616426 -321.510003 14.171349 500.000000
-0.260000 0.090000 0.410000 254.351928 30.052857 -105.063524 500.000000
-0.076969 0.090000 0.410000 36.606223 72.258400 -17.440856 500.000000
-0.260000 0.260000 0.290000 55.318012 -549.295907 17.388955 500.000000
0.260000 0.090000 0.290000 -73.122543 546.734912 60.288643 500.000000
0.260000 0.090000 0.410000 -67.320642 31.879710 -13.138181 500.000000
0.260000 0.260000 0.290000 -222.856494 -122.561616 15.357045 500.000000
-0.260000 0.090000 0.410000 99.225792 33.917601 -63.641163 500.000000
-0.260000 0.090000 0.290000 160.860085 136.085597 49.870349 500.000000
-0.260000 0.260000 0.410000 405.702046 -164.394681 -108.097169 500.000000
-0.159075 0.090000 0.290000 -6.687386 237.194404 20.627530 500.000000
-0.260000 0.090000 0.290000 88.584021 249.141553 191.934602 500.000000
0.260000 0.260000 0.410000 -85.695019 -83.412409 -93.207920 500.000000
-0.260000 0.090000 0.290000 86.300800 93.276123 19.036825 500.000000
0.260000 0.090000 0.290000 -90.478720 33.907512 337.616774 500.000000
0.260000 0.090000 0.410000 -120.446821 105.479044 -304.064460 500.000000
-0.014887 0.090000 0.410000 -54.977410 35.263766 -69.081415 500.000000
0.260000 0.260000 0.410000 -32.675271 -51.074430 -29.727778 500.000000
0.105176 0.260000 0.392879 73.035299 -79.493934 20.575899 500.000000
-0.260000 0.090000 0.410000 273.011052 148.163254 -69.854328 500.000000
-0.260000 0.260000 0.290000 64.123090 -48.062495 151.417384 500.000000
0.260000 0.128402 0.410000 -466.642045 -26.319560 -27.656287 500.000000
0.260000 0.260000 0.410000 -89.980574 -81.438591 -91.986226 500.000000
0.260000 0.260000 0.290000 -122.409033 -97.134574 110.071778 500.000000
0.260000 0.090000 0.290000 -116.700669 17.610222 16.268870 500.000000
-0.019013 0.260000 0.290000 48.197367 -55.464554 19.295235 500.000000
-0.259504 0.260000 0.290000 -103.900715 -49.341067 138.571523 500.000000
0.260000 0.260000 0.410000 -86.127816 -134.154709 -93.344272 500.000000
0.260000 0.090000 0.290000 -98.114227 93.055025 25.070552 500.000000
-0.260000 0.090000 0.290000 154.267668 114.606181 137.125681 500.000000
-0.159781 0.260000 0.290000 -83.956163 -46.622227 141.325618 500.000000
-0.260000 0.260000 0.290000 118.759120 -239.699815 160.863924 500.000000
0.088255 0.090000 0.410000 69.651060 22.400684 -266.833534 500.000000
-0.260000 0.260000 0.290000 102.709659 -244.033294 235.427588 500.000000
0.260000 0.090000 0.290000 -84.985452 39.693891 90.251744 500.000000
0.260000 0.260000 0.290000 -129.980365 -254.497024 59.504766 500.000000
0.260000 0.260000 0.410000 -67.533864 -13.333912 -16.100416 500.000000
0.105385 0.090000 0.405385 14.892336 8.694305 7.800488 500.000000
-0.260000 0.090000 0.378941 69.642641 29.438615 17.788177 500.000000
0.260000 0.260000 0.410000 -180.081271 -70.027609 -118.055180 500.000000
0.260000 0.090000 0.410000 -73.981572 226.216769 -138.379148 500.000000
-0.236267 0.260000 0.290000 -99.253417 -50.071529 160.163585 500.000000
-0.260000 0.260000 0.410000 114.883382 -45.751751 -941.401601 500.000000
0.260000 0.090000 0.290000 -87.172683 59.899978 173.621954 500.000000
-0.260000 0.153679 0.410000 272.789078 -21.264109 -65.230104 500.000000
0.260000 0.097263 0.410000 -122.002927 -32.547365 -223.215570 500.000000
0.018900 0.260000 0.410000 39.171524 -35.807580 -17.927570 500.000000
-0.260000 0.260000 0.290000 74.529823 -96.426583 14.580763 500.000000
-0.260000 0.260000 0.290000 18.959799 -102.150638 62.206549 500.000000
-0.150391 0.260000 0.388364 -47.110974 -31.379195 19.672704 500.000000
0.240542 0.240098 0.290000 26.823445 9.195846 15.920543 500.000000
-0.260000 0.260000 0.410000 155.100060 -108.456754 -118.673531 500.000000
-0.260000 0.260000 0.410000 67.153361 -32.794578 -817.018670 500.000000
-0.260000 0.093133 0.290000 59.034577 -23.019557 18.132768 500.000000
-0.260000 0.260000 0.290000 142.398653 -53.174444 163.658704 500.000000
0.243335 0.090000 0.290000 100.666965 268.151894 47.217486 500.000000
-0.260000 0.090000 0.410000 91.347316 23.500907 -63.991189 500.000000
-0.260000 0.090000 0.290000 146.981210 95.666385 14.673745 500.000000
0.260000 0.090000 0.290000 -84.302190 36.519962 216.233060 500.000000
-0.197139 0.260000 0.305606 -57.307272 -47.976984 -20.878873 500.000000
-0.260000 0.260000 0.290000 89.319132 -178.430743 203.202370 500.000000
-0.260000 0.090000 0.410000 21.031290 17.502647 -19.659872 500.000000
0.260000 0.260000 0.290000 -324.741275 -89.172243 40.173621 500.000000
-0.260000 0.130163 0.410000 244.103037 -25.967358 -21.805378 500.000000
0.260000 0.090000 0.290000 -88.456030 34.563542 331.654219 500.000000
0.260000 0.090000 0.410000 -84.242239 32.234919 -121.576227 500.000000
0.260000 0.260000 0.290000 -186.776203 -104.764139 112.954902 500.000000
0.231285 0.162425 0.410000 14.435170 14.485051 -10.205885 500.000000
0.086081 0.260000 0.290000 -34.783803 -37.177896 153.086004 500.000000
0.260000 0.224536 0.290000 -47.678370 26.907219 57.218304 500.000000
0.260000 0.260000 0.290000 -78.059729 -90.041136 93.937023 500.000000
-0.260000 0.260000 0.290000 69.803299 -47.130149 157.093579 500.000000
0.260000 0.090000 0.410000 -86.193449 144.290571 -21.588056 500.000000
0.014887 0.260000 0.290000 -49.022686 -34.872757 163.623305 500.000000
0.260000 0.090000 0.410000 -55.429771 32.347830 -121.127036 500.000000
0.260000 0.090000 0.410000 -55.105429 35.348942 -36.235964 500.000000
-0.260000 0.090000 0.410000 84.407172 25.791063 -63.795956 500.000000
-0.260000 0.260000 0.290000 56.840235 -247.221682 13.643994 500.000000
0.260000 0.090000 0.410000 -55.922497 37.352087 -121.026559 500.000000
0.260000 0.233567 0.290000 -18.074310 28.713372 90.860522 500.000000
0.260000 0.090000 0.290000 -119.020669 13.607403 14.339135 500.000000
-0.260000 0.173389 0.290000 29.352563 -17.322244 27.825777 500.000000
0.260000 0.260000 0.290000 -171.536825 -164.292265 84.654202 500.000000
0.073655 0.219279 0.317359 17.597734 10.573630 -8.815917 500.000000
-0.260000 0.260000 0.410000 73.672657 -197.513492 -103.679863 500.000000
-0.260000 0.172564 0.290000 101.334872 -17.487144 50.750264 500.000000
0.099919 0.260000 0.410000 -32.016191 -124.072399 -39.072530 500.000000
0.260000 0.260000 0.410000 -86.313176 -83.845670 -92.038017 500.000000
0.260000 0.260000 0.410000 -87.352635 -82.443709 -84.570370 500.000000
-0.260000 0.260000 0.290000 57.642684 -46.933186 144.953449 500.000000
0.260000 0.090000 0.410000 -167.247614 18.185847 -58.646757 500.000000
0.260000 0.260000 0.290000 -216.069373 -197.604586 150.345349 500.000000
0.237133 0.090000 0.290000 99.426546 20.075807 15.044951 500.000000
0.260000 0.090000 0.290000 -95.763431 31.156827 240.296252 500.000000
-0.037701 0.090000 0.290000 -59.540270 196.251002 24.943169 500.000000
0.260000 0.260000 0.290000 -150.844000 -70.647120 14.663828 500.000000
-0.126342 0.260000 0.410000 -77.268353 -113.467585 -119.310220 500.000000
0.097253 0.260000 0.290000 -32.549456 -37.900213 165.725334 500.000000
-0.260000 0.260000 0.410000 110.897493 -47.897975 -1082.545640 500.000000
-0.260000 0.260000 0.290000 731.694697 -147.103418 162.410964 500.000000
-0.260000 0.090000 0.410000 57.829156 30.192484 -72.065833 500.000000
0.260000 0.090000 0.290000 -70.756338 482.912276 63.264191 500.000000
0.260000 0.260000 0.410000 -93.731733 -78.260292 -84.777155 500.000000
-0.068165 0.090000 0.290000 -65.633091 607.507091 46.816012 500.000000
-0.260000 0.260000 0.290000 137.724571 -149.107862 356.386708 500.000000
0.260000 0.260000 0.410000 -122.976861 -86.160952 -84.819455 500.000000
0.172966 0.090000 0.410000 86.593226 346.657995 -25.886783 500.000000
0.070071 0.090000 0.290000 66.014121 22.230878 146.245372 500.000000
-0.198694 0.260000 0.410000 -91.738855 -149.506780 -103.282670 500.000000
0.260000 0.090000 0.290000 -169.982564 36.815802 288.182029 500.000000
0.260000 0.090000 0.410000 -74.165463 32.426766 -121.536862 500.000000
-0.260000 0.260000 0.290000 57.496197 -45.260871 145.303474 500.000000
-0.260000 0.260000 0.290000 58.209659 -177.038038 14.568043 500.000000
-0.260000 0.090000 0.410000 171.686689 420.939409 -119.221246 500.000000
-0.260000 0.237513 0.290000 153.432169 29.502510 41.291338 500.000000
-0.260000 0.090000 0.295052 68.975835 318.492987 -22.989647 500.000000
0.260000 0.260000 0.290000 -92.748459 -81.465199 91.889411 500.000000
-0.260000 0.090000 0.410000 121.092140 20.610557 -144.153070 500.000000
-0.260000 0.090000 0.290000 676.402194 42.812439 31.837669 500.000000
0.260000 0.204367 0.389433 -19.933561 -11.126647 19.886575 500.000000
-0.053881 0.260000 0.410000 -7.702708 -17.857951 -17.932692 500.000000
0.260000 0.260000 0.290000 -101.869754 -197.798013 50.046932 500.000000
-0.260000 0.090000 0.290000 207.216740 109.820536 180.027821 500.000000
-0.260000 0.090000 0.290000 210.675364 93.958972 142.771009 500.000000
0.215583 0.090000 0.410000 95.116598 47.925339 -16.326201 500.000000
0.069964 0.260000 0.410000 -38.007250 -104.752492 -25.251275 500.000000
-0.236088 0.090000 0.410000 -49.576211 102.875074 -75.230401 500.000000
-0.260000 0.090000 0.290000 84.297421 206.182333 234.842828 500.000000
0.260000 0.090000 0.290000 -62.928101 29.160350 15.607165 500.000000
-0.212584 0.090000 0.290000 -94.516751 109.593929 52.985947 500.000000
-0.066489 0.204848 0.410000 20.062473 22.969598 -23.123708 500.000000
0.260000 0.090000 0.309023 -174.062761 100.750097 -20.195303 500.000000
-0.260000 0.260000 0.290000 86.196832 -43.893403 143.254852 500.000000
0.240374 0.090000 0.410000 100.074722 382.983414 -69.219454 500.000000
-0.260000 0.128375 0.410000 64.619495 -26.324944 -71.793913 500.000000
-0.260000 0.090000 0.290000 257.786162 153.026829 109.075933 500.000000
-0.260000 0.224332 0.290000 29.982550 26.866415 64.417059 500.000000
-0.260000 0.260000 0.290000 248.636119 -26.127716 31.518242 500.000000
-0.260000 0.260000 0.410000 117.464382 -68.335980 -200.891121 500.000000
-0.260000 0.090000 0.290000 99.304955 143.702037 43.556597 500.000000
0.260000 0.090000 0.317023 -149.739688 24.040636 -18.595416 500.000000
-0.043258 0.260000 0.410000 -60.651507 -115.763236 -118.084051 500.000000
0.260000 0.090000 0.410000 -126.215083 195.184042 -79.546962 500.000000
0.260000 0.090000 0.410000 -125.014367 72.513163 -126.695554 500.000000
0.260000 0.260000 0.410000 -116.890874 -21.517531 -71.669265 500.000000
-0.260000 0.090000 0.410000 250.034283 176.192058 -75.020590 500.000000
-0.260000 0.090000 0.297854 108.301702 111.652695 -22.429228 500.000000
-0.260000 0.260000 0.290000 69.707771 -242.257294 15.352230 500.000000
0.086474 0.260000 0.410000 -34.705165 -115.206421 -14.660085 500.000000
-0.260000 0.260000 0.290000 58.879749 -45.269201 144.225231 500.000000
0.260000 0.260000 0.410000 -60.050993 -105.420610 -23.034133 500.000000
0.249837 0.090000 0.410000 101.967430 32.340270 -122.420688 500.000000
0.260000 0.090000 0.290000 -158.614510 95.467216 244.761246 500.000000
-0.248741 0.260000 0.290000 -101.748212 -59.784425 138.202608 500.000000
0.260000 0.090000 0.290000 -64.866533 42.134723 24.472514 500.000000
0.260000 0.090000 0.410000 -177.956837 41.705085 -99.188447 500.000000
0.260000 0.260000 0.410000 -86.372650 -78.875801 -93.849374 500.000000
0.260000 0.260000 0.290000 -89.175953 -189.114160 139.101200 500.000000
0.260000 0.090000 0.410000 -145.625976 63.259509 -181.810642 500.000000
-0.260000 0.260000 0.290000 64.206153 -54.961683 172.543228 500.000000
-0.260000 0.090000 0.410000 132.757699 145.442194 -110.327861 500.000000
-0.260000 0.260000 0.290000 30.329641 -24.345008 22.448133 500.000000
-0.223853 0.090000 0.410000 -96.770521 260.922483 -28.532603 500.000000
-0.219448 0.260000 0.290000 -95.889553 -253.734771 142.585862 500.000000
0.260000 0.260000 0.290000 -89.244681 -90.541803 30.205951 500.000000
-0.260000 0.090000 0.290000 195.691714 111.119352 148.328265 500.000000
-0.260000 0.090000 0.410000 65.779073 30.260419 -64.519573 500.000000
-0.260000 0.137343 0.410000 61.156292 -24.531340 -64.254967 500.000000
-0.260000 0.090000 0.290000 55.693411 120.542744 24.379973 500.000000
-0.260000 0.155255 0.409305 64.312451 -20.948912 23.861048 500.000000
-0.260000 0.090000 0.410000 60.045436 177.544555 -121.241343 500.000000
0.260000 0.260000 0.290000 -99.503718 -94.527828 76.287380 500.000000
0.260000 0.090000 0.290000 -96.556405 54.454896 131.401309 500.000000
-0.260000 0.260000 0.410000 193.461717 -104.882738 -117.849424 500.000000
0.260000 0.090000 0.290000 -184.633751 166.344860 47.156882 500.000000
-0.035346 0.168144 0.410000 -4.472397 4.249832 -18.837094 500.000000
0.260000 0.260000 0.410000 -86.980029 -100.988743 -84.748026 500.000000
0.260000 0.090000 0.290000 -84.754704 39.686344 132.586413 500.000000
-0.260000 0.260000 0.410000 47.402579 -137.701187 -64.224781 500.000000
0.260000 0.260000 0.410000 -84.896327 -82.586249 -84.843479 500.000000
-0.260000 0.090000 0.290000 89.309346 109.567642 50.283595 500.000000
0.260000 0.260000 0.290000 -148.823333 -151.613970 127.372384 500.000000
-0.260000 0.260000 0.410000 30.965381 -72.685258 -110.201943 500.000000
-0.260000 0.090000 0.410000 66.966866 32.135911 -71.768457 500.000000
-0.260000 0.090000 0.410000 96.401200 153.164961 -105.736373 500.000000
-0.260000 0.139012 0.323452 254.080697 -24.197578 -17.309623 500.000000
0.046123 0.090000 0.410000 61.224633 25.517808 -16.209287 500.000000
-0.227301 0.219682 0.410000 -68.153802 25.936315 -16.989736 500.000000
-0.260000 0.260000 0.290000 169.722197 -93.218692 312.354795 500.000000
-0.260000 0.260000 0.290000 73.504245 -32.376920 14.142435 500.000000
0.260000 0.260000 0.410000 -88.516752 -81.604710 -84.476910 500.000000
-0.260000 0.260000 0.290000 72.513345 -147.790141 366.078526 500.000000
-0.260000 0.090000 0.410000 121.357485 40.882808 -66.631038 500.000000
-0.260000 0.260000 0.290000 63.253527 -90.767159 14.150555 500.000000
-0.260000 0.090000 0.410000 120.130530 33.263526 -68.980803 500.000000
