ply
format ascii 1.0
element vertex 240
property float x
property float y
property float z
property float vx
property float vy
property float vz
property float density
end_header
0.260000 0.090000 0.290000 -125.367041 112.739407 19.578360 500.000000
-0.154598 0.260000 0.290000 -9.180636 -75.620656 44.204366 500.000000
-0.156438 0.260000 0.410000 -9.548579 -75.620659 -44.506158 500.000000
0.260000 0.090000 0.410000 -125.626068 112.739408 -19.750828 500.000000
0.260000 0.090000 0.290000 -34.597255 20.871162 22.813537 500.000000
-0.117339 0.090000 0.290000 -75.467880 121.307710 43.015716 500.000000
-0.117877 0.090000 0.410000 -75.575425 121.307698 -43.535985 500.000000
0.260000 0.090000 0.410000 -34.896357 20.871168 -22.962916 500.000000
-0.260000 0.175000 0.290000 52.815829 0.000000 78.300341 500.000000
-0.260000 0.175000 0.290000 54.384570 0.000000 95.102444 500.000000
-0.260000 0.175000 0.410000 54.476558 0.000000 -96.162447 500.000000
-0.260000 0.175000 0.410000 52.907818 0.000000 -79.360348 500.000000
0.260000 0.260000 0.290000 -34.597255 -20.871162 22.813537 500.000000
-0.117339 0.260000 0.290000 -75.467880 -121.307710 43.015716 500.000000
-0.117877 0.260000 0.410000 -75.575425 -121.307698 -43.535985 500.000000
0.260000 0.260000 0.410000 -34.896357 -20.871168 -22.962916 500.000000
0.260000 0.260000 0.290000 -125.367041 -112.739407 19.578360 500.000000
-0.154598 0.090000 0.290000 -9.180636 75.620656 44.204366 500.000000
-0.156438 0.090000 0.410000 -9.548579 75.620659 -44.506158 500.000000
0.260000 0.260000 0.410000 -125.626068 -112.739408 -19.750828 500.000000
-0.040636 0.260000 0.290000 -60.127196 -108.025731 30.922173 500.000000
-0.137248 0.260000 0.290000 -52.041623 -70.580096 39.010082 500.000000
-0.139651 0.260000 0.410000 -52.522193 -70.580099 -39.267334 500.000000
-0.041174 0.260000 0.410000 -60.234744 -108.025721 -31.442444 500.000000
0.260000 0.090000 0.290000 -69.312379 123.981970 17.268540 500.000000
0.260000 0.090000 0.290000 -116.858524 118.537450 28.868543 500.000000
0.260000 0.090000 0.410000 -117.153985 118.537450 -28.947336 500.000000
0.260000 0.090000 0.410000 -69.014285 123.981976 -17.247321 500.000000
-0.201290 0.175000 0.290000 -92.258047 -0.000000 102.518327 500.000000
0.260000 0.175000 0.290000 -99.592715 0.000000 53.627721 500.000000
0.260000 0.175000 0.410000 -100.318746 -0.000000 -53.845140 500.000000
-0.200771 0.175000 0.410000 -92.154201 -0.000000 -100.576984 500.000000
0.260000 0.260000 0.290000 -69.312379 -123.981970 17.268540 500.000000
0.260000 0.260000 0.290000 -116.858524 -118.537450 28.868543 500.000000
0.260000 0.260000 0.410000 -117.153985 -118.537450 -28.947336 500.000000
0.260000 0.260000 0.410000 -69.014285 -123.981976 -17.247321 500.000000
-0.040636 0.090000 0.290000 -60.127196 108.025731 30.922173 500.000000
-0.137248 0.090000 0.290000 -52.041623 70.580096 39.010082 500.000000
-0.139651 0.090000 0.410000 -52.522193 70.580099 -39.267334 500.000000
-0.041174 0.090000 0.410000 -60.234744 108.025721 -31.442444 500.000000
-0.260000 0.260000 0.290000 11.056053 -106.993571 12.104972 500.000000
0.260000 0.260000 0.290000 -50.556635 -148.667031 21.363371 500.000000
0.260000 0.260000 0.410000 -50.603524 -148.667028 -21.387768 500.000000
-0.260000 0.260000 0.410000 11.009900 -106.993572 -12.062136 500.000000
-0.260000 0.090000 0.290000 22.787037 123.350298 83.411346 500.000000
-0.026247 0.090000 0.290000 4.750286 118.382835 17.997791 500.000000
-0.025277 0.090000 0.410000 4.944382 118.382835 -18.042314 500.000000
-0.260000 0.090000 0.410000 23.268329 123.350311 -82.422317 500.000000
-0.260000 0.175000 0.290000 94.751026 -0.000000 44.021014 500.000000
-0.260000 0.175000 0.290000 41.498779 0.000000 19.817678 500.000000
-0.260000 0.175000 0.410000 41.505340 -0.000000 -19.792880 500.000000
-0.260000 0.175000 0.410000 94.884855 -0.000000 -43.932707 500.000000
-0.260000 0.260000 0.290000 22.787037 -123.350298 83.411346 500.000000
-0.026247 0.260000 0.290000 4.750286 -118.382835 17.997791 500.000000
-0.025277 0.260000 0.410000 4.944382 -118.382835 -18.042314 500.000000
-0.260000 0.260000 0.410000 23.268329 -123.350311 -82.422317 500.000000
-0.260000 0.090000 0.290000 11.056053 106.993571 12.104972 500.000000
0.260000 0.090000 0.290000 -50.556635 148.667031 21.363371 500.000000
0.260000 0.090000 0.410000 -50.603524 148.667028 -21.387768 500.000000
-0.260000 0.090000 0.410000 11.009900 106.993572 -12.062136 500.000000
-0.074805 0.260000 0.290000 -66.961092 -145.019985 30.539651 500.000000
0.260000 0.260000 0.290000 -145.415559 -62.815980 35.126069 500.000000
0.260000 0.260000 0.410000 -145.612270 -62.815987 -35.586430 500.000000
-0.075343 0.260000 0.410000 -67.068638 -145.019969 -31.059922 500.000000
-0.257628 0.110212 0.290000 -103.525629 -29.957548 116.330269 500.000000
0.087712 0.090000 0.290000 69.542397 115.120310 35.001615 500.000000
0.088250 0.090000 0.410000 69.649943 115.120299 -35.521886 500.000000
-0.257628 0.110213 0.410000 -103.525644 -29.957481 -114.296440 500.000000
0.197425 0.175000 0.290000 51.949133 0.000000 11.831562 500.000000
-0.187569 0.175000 0.290000 -43.002304 0.000000 19.695313 500.000000
-0.186011 0.175000 0.410000 -42.690733 -0.000000 -19.716425 500.000000
0.195867 0.175000 0.410000 51.637563 -0.000000 -11.687866 500.000000
-0.257628 0.239788 0.290000 -103.525629 29.957548 116.330269 500.000000
0.087712 0.260000 0.290000 69.542397 -115.120310 35.001615 500.000000
0.088250 0.260000 0.410000 69.649943 -115.120299 -35.521886 500.000000
-0.257628 0.239787 0.410000 -103.525644 29.957481 -114.296440 500.000000
-0.074805 0.090000 0.290000 -66.961092 145.019985 30.539651 500.000000
0.260000 0.090000 0.290000 -145.415559 62.815980 35.126069 500.000000
0.260000 0.090000 0.410000 -145.612270 62.815987 -35.586430 500.000000
-0.075343 0.090000 0.410000 -67.068638 145.019969 -31.059922 500.000000
-0.163706 0.260000 0.290000 -84.741261 -35.322548 30.538877 500.000000
-0.013604 0.260000 0.290000 -54.720760 -39.440594 38.284470 500.000000
-0.014142 0.260000 0.410000 -54.828309 -39.440595 -38.804740 500.000000
-0.164244 0.260000 0.410000 -84.848805 -35.322549 -31.059148 500.000000
-0.156258 0.090000 0.290000 -83.251607 45.441792 29.205839 500.000000
-0.156377 0.090000 0.290000 -83.275309 41.619316 35.001402 500.000000
-0.156914 0.090000 0.410000 -83.382852 41.619317 -35.521672 500.000000
-0.156258 0.090000 0.410000 -83.251613 45.441772 -27.170202 500.000000
-0.053937 0.175000 0.290000 -62.787467 -0.000000 147.458903 500.000000
-0.100424 0.175000 0.290000 -72.084740 0.000000 85.871699 500.000000
-0.101344 0.175000 0.410000 -72.268726 0.000000 -86.931704 500.000000
-0.053043 0.175000 0.410000 -62.608593 0.000001 -145.987732 500.000000
-0.156258 0.260000 0.290000 -83.251607 -45.441792 29.205839 500.000000
-0.156377 0.260000 0.290000 -83.275309 -41.619316 35.001402 500.000000
-0.156914 0.260000 0.410000 -83.382852 -41.619317 -35.521672 500.000000
-0.156258 0.260000 0.410000 -83.251613 -45.441772 -27.170202 500.000000
-0.163706 0.090000 0.290000 -84.741261 35.322548 30.538877 500.000000
-0.013604 0.090000 0.290000 -54.720760 39.440594 38.284470 500.000000
-0.014142 0.090000 0.410000 -54.828309 39.440595 -38.804740 500.000000
-0.164244 0.090000 0.410000 -84.848805 35.322549 -31.059148 500.000000
-0.260000 0.260000 0.290000 140.720103 -101.339928 29.438217 500.000000
-0.260000 0.260000 0.290000 67.296223 -105.551846 25.613315 500.000000
-0.260000 0.260000 0.410000 67.571170 -105.551847 -25.822773 500.000000
-0.260000 0.260000 0.410000 140.756054 -101.339931 -29.965262 500.000000
0.172642 0.090000 0.290000 34.615128 118.941327 83.037133 500.000000
0.133402 0.090000 0.290000 26.767103 115.120036 33.954854 500.000000
0.133497 0.090000 0.410000 26.786152 115.120036 -34.483753 500.000000
0.172490 0.090000 0.410000 34.584774 118.941337 -80.807092 500.000000
0.075127 0.175000 0.290000 67.025447 -0.000002 60.065613 500.000000
0.121607 0.175000 0.290000 76.321448 0.000000 85.871666 500.000000
0.122527 0.175000 0.410000 76.505433 0.000000 -86.931671 500.000000
0.074233 0.175000 0.410000 66.846569 0.000004 -58.594400 500.000000
0.172642 0.260000 0.290000 34.615128 -118.941327 83.037133 500.000000
0.133402 0.260000 0.290000 26.767103 -115.120036 33.954854 500.000000
0.133497 0.260000 0.410000 26.786152 -115.120036 -34.483753 500.000000
0.172490 0.260000 0.410000 34.584774 -118.941337 -80.807092 500.000000
-0.260000 0.090000 0.290000 140.720103 101.339928 29.438217 500.000000
-0.260000 0.090000 0.290000 67.296223 105.551846 25.613315 500.000000
-0.260000 0.090000 0.410000 67.571170 105.551847 -25.822773 500.000000
-0.260000 0.090000 0.410000 140.756054 101.339931 -29.965262 500.000000
0.260000 0.260000 0.290000 -140.720103 -101.339928 29.438217 500.000000
0.260000 0.260000 0.290000 -67.296223 -105.551846 25.613315 500.000000
0.260000 0.260000 0.410000 -67.571170 -105.551847 -25.822773 500.000000
0.260000 0.260000 0.410000 -140.756054 -101.339931 -29.965262 500.000000
-0.172642 0.090000 0.290000 -34.615128 118.941327 83.037133 500.000000
-0.133402 0.090000 0.290000 -26.767103 115.120036 33.954854 500.000000
-0.133497 0.090000 0.410000 -26.786152 115.120036 -34.483753 500.000000
-0.172490 0.090000 0.410000 -34.584774 118.941337 -80.807092 500.000000
-0.075127 0.175000 0.290000 -67.025447 0.000000 60.065613 500.000000
-0.121607 0.175000 0.290000 -76.321448 0.000000 85.871666 500.000000
-0.122527 0.175000 0.410000 -76.505433 0.000000 -86.931671 500.000000
-0.074233 0.175000 0.410000 -66.846569 -0.000001 -58.594400 500.000000
-0.172642 0.260000 0.290000 -34.615128 -118.941327 83.037133 500.000000
-0.133402 0.260000 0.290000 -26.767103 -115.120036 33.954854 500.000000
-0.133497 0.260000 0.410000 -26.786152 -115.120036 -34.483753 500.000000
-0.172490 0.260000 0.410000 -34.584774 -118.941337 -80.807092 500.000000
0.260000 0.090000 0.290000 -140.720103 101.339928 29.438217 500.000000
0.260000 0.090000 0.290000 -67.296223 105.551846 25.613315 500.000000
0.260000 0.090000 0.410000 -67.571170 105.551847 -25.822773 500.000000
0.260000 0.090000 0.410000 -140.756054 101.339931 -29.965262 500.000000
0.163706 0.260000 0.290000 84.741261 -35.322548 30.538877 500.000000
0.013604 0.260000 0.290000 54.720760 -39.440594 38.284470 500.000000
0.014142 0.260000 0.410000 54.828309 -39.440595 -38.804740 500.000000
0.164244 0.260000 0.410000 84.848805 -35.322549 -31.059148 500.000000
0.156258 0.090000 0.290000 83.251607 45.441792 29.205839 500.000000
0.156377 0.090000 0.290000 83.275309 41.619316 35.001402 500.000000
0.156914 0.090000 0.410000 83.382852 41.619317 -35.521672 500.000000
0.156258 0.090000 0.410000 83.251613 45.441772 -27.170202 500.000000
0.053937 0.175000 0.290000 62.787467 0.000002 147.458903 500.000000
0.100424 0.175000 0.290000 72.084740 0.000000 85.871699 500.000000
0.101344 0.175000 0.410000 72.268726 0.000000 -86.931704 500.000000
0.053043 0.175000 0.410000 62.608593 -0.000004 -145.987732 500.000000
0.156258 0.260000 0.290000 83.251607 -45.441792 29.205839 500.000000
0.156377 0.260000 0.290000 83.275309 -41.619316 35.001402 500.000000
0.156914 0.260000 0.410000 83.382852 -41.619317 -35.521672 500.000000
0.156258 0.260000 0.410000 83.251613 -45.441772 -27.170202 500.000000
0.163706 0.090000 0.290000 84.741261 35.322548 30.538877 500.000000
0.013604 0.090000 0.290000 54.720760 39.440594 38.284470 500.000000
0.014142 0.090000 0.410000 54.828309 39.440595 -38.804740 500.000000
0.164244 0.090000 0.410000 84.848805 35.322549 -31.059148 500.000000
0.074805 0.260000 0.290000 66.961092 -145.019985 30.539651 500.000000
-0.260000 0.260000 0.290000 145.415559 -62.815980 35.126069 500.000000
-0.260000 0.260000 0.410000 145.612270 -62.815987 -35.586430 500.000000
0.075343 0.260000 0.410000 67.068638 -145.019969 -31.059922 500.000000
0.257628 0.110212 0.290000 103.525629 -29.957548 116.330269 500.000000
-0.087712 0.090000 0.290000 -69.542397 115.120310 35.001615 500.000000
-0.088250 0.090000 0.410000 -69.649943 115.120299 -35.521886 500.000000
0.257628 0.110213 0.410000 103.525644 -29.957481 -114.296440 500.000000
-0.197425 0.175000 0.290000 -51.949133 0.000000 11.831562 500.000000
0.187569 0.175000 0.290000 43.002304 -0.000000 19.695313 500.000000
0.186011 0.175000 0.410000 42.690733 -0.000000 -19.716425 500.000000
-0.195867 0.175000 0.410000 -51.637563 0.000000 -11.687866 500.000000
0.257628 0.239788 0.290000 103.525629 29.957548 116.330269 500.000000
-0.087712 0.260000 0.290000 -69.542397 -115.120310 35.001615 500.000000
-0.088250 0.260000 0.410000 -69.649943 -115.120299 -35.521886 500.000000
0.257628 0.239787 0.410000 103.525644 29.957481 -114.296440 500.000000
0.074805 0.090000 0.290000 66.961092 145.019985 30.539651 500.000000
-0.260000 0.090000 0.290000 145.415559 62.815980 35.126069 500.000000
-0.260000 0.090000 0.410000 145.612270 62.815987 -35.586430 500.000000
0.075343 0.090000 0.410000 67.068638 145.019969 -31.059922 500.000000
0.260000 0.260000 0.290000 -11.056053 -106.993571 12.104972 500.000000
-0.260000 0.260000 0.290000 50.556635 -148.667031 21.363371 500.000000
-0.260000 0.260000 0.410000 50.603524 -148.667028 -21.387768 500.000000
0.260000 0.260000 0.410000 -11.009900 -106.993572 -12.062136 500.000000
0.260000 0.090000 0.290000 -22.787037 123.350298 83.411346 500.000000
0.026247 0.090000 0.290000 -4.750286 118.382835 17.997791 500.000000
0.025277 0.090000 0.410000 -4.944382 118.382835 -18.042314 500.000000
0.260000 0.090000 0.410000 -23.268329 123.350311 -82.422317 500.000000
0.260000 0.175000 0.290000 -94.751026 -0.000000 44.021014 500.000000
0.260000 0.175000 0.290000 -41.498779 0.000000 19.817678 500.000000
0.260000 0.175000 0.410000 -41.505340 0.000000 -19.792880 500.000000
0.260000 0.175000 0.410000 -94.884855 -0.000000 -43.932707 500.000000
0.260000 0.260000 0.290000 -22.787037 -123.350298 83.411346 500.000000
0.026247 0.260000 0.290000 -4.750286 -118.382835 17.997791 500.000000
0.025277 0.260000 0.410000 -4.944382 -118.382835 -18.042314 500.000000
0.260000 0.260000 0.410000 -23.268329 -123.350311 -82.422317 500.000000
0.260000 0.090000 0.290000 -11.056053 106.993571 12.104972 500.000000
-0.260000 0.090000 0.290000 50.556635 148.667031 21.363371 500.000000
-0.260000 0.090000 0.410000 50.603524 148.667028 -21.387768 500.000000
0.260000 0.090000 0.410000 -11.009900 106.993572 -12.062136 500.000000
0.040636 0.260000 0.290000 60.127196 -108.025731 30.922173 500.000000
0.137248 0.260000 0.290000 52.041623 -70.580096 39.010082 500.000000
0.139651 0.260000 0.410000 52.522193 -70.580099 -39.267334 500.000000
0.041174 0.260000 0.410000 60.234744 -108.025721 -31.442444 500.000000
-0.260000 0.090000 0.290000 69.312379 123.981970 17.268540 500.000000
-0.260000 0.090000 0.290000 116.858524 118.537450 28.868543 500.000000
-0.260000 0.090000 0.410000 117.153985 118.537450 -28.947336 500.000000
-0.260000 0.090000 0.410000 69.014285 123.981976 -17.247321 500.000000
0.201290 0.175000 0.290000 92.258047 -0.000000 102.518327 500.000000
-0.260000 0.175000 0.290000 99.592715 0.000000 53.627721 500.000000
-0.260000 0.175000 0.410000 100.318746 -0.000000 -53.845140 500.000000
0.200771 0.175000 0.410000 92.154201 -0.000000 -100.576984 500.000000
-0.260000 0.260000 0.290000 69.312379 -123.981970 17.268540 500.000000
-0.260000 0.260000 0.290000 116.858524 -118.537450 28.868543 500.000000
-0.260000 0.260000 0.410000 117.153985 -118.537450 -28.947336 500.000000
-0.260000 0.260000 0.410000 69.014285 -123.981976 -17.247321 500.000000
0.040636 0.090000 0.290000 60.127196 108.025731 30.922173 500.000000
0.137248 0.090000 0.290000 52.041623 70.580096 39.010082 500.000000
0.139651 0.090000 0.410000 52.522193 70.580099 -39.267334 500.000000
0.041174 0.090000 0.410000 60.234744 108.025721 -31.442444 500.000000
-0.260000 0.090000 0.290000 125.367041 112.739407 19.578360 500.000000
0.154598 0.260000 0.290000 9.180636 -75.620656 44.204366 500.000000
0.156438 0.260000 0.410000 9.548579 -75.620659 -44.506158 500.000000
-0.260000 0.090000 0.410000 125.626068 112.739408 -19.750828 500.000000
-0.260000 0.090000 0.290000 34.597255 20.871162 22.813537 500.000000
0.117339 0.090000 0.290000 75.467880 121.307710 43.015716 500.000000
0.117877 0.090000 0.410000 75.575425 121.307698 -43.535985 500.000000
-0.260000 0.090000 0.410000 34.896357 20.871168 -22.962916 500.000000
0.260000 0.175000 0.290000 -52.815829 0.000000 78.300341 500.000000
0.260000 0.175000 0.290000 -54.384570 0.000000 95.102444 500.000000
0.260000 0.175000 0.410000 -54.476558 0.000000 -96.162447 500.000000
0.260000 0.175000 0.410000 -52.907818 0.000000 -79.360348 500.000000
-0.260000 0.260000 0.290000 34.597255 -20.871162 22.813537 500.000000
0.117339 0.260000 0.290000 75.467880 -121.307710 43.015716 500.000000
0.117877 0.260000 0.410000 75.575425 -121.307698 -43.535985 500.000000
-0.260000 0.260000 0.410000 34.896357 -20.871168 -22.962916 500.000000
-0.260000 0.260000 0.290000 125.367041 -112.739407 19.578360 500.000000
0.154598 0.090000 0.290000 9.180636 75.620656 44.204366 500.000000
0.156438 0.090000 0.410000 9.548579 75.620659 -44.506158 500.000000
-0.260000 0.260000 0.410000 125.626068 -112.739408 -19.750828 500.000000
