ply
format ascii 1.0
element vertex 240
property float x
property float y
property float z
property float vx
property float vy
property float vz
property float density
end_header
0.260000 0.090000 0.410000 -78.574637 29.528972 -125.861350 500.000000
-0.260000 0.090000 0.410000 151.350873 21.236908 -87.297447 500.000000
0.260000 0.090000 0.290000 -106.565550 22.587800 21.912677 500.000000
0.260000 0.250598 0.290000 -61.829301 32.119546 15.306576 500.000000
-0.260000 0.090000 0.290000 385.927327 111.299322 21.836374 500.000000
-0.125415 0.090000 0.410000 -77.083011 33.640380 -110.362897 500.000000
-0.168409 0.260000 0.367602 18.318171 -18.229912 15.520361 500.000000
0.260000 0.090000 0.290000 -19.039375 17.736999 21.854372 500.000000
-0.234957 0.260000 0.290000 -98.991398 -148.582783 25.436577 500.000000
-0.260000 0.260000 0.410000 166.129790 -30.381916 -72.206561 500.000000
-0.260000 0.260000 0.290000 56.150776 -34.226791 45.049765 500.000000
-0.250621 0.090000 0.410000 -102.124297 18.493490 -91.696759 500.000000
-0.260000 0.260000 0.290000 58.698137 -39.483541 20.594984 500.000000
-0.260000 0.090000 0.410000 59.408560 123.564942 -143.235908 500.000000
-0.260000 0.260000 0.290000 68.392015 -43.310306 44.990997 500.000000
0.260000 0.090000 0.410000 -78.518726 29.440596 -119.773476 500.000000
0.180170 0.161982 0.290000 -15.965985 14.396353 193.631127 500.000000
-0.260000 0.260000 0.290000 56.585626 -33.287104 30.171203 500.000000
-0.260000 0.090000 0.410000 83.943225 17.251990 -86.292173 500.000000
0.073132 0.260000 0.310795 35.516870 -18.146026 -19.840921 500.000000
0.260000 0.260000 0.292052 -74.879446 -68.974742 -23.589661 500.000000
0.065231 0.247267 0.371791 65.046114 31.453428 16.358139 500.000000
0.260000 0.090000 0.290000 -133.715209 18.907428 129.686286 500.000000
0.260000 0.090000 0.290000 -109.714375 21.212723 23.529851 500.000000
-0.260000 0.260000 0.410000 54.181380 -22.139085 -30.396596 500.000000
-0.231702 0.090000 0.410000 -98.340407 17.376793 -82.720561 500.000000
0.083940 0.260000 0.298457 -35.211964 -354.533954 -22.308677 500.000000
-0.260000 0.260000 0.290000 66.036626 -38.997901 21.138497 500.000000
-0.233560 0.090000 0.290000 -98.711978 27.251652 449.542679 500.000000
0.249077 0.240416 0.368255 101.815430 30.083233 15.650944 500.000000
-0.260000 0.090000 0.410000 71.254063 18.693161 -88.029959 500.000000
0.260000 0.102974 0.290000 -439.875196 -31.405207 239.737031 500.000000
-0.213115 0.090000 0.410000 -94.622904 35.590358 -101.321328 500.000000
-0.260000 0.260000 0.410000 65.434408 -20.352412 -87.705016 500.000000
-0.173557 0.260000 0.410000 -86.711462 -17.842231 -20.714937 500.000000
0.045155 0.090000 0.290000 22.047627 20.865298 100.652683 500.000000
0.260000 0.090000 0.410000 -109.419477 44.648702 -113.400832 500.000000
0.094224 0.164278 0.410000 -33.155245 -19.144489 -102.074670 500.000000
-0.260000 0.260000 0.290000 62.685321 -43.785537 43.945050 500.000000
0.260000 0.090000 0.410000 -79.339949 27.442944 -117.261940 500.000000
-0.260000 0.260000 0.290000 64.519692 -36.576833 20.940484 500.000000
-0.235651 0.090000 0.410000 -99.130126 43.940307 -90.308843 500.000000
-0.253553 0.260000 0.410000 -102.710693 -41.466063 -29.606895 500.000000
0.260000 0.090000 0.410000 -78.726894 27.187846 -115.989007 500.000000
-0.129157 0.260000 0.410000 -77.831479 -37.917555 -166.052424 500.000000
0.228279 0.090000 0.410000 97.655740 60.665905 -152.691191 500.000000
-0.156224 0.260000 0.298224 -83.244724 -27.456016 -22.355246 500.000000
0.053904 0.090000 0.290000 62.780854 65.721905 26.943571 500.000000
-0.260000 0.090690 0.410000 70.679392 -33.862049 -165.979982 500.000000
-0.230780 0.090000 0.410000 -98.155928 18.155022 -82.888296 500.000000
0.140265 0.260000 0.290000 14.224926 -59.941370 73.772452 500.000000
-0.041847 0.090000 0.313431 -60.369309 102.955028 -19.313857 500.000000
0.260000 0.090000 0.290000 -106.705331 23.693895 21.975456 500.000000
-0.260000 0.090000 0.410000 138.136260 23.296884 -100.709642 500.000000
-0.047465 0.208735 0.379126 2.960179 -10.252993 -6.174859 500.000000
-0.260000 0.260000 0.290000 127.701735 -383.847968 24.648615 500.000000
-0.260000 0.260000 0.290000 65.000368 -57.375829 20.300022 500.000000
-0.260000 0.260000 0.410000 144.353833 -27.817810 -43.621152 500.000000
0.260000 0.090000 0.290000 -106.717261 22.011757 21.875119 500.000000
0.260000 0.090000 0.290000 -103.447543 40.942674 31.540470 500.000000
-0.260000 0.260000 0.290000 96.168411 -62.104716 65.527690 500.000000
0.260000 0.090000 0.410000 -26.903374 13.766767 -14.616287 500.000000
-0.253204 0.260000 0.410000 -102.640892 -24.889077 -31.954240 500.000000
0.260000 0.090000 0.290000 -120.866555 23.208504 18.861921 500.000000
0.260000 0.090000 0.410000 -78.321851 29.443499 -127.764897 500.000000
-0.260000 0.090000 0.290000 115.270915 19.987569 22.961049 500.000000
0.260000 0.260000 0.307735 -59.249944 -74.404220 -20.452913 500.000000
-0.253506 0.090000 0.290000 -102.701137 631.144938 19.910502 500.000000
0.260000 0.090000 0.327524 -153.719511 68.410506 -16.495241 500.000000
0.260000 0.231366 0.382249 -161.442101 28.273201 18.449767 500.000000
0.215385 0.209478 0.410000 4.613919 6.061806 -5.864974 500.000000
-0.221055 0.090000 0.410000 -14.392598 17.737322 -78.465080 500.000000
0.260000 0.192806 0.364577 -110.362054 20.561130 -9.084593 500.000000
0.260000 0.235340 0.410000 -521.756668 29.068066 -22.149328 500.000000
-0.260000 0.090000 0.410000 431.514829 40.221820 -50.887664 500.000000
-0.154168 0.090000 0.410000 -82.833669 23.166796 -113.968084 500.000000
0.260000 0.260000 0.290000 -84.874884 -70.791789 34.726698 500.000000
-0.260000 0.260000 0.290000 67.048392 -43.957418 43.612614 500.000000
-0.257466 0.260000 0.410000 -103.493107 -22.139597 -30.397534 500.000000
0.260000 0.090000 0.290000 -89.886493 22.011107 22.927647 500.000000
0.260000 0.260000 0.290000 -455.666694 -63.399788 19.480749 500.000000
-0.260000 0.090000 0.410000 122.513619 23.914095 -89.032998 500.000000
0.260000 0.122180 0.290000 -49.847064 -27.564064 26.719697 500.000000
0.260000 0.090000 0.290000 -106.746637 22.027209 21.859944 500.000000
-0.220434 0.260000 0.290000 -96.086874 -52.652894 22.179046 500.000000
-0.260000 0.090000 0.290000 20.828278 32.456734 31.783738 500.000000
0.257062 0.090000 0.290000 34.341712 17.889827 12.613448 500.000000
0.063795 0.255735 0.377665 64.759087 33.147097 17.533065 500.000000
-0.260000 0.090000 0.410000 159.430141 23.532111 -99.518540 500.000000
-0.260000 0.260000 0.290000 54.567748 -44.138618 45.988049 500.000000
-0.260000 0.260000 0.290000 82.992976 -46.871331 43.854650 500.000000
0.260000 0.090000 0.290000 -119.733753 23.897229 19.266872 500.000000
0.010112 0.260000 0.290000 -49.977518 -395.876982 17.645122 500.000000
-0.257304 0.090000 0.290000 -22.236145 35.374663 64.517025 500.000000
-0.247045 0.260000 0.410000 -101.408906 -24.973400 -31.225068 500.000000
-0.260000 0.125677 0.410000 137.329877 -26.864533 -82.501485 500.000000
-0.260000 0.260000 0.410000 88.963124 -22.196436 -31.252422 500.000000
0.064329 0.090000 0.290000 -39.134254 98.650874 29.991404 500.000000
0.260000 0.105205 0.290000 -24.269559 -30.959073 25.291577 500.000000
-0.260000 0.260000 0.290000 58.694086 -42.087794 43.678790 500.000000
-0.042136 0.102023 0.290000 43.572863 -31.595441 418.442847 500.000000
-0.249292 0.260000 0.410000 -101.858417 -23.443236 -37.735356 500.000000
0.260000 0.260000 0.343855 -118.723553 -18.705220 -13.228906 500.000000
0.260000 0.090000 0.290000 -106.644106 23.093834 22.820488 500.000000
0.025072 0.260000 0.372318 57.014406 -33.151968 16.463541 500.000000
-0.260000 0.260000 0.290000 61.883867 -36.547260 21.122110 500.000000
-0.061613 0.260000 0.290000 -17.154260 -17.464405 43.516047 500.000000
0.260000 0.090000 0.290000 -35.214737 21.985553 22.958293 500.000000
-0.260000 0.260000 0.290000 55.166233 -44.132496 44.621160 500.000000
0.260000 0.090000 0.290000 -103.048189 26.504653 14.962337 500.000000
-0.220550 0.090000 0.290000 -96.109915 19.958562 989.713258 500.000000
-0.260000 0.260000 0.410000 34.131509 -279.034323 -13.940679 500.000000
-0.148578 0.260000 0.290000 -2.307378 -254.119959 32.499057 500.000000
-0.260000 0.257505 0.410000 148.554176 33.500999 -77.840517 500.000000
0.260000 0.090000 0.290000 -56.676134 137.185685 82.983069 500.000000
0.260000 0.260000 0.290000 -84.806101 -63.392845 34.017397 500.000000
0.260000 0.090000 0.290000 -58.996072 141.632497 33.186915 500.000000
-0.260000 0.108002 0.410000 18.239303 -30.399598 -48.348750 500.000000
0.008865 0.090000 0.336405 -4.329035 25.582893 -14.718926 500.000000
-0.243133 0.090000 0.290000 -41.296714 22.478005 25.425363 500.000000
0.260000 0.090000 0.290000 -105.917161 18.736633 21.877378 500.000000
-0.260000 0.090000 0.290000 67.501999 20.502955 22.958323 500.000000
-0.260000 0.103511 0.410000 54.717542 -31.297715 -118.308612 500.000000
0.260000 0.090000 0.290000 -106.762041 22.041308 22.406108 500.000000
-0.248104 0.260000 0.410000 -101.620723 -24.639011 -31.235262 500.000000
0.260000 0.260000 0.308877 -100.319154 -60.886560 -20.224512 500.000000
0.260000 0.260000 0.410000 -61.106372 -278.716217 -90.526344 500.000000
0.260000 0.260000 0.290000 -144.973399 -64.748411 40.615987 500.000000
0.260000 0.260000 0.410000 -23.843787 -19.061779 -30.243317 500.000000
-0.259990 0.260000 0.410000 -103.998058 -37.231708 -28.180771 500.000000
-0.063159 0.260000 0.406080 -20.555761 -31.848093 23.215965 500.000000
0.260000 0.260000 0.309066 -65.990319 -62.906195 -20.186866 500.000000
0.260000 0.090000 0.290000 -77.719937 52.431416 501.811461 500.000000
-0.243919 0.260000 0.410000 -100.783833 -22.188325 -30.893233 500.000000
-0.260000 0.260000 0.302902 118.254065 -73.013788 -21.419602 500.000000
-0.260000 0.260000 0.290000 550.153915 -87.710867 15.169070 500.000000
-0.260000 0.260000 0.290000 389.296516 -20.360266 47.280338 500.000000
0.260000 0.090000 0.290000 -59.334081 56.310403 374.505998 500.000000
0.260000 0.260000 0.410000 -21.220137 -19.014808 -160.227585 500.000000
-0.260000 0.090000 0.400130 67.445408 33.132041 22.026001 500.000000
0.260000 0.260000 0.308129 -148.976333 -65.586693 -20.374102 500.000000
0.260000 0.260000 0.290000 -84.391433 -63.357181 34.711510 500.000000
-0.260000 0.260000 0.307139 70.247165 -35.846013 -20.572201 500.000000
0.260000 0.090000 0.410000 -76.403255 59.982590 -119.750606 500.000000
0.032923 0.260000 0.366493 58.584658 -21.012249 15.298644 500.000000
0.260000 0.090000 0.410000 -79.172704 26.470727 -116.406290 500.000000
-0.252290 0.090000 0.410000 -102.458072 60.877841 -102.759083 500.000000
0.260000 0.260000 0.410000 -70.681907 -17.952095 -43.404359 500.000000
0.260000 0.260000 0.387185 -7.995540 -9.692476 10.311068 500.000000
-0.223912 0.090000 0.290000 -96.782403 17.875028 653.992300 500.000000
0.260000 0.260000 0.290000 -60.432182 -58.409005 18.683031 500.000000
-0.083670 0.090000 0.410000 -28.365492 35.181072 -20.716175 500.000000
0.260000 0.090000 0.290000 -38.339751 51.049727 23.713401 500.000000
0.260000 0.260000 0.307330 -106.318110 -60.809530 -20.534078 500.000000
-0.260000 0.090000 0.290000 418.393453 111.194706 21.809784 500.000000
0.019694 0.246596 0.373062 55.938741 31.319106 16.612383 500.000000
0.260000 0.090000 0.294822 -185.118348 26.590057 -23.035549 500.000000
-0.180408 0.260000 0.410000 -88.081633 -41.008068 -34.456042 500.000000
-0.260000 0.260000 0.410000 52.039997 -24.777272 -31.680400 500.000000
0.260000 0.206185 0.410000 -494.119589 23.236992 -20.051860 500.000000
-0.260000 0.090000 0.290000 360.764915 111.390999 21.857724 500.000000
-0.123027 0.260000 0.321393 -76.605449 -23.017816 -17.721392 500.000000
0.260000 0.090000 0.290000 -115.114316 23.105752 22.581819 500.000000
-0.026648 0.090000 0.290000 -57.329599 108.725686 13.402420 500.000000
-0.246769 0.260000 0.410000 -101.353817 -22.730805 -31.077120 500.000000
-0.211841 0.260000 0.290000 -94.368127 -45.518142 44.288309 500.000000
-0.260000 0.090000 0.311174 32.956780 71.517664 -19.765187 500.000000
0.260000 0.090000 0.290000 -106.653518 22.017653 21.914458 500.000000
-0.260000 0.090000 0.300270 51.579632 18.659635 -21.945986 500.000000
-0.260000 0.157760 0.410000 80.977976 -20.448042 -174.348650 500.000000
0.260000 0.090000 0.410000 -538.399779 19.938896 -107.482743 500.000000
0.127174 0.260000 0.389820 77.434762 -32.756421 19.963982 500.000000
-0.260000 0.260000 0.290000 64.134542 -50.801976 16.205661 500.000000
-0.260000 0.090000 0.410000 52.294879 20.618449 -87.165661 500.000000
-0.032874 0.090000 0.290000 -58.574879 103.968944 21.301590 500.000000
-0.260000 0.260000 0.290000 71.621198 -18.738363 6.790284 500.000000
0.260000 0.090000 0.290000 -106.687163 19.841883 20.501506 500.000000
0.260000 0.090000 0.326744 -149.592535 143.671560 -16.651261 500.000000
-0.158324 0.260000 0.410000 -83.664735 -26.132558 -78.088681 500.000000
0.171727 0.090000 0.410000 20.930824 9.705403 -8.923460 500.000000
-0.260000 0.260000 0.290000 54.592763 -46.035106 43.612870 500.000000
0.260000 0.090000 0.290000 -27.064044 50.834701 21.728887 500.000000
0.260000 0.090000 0.290000 -191.472585 663.037916 13.495318 500.000000
0.260000 0.090000 0.410000 -36.688388 55.650801 -120.260134 500.000000
-0.260000 0.260000 0.290000 62.609162 -45.639248 43.952771 500.000000
-0.260000 0.090000 0.410000 53.811054 18.808897 -84.015686 500.000000
0.260000 0.260000 0.290000 -115.867086 -68.709198 34.383874 500.000000
-0.260000 0.090000 0.290000 102.085102 98.923242 16.376838 500.000000
-0.187734 0.260000 0.410000 -89.546821 -41.660706 -33.163003 500.000000
0.050858 0.236677 0.371023 62.171652 29.335387 16.204568 500.000000
-0.260000 0.095774 0.410000 23.079239 -32.845251 -26.093427 500.000000
0.260000 0.260000 0.293560 -160.805190 -67.741585 -23.288008 500.000000
-0.045700 0.260000 0.306793 -61.140003 -34.036669 -20.641316 500.000000
-0.207489 0.102138 0.410000 -93.497810 -31.572316 -121.339710 500.000000
0.260000 0.090000 0.410000 -84.573474 61.201750 -117.051318 500.000000
0.018342 0.228648 0.369881 55.668429 27.729580 15.976292 500.000000
-0.248446 0.260000 0.410000 -101.689139 -24.695889 -30.176128 500.000000
-0.260000 0.090000 0.290000 453.055508 111.086832 21.864482 500.000000
-0.260000 0.260000 0.410000 34.771662 -26.301171 -86.707072 500.000000
0.260000 0.260000 0.309058 -181.969837 -59.895757 -20.188441 500.000000
-0.260000 0.090000 0.290000 38.985657 19.852119 15.751422 500.000000
0.141985 0.260000 0.410000 -23.603077 -23.437319 -56.731328 500.000000
-0.260000 0.260000 0.290000 66.427381 -38.694420 240.342578 500.000000
-0.260000 0.260000 0.290000 99.170751 -57.898507 36.831471 500.000000
0.260000 0.090000 0.410000 -92.448991 33.857605 -115.536623 500.000000
-0.260000 0.260000 0.410000 64.833858 -28.415664 -33.737808 500.000000
-0.260000 0.260000 0.410000 74.027938 -27.594020 -104.646865 500.000000
-0.252180 0.260000 0.410000 -102.435993 -22.794927 -31.252981 500.000000
0.260000 0.260000 0.290000 -112.087904 -73.962316 13.004800 500.000000
0.125268 0.090000 0.290000 -26.946481 236.571642 49.899976 500.000000
-0.260000 0.260000 0.290000 57.522553 -44.158436 20.540273 500.000000
-0.146661 0.260000 0.384388 9.185608 -93.921544 18.877663 500.000000
0.260000 0.090000 0.290000 -106.884809 22.044851 21.907640 500.000000
0.260000 0.090000 0.290000 -60.370792 19.756436 31.868744 500.000000
-0.260000 0.090000 0.410000 113.740204 23.741303 -97.959798 500.000000
-0.214044 0.260000 0.410000 -47.398521 -19.987019 -41.221047 500.000000
0.260000 0.260000 0.309079 -94.405690 -62.013637 -20.184105 500.000000
-0.260000 0.090000 0.410000 170.492155 23.613633 -91.382489 500.000000
-0.260000 0.260000 0.410000 53.693383 -24.000609 -31.909288 500.000000
-0.260000 0.090000 0.290000 120.816530 102.645805 16.819500 500.000000
-0.260000 0.260000 0.410000 86.835317 -41.420026 -31.207893 500.000000
-0.260000 0.090000 0.290000 53.623461 100.354834 16.565196 500.000000
0.260000 0.090000 0.290000 -106.594186 22.044019 21.823373 500.000000
0.260000 0.090000 0.290000 -112.236634 31.539206 12.497204 500.000000
-0.243827 0.260000 0.410000 -100.765378 -22.140737 -30.398340 500.000000
0.033143 0.090000 0.410000 -45.371447 206.130204 -66.248623 500.000000
0.260000 0.260000 0.290000 -142.111168 -64.155919 35.810933 500.000000
-0.259406 0.260000 0.410000 -103.881147 -24.969823 -33.739412 500.000000
0.260000 0.090000 0.410000 -78.333962 29.436176 -124.537266 500.000000
0.179655 0.090000 0.410000 28.490983 28.776866 -37.361109 500.000000
0.260000 0.260000 0.309213 -139.058638 -59.875435 -20.157483 500.000000
-0.246712 0.260000 0.410000 -101.342476 -24.643630 -31.217479 500.000000
0.260000 0.090000 0.410000 -59.291760 20.303640 -110.684875 500.000000
-0.260000 0.260000 0.290000 58.018386 -40.840347 20.594936 500.000000
-0.260000 0.103708 0.410000 97.352270 -31.258432 -84.946855 500.000000
-0.243099 0.260000 0.290000 -100.619866 -46.776333 44.985509 500.000000
-0.260000 0.090000 0.353763 44.066594 19.669842 12.752628 500.000000
-0.227853 0.090000 0.328152 -97.570608 177.009457 -16.369518 500.000000
-0.260000 0.099340 0.410000 63.567972 -32.131994 -89.729969 500.000000
0.129954 0.090000 0.410000 77.990808 26.713805 -107.546871 500.000000
