ply
format ascii 1.0
element vertex 240
property float x
property float y
property float z
property float vx
property float vy
property float vz
property float density
end_header
-0.260000 0.090000 0.290000 162.123120 92.919114 27.120138 500.000000
0.260000 0.260000 0.290000 -60.176927 -63.362116 35.969084 500.000000
-0.128436 0.260000 0.410000 -77.687186 -30.905660 -32.051421 500.000000
0.015834 0.260000 0.410000 7.488549 -118.442638 -51.048183 500.000000
0.260000 0.260000 0.410000 -90.663088 -33.597867 -52.839729 500.000000
0.260000 0.090000 0.290000 -70.908098 289.286324 41.772842 500.000000
0.124544 0.131682 0.410000 -9.324154 8.336368 -13.752658 500.000000
0.260000 0.260000 0.410000 -461.987276 -27.339766 -52.779397 500.000000
-0.260000 0.090000 0.410000 183.409847 39.160635 -28.440742 500.000000
0.260000 0.090000 0.290000 -163.826509 31.865008 39.382106 500.000000
0.260000 0.090000 0.410000 -73.932891 45.696000 -21.065876 500.000000
-0.260000 0.260000 0.290000 134.326633 -145.745733 103.160790 500.000000
0.260000 0.090000 0.410000 -74.251044 46.352541 -18.011597 500.000000
0.226945 0.260000 0.290000 97.389078 -76.141544 42.955064 500.000000
0.260000 0.090000 0.410000 -75.461760 46.830484 -21.058536 500.000000
0.119360 0.090000 0.290000 19.403909 175.204136 26.316979 500.000000
-0.242819 0.223137 0.410000 -14.013321 26.627305 -24.169713 500.000000
0.035756 0.260000 0.410000 59.151248 -506.321542 -53.323819 500.000000
0.257586 0.260000 0.290000 103.517193 -62.864452 35.843539 500.000000
-0.084126 0.260000 0.342901 -34.691667 -8.789567 -13.419753 500.000000
0.191509 0.090000 0.290000 90.301822 36.427720 58.453837 500.000000
0.260000 0.179198 0.290000 -102.478322 17.839539 489.710677 500.000000
-0.162344 0.260000 0.410000 -84.468891 -30.446000 -45.511790 500.000000
-0.132369 0.260000 0.410000 -78.473730 -30.733919 -32.253397 500.000000
0.260000 0.090000 0.290000 -149.846013 30.835616 34.160736 500.000000
-0.260000 0.260000 0.290000 89.244423 -126.397766 97.549586 500.000000
0.260000 0.090000 0.290000 -124.825807 61.849307 112.763386 500.000000
0.260000 0.090000 0.410000 -75.167584 46.291887 -18.079479 500.000000
-0.260000 0.090000 0.410000 107.804205 267.819446 -64.393438 500.000000
-0.260000 0.260000 0.410000 67.551341 -27.104662 -13.212898 500.000000
0.241739 0.260000 0.290000 100.347774 -63.044435 36.060566 500.000000
-0.260000 0.090000 0.410000 90.153037 254.115177 -58.653074 500.000000
-0.260000 0.260000 0.290000 76.850949 -126.449511 98.445311 500.000000
0.260000 0.090000 0.290000 -151.251329 30.612490 41.317605 500.000000
0.260000 0.217421 0.338746 -79.344429 25.484189 -14.250873 500.000000
-0.260000 0.260000 0.410000 31.371132 -60.351305 -19.490379 500.000000
0.260000 0.260000 0.290000 -82.631952 -118.184999 28.261756 500.000000
-0.183799 0.260000 0.290000 -10.813552 -31.561112 12.770965 500.000000
0.260000 0.090000 0.410000 -74.749023 46.889838 -20.927902 500.000000
-0.260000 0.090000 0.290000 75.478078 152.267669 23.431626 500.000000
0.260000 0.090000 0.410000 -74.978126 45.989508 -18.054748 500.000000
-0.260000 0.260000 0.290000 86.803114 -131.896392 99.046486 500.000000
-0.260000 0.090000 0.410000 92.016933 73.445519 -407.405615 500.000000
0.260000 0.090000 0.290000 -260.367842 182.574521 23.518786 500.000000
-0.247440 0.090000 0.290000 -101.488094 69.708924 174.916026 500.000000
0.260000 0.231664 0.290000 -72.955648 28.332763 34.781366 500.000000
0.260000 0.260000 0.334407 -31.811212 -172.791429 -15.118583 500.000000
-0.059018 0.260000 0.290000 -30.668723 -27.905213 8.705401 500.000000
0.260000 0.090000 0.290000 -67.244382 108.978398 60.421148 500.000000
-0.260000 0.260000 0.290000 106.614379 -126.087123 97.459163 500.000000
-0.192573 0.260000 0.383787 -48.143514 -24.293104 18.757369 500.000000
-0.260000 0.241051 0.290000 70.173082 30.210154 15.071763 500.000000
-0.128611 0.260000 0.410000 -77.722102 -31.043805 -32.059261 500.000000
0.260000 0.260000 0.290000 -58.526595 -63.619380 37.644092 500.000000
-0.260000 0.159432 0.342010 53.016982 13.886475 10.401990 500.000000
0.260000 0.090000 0.410000 -82.869244 89.361913 -18.517875 500.000000
0.260000 0.090000 0.410000 -75.038160 48.587197 -17.974758 500.000000
0.260000 0.090000 0.290000 -161.107054 31.544794 35.812263 500.000000
-0.128625 0.260000 0.410000 -77.725082 -30.833715 -32.046730 500.000000
-0.124542 0.260000 0.410000 -76.908340 -33.198089 -33.253882 500.000000
0.260000 0.090000 0.410000 -78.930891 49.177811 -23.623465 500.000000
-0.091276 0.146835 0.410000 33.744760 -22.632950 -227.167661 500.000000
-0.260000 0.090000 0.290000 111.451106 71.194526 95.629807 500.000000
-0.146297 0.260000 0.410000 -81.259430 -30.983182 -31.670397 500.000000
0.260000 0.090000 0.290000 -179.890764 131.684045 27.478194 500.000000
0.260000 0.165221 0.410000 -100.246682 -18.955892 -19.234020 500.000000
0.120695 0.090000 0.290000 76.139091 29.853409 52.775452 500.000000
-0.260000 0.260000 0.410000 121.815314 -88.172949 -30.055867 500.000000
-0.208330 0.260000 0.290000 -70.033564 -124.096110 132.191516 500.000000
-0.136527 0.260000 0.410000 -79.305391 -25.032772 -24.638713 500.000000
0.022932 0.117082 0.410000 -23.654279 -13.857739 -70.732554 500.000000
-0.260000 0.260000 0.290000 74.238663 -123.801735 96.022397 500.000000
-0.037925 0.259807 0.410000 -59.585021 33.961341 -152.806148 500.000000
-0.260000 0.260000 0.290000 67.580018 -134.033615 97.916057 500.000000
0.260000 0.260000 0.290000 -95.165728 -65.733082 31.421980 500.000000
0.036323 0.090000 0.290000 26.199116 168.809704 39.308223 500.000000
0.260000 0.090000 0.410000 -66.810546 17.348231 -77.353421 500.000000
0.260000 0.090000 0.410000 -75.293948 46.911305 -20.886383 500.000000
-0.260000 0.090000 0.410000 95.497338 74.734692 -268.939449 500.000000
-0.107605 0.260000 0.410000 -73.520929 -30.833633 -32.178185 500.000000
-0.260000 0.090000 0.410000 90.458716 37.027549 -96.253362 500.000000
0.260000 0.260000 0.290000 -56.575533 -63.696462 36.185832 500.000000
0.260000 0.090000 0.355857 -66.615256 143.371623 13.171469 500.000000
-0.128662 0.260000 0.410000 -77.732420 -30.835645 -32.044835 500.000000
-0.260000 0.260000 0.410000 106.094416 -83.466629 -24.073186 500.000000
0.260000 0.090000 0.410000 -89.388490 217.091201 -20.151560 500.000000
0.260000 0.260000 0.410000 -321.293555 -40.171214 -50.127926 500.000000
0.260000 0.260000 0.290000 -55.924228 -471.163123 17.447628 500.000000
0.260000 0.260000 0.290000 -61.185922 -63.648757 37.495338 500.000000
0.260000 0.090000 0.410000 -73.735179 46.933936 -21.183062 500.000000
0.260000 0.090000 0.410000 -77.285346 47.275238 -20.916612 500.000000
-0.144882 0.260000 0.410000 -80.976467 -31.069200 -31.720973 500.000000
0.260000 0.090000 0.290000 -47.415265 51.002622 158.590920 500.000000
-0.260000 0.227740 0.410000 102.526360 27.547905 -37.039032 500.000000
-0.260000 0.090000 0.410000 177.999015 69.533101 -132.572862 500.000000
-0.260000 0.090000 0.290000 588.449450 95.840633 28.730683 500.000000
0.260000 0.090000 0.290000 -154.189675 30.842778 34.267615 500.000000
-0.083225 0.260000 0.290000 -68.645044 -21.684248 210.208112 500.000000
-0.260000 0.090000 0.392802 55.025556 238.011933 20.560445 500.000000
0.260000 0.090000 0.410000 -74.250538 46.677799 -20.894648 500.000000
-0.260000 0.090000 0.410000 38.678177 57.136680 -57.523608 500.000000
-0.260000 0.090000 0.410000 128.100579 69.744374 -5.501075 500.000000
-0.197689 0.090000 0.290000 -91.537781 70.969133 185.571588 500.000000
-0.128534 0.260000 0.410000 -77.706808 -30.968860 -32.164802 500.000000
-0.036439 0.090000 0.410000 12.880669 18.380781 -38.540004 500.000000
0.260000 0.090000 0.410000 -74.648925 45.985814 -18.077433 500.000000
0.260000 0.135596 0.405665 -29.952820 9.119255 23.133036 500.000000
-0.039322 0.260000 0.410000 -59.864487 -30.830442 -32.182013 500.000000
0.260000 0.090000 0.410000 -73.809927 46.933172 -21.012345 500.000000
-0.124043 0.260000 0.410000 -76.808585 -31.394854 -31.183359 500.000000
-0.260000 0.090000 0.410000 105.407833 42.702495 -129.394179 500.000000
0.260000 0.090000 0.410000 -174.050600 47.078602 -58.036565 500.000000
0.014000 0.090000 0.410000 10.854846 31.742079 -31.548535 500.000000
0.260000 0.260000 0.290000 -118.554080 -181.623462 25.431644 500.000000
-0.066127 0.260000 0.410000 -65.225323 -45.218345 -39.678798 500.000000
0.260000 0.095780 0.410000 -87.469194 -32.844051 -77.503565 500.000000
-0.069024 0.260000 0.410000 -65.804820 -45.773729 -33.459515 500.000000
-0.260000 0.090000 0.290000 46.995058 141.954824 12.739350 500.000000
0.260000 0.128740 0.410000 -37.126701 -26.252064 -79.260647 500.000000
-0.260000 0.090000 0.410000 110.297278 71.676759 -14.121507 500.000000
-0.127626 0.260000 0.410000 -77.525225 -30.424669 -32.047012 500.000000
0.239002 0.260000 0.410000 99.800327 -23.987326 -53.046145 500.000000
0.257574 0.090000 0.290000 103.514812 135.717744 49.983567 500.000000
-0.128681 0.260000 0.410000 -77.736267 -30.837405 -32.113048 500.000000
-0.260000 0.090000 0.410000 163.457031 69.663281 -45.646018 500.000000
0.260000 0.090000 0.290000 -354.594143 57.565975 90.930189 500.000000
0.260000 0.090000 0.290000 -69.900709 62.881033 48.027963 500.000000
0.260000 0.090000 0.410000 -176.124346 24.653668 -97.663196 500.000000
0.103712 0.142939 0.290000 -31.257589 -23.412153 163.354908 500.000000
-0.260000 0.090000 0.410000 62.027815 79.878635 -430.741512 500.000000
-0.206152 0.260000 0.290095 -93.230353 -9.591498 -13.220266 500.000000
-0.022298 0.139446 0.290000 -56.459669 -24.110783 256.560432 500.000000
-0.092409 0.260000 0.410000 -70.481849 -34.632974 -91.988309 500.000000
-0.260000 0.260000 0.410000 211.322844 -268.017914 -56.993565 500.000000
0.223430 0.090000 0.290000 96.685944 26.940214 229.817156 500.000000
0.260000 0.090000 0.410000 -135.631381 52.375890 -17.333928 500.000000
0.260000 0.090000 0.410000 -112.733392 28.181972 -23.555440 500.000000
-0.069446 0.260000 0.410000 -65.889251 -35.117439 -76.088512 500.000000
-0.260000 0.143015 0.290000 51.191407 -23.397028 33.005806 500.000000
0.145317 0.260000 0.410000 81.063408 -53.464264 -185.690696 500.000000
-0.223845 0.090000 0.290000 -96.769027 76.082823 195.565288 500.000000
0.260000 0.095824 0.410000 -126.703465 -32.835144 -77.589869 500.000000
-0.260000 0.090000 0.290000 39.330112 14.857244 198.315369 500.000000
0.260000 0.260000 0.290000 -77.005726 -120.100562 46.630252 500.000000
-0.260000 0.090000 0.410000 101.532824 35.950139 -12.813063 500.000000
-0.260000 0.090000 0.290000 247.674574 189.721540 22.439586 500.000000
-0.260000 0.260000 0.290000 118.174275 -154.051255 105.236672 500.000000
0.260000 0.126215 0.290000 -38.125537 -26.756973 14.859068 500.000000
-0.101665 0.090000 0.410000 -72.333057 32.756070 -21.763444 500.000000
-0.260000 0.090000 0.410000 93.748905 56.428611 -88.046019 500.000000
-0.260000 0.101919 0.410000 530.123679 -31.616133 -75.339235 500.000000
-0.134886 0.260000 0.410000 -1.651305 -56.438832 -285.712377 500.000000
-0.043225 0.260000 0.410000 -60.645084 -34.460408 -32.276322 500.000000
-0.169978 0.090000 0.410000 -85.995548 75.639775 -265.587851 500.000000
0.260000 0.260000 0.410000 -94.717889 -33.584801 -52.836408 500.000000
-0.260000 0.209936 0.410000 66.098715 23.987105 -173.174206 500.000000
-0.026776 0.260000 0.290000 -57.355211 -133.405114 383.088214 500.000000
-0.114919 0.090000 0.290000 -74.983778 70.094806 158.045712 500.000000
0.260000 0.090000 0.290000 -149.578590 31.165081 34.321062 500.000000
-0.260000 0.260000 0.290000 64.689589 -127.706841 93.015233 500.000000
0.260000 0.260000 0.410000 -87.520472 -33.609317 -52.842396 500.000000
0.260000 0.260000 0.410000 -40.535425 -62.904166 -63.251069 500.000000
-0.139113 0.260000 0.410000 -79.822580 -30.970349 -32.134993 500.000000
-0.126839 0.260000 0.410000 -77.367746 -26.750104 -19.586292 500.000000
-0.260000 0.260000 0.290000 197.916771 -419.874238 23.842658 500.000000
-0.260000 0.260000 0.410000 84.043309 -118.564351 -26.721139 500.000000
-0.260000 0.246420 0.290000 38.481207 31.284084 106.914857 500.000000
-0.128546 0.260000 0.410000 -77.709159 -30.834451 -32.051643 500.000000
0.035692 0.152943 0.290000 59.138342 -2.719280 104.058247 500.000000
0.059241 0.100465 0.290000 -25.809695 -31.906937 21.908957 500.000000
-0.260000 0.090000 0.290000 72.515174 29.659241 163.632149 500.000000
0.079142 0.260000 0.389152 23.037027 -477.579094 19.830405 500.000000
0.260000 0.090000 0.410000 -74.930023 47.766156 -17.463393 500.000000
0.218061 0.260000 0.290000 95.612267 -63.284879 35.952626 500.000000
0.086819 0.260000 0.410000 69.363857 -18.667414 -41.992737 500.000000
-0.260000 0.099983 0.410000 1016.367747 -32.003447 -17.576450 500.000000
-0.128588 0.260000 0.410000 -77.717564 -30.562709 -31.875173 500.000000
0.260000 0.260000 0.290000 -13.951999 -133.653320 114.669012 500.000000
-0.017969 0.260000 0.290000 -55.593758 -150.005505 87.604518 500.000000
-0.260000 0.176225 0.290000 64.207188 17.245074 23.620093 500.000000
0.260000 0.090000 0.410000 -73.738303 47.170798 -20.886415 500.000000
-0.029143 0.260000 0.410000 -57.828528 -34.433552 -32.028466 500.000000
-0.234480 0.260000 0.410000 -98.896089 -110.894583 -31.000136 500.000000
-0.054537 0.192440 0.290000 41.092630 20.488056 15.039631 500.000000
0.260000 0.090000 0.410000 -74.739511 47.121357 -20.928866 500.000000
0.219955 0.260000 0.290000 95.990968 -63.058889 35.559235 500.000000
0.248230 0.090000 0.410000 18.568793 17.255359 -96.840536 500.000000
0.260000 0.260000 0.410000 -55.213101 -32.052178 -52.157870 500.000000
0.260000 0.090000 0.290000 -284.297152 42.185725 34.082882 500.000000
0.058232 0.260000 0.290000 -40.353645 -18.011468 35.721799 500.000000
0.260000 0.090000 0.290000 -56.949357 120.761029 41.483479 500.000000
-0.237898 0.090000 0.290000 -99.579629 81.241099 197.071849 500.000000
-0.143695 0.090000 0.290000 -80.739028 69.224342 156.975190 500.000000
-0.260000 0.090000 0.290000 87.631712 90.783308 165.516018 500.000000
0.247961 0.260000 0.290000 40.817975 -120.252329 54.226347 500.000000
-0.260000 0.260000 0.290000 32.267004 -38.489171 16.874101 500.000000
-0.260000 0.090000 0.410000 143.986167 69.734985 -346.103053 500.000000
0.260000 0.260000 0.410000 -99.046947 -33.571329 -52.843240 500.000000
0.260000 0.090000 0.290000 -147.422061 31.355391 41.192979 500.000000
-0.260000 0.090000 0.290000 52.513558 75.207322 234.759676 500.000000
0.260000 0.090000 0.410000 -90.719720 50.564916 -18.363579 500.000000
-0.109961 0.226965 0.297389 30.007884 27.393004 -22.522151 500.000000
0.260000 0.090000 0.410000 -75.216387 46.253984 -45.456959 500.000000
0.260000 0.090000 0.410000 -79.305868 48.652477 -20.039452 500.000000
-0.260000 0.090000 0.290000 34.526967 261.068827 28.328046 500.000000
0.260000 0.090000 0.290000 -151.176330 31.619456 34.577998 500.000000
0.260000 0.090000 0.290000 -152.324518 31.516846 43.433361 500.000000
-0.260000 0.090000 0.290000 126.206060 70.493738 40.924457 500.000000
0.260000 0.090000 0.410000 -74.732154 18.006117 -94.170518 500.000000
0.023164 0.260000 0.410000 56.632761 -29.549858 -40.367641 500.000000
0.260000 0.090000 0.410000 -74.104219 46.936412 -18.004764 500.000000
0.260000 0.090000 0.410000 -38.072615 21.050284 -30.851531 500.000000
-0.128835 0.260000 0.410000 -77.766934 -30.837848 -32.050791 500.000000
-0.070741 0.260000 0.410000 -66.148211 -30.552037 -33.294882 500.000000
0.260000 0.260000 0.290000 -55.479848 -63.674882 37.300672 500.000000
-0.260000 0.260000 0.410000 64.732279 -37.057116 -362.804061 500.000000
0.260000 0.090000 0.290000 -168.075670 32.951016 155.470149 500.000000
0.260000 0.260000 0.290000 -62.567422 -63.658938 36.479252 500.000000
0.260000 0.090000 0.290000 -149.785070 31.068089 34.349646 500.000000
0.260000 0.260000 0.410000 -57.552530 -32.517101 -52.213155 500.000000
0.260000 0.090000 0.290000 -153.923947 33.243485 34.262054 500.000000
0.231606 0.260000 0.410000 98.321134 -32.230974 -52.181394 500.000000
-0.128472 0.260000 0.410000 -77.694339 -30.837744 -32.040267 500.000000
-0.135519 0.260000 0.410000 -79.103764 -32.023644 -30.875476 500.000000
-0.260000 0.260000 0.410000 232.038008 -304.595787 -127.069958 500.000000
0.012899 0.260000 0.325816 54.579719 -26.874610 -16.836704 500.000000
0.260000 0.090000 0.410000 -201.680084 21.406786 -97.015774 500.000000
-0.260000 0.090000 0.290000 82.181262 78.042107 99.225388 500.000000
0.260000 0.090000 0.290000 -92.639286 218.636936 27.058060 500.000000
0.016712 0.140670 0.410000 55.342447 -23.866093 -484.857152 500.000000
-0.211571 0.090000 0.290000 -94.314158 75.178810 299.525609 500.000000
-0.260000 0.090000 0.410000 219.390242 69.443506 -219.622573 500.000000
0.200194 0.090000 0.290000 92.038761 23.246484 41.127799 500.000000
0.260000 0.090000 0.410000 -74.166146 46.521999 -18.011591 500.000000
0.260000 0.090000 0.290000 -56.874093 156.710296 45.755628 500.000000
-0.260000 0.260000 0.410000 187.380400 -52.714972 -33.020150 500.000000
-0.260000 0.090000 0.410000 54.819582 44.513656 -13.555898 500.000000
-0.072041 0.260000 0.290000 -66.408168 -134.717653 115.975462 500.000000
0.260000 0.090000 0.290000 -57.599466 130.803152 47.927088 500.000000
0.260000 0.090000 0.290000 -96.398532 102.386574 30.956024 500.000000
