ply
format ascii 1.0
element vertex 240
property float x
property float y
property float z
property float vx
property float vy
property float vz
property float density
end_header
0.260000 0.090000 0.410000 -82.214618 21.641207 -161.652226 500.000000
0.197902 0.121823 0.290000 91.580360 -27.635455 61.530251 500.000000
-0.260000 0.090000 0.410000 1193.714337 243.961004 -60.868678 500.000000
-0.163575 0.090000 0.290000 -84.715024 20.713279 61.835936 500.000000
0.260000 0.090000 0.410000 -81.760782 32.553323 -18.544383 500.000000
0.260000 0.090000 0.290000 -86.049827 37.034866 17.997094 500.000000
0.260000 0.090000 0.410000 -89.987119 115.417125 -28.881426 500.000000
-0.260000 0.260000 0.360036 71.848525 -20.523152 14.007272 500.000000
-0.260000 0.192984 0.410000 104.845104 20.596881 -27.978533 500.000000
0.260000 0.090000 0.290000 -355.328593 134.470574 30.076302 500.000000
-0.260000 0.260000 0.290000 463.879158 -17.616469 24.450653 500.000000
0.240669 0.232000 0.359587 76.837296 28.399934 13.917435 500.000000
0.169293 0.260000 0.290000 71.819341 -27.584352 49.981629 500.000000
-0.260000 0.090000 0.290000 52.592961 106.366333 14.297563 500.000000
-0.260000 0.090000 0.290000 128.083945 29.286676 174.401363 500.000000
-0.260000 0.260000 0.410000 98.477360 -18.899610 -52.416361 500.000000
-0.260000 0.260000 0.410000 83.024988 -74.470692 -34.294471 500.000000
-0.260000 0.250724 0.290000 461.523110 32.144871 25.015043 500.000000
-0.260000 0.260000 0.410000 98.096042 -492.210073 -46.486477 500.000000
-0.260000 0.260000 0.410000 83.729248 -210.847858 -38.277651 500.000000
0.260000 0.260000 0.290000 -183.992685 -70.242753 924.588867 500.000000
0.260000 0.260000 0.410000 -182.627207 -67.334766 -60.667713 500.000000
-0.260000 0.090000 0.410000 226.211326 83.562958 -54.628397 500.000000
0.081429 0.260000 0.350352 -35.714125 -14.869108 12.070494 500.000000
-0.260000 0.090000 0.410000 585.673662 467.379408 -20.852127 500.000000
-0.260000 0.260000 0.290000 97.783352 -26.058007 50.693484 500.000000
-0.260000 0.090000 0.290000 106.855904 199.687117 35.695287 500.000000
0.260000 0.090000 0.410000 -85.785219 126.781803 -30.687844 500.000000
0.024621 0.260000 0.290000 45.633938 -27.721268 56.305017 500.000000
0.149204 0.181451 0.410000 26.191329 -15.709727 -52.245471 500.000000
-0.036096 0.144472 0.290000 -59.219292 -23.105655 43.376797 500.000000
-0.260000 0.090000 0.410000 270.409025 106.052914 -167.405269 500.000000
0.260000 0.090000 0.410000 -571.166785 79.502332 -175.356308 500.000000
-0.260000 0.090000 0.410000 224.580678 93.706080 -53.757659 500.000000
0.260000 0.260000 0.410000 -182.313910 -76.242170 -87.943636 500.000000
-0.102013 0.090000 0.410000 -37.390640 97.255215 -9.715262 500.000000
0.128786 0.172471 0.290000 -26.242779 -17.505737 36.462913 500.000000
0.260000 0.186358 0.410000 -102.959192 19.271506 -600.643687 500.000000
-0.260000 0.260000 0.290000 34.888139 -23.716811 44.204835 500.000000
-0.165793 0.260000 0.407062 -33.227790 -131.508282 23.412428 500.000000
-0.048173 0.090000 0.290000 42.365423 17.297651 139.454279 500.000000
-0.260000 0.260000 0.290000 378.026776 -17.636143 24.418333 500.000000
0.093184 0.133394 0.290000 -33.363266 -25.321133 43.627943 500.000000
0.260000 0.090000 0.410000 -73.629229 32.538263 -19.543026 500.000000
0.033292 0.260000 0.290000 31.872974 -26.766259 78.025465 500.000000
0.260000 0.260000 0.290000 -58.613315 -103.205353 59.867956 500.000000
0.260000 0.090000 0.410000 -807.448454 92.294161 -123.478431 500.000000
-0.260000 0.260000 0.410000 9.023613 -24.401902 -88.307223 500.000000
-0.260000 0.139446 0.290000 74.392418 -24.110734 44.929115 500.000000
-0.260000 0.090000 0.410000 224.978391 84.857363 -53.179161 500.000000
0.260000 0.090000 0.410000 -605.815073 78.357320 -179.938389 500.000000
-0.260000 0.260000 0.290000 321.968663 -17.867387 24.893548 500.000000
0.260000 0.090000 0.410000 -581.881895 78.419905 -201.315115 500.000000
-0.260000 0.090000 0.290000 59.145235 22.678760 161.857732 500.000000
-0.081234 0.093695 0.290000 -38.869755 -33.260942 49.343152 500.000000
-0.260000 0.260000 0.290000 245.308770 -25.976761 41.965817 500.000000
-0.074730 0.260000 0.290000 -39.764797 -19.683787 24.497328 500.000000
0.022426 0.090000 0.290000 -47.514755 135.893536 66.039810 500.000000
0.048247 0.173067 0.290000 9.792929 16.613330 13.328255 500.000000
-0.260000 0.090000 0.410000 224.170249 85.053510 -63.961689 500.000000
-0.260000 0.090000 0.410000 224.505237 85.016226 -85.657028 500.000000
-0.090007 0.260000 0.354302 -55.788142 -33.437865 12.860423 500.000000
0.260000 0.090000 0.410000 -81.681571 32.411852 -18.611052 500.000000
-0.260000 0.260000 0.290000 184.640612 -20.453031 27.101285 500.000000
-0.143930 0.122423 0.290000 -80.785929 -27.515352 30.981972 500.000000
-0.260000 0.247460 0.290000 527.377393 31.491941 24.890918 500.000000
-0.260000 0.260000 0.410000 818.449526 -67.964669 -32.425884 500.000000
0.260000 0.260000 0.410000 -183.479112 -76.242723 -77.136685 500.000000
-0.094498 0.090000 0.376336 -26.785391 18.015529 17.267213 500.000000
-0.059833 0.144466 0.290000 -63.966628 -23.106755 43.436842 500.000000
-0.260000 0.090000 0.410000 223.723901 93.364621 -54.498292 500.000000
0.260000 0.260000 0.290000 -230.138524 -25.946743 24.876952 500.000000
-0.260000 0.260000 0.410000 61.989365 -30.842767 -188.510166 500.000000
0.260000 0.260000 0.410000 -184.209292 -88.546807 -55.284594 500.000000
-0.260000 0.090000 0.410000 677.516474 28.923111 -39.050222 500.000000
-0.260000 0.120478 0.290000 78.287112 -27.904348 62.198161 500.000000
0.260000 0.260000 0.290000 -238.819282 -122.461093 13.705656 500.000000
-0.260000 0.260000 0.410000 787.082716 -73.695532 -66.261848 500.000000
-0.142080 0.090000 0.290000 -80.416018 56.356433 158.069934 500.000000
-0.260000 0.260000 0.410000 117.511247 -63.119625 -14.801442 500.000000
0.260000 0.234226 0.410000 -300.916393 28.845251 -30.793409 500.000000
0.112862 0.224942 0.290000 5.475568 26.988498 80.396039 500.000000
-0.260000 0.090000 0.410000 234.600658 104.044294 -54.010438 500.000000
-0.260000 0.090000 0.410000 405.521031 88.310342 -50.387252 500.000000
-0.260000 0.090000 0.410000 228.321934 78.920040 -54.354007 500.000000
0.260000 0.260000 0.290000 -165.088250 -22.263606 24.869571 500.000000
0.260000 0.260000 0.290000 -483.158254 -29.289766 24.894603 500.000000
-0.260000 0.090000 0.290000 116.257141 63.380497 177.654383 500.000000
-0.260000 0.090000 0.410000 239.403194 119.248372 -54.869109 500.000000
-0.260000 0.090000 0.290000 58.657617 23.064501 162.865707 500.000000
0.149570 0.090000 0.290000 18.332844 19.310948 287.168052 500.000000
0.071577 0.260000 0.410000 -2.762435 -20.916576 -10.993439 500.000000
-0.144171 0.260000 0.290000 -1.752240 -26.181039 76.987630 500.000000
0.005230 0.260000 0.290000 53.046040 -154.887326 157.504147 500.000000
0.260000 0.260000 0.410000 -342.055551 -186.679420 -78.318477 500.000000
0.260000 0.260000 0.410000 -357.364594 -447.083273 -41.286028 500.000000
0.260000 0.160904 0.374702 -54.172753 14.180899 16.940485 500.000000
-0.260000 0.260000 0.290000 70.101407 -25.772969 65.743631 500.000000
0.260000 0.090000 0.410000 -161.852347 886.061023 -25.069830 500.000000
0.260000 0.090000 0.410000 -75.643453 35.167752 -53.698131 500.000000
-0.260000 0.144461 0.290000 65.150753 -23.107800 42.859284 500.000000
-0.260000 0.260000 0.290000 245.343774 -18.173378 24.908193 500.000000
-0.260000 0.260000 0.290000 168.077952 -26.081801 27.485058 500.000000
0.116449 0.260000 0.410000 75.289768 -24.742866 -82.133555 500.000000
0.260000 0.260000 0.410000 -184.576197 -206.668271 -54.602454 500.000000
-0.014700 0.148517 0.392176 -12.274339 -22.296516 20.435145 500.000000
0.260000 0.090000 0.410000 -799.194421 78.943635 -157.270953 500.000000
-0.260000 0.260000 0.290000 27.881217 -18.439207 22.288218 500.000000
-0.260000 0.090000 0.410000 229.528993 79.102194 -146.465242 500.000000
0.260000 0.090000 0.410000 -569.141743 80.444911 -42.962565 500.000000
0.260000 0.260000 0.410000 -182.402890 -74.061165 -72.390286 500.000000
-0.192628 0.135009 0.290000 -43.916199 9.001879 36.508758 500.000000
0.260000 0.260000 0.290000 -170.263024 -23.416683 24.893556 500.000000
-0.203485 0.260000 0.290000 -92.696966 -69.623387 249.300044 500.000000
0.260000 0.224645 0.410000 -25.732751 26.928952 -30.373609 500.000000
0.085907 0.260000 0.290000 69.181401 -26.271370 81.287780 500.000000
0.130831 0.260000 0.290000 57.351311 -44.836573 65.139594 500.000000
0.260000 0.090000 0.410000 -111.731937 21.471668 -208.570527 500.000000
0.260000 0.230203 0.290000 -116.508560 28.040506 76.679508 500.000000
-0.260000 0.090000 0.410000 223.498593 85.055479 -42.129345 500.000000
0.260000 0.260000 0.290000 -56.093915 -21.126471 24.893543 500.000000
-0.260000 0.240587 0.319206 36.768881 30.117320 -5.457924 500.000000
0.260000 0.090000 0.410000 -77.343131 124.705163 -30.201579 500.000000
0.260000 0.260000 0.410000 -182.624944 -76.242227 -82.501520 500.000000
0.260000 0.260000 0.410000 -174.536688 -85.255728 -57.544836 500.000000
0.260000 0.260000 0.410000 -195.098632 -70.836861 -54.505089 500.000000
-0.260000 0.260000 0.290000 52.761626 -69.751329 71.591743 500.000000
-0.067215 0.260000 0.410000 -32.759319 -11.190368 -20.595274 500.000000
0.260000 0.157514 0.346427 -55.466679 13.502814 11.285392 500.000000
0.029591 0.153680 0.343235 7.881620 1.880373 10.647062 500.000000
0.053957 0.260000 0.290000 62.791410 -22.887161 78.797492 500.000000
0.260000 0.260000 0.290000 -375.499606 -26.759221 24.894515 500.000000
-0.260000 0.260000 0.331983 55.003865 -23.393433 -15.603460 500.000000
0.260000 0.090000 0.410000 -76.194109 31.912602 -22.076375 500.000000
-0.260000 0.260000 0.410000 751.242193 -68.260482 -21.690038 500.000000
0.260000 0.260000 0.410000 -183.820020 -76.273967 -109.315887 500.000000
-0.260000 0.260000 0.290000 63.610559 -78.695602 57.081121 500.000000
-0.260000 0.247905 0.410000 71.493997 31.581008 -95.408459 500.000000
-0.260000 0.090000 0.290000 61.231330 22.903710 161.651454 500.000000
0.260000 0.260000 0.410000 -182.380576 -76.157744 -71.361724 500.000000
-0.260000 0.090000 0.290000 70.763353 56.074915 543.854111 500.000000
0.260000 0.090000 0.410000 -73.826113 31.266823 -21.616149 500.000000
0.260000 0.090000 0.410000 -81.905250 32.421083 -18.632395 500.000000
-0.220165 0.256531 0.410000 -62.404534 33.306262 -29.707306 500.000000
0.260000 0.090000 0.290000 -88.778456 115.357783 25.219315 500.000000
-0.260000 0.090000 0.410000 228.615135 79.761711 -132.102311 500.000000
0.232241 0.090000 0.290000 98.448115 19.773385 54.947589 500.000000
0.260000 0.260000 0.410000 -182.885068 -76.246136 -61.304366 500.000000
0.260000 0.090000 0.410000 -89.226887 22.883931 -173.151661 500.000000
0.260000 0.090000 0.410000 -86.062412 31.683208 -18.633140 500.000000
-0.260000 0.090000 0.410000 222.527754 24.886680 -158.198765 500.000000
-0.260000 0.260000 0.290000 172.925388 -70.600455 65.926388 500.000000
0.260000 0.090000 0.410000 -75.789733 27.706000 -20.697981 500.000000
0.260000 0.090000 0.410000 -101.553862 32.155312 -18.405162 500.000000
0.260000 0.133388 0.290000 -53.131408 8.677601 22.844685 500.000000
-0.260000 0.207078 0.290000 20.366339 23.415603 6.344934 500.000000
0.260000 0.090000 0.410000 -81.842709 34.252315 -19.006405 500.000000
-0.260000 0.260000 0.410000 67.306451 -39.944832 -47.265597 500.000000
-0.260000 0.260000 0.290000 96.217553 -19.626420 24.892881 500.000000
-0.260000 0.260000 0.290000 17.260674 -24.291766 51.331661 500.000000
-0.260000 0.090000 0.410000 240.108402 86.268167 -52.684246 500.000000
0.260000 0.090000 0.290000 -286.246153 24.745821 95.598946 500.000000
0.260000 0.260000 0.290000 -560.965302 -29.806052 24.416544 500.000000
-0.260000 0.260000 0.410000 19.535196 -25.764588 -174.692318 500.000000
0.260000 0.090000 0.410000 -83.364360 32.510104 -18.725133 500.000000
-0.260000 0.090000 0.410000 230.056980 80.703826 -62.087041 500.000000
-0.170853 0.090000 0.290000 -86.170590 21.368044 160.025062 500.000000
0.260000 0.260000 0.290000 -50.510162 -25.765226 52.904164 500.000000
0.260000 0.090000 0.410000 -106.301927 21.471461 -186.762844 500.000000
0.210411 0.260000 0.305829 45.576437 -30.524974 -20.834167 500.000000
-0.260000 0.131089 0.410000 231.635743 -25.782190 -108.352954 500.000000
0.157637 0.260000 0.395932 83.527423 -80.647024 21.186343 500.000000
-0.260000 0.090000 0.410000 224.094754 84.450019 -113.487135 500.000000
0.130110 0.144387 0.290000 -25.977921 -23.122553 43.375778 500.000000
0.166517 0.133066 0.290000 -18.696651 -25.386874 44.948656 500.000000
-0.260000 0.090000 0.410000 289.261946 138.557166 -62.638033 500.000000
-0.167328 0.090000 0.290000 -85.465604 23.274754 175.203543 500.000000
-0.260000 0.090000 0.410000 229.186130 87.059444 -44.852699 500.000000
-0.260000 0.144464 0.290000 52.636243 -23.107241 43.377233 500.000000
0.260000 0.090000 0.410000 -78.827038 33.434222 -18.634987 500.000000
0.260000 0.260000 0.290000 -222.269403 -36.417448 45.501657 500.000000
0.260000 0.260000 0.410000 -184.593516 -76.247187 -66.728992 500.000000
-0.260000 0.142461 0.290000 97.567141 -23.507783 43.367189 500.000000
0.260000 0.260000 0.410000 -188.008373 -115.214456 -70.791938 500.000000
-0.260000 0.260000 0.410000 93.599473 -54.813226 -22.338111 500.000000
0.079726 0.260000 0.410000 44.136135 -28.691947 -150.109949 500.000000
0.260000 0.260000 0.410000 -135.692704 -21.982969 -165.044124 500.000000
0.135643 0.260000 0.290000 49.022772 -25.918993 54.320297 500.000000
0.260000 0.260000 0.410000 -184.320293 -74.926496 -77.843145 500.000000
0.260000 0.090000 0.410000 -868.404439 81.337230 -51.998035 500.000000
-0.260000 0.090000 0.410000 224.560858 84.904936 -107.130489 500.000000
0.260000 0.090000 0.410000 -76.351356 30.685814 -35.075326 500.000000
0.260000 0.144461 0.290000 -88.513449 -23.107891 42.558323 500.000000
0.260000 0.090000 0.410000 -75.228475 30.673937 -23.011184 500.000000
0.260000 0.260000 0.410000 -119.840943 -84.336001 -96.145374 500.000000
0.260000 0.124912 0.290000 -125.504716 -27.017608 160.756607 500.000000
0.238161 0.090000 0.362424 99.632178 41.297473 14.484831 500.000000
0.260000 0.090000 0.410000 -350.702577 78.066690 -44.626674 500.000000
0.260000 0.090000 0.290000 -41.522299 186.856089 126.870534 500.000000
0.260000 0.260000 0.410000 -185.037580 -76.272936 -71.818666 500.000000
0.260000 0.260000 0.290000 -313.356020 -26.856886 24.933776 500.000000
0.260000 0.090000 0.410000 -81.869854 32.411627 -18.632401 500.000000
0.260000 0.090000 0.290000 -66.200737 17.617060 44.987318 500.000000
0.260000 0.260000 0.410000 -184.597432 -74.936517 -71.663466 500.000000
-0.221241 0.090000 0.290000 -96.248291 165.818483 36.013484 500.000000
0.197879 0.113208 0.290000 91.575891 -29.358468 132.685478 500.000000
-0.260000 0.260000 0.410000 96.321051 -19.415111 -54.762694 500.000000
-0.260000 0.260000 0.410000 883.870528 -67.600784 -31.911255 500.000000
0.260000 0.090000 0.410000 -81.643895 61.965112 -26.536413 500.000000
0.184374 0.260000 0.290000 69.486635 -26.230266 50.860828 500.000000
-0.260000 0.260000 0.410000 307.266492 -18.224527 -48.957294 500.000000
0.260000 0.090000 0.410000 -78.993363 30.523764 -26.915722 500.000000
-0.260000 0.260000 0.410000 78.576452 -453.300579 -30.324196 500.000000
0.260000 0.090000 0.290000 -33.963770 31.745583 331.189158 500.000000
0.260000 0.260000 0.290000 -248.106018 -23.773742 24.417526 500.000000
-0.260000 0.144475 0.290000 56.301829 -23.105096 43.378308 500.000000
0.252176 0.090000 0.332369 51.347720 26.757213 -15.526259 500.000000
0.167349 0.260000 0.290000 85.469817 -48.554104 59.146401 500.000000
-0.260000 0.260000 0.290000 118.802907 -69.556791 57.815775 500.000000
0.260000 0.090000 0.410000 -74.129138 21.847445 -16.617472 500.000000
0.072552 0.260000 0.290000 -9.652231 -20.755096 24.890803 500.000000
-0.260000 0.146405 0.290000 58.266676 -22.719078 43.531249 500.000000
-0.260000 0.090000 0.410000 224.755431 80.006836 -117.115963 500.000000
-0.260000 0.260000 0.290000 168.349752 -19.419018 24.893062 500.000000
-0.260000 0.260000 0.290000 264.215722 -26.070766 54.835381 500.000000
0.260000 0.260000 0.290000 -110.781655 -21.857325 24.877163 500.000000
0.260000 0.260000 0.290000 -140.418740 -31.426758 59.252840 500.000000
0.260000 0.260000 0.290000 -96.163251 -156.783953 141.687007 500.000000
-0.260000 0.260000 0.410000 92.609909 -205.182454 -36.321788 500.000000
0.260000 0.260000 0.290000 -453.109793 -27.097387 34.266750 500.000000
0.053248 0.144828 0.290000 -41.350479 -23.034399 45.960028 500.000000
0.260000 0.090000 0.410000 -77.236014 29.804598 -19.529747 500.000000
0.260000 0.127013 0.290000 -194.928793 -26.597379 90.438860 500.000000
-0.260000 0.260000 0.290000 182.979625 -24.758585 55.010280 500.000000
0.260000 0.260000 0.410000 -184.142566 -76.277454 -103.865457 500.000000
-0.153895 0.090000 0.290000 -82.779079 20.660594 40.172277 500.000000
0.260000 0.260000 0.290000 -62.290492 -24.309096 72.107208 500.000000
0.260000 0.260000 0.410000 -183.205832 -76.241848 -93.361707 500.000000
0.260000 0.260000 0.410000 -183.535245 -76.272465 -114.546994 500.000000
-0.260000 0.260000 0.366092 95.346764 -173.302567 15.218390 500.000000
