ply
format ascii 1.0
element vertex 240
property float x
property float y
property float z
property float vx
property float vy
property float vz
property float density
end_header
-0.260000 0.260000 0.290000 80.558647 -30.340514 41.790195 500.000000
-0.260000 0.090000 0.410000 69.303365 28.989012 -42.362630 500.000000
0.178777 0.090000 0.290000 87.755477 20.135296 320.293420 500.000000
-0.260000 0.090000 0.410000 219.374543 23.782376 -23.758606 500.000000
-0.260000 0.090000 0.410000 22.668747 31.603252 -59.593438 500.000000
-0.260000 0.223586 0.290000 52.955145 26.717191 54.462811 500.000000
-0.196457 0.090000 0.290000 -91.291455 49.667861 23.912746 500.000000
-0.106334 0.260000 0.410000 4.131035 -245.291156 -19.358222 500.000000
-0.006365 0.260000 0.290000 16.053903 -50.739332 22.785396 500.000000
-0.260000 0.260000 0.410000 91.743852 -47.740121 -50.258237 500.000000
0.260000 0.090000 0.410000 -91.853998 24.699289 -31.883012 500.000000
0.260000 0.153960 0.410000 -100.129888 -21.208067 -22.626268 500.000000
0.090528 0.090000 0.290000 70.105550 35.315548 69.423785 500.000000
-0.260000 0.090000 0.290000 29.506636 37.633406 19.819821 500.000000
-0.260000 0.260000 0.290000 56.988844 -61.869356 19.910018 500.000000
-0.260000 0.260000 0.290000 93.045606 -49.417881 389.219696 500.000000
-0.260000 0.260000 0.290000 69.324439 -49.361899 41.714261 500.000000
-0.218180 0.260000 0.410000 -61.461428 -38.140017 -51.800723 500.000000
-0.260000 0.260000 0.410000 100.551394 -81.611921 -41.167227 500.000000
0.260000 0.223551 0.290000 -213.300434 26.710138 57.768562 500.000000
-0.260000 0.260000 0.290000 47.535168 -34.706265 28.789568 500.000000
0.260000 0.157897 0.410000 -102.273226 -20.420547 -103.971466 500.000000
-0.246735 0.260000 0.290000 -101.347077 -24.302684 39.480314 500.000000
-0.157134 0.090000 0.410000 -83.426702 47.913902 -73.171376 500.000000
0.260000 0.090000 0.410000 -45.364710 7.189088 -20.259730 500.000000
-0.161605 0.090000 0.290000 -84.321005 68.014290 24.350923 500.000000
0.202495 0.090000 0.290000 92.498909 65.286633 67.675526 500.000000
-0.139809 0.090000 0.410000 -79.961763 59.517848 -351.561954 500.000000
-0.260000 0.090000 0.410000 580.296835 25.858157 -87.302828 500.000000
0.260000 0.090000 0.290000 -8.312207 13.514331 19.182005 500.000000
0.143502 0.260000 0.290000 80.700488 -23.739044 26.855168 500.000000
0.260000 0.157310 0.410000 -114.231831 -20.538051 -157.903126 500.000000
-0.169720 0.090000 0.290000 18.056089 34.467563 72.654489 500.000000
0.260000 0.260000 0.410000 -21.538720 -75.109728 -59.729214 500.000000
0.260000 0.260000 0.290000 -69.478790 -88.605778 16.706765 500.000000
-0.260000 0.260000 0.410000 94.969172 -49.567005 -45.944846 500.000000
0.260000 0.139373 0.295872 -105.249627 9.874650 -22.825587 500.000000
-0.260000 0.260000 0.410000 93.528764 -51.852989 -45.124466 500.000000
-0.260000 0.121122 0.290000 43.217672 -27.775503 16.552578 500.000000
0.260000 0.260000 0.410000 -188.289817 -38.426772 -79.935929 500.000000
-0.191165 0.260000 0.290000 -90.232975 -18.835351 129.037357 500.000000
-0.260000 0.090000 0.290000 83.834392 38.599531 24.828757 500.000000
-0.224979 0.090000 0.290000 -96.995719 21.019863 13.538673 500.000000
-0.260000 0.090000 0.290000 88.007791 35.641713 17.204811 500.000000
0.140044 0.090000 0.290000 80.008777 64.342755 76.552134 500.000000
-0.260000 0.235969 0.290000 61.315477 29.193865 52.607206 500.000000
-0.260000 0.137961 0.410000 266.485097 -24.407764 -28.139068 500.000000
0.260000 0.260000 0.327113 -31.802086 -23.093719 -4.913359 500.000000
-0.204565 0.260000 0.410000 -40.577603 -37.862250 -42.591864 500.000000
0.064652 0.090000 0.410000 64.930397 27.940122 -315.918187 500.000000
0.260000 0.260000 0.410000 -294.917289 -31.906517 -351.185724 500.000000
-0.068029 0.090000 0.290000 -65.605720 40.914807 26.741706 500.000000
-0.260000 0.260000 0.290000 56.300654 -34.809436 40.039760 500.000000
0.260000 0.260000 0.410000 -80.303631 -39.777401 -13.667002 500.000000
-0.260000 0.260000 0.386494 148.810896 -44.008463 19.298889 500.000000
-0.000297 0.260000 0.410000 -52.059305 -49.378758 -23.162555 500.000000
0.260000 0.090000 0.410000 -20.134663 24.505504 -13.872860 500.000000
-0.260000 0.260000 0.290000 41.398516 -20.281365 21.042858 500.000000
-0.260000 0.231724 0.410000 44.599380 28.344754 -379.504413 500.000000
-0.260000 0.217216 0.290000 179.289571 25.443160 21.537760 500.000000
0.243506 0.260000 0.290000 100.701221 -26.500074 24.173863 500.000000
0.001018 0.260000 0.410000 52.203529 -51.395039 -88.366434 500.000000
0.147301 0.260000 0.290000 81.460183 -89.475739 16.081963 500.000000
-0.260000 0.090000 0.290000 133.916294 38.638574 21.369908 500.000000
-0.260000 0.229781 0.410000 59.737807 27.956134 -45.269870 500.000000
-0.119519 0.090000 0.290000 28.096196 35.704961 88.779283 500.000000
-0.260000 0.090000 0.410000 103.977415 21.429756 -29.925162 500.000000
0.260000 0.260000 0.290000 -63.061059 -47.517654 21.015765 500.000000
0.084512 0.260000 0.290000 68.902386 -26.802886 22.541932 500.000000
0.260000 0.090000 0.290000 -62.471506 71.374957 74.942033 500.000000
-0.260000 0.260000 0.410000 71.872578 -30.925719 -48.775119 500.000000
0.155094 0.090000 0.290000 -2.273417 24.390344 45.979513 500.000000
-0.184739 0.090000 0.410000 -88.947761 60.001420 -70.450486 500.000000
-0.260000 0.260000 0.410000 98.737623 -48.455640 -46.589016 500.000000
0.260000 0.090000 0.410000 -123.214661 24.725011 -116.780579 500.000000
-0.054055 0.260000 0.290000 41.188997 -21.233866 18.534777 500.000000
0.099920 0.090000 0.290000 71.983991 43.782395 68.966585 500.000000
0.260000 0.124012 0.290000 -37.913827 6.802374 18.227846 500.000000
0.130345 0.090000 0.290000 78.068969 89.352787 76.508137 500.000000
-0.260000 0.260000 0.290000 103.144806 -20.598590 21.143807 500.000000
0.260000 0.090000 0.410000 -121.926910 24.097749 -110.209034 500.000000
0.260000 0.090000 0.410000 -123.620050 24.554278 -117.581761 500.000000
-0.260000 0.260000 0.410000 98.634705 -84.087619 -42.822962 500.000000
0.260000 0.090000 0.410000 -125.469087 25.232372 -124.470010 500.000000
-0.062838 0.180028 0.410000 -24.390799 18.005586 -36.617753 500.000000
0.003527 0.177496 0.290000 52.705369 17.499119 13.615605 500.000000
-0.260000 0.260000 0.290000 59.461400 -30.540271 37.793865 500.000000
-0.174352 0.260000 0.290000 -11.425911 -30.315412 33.148890 500.000000
0.260000 0.090000 0.410000 -125.281582 25.536433 -109.582551 500.000000
0.260000 0.209785 0.410000 -53.905544 23.956988 -76.847542 500.000000
-0.150086 0.260000 0.410000 21.982857 -401.293686 -460.440689 500.000000
0.260000 0.117670 0.296585 -54.943290 -28.466086 -22.682988 500.000000
0.260000 0.090000 0.410000 -39.131395 23.287001 -13.237610 500.000000
0.260000 0.260000 0.290000 -96.926947 -124.812191 21.365109 500.000000
0.260000 0.090000 0.290000 -101.136961 39.331042 73.566911 500.000000
-0.260000 0.260000 0.290000 71.604396 -343.815574 16.046267 500.000000
0.260000 0.250647 0.290000 -23.010299 32.129444 85.040431 500.000000
0.260000 0.205446 0.410000 -358.081798 23.089191 -29.205443 500.000000
0.252973 0.090000 0.410000 25.830164 36.583065 -13.101702 500.000000
-0.260000 0.260000 0.410000 82.597377 -17.696177 -54.046111 500.000000
0.260000 0.090000 0.290000 -151.309638 45.282113 79.105380 500.000000
-0.260000 0.090000 0.410000 403.486884 19.793388 -63.454461 500.000000
-0.260000 0.090000 0.290000 35.876129 38.365695 25.387935 500.000000
-0.260000 0.090000 0.290000 114.030523 38.801100 24.514118 500.000000
-0.050906 0.090000 0.290000 41.818734 39.627154 73.609451 500.000000
-0.206088 0.162264 0.327632 -59.783975 -19.547129 -16.473644 500.000000
-0.260000 0.212342 0.290000 143.267683 24.468440 21.293019 500.000000
-0.260000 0.090000 0.290000 59.027911 54.786432 23.938549 500.000000
0.124357 0.260000 0.410000 15.010274 -44.473626 -40.092355 500.000000
0.069432 0.224969 0.290000 65.886414 26.993815 22.736816 500.000000
0.260000 0.090000 0.367288 -69.856969 23.574981 15.457532 500.000000
-0.127589 0.127834 0.290000 -17.569615 -26.433144 18.089829 500.000000
0.260000 0.260000 0.290000 -59.702520 -27.847028 25.842571 500.000000
0.260000 0.090000 0.290000 -78.296866 36.723561 30.184880 500.000000
-0.090351 0.090000 0.290000 -25.369593 37.414145 15.788843 500.000000
-0.260000 0.260000 0.290000 55.241408 -90.972391 19.809480 500.000000
-0.260000 0.260000 0.290000 57.598133 -32.018506 42.953056 500.000000
-0.260000 0.253022 0.290000 105.189997 32.604486 32.571155 500.000000
-0.051330 0.260000 0.290000 23.699909 -20.032634 20.745593 500.000000
-0.260000 0.258344 0.290000 98.871825 33.668872 39.388876 500.000000
0.260000 0.260000 0.290000 -78.209675 -170.174803 16.128920 500.000000
0.073173 0.205740 0.290000 -37.365468 8.037315 27.185094 500.000000
-0.157886 0.090000 0.290000 -83.577243 43.321678 29.749694 500.000000
0.260000 0.260000 0.290000 -59.993319 -72.267488 16.535958 500.000000
0.070381 0.090000 0.290000 -37.923717 23.148410 18.765882 500.000000
0.260000 0.090000 0.290000 -84.748789 178.869857 21.331043 500.000000
0.231982 0.090000 0.410000 98.396388 61.572142 -493.581259 500.000000
0.260000 0.208697 0.290000 -52.915845 23.739439 22.589391 500.000000
-0.260000 0.090000 0.290000 86.056875 24.236575 235.659527 500.000000
-0.260000 0.260000 0.290000 73.730100 -135.314812 23.881168 500.000000
0.021778 0.260000 0.410000 56.355536 -52.292144 -72.293718 500.000000
-0.260000 0.260000 0.290000 61.105029 -34.099358 39.082681 500.000000
-0.078209 0.260000 0.290000 -4.887560 -20.101358 21.983007 500.000000
0.260000 0.225087 0.410000 -81.145622 27.017403 -18.995564 500.000000
0.260000 0.260000 0.323307 -16.561181 -19.251958 -17.338516 500.000000
0.260000 0.090000 0.290000 -54.879286 61.519204 77.385361 500.000000
-0.037732 0.260000 0.290000 13.292318 -30.637528 25.062505 500.000000
-0.260000 0.229750 0.290000 61.085005 27.949993 38.321624 500.000000
-0.121644 0.090000 0.290000 -76.328749 63.610145 22.730388 500.000000
0.023007 0.090000 0.290000 56.601413 56.208553 76.956164 500.000000
0.260000 0.090000 0.410000 -106.052568 26.148947 -101.320642 500.000000
0.260000 0.090000 0.410000 -123.291841 25.247634 -117.583124 500.000000
-0.260000 0.260000 0.410000 132.245256 -57.262036 -42.462664 500.000000
0.260000 0.090000 0.410000 -121.104220 24.168961 -107.568520 500.000000
-0.037608 0.090000 0.410000 -59.521662 33.009530 -72.034073 500.000000
-0.260000 0.230270 0.290000 104.519191 28.053911 25.103220 500.000000
0.260000 0.260000 0.290000 -39.262427 -25.760814 21.026354 500.000000
-0.260000 0.260000 0.290000 58.760257 -17.811651 39.377684 500.000000
-0.260000 0.090000 0.410000 39.479220 129.503852 -10.200476 500.000000
0.260000 0.090000 0.410000 -128.766311 30.934910 -119.736128 500.000000
0.133319 0.090000 0.290000 44.770028 99.054528 14.650773 500.000000
-0.260000 0.211034 0.290000 101.123271 24.206865 37.292868 500.000000
0.260000 0.090000 0.410000 -123.834511 24.819481 -117.565420 500.000000
-0.260000 0.090000 0.290000 43.280079 35.084939 27.418794 500.000000
0.130468 0.142858 0.326640 -25.906474 -23.428490 -16.671956 500.000000
-0.255449 0.090000 0.290000 -103.089814 40.026886 24.508675 500.000000
-0.260000 0.260000 0.410000 108.701481 -49.193471 -47.364057 500.000000
-0.260000 0.095545 0.410000 184.592808 -32.890967 -14.636544 500.000000
0.260000 0.090000 0.290000 -96.805324 35.984729 555.848368 500.000000
0.260000 0.240054 0.410000 -209.015845 30.010825 -81.706211 500.000000
-0.260000 0.256334 0.410000 63.541325 33.266734 -46.993134 500.000000
-0.260000 0.260000 0.410000 59.738827 -50.171259 -321.444072 500.000000
-0.260000 0.090000 0.290000 72.703051 38.877898 24.525069 500.000000
-0.148931 0.090000 0.290000 -81.786257 43.595050 29.945864 500.000000
-0.239632 0.260000 0.410000 -31.607032 -56.038683 -18.417902 500.000000
-0.023725 0.260000 0.410000 -56.744928 -185.082586 -20.921764 500.000000
-0.260000 0.090000 0.410000 97.748508 27.866162 -16.008847 500.000000
-0.076000 0.090000 0.290000 -67.199978 39.937985 24.678389 500.000000
-0.260000 0.258317 0.290000 95.866715 33.663463 38.732802 500.000000
-0.260000 0.207666 0.410000 60.732800 23.533229 -46.155090 500.000000
0.209584 0.203043 0.410000 93.916891 22.608647 -77.292232 500.000000
-0.260000 0.260000 0.290000 51.898009 -48.255857 41.422175 500.000000
-0.260000 0.090000 0.410000 203.965533 42.451900 -73.460746 500.000000
-0.161749 0.260000 0.290000 -30.792381 -39.718197 39.599442 500.000000
-0.086866 0.260000 0.410000 34.626816 -20.183262 -74.788830 500.000000
-0.260000 0.191735 0.347151 63.462817 20.346999 -12.569771 500.000000
0.260000 0.090000 0.410000 -131.072012 25.508943 -300.459217 500.000000
-0.260000 0.090000 0.290000 92.984073 39.696268 22.032330 500.000000
-0.260000 0.257189 0.290000 79.797647 33.437853 39.395327 500.000000
-0.119466 0.090000 0.290000 -75.893270 42.649328 23.597851 500.000000
0.003074 0.260000 0.290000 52.614744 -51.500843 371.968646 500.000000
-0.155766 0.090000 0.290000 -83.153242 43.555621 30.025131 500.000000
0.008549 0.090000 0.290000 53.709710 38.903375 75.497459 500.000000
0.260000 0.260000 0.290000 -476.483289 -19.941991 14.433194 500.000000
-0.046034 0.108390 0.300634 -18.737594 -30.321913 -21.873210 500.000000
-0.260000 0.260000 0.410000 36.505408 -18.609669 -42.993757 500.000000
0.244854 0.128750 0.397163 49.328614 -26.250098 21.432534 500.000000
-0.260000 0.260000 0.290000 54.072682 -17.409227 37.485936 500.000000
-0.168376 0.161965 0.410000 -85.675283 -4.531653 -24.926324 500.000000
-0.138019 0.090000 0.290000 -53.426776 148.718037 13.680254 500.000000
0.260000 0.090000 0.290000 -146.132452 32.931557 19.671888 500.000000
-0.036800 0.090000 0.290000 44.640021 35.191467 73.978642 500.000000
-0.260000 0.256432 0.290000 71.677728 33.286312 37.112306 500.000000
0.014362 0.090000 0.290000 54.872422 40.125779 337.039014 500.000000
-0.015177 0.194620 0.410000 48.964584 20.923907 -79.440735 500.000000
-0.028393 0.260000 0.375559 46.321318 -15.758634 17.111882 500.000000
0.260000 0.090000 0.410000 -124.508402 35.592378 -111.510558 500.000000
-0.123866 0.090000 0.290000 -76.773255 57.264793 23.567410 500.000000
-0.260000 0.260000 0.290000 53.614995 -30.836007 36.525865 500.000000
-0.260000 0.090000 0.290000 91.582408 67.787503 24.877346 500.000000
0.260000 0.225274 0.290000 -320.043425 27.054860 33.933848 500.000000
-0.251036 0.090000 0.410000 -102.207108 37.912664 -69.725257 500.000000
0.260000 0.260000 0.290000 -110.780438 -26.295233 17.338289 500.000000
0.260000 0.105071 0.410000 -104.386669 -30.985759 -22.476024 500.000000
-0.260000 0.260000 0.290000 133.104997 -21.163923 21.048143 500.000000
0.173965 0.090000 0.290000 86.793048 76.091306 76.258267 500.000000
-0.260000 0.260000 0.290000 107.472919 -17.083617 39.413029 500.000000
0.260000 0.260000 0.290000 -40.941489 -34.936871 9.107727 500.000000
0.260000 0.090000 0.410000 -124.762670 32.522092 -110.639354 500.000000
0.260000 0.183834 0.349041 -79.237043 18.766828 -12.191759 500.000000
-0.260000 0.260000 0.290000 53.753871 -65.746469 39.499005 500.000000
-0.186812 0.215282 0.290000 -89.362366 25.056384 25.831206 500.000000
0.078817 0.090000 0.290000 -36.236577 17.296117 13.819134 500.000000
-0.260000 0.260000 0.290000 23.285763 -60.442509 19.681469 500.000000
-0.260000 0.090000 0.290000 124.632169 38.164232 24.512136 500.000000
-0.260000 0.090000 0.410000 55.461394 18.709803 -23.543315 500.000000
-0.260000 0.149864 0.290000 32.528632 -22.027217 18.913846 500.000000
-0.260000 0.176210 0.410000 55.770233 17.242049 -45.119760 500.000000
0.050209 0.090000 0.290000 62.041869 70.631594 76.053046 500.000000
0.260000 0.260000 0.410000 -41.825898 -30.405949 -22.396036 500.000000
0.052400 0.090000 0.290000 62.480088 78.988105 79.007703 500.000000
0.260000 0.181773 0.410000 -71.602364 18.354524 -168.937598 500.000000
0.182434 0.260000 0.291902 48.668616 -18.418203 -9.386086 500.000000
0.260000 0.090000 0.290000 -97.030364 26.699102 565.937446 500.000000
-0.260000 0.172664 0.410000 67.517955 -17.467149 -89.348135 500.000000
-0.260000 0.237253 0.290000 77.109177 29.450645 51.654056 500.000000
0.095538 0.210455 0.290000 71.107672 24.091004 22.600360 500.000000
0.024507 0.260000 0.290000 32.610960 -17.245196 18.476848 500.000000
0.260000 0.090000 0.290000 -178.951434 53.195784 78.506243 500.000000
-0.260000 0.260000 0.369377 74.623072 -41.170027 15.875403 500.000000
-0.260000 0.090000 0.410000 58.342719 228.721289 -89.300502 500.000000
-0.012580 0.090000 0.410000 -54.515978 101.288889 -65.407159 500.000000
-0.124060 0.231602 0.290000 -43.681912 28.320392 34.380026 500.000000
-0.260000 0.090000 0.410000 30.428875 20.984247 -38.822744 500.000000
0.260000 0.090000 0.290000 -52.508241 60.701059 77.312746 500.000000
-0.260000 0.090000 0.290000 63.575585 267.812655 284.514121 500.000000
0.071109 0.090000 0.290000 66.221860 61.255163 80.408423 500.000000
0.260000 0.260000 0.410000 -54.730358 -182.310087 -42.774255 500.000000
-0.116527 0.260000 0.290000 28.694567 -18.779833 153.355620 500.000000
-0.260000 0.090000 0.290000 39.270759 135.603684 16.157730 500.000000
