ply
format ascii 1.0
element vertex 240
property float x
property float y
property float z
property float vx
property float vy
property float vz
property float density
end_header
0.260000 0.254333 0.290000 -109.043623 32.866691 32.418504 500.000000
0.260000 0.090000 0.410000 -98.876839 457.431841 -68.518730 500.000000
0.222085 0.090000 0.290000 96.416962 83.372124 35.322890 500.000000
-0.260000 0.090000 0.290000 79.402073 419.041115 63.023425 500.000000
0.260000 0.090000 0.410000 -69.654281 109.807854 -34.746401 500.000000
0.260000 0.090000 0.410000 -266.702593 474.453275 -81.123014 500.000000
-0.193667 0.260000 0.410000 -90.733384 -77.204034 -111.386323 500.000000
0.260000 0.183625 0.290000 -79.271912 18.724926 13.999556 500.000000
0.260000 0.090000 0.410000 -62.397047 540.366944 -108.327009 500.000000
0.260000 0.090000 0.410000 -65.658127 592.039849 -94.201771 500.000000
-0.260000 0.094792 0.290000 135.524469 -33.041612 215.063096 500.000000
-0.260000 0.260000 0.346133 44.408374 -20.366334 -12.773303 500.000000
-0.150545 0.090000 0.290000 -4.381873 14.543338 29.109035 500.000000
0.180241 0.260000 0.410000 88.048265 -203.607208 -57.066673 500.000000
0.191329 0.260000 0.410000 90.265750 -62.821266 -55.238182 500.000000
-0.260000 0.260000 0.290000 82.333995 -53.091496 82.444780 500.000000
-0.260000 0.260000 0.290000 87.504770 -30.855456 70.513673 500.000000
-0.260000 0.090000 0.410000 83.281507 31.422325 -61.791580 500.000000
0.017925 0.189783 0.410000 3.799537 19.956550 -28.866072 500.000000
-0.212360 0.090000 0.290000 -94.471917 437.717588 25.436949 500.000000
0.260000 0.252867 0.290000 -94.019606 32.573337 32.446332 500.000000
0.260000 0.090000 0.410000 -57.358133 630.497182 -83.013110 500.000000
0.260000 0.227499 0.290000 -102.517647 27.499847 16.213276 500.000000
-0.177773 0.090000 0.290000 -87.554522 32.407283 436.714233 500.000000
-0.034443 0.260000 0.290000 45.111451 -20.912667 17.673236 500.000000
-0.215685 0.260000 0.290000 -95.136950 -699.696342 45.963360 500.000000
-0.260000 0.260000 0.290000 56.025878 -23.677924 16.570025 500.000000
0.058240 0.260000 0.410000 63.647987 -63.345853 -30.207313 500.000000
0.260000 0.090000 0.364072 -126.136312 18.768962 14.814453 500.000000
-0.260000 0.090000 0.410000 257.916547 23.296323 -62.362646 500.000000
-0.260000 0.090000 0.290000 76.777141 427.430807 43.595972 500.000000
-0.012164 0.101123 0.336909 18.099088 -31.775368 -14.618123 500.000000
0.260000 0.260000 0.290000 -236.827634 -35.458448 32.878987 500.000000
-0.016631 0.090000 0.290000 -26.629217 38.530078 22.089746 500.000000
-0.260000 0.260000 0.290000 79.248969 -47.687500 61.333742 500.000000
0.127372 0.260000 0.410000 -26.525570 -31.376474 -89.850526 500.000000
-0.221753 0.260000 0.410000 -96.350593 -42.795918 -98.042629 500.000000
0.204312 0.260000 0.410000 92.862417 -119.710424 -33.061999 500.000000
-0.122997 0.260000 0.410000 -76.599451 -34.686283 -93.918405 500.000000
-0.139640 0.090000 0.290000 3.175106 20.695078 101.736022 500.000000
0.202159 0.090000 0.290000 11.586570 56.582413 17.695194 500.000000
-0.219801 0.260000 0.290000 -95.960201 -613.984145 45.983478 500.000000
0.187290 0.260000 0.410000 89.457907 -121.670009 -42.133544 500.000000
0.260000 0.260000 0.410000 -54.434698 -128.531127 -38.485100 500.000000
0.260000 0.260000 0.372803 -70.775506 -53.657196 16.560648 500.000000
-0.260000 0.090000 0.410000 115.163630 39.105586 -528.432072 500.000000
0.260000 0.260000 0.290000 -301.782638 -33.064566 42.554834 500.000000
0.260000 0.260000 0.410000 -54.686655 -868.608381 -22.226372 500.000000
-0.260000 0.090000 0.290000 62.042913 451.040837 62.301604 500.000000
-0.260000 0.260000 0.410000 24.347837 -20.370741 -32.067283 500.000000
-0.260000 0.090000 0.410000 101.910197 20.052341 -66.205436 500.000000
-0.260000 0.260000 0.290000 100.663005 -79.774724 64.331433 500.000000
-0.260000 0.260000 0.290000 59.435354 -28.818846 70.741514 500.000000
0.260000 0.090000 0.290000 -140.805850 134.973149 53.198735 500.000000
-0.260000 0.090000 0.290000 67.302671 524.517868 52.451216 500.000000
0.249444 0.090000 0.377751 71.645459 23.092427 17.550142 500.000000
0.260000 0.260000 0.290000 -321.232889 -29.123320 13.060714 500.000000
0.193724 0.260000 0.410000 90.744794 -128.083241 -67.649601 500.000000
-0.260000 0.090000 0.410000 100.051059 24.032943 -48.630013 500.000000
-0.260000 0.090000 0.290000 77.430387 427.485501 50.733803 500.000000
-0.260000 0.090000 0.290000 77.643119 506.868304 44.149291 500.000000
0.260000 0.260000 0.290000 -77.032892 -90.239697 561.900213 500.000000
0.211687 0.090000 0.410000 94.337385 459.447200 -111.141705 500.000000
0.184922 0.260000 0.410000 88.984484 -124.216844 -65.108621 500.000000
0.260000 0.090000 0.410000 -87.138489 455.969872 -75.654504 500.000000
-0.260000 0.260000 0.290000 108.694861 -61.987989 21.461619 500.000000
0.131372 0.260000 0.410000 78.274451 -239.115622 -64.517793 500.000000
-0.260000 0.260000 0.290000 74.508779 -46.889228 61.400944 500.000000
0.128405 0.090000 0.410000 77.681074 654.598832 -52.441556 500.000000
-0.260000 0.090000 0.290000 74.997886 432.480949 30.966588 500.000000
0.233525 0.090000 0.410000 98.705084 469.263714 -86.860169 500.000000
-0.018495 0.226740 0.290000 48.300986 4.217987 40.560920 500.000000
-0.260000 0.260000 0.290000 63.209065 -24.381015 116.083296 500.000000
0.018281 0.260000 0.290000 -48.343734 -33.647648 503.381621 500.000000
0.260000 0.260000 0.410000 -67.564933 -584.016653 -30.473740 500.000000
0.260000 0.090000 0.290000 -136.127948 219.446097 672.518582 500.000000
-0.085652 0.260000 0.325492 -16.253072 -98.540422 -16.901507 500.000000
-0.260000 0.260000 0.290000 81.140143 -46.719129 61.052834 500.000000
-0.250096 0.260000 0.290000 -102.019132 -535.451274 48.171332 500.000000
-0.217770 0.260000 0.410000 -95.554063 -52.068113 -122.085765 500.000000
0.260000 0.260000 0.410000 -67.453848 -839.436373 -30.185569 500.000000
0.260000 0.260000 0.410000 -67.546401 -669.570761 -30.435505 500.000000
0.142705 0.090000 0.410000 -23.459025 351.091323 -28.532565 500.000000
0.260000 0.260000 0.410000 -67.674310 -414.710896 -30.745224 500.000000
-0.043868 0.260000 0.333103 -30.383048 -44.526230 -15.379436 500.000000
0.260000 0.260000 0.410000 -60.646852 -73.613001 -18.300069 500.000000
-0.260000 0.260000 0.290000 84.549110 -52.812565 77.414082 500.000000
0.048773 0.161487 0.290000 37.750015 -19.702636 15.441978 500.000000
0.260000 0.260000 0.410000 -67.716132 -155.798082 -30.604503 500.000000
-0.086382 0.260000 0.410000 34.723563 -28.113350 -64.182879 500.000000
0.260000 0.260000 0.410000 -168.612344 -64.560332 -30.629313 500.000000
-0.260000 0.260000 0.410000 78.577470 -45.622406 -103.234474 500.000000
-0.145473 0.260000 0.290000 -81.094521 -47.514686 36.519372 500.000000
0.162887 0.224266 0.290000 60.937344 26.853119 13.172029 500.000000
-0.223131 0.090000 0.290000 -96.626247 435.413275 24.283523 500.000000
-0.260000 0.260000 0.410000 181.707410 -59.362568 -117.092144 500.000000
0.260000 0.090000 0.290000 -537.714217 52.649541 37.386063 500.000000
-0.260000 0.260000 0.290000 61.680248 -53.326417 113.715519 500.000000
-0.260000 0.090000 0.410000 76.768912 19.718716 -48.141897 500.000000
-0.260000 0.090000 0.410000 61.797376 34.443841 -58.195083 500.000000
-0.260000 0.090000 0.290000 70.612673 431.911700 31.262056 500.000000
0.260000 0.107641 0.360351 -41.868935 -30.471722 14.070161 500.000000
-0.212005 0.260000 0.290000 -94.400941 -786.043134 45.971587 500.000000
-0.224785 0.260000 0.290000 -96.957059 -528.951746 45.996344 500.000000
-0.115523 0.260000 0.290000 28.895496 -213.340364 26.540523 500.000000
0.145232 0.090000 0.410000 -22.953693 51.239306 -417.276096 500.000000
-0.260000 0.090000 0.290000 76.843673 426.981699 50.745137 500.000000
-0.260000 0.260000 0.410000 232.979294 -88.836841 -81.105012 500.000000
0.038661 0.109565 0.410000 0.891939 -30.087042 -75.682930 500.000000
-0.260000 0.260000 0.297018 30.018085 -56.517181 -22.596437 500.000000
0.260000 0.260000 0.297087 -97.931416 -18.948785 -22.582687 500.000000
-0.260000 0.090000 0.410000 62.375598 37.042348 -69.377487 500.000000
-0.260000 0.260000 0.290000 88.834495 -46.598015 61.476227 500.000000
0.069565 0.090000 0.410000 65.912984 451.221178 -169.372279 500.000000
0.260000 0.260000 0.410000 -58.451409 -766.660916 -38.121986 500.000000
0.185305 0.260000 0.410000 89.060956 -56.787053 -59.949733 500.000000
-0.260000 0.260000 0.290000 76.243961 -24.971410 70.235392 500.000000
-0.260000 0.090000 0.290000 77.008591 442.438233 50.846812 500.000000
-0.260000 0.090000 0.410000 131.492849 57.414870 -86.485201 500.000000
-0.260000 0.090000 0.290000 77.053449 436.789015 50.953167 500.000000
-0.260000 0.260000 0.290000 88.947527 -50.303174 61.324736 500.000000
0.260000 0.090000 0.391713 -51.316822 21.350921 -3.657430 500.000000
-0.207036 0.260000 0.410000 -93.407109 -47.244249 -84.204031 500.000000
-0.260000 0.260000 0.290000 78.541298 -47.291810 61.331065 500.000000
-0.102444 0.260000 0.410000 -72.488861 -37.134443 -94.223366 500.000000
-0.260000 0.110567 0.410000 64.448638 -29.886587 -54.595359 500.000000
0.260000 0.090000 0.410000 -150.820823 42.821867 -18.666160 500.000000
0.260000 0.090000 0.410000 -74.243758 458.100904 -108.040400 500.000000
-0.203548 0.260000 0.290000 -92.709543 -974.104267 48.067366 500.000000
0.240362 0.260000 0.410000 100.072425 -130.579154 -62.145171 500.000000
0.073680 0.117925 0.410000 15.561562 -28.415036 -18.750272 500.000000
-0.260000 0.260000 0.290000 88.753459 -52.843386 77.418428 500.000000
0.260000 0.090000 0.410000 -84.869026 458.128715 -77.829404 500.000000
0.045033 0.090000 0.290000 61.006584 67.702457 36.296644 500.000000
-0.260000 0.090000 0.410000 690.946066 17.038925 -56.776482 500.000000
-0.260000 0.260000 0.290000 66.421553 -613.289548 40.099070 500.000000
0.140164 0.090000 0.410000 30.559942 21.060694 -152.490319 500.000000
-0.084201 0.090000 0.410000 35.159747 43.744517 -45.565312 500.000000
0.260000 0.260000 0.410000 -45.147226 -27.495368 -42.161766 500.000000
-0.048431 0.260000 0.410000 -61.686215 -86.422920 -467.942442 500.000000
0.260000 0.260000 0.410000 -67.507017 -75.047075 -30.661221 500.000000
0.260000 0.260000 0.410000 -67.642599 -327.471973 -30.642409 500.000000
0.260000 0.260000 0.410000 -77.152829 -52.248600 -25.312608 500.000000
0.260000 0.260000 0.410000 -67.451309 -752.802488 -30.165381 500.000000
0.260000 0.090000 0.410000 -391.080979 34.494796 -48.136997 500.000000
0.260000 0.090000 0.290000 -84.431756 75.532924 43.284791 500.000000
-0.260000 0.090000 0.410000 72.794107 80.042666 -158.472589 500.000000
-0.260000 0.260000 0.290000 76.445343 -52.618515 77.441626 500.000000
0.096072 0.260000 0.410000 46.381171 -127.690001 -30.953767 500.000000
0.260000 0.260000 0.410000 -68.598485 -39.764591 -32.463440 500.000000
-0.260000 0.090000 0.410000 79.235364 21.745368 -66.710223 500.000000
-0.260000 0.090000 0.290000 60.091282 44.787414 24.710948 500.000000
0.260000 0.260000 0.410000 -67.588377 -497.636332 -30.514109 500.000000
-0.208878 0.260000 0.290000 -93.775523 -922.513749 45.715633 500.000000
0.171337 0.150519 0.410000 29.933998 -21.896119 -2.130061 500.000000
0.060932 0.090000 0.290000 64.186359 80.421631 40.508382 500.000000
-0.094962 0.260000 0.410000 -70.992477 -43.183063 -91.006330 500.000000
-0.260000 0.260000 0.290000 82.749461 -56.388482 62.501362 500.000000
-0.260000 0.260000 0.290000 99.349854 -447.321496 52.902501 500.000000
0.260000 0.260000 0.410000 -83.964443 -342.693517 -78.534871 500.000000
0.260000 0.090000 0.410000 -77.228971 469.816002 -69.582365 500.000000
-0.260000 0.090000 0.410000 704.456580 331.423297 -45.555599 500.000000
-0.218447 0.260000 0.290000 -95.689378 -442.451320 46.003287 500.000000
-0.260000 0.260000 0.290000 58.362341 -77.244949 64.204497 500.000000
0.260000 0.090000 0.410000 -57.274885 622.148277 -90.729044 500.000000
-0.063623 0.090000 0.290000 39.275365 40.733101 73.783642 500.000000
-0.260000 0.260000 0.290000 214.681794 -29.119995 15.687961 500.000000
-0.260000 0.260000 0.290000 53.554808 -72.198383 64.083458 500.000000
-0.260000 0.090000 0.290000 77.006261 439.489242 50.942938 500.000000
0.260000 0.090000 0.410000 -87.511447 450.623251 -75.402315 500.000000
0.133811 0.260000 0.410000 78.762253 -135.431501 -23.771284 500.000000
0.260000 0.256903 0.290000 -96.608372 33.380562 32.765927 500.000000
0.045430 0.104224 0.361921 -0.410809 -31.155272 14.384268 500.000000
-0.260000 0.090000 0.290000 75.845111 567.363486 27.581556 500.000000
0.260000 0.195296 0.399071 -30.246847 4.509092 12.648237 500.000000
-0.091674 0.260000 0.290000 -70.334720 -531.712965 26.754412 500.000000
0.260000 0.260000 0.410000 -67.802374 -242.904149 -33.572744 500.000000
0.095760 0.260000 0.410000 -32.847915 -51.434502 -123.308404 500.000000
-0.260000 0.090000 0.290000 76.737296 441.097968 50.953259 500.000000
0.260000 0.260000 0.410000 -68.515786 -731.490815 -62.032537 500.000000
-0.260000 0.235923 0.410000 259.934416 29.184646 -74.505085 500.000000
-0.260000 0.260000 0.290000 59.986122 -72.932565 64.079437 500.000000
-0.260000 0.260000 0.290000 120.143250 -32.447375 16.410533 500.000000
0.260000 0.207903 0.290000 -82.716292 23.580516 16.679111 500.000000
-0.260000 0.090000 0.290000 59.219362 416.773748 185.387540 500.000000
-0.260000 0.176991 0.410000 73.156349 -16.601704 -58.022221 500.000000
-0.260000 0.260000 0.290000 83.263996 -47.068984 78.957903 500.000000
0.260000 0.260000 0.290000 -76.734922 -30.233601 29.635304 500.000000
0.260000 0.090000 0.371331 -29.621023 22.775833 16.266247 500.000000
0.260000 0.090000 0.410000 -80.867442 451.630785 -78.527896 500.000000
-0.260000 0.090000 0.290000 103.616179 431.873440 27.425297 500.000000
-0.260000 0.090000 0.290000 53.288738 439.678445 24.088562 500.000000
-0.260000 0.090000 0.290000 76.593825 443.075112 50.917656 500.000000
0.260000 0.090000 0.290000 -954.739374 275.156514 68.677226 500.000000
-0.156367 0.090000 0.290000 20.726571 26.206908 110.467148 500.000000
0.260000 0.260000 0.410000 -13.777837 -7.433799 -6.175429 500.000000
0.260000 0.090000 0.410000 -69.298838 84.158769 -33.928262 500.000000
-0.230693 0.260000 0.290000 -98.138632 -40.860608 484.354975 500.000000
0.260000 0.254804 0.290000 -91.468772 32.960801 32.728954 500.000000
-0.260000 0.260000 0.290000 54.111583 -531.222301 48.496303 500.000000
-0.260000 0.090000 0.290000 94.972649 43.129646 24.654713 500.000000
0.260000 0.260000 0.410000 -76.627896 -806.772474 -24.153548 500.000000
0.260000 0.208898 0.290000 -93.238750 23.779647 13.109220 500.000000
-0.260000 0.260000 0.290000 35.462135 -19.135228 31.406848 500.000000
-0.231926 0.260000 0.410000 -98.385257 -52.071031 -128.740541 500.000000
0.260000 0.108325 0.290000 -48.215959 3.664960 12.692417 500.000000
-0.260000 0.260000 0.290000 82.559006 -52.587204 76.989118 500.000000
-0.260000 0.090000 0.410000 73.730380 72.732398 -150.969562 500.000000
0.260000 0.090000 0.410000 -68.791813 30.309708 -32.850748 500.000000
0.260000 0.260000 0.410000 -89.723105 -117.943690 -21.970416 500.000000
-0.260000 0.260000 0.290000 292.588951 -17.029896 36.308343 500.000000
0.260000 0.090000 0.290000 -1114.439849 358.591462 22.501502 500.000000
-0.260000 0.090000 0.290000 54.886358 423.874606 144.250135 500.000000
-0.214030 0.260000 0.410000 -94.805966 -47.951565 -94.222663 500.000000
-0.225571 0.260000 0.290000 -97.114190 -871.080000 45.940181 500.000000
-0.260000 0.090000 0.290000 76.836685 418.957854 67.653585 500.000000
0.077301 0.090000 0.410000 67.460250 454.985359 -66.037856 500.000000
0.095761 0.193761 0.410000 -32.847876 6.171020 -18.752209 500.000000
-0.217271 0.260000 0.290000 -95.454275 -979.552108 46.248410 500.000000
0.260000 0.090000 0.309858 -57.764913 18.511486 -20.028335 500.000000
-0.260000 0.260000 0.290000 148.320005 -44.330226 13.219392 500.000000
0.260000 0.260000 0.290000 -100.583408 -36.116239 210.721970 500.000000
0.260000 0.090000 0.402482 -134.597674 38.154639 22.496446 500.000000
-0.260000 0.260000 0.290000 90.305354 -507.374641 54.033390 500.000000
-0.260000 0.260000 0.290000 33.586813 -52.268103 248.973190 500.000000
0.135183 0.090000 0.290000 79.036696 92.941387 33.956472 500.000000
0.170480 0.260000 0.410000 -1.142439 -9.013845 -16.154386 500.000000
0.072696 0.260000 0.401486 -37.460817 -31.040455 22.297132 500.000000
-0.197567 0.090000 0.290000 -91.513419 431.747577 26.902760 500.000000
-0.260000 0.090000 0.290000 95.214161 435.452300 18.580688 500.000000
0.260000 0.090000 0.410000 -102.616689 460.712659 -69.250473 500.000000
-0.087650 0.260000 0.410000 -69.530048 -46.480449 -621.665235 500.000000
-0.260000 0.090000 0.290000 72.408481 438.837982 23.129371 500.000000
0.260000 0.260000 0.410000 -92.710356 -104.846853 -49.638407 500.000000
-0.260000 0.260000 0.290000 65.978998 -670.126249 39.913342 500.000000
-0.260000 0.090000 0.290000 77.239507 421.140121 54.776008 500.000000
0.123759 0.260000 0.410000 -13.983268 -21.366154 -166.403566 500.000000
-0.260000 0.260000 0.290000 76.161571 -45.968874 58.462522 500.000000
-0.260000 0.260000 0.290000 67.846625 -609.466476 34.973141 500.000000
-0.260000 0.114797 0.410000 669.606064 -29.040502 -76.674354 500.000000
