ply
format ascii 1.0
element vertex 240
property float x
property float y
property float z
property float vx
property float vy
property float vz
property float density
end_header
0.260000 0.090000 0.290000 -83.546185 101.772341 15.217868 500.000000
0.158515 0.090000 0.333692 -20.296912 127.017046 -15.261592 500.000000
0.260000 0.090000 0.364175 -136.456289 86.288534 14.835035 500.000000
-0.260000 0.260000 0.290000 54.056564 -42.273703 115.474381 500.000000
-0.192709 0.090000 0.290000 -90.541815 38.164607 20.044664 500.000000
-0.260000 0.090000 0.410000 512.491324 948.524444 -49.195142 500.000000
-0.085432 0.212409 0.410000 -4.536753 24.481824 -82.122626 500.000000
0.260000 0.090000 0.374340 -129.191650 93.620421 16.868088 500.000000
-0.205954 0.090000 0.410000 -93.190718 96.909370 -14.361962 500.000000
0.260000 0.260000 0.410000 -241.172951 -43.744104 -43.571937 500.000000
-0.260000 0.260000 0.375610 703.822860 -677.757346 17.122065 500.000000
-0.256370 0.260000 0.290000 -103.274069 -35.182164 54.597328 500.000000
-0.260000 0.260000 0.375133 563.405177 -418.435234 17.026577 500.000000
-0.086481 0.090000 0.290000 -69.296115 105.135326 27.011191 500.000000
0.260000 0.260000 0.375602 -210.499916 -32.949803 17.120443 500.000000
0.260000 0.260000 0.290000 -51.404528 -158.389382 17.008460 500.000000
0.260000 0.260000 0.374456 -518.865972 -663.109396 16.891231 500.000000
-0.081899 0.090000 0.290000 -45.918208 44.156408 28.461820 500.000000
-0.260000 0.260000 0.290000 63.110313 -32.752104 53.852769 500.000000
-0.260000 0.260000 0.290000 37.515480 -21.769587 38.212240 500.000000
0.260000 0.260000 0.290000 -35.921562 -19.013561 19.084057 500.000000
-0.260000 0.090000 0.290000 98.339569 22.627682 26.153281 500.000000
0.260000 0.090000 0.410000 -98.729354 56.156462 -15.926008 500.000000
0.201857 0.090000 0.410000 38.155224 47.531643 -15.524712 500.000000
-0.260000 0.260000 0.410000 792.954583 -58.032750 -88.127629 500.000000
0.130036 0.260000 0.290000 78.007169 -49.692296 23.668472 500.000000
0.260000 0.090000 0.290000 -111.424212 112.968262 30.340610 500.000000
-0.087789 0.260000 0.375139 16.875281 -362.662712 17.027769 500.000000
0.260000 0.090000 0.410000 -168.681400 70.026125 -14.797115 500.000000
-0.106125 0.090000 0.290000 -36.607908 251.229613 19.167623 500.000000
-0.126552 0.090000 0.290000 -77.310469 86.107022 27.020491 500.000000
0.260000 0.090000 0.367788 -128.922960 66.082223 15.557522 500.000000
-0.234605 0.260000 0.290000 -19.028145 -49.223022 20.486449 500.000000
-0.260000 0.260000 0.290000 195.117128 -105.372511 32.551608 500.000000
0.202263 0.260000 0.404095 76.703131 -395.887370 22.818991 500.000000
-0.238494 0.090000 0.410000 -99.698854 103.353066 -120.983025 500.000000
-0.260000 0.260000 0.290000 113.564069 -48.088585 22.907277 500.000000
0.180819 0.208481 0.290000 -15.836242 23.696151 16.506241 500.000000
-0.260000 0.090000 0.375585 226.868356 28.629298 17.117084 500.000000
0.260000 0.090000 0.410000 -128.877559 67.608638 -46.221678 500.000000
-0.260000 0.260000 0.375136 103.797748 -615.927873 17.027148 500.000000
0.151229 0.260000 0.290000 82.245773 -49.704877 23.514579 500.000000
-0.260000 0.260000 0.410000 643.967153 -371.338708 -13.275880 500.000000
0.260000 0.090000 0.410000 -616.747684 576.186581 -31.288678 500.000000
0.214795 0.090000 0.290000 94.958960 112.910754 31.268595 500.000000
-0.260000 0.090000 0.290000 90.830956 28.096399 29.391141 500.000000
0.246666 0.090000 0.410000 101.333294 70.852056 -43.110899 500.000000
0.070901 0.260000 0.410000 -37.819896 -21.574604 -69.238361 500.000000
-0.113398 0.090000 0.290000 -74.679547 21.238190 29.524524 500.000000
0.260000 0.260000 0.290000 -233.430324 -31.026354 38.018735 500.000000
-0.045691 0.090000 0.410000 -61.138204 118.684475 -48.693397 500.000000
-0.258955 0.090000 0.290000 -30.527359 24.389528 33.693329 500.000000
-0.260000 0.090000 0.410000 220.272410 113.197707 -13.061260 500.000000
0.229598 0.090000 0.333792 97.919532 199.139021 -15.241524 500.000000
0.260000 0.260000 0.410000 -92.440348 -472.647773 -106.805433 500.000000
-0.092193 0.090000 0.375179 16.475154 947.875404 17.035790 500.000000
-0.260000 0.090000 0.375124 204.629659 655.888342 17.024896 500.000000
0.260000 0.260000 0.410000 -240.832383 -37.759935 -47.201409 500.000000
-0.260000 0.090000 0.290000 47.470133 39.540528 48.898373 500.000000
0.260000 0.090000 0.360493 -142.345626 71.993869 14.098563 500.000000
0.260000 0.090000 0.375987 -422.328741 385.124436 17.197426 500.000000
-0.104033 0.090000 0.297702 1.160025 12.280047 -5.886973 500.000000
0.073708 0.260000 0.310211 66.741662 -204.407014 -19.957826 500.000000
-0.104275 0.092038 0.410000 -48.482396 -33.592469 -15.582831 500.000000
-0.260000 0.090000 0.410000 915.820216 570.447724 -37.928461 500.000000
-0.260000 0.260000 0.290000 80.971858 -44.732529 82.888415 500.000000
0.169639 0.090000 0.410000 -18.072246 45.334152 -110.597718 500.000000
0.260000 0.260000 0.410000 -257.985126 -29.859815 -42.311634 500.000000
0.260000 0.260000 0.394630 -235.547741 -33.272369 20.926089 500.000000
-0.085096 0.090000 0.290000 -69.019278 33.865682 43.913509 500.000000
-0.151944 0.260000 0.379361 -82.388790 -16.648697 17.872261 500.000000
-0.260000 0.260000 0.290000 32.252451 -49.849805 31.474920 500.000000
0.260000 0.260000 0.410000 -242.564634 -240.853770 -47.747155 500.000000
0.260000 0.215136 0.401987 -250.897120 25.027151 22.397316 500.000000
0.246805 0.090000 0.338071 101.361074 102.445642 -14.385755 500.000000
-0.122729 0.091453 0.290000 -76.545851 -33.709487 23.999514 500.000000
-0.260000 0.260000 0.384395 439.475968 -859.713103 18.879001 500.000000
0.260000 0.090000 0.375576 -79.081181 52.794874 17.115249 500.000000
-0.260000 0.260000 0.400735 366.838059 -877.073835 22.147042 500.000000
0.260000 0.090000 0.364400 -134.948178 93.929014 14.879974 500.000000
-0.217907 0.260000 0.373660 -8.531196 -733.194152 16.732057 500.000000
-0.232395 0.090000 0.334146 -98.478936 19.780807 -15.170857 500.000000
-0.093665 0.260000 0.338181 -4.576619 -21.939397 -14.363852 500.000000
-0.135475 0.090000 0.410000 18.019360 115.280267 -13.607924 500.000000
-0.232653 0.260000 0.410000 -43.530981 -67.034925 -300.066841 500.000000
0.260000 0.090000 0.375410 -235.638730 868.854071 17.081983 500.000000
-0.260000 0.260000 0.290000 22.952419 -52.773364 117.893679 500.000000
-0.260000 0.260000 0.290000 283.463875 -53.593955 21.437152 500.000000
0.260000 0.090000 0.333859 -79.320558 177.474664 -15.228183 500.000000
-0.260000 0.090000 0.375630 949.852931 34.313370 17.126078 500.000000
0.260000 0.090000 0.375572 -428.080055 28.269106 17.114322 500.000000
0.260000 0.139651 0.410000 -84.371985 -24.069772 -15.578331 500.000000
-0.260000 0.090000 0.290000 128.823906 20.333452 31.055913 500.000000
0.260000 0.260000 0.290000 -73.752261 -408.812791 113.351225 500.000000
0.260000 0.148484 0.410000 -33.736873 -22.303176 -15.943328 500.000000
-0.093683 0.090000 0.290000 -70.736659 19.055563 26.933932 500.000000
-0.260000 0.260000 0.410000 563.342036 -59.324777 -73.800202 500.000000
-0.260000 0.260000 0.290000 91.504796 -20.304960 19.989236 500.000000
-0.260000 0.090000 0.290000 63.055544 23.651913 45.262854 500.000000
-0.260000 0.260000 0.375583 539.237830 -113.046503 17.116524 500.000000
0.260000 0.260000 0.290000 -181.177032 -26.459921 36.229849 500.000000
-0.260000 0.090000 0.410000 188.740063 71.506551 -14.462180 500.000000
-0.260000 0.090000 0.290000 290.333967 49.107175 31.435830 500.000000
0.260000 0.090000 0.364068 -131.103772 81.338563 14.813572 500.000000
0.260000 0.128003 0.314712 -16.913435 -12.825519 -19.057632 500.000000
-0.260000 0.260000 0.375141 327.030476 -614.445877 17.028184 500.000000
0.260000 0.185301 0.410000 -79.349214 19.060166 -66.985961 500.000000
-0.243547 0.260000 0.290000 -100.709423 -40.836405 55.038364 500.000000
-0.260000 0.090000 0.375603 835.038431 43.739255 17.120677 500.000000
0.260000 0.090000 0.363039 -144.141229 73.852190 14.607821 500.000000
0.260000 0.090000 0.410000 -248.400966 66.514896 -15.810953 500.000000
0.260000 0.260000 0.381271 -488.985196 -91.756600 18.254250 500.000000
0.082892 0.125389 0.290000 17.786617 7.077780 20.303200 500.000000
0.111235 0.260000 0.290000 28.736784 -49.077795 25.420280 500.000000
0.260000 0.260000 0.290000 -44.290698 -53.150653 92.894270 500.000000
-0.058687 0.260000 0.290000 -63.737456 -74.963662 257.739936 500.000000
-0.260000 0.260000 0.290000 103.705982 -41.000963 105.606473 500.000000
0.260000 0.234585 0.406956 -320.300901 28.916999 23.391121 500.000000
0.058664 0.260000 0.290000 -16.526527 -39.851798 50.800208 500.000000
0.260000 0.090000 0.410000 -133.075399 66.966839 -14.013010 500.000000
0.260000 0.090000 0.365163 -138.366098 109.758338 15.032687 500.000000
-0.260000 0.090000 0.410000 160.963243 80.672532 -13.680793 500.000000
-0.260000 0.090000 0.290000 58.202401 19.928318 27.307738 500.000000
0.260000 0.090000 0.410000 -135.047597 86.997015 -13.610839 500.000000
0.180793 0.149058 0.410000 14.599437 -22.188336 -14.511269 500.000000
-0.233757 0.090000 0.290000 -98.751402 20.434684 30.030202 500.000000
0.260000 0.090000 0.290000 -10.861062 20.891759 29.331174 500.000000
0.260000 0.260000 0.387450 -430.425337 -317.072777 19.489945 500.000000
-0.037917 0.090000 0.410000 9.275338 15.204647 -7.889512 500.000000
-0.260000 0.260000 0.410000 237.428771 -415.774462 -13.788030 500.000000
0.260000 0.170970 0.410000 -91.702293 -17.806072 -14.387449 500.000000
0.086450 0.260000 0.338347 69.289907 -121.865114 -14.330544 500.000000
0.260000 0.260000 0.410000 -243.306526 -39.494042 -42.518925 500.000000
0.260000 0.260000 0.410000 -247.466917 -33.882753 -12.629995 500.000000
-0.260000 0.260000 0.290000 55.035073 -40.212650 57.017553 500.000000
0.260000 0.090000 0.374924 -608.412167 36.330162 16.984843 500.000000
0.260000 0.260000 0.375894 -602.926532 -473.558486 17.178776 500.000000
-0.159450 0.090000 0.376855 -83.890035 44.572841 17.371040 500.000000
0.260000 0.090000 0.349499 -114.079094 62.896981 11.899756 500.000000
-0.149103 0.260000 0.290000 22.179435 -23.866195 82.473983 500.000000
-0.231657 0.090000 0.290000 -98.331314 20.358270 32.250729 500.000000
-0.260000 0.260000 0.410000 97.187219 -79.380636 -76.348550 500.000000
0.069640 0.260000 0.290000 65.928014 -51.968829 22.269048 500.000000
-0.260000 0.260000 0.290000 268.013402 -48.118445 22.875625 500.000000
0.260000 0.260000 0.361627 -67.967301 -291.175831 14.325440 500.000000
-0.260000 0.090000 0.410000 54.588970 98.288518 -46.779659 500.000000
0.260000 0.260000 0.290000 -221.728063 -31.290042 45.399401 500.000000
0.260000 0.260000 0.410000 -272.998979 -17.138810 -13.457644 500.000000
0.030990 0.260000 0.290000 58.198068 -28.569657 72.832255 500.000000
-0.260000 0.260000 0.372801 522.252130 -497.065499 16.560287 500.000000
0.260000 0.260000 0.410000 -390.051323 -48.760856 -13.626948 500.000000
-0.137949 0.260000 0.410000 -79.589845 -28.446335 -74.174073 500.000000
-0.023703 0.090000 0.410000 -56.740567 88.950788 -13.834668 500.000000
-0.260000 0.260000 0.410000 126.146317 -223.627548 -12.198265 500.000000
0.260000 0.090000 0.363054 -470.577468 82.864204 14.610708 500.000000
0.260000 0.090000 0.410000 -208.067389 67.282788 -15.653389 500.000000
-0.260000 0.260000 0.290000 54.448784 -33.519477 58.418475 500.000000
-0.260000 0.090000 0.290000 63.555658 20.221250 31.005370 500.000000
-0.260000 0.260000 0.410000 630.007432 -33.095349 -76.480364 500.000000
0.260000 0.260000 0.290000 -91.547563 -49.243996 25.613145 500.000000
-0.260000 0.239222 0.290000 91.106187 29.844319 45.951387 500.000000
-0.143336 0.260000 0.290000 -80.667176 -40.640882 260.909031 500.000000
0.260000 0.090000 0.410000 -24.128670 22.149834 -15.553374 500.000000
0.260000 0.090000 0.290000 -52.678601 131.078494 43.563430 500.000000
0.105886 0.197304 0.410000 -2.764251 21.460814 -39.842125 500.000000
0.039995 0.260000 0.410000 -44.000949 -56.952257 -71.814484 500.000000
0.260000 0.132016 0.362729 -152.251621 -25.596715 14.545827 500.000000
-0.260000 0.090000 0.364331 680.329660 102.346056 14.866140 500.000000
0.246949 0.090000 0.348642 70.557003 19.871759 -12.271685 500.000000
-0.102719 0.090000 0.410000 -72.543746 124.527682 -13.294695 500.000000
0.099670 0.260000 0.301532 71.933972 -44.539963 -21.693625 500.000000
0.260000 0.223057 0.410000 -48.085493 26.611484 -164.651888 500.000000
-0.260000 0.090000 0.375045 187.503242 483.958713 17.008965 500.000000
-0.092336 0.090000 0.290000 -70.467179 79.436698 26.799326 500.000000
0.205565 0.090000 0.290000 93.112919 104.231681 193.123915 500.000000
-0.180337 0.260000 0.410000 -88.067350 -45.955918 -70.634375 500.000000
0.260000 0.090000 0.364870 -493.090465 338.194832 14.973955 500.000000
-0.260000 0.260000 0.290000 169.318464 -28.046406 50.219193 500.000000
-0.174886 0.260000 0.410000 -86.977124 -30.943069 -253.083037 500.000000
-0.260000 0.090000 0.410000 81.766220 30.128610 -45.691341 500.000000
-0.260000 0.090000 0.375584 881.750803 270.926541 17.116853 500.000000
0.260000 0.260000 0.290000 -43.835274 -53.082377 121.715280 500.000000
-0.108513 0.260000 0.290000 9.857960 -54.346774 94.965810 500.000000
0.260000 0.260000 0.290836 -83.587675 -273.503941 0.167175 500.000000
-0.260000 0.090000 0.375586 247.347119 233.596315 17.117151 500.000000
-0.072766 0.090000 0.290000 -66.553287 60.190148 26.803294 500.000000
-0.260000 0.260000 0.410000 63.932746 -88.568980 -71.440808 500.000000
0.260000 0.090000 0.365188 -423.122031 749.629524 15.037611 500.000000
0.260000 0.090000 0.410000 -411.596595 227.733690 -36.301713 500.000000
-0.260000 0.090000 0.410000 37.156450 11.620715 -45.197337 500.000000
-0.260000 0.090000 0.410000 823.859358 682.628544 -58.605602 500.000000
0.196721 0.090000 0.290000 91.344103 113.055710 31.614164 500.000000
-0.260000 0.090000 0.290000 86.588841 28.173161 34.117950 500.000000
-0.010416 0.260000 0.303281 49.916865 -86.380726 -21.343758 500.000000
-0.260000 0.260000 0.290000 59.986228 -33.552819 54.102980 500.000000
-0.260000 0.129761 0.410000 82.255444 -26.047768 -34.045296 500.000000
0.260000 0.090000 0.410000 -115.279496 66.936577 -19.191017 500.000000
0.260000 0.090000 0.363071 -425.130684 317.664106 14.614273 500.000000
-0.260000 0.260000 0.290000 27.944927 -91.647667 29.998397 500.000000
0.260000 0.090000 0.290000 -70.647871 119.197297 13.019981 500.000000
0.260000 0.090000 0.375124 -651.539353 130.362703 17.024830 500.000000
0.260000 0.260000 0.410000 -243.544567 -19.602358 -49.768803 500.000000
0.260000 0.260000 0.379407 -97.291914 -433.082945 17.881470 500.000000
0.260000 0.090000 0.375426 -522.478546 216.463496 17.085278 500.000000
0.245369 0.260000 0.347626 101.073799 -118.445758 -12.474756 500.000000
-0.260000 0.260000 0.410000 487.108564 -23.698303 -67.403723 500.000000
0.117602 0.260000 0.290000 28.563058 -97.428523 47.817476 500.000000
0.071978 0.260000 0.309917 66.395639 -29.892784 -20.016696 500.000000
-0.260000 0.260000 0.386981 154.533313 -915.897667 19.396172 500.000000
-0.064004 0.260000 0.351389 -64.800806 -76.946716 12.277838 500.000000
-0.260000 0.090000 0.375133 633.379547 103.379898 17.026585 500.000000
-0.260000 0.090000 0.410000 86.407245 98.560417 -16.576955 500.000000
-0.260000 0.090000 0.410000 67.905301 26.539304 -15.517913 500.000000
0.053357 0.090000 0.290000 62.671443 136.610740 97.522052 500.000000
-0.260000 0.090000 0.333940 87.052223 41.491627 -15.212031 500.000000
-0.260000 0.260000 0.410000 192.162368 -27.352428 -101.981738 500.000000
0.260000 0.260000 0.290000 -152.536821 -92.916393 64.019880 500.000000
0.260000 0.090000 0.334032 -116.321416 155.698130 -15.193500 500.000000
-0.260000 0.260000 0.410000 716.884605 -45.019776 -70.501711 500.000000
0.260000 0.090000 0.364439 -534.010389 600.952675 14.887729 500.000000
0.007820 0.090000 0.410000 53.563984 11.380883 -74.508712 500.000000
0.260000 0.260000 0.410000 -245.975576 -108.108443 -13.341054 500.000000
0.260000 0.090000 0.364312 -133.731727 93.929909 14.862308 500.000000
0.260000 0.116673 0.410000 -23.177474 -28.665387 -15.553999 500.000000
0.260000 0.260000 0.410000 -237.635649 -34.453266 -13.723101 500.000000
0.205052 0.090000 0.290000 93.010318 104.181479 182.778628 500.000000
0.260000 0.260000 0.387349 -339.470229 -266.537601 19.469817 500.000000
0.260000 0.260000 0.313635 -57.190159 -290.902795 -19.272949 500.000000
-0.260000 0.090000 0.410000 91.161200 106.066776 -45.589458 500.000000
-0.260000 0.260000 0.410000 340.337212 -25.509401 -45.402589 500.000000
0.093982 0.090000 0.290000 -33.203595 20.310760 34.507917 500.000000
-0.133923 0.090000 0.410000 -78.784524 97.578122 -17.596979 500.000000
0.260000 0.188876 0.410000 -29.304713 19.775143 -55.158055 500.000000
-0.260000 0.260000 0.375133 648.886545 -273.344732 17.026684 500.000000
-0.260000 0.090000 0.290000 123.438555 21.982388 29.295928 500.000000
0.260000 0.260000 0.410000 -252.126243 -30.524700 -12.255926 500.000000
-0.260000 0.260000 0.368947 263.730789 -491.789840 15.789310 500.000000
-0.260000 0.090000 0.410000 308.850983 141.074838 -25.027757 500.000000
-0.260000 0.090000 0.290000 82.811135 21.578342 29.329786 500.000000
-0.260000 0.090000 0.410000 303.940289 110.579877 -34.432317 500.000000
