ply
format ascii 1.0
element vertex 240
property float x
property float y
property float z
property float vx
property float vy
property float vz
property float density
end_header
0.260000 0.090000 0.410000 -122.249657 60.320677 -56.443683 500.000000
0.154808 0.260000 0.290000 -21.038336 -57.992760 44.818912 500.000000
-0.260000 0.260000 0.320818 33.901857 -40.254797 -17.836391 500.000000
-0.202599 0.260000 0.290000 -92.519748 -47.576666 43.457424 500.000000
-0.035211 0.260000 0.366737 -59.042222 -56.974813 15.347374 500.000000
0.260000 0.090000 0.410000 -67.027904 26.347765 -81.795687 500.000000
0.260000 0.260000 0.410000 -91.314284 -99.360563 -47.788402 500.000000
-0.126990 0.090000 0.290000 -77.397914 490.714369 25.206427 500.000000
-0.086635 0.090000 0.410000 -69.326983 39.426506 -45.533143 500.000000
0.260000 0.090000 0.290000 -105.620125 95.505154 30.229712 500.000000
0.101587 0.260000 0.290000 72.317441 -49.410925 63.261950 500.000000
0.075909 0.260000 0.290000 16.242496 -21.212288 45.313454 500.000000
-0.260000 0.260000 0.410000 67.632054 -24.625039 -15.789600 500.000000
-0.132883 0.260000 0.410000 -78.576512 -75.285730 -39.181117 500.000000
0.260000 0.090000 0.410000 -75.097457 123.395207 -12.671637 500.000000
0.260000 0.090000 0.306959 -134.397220 98.733639 -20.608266 500.000000
0.260000 0.090000 0.410000 -99.775239 98.373610 -56.291774 500.000000
0.089127 0.090000 0.290000 -34.174583 76.298234 92.427652 500.000000
0.260000 0.090000 0.290000 -123.240103 163.267574 12.042640 500.000000
-0.260000 0.090000 0.343811 426.728894 26.714693 -13.237839 500.000000
-0.081166 0.090000 0.410000 -68.233161 28.522640 -57.545481 500.000000
-0.260000 0.260000 0.290000 23.076539 -19.752056 30.332730 500.000000
0.260000 0.090000 0.410000 -62.463471 48.241790 -51.822686 500.000000
0.260000 0.260000 0.290000 -61.127422 -46.168417 26.943146 500.000000
0.198285 0.127262 0.393489 65.757185 7.452425 20.697884 500.000000
0.260000 0.260000 0.410000 -84.342090 -136.062596 -48.664974 500.000000
-0.260000 0.260000 0.410000 90.031684 -84.583993 -12.292103 500.000000
0.260000 0.260000 0.290000 -57.661495 -69.382920 583.882926 500.000000
-0.253470 0.260000 0.290000 -102.694026 -51.115267 44.565376 500.000000
0.223326 0.157462 0.410000 26.243491 -7.738431 -30.898561 500.000000
-0.260000 0.090000 0.410000 72.588782 47.489909 -51.069354 500.000000
-0.260000 0.260000 0.290000 47.001267 -19.869597 138.229951 500.000000
-0.260000 0.260000 0.410000 15.568020 -22.928593 -22.252818 500.000000
0.082663 0.090000 0.377015 29.240238 150.260108 17.403007 500.000000
-0.260000 0.090000 0.410000 130.860826 177.256674 -30.767338 500.000000
0.260000 0.090000 0.290000 -112.072557 99.159937 21.600532 500.000000
-0.172458 0.090000 0.410000 -33.004375 9.874936 -22.781404 500.000000
0.260000 0.090000 0.290000 -109.190941 103.733174 19.959317 500.000000
-0.005068 0.260000 0.410000 -29.205731 -27.777281 -22.874596 500.000000
-0.260000 0.090000 0.290000 376.679458 76.872924 32.411953 500.000000
0.260000 0.090000 0.335703 -80.931252 37.549570 -14.859366 500.000000
-0.017786 0.260000 0.410000 -55.557192 -77.217132 -33.157200 500.000000
0.260000 0.260000 0.410000 -97.019974 -42.050239 -27.035066 500.000000
0.011881 0.260000 0.410000 -49.623836 -71.301113 -31.469470 500.000000
-0.260000 0.260000 0.410000 77.538054 -82.695707 -30.050290 500.000000
0.260000 0.090000 0.410000 -83.753035 28.825101 -78.083485 500.000000
-0.227213 0.260000 0.290000 -47.166871 -24.410259 29.927696 500.000000
0.166675 0.090000 0.351680 62.464272 44.249861 -11.664055 500.000000
-0.001677 0.090000 0.290000 -52.335419 75.743701 28.541256 500.000000
-0.260000 0.260000 0.373026 33.570307 -37.354804 16.605239 500.000000
0.226116 0.090000 0.290000 97.223159 63.827697 685.967445 500.000000
0.260000 0.260000 0.410000 -65.622125 -81.850076 -53.447736 500.000000
0.260000 0.090000 0.410000 -73.720710 69.260909 -52.941877 500.000000
0.248252 0.207282 0.290000 101.650380 23.456300 18.245230 500.000000
0.125547 0.090000 0.290000 -26.890562 88.037095 18.873474 500.000000
0.260000 0.171523 0.290000 -44.421812 16.304630 15.183639 500.000000
0.130149 0.260000 0.290000 78.029797 -49.023003 18.785747 500.000000
-0.165591 0.090000 0.410000 -85.118168 40.543381 -42.002974 500.000000
-0.063593 0.090000 0.290000 -64.718574 28.349191 712.822465 500.000000
-0.150565 0.090000 0.410000 -82.113090 24.758203 -42.596479 500.000000
-0.260000 0.090000 0.410000 92.594649 53.013385 -45.705368 500.000000
-0.260000 0.090000 0.290000 52.215397 102.816490 49.277536 500.000000
-0.260000 0.090000 0.410000 73.348673 178.997042 -29.517414 500.000000
-0.004109 0.260000 0.410000 -52.821842 -77.295995 -32.998611 500.000000
0.260000 0.090000 0.290000 -41.590250 27.962285 20.250204 500.000000
-0.260000 0.260000 0.410000 25.610937 -25.404081 -54.511435 500.000000
-0.207805 0.260000 0.290000 -93.560953 -42.869804 53.774375 500.000000
0.063011 0.090000 0.410000 8.090509 95.060323 -21.680187 500.000000
-0.260000 0.090000 0.410000 60.787653 53.619164 -42.440668 500.000000
-0.260000 0.260000 0.410000 122.484871 -96.764049 -26.829186 500.000000
0.260000 0.090000 0.290000 -65.866535 61.867006 27.262651 500.000000
0.166461 0.260000 0.306215 85.292205 -48.792759 -20.756972 500.000000
0.260000 0.260000 0.290000 -66.650054 -70.350340 21.499817 500.000000
0.260000 0.090000 0.290000 -119.611553 96.936589 22.889230 500.000000
-0.260000 0.260000 0.290000 64.972574 -48.790655 55.959008 500.000000
-0.260000 0.090000 0.410000 33.067150 42.478265 -34.424301 500.000000
-0.260000 0.260000 0.410000 69.511021 -41.563474 -14.874945 500.000000
0.087499 0.090000 0.410000 -34.500298 6.801892 -6.985614 500.000000
-0.260000 0.260000 0.410000 75.597703 -132.729777 -29.962272 500.000000
-0.151915 0.090000 0.410000 -82.382986 40.622247 -41.844388 500.000000
-0.260000 0.260000 0.290000 62.396261 -47.535735 42.811789 500.000000
-0.260000 0.260000 0.290000 65.783607 -48.449081 57.561877 500.000000
0.260000 0.090000 0.290000 -119.405660 168.220346 15.355029 500.000000
-0.260000 0.260000 0.290000 69.482843 -49.805695 71.342704 500.000000
0.059116 0.090000 0.290000 7.242179 18.006769 21.890164 500.000000
-0.260000 0.090000 0.410000 44.586479 17.503245 -24.583431 500.000000
0.260000 0.090000 0.410000 -80.043892 60.720297 -48.448888 500.000000
-0.117223 0.090000 0.410000 -75.444567 49.853062 -66.091257 500.000000
-0.260000 0.260000 0.290000 69.107715 -50.414008 41.558429 500.000000
-0.260000 0.090000 0.290000 107.838035 23.962026 26.233504 500.000000
-0.260000 0.250445 0.397031 15.301075 32.089075 21.406177 500.000000
-0.089980 0.260000 0.410000 -9.541558 -28.469710 -21.757409 500.000000
0.076106 0.260000 0.290000 67.221222 -46.585751 26.530563 500.000000
0.195425 0.090000 0.410000 91.084925 229.992147 -31.236147 500.000000
-0.260000 0.260000 0.410000 199.837434 -32.658276 -24.078172 500.000000
-0.051570 0.090000 0.410000 -62.314031 683.344253 -32.050560 500.000000
0.053540 0.090000 0.312191 37.468194 32.135610 -19.561813 500.000000
0.239809 0.090000 0.290000 57.244829 23.087317 21.925347 500.000000
0.123822 0.260000 0.290000 -27.235545 -73.185826 20.518636 500.000000
0.260000 0.090000 0.290000 -87.322092 35.400570 37.807563 500.000000
-0.260000 0.260000 0.410000 300.210884 -44.563749 -35.158212 500.000000
-0.240038 0.260000 0.290000 -54.967454 -39.347872 70.464633 500.000000
-0.022024 0.260000 0.410000 -56.404885 -76.749087 -32.606153 500.000000
0.260000 0.260000 0.410000 -228.118075 -77.621605 -48.991447 500.000000
-0.260000 0.260000 0.410000 39.337318 -33.250665 -24.163276 500.000000
0.092832 0.260000 0.410000 -33.433619 -19.550111 -16.428442 500.000000
-0.024805 0.090000 0.410000 -56.961001 24.151622 -42.547617 500.000000
0.260000 0.260000 0.410000 -118.085344 -109.600264 -47.840020 500.000000
0.049306 0.090000 0.290000 -42.138791 88.970977 15.562309 500.000000
-0.260000 0.090000 0.410000 57.770906 27.000378 -42.830535 500.000000
0.111631 0.260000 0.290000 74.326189 -47.161507 13.491654 500.000000
-0.039741 0.260000 0.410000 -26.580164 -26.432598 -16.747495 500.000000
-0.260000 0.090000 0.410000 111.303269 55.707985 -49.043641 500.000000
-0.057223 0.260000 0.410000 -63.444518 -73.462978 -48.188812 500.000000
0.036497 0.260000 0.410000 -44.700654 -74.848241 -31.536662 500.000000
0.260000 0.090000 0.410000 -71.601651 181.616828 -12.470506 500.000000
0.260000 0.090000 0.410000 -76.316360 63.677557 -58.770026 500.000000
0.095323 0.090000 0.410000 -32.935348 32.611786 -39.663579 500.000000
-0.169830 0.090000 0.410000 -85.965979 40.075346 -41.451936 500.000000
0.260000 0.090000 0.410000 -158.885799 33.301303 -51.639761 500.000000
-0.260000 0.210788 0.410000 156.376163 24.157655 -19.143433 500.000000
0.260000 0.165554 0.321210 -35.251864 -18.889270 4.600053 500.000000
0.260000 0.260000 0.410000 -83.598143 -86.665022 -59.465218 500.000000
-0.260000 0.090000 0.410000 111.885016 144.571706 -30.425636 500.000000
0.260000 0.260000 0.410000 -37.933200 -46.308396 -37.492099 500.000000
-0.052496 0.260000 0.410000 41.500872 -357.853406 -28.140181 500.000000
-0.260000 0.260000 0.387823 85.032597 -70.943796 19.564659 500.000000
-0.260000 0.090000 0.410000 97.726435 23.745166 -42.535610 500.000000
0.260000 0.260000 0.312084 -157.710726 -20.606759 -19.583166 500.000000
0.260000 0.090000 0.410000 -108.588914 270.325365 -20.616060 500.000000
-0.260000 0.090000 0.290000 56.368530 104.611187 17.123386 500.000000
0.260000 0.090000 0.410000 -83.332026 67.840373 -51.027207 500.000000
-0.053771 0.090000 0.410000 -62.754231 34.919974 -43.927971 500.000000
0.113728 0.090000 0.290000 47.945015 27.019001 36.851920 500.000000
0.137247 0.090000 0.410000 79.449352 38.210323 -12.673222 500.000000
-0.260000 0.260000 0.410000 107.296179 -77.047024 -31.717211 500.000000
-0.104193 0.090000 0.410000 -72.838676 32.603676 -50.088918 500.000000
0.260000 0.090000 0.410000 -83.291968 27.580896 -49.504687 500.000000
0.260000 0.260000 0.410000 -76.347836 -127.252103 -45.423093 500.000000
-0.260000 0.260000 0.410000 54.124136 -66.422749 -30.858577 500.000000
-0.260000 0.260000 0.290000 30.637599 -51.639421 25.029416 500.000000
-0.260000 0.260000 0.290000 65.126981 -49.836228 57.564602 500.000000
0.260000 0.090000 0.290000 -186.645438 114.554273 14.634233 500.000000
-0.260000 0.260000 0.290000 60.750364 -47.678205 37.529101 500.000000
0.260000 0.260000 0.290000 -37.215571 -16.351182 24.667893 500.000000
-0.044781 0.090000 0.410000 -60.956105 25.369112 -50.170462 500.000000
-0.059242 0.090000 0.410000 -63.848416 43.728967 -42.013999 500.000000
0.260000 0.090000 0.410000 -78.641230 35.256256 -51.617372 500.000000
-0.018781 0.260000 0.343160 -55.756133 -254.554482 -13.367955 500.000000
-0.260000 0.260000 0.290000 76.079362 -61.214355 61.871964 500.000000
-0.090531 0.098121 0.410000 -40.113045 -32.375748 -29.258553 500.000000
0.260000 0.090000 0.410000 -163.389895 23.836769 -47.446625 500.000000
-0.260000 0.260000 0.290000 66.212662 -48.979654 57.529184 500.000000
-0.051237 0.260000 0.410000 -62.247429 -70.184380 -39.714692 500.000000
0.260000 0.260000 0.410000 -25.912953 -23.434349 -16.627075 500.000000
0.260000 0.260000 0.410000 -103.115593 -80.073791 -48.980557 500.000000
0.260000 0.090000 0.290000 -139.544806 98.412661 24.439742 500.000000
-0.207241 0.260000 0.290000 -93.448177 -32.897559 23.467383 500.000000
-0.260000 0.260000 0.295197 34.630956 -71.357281 -22.960511 500.000000
-0.260000 0.090000 0.290000 418.142754 30.017504 35.953476 500.000000
0.260000 0.090000 0.290000 -49.199400 33.274360 23.697691 500.000000
0.260000 0.090000 0.374089 -108.954842 100.178787 -7.182189 500.000000
0.260000 0.260000 0.410000 -145.442463 -77.775239 -49.013354 500.000000
0.260000 0.260000 0.410000 -81.806709 -87.211903 -59.857655 500.000000
-0.081597 0.090000 0.290000 -68.319412 112.104973 21.917128 500.000000
0.260000 0.234371 0.290000 -31.543648 28.874196 13.061779 500.000000
0.133421 0.260000 0.290000 -25.315824 -55.746431 20.845161 500.000000
0.260000 0.260000 0.410000 -67.216782 -79.895943 -49.320070 500.000000
0.260000 0.090000 0.410000 -152.873974 33.295893 -50.327262 500.000000
0.260000 0.090000 0.290000 -43.580789 23.538150 22.021136 500.000000
-0.260000 0.090000 0.290000 93.940070 22.613319 27.123126 500.000000
-0.053920 0.090000 0.303607 -62.783968 96.536317 -21.278696 500.000000
0.260000 0.260000 0.290000 -385.724234 -35.241301 27.522051 500.000000
-0.007787 0.090000 0.306224 -53.557357 79.456572 -20.755296 500.000000
-0.260000 0.090000 0.290000 34.633918 40.376011 22.114963 500.000000
-0.162708 0.090000 0.410000 -1.092791 20.267867 -12.418819 500.000000
-0.260000 0.260000 0.290000 80.692215 -50.359011 423.431742 500.000000
0.260000 0.260000 0.410000 -186.014649 -79.412389 -44.026628 500.000000
0.260000 0.090000 0.410000 -120.727250 33.070223 -51.652667 500.000000
0.260000 0.260000 0.410000 -75.912248 -85.319986 -47.158454 500.000000
-0.260000 0.090000 0.291110 52.617419 103.033424 -23.778033 500.000000
0.260000 0.260000 0.410000 -83.174035 -87.133025 -60.016228 500.000000
-0.260000 0.260000 0.410000 51.231623 -31.802702 -27.940351 500.000000
0.230745 0.090000 0.410000 98.149057 30.285208 -13.434711 500.000000
0.047654 0.260000 0.410000 15.887800 -30.328629 -21.829270 500.000000
-0.115602 0.090000 0.290000 -47.391814 37.223832 75.633110 500.000000
-0.001789 0.260000 0.290000 51.642112 -26.255903 13.872775 500.000000
0.260000 0.090000 0.410000 -69.263575 34.451193 -47.832864 500.000000
0.260000 0.184623 0.290000 -67.037390 18.924660 27.902582 500.000000
0.129115 0.260000 0.410000 -26.176970 -297.512458 -27.318352 500.000000
-0.059491 0.260000 0.410000 -63.898254 -65.876524 -28.267904 500.000000
-0.260000 0.260000 0.410000 42.159395 -24.376806 -24.901866 500.000000
0.260000 0.090000 0.410000 -104.483074 32.918641 -47.085405 500.000000
-0.260000 0.260000 0.410000 52.394661 -34.248194 -551.169926 500.000000
-0.260000 0.090000 0.290000 48.975574 20.928122 31.421295 500.000000
-0.260000 0.187013 0.290000 46.210219 19.402691 17.041077 500.000000
-0.260000 0.260000 0.290000 67.560867 -70.532220 45.415655 500.000000
0.260000 0.260000 0.410000 -76.792454 -114.558226 -47.097556 500.000000
0.260000 0.090000 0.410000 -68.347956 61.311926 -45.912210 500.000000
-0.037455 0.260000 0.410000 -59.490987 -135.612768 -29.886810 500.000000
-0.260000 0.090000 0.410000 632.118715 27.061438 -65.230347 500.000000
0.260000 0.260000 0.290000 -79.913178 -26.160243 20.048946 500.000000
-0.260000 0.090000 0.410000 213.485323 52.603597 -32.030711 500.000000
0.218562 0.260000 0.290000 11.762783 -19.434441 32.274952 500.000000
-0.036863 0.090000 0.410000 -59.372582 40.981205 -42.057692 500.000000
-0.260000 0.260000 0.410000 84.324224 -106.199389 -29.462393 500.000000
0.260000 0.090000 0.410000 -176.092584 33.799799 -51.688080 500.000000
0.037756 0.090000 0.293630 -44.448881 69.891707 -23.274099 500.000000
-0.260000 0.260000 0.290000 68.069565 -64.389717 43.672698 500.000000
-0.198189 0.090000 0.410000 -25.768545 18.768424 -12.143739 500.000000
0.260000 0.090000 0.410000 -68.625782 131.151505 -51.860079 500.000000
0.260000 0.090000 0.410000 -50.475559 24.686514 -24.517177 500.000000
0.260000 0.260000 0.410000 -36.245638 -34.600884 -27.596128 500.000000
-0.196262 0.090000 0.410000 -91.252357 120.921517 -39.324227 500.000000
0.260000 0.260000 0.410000 -249.326670 -76.347550 -48.987482 500.000000
-0.112187 0.260000 0.290000 -74.437418 -37.428348 43.600049 500.000000
0.058315 0.260000 0.410000 41.023891 -22.031495 -37.788524 500.000000
0.260000 0.090000 0.290000 -33.652898 17.245222 19.949902 500.000000
-0.260000 0.260000 0.410000 59.566116 -95.276907 -29.051836 500.000000
0.081135 0.090000 0.290000 40.694083 60.825567 26.317219 500.000000
-0.260000 0.260000 0.410000 60.004457 -111.994609 -34.962804 500.000000
-0.260000 0.090000 0.290000 143.241271 18.358042 210.463557 500.000000
-0.060909 0.220396 0.338832 39.818248 26.079190 -14.233502 500.000000
-0.260000 0.260000 0.300121 65.185227 -52.873087 -21.975717 500.000000
-0.241526 0.260000 0.356708 -10.290810 -13.778830 13.341691 500.000000
0.260000 0.090000 0.410000 -115.348874 29.081949 -76.176674 500.000000
-0.260000 0.090000 0.410000 62.993505 24.096821 -42.557553 500.000000
-0.138548 0.090000 0.336700 24.290493 34.496950 -14.660059 500.000000
-0.260000 0.260000 0.410000 355.509957 -60.395524 -33.959604 500.000000
0.123239 0.090000 0.290000 -27.352111 82.358452 15.499979 500.000000
0.260000 0.260000 0.290000 -94.395634 -407.886212 59.210589 500.000000
0.260000 0.260000 0.290000 -32.208461 -152.948804 11.410289 500.000000
0.094350 0.090000 0.410000 -33.130084 28.326399 -42.648039 500.000000
-0.142569 0.260000 0.290000 -80.513850 -41.978040 64.494292 500.000000
-0.260000 0.260000 0.410000 102.552762 -75.410276 -31.571940 500.000000
0.260000 0.260000 0.296565 -105.724201 -488.940482 -22.686968 500.000000
-0.260000 0.260000 0.410000 63.747277 -76.518795 -37.765028 500.000000
0.121535 0.090000 0.290000 76.307029 364.725760 85.176859 500.000000
-0.260000 0.090000 0.320728 28.691256 37.568002 -17.854326 500.000000
-0.151099 0.260000 0.337893 -82.219760 -271.277582 -14.421329 500.000000
