ply
format ascii 1.0
element vertex 240
property float x
property float y
property float z
property float vx
property float vy
property float vz
property float density
end_header
-0.260000 0.260000 0.410000 94.954639 -118.304791 -14.540031 500.000000
-0.260000 0.090000 0.410000 147.152776 61.899106 -20.632465 500.000000
0.260000 0.090000 0.290000 -96.321888 34.010683 17.982988 500.000000
0.022949 0.092966 0.318446 -47.410155 -33.406759 -18.310854 500.000000
0.260000 0.260000 0.410000 -86.350001 -51.957822 -146.275439 500.000000
-0.260000 0.260000 0.290000 158.368343 -90.200859 43.738928 500.000000
0.260000 0.260000 0.410000 -207.225479 -37.461039 -722.205384 500.000000
-0.260000 0.260000 0.410000 104.661965 -153.390213 -90.574231 500.000000
0.260000 0.260000 0.290000 -372.116036 -46.879237 121.533979 500.000000
-0.260000 0.260000 0.410000 135.660870 -110.983615 -14.313192 500.000000
-0.256817 0.090000 0.290000 -103.363333 38.140913 20.703234 500.000000
-0.260000 0.260000 0.291102 60.403945 -64.867571 -23.779570 500.000000
-0.260000 0.260000 0.410000 106.333361 -89.700357 -16.030025 500.000000
-0.260000 0.260000 0.290000 679.376730 -85.445347 87.931488 500.000000
0.260000 0.260000 0.290000 -347.529056 -93.187508 111.240911 500.000000
0.260000 0.260000 0.410000 -83.187883 -50.369156 -37.863740 500.000000
0.260000 0.260000 0.410000 -86.603080 -24.677555 -26.613081 500.000000
0.260000 0.090000 0.290000 -102.666947 80.744130 49.318236 500.000000
-0.260000 0.260000 0.336518 52.130367 -95.252314 -14.696311 500.000000
-0.260000 0.090000 0.410000 39.053806 118.426429 -15.137011 500.000000
0.260000 0.260000 0.410000 -125.257692 -45.855654 -45.297504 500.000000
0.260000 0.260000 0.290000 -442.295853 -132.600224 133.841844 500.000000
0.260000 0.260000 0.290000 -383.505440 -71.000939 100.265421 500.000000
0.260000 0.090000 0.290000 -49.625918 33.451439 38.448704 500.000000
0.260000 0.090000 0.290000 -69.615541 79.599569 22.858243 500.000000
0.260000 0.260000 0.290000 -59.810393 -43.287375 315.414439 500.000000
-0.260000 0.260000 0.290000 532.111656 -85.226921 106.140761 500.000000
0.260000 0.260000 0.290000 -361.144766 -38.872202 76.007024 500.000000
-0.260000 0.090000 0.410000 95.598649 131.538726 -63.849066 500.000000
0.260000 0.090000 0.290000 -66.493344 79.783734 32.921019 500.000000
-0.260000 0.260000 0.410000 82.149885 -96.438326 -12.805255 500.000000
-0.260000 0.260000 0.410000 92.221644 -22.269881 -167.128185 500.000000
0.260000 0.260000 0.410000 -163.031500 -32.991807 -778.517921 500.000000
0.260000 0.260000 0.290000 -46.095642 -36.456693 183.311865 500.000000
-0.260000 0.260000 0.290000 714.701391 -84.931340 85.012046 500.000000
0.260000 0.260000 0.290000 -396.675991 -210.459580 119.874659 500.000000
0.091825 0.260000 0.290000 -33.635059 -31.516160 24.043493 500.000000
-0.260000 0.090000 0.410000 117.096008 141.482139 -13.970032 500.000000
-0.260000 0.260000 0.410000 100.820000 -177.626553 -43.335541 500.000000
-0.260000 0.253142 0.290000 35.565558 32.628367 24.815324 500.000000
-0.260000 0.090000 0.290000 100.743306 356.755346 58.489699 500.000000
-0.260000 0.090000 0.410000 105.229801 105.506695 -27.243324 500.000000
0.260000 0.260000 0.378550 -57.711370 -28.211796 17.709951 500.000000
0.260000 0.260000 0.410000 -119.532852 -318.746393 -53.635247 500.000000
0.260000 0.090000 0.410000 -97.626862 72.437242 -23.207976 500.000000
-0.260000 0.260000 0.290000 70.249987 -93.293513 20.946428 500.000000
-0.121150 0.260000 0.290000 -76.230085 -53.963811 41.804796 500.000000
0.260000 0.090000 0.371558 -34.045864 19.941186 16.311507 500.000000
-0.260000 0.260000 0.410000 112.587400 -231.919216 -22.729403 500.000000
0.260000 0.090000 0.290000 -104.358034 119.090023 38.914040 500.000000
0.260000 0.260000 0.290000 -392.568192 -105.237144 113.247777 500.000000
0.260000 0.090000 0.410000 -111.708296 163.782083 -16.645551 500.000000
0.259285 0.260000 0.290000 11.973499 -47.871930 54.513092 500.000000
0.260000 0.260000 0.410000 -85.145758 -70.743784 -39.992345 500.000000
-0.260000 0.090000 0.290000 163.892957 61.794275 22.303723 500.000000
-0.260000 0.090000 0.290000 54.295440 43.893351 21.039398 500.000000
0.260000 0.090000 0.410000 -112.174066 167.381239 -14.926758 500.000000
0.260000 0.260000 0.410000 -124.718042 -55.550911 -367.786246 500.000000
-0.260000 0.090000 0.410000 70.166940 44.053086 -26.751865 500.000000
0.110430 0.090000 0.290000 -9.700699 147.087435 24.093068 500.000000
0.260000 0.090000 0.290000 -66.192670 134.226883 24.187898 500.000000
-0.260000 0.260000 0.410000 89.132877 -209.173066 -68.728222 500.000000
-0.032763 0.090000 0.290000 13.960680 28.837502 116.229757 500.000000
-0.260000 0.260000 0.410000 66.779504 -162.194300 -61.547435 500.000000
0.260000 0.260000 0.410000 -1305.901418 -146.643086 -12.807206 500.000000
0.260000 0.260000 0.410000 -134.006597 -275.606300 -101.721846 500.000000
-0.260000 0.090000 0.410000 436.878883 142.673917 -14.490523 500.000000
-0.237517 0.090000 0.290000 -99.503464 36.886171 21.142791 500.000000
0.260000 0.249758 0.290000 -361.509712 31.951561 93.079024 500.000000
0.260000 0.090000 0.410000 -112.170385 114.559313 -56.489603 500.000000
-0.260000 0.090000 0.410000 82.000482 1169.608125 -16.363768 500.000000
0.260000 0.260000 0.410000 -429.978232 -65.077116 -30.810927 500.000000
0.260000 0.260000 0.290000 -390.326833 -84.922413 107.064787 500.000000
-0.260000 0.260000 0.395329 118.113165 -95.537254 21.065824 500.000000
-0.126436 0.208098 0.410000 -33.683018 23.619527 -9.101237 500.000000
0.208314 0.090000 0.410000 35.066959 75.199619 -43.298268 500.000000
0.168573 0.260000 0.400613 19.204237 -55.915943 22.122608 500.000000
0.260000 0.260000 0.290000 -348.112592 -97.196489 110.828755 500.000000
0.224428 0.090000 0.290000 96.885646 451.723102 44.556392 500.000000
-0.157891 0.260000 0.290000 -83.578205 -24.277204 58.371524 500.000000
-0.260000 0.260000 0.410000 108.934712 -94.008949 -18.583675 500.000000
0.260000 0.090000 0.410000 -124.754953 174.228489 -29.472472 500.000000
-0.095926 0.090000 0.290000 -71.185272 74.017390 20.616937 500.000000
0.260000 0.260000 0.410000 -93.498630 -67.995335 -41.454993 500.000000
0.246026 0.260000 0.410000 41.747839 -27.918879 -17.432688 500.000000
-0.135486 0.106777 0.290000 -79.097293 -30.644646 22.112855 500.000000
0.260000 0.090000 0.392532 -113.366365 258.244832 20.506317 500.000000
0.260000 0.260000 0.410000 -68.561175 -67.765801 -21.984748 500.000000
0.260000 0.260000 0.410000 -192.976529 -49.088972 -56.829403 500.000000
-0.260000 0.090000 0.290000 65.883929 59.329923 14.387498 500.000000
0.260000 0.260000 0.410000 -77.633779 -450.715595 -27.652247 500.000000
0.260000 0.090000 0.410000 -111.718332 121.058254 -116.096606 500.000000
-0.260000 0.260000 0.290000 796.528295 -85.908822 84.338579 500.000000
-0.260000 0.090000 0.410000 17.749987 116.639590 -15.869411 500.000000
0.260000 0.260000 0.290000 -393.262880 -30.494418 89.538193 500.000000
-0.260000 0.260000 0.290000 623.819316 -85.400753 95.103757 500.000000
0.096742 0.090000 0.290000 5.401511 103.658150 12.841529 500.000000
-0.260000 0.260000 0.290000 420.831981 -88.859896 50.788658 500.000000
-0.260000 0.090000 0.290000 279.856906 409.854321 33.242837 500.000000
-0.260000 0.260000 0.290000 203.742576 -23.776911 57.009385 500.000000
-0.167035 0.090000 0.290000 -85.406932 33.942246 33.777492 500.000000
-0.260000 0.206436 0.290000 35.724941 -10.712858 8.385087 500.000000
-0.260000 0.260000 0.410000 103.121891 -97.212485 -12.567219 500.000000
-0.260000 0.090000 0.290000 71.573883 45.527219 32.001883 500.000000
0.260000 0.090000 0.410000 -333.408748 37.153819 -14.458217 500.000000
0.260000 0.193884 0.290000 -348.189585 20.776763 140.141238 500.000000
0.260000 0.090000 0.290000 -72.577023 88.127392 87.504704 500.000000
0.260000 0.260000 0.410000 -72.208414 -190.111040 -38.197810 500.000000
0.260000 0.260000 0.290000 -347.607678 -84.924496 111.172789 500.000000
0.260000 0.260000 0.290000 -349.367732 -86.655841 113.970625 500.000000
0.260000 0.260000 0.290000 -359.931820 -101.609795 98.430361 500.000000
-0.260000 0.090000 0.410000 103.479178 105.425908 -28.971086 500.000000
0.260000 0.090000 0.361020 -105.679398 76.562404 14.204090 500.000000
-0.260000 0.202797 0.410000 142.587166 22.559403 -24.800493 500.000000
0.260000 0.090000 0.290000 -45.853522 69.704716 76.287056 500.000000
-0.260000 0.260000 0.410000 100.046962 -221.645385 -87.473489 500.000000
-0.260000 0.260000 0.290000 59.281530 -25.064438 39.200392 500.000000
-0.260000 0.208692 0.410000 27.913275 23.738378 -24.752942 500.000000
-0.260000 0.260000 0.406918 146.529885 -106.618118 23.383652 500.000000
-0.051640 0.090000 0.290000 -62.327949 44.195390 14.260894 500.000000
-0.260000 0.260000 0.410000 107.950276 -229.844567 -50.183806 500.000000
0.260000 0.260000 0.410000 -70.519178 -45.655282 -43.677006 500.000000
-0.260000 0.260000 0.290000 546.626070 -90.211810 96.237001 500.000000
-0.260000 0.260000 0.290000 69.972415 -64.978017 53.895525 500.000000
0.260000 0.260000 0.290000 -419.533714 -172.229584 94.696838 500.000000
-0.119251 0.260000 0.366673 28.149797 -164.526524 15.334670 500.000000
0.260000 0.090000 0.290000 -88.096892 84.553348 27.302901 500.000000
0.044241 0.223740 0.332555 -43.151818 -7.251920 -15.489012 500.000000
0.260000 0.260000 0.290000 -350.605107 -84.489022 109.588583 500.000000
0.260000 0.090000 0.410000 -164.201465 90.074650 -151.497508 500.000000
-0.260000 0.260000 0.410000 893.778351 -91.377873 -476.646669 500.000000
0.260000 0.090000 0.410000 -72.423987 174.515222 -31.228793 500.000000
-0.260000 0.090000 0.290000 136.033533 36.945970 17.813934 500.000000
0.260000 0.260000 0.410000 -98.702319 -69.117790 -17.569364 500.000000
-0.260000 0.260000 0.410000 107.488863 -113.876318 -12.674531 500.000000
0.260000 0.260000 0.376579 -34.493097 -30.393322 17.315722 500.000000
0.260000 0.090000 0.410000 -403.123285 117.464161 -25.429332 500.000000
0.260000 0.260000 0.410000 -78.491660 -131.307978 -36.866806 500.000000
0.260000 0.090000 0.351857 -29.005024 101.166560 12.371438 500.000000
0.260000 0.206062 0.290000 -34.633897 23.212494 61.713422 500.000000
0.260000 0.260000 0.410000 -76.732392 -50.094398 -43.746662 500.000000
0.119832 0.260000 0.290000 41.742600 -180.850901 36.400372 500.000000
-0.260000 0.090000 0.410000 477.343310 162.997017 -14.620546 500.000000
-0.260000 0.260000 0.290000 680.566982 -84.912343 93.537199 500.000000
-0.260000 0.090000 0.399402 92.721497 85.068972 21.880428 500.000000
-0.260000 0.090000 0.410000 115.110449 44.532577 -13.648319 500.000000
-0.260000 0.260000 0.410000 57.036946 -21.258349 -123.475851 500.000000
-0.260000 0.260000 0.410000 112.762173 -150.281904 -31.063894 500.000000
0.190814 0.090000 0.410000 90.162722 573.840725 -37.808543 500.000000
-0.260000 0.260000 0.410000 59.071698 -156.666396 -15.303617 500.000000
-0.260000 0.260000 0.290000 857.903763 -85.136512 83.022032 500.000000
-0.260000 0.090000 0.290000 83.942196 17.508938 14.872633 500.000000
-0.245013 0.090000 0.290000 -101.002556 73.844852 20.902504 500.000000
-0.260000 0.100510 0.290000 79.696201 -31.898016 18.571730 500.000000
-0.260000 0.260000 0.410000 86.557082 -212.513218 -18.473300 500.000000
-0.260000 0.260000 0.290000 565.309250 -85.316170 102.406396 500.000000
-0.260000 0.260000 0.410000 109.100599 -150.304650 -61.996141 500.000000
-0.260000 0.260000 0.290000 447.860198 -96.571544 51.807571 500.000000
0.260000 0.260000 0.410000 -78.941295 -63.489567 -45.654981 500.000000
-0.260000 0.260000 0.290000 358.471513 -200.552745 55.608976 500.000000
0.260000 0.260000 0.410000 -88.742787 -46.438204 -160.766079 500.000000
-0.260000 0.260000 0.290000 52.101349 -233.284054 21.030370 500.000000
0.260000 0.090000 0.290000 -78.151690 36.695629 15.355926 500.000000
-0.260000 0.260000 0.410000 17.741075 -219.947242 -31.627974 500.000000
0.078490 0.171303 0.290000 -36.302019 16.260628 13.722391 500.000000
0.260000 0.260000 0.290000 -347.873446 -85.149606 111.061420 500.000000
0.242073 0.090000 0.290000 100.414537 57.481434 23.811741 500.000000
0.260000 0.260000 0.410000 -146.526669 -240.278811 -60.239354 500.000000
0.114482 0.090000 0.290000 74.896462 29.399893 56.133287 500.000000
-0.260000 0.090000 0.340208 99.500227 124.623239 10.041659 500.000000
-0.260000 0.090000 0.338455 110.852458 49.430489 -14.309015 500.000000
-0.260000 0.090000 0.410000 183.692803 120.401956 -14.634522 500.000000
-0.260000 0.090000 0.410000 73.499595 1249.907981 -14.555550 500.000000
0.260000 0.090000 0.410000 -54.600862 288.380752 -26.786250 500.000000
-0.149096 0.250142 0.290000 -18.285651 32.028392 74.411353 500.000000
0.260000 0.260000 0.410000 -116.307619 -154.983736 -12.113937 500.000000
0.260000 0.090000 0.290000 -81.580228 78.351646 46.086388 500.000000
-0.260000 0.260000 0.410000 110.787599 -108.729759 -15.240394 500.000000
-0.260000 0.260000 0.410000 135.210929 -108.917094 -14.115043 500.000000
-0.260000 0.090000 0.332980 58.442934 51.346367 -15.404004 500.000000
0.260000 0.260000 0.410000 -92.235556 -69.706244 -46.270503 500.000000
0.260000 0.090000 0.290000 -107.926047 80.927431 42.677427 500.000000
0.260000 0.260000 0.410000 -82.418725 -46.655657 -42.339748 500.000000
0.080844 0.090000 0.410000 -3.453904 110.895537 -63.986753 500.000000
0.260000 0.260000 0.290000 -348.175001 -87.420588 110.620725 500.000000
0.260000 0.260000 0.290000 -106.765416 -144.556913 89.084864 500.000000
-0.021903 0.090000 0.290000 23.395108 22.663876 147.664031 500.000000
0.260000 0.090000 0.410000 -54.313782 47.736152 -48.680175 500.000000
0.260000 0.260000 0.410000 -74.644855 -62.743689 -25.079347 500.000000
0.146662 0.260000 0.410000 -22.667605 -42.756638 -16.841744 500.000000
0.260000 0.090000 0.290000 -93.733005 124.990486 26.496316 500.000000
-0.260000 0.090000 0.379116 82.801639 42.549651 17.823229 500.000000
-0.260000 0.260000 0.290000 718.657710 -84.940933 71.201428 500.000000
-0.260000 0.260000 0.410000 115.015172 -110.800587 -14.196184 500.000000
-0.049425 0.090000 0.290000 -61.885037 33.824137 53.660152 500.000000
-0.260000 0.090000 0.290000 55.258979 43.042009 21.195464 500.000000
-0.260000 0.090000 0.410000 92.695701 203.538035 -25.381723 500.000000
0.260000 0.260000 0.410000 -85.169079 -68.927100 -41.566847 500.000000
-0.260000 0.260000 0.410000 152.588903 -115.679948 -13.118365 500.000000
-0.260000 0.233735 0.410000 37.423324 28.747060 -119.254862 500.000000
0.260000 0.090000 0.410000 -202.369433 154.683000 -75.414670 500.000000
-0.260000 0.260000 0.410000 134.240600 -110.800137 -14.251199 500.000000
0.260000 0.090000 0.290000 -67.253609 86.678814 27.076373 500.000000
-0.260000 0.090000 0.389029 94.768449 43.049617 19.805845 500.000000
0.260000 0.260000 0.290000 -354.596813 -83.625213 110.590691 500.000000
-0.260000 0.090000 0.410000 110.092600 197.128867 -27.171114 500.000000
-0.260000 0.260000 0.410000 150.403290 -110.833035 -17.026008 500.000000
0.260000 0.260000 0.290000 -353.995092 -87.378530 127.661074 500.000000
-0.260000 0.260000 0.410000 108.983153 -91.429803 -21.232690 500.000000
-0.260000 0.260000 0.290000 273.502958 -20.940253 13.959746 500.000000
0.139359 0.137505 0.351990 -24.128250 -11.165682 0.449777 500.000000
-0.260000 0.090000 0.290000 65.062202 30.718802 14.667879 500.000000
0.260000 0.090000 0.290000 -91.720100 33.586188 17.008795 500.000000
-0.260000 0.090000 0.410000 83.856875 117.607880 -15.782587 500.000000
-0.260000 0.260000 0.410000 97.535621 -109.943240 -16.872449 500.000000
-0.260000 0.260000 0.410000 116.178415 -109.427040 -14.167592 500.000000
-0.260000 0.249548 0.410000 43.614198 14.850139 -17.203898 500.000000
-0.260000 0.260000 0.410000 95.986578 -155.585424 -45.573340 500.000000
0.260000 0.260000 0.358633 -303.883848 -35.378148 13.726522 500.000000
0.260000 0.260000 0.410000 -134.082495 -83.474653 -57.662610 500.000000
-0.260000 0.090000 0.290000 56.930513 38.138984 20.829506 500.000000
0.260000 0.260000 0.410000 -73.182610 -48.832385 -42.187928 500.000000
-0.260000 0.260000 0.410000 96.299840 -113.290877 -12.824054 500.000000
0.260000 0.090000 0.410000 -150.236945 165.090793 -12.393108 500.000000
0.238679 0.090000 0.290000 99.735864 489.255961 68.840354 500.000000
-0.260000 0.090000 0.290000 61.678363 153.188116 30.174549 500.000000
-0.080120 0.090000 0.410000 -43.248985 97.994886 -67.966671 500.000000
0.016628 0.090000 0.290000 32.563708 251.782610 19.081837 500.000000
-0.260000 0.260000 0.410000 53.236515 -201.965060 -12.519719 500.000000
-0.260000 0.090000 0.410000 79.728292 145.603833 -12.449284 500.000000
0.260000 0.090000 0.410000 -98.578378 87.896049 -45.972284 500.000000
0.260000 0.260000 0.410000 -53.097993 -29.301894 -15.183055 500.000000
0.260000 0.260000 0.410000 -81.846287 -43.829130 -37.924510 500.000000
-0.260000 0.260000 0.410000 106.429545 -89.403725 -16.495395 500.000000
0.103219 0.090000 0.290000 -31.356230 62.603567 166.065614 500.000000
0.260000 0.260000 0.290000 -349.573895 -32.769345 77.443595 500.000000
0.069945 0.252416 0.410000 14.605945 32.483247 -29.415173 500.000000
0.260000 0.090000 0.410000 -135.586615 169.501318 -36.797848 500.000000
-0.260000 0.260000 0.290000 134.747955 -46.265594 54.490377 500.000000
-0.260000 0.260000 0.410000 115.744565 -28.590591 -40.415346 500.000000
