ply
format ascii 1.0
element vertex 240
property float x
property float y
property float z
property float vx
property float vy
property float vz
property float density
end_header
0.184957 0.260000 0.290000 88.991382 -60.001217 68.453904 500.000000
-0.260000 0.090000 0.290000 130.970135 29.739102 35.331871 500.000000
0.166488 0.090000 0.290000 -18.702431 17.940891 16.499352 500.000000
0.260000 0.260000 0.410000 -150.455630 -387.402471 -24.236286 500.000000
0.228330 0.260000 0.290000 97.665909 -50.444405 41.141763 500.000000
-0.260000 0.220978 0.290000 59.153935 26.195661 92.506752 500.000000
-0.260000 0.260000 0.290000 63.129056 -134.958278 94.272896 500.000000
0.260000 0.160051 0.410000 -134.293538 -19.989859 -257.918170 500.000000
0.260000 0.090000 0.410000 -23.631430 26.119780 -22.752979 500.000000
0.260000 0.260000 0.290000 -79.452281 -55.242839 44.060948 500.000000
-0.260000 0.260000 0.410000 112.974603 -135.788075 -36.469810 500.000000
-0.260000 0.260000 0.410000 117.652976 -108.582631 -35.211455 500.000000
0.075598 0.090000 0.410000 56.035178 36.355024 -18.246583 500.000000
-0.260000 0.228932 0.290000 64.443177 27.786328 149.504233 500.000000
-0.260000 0.090000 0.410000 640.232181 36.329013 -17.789641 500.000000
0.151015 0.260000 0.410000 82.203081 -404.540043 -13.072413 500.000000
0.230530 0.260000 0.410000 98.106030 -391.298034 -24.266800 500.000000
0.260000 0.260000 0.290000 -80.534883 -49.618916 44.359797 500.000000
0.260000 0.090000 0.410000 -53.503703 308.856779 -27.709981 500.000000
-0.260000 0.260000 0.410000 133.860901 -107.541397 -36.396331 500.000000
0.260000 0.260000 0.359231 -55.731695 -426.137903 13.846191 500.000000
0.229699 0.260000 0.290000 97.939712 -53.981715 41.006983 500.000000
0.260000 0.090000 0.290000 -180.697617 34.351751 111.248196 500.000000
0.177907 0.260000 0.290000 87.581349 -34.526355 112.663438 500.000000
0.260000 0.090000 0.290000 -124.617606 27.878716 107.555288 500.000000
0.186907 0.090000 0.410000 8.556870 10.078329 -8.090489 500.000000
-0.260000 0.260000 0.290000 231.293290 -38.880370 129.840452 500.000000
0.060032 0.090000 0.410000 19.830336 24.248394 -24.496769 500.000000
-0.210640 0.110432 0.410000 -31.368185 -14.954896 -9.793707 500.000000
0.228616 0.260000 0.290000 97.723240 -28.151392 34.785207 500.000000
0.159653 0.090000 0.290000 -20.069317 109.810908 21.372677 500.000000
-0.260000 0.220566 0.290000 57.402499 26.113154 90.112524 500.000000
-0.260000 0.090000 0.290000 63.853045 133.152349 31.874936 500.000000
0.082357 0.090000 0.410000 -24.405477 23.273365 -19.084813 500.000000
0.066339 0.260000 0.410000 65.267792 -394.582976 -23.310703 500.000000
-0.260000 0.260000 0.410000 193.647263 -371.031689 -92.745842 500.000000
0.260000 0.230671 0.325016 -347.019124 28.134241 -16.996773 500.000000
0.260000 0.095203 0.290000 -225.444104 -32.959417 109.397857 500.000000
0.260000 0.090000 0.410000 -192.534614 42.354721 -18.346771 500.000000
0.260000 0.260000 0.290000 -98.159989 -81.378878 40.112193 500.000000
-0.260000 0.090000 0.410000 225.190625 36.380340 -17.911404 500.000000
0.260000 0.260000 0.290000 -53.200708 -56.460843 42.706025 500.000000
-0.260000 0.090000 0.410000 234.975997 46.333990 -41.901045 500.000000
0.231247 0.260000 0.290000 98.249363 -50.121494 41.664797 500.000000
0.260000 0.090000 0.410000 -97.256230 78.425266 -214.220687 500.000000
-0.260000 0.090000 0.290000 88.024434 29.055842 35.551178 500.000000
0.260000 0.090000 0.290000 -111.436929 24.472080 107.300938 500.000000
-0.260000 0.260000 0.356694 44.757722 -21.399950 13.338853 500.000000
-0.260000 0.090000 0.290000 109.559752 29.127886 35.577216 500.000000
0.167351 0.260000 0.290000 85.470245 -60.307437 50.324954 500.000000
-0.105782 0.090000 0.410000 -63.322845 25.633404 -20.166633 500.000000
0.260000 0.090000 0.410000 -285.117515 283.007056 -26.298664 500.000000
0.260000 0.090000 0.410000 -155.015653 192.649294 -57.956173 500.000000
0.260000 0.260000 0.410000 -52.880054 -387.192521 -26.914634 500.000000
0.260000 0.090000 0.290000 -149.587868 35.029372 111.282931 500.000000
-0.260000 0.218855 0.290000 84.820644 25.770922 90.047375 500.000000
0.260000 0.260000 0.290000 -97.923160 -20.341546 98.334672 500.000000
-0.260000 0.260000 0.290000 63.434841 -19.334377 90.479325 500.000000
0.260000 0.090000 0.290000 -120.265414 333.051408 192.134827 500.000000
0.260000 0.090000 0.290000 -74.615736 20.010753 129.586560 500.000000
-0.260000 0.090000 0.410000 21.719129 60.293002 -24.494072 500.000000
-0.260000 0.090000 0.410000 139.340239 78.779577 -43.475432 500.000000
0.183720 0.090000 0.355330 52.125637 38.765136 13.066009 500.000000
-0.260000 0.090000 0.410000 95.869197 258.100691 -15.151406 500.000000
-0.260000 0.217467 0.410000 65.964554 25.493451 -680.438880 500.000000
0.026345 0.090000 0.410000 57.269021 575.028935 -23.177621 500.000000
0.260000 0.260000 0.410000 -85.942082 -395.688581 -24.598832 500.000000
-0.173344 0.260000 0.410000 -86.668834 -269.770800 -23.841936 500.000000
0.260000 0.154478 0.290000 -196.307881 -21.104411 115.340326 500.000000
-0.260000 0.152558 0.410000 159.578213 -21.488337 -37.987179 500.000000
-0.260000 0.090000 0.290000 65.792830 25.497054 31.065636 500.000000
0.055904 0.260000 0.410000 63.180813 -392.585846 -23.152744 500.000000
0.260000 0.090000 0.290000 -164.540741 32.556245 111.207292 500.000000
0.260000 0.260000 0.410000 -239.557026 -383.439167 -26.785098 500.000000
0.156195 0.090000 0.290000 14.804078 19.186717 22.175934 500.000000
0.260000 0.090000 0.410000 -215.374739 36.551700 -18.348865 500.000000
-0.260000 0.090000 0.410000 140.275278 36.392525 -18.142023 500.000000
0.193166 0.090000 0.410000 90.633179 38.144076 -611.696553 500.000000
-0.260000 0.090000 0.410000 486.365126 36.386017 -18.161853 500.000000
-0.260000 0.090000 0.290000 57.897631 37.968909 177.891942 500.000000
-0.260000 0.090000 0.290000 53.627581 24.751596 45.918797 500.000000
0.114310 0.260000 0.410000 74.862077 -389.806709 -28.454546 500.000000
0.172496 0.104929 0.410000 -17.500726 -31.014111 -165.727807 500.000000
0.260000 0.260000 0.410000 -142.137909 -217.381467 -31.323221 500.000000
0.260000 0.260000 0.290000 -13.206556 -60.069430 15.460872 500.000000
0.260000 0.144888 0.410000 -394.072873 -23.022322 -23.716238 500.000000
0.043826 0.260000 0.410000 34.994084 -27.199840 -23.110941 500.000000
0.018476 0.090000 0.290000 8.622552 91.249786 12.990758 500.000000
0.260000 0.090000 0.410000 -101.392438 641.282566 -24.496371 500.000000
-0.260000 0.090000 0.290000 207.867045 26.807670 34.727796 500.000000
0.131378 0.260000 0.290000 78.275590 -52.219561 35.226812 500.000000
0.260000 0.260000 0.410000 -167.888730 -387.745354 -24.689922 500.000000
0.260000 0.090000 0.290000 -113.306308 34.918415 111.870121 500.000000
-0.130634 0.260000 0.290000 -78.126751 -25.835609 120.071356 500.000000
0.232729 0.260000 0.290000 98.545810 -52.127374 41.041168 500.000000
-0.003216 0.260000 0.410000 51.356791 -18.007479 -15.240935 500.000000
0.260000 0.260000 0.290000 -33.369375 -19.010174 7.153238 500.000000
-0.260000 0.231906 0.290000 56.824641 28.381226 90.266688 500.000000
0.260000 0.090000 0.410000 -157.705430 55.103347 -32.413143 500.000000
0.260000 0.260000 0.363562 -248.550900 -391.591105 14.712424 500.000000
0.063256 0.260000 0.410000 -39.348876 -112.094624 -16.163354 500.000000
-0.260000 0.090000 0.410000 146.392898 370.582758 -26.267369 500.000000
0.260000 0.090000 0.290000 -383.461644 29.280692 147.225183 500.000000
0.260000 0.260000 0.312853 -26.672295 -27.857226 -19.429304 500.000000
-0.260000 0.090000 0.410000 87.152976 181.564784 -34.414648 500.000000
0.260000 0.090000 0.410000 -66.818159 23.362106 -18.998265 500.000000
-0.260000 0.090000 0.410000 120.468667 35.716867 -53.123549 500.000000
-0.260000 0.260000 0.410000 108.990571 -113.407533 -35.201794 500.000000
-0.260000 0.090000 0.290000 56.095837 23.249491 36.645778 500.000000
0.048316 0.090000 0.410000 61.663234 576.649903 -24.571319 500.000000
-0.260000 0.149811 0.410000 77.047072 -22.037858 -76.236949 500.000000
0.260000 0.090000 0.410000 -70.623420 780.663341 -23.376293 500.000000
-0.240404 0.090000 0.410000 -100.080771 44.716131 -27.229583 500.000000
0.260000 0.260000 0.312046 -79.870722 -31.846481 -19.590727 500.000000
0.260000 0.090000 0.410000 -60.726843 155.638266 -23.940301 500.000000
0.260000 0.090000 0.410000 -171.217683 36.487445 -18.120623 500.000000
0.224753 0.260000 0.290000 96.950598 -28.616043 35.399125 500.000000
0.260000 0.090000 0.410000 -168.107511 703.821505 -27.308295 500.000000
0.260000 0.090000 0.410000 -291.561267 36.577803 -18.440193 500.000000
0.034166 0.260000 0.410000 58.833208 -408.844905 -452.672770 500.000000
0.093523 0.090000 0.410000 70.704591 711.633599 -19.570330 500.000000
-0.260000 0.090000 0.410000 87.807778 259.240108 -15.594936 500.000000
-0.260000 0.090000 0.290000 195.138089 28.717518 35.929874 500.000000
0.215264 0.260000 0.290000 -8.947198 -17.631586 144.841367 500.000000
-0.260000 0.260000 0.410000 36.278223 -47.925562 -324.207757 500.000000
-0.260000 0.260000 0.290000 460.109482 -26.234868 102.626572 500.000000
-0.260000 0.090000 0.290000 885.987012 29.015698 107.275564 500.000000
0.260000 0.090000 0.410000 -120.919735 41.462236 -24.761693 500.000000
0.247315 0.260000 0.290000 101.463015 -51.348134 41.769386 500.000000
-0.260000 0.150392 0.410000 69.681180 -21.921512 -37.321151 500.000000
-0.182910 0.090000 0.290000 -42.756675 18.218168 283.267522 500.000000
0.260000 0.260000 0.371048 -83.074452 -468.576706 16.209638 500.000000
-0.260000 0.214564 0.290000 92.217071 24.912880 90.311703 500.000000
-0.260000 0.090000 0.410000 562.493308 35.950084 -26.029440 500.000000
0.260000 0.090000 0.410000 -126.697725 749.132094 -24.440455 500.000000
-0.260000 0.090000 0.410000 433.634881 36.430283 -44.903055 500.000000
0.048345 0.260000 0.410000 61.669097 -384.516128 -23.901281 500.000000
-0.260000 0.260000 0.290000 58.074410 -24.816979 96.743999 500.000000
0.260000 0.090000 0.410000 -146.900156 55.358688 -31.540927 500.000000
0.250819 0.260000 0.290000 102.163768 -49.637554 41.055561 500.000000
0.260000 0.090000 0.290000 -182.208163 33.693350 113.354090 500.000000
0.260000 0.090000 0.290000 -200.610428 32.486775 111.157443 500.000000
0.260000 0.090000 0.410000 -366.123507 36.624745 -18.536014 500.000000
0.151163 0.090000 0.290000 -21.767312 19.823124 15.757489 500.000000
0.260000 0.090000 0.410000 -424.063965 36.754552 -18.916104 500.000000
-0.169941 0.260000 0.410000 -85.988145 -201.104018 -47.209843 500.000000
0.177033 0.260000 0.290000 87.406597 -60.265918 41.096294 500.000000
0.203168 0.090000 0.410000 92.633664 255.536891 -73.629534 500.000000
-0.001150 0.260000 0.338460 -3.951598 -30.234514 -14.307994 500.000000
-0.260000 0.090000 0.410000 57.043821 36.358743 -18.256854 500.000000
-0.234632 0.090000 0.400500 -20.627011 44.244819 22.099969 500.000000
0.260000 0.090000 0.290000 -28.586867 45.450065 8.892031 500.000000
0.171175 0.260000 0.290000 86.234928 -52.331818 49.918814 500.000000
0.260000 0.090000 0.410000 -120.486657 30.945167 -572.535874 500.000000
0.260000 0.090000 0.410000 -60.983532 264.788394 -27.839509 500.000000
0.260000 0.090000 0.410000 -55.830724 331.085637 -40.657955 500.000000
-0.260000 0.260000 0.410000 93.550891 -107.388694 -36.370721 500.000000
-0.260000 0.090000 0.290000 173.972693 28.790013 35.483260 500.000000
-0.260000 0.221846 0.290000 59.780402 26.369239 92.526689 500.000000
0.260000 0.090000 0.290000 -111.175133 114.106155 114.811766 500.000000
-0.085356 0.141603 0.340280 34.928782 10.320694 -13.943968 500.000000
0.173628 0.260000 0.410000 86.725550 -385.424508 -27.920299 500.000000
-0.260000 0.090000 0.290000 55.026107 84.084373 27.769751 500.000000
-0.260000 0.090000 0.290000 80.513800 36.098219 120.711288 500.000000
-0.260000 0.090000 0.290000 94.772641 21.901729 34.255646 500.000000
-0.260000 0.260000 0.344297 52.592790 -23.794078 -13.140678 500.000000
0.260000 0.260000 0.410000 -73.928751 -393.507159 -23.178050 500.000000
0.260000 0.090000 0.410000 -87.660897 24.586790 -808.356514 500.000000
0.260000 0.090000 0.290000 -112.790799 50.658158 145.579407 500.000000
-0.260000 0.090000 0.410000 712.694154 22.323321 -19.334663 500.000000
-0.260000 0.260000 0.410000 87.904634 -112.464250 -35.241138 500.000000
-0.260000 0.260000 0.410000 243.432694 -107.800940 -18.823932 500.000000
0.243202 0.090000 0.410000 100.640482 197.891322 -27.834963 500.000000
0.260000 0.090000 0.290000 -109.561941 56.781029 156.103899 500.000000
0.189853 0.260000 0.290000 17.369823 -22.370670 136.415735 500.000000
0.260000 0.260000 0.290000 -62.442662 -101.032456 13.836817 500.000000
-0.126052 0.207241 0.290124 -20.262247 23.448121 -23.975249 500.000000
0.260000 0.090000 0.290000 -30.848113 65.150541 57.013314 500.000000
-0.260000 0.231558 0.290000 68.631795 28.311623 90.105597 500.000000
-0.260000 0.090000 0.290000 74.554735 36.569399 36.435989 500.000000
0.075463 0.260000 0.410000 67.092638 -384.799007 -27.813540 500.000000
-0.247400 0.090000 0.290000 -101.479900 19.745795 28.797160 500.000000
0.260000 0.232473 0.290000 -320.732347 28.494641 50.262811 500.000000
0.260000 0.260000 0.291360 -29.200702 -40.258859 -23.728050 500.000000
0.260000 0.090000 0.410000 -164.017069 54.574666 -17.171634 500.000000
0.231687 0.260000 0.410000 98.337425 -393.142923 -120.586235 500.000000
-0.251582 0.218825 0.410000 -10.354433 12.511258 -7.526902 500.000000
-0.260000 0.090000 0.410000 69.716938 24.601981 -69.071276 500.000000
-0.260000 0.090000 0.354092 99.245438 109.986065 12.818449 500.000000
0.226667 0.090000 0.410000 97.333357 344.435616 -28.658015 500.000000
0.260000 0.260000 0.290000 -74.523568 -49.455774 43.620240 500.000000
-0.260000 0.090000 0.290000 383.359154 126.391020 21.927578 500.000000
0.260000 0.090000 0.290000 -344.720532 21.284346 123.445790 500.000000
-0.146483 0.254195 0.290000 22.703302 17.434188 14.160655 500.000000
0.260000 0.090000 0.410000 -59.724443 281.332271 -28.385226 500.000000
-0.260000 0.090000 0.410000 399.206683 36.352007 -18.690086 500.000000
-0.260000 0.234442 0.290000 61.283331 28.888415 90.131760 500.000000
-0.180039 0.090000 0.410000 -3.335980 15.336298 -10.509481 500.000000
-0.159540 0.260000 0.410000 -26.161239 -32.637254 -27.181671 500.000000
0.193287 0.260000 0.290000 90.657388 -59.992001 58.815710 500.000000
0.260000 0.090000 0.290000 -129.500035 36.887166 110.692084 500.000000
0.098254 0.090000 0.290000 -32.349208 43.001724 15.519572 500.000000
-0.260000 0.090000 0.410000 311.958542 36.429001 -17.893567 500.000000
0.260000 0.149269 0.410000 -113.779539 -22.146184 -15.039335 500.000000
0.260000 0.090000 0.410000 -253.398216 62.857826 -41.772428 500.000000
-0.260000 0.219026 0.410000 56.829707 25.805220 -754.581477 500.000000
-0.260000 0.090000 0.290000 43.322482 292.202021 26.509358 500.000000
0.260000 0.090000 0.290000 -114.384020 121.648364 112.908656 500.000000
-0.260000 0.260000 0.410000 128.840502 -114.070958 -35.705635 500.000000
0.260000 0.090000 0.410000 -75.175918 269.330173 -27.922948 500.000000
-0.260000 0.090000 0.290000 860.593481 41.561519 73.496058 500.000000
0.260000 0.090000 0.401409 -115.535535 221.643805 22.281773 500.000000
0.168749 0.090000 0.410000 32.385611 13.016540 -53.362249 500.000000
0.183099 0.260000 0.290000 88.619762 -59.775889 87.252752 500.000000
0.237702 0.260000 0.290000 99.540404 -53.476570 46.444316 500.000000
-0.260000 0.225519 0.290000 57.054175 27.103819 89.337769 500.000000
0.260000 0.260000 0.290000 -62.147404 -46.793653 62.332333 500.000000
0.211599 0.260000 0.410000 94.319813 -383.317452 -24.456640 500.000000
-0.260000 0.187737 0.410000 27.571380 19.547413 -17.404822 500.000000
0.260000 0.260000 0.290000 -154.332288 -31.081718 125.033289 500.000000
-0.260000 0.260000 0.290000 48.481840 -46.930406 166.209067 500.000000
0.260000 0.090000 0.290000 -108.330109 28.789275 114.043713 500.000000
0.194656 0.260000 0.290000 90.931252 -31.478891 114.561249 500.000000
0.059792 0.090000 0.410000 -40.041583 121.744431 -52.787193 500.000000
-0.260000 0.260000 0.290000 63.186916 -21.166966 90.444095 500.000000
0.132273 0.260000 0.290000 78.454509 -49.724357 40.082237 500.000000
0.260000 0.090000 0.290000 -133.484051 29.059810 108.189374 500.000000
-0.260000 0.260000 0.410000 89.389899 -110.890000 -35.083263 500.000000
-0.260000 0.090000 0.383857 347.860130 203.990523 18.771439 500.000000
-0.260000 0.260000 0.410000 87.364917 -205.987296 -26.972819 500.000000
-0.260000 0.090000 0.290000 56.723266 23.130490 36.677943 500.000000
0.110527 0.260000 0.358400 74.105468 -562.895154 13.680053 500.000000
-0.260000 0.090000 0.410000 149.380489 19.489714 -38.460763 500.000000
0.260000 0.090000 0.410000 -110.718720 36.349229 -18.269219 500.000000
-0.260000 0.090000 0.290000 66.543968 28.958350 35.884299 500.000000
-0.260000 0.260000 0.410000 334.977471 -301.061080 -26.837833 500.000000
0.260000 0.090000 0.410000 -171.814546 55.469310 -30.527804 500.000000
0.260000 0.090000 0.410000 -168.315976 37.304395 -52.723943 500.000000
-0.260000 0.090000 0.290000 152.570589 28.812904 35.716122 500.000000
0.260000 0.090000 0.410000 -65.157707 206.630158 -34.607873 500.000000
