ply
format ascii 1.0
element vertex 240
property float x
property float y
property float z
property float vx
property float vy
property float vz
property float density
end_header
-0.089093 0.260000 0.394771 -69.818639 -38.485591 20.954206 500.000000
0.260000 0.090000 0.290000 -140.680596 130.299551 30.710721 500.000000
-0.260000 0.090000 0.410000 52.832769 30.069814 -13.573579 500.000000
0.260000 0.260000 0.410000 -39.448419 -36.451899 -48.742003 500.000000
0.205969 0.260000 0.381285 47.965973 -39.394771 5.015739 500.000000
-0.260000 0.260000 0.290000 17.301390 -31.523344 94.130272 500.000000
0.260000 0.112781 0.290000 -102.448859 -29.443859 71.362368 500.000000
0.260000 0.090000 0.290000 -241.878988 20.456932 61.703390 500.000000
-0.157561 0.260000 0.410000 -83.512229 -33.366567 -15.712591 500.000000
-0.252646 0.260000 0.410000 -102.529136 -253.949717 -124.900566 500.000000
0.260000 0.090000 0.290000 -109.633626 112.086459 65.724423 500.000000
0.260000 0.260000 0.290000 -71.218942 -112.641763 17.068323 500.000000
0.260000 0.103868 0.410000 -84.013900 -31.226484 -395.592131 500.000000
0.260000 0.192120 0.290000 -63.893502 20.424032 205.579754 500.000000
0.260000 0.090000 0.290000 -411.797622 31.882885 61.005948 500.000000
-0.026028 0.090000 0.410000 46.794494 50.986324 -15.341250 500.000000
0.117221 0.090000 0.410000 75.444143 167.644990 -16.764692 500.000000
0.260000 0.090000 0.290000 -401.431745 64.333132 60.621174 500.000000
-0.109363 0.090000 0.398976 -16.671941 26.830651 21.795209 500.000000
-0.260000 0.260000 0.410000 233.041928 -29.499199 -26.319094 500.000000
0.208896 0.189574 0.290000 93.779234 19.914786 32.894229 500.000000
-0.260000 0.090000 0.290000 237.192354 94.900214 73.425505 500.000000
-0.260000 0.260000 0.371511 78.545947 -31.432855 16.302201 500.000000
0.260000 0.260000 0.410000 -143.018956 -30.703417 -44.127020 500.000000
0.260000 0.090000 0.290000 -455.839070 59.754233 72.010372 500.000000
0.260000 0.260000 0.290000 -59.099122 -60.390057 14.238772 500.000000
0.089045 0.117316 0.410000 69.808974 -28.536713 -16.232410 500.000000
0.260000 0.260000 0.290000 -58.634123 -211.034246 19.607344 500.000000
0.260000 0.090000 0.290000 -105.499474 97.080814 31.340740 500.000000
0.260000 0.090000 0.290000 -129.112910 96.303443 51.428646 500.000000
0.260000 0.090000 0.290000 -90.835884 121.178328 29.097614 500.000000
-0.260000 0.090000 0.290000 131.228850 31.269256 101.524289 500.000000
0.109182 0.090000 0.410000 73.836410 21.638878 -40.646344 500.000000
0.183754 0.159108 0.410000 88.750714 -20.178481 -38.556448 500.000000
-0.260000 0.260000 0.290000 64.115067 -80.682687 77.096456 500.000000
-0.260000 0.090000 0.290000 239.494501 62.214541 72.395820 500.000000
0.260000 0.127411 0.338350 -109.379383 -26.517847 9.670098 500.000000
0.046571 0.115652 0.410000 61.314251 -28.869614 -15.552872 500.000000
-0.260000 0.260000 0.410000 55.897458 -33.613342 -13.909654 500.000000
-0.260000 0.260000 0.410000 126.786450 -59.398934 -118.083306 500.000000
0.260000 0.090000 0.410000 -61.833468 68.232858 -200.677710 500.000000
0.260000 0.090000 0.290000 -288.691791 181.736070 30.783723 500.000000
0.241549 0.196847 0.296856 100.309871 21.369349 -22.628808 500.000000
-0.260000 0.090000 0.290000 237.496903 62.224342 65.996358 500.000000
-0.098529 0.090000 0.290000 32.294158 7.790121 19.439672 500.000000
0.213588 0.184933 0.290000 94.717508 18.986633 29.309373 500.000000
0.118391 0.090000 0.410000 75.678221 21.688734 -40.444151 500.000000
0.260000 0.159541 0.290000 -36.645564 -20.091756 71.024255 500.000000
-0.260000 0.090000 0.290000 288.660432 60.118436 66.864338 500.000000
-0.066267 0.260000 0.371926 -65.253308 -84.227158 16.385208 500.000000
0.110532 0.090000 0.410000 74.106493 21.634415 -40.664203 500.000000
0.260000 0.090000 0.290000 -195.912516 168.882278 30.785713 500.000000
0.109600 0.090000 0.410000 73.919934 21.634659 -40.747518 500.000000
-0.260000 0.090000 0.290000 81.191942 45.424312 23.183485 500.000000
-0.260000 0.260000 0.371406 50.591699 -39.522691 16.281291 500.000000
0.178124 0.260000 0.290000 87.624857 -60.389749 14.510995 500.000000
0.260000 0.090000 0.410000 -50.892551 4.428779 -23.806772 500.000000
0.260000 0.090000 0.290000 -345.395907 32.879366 60.603316 500.000000
-0.260000 0.260000 0.290000 58.956207 -28.436781 68.282181 500.000000
0.260000 0.260000 0.410000 -162.508368 -35.077820 -44.692757 500.000000
0.260000 0.260000 0.410000 -157.593462 -45.483340 -44.777285 500.000000
-0.260000 0.090000 0.290000 254.436440 59.654664 61.045883 500.000000
0.260000 0.260000 0.290000 -176.437212 -21.021014 19.857865 500.000000
-0.260000 0.090000 0.290000 243.795848 100.906570 65.735469 500.000000
-0.260000 0.090000 0.410000 27.552585 9.285413 -61.929816 500.000000
-0.260000 0.090000 0.290000 235.953041 66.446523 60.624278 500.000000
-0.079389 0.260000 0.410000 -67.877870 -33.776188 -30.681966 500.000000
-0.260000 0.260000 0.290000 66.122968 -60.773206 22.945892 500.000000
-0.260000 0.260000 0.410000 251.718300 -60.207833 -14.645014 500.000000
0.260000 0.144145 0.290000 -43.960640 10.828991 34.039708 500.000000
0.260000 0.090000 0.410000 -70.260945 20.236056 -38.559334 500.000000
0.210695 0.187847 0.290000 94.138947 19.569492 29.387541 500.000000
0.110296 0.090000 0.410000 74.059177 26.324878 -38.166864 500.000000
0.100310 0.090000 0.290000 23.382907 21.072435 29.507741 500.000000
-0.260000 0.260000 0.410000 142.889806 -33.833839 -17.908828 500.000000
0.211505 0.182722 0.290000 94.300995 18.544492 29.332689 500.000000
0.243031 0.260000 0.410000 86.855958 -29.937460 -21.290445 500.000000
0.089216 0.090000 0.410000 -7.232028 14.087277 -28.340520 500.000000
0.260000 0.117554 0.290000 -150.960592 -28.489257 60.519286 500.000000
-0.260000 0.090000 0.290000 53.422332 70.104762 16.142595 500.000000
0.260000 0.090000 0.290000 -101.427288 96.042777 36.806952 500.000000
0.151847 0.137793 0.410000 82.369457 9.558628 -15.504535 500.000000
-0.260000 0.090000 0.406353 71.575166 23.988338 23.270622 500.000000
-0.260000 0.102078 0.410000 21.861081 -14.266249 -17.886092 500.000000
0.260000 0.260000 0.410000 -289.821925 -43.183112 -43.929512 500.000000
-0.260000 0.260000 0.290000 71.560314 -81.011926 66.984487 500.000000
0.220556 0.187978 0.290000 96.111270 19.595552 29.387610 500.000000
0.260000 0.260000 0.290000 -82.540100 -598.762453 29.813344 500.000000
0.260000 0.090000 0.406427 -365.329125 20.800169 23.285487 500.000000
0.260000 0.131240 0.410000 -126.255336 -25.751969 -417.906068 500.000000
0.210737 0.181040 0.290000 94.147396 18.207962 26.903392 500.000000
-0.063280 0.151337 0.290000 -32.060944 -21.732541 144.748074 500.000000
0.221885 0.194922 0.290000 62.124873 -13.015625 37.995875 500.000000
0.260000 0.090000 0.290000 -149.321434 179.716285 31.112592 500.000000
0.260000 0.260000 0.410000 -58.851457 -30.310031 -17.290097 500.000000
0.227487 0.191612 0.290000 97.497380 20.322439 34.256853 500.000000
-0.150147 0.260000 0.410000 -82.029345 -139.593151 -12.612117 500.000000
-0.260000 0.260000 0.290000 91.956628 -81.774622 62.238027 500.000000
0.260000 0.260000 0.290000 -90.313374 -770.230701 37.645011 500.000000
-0.260000 0.090115 0.391103 56.425866 -33.977070 20.220520 500.000000
-0.260000 0.090000 0.410000 97.299780 112.971617 -35.220747 500.000000
0.260000 0.090000 0.290000 -109.325715 158.112671 30.785972 500.000000
0.215472 0.260000 0.290000 95.094500 -60.390239 14.148326 500.000000
0.260000 0.260000 0.410000 -131.262047 -17.329492 -43.841335 500.000000
0.227761 0.180905 0.290000 97.552154 18.180994 40.311838 500.000000
-0.260000 0.260000 0.316083 430.113180 -200.469419 -18.783447 500.000000
0.118069 0.090000 0.410000 75.613881 21.636700 -40.575857 500.000000
0.210960 0.186471 0.290000 94.192024 19.294240 29.322513 500.000000
-0.260000 0.260000 0.390754 52.600268 -73.888082 20.150709 500.000000
0.109103 0.090000 0.410000 73.820625 21.642552 -40.130341 500.000000
-0.260000 0.090000 0.290000 242.254949 161.518989 71.371493 500.000000
0.260000 0.090000 0.290000 -110.883777 105.895604 29.508536 500.000000
0.208361 0.187749 0.290000 93.672209 19.549770 29.387606 500.000000
0.211225 0.188338 0.290000 94.244978 19.667637 30.256416 500.000000
-0.260000 0.122833 0.410000 57.931495 -27.433402 -341.058377 500.000000
0.204584 0.184071 0.290000 92.916895 18.814274 29.435507 500.000000
0.260000 0.090000 0.290000 -109.220979 109.172130 30.724175 500.000000
-0.093432 0.260000 0.362679 -70.686476 -38.986602 14.535793 500.000000
0.260000 0.090000 0.410000 -141.555803 18.071498 -116.629412 500.000000
0.260000 0.167410 0.410000 -75.200416 -18.518082 -38.511131 500.000000
-0.260000 0.090000 0.290000 347.796783 62.182295 40.866190 500.000000
-0.260000 0.090000 0.410000 234.533735 22.939464 -20.827808 500.000000
0.260000 0.090000 0.290000 -405.678560 43.394401 71.905670 500.000000
0.260000 0.260000 0.290000 -217.521762 -77.159770 33.910650 500.000000
-0.260000 0.090000 0.290000 238.652068 83.525887 71.468822 500.000000
-0.260000 0.260000 0.410000 34.248649 -29.858553 -15.071918 500.000000
-0.260000 0.090000 0.375544 229.721657 195.994789 -6.891102 500.000000
-0.260000 0.260000 0.290000 80.151542 -50.029051 59.746828 500.000000
-0.260000 0.260000 0.290000 136.790041 -20.186530 133.994319 500.000000
0.260000 0.260000 0.410000 -323.687010 -17.743886 -72.025514 500.000000
-0.260000 0.114299 0.378569 61.418658 -29.140245 17.713873 500.000000
0.216360 0.187879 0.290000 95.272056 19.575826 29.387609 500.000000
-0.260000 0.090000 0.403873 100.235001 29.121767 22.774572 500.000000
0.260000 0.260000 0.290000 -56.544785 -81.257531 15.735216 500.000000
0.026551 0.260000 0.410000 57.310116 -49.556753 -30.217640 500.000000
0.101853 0.109717 0.410000 72.370547 -30.056576 -26.901563 500.000000
-0.260000 0.260000 0.410000 57.916176 -35.693285 -122.827191 500.000000
-0.260000 0.129100 0.403221 79.558916 -26.179973 22.644290 500.000000
-0.026446 0.260000 0.410000 20.657823 -19.544774 -270.905647 500.000000
-0.260000 0.090000 0.290000 244.940080 170.371488 75.393919 500.000000
-0.260000 0.260000 0.328980 614.357295 -19.575885 -16.204098 500.000000
0.260000 0.090000 0.290000 -98.506223 194.795038 36.253121 500.000000
0.215041 0.183945 0.290000 95.008223 18.788904 28.726265 500.000000
-0.260000 0.260000 0.290000 132.774144 -61.297366 61.726581 500.000000
0.075658 0.114201 0.410000 67.131551 -29.159777 -42.923744 500.000000
-0.172026 0.260000 0.390194 -86.405235 -53.185082 20.038773 500.000000
0.260000 0.090000 0.290000 -409.754949 50.504887 60.596209 500.000000
0.260000 0.090000 0.290000 -342.195496 42.825858 69.495381 500.000000
-0.119196 0.149736 0.290000 -2.901538 -5.161798 19.657866 500.000000
-0.194152 0.260000 0.410000 -90.830364 -33.407883 -15.354021 500.000000
0.260000 0.216631 0.290000 -136.197473 25.326176 237.984944 500.000000
-0.260000 0.260000 0.290000 530.254005 -68.724839 62.193889 500.000000
0.260000 0.260000 0.290000 -80.155519 -63.296160 13.012093 500.000000
-0.260000 0.260000 0.290000 35.943888 -65.040916 13.308788 500.000000
-0.260000 0.090000 0.290000 235.738553 206.699825 23.438904 500.000000
-0.260000 0.260000 0.290000 123.721283 -476.317487 110.950541 500.000000
0.260000 0.090000 0.290000 -279.238049 21.705027 63.331395 500.000000
0.107346 0.090000 0.410000 73.469299 29.288651 -38.415063 500.000000
0.260000 0.189557 0.290000 -57.980251 19.911412 29.332682 500.000000
0.241991 0.090000 0.381001 31.427607 31.574069 18.200109 500.000000
-0.260000 0.090000 0.406301 74.136119 19.394221 23.260282 500.000000
-0.260000 0.132186 0.410000 65.563807 8.437192 -19.637057 500.000000
0.223589 0.187998 0.290000 96.717786 19.599576 29.385746 500.000000
-0.260000 0.090000 0.290000 830.738128 82.764065 67.935781 500.000000
-0.260000 0.260000 0.410000 175.923385 -29.938138 -17.945951 500.000000
-0.260000 0.260000 0.387466 57.217100 -42.348974 19.493123 500.000000
-0.111595 0.260000 0.410000 -74.319003 -35.734850 -140.412659 500.000000
-0.260000 0.090000 0.290000 236.510646 84.160889 65.629559 500.000000
-0.260000 0.260000 0.410000 102.874170 -30.788865 -17.079139 500.000000
-0.260000 0.166750 0.410000 262.109474 -18.650073 -31.466823 500.000000
-0.260000 0.090000 0.383194 73.573196 267.088069 18.638862 500.000000
0.260000 0.090000 0.290000 -166.704325 141.468954 31.419299 500.000000
0.260000 0.260000 0.410000 -167.828661 -56.216004 -44.885716 500.000000
0.064460 0.260000 0.316773 -4.533383 -9.675576 -5.921206 500.000000
-0.260000 0.260000 0.314909 331.011665 -77.664041 -19.018278 500.000000
-0.260000 0.260000 0.410000 270.990597 -28.934976 -22.563226 500.000000
-0.260000 0.090000 0.410000 90.883716 36.354948 -216.517095 500.000000
0.260000 0.090000 0.410000 -29.444278 27.356122 -12.320765 500.000000
-0.210597 0.260000 0.410000 -94.119466 -34.770294 -32.118342 500.000000
-0.260000 0.260000 0.290000 134.218601 -73.792520 16.806285 500.000000
0.210388 0.188256 0.290000 94.077606 19.651113 29.467927 500.000000
0.258310 0.181709 0.290000 103.662060 18.341816 48.088036 500.000000
0.130247 0.090000 0.410000 78.049344 21.409413 -45.530111 500.000000
0.260000 0.260000 0.410000 -147.653451 -30.495635 -51.106453 500.000000
0.198907 0.090000 0.372265 45.883979 31.449744 16.453004 500.000000
0.104675 0.090000 0.410000 33.219739 44.491357 -36.724417 500.000000
0.260000 0.090000 0.410000 -55.997325 18.201150 -165.821134 500.000000
0.260000 0.183833 0.290000 -52.067678 18.766541 29.274963 500.000000
0.211343 0.185237 0.290000 94.268636 19.047456 43.377730 500.000000
0.120767 0.090000 0.410000 76.153372 21.646029 -40.165557 500.000000
0.260000 0.260000 0.410000 -152.225377 -67.093053 -44.860949 500.000000
0.218577 0.260000 0.290000 95.715450 -61.236891 27.111838 500.000000
0.260000 0.260000 0.290000 -37.210123 -71.903717 18.798576 500.000000
-0.247212 0.260000 0.410000 -101.442437 -34.713444 -23.625169 500.000000
-0.260000 0.090000 0.410000 95.417566 130.802407 -18.905861 500.000000
0.260000 0.139748 0.290000 -85.016936 -24.050343 75.072117 500.000000
0.199479 0.260000 0.290000 91.895814 -60.429299 13.198348 500.000000
-0.260000 0.260000 0.410000 15.891855 -37.778061 -15.107225 500.000000
-0.260000 0.260000 0.310956 160.854989 -36.862139 -19.808713 500.000000
0.260000 0.184742 0.290000 -56.671984 18.948352 46.176186 500.000000
0.213938 0.187883 0.290000 94.787638 19.576587 29.387762 500.000000
0.182654 0.260000 0.299516 88.530713 -61.029838 -22.096824 500.000000
0.260000 0.260000 0.290000 -21.803909 -13.411674 9.031148 500.000000
0.260000 0.183808 0.290000 -54.698022 18.761545 48.474102 500.000000
-0.260000 0.127258 0.385151 54.956030 -26.548480 19.030190 500.000000
0.179106 0.090000 0.410000 3.229988 11.995701 -65.539178 500.000000
0.166267 0.175967 0.356798 12.152472 17.193315 13.359697 500.000000
-0.150615 0.260000 0.410000 -82.123019 -34.527204 -23.896211 500.000000
0.260000 0.090000 0.290000 -100.712738 96.026555 43.908495 500.000000
0.260000 0.260000 0.410000 -38.884252 -35.386739 -17.005467 500.000000
-0.260000 0.260000 0.410000 46.720321 -30.861476 -22.053499 500.000000
0.260000 0.260000 0.410000 -30.927666 -73.714841 -18.326809 500.000000
0.260000 0.260000 0.410000 -144.381509 -32.095487 -53.026964 500.000000
-0.260000 0.260000 0.410000 227.815664 -32.728634 -321.726782 500.000000
0.211395 0.187763 0.290000 94.279006 19.552554 29.385750 500.000000
0.203077 0.164350 0.410000 92.615475 -1.504763 -37.439635 500.000000
0.260000 0.260000 0.290000 -49.478405 -13.349819 53.494075 500.000000
0.260000 0.090000 0.290000 -57.646186 103.822195 30.592624 500.000000
-0.260000 0.260000 0.290000 21.092606 -70.797425 15.160635 500.000000
-0.087894 0.090000 0.290000 -5.625227 55.412234 70.480341 500.000000
0.260000 0.090000 0.290000 -107.889064 110.105775 195.890209 500.000000
0.260000 0.090000 0.410000 -57.554382 101.489122 -23.711405 500.000000
-0.260000 0.260000 0.410000 403.062604 -82.312645 -44.271524 500.000000
0.260000 0.090000 0.290000 -102.276417 150.745073 30.786439 500.000000
-0.236324 0.260000 0.293108 -45.446089 -76.033736 -23.378349 500.000000
0.074646 0.144607 0.410000 66.929284 -23.078675 -100.538317 500.000000
0.260000 0.090000 0.290000 -108.188558 160.969897 29.001460 500.000000
-0.260000 0.090000 0.290000 23.367254 23.950575 14.948935 500.000000
-0.260000 0.260000 0.410000 426.158186 -29.816513 -42.912349 500.000000
0.219385 0.187892 0.290000 95.877038 19.578462 29.424138 500.000000
0.149357 0.090000 0.410000 81.871371 28.642329 -92.318266 500.000000
0.199184 0.090000 0.410000 64.503928 107.527288 -23.654524 500.000000
0.209623 0.192331 0.290000 93.924614 20.466124 29.663271 500.000000
0.260000 0.260000 0.296497 -60.261738 -76.135983 -22.700535 500.000000
-0.204836 0.090000 0.290000 -36.668410 20.558092 13.676404 500.000000
-0.141855 0.260000 0.410000 23.629009 -12.644514 -15.991282 500.000000
0.260000 0.090000 0.410000 -119.821012 25.336752 -97.921794 500.000000
0.260000 0.260000 0.410000 -133.691929 -19.568060 -51.990552 500.000000
0.167970 0.090000 0.410000 85.593997 84.863318 -23.825281 500.000000
0.260000 0.189332 0.290000 -52.441842 19.866416 29.985709 500.000000
