ply
format ascii 1.0
element vertex 240
property float x
property float y
property float z
property float vx
property float vy
property float vz
property float density
end_header
0.260000 0.260000 0.290000 -95.085027 -155.710568 153.379686 500.000000
-0.260000 0.090000 0.290000 363.045723 59.184526 44.666542 500.000000
0.120095 0.230381 0.375904 41.202745 28.076106 17.180846 500.000000
-0.218539 0.260000 0.410000 -95.707818 -51.616540 -94.846223 500.000000
0.260000 0.260000 0.290000 -112.443577 -117.462399 44.071326 500.000000
-0.260000 0.260000 0.290000 115.528907 -52.417503 36.726571 500.000000
-0.260000 0.260000 0.290000 131.437918 -540.120717 43.794936 500.000000
-0.260000 0.090000 0.308434 12.467919 19.815122 -20.313263 500.000000
-0.260000 0.090000 0.410000 96.797873 104.530850 -61.500886 500.000000
0.260000 0.260000 0.290000 -234.987916 -136.666642 55.754456 500.000000
-0.260000 0.260000 0.410000 156.966187 -150.525216 -98.268900 500.000000
-0.260000 0.260000 0.410000 175.690857 -41.638441 -93.232471 500.000000
0.260000 0.090000 0.410000 -56.670437 128.920662 -27.278036 500.000000
-0.260000 0.260000 0.290000 136.697224 -55.600544 264.838772 500.000000
0.260000 0.090000 0.410000 -56.394896 129.113875 -26.016288 500.000000
0.260000 0.260000 0.410000 -86.197085 -120.209174 -52.357602 500.000000
0.260000 0.260000 0.410000 -118.023458 -67.207042 -97.163975 500.000000
0.260000 0.260000 0.290000 -239.320695 -114.158637 56.950508 500.000000
0.260000 0.260000 0.410000 -88.412905 -28.091382 -110.934531 500.000000
-0.260000 0.260000 0.410000 240.561279 -37.471019 -97.974809 500.000000
0.260000 0.260000 0.410000 -144.755373 -206.656225 -27.744497 500.000000
0.260000 0.260000 0.290000 -112.991483 -131.619386 43.531913 500.000000
0.260000 0.090000 0.290000 -337.872238 54.080487 42.115212 500.000000
0.260000 0.260000 0.290000 -92.263417 -53.755352 330.314607 500.000000
0.260000 0.090000 0.290000 -113.422622 28.173389 27.335049 500.000000
0.120334 0.145044 0.410000 -2.422687 -7.554346 -8.106353 500.000000
-0.260000 0.260000 0.290000 804.455612 -155.602972 186.141461 500.000000
-0.260000 0.178431 0.410000 44.186872 17.686207 -98.086444 500.000000
0.103081 0.260000 0.290000 -31.383875 -14.962376 19.695323 500.000000
0.260000 0.260000 0.290000 -112.558301 -28.241541 18.631184 500.000000
0.167588 0.090000 0.290000 85.517650 407.078274 49.728694 500.000000
-0.260000 0.260000 0.290000 108.519408 -52.252401 27.144521 500.000000
-0.260000 0.090000 0.290000 94.427474 473.068459 30.831083 500.000000
-0.260000 0.090000 0.410000 92.900010 93.138208 -60.078724 500.000000
0.260000 0.260000 0.410000 -52.304705 -80.355270 -93.337123 500.000000
0.260000 0.097802 0.290000 -47.587335 -32.439555 19.440518 500.000000
-0.260000 0.260000 0.290000 97.018424 -56.291345 25.685271 500.000000
-0.216270 0.090000 0.290000 -95.253908 57.102102 27.932632 500.000000
-0.260000 0.090000 0.410000 91.750052 169.509449 -59.638475 500.000000
0.260000 0.260000 0.290000 -309.859703 -241.268017 39.950792 500.000000
0.260000 0.090000 0.410000 -56.590707 129.110992 -26.106318 500.000000
0.260000 0.260000 0.290000 -129.924153 -141.541322 50.331799 500.000000
0.225572 0.090000 0.410000 97.114390 180.450672 -71.887936 500.000000
0.260000 0.260000 0.290000 -113.611124 -116.170047 46.164607 500.000000
0.260000 0.090000 0.290000 -314.800974 234.854925 14.822611 500.000000
-0.260000 0.090000 0.290000 191.167011 56.449959 45.544262 500.000000
0.260000 0.090000 0.290000 -60.669460 14.538976 26.317060 500.000000
-0.086788 0.260000 0.291779 34.642341 -85.642405 -23.644153 500.000000
-0.260000 0.090000 0.290000 277.356374 56.738296 45.648472 500.000000
0.260000 0.260000 0.290000 -88.038899 -156.936119 80.824196 500.000000
-0.260000 0.090000 0.410000 94.189985 102.584108 -61.111253 500.000000
-0.257973 0.260000 0.410000 -75.170919 -28.426306 -93.705467 500.000000
0.260000 0.090000 0.410000 -106.038220 612.397776 -123.730206 500.000000
-0.146598 0.260000 0.410000 -61.632703 -50.776092 -93.088234 500.000000
0.260000 0.090000 0.290000 -213.361361 56.792534 42.254233 500.000000
-0.260000 0.260000 0.290000 218.250806 -51.567570 26.883787 500.000000
-0.260000 0.260000 0.290000 64.715292 -56.435019 391.450378 500.000000
-0.260000 0.260000 0.290000 132.661713 -77.377069 28.612516 500.000000
0.260000 0.235341 0.290000 -146.758647 29.068201 331.110218 500.000000
0.062228 0.090000 0.410000 -18.308803 64.203002 -17.713108 500.000000
-0.108373 0.090000 0.410000 -73.674609 20.067557 -97.934925 500.000000
-0.260000 0.260000 0.410000 262.501097 -26.220524 -152.754770 500.000000
-0.260000 0.090000 0.410000 36.627407 155.138472 -23.469818 500.000000
-0.260000 0.260000 0.410000 88.492569 -29.755432 -24.448963 500.000000
-0.260000 0.260000 0.290000 143.194815 -51.003378 22.095452 500.000000
0.260000 0.260000 0.410000 -35.800620 -33.841516 -92.783513 500.000000
0.260000 0.260000 0.410000 -265.674709 -84.780536 -98.492956 500.000000
-0.171267 0.260000 0.410000 17.746693 -686.836420 -56.835853 500.000000
-0.218442 0.090000 0.290000 -95.688359 32.396443 50.385555 500.000000
-0.260000 0.090000 0.410000 505.755503 42.995857 -64.781671 500.000000
-0.260000 0.090000 0.290000 102.190946 42.206861 27.592074 500.000000
0.260000 0.260000 0.410000 -48.128061 -72.361605 -92.704882 500.000000
0.260000 0.090000 0.290000 -273.207402 46.894312 41.951500 500.000000
-0.244936 0.260000 0.410000 -100.987214 -35.743409 -97.710012 500.000000
-0.048120 0.090000 0.290000 -61.623925 76.782794 88.697240 500.000000
0.260000 0.090000 0.410000 -57.332012 128.868833 -26.086022 500.000000
0.260000 0.090000 0.410000 -56.612760 129.135398 -26.982941 500.000000
0.260000 0.090000 0.290000 -74.142207 70.446634 20.211101 500.000000
0.260000 0.090000 0.410000 -56.581496 129.143840 -27.128191 500.000000
0.034523 0.090000 0.410000 58.904600 151.956303 -18.983509 500.000000
-0.260000 0.090000 0.290000 53.502783 39.223363 87.037890 500.000000
0.260000 0.260000 0.410000 -71.505627 -61.237903 -113.925742 500.000000
0.182198 0.232172 0.290000 9.387894 16.943315 14.579046 500.000000
0.260000 0.090000 0.410000 -86.005644 18.083400 -21.941457 500.000000
-0.260000 0.146914 0.290000 80.917926 -22.617287 42.188252 500.000000
0.260000 0.090000 0.410000 -58.866893 25.825748 -42.407795 500.000000
0.012057 0.260000 0.410000 -31.503016 -108.854067 -92.534739 500.000000
-0.026795 0.090000 0.290000 46.641045 365.194201 51.937094 500.000000
0.260000 0.260000 0.410000 -325.180441 -33.235653 -98.063777 500.000000
-0.260000 0.090000 0.290000 670.805090 47.452252 42.248895 500.000000
0.260000 0.260000 0.290000 -73.641714 -124.566910 20.398574 500.000000
-0.226678 0.260000 0.410000 -97.335548 -52.989484 -94.638337 500.000000
0.260000 0.090000 0.290000 -68.151295 56.348450 44.604349 500.000000
0.189028 0.260000 0.290000 4.478916 -68.202934 148.403425 500.000000
0.260000 0.260000 0.290000 -114.204342 -124.197960 43.668726 500.000000
-0.016545 0.090000 0.290000 15.334446 20.579018 23.345405 500.000000
-0.260000 0.182213 0.410000 66.845019 2.164914 -14.991279 500.000000
-0.260000 0.260000 0.290000 106.206735 -56.790978 27.761509 500.000000
0.260000 0.090000 0.410000 -116.803953 61.875078 -21.495146 500.000000
-0.250376 0.260000 0.410000 -102.075108 -68.350702 -18.742811 500.000000
0.069064 0.260000 0.410000 65.812732 -54.926615 -27.659100 500.000000
-0.260000 0.260000 0.410000 290.732549 -32.135153 -59.955382 500.000000
-0.245994 0.090000 0.290000 -101.198701 89.750470 143.291472 500.000000
-0.260000 0.260000 0.290000 65.359029 -91.048400 36.682496 500.000000
-0.260000 0.260000 0.410000 53.608960 -25.153087 -119.868374 500.000000
-0.260000 0.090000 0.410000 92.737174 93.493391 -60.107659 500.000000
0.204047 0.090000 0.410000 92.809330 141.216933 -126.129402 500.000000
-0.260000 0.260000 0.410000 141.020540 -60.949576 -93.193806 500.000000
-0.260000 0.090000 0.290000 63.381317 33.211588 49.925104 500.000000
0.260000 0.260000 0.410000 -43.120286 -33.362962 -98.363688 500.000000
-0.260000 0.090000 0.410000 175.454791 44.095486 -217.862387 500.000000
0.260000 0.260000 0.410000 -199.358422 -32.544459 -93.580332 500.000000
0.049869 0.090000 0.410000 61.973782 178.957356 -24.452307 500.000000
-0.260000 0.260000 0.290000 55.472196 -63.012427 33.875245 500.000000
0.260000 0.260000 0.410000 -84.218765 -22.555020 -95.849942 500.000000
0.260000 0.090000 0.410000 -56.949831 129.118995 -26.139725 500.000000
0.260000 0.260000 0.290000 -111.012172 -30.101162 21.088203 500.000000
-0.231911 0.260000 0.410000 -98.382238 -32.603596 -103.577698 500.000000
0.260000 0.090000 0.410000 -57.431225 128.830781 -26.180957 500.000000
0.260000 0.260000 0.300383 -66.865769 -65.715588 -21.923419 500.000000
0.260000 0.260000 0.410000 -60.456905 -33.140188 -78.342544 500.000000
-0.260000 0.260000 0.410000 56.230137 -25.002619 -44.956618 500.000000
-0.260000 0.090000 0.290000 619.860840 55.095908 47.059889 500.000000
0.176556 0.153981 0.410000 24.464979 -21.203818 -15.225032 500.000000
0.260000 0.260000 0.314239 -69.649913 -151.477929 -19.152221 500.000000
0.245913 0.260000 0.290000 28.587688 -40.967681 15.251830 500.000000
0.260000 0.090000 0.290000 -34.738236 32.703482 30.271670 500.000000
0.260000 0.090000 0.410000 -62.367617 129.404798 -25.816416 500.000000
0.260000 0.260000 0.290000 -120.041945 -121.079295 46.583192 500.000000
-0.260000 0.090000 0.410000 145.975500 43.862669 -62.116137 500.000000
0.260000 0.090000 0.385573 -25.423522 64.377044 19.114524 500.000000
0.260000 0.137629 0.410000 -321.510590 9.525787 -28.104627 500.000000
-0.260000 0.260000 0.290000 247.852382 -49.850567 27.941668 500.000000
0.260000 0.090000 0.410000 -56.481262 127.506891 -58.828292 500.000000
0.260000 0.260000 0.410000 -420.652394 -31.864841 -97.841447 500.000000
0.260000 0.090000 0.410000 -52.408642 131.458425 -137.581271 500.000000
0.260000 0.260000 0.410000 -45.102681 -40.061956 -95.700958 500.000000
-0.260000 0.260000 0.290000 111.208494 -99.319238 53.684648 500.000000
0.260000 0.090000 0.410000 -73.556233 62.897072 -18.004133 500.000000
0.260000 0.260000 0.290000 -121.444218 -114.233228 43.726329 500.000000
0.260000 0.090000 0.290000 -343.917910 51.445360 50.543656 500.000000
0.260000 0.090000 0.290000 -417.569490 46.616271 41.751990 500.000000
0.260000 0.090000 0.410000 -57.544942 128.849510 -26.244153 500.000000
0.116798 0.090000 0.290000 -16.525035 46.938336 27.256169 500.000000
0.260000 0.090000 0.410000 -57.806754 128.955021 -26.985955 500.000000
-0.060014 0.090000 0.290000 16.020584 25.144067 22.235821 500.000000
0.260000 0.260000 0.290000 -91.913723 -156.769955 43.889350 500.000000
-0.050065 0.260000 0.410000 -62.012919 -24.349553 -294.682078 500.000000
-0.260000 0.260000 0.290000 55.735431 -53.612552 23.788500 500.000000
0.260000 0.090000 0.410000 -56.649705 128.958926 -27.363818 500.000000
-0.085255 0.090000 0.410000 34.949001 177.069740 -44.269870 500.000000
-0.034023 0.090000 0.290000 -5.794581 181.895092 12.310088 500.000000
0.260000 0.260000 0.290000 -89.569102 -125.016184 79.198745 500.000000
0.260000 0.090000 0.290000 -367.960715 41.327374 20.645114 500.000000
0.260000 0.260000 0.410000 -100.554527 -21.890310 -111.458824 500.000000
-0.160492 0.260000 0.410000 -84.098410 -20.683430 -156.397734 500.000000
-0.260000 0.260000 0.410000 79.224932 -36.859843 -97.872305 500.000000
-0.260000 0.090000 0.290000 535.151990 55.386048 45.272435 500.000000
-0.260000 0.260000 0.290000 118.036119 -52.764846 36.806362 500.000000
0.260000 0.090000 0.290000 -59.621670 373.282373 56.377727 500.000000
-0.065523 0.157982 0.370021 -47.364489 -20.403693 16.004148 500.000000
0.260000 0.260000 0.410000 -95.247847 -43.697817 -111.787375 500.000000
-0.260000 0.090000 0.290000 59.100008 276.686975 14.401172 500.000000
-0.260000 0.090000 0.290000 161.107699 84.635196 386.374882 500.000000
-0.260000 0.090000 0.290000 218.174908 27.817532 40.359238 500.000000
-0.260000 0.260000 0.290000 65.683944 -76.841634 24.062060 500.000000
0.260000 0.260000 0.410000 -217.590452 -76.049229 -92.806171 500.000000
0.001442 0.090000 0.290000 -51.711595 93.822512 23.463486 500.000000
0.260000 0.090000 0.290000 -66.088069 119.343788 179.519378 500.000000
0.260000 0.090000 0.410000 -56.260443 73.184439 -32.457579 500.000000
-0.260000 0.260000 0.410000 56.626412 -57.174192 -93.351276 500.000000
0.224963 0.260000 0.410000 96.992581 -38.563464 -39.254805 500.000000
0.260000 0.260000 0.410000 -53.328173 -22.101441 -111.440418 500.000000
0.260000 0.090000 0.290000 -53.165174 143.849420 221.641664 500.000000
-0.260000 0.260000 0.290000 72.618851 -86.252215 538.693576 500.000000
-0.260000 0.131584 0.290000 63.221441 -25.683262 21.945448 500.000000
-0.111085 0.260000 0.290000 -14.513640 -42.792758 24.546483 500.000000
-0.260000 0.260000 0.290000 58.161375 -29.046527 226.520443 500.000000
-0.260000 0.260000 0.290000 153.460679 -56.651698 27.116800 500.000000
-0.260000 0.090000 0.290000 137.258134 86.520967 49.085478 500.000000
0.260000 0.260000 0.410000 -55.956746 -41.194200 -111.360065 500.000000
-0.260000 0.090000 0.290000 41.945810 19.188980 18.513104 500.000000
-0.260000 0.260000 0.359169 84.795416 -57.010778 13.833712 500.000000
0.260000 0.146237 0.290000 -56.488263 -21.728097 27.426018 500.000000
-0.260000 0.090000 0.410000 88.994904 218.415686 -59.875784 500.000000
0.260000 0.260000 0.410000 -118.486546 -74.591350 -482.689722 500.000000
-0.139044 0.090000 0.290000 -12.058739 13.257094 12.481807 500.000000
-0.260000 0.090000 0.344121 140.278254 97.288414 -13.175815 500.000000
-0.260000 0.260000 0.410000 102.014888 -20.200713 -14.068711 500.000000
0.260000 0.260000 0.410000 -52.908337 -21.809409 -114.735264 500.000000
0.260000 0.260000 0.290000 -215.262274 -113.505712 53.990662 500.000000
0.251155 0.090000 0.290000 102.230966 424.277646 51.949364 500.000000
-0.248164 0.090000 0.290000 -36.903914 56.543997 44.060763 500.000000
-0.119249 0.260000 0.377393 -14.641849 -18.597850 17.478506 500.000000
0.260000 0.260000 0.410000 -97.049672 -27.316457 -113.638402 500.000000
0.260000 0.090000 0.410000 -56.583678 129.005302 -29.238129 500.000000
-0.260000 0.260000 0.290000 124.051060 -57.805900 27.221509 500.000000
-0.163509 0.260000 0.290000 -10.503067 -23.166678 22.869923 500.000000
0.112068 0.260000 0.410000 -14.879033 -114.789360 -92.696495 500.000000
0.260000 0.260000 0.290000 -98.418862 -155.673685 114.805809 500.000000
0.260000 0.090000 0.290000 -132.963618 64.228003 39.889480 500.000000
0.137260 0.090000 0.290000 79.451927 139.701094 26.303931 500.000000
0.260000 0.090000 0.410000 -56.585064 129.311987 -26.046766 500.000000
-0.260000 0.090000 0.410000 84.237441 44.311418 -57.067032 500.000000
0.260000 0.090000 0.410000 -499.810881 92.912103 -58.955350 500.000000
-0.260000 0.260000 0.290000 107.018130 -51.627445 21.959544 500.000000
0.260000 0.235670 0.290000 -67.858110 29.133997 70.560058 500.000000
0.260000 0.090000 0.290000 -72.464632 403.468632 48.760890 500.000000
-0.260000 0.260000 0.410000 220.467689 -63.604862 -95.210372 500.000000
0.260000 0.260000 0.410000 -105.943673 -25.241685 -111.789615 500.000000
0.260000 0.090000 0.290000 -33.382007 83.230723 26.989069 500.000000
0.260000 0.260000 0.410000 -274.234778 -25.571927 -44.608186 500.000000
-0.164342 0.260000 0.410000 -16.068838 -23.262569 -208.862517 500.000000
0.260000 0.260000 0.290000 -94.341381 -154.808764 228.616230 500.000000
0.260000 0.260000 0.290000 -116.194617 -129.597697 65.293148 500.000000
-0.260000 0.260000 0.290000 107.125363 -54.234794 24.043843 500.000000
0.260000 0.260000 0.290000 -165.730523 -102.851399 128.879999 500.000000
0.260000 0.260000 0.410000 -110.446150 -35.264165 -97.923822 500.000000
0.260000 0.173183 0.290000 -56.800199 -8.910141 13.502710 500.000000
0.260000 0.260000 0.290000 -534.671879 -39.969263 379.821090 500.000000
0.260000 0.260000 0.290000 -26.224382 -87.493634 542.018691 500.000000
0.260000 0.090000 0.290000 -48.235001 31.817727 53.303739 500.000000
0.260000 0.260000 0.290000 -98.966889 -41.558825 337.910005 500.000000
0.178209 0.260000 0.410000 61.649867 -25.410891 -203.530076 500.000000
-0.260000 0.260000 0.290000 131.669482 -84.711355 28.471520 500.000000
0.260000 0.260000 0.290000 -73.999747 -114.580630 39.830901 500.000000
0.260000 0.090000 0.290000 -148.908887 32.900493 29.872857 500.000000
-0.260000 0.260000 0.410000 62.571022 -50.873433 -92.719399 500.000000
0.260000 0.260000 0.410000 -30.342905 -24.665357 -37.585514 500.000000
-0.260000 0.260000 0.410000 54.466258 -431.489822 -60.258246 500.000000
-0.260000 0.090000 0.290000 65.892437 32.735317 50.053837 500.000000
0.260000 0.260000 0.410000 -69.991434 -754.037360 -27.412008 500.000000
-0.260000 0.090000 0.410000 464.942844 77.996703 -66.677018 500.000000
0.260000 0.090000 0.410000 -56.712036 128.850054 -27.278044 500.000000
-0.260000 0.090000 0.290000 105.197177 56.059774 46.877486 500.000000
0.236574 0.260000 0.410000 99.314777 -812.219852 -71.333155 500.000000
0.260000 0.090000 0.410000 -173.275181 63.339832 -13.949148 500.000000
0.260000 0.090000 0.410000 -62.787716 109.120487 -134.376536 500.000000
-0.260000 0.090000 0.290000 449.495776 55.477664 46.204406 500.000000
0.260000 0.260000 0.410000 -87.563361 -26.142994 -138.549840 500.000000
