ply
format ascii 1.0
element vertex 240
property float x
property float y
property float z
property float vx
property float vy
property float vz
property float density
end_header
0.260000 0.090000 0.410000 -213.721086 58.733613 -110.102022 500.000000
-0.260000 0.090000 0.410000 466.991316 48.669602 -43.575868 500.000000
0.260000 0.090000 0.290000 -52.196881 42.835185 81.215003 500.000000
-0.083798 0.260000 0.290000 35.240368 -64.269076 61.206262 500.000000
0.257838 0.090000 0.290000 103.567557 40.595862 80.934165 500.000000
-0.260000 0.090000 0.410000 15.504728 98.310881 -135.888604 500.000000
-0.089377 0.090000 0.322199 -69.875401 19.692345 -17.560217 500.000000
-0.260000 0.090000 0.290000 70.262360 63.793594 39.623107 500.000000
-0.260000 0.260000 0.290000 24.807517 -466.166792 50.970358 500.000000
-0.260000 0.260000 0.410000 516.204211 -68.518906 -240.375918 500.000000
-0.260000 0.260000 0.290000 51.443211 -8.478415 129.468459 500.000000
-0.260000 0.090000 0.410000 65.614949 37.689875 -61.182829 500.000000
-0.260000 0.260000 0.290000 61.638546 -29.517570 31.592789 500.000000
-0.260000 0.217766 0.410000 232.091070 -8.446741 -264.426411 500.000000
-0.260000 0.260000 0.290000 100.436471 -44.833477 129.233252 500.000000
0.260000 0.090000 0.410000 -213.497315 58.379914 -85.736926 500.000000
0.180415 0.120798 0.410000 18.800190 -7.106305 -14.286276 500.000000
-0.260000 0.260000 0.290000 53.183618 -4.717492 69.919809 500.000000
-0.260000 0.090000 0.410000 197.211867 32.721131 -39.552552 500.000000
-0.191342 0.260000 0.290000 -90.268444 -17.780299 31.194963 500.000000
-0.215547 0.260000 0.290000 -95.109407 -17.757407 31.072502 500.000000
0.260000 0.260000 0.410000 -125.545322 -36.254791 -28.866741 500.000000
0.260000 0.090000 0.290000 -160.857159 28.105340 512.554130 500.000000
0.260000 0.090000 0.290000 -64.799332 37.331753 87.687374 500.000000
-0.260000 0.260000 0.410000 68.167864 -35.529712 -73.045411 500.000000
-0.260000 0.090000 0.410000 58.042991 33.220620 -25.258217 500.000000
-0.039975 0.090000 0.290000 21.579701 31.781107 25.279393 500.000000
-0.260000 0.260000 0.290000 91.009469 -27.573885 33.768100 500.000000
-0.260000 0.090000 0.410000 58.307701 70.547286 -17.180240 500.000000
0.260000 0.260000 0.410000 -199.121659 -33.512996 -27.451628 500.000000
-0.260000 0.090000 0.410000 146.427198 38.488996 -46.507534 500.000000
-0.246465 0.090000 0.410000 -101.293050 33.805288 -15.918850 500.000000
-0.260000 0.194320 0.410000 188.829475 20.863922 -99.699563 500.000000
-0.260000 0.260000 0.410000 113.204371 -28.379148 -302.403337 500.000000
-0.260000 0.260000 0.410000 24.841796 -18.332981 -34.297787 500.000000
-0.260000 0.260000 0.363768 34.765899 -17.130339 14.753697 500.000000
0.260000 0.090000 0.410000 -337.169342 119.246306 -60.232118 500.000000
-0.000172 0.090000 0.410000 22.834194 38.306762 -102.713665 500.000000
-0.260000 0.260000 0.290000 77.596502 -46.735499 125.047045 500.000000
0.260000 0.090000 0.410000 -216.784041 50.384840 -75.685175 500.000000
-0.260000 0.260000 0.290000 84.938227 -17.884015 32.975589 500.000000
-0.260000 0.090000 0.410000 59.623303 139.533336 -55.628100 500.000000
-0.260000 0.260000 0.410000 56.857601 -112.879527 -69.884894 500.000000
0.260000 0.090000 0.410000 -214.330452 49.363879 -70.590597 500.000000
-0.260000 0.260000 0.328012 128.242994 -60.122271 -16.397500 500.000000
0.260000 0.090000 0.410000 -94.667574 183.350895 -217.481314 500.000000
-0.207078 0.260000 0.290000 -93.415582 -18.423216 32.717912 500.000000
0.002713 0.090000 0.290000 1.573912 262.539002 106.104567 500.000000
-0.260000 0.090000 0.410000 144.127247 31.436560 -358.479762 500.000000
-0.260000 0.090000 0.410000 57.673831 36.335253 -25.929527 500.000000
0.260000 0.179518 0.290000 -37.340771 17.903541 295.204168 500.000000
-0.260000 0.192971 0.290000 116.815000 -13.405808 37.715065 500.000000
0.260000 0.090000 0.290000 -52.756323 47.262075 81.466265 500.000000
-0.260000 0.090000 0.410000 414.103683 56.914056 -97.254267 500.000000
-0.006666 0.192579 0.351531 -11.122751 20.515794 12.306180 500.000000
-0.260000 0.090000 0.290000 510.571342 29.683211 50.809819 500.000000
-0.260000 0.260000 0.290000 86.862044 -101.128092 30.412261 500.000000
-0.260000 0.260000 0.410000 429.053170 -58.256924 -125.972308 500.000000
0.260000 0.090000 0.290000 -52.804073 40.529703 81.064686 500.000000
0.260000 0.090000 0.290000 -39.717778 116.296352 119.748035 500.000000
0.205421 0.090000 0.290000 93.084107 17.231751 261.111752 500.000000
-0.070077 0.260000 0.410000 37.984510 -22.020774 -57.801540 500.000000
-0.260000 0.260000 0.410000 56.717924 -46.535641 -79.279366 500.000000
0.260000 0.090000 0.290000 -109.433372 45.319409 69.005054 500.000000
0.260000 0.090000 0.410000 -212.709378 58.391531 -117.720460 500.000000
-0.260000 0.090000 0.290000 71.369057 75.163437 44.052508 500.000000
-0.196979 0.260000 0.290000 -91.395898 -17.822540 31.356426 500.000000
-0.260000 0.259200 0.290000 52.756883 33.839929 37.736802 500.000000
-0.157796 0.260000 0.290000 -83.559259 -17.939777 32.954900 500.000000
0.260000 0.260000 0.410000 -641.485896 -29.891076 -33.052142 500.000000
0.192789 0.154016 0.290000 2.117243 12.803235 14.196595 500.000000
0.023393 0.090000 0.410000 9.000616 70.984986 -314.069527 500.000000
0.260000 0.155467 0.405265 -10.672192 -5.164306 10.998424 500.000000
-0.256040 0.260000 0.410000 -103.208097 -36.195914 -73.282213 500.000000
0.260000 0.197853 0.410000 -99.392043 21.570518 -17.364222 500.000000
-0.260000 0.090000 0.410000 27.012394 56.393415 -150.317312 500.000000
0.260000 0.260000 0.290000 -99.560426 -80.689868 129.779516 500.000000
-0.260000 0.260000 0.290000 95.058874 -47.423421 123.716530 500.000000
-0.260000 0.260000 0.410000 58.423278 -35.531762 -73.049167 500.000000
-0.260000 0.090000 0.290000 61.361565 77.836150 43.918205 500.000000
-0.249026 0.260000 0.290000 -101.805115 -24.172629 31.594163 500.000000
-0.260000 0.090000 0.410000 351.578621 59.384265 -50.521903 500.000000
-0.260000 0.090000 0.290000 47.921027 54.959503 59.096212 500.000000
0.260000 0.090000 0.290000 -52.921643 40.591545 81.003954 500.000000
-0.260000 0.260000 0.290000 18.995110 -82.225429 37.932703 500.000000
-0.260000 0.090000 0.290000 26.307631 129.697989 15.440374 500.000000
-0.015630 0.090000 0.290000 -55.126012 57.668056 43.081958 500.000000
0.260000 0.260000 0.410000 -124.970975 -39.643866 -31.217799 500.000000
-0.260000 0.090000 0.410000 499.326232 57.855483 -92.487225 500.000000
-0.260000 0.260000 0.290000 45.107440 -48.148640 133.223765 500.000000
-0.260000 0.260000 0.290000 158.874076 -59.085810 124.685236 500.000000
0.260000 0.090000 0.290000 -104.899592 48.075873 70.625778 500.000000
0.163907 0.090000 0.290000 84.781381 30.010651 70.564672 500.000000
0.260000 0.211968 0.392354 -81.241097 24.393557 20.470843 500.000000
-0.260000 0.260000 0.410000 54.252616 -46.873117 -76.361096 500.000000
-0.260000 0.090000 0.410000 410.876372 17.433801 -24.381428 500.000000
-0.260000 0.260000 0.410000 207.370245 -35.759240 -76.470573 500.000000
0.087441 0.090000 0.290000 69.488158 36.636728 119.979670 500.000000
-0.260000 0.090000 0.290000 81.302441 61.753830 53.380551 500.000000
-0.260000 0.260000 0.290000 61.622332 -39.940602 123.981389 500.000000
-0.185214 0.090000 0.410000 -89.042768 62.008765 -20.780905 500.000000
-0.260000 0.260000 0.410000 55.152125 -40.749144 -102.416361 500.000000
0.260000 0.260000 0.290000 -424.916803 -20.253407 26.419031 500.000000
0.260000 0.090000 0.290000 -52.511284 44.860467 84.848311 500.000000
0.260000 0.260000 0.410000 -109.473671 -105.991545 -29.077655 500.000000
-0.260000 0.260000 0.290000 74.388832 -17.765655 33.702515 500.000000
0.132780 0.173497 0.290000 -25.444044 -17.300577 174.103424 500.000000
-0.260000 0.090000 0.290000 62.153659 73.584618 44.040804 500.000000
-0.260000 0.260000 0.290000 47.502765 -48.124136 127.753048 500.000000
0.260000 0.090000 0.290000 -38.119454 58.511487 53.397864 500.000000
-0.260000 0.090000 0.410000 53.545933 43.546698 -22.868554 500.000000
0.260000 0.111296 0.290000 -14.458786 -14.951214 10.142756 500.000000
-0.260000 0.118436 0.410000 5.234907 -8.462546 -16.517481 500.000000
0.260000 0.260000 0.290000 -53.893541 -52.755102 19.335902 500.000000
-0.219639 0.237584 0.290000 -95.927796 29.516739 324.553726 500.000000
0.260000 0.260000 0.290000 -99.285143 -51.077801 126.940750 500.000000
0.260000 0.260000 0.290000 -185.019302 -19.923300 132.772193 500.000000
0.106383 0.090000 0.290000 -30.723319 60.829318 19.782559 500.000000
0.034987 0.260000 0.363442 3.192669 -26.858987 14.688433 500.000000
0.260000 0.090000 0.410000 -46.900569 32.463608 -13.394474 500.000000
-0.260000 0.090000 0.290000 59.573938 69.738157 39.714792 500.000000
-0.260000 0.090000 0.290000 70.285166 74.924550 44.041496 500.000000
-0.260000 0.090000 0.410000 80.244596 26.305062 -167.689008 500.000000
0.260000 0.090000 0.290000 -52.983292 40.647973 83.189850 500.000000
-0.260000 0.260000 0.410000 54.676479 -45.534837 -76.401892 500.000000
-0.183663 0.260000 0.290000 -88.732571 -20.974632 31.264706 500.000000
0.260000 0.106730 0.410000 -230.193864 -30.654041 -357.708443 500.000000
0.260000 0.260000 0.290000 -340.086818 -56.503048 153.349641 500.000000
0.019738 0.260000 0.410000 29.153076 -65.878947 -108.600776 500.000000
-0.260000 0.260000 0.410000 59.433726 -95.932927 -64.177306 500.000000
0.260000 0.090000 0.348303 -42.130857 18.812621 11.660684 500.000000
-0.189096 0.260000 0.290000 -89.819296 -17.787323 31.187600 500.000000
0.260000 0.090000 0.410000 -238.405577 151.172250 -15.950413 500.000000
-0.260000 0.260000 0.410000 53.001793 -35.726779 -75.033036 500.000000
0.232585 0.260000 0.290000 23.470792 -264.119112 33.648362 500.000000
0.260000 0.260000 0.290000 -60.192466 -262.324396 33.566136 500.000000
0.260000 0.260000 0.290000 -57.269413 -41.578570 131.377569 500.000000
-0.180976 0.090000 0.410000 -88.195223 223.976715 -21.288165 500.000000
-0.260000 0.090000 0.310854 62.437613 25.349345 -19.829285 500.000000
0.260000 0.090000 0.410000 -25.632163 43.767008 -39.287830 500.000000
-0.168551 0.260000 0.290000 -85.710216 -53.626447 31.565647 500.000000
0.260000 0.260000 0.290000 -97.625558 -50.935067 129.718732 500.000000
-0.198652 0.260000 0.290000 -91.730462 -17.811148 31.357186 500.000000
0.260000 0.090000 0.410000 -205.030706 180.616109 -85.645395 500.000000
0.260000 0.260000 0.410000 -112.615785 -57.407769 -26.746666 500.000000
0.260000 0.090000 0.410000 -216.114691 46.493804 -72.260663 500.000000
-0.260000 0.090000 0.410000 66.282868 207.320876 -105.456557 500.000000
0.260000 0.260000 0.410000 -278.258981 -45.160879 -169.840141 500.000000
0.145762 0.090000 0.290000 22.711350 20.317366 9.174007 500.000000
-0.260000 0.090000 0.410000 54.720174 34.352337 -19.796103 500.000000
-0.191458 0.117306 0.290000 -35.936854 -28.538713 65.528337 500.000000
0.260000 0.209232 0.410000 -40.370893 -10.153642 -28.165619 500.000000
-0.260000 0.090000 0.290000 55.030307 203.239495 47.063423 500.000000
-0.168682 0.260000 0.290000 -85.736483 -34.436430 31.885818 500.000000
0.256933 0.090000 0.290000 103.386669 40.590568 80.856109 500.000000
0.260000 0.260000 0.410000 -107.321237 -35.986008 -29.375490 500.000000
0.260000 0.090000 0.290000 -366.586419 58.853299 39.611794 500.000000
-0.260000 0.260000 0.410000 27.583622 -111.046553 -89.291996 500.000000
-0.260000 0.260000 0.410000 59.597686 -46.088179 -78.183412 500.000000
-0.250933 0.260000 0.410000 -102.186571 -25.856472 -65.769302 500.000000
0.259318 0.090000 0.290000 103.863640 40.589008 80.994250 500.000000
0.072300 0.090000 0.290000 66.459970 17.338642 24.446651 500.000000
0.260000 0.090000 0.290000 -86.411358 44.908166 83.893091 500.000000
-0.061195 0.090000 0.290000 39.760934 76.957809 25.773533 500.000000
-0.260000 0.260000 0.410000 54.142379 -37.897876 -75.768985 500.000000
-0.260000 0.260000 0.290000 15.555630 -53.669924 126.420874 500.000000
-0.015372 0.090000 0.290000 48.925540 18.855654 32.258018 500.000000
0.260000 0.090000 0.290000 -52.548954 40.553302 81.222132 500.000000
0.260000 0.260000 0.290000 -45.996109 -30.818768 30.864801 500.000000
0.210181 0.090000 0.410000 78.589457 24.065787 -391.986129 500.000000
-0.255569 0.090000 0.410000 -103.113709 42.431074 -41.320896 500.000000
-0.069830 0.260000 0.410000 8.187418 -131.092565 -39.994341 500.000000
-0.260000 0.260000 0.290000 83.396735 -74.817477 14.025348 500.000000
-0.260000 0.090000 0.410000 70.548596 46.194402 -43.048431 500.000000
-0.260000 0.090000 0.290000 116.714746 57.725097 37.412123 500.000000
0.260000 0.260000 0.410000 -81.341082 -48.299672 -17.967707 500.000000
0.260000 0.090000 0.290000 -52.683612 31.845279 75.567116 500.000000
-0.168447 0.260000 0.290000 -85.689309 -19.578099 31.602578 500.000000
-0.077415 0.260000 0.410000 22.702161 -73.802250 -279.535428 500.000000
-0.043262 0.260000 0.290000 43.347536 -18.059339 16.837576 500.000000
-0.260000 0.260000 0.290000 45.207557 -55.738976 123.717558 500.000000
-0.260000 0.090000 0.290000 65.574556 58.011813 39.120098 500.000000
-0.164560 0.260000 0.290000 -46.976129 -28.182256 45.185384 500.000000
-0.260000 0.248604 0.332602 61.313565 31.720711 -15.479695 500.000000
-0.260000 0.260000 0.290000 77.291689 -54.154628 125.077945 500.000000
-0.260000 0.090000 0.410000 76.616642 38.952197 -30.441575 500.000000
0.260000 0.260000 0.290000 -223.597477 -72.354917 128.407464 500.000000
0.212485 0.090000 0.290000 94.496934 31.152425 65.242638 500.000000
-0.260000 0.260000 0.410000 30.515587 -113.658520 -84.117039 500.000000
0.260000 0.260000 0.410000 -119.793452 -32.016537 -28.559442 500.000000
0.260000 0.090000 0.410000 -48.993060 8.229068 -25.787979 500.000000
-0.152188 0.260000 0.290000 -82.437564 -19.840953 46.550040 500.000000
-0.198059 0.260000 0.290000 -91.611753 -17.690659 31.585536 500.000000
-0.260000 0.090000 0.410000 48.352450 26.854565 -179.820094 500.000000
0.260000 0.090000 0.410000 -237.729831 185.495471 -74.842214 500.000000
0.260000 0.260000 0.410000 -106.780337 -28.803277 -28.102655 500.000000
-0.260000 0.260000 0.410000 54.813386 -45.762472 -72.163060 500.000000
0.256201 0.090000 0.290000 103.240236 40.590991 81.105131 500.000000
0.260000 0.260000 0.410000 -88.665347 -78.569445 -322.670329 500.000000
-0.183042 0.260000 0.290000 -88.608443 -17.948278 31.192712 500.000000
0.260000 0.090000 0.410000 -40.199746 21.665746 -13.697447 500.000000
0.166892 0.260000 0.410000 60.911184 -63.016017 -194.058648 500.000000
-0.260000 0.260000 0.290000 92.573392 -26.359259 911.091259 500.000000
-0.260000 0.260000 0.290000 223.622582 -103.220009 96.576282 500.000000
0.260000 0.090000 0.410000 -269.249491 76.057813 -68.780053 500.000000
-0.260000 0.260000 0.410000 110.800869 -60.649635 -86.417505 500.000000
0.260000 0.260000 0.410000 -86.082488 -83.743291 -364.347132 500.000000
-0.260000 0.260000 0.410000 56.307904 -38.154502 -76.472810 500.000000
-0.221788 0.260000 0.290000 -96.357520 -40.367248 31.592823 500.000000
0.119621 0.260000 0.410000 35.053863 -24.924162 -22.295878 500.000000
-0.260000 0.260000 0.290000 56.933491 -48.227957 31.373822 500.000000
0.260000 0.260000 0.410000 -90.540594 -349.204762 -24.771637 500.000000
0.260000 0.090000 0.290000 -53.474645 40.662155 81.194844 500.000000
0.167919 0.090000 0.290000 85.583812 76.830848 127.492748 500.000000
-0.260000 0.090000 0.410000 316.465587 58.692712 -86.248817 500.000000
0.260000 0.260000 0.410000 -47.421998 -53.305270 -161.102254 500.000000
-0.187582 0.260000 0.290000 -89.516440 -18.057102 31.182563 500.000000
-0.260000 0.090000 0.410000 543.598716 58.181750 -59.925056 500.000000
-0.260000 0.260000 0.410000 66.214817 -42.979842 -79.099460 500.000000
0.220265 0.090000 0.290000 96.053067 43.415834 66.249774 500.000000
-0.260000 0.260000 0.410000 198.854404 -112.695279 -76.292360 500.000000
0.142111 0.090000 0.290000 80.422125 43.456312 66.243983 500.000000
0.260000 0.090000 0.290000 -52.311493 40.658826 80.857584 500.000000
0.260000 0.090000 0.290000 -74.894095 78.661131 43.531735 500.000000
-0.260000 0.260000 0.410000 52.964861 -35.536325 -73.052392 500.000000
0.194673 0.260000 0.290000 29.773321 -24.823453 21.680601 500.000000
0.260000 0.260000 0.290000 -328.631591 -54.131778 134.118843 500.000000
-0.260000 0.260000 0.410000 59.199777 -46.858799 -86.423924 500.000000
0.260000 0.090000 0.410000 -212.757847 58.362222 -104.802727 500.000000
0.260000 0.090000 0.410000 -32.126697 20.372226 -129.811200 500.000000
-0.183127 0.260000 0.290000 -88.625406 -17.741530 31.130724 500.000000
-0.260000 0.260000 0.410000 54.119683 -45.553323 -76.330724 500.000000
0.260000 0.090000 0.410000 -136.546508 21.811679 -49.362221 500.000000
-0.260000 0.260000 0.290000 58.917970 -34.947929 31.592598 500.000000
-0.260000 0.090000 0.410000 250.877661 26.226451 -34.168306 500.000000
-0.260000 0.260000 0.290000 28.066335 -58.705598 129.211285 500.000000
0.260000 0.090000 0.410000 -61.064894 21.224973 -20.652810 500.000000
-0.200008 0.257017 0.290000 -92.001564 33.403449 31.838662 500.000000
-0.260000 0.090000 0.410000 115.665862 27.974540 -53.311325 500.000000
-0.046149 0.090000 0.335191 -61.229734 104.961069 9.038259 500.000000
