ply
format ascii 1.0
element vertex 240
property float x
property float y
property float z
property float vx
property float vy
property float vz
property float density
end_header
-0.260000 0.260000 0.410000 86.039429 -149.259747 -35.789732 500.000000
0.211335 0.090000 0.410000 94.266951 17.675482 -75.737948 500.000000
-0.260000 0.090000 0.290000 80.350018 21.852020 71.915785 500.000000
-0.095978 0.090000 0.290000 32.804463 66.844215 36.590265 500.000000
0.260000 0.260000 0.332854 -174.523736 -33.546250 -15.429187 500.000000
0.260000 0.260000 0.290000 -57.888200 -43.797086 14.812990 500.000000
-0.210404 0.260000 0.320427 -94.080770 -141.307059 -17.914592 500.000000
-0.260000 0.260000 0.345491 63.327765 -157.319626 -12.901798 500.000000
-0.250257 0.153709 0.290000 -102.051400 -21.258245 231.205024 500.000000
-0.260000 0.260000 0.410000 248.956610 -119.958449 -34.881862 500.000000
-0.260000 0.090000 0.290000 190.517957 38.390136 82.802810 500.000000
-0.260000 0.260000 0.338495 55.855765 -130.216443 -14.300990 500.000000
-0.260000 0.260000 0.410000 131.580106 -34.777181 -41.753087 500.000000
0.260000 0.260000 0.290000 -68.905433 -24.766413 27.768661 500.000000
0.260000 0.260000 0.290000 -72.573357 -55.757563 30.495249 500.000000
0.260000 0.260000 0.410000 -167.651546 -58.591662 -20.034357 500.000000
-0.260000 0.168705 0.410000 31.261032 -18.258915 -94.769031 500.000000
0.260000 0.090000 0.290000 -199.180371 40.336477 118.112906 500.000000
0.260000 0.128312 0.290000 -29.571934 -26.337582 8.319104 500.000000
0.260000 0.090000 0.410000 -59.073900 25.029537 -60.329926 500.000000
0.260000 0.260000 0.410000 -336.024582 -40.527588 -49.785988 500.000000
0.260000 0.102059 0.290000 -386.709239 -31.588122 215.989165 500.000000
-0.253856 0.260000 0.334060 -102.771180 -167.852008 -15.188070 500.000000
-0.260000 0.090000 0.290000 62.623693 19.620152 153.822238 500.000000
0.260000 0.090000 0.290000 -66.895550 35.755491 12.209531 500.000000
-0.201364 0.260000 0.320209 -92.272826 -137.321279 -17.958211 500.000000
0.260000 0.260000 0.290000 -70.728819 -23.893029 32.158133 500.000000
-0.218254 0.260000 0.320000 -95.650831 -137.908227 -18.000046 500.000000
-0.260000 0.090000 0.410000 114.359564 122.078438 -184.942449 500.000000
0.260000 0.090000 0.290000 -54.399280 36.492593 52.484750 500.000000
0.019854 0.093604 0.410000 55.970881 -33.279250 -51.294868 500.000000
0.260000 0.260000 0.326372 -54.507637 -44.010139 -16.725685 500.000000
-0.095215 0.260000 0.290000 -71.042997 -131.973140 19.535410 500.000000
-0.260000 0.260000 0.290000 37.063896 -87.957427 504.456350 500.000000
0.260000 0.260000 0.290000 -68.576229 -22.708258 28.501183 500.000000
0.260000 0.103572 0.290000 -209.096129 -31.285547 163.175133 500.000000
0.255044 0.159489 0.290000 9.565029 -2.517875 93.063885 500.000000
0.260000 0.090000 0.410000 -51.049914 117.308757 -50.419246 500.000000
-0.260000 0.260000 0.410000 109.514168 -386.681243 -151.037035 500.000000
0.260000 0.260000 0.359665 -33.781023 -35.826812 13.932911 500.000000
0.260000 0.240022 0.290000 -71.491682 30.004318 156.005859 500.000000
-0.260000 0.090000 0.410000 152.907349 17.887675 -38.431395 500.000000
-0.174731 0.260000 0.410000 -1.973710 -112.901159 -35.181327 500.000000
0.260000 0.103672 0.410000 -290.269855 -31.265515 -160.274418 500.000000
-0.260000 0.090000 0.410000 14.990203 21.018162 -22.281500 500.000000
-0.260000 0.133581 0.290000 244.004195 -25.283784 83.771620 500.000000
-0.260000 0.149254 0.290000 75.513034 -22.149266 167.256449 500.000000
-0.017549 0.090000 0.327142 14.136075 35.904387 -16.571556 500.000000
-0.260000 0.108214 0.410000 218.876421 -30.357173 -42.810652 500.000000
0.260000 0.090000 0.290000 -205.948770 193.811930 76.471191 500.000000
0.260000 0.260000 0.290000 -252.859366 -103.990744 38.528479 500.000000
0.260000 0.090000 0.410000 -90.476969 17.827208 -66.367847 500.000000
-0.260000 0.260000 0.290000 64.738186 -133.640074 18.008654 500.000000
0.260000 0.260000 0.410000 -175.487412 -140.135602 -28.553522 500.000000
0.243047 0.090000 0.290000 100.609314 113.647427 32.294122 500.000000
-0.260000 0.090000 0.290000 200.978577 61.412055 84.148179 500.000000
0.260000 0.090000 0.410000 -92.341198 32.232697 -59.488441 500.000000
-0.239777 0.260000 0.333722 -99.955330 -146.497404 -15.255683 500.000000
0.185681 0.090000 0.293636 32.301811 40.623793 -23.272899 500.000000
-0.260000 0.090000 0.290000 83.306979 474.417174 96.370028 500.000000
-0.260000 0.090000 0.290000 82.664061 422.945592 96.749576 500.000000
-0.260000 0.105437 0.410000 124.620484 -30.912531 -221.800028 500.000000
-0.260000 0.090000 0.381884 30.418738 39.586902 18.376796 500.000000
0.260000 0.102713 0.410000 -19.549448 -31.457476 -184.100931 500.000000
-0.260000 0.260000 0.410000 39.331496 -262.739751 -28.835980 500.000000
0.260000 0.103615 0.410000 -348.180146 -31.276934 -352.770993 500.000000
0.260000 0.090000 0.410000 -75.608130 25.793230 -57.729986 500.000000
-0.260000 0.090000 0.290000 182.794138 33.368515 84.561969 500.000000
0.260000 0.260000 0.355636 -160.236457 -34.780923 13.127195 500.000000
-0.178689 0.090000 0.410000 -87.737857 264.812835 -226.131938 500.000000
-0.260000 0.260000 0.410000 210.272958 -26.597398 -43.075889 500.000000
-0.248518 0.260000 0.410000 -14.069608 -115.945922 -49.913657 500.000000
0.260000 0.260000 0.290000 -243.887489 -22.673425 13.778746 500.000000
-0.260000 0.260000 0.410000 178.726020 -58.137998 -19.752176 500.000000
0.260000 0.136450 0.350613 -41.060419 -24.709982 12.122649 500.000000
-0.260000 0.090000 0.410000 54.684339 17.142768 -102.687815 500.000000
0.046253 0.090000 0.410000 61.250572 22.568334 -44.313193 500.000000
0.260000 0.260000 0.290000 -74.909179 -71.805010 28.845438 500.000000
0.260000 0.256533 0.290000 -72.733847 33.306519 27.187313 500.000000
-0.260000 0.260000 0.290000 122.696129 -39.210173 33.450249 500.000000
-0.260000 0.260000 0.410000 141.991407 -52.021316 -51.973472 500.000000
0.260000 0.090000 0.410000 -142.695727 59.638560 -117.707117 500.000000
-0.260000 0.237039 0.326467 57.953340 7.632134 -16.706635 500.000000
0.260000 0.260000 0.410000 -208.917522 -129.135675 -34.407377 500.000000
-0.066570 0.260000 0.410000 20.776593 -111.720558 -34.062738 500.000000
0.181446 0.090000 0.290000 88.289157 61.314804 30.972842 500.000000
0.260000 0.090000 0.410000 -97.113330 395.910832 -40.782532 500.000000
-0.146889 0.260000 0.337998 -81.377776 -132.090682 -14.400334 500.000000
-0.260000 0.260000 0.296105 53.341900 -130.664226 -22.778990 500.000000
0.260000 0.226200 0.362936 -16.989493 10.480822 -9.412874 500.000000
-0.162916 0.090000 0.410000 -78.627844 17.798750 -110.707491 500.000000
0.260000 0.090000 0.323368 -69.037734 240.689292 6.673613 500.000000
0.260000 0.260000 0.290000 -68.540845 -26.621789 27.111633 500.000000
0.260000 0.090000 0.410000 -54.431304 17.877094 -63.042730 500.000000
0.260000 0.150261 0.290000 -253.980726 -21.947844 96.907731 500.000000
0.260000 0.260000 0.290000 -69.654357 -24.588355 27.125272 500.000000
-0.260000 0.090000 0.290000 65.462195 300.602196 51.337557 500.000000
0.260000 0.260000 0.290000 -63.271955 -38.431814 13.960006 500.000000
0.260000 0.247166 0.290000 -71.922263 31.433237 27.337865 500.000000
-0.260000 0.260000 0.290000 770.883907 -37.207846 27.998549 500.000000
-0.260000 0.090000 0.290000 154.586167 21.586591 135.127493 500.000000
0.260000 0.166328 0.410000 -68.193378 -18.734460 -12.343171 500.000000
-0.260000 0.260000 0.410000 118.726950 -64.842720 -27.894013 500.000000
-0.260000 0.227084 0.290000 26.318359 27.416823 49.519874 500.000000
0.214237 0.090000 0.347318 45.514279 37.453869 -12.536386 500.000000
0.260000 0.260000 0.375927 -107.210514 -17.080120 17.185315 500.000000
0.260000 0.090000 0.290000 -78.748576 69.887219 270.950279 500.000000
-0.260000 0.114945 0.410000 55.262052 -29.011025 -102.622560 500.000000
0.260000 0.260000 0.290000 -72.888073 -22.681761 30.222563 500.000000
0.260000 0.260000 0.290000 -79.933345 -29.612120 41.421949 500.000000
0.260000 0.099982 0.290000 -50.335824 -32.003676 70.163182 500.000000
-0.260000 0.090000 0.410000 145.900642 17.564331 -45.346603 500.000000
-0.137537 0.090000 0.410000 -27.120243 60.624510 -28.467513 500.000000
0.260000 0.260000 0.410000 -93.337933 -33.425175 -16.711174 500.000000
-0.260000 0.090000 0.290000 55.168114 164.713147 305.256871 500.000000
-0.260000 0.098033 0.410000 167.522297 -32.393363 -284.954388 500.000000
0.260000 0.173777 0.410000 -39.620307 -17.244637 -19.247075 500.000000
0.260000 0.260000 0.410000 -88.059241 -43.612849 -20.214237 500.000000
0.210336 0.093309 0.410000 94.067241 -33.338192 -39.999339 500.000000
-0.260000 0.213836 0.290000 105.738205 6.727450 21.230920 500.000000
-0.260000 0.114400 0.410000 201.188173 -29.120009 -164.012498 500.000000
0.260000 0.260000 0.410000 -116.948481 -39.725654 -43.300380 500.000000
0.260000 0.260000 0.290000 -69.718369 -43.850773 29.143741 500.000000
-0.260000 0.260000 0.337837 89.857838 -131.708802 -14.432651 500.000000
0.260000 0.102708 0.290000 -297.726531 -31.458366 60.602036 500.000000
-0.189826 0.090000 0.410000 -46.260148 23.313690 -30.549265 500.000000
0.260000 0.090000 0.290000 -140.865239 55.582477 29.998813 500.000000
0.092306 0.240838 0.290000 70.461214 14.491428 30.944203 500.000000
0.260000 0.260000 0.290000 -84.886404 -20.938616 23.881185 500.000000
0.260000 0.090000 0.310186 -250.968283 58.820770 -19.962791 500.000000
0.260000 0.260000 0.297831 -72.796078 -40.199170 -22.433895 500.000000
-0.260000 0.090000 0.410000 52.662715 422.901838 -54.381184 500.000000
0.232299 0.090000 0.290000 98.459797 79.228114 30.760556 500.000000
-0.188752 0.260000 0.320151 -89.750447 -137.402554 -17.969873 500.000000
-0.260000 0.260000 0.410000 136.204734 -131.535818 -28.323505 500.000000
0.102407 0.260000 0.410000 1.654411 -121.633451 -28.294697 500.000000
-0.260000 0.231223 0.359844 72.456559 28.244587 13.968872 500.000000
-0.163340 0.260000 0.410000 -84.668012 -386.398005 -94.436996 500.000000
-0.074688 0.090000 0.410000 22.607381 401.426300 -24.798747 500.000000
0.102766 0.099705 0.290000 -19.492016 -32.058929 246.927382 500.000000
0.260000 0.260000 0.410000 -141.815188 -57.492016 -43.579162 500.000000
0.260000 0.092074 0.410000 -43.816060 -33.585255 -23.200000 500.000000
0.260000 0.090000 0.410000 -77.759207 19.795338 -58.248430 500.000000
0.260000 0.260000 0.290000 -69.462183 -22.632756 28.441215 500.000000
-0.260000 0.238091 0.351174 51.039179 29.618124 12.234701 500.000000
0.096825 0.090000 0.410000 71.364908 42.723104 -54.668226 500.000000
0.260000 0.260000 0.326304 -15.133936 -39.832595 -16.739188 500.000000
-0.260000 0.260000 0.338756 55.229775 -153.595684 -14.248753 500.000000
0.260000 0.260000 0.410000 -136.214691 -26.032582 -37.257847 500.000000
0.118737 0.090000 0.410000 75.747373 26.939151 -57.483796 500.000000
0.260000 0.260000 0.290000 -68.375234 -23.529574 27.875636 500.000000
0.210721 0.090000 0.290000 94.144124 56.335699 32.069651 500.000000
-0.260000 0.090000 0.290000 185.793907 181.281402 83.600311 500.000000
0.179319 0.090000 0.290000 87.863831 63.812294 31.127933 500.000000
0.260000 0.093252 0.410000 -55.961677 -33.349591 -73.174944 500.000000
0.260000 0.260000 0.290000 -70.385711 -24.250159 28.633041 500.000000
-0.260000 0.260000 0.342248 63.053355 -148.568400 -13.550490 500.000000
0.260000 0.260000 0.290000 -62.725573 -69.303070 23.948794 500.000000
0.260000 0.260000 0.410000 -150.655727 -111.102557 -51.216692 500.000000
0.260000 0.260000 0.290000 -63.490257 -485.572022 30.640524 500.000000
0.260000 0.260000 0.410000 -189.883548 -42.859088 -511.917742 500.000000
-0.260000 0.106883 0.290000 188.259988 -30.623477 84.107304 500.000000
-0.260000 0.090000 0.290000 30.349080 32.598945 61.271101 500.000000
0.260000 0.115627 0.410000 -67.052393 -28.874526 -122.725575 500.000000
0.077541 0.146151 0.290000 49.748938 -22.769850 54.865447 500.000000
0.260000 0.260000 0.290000 -73.951906 -23.582850 29.776766 500.000000
-0.074164 0.090000 0.290000 -66.832838 230.028567 94.113929 500.000000
0.260000 0.102750 0.410000 -397.895326 -31.449975 -186.845716 500.000000
0.005982 0.090000 0.290000 -50.803643 117.643846 209.616821 500.000000
-0.260000 0.234298 0.351332 87.956581 28.859665 12.266323 500.000000
-0.260000 0.090000 0.290000 427.326262 83.572317 28.579252 500.000000
0.260000 0.090000 0.410000 -69.649909 17.735129 -58.311878 500.000000
-0.260000 0.260000 0.410000 171.395013 -27.608914 -35.835780 500.000000
0.260000 0.260000 0.410000 -197.745759 -22.002277 -16.408806 500.000000
0.260000 0.260000 0.370560 -63.538582 -36.676848 16.111958 500.000000
0.097533 0.090000 0.410000 71.506589 26.167447 -44.765900 500.000000
0.260000 0.090000 0.290000 -114.782968 30.760811 105.177772 500.000000
-0.260000 0.260000 0.410000 149.407156 -110.937919 -38.592772 500.000000
-0.260000 0.260000 0.410000 247.155829 -111.687682 -34.088818 500.000000
-0.260000 0.090000 0.290000 217.577328 91.239881 30.770388 500.000000
0.260000 0.260000 0.410000 -203.862411 -135.983127 -53.680153 500.000000
0.260000 0.090000 0.290000 -220.229374 41.070121 91.533759 500.000000
0.260000 0.260000 0.410000 -164.573201 -43.729384 -37.948367 500.000000
-0.260000 0.090000 0.410000 67.715315 141.410603 -185.492690 500.000000
0.260000 0.260000 0.290000 -75.158993 -32.673304 28.012720 500.000000
-0.260000 0.121173 0.290000 80.560311 -27.765320 356.511740 500.000000
-0.260000 0.090000 0.379792 23.407090 24.020215 17.958495 500.000000
-0.193806 0.090000 0.410000 -90.761172 122.127571 -194.229141 500.000000
-0.134876 0.104606 0.410000 -72.214379 -31.078857 -47.762556 500.000000
0.132021 0.090000 0.410000 78.404230 18.597032 -57.351144 500.000000
-0.260000 0.090000 0.290000 92.334170 385.998067 105.987909 500.000000
0.006184 0.090000 0.410000 -35.287755 19.684776 -35.710057 500.000000
0.260000 0.260000 0.290000 -66.884898 -22.745536 27.948889 500.000000
-0.260000 0.260000 0.410000 166.327027 -119.225924 -34.413566 500.000000
-0.260000 0.090000 0.290000 107.517505 21.113904 214.700183 500.000000
-0.260000 0.090000 0.290000 204.834772 58.004885 84.772771 500.000000
-0.260000 0.090000 0.410000 102.740788 410.248928 -30.980513 500.000000
0.260000 0.260000 0.410000 -175.580748 -132.864813 -34.855039 500.000000
-0.260000 0.260000 0.410000 316.707108 -138.754424 -30.099849 500.000000
0.260000 0.260000 0.338981 -65.395354 -27.201088 -14.203804 500.000000
-0.260000 0.090000 0.410000 91.099465 313.516250 -231.243702 500.000000
-0.260000 0.260000 0.410000 243.272314 -119.224124 -34.633750 500.000000
0.260000 0.090000 0.290000 -57.442163 64.089433 29.092161 500.000000
0.200965 0.090000 0.345284 49.786214 36.461584 -12.943207 500.000000
0.260000 0.260000 0.290000 -100.864702 -17.480897 27.892500 500.000000
-0.260000 0.090000 0.410000 172.370246 384.596832 -38.142381 500.000000
-0.260000 0.260000 0.410000 307.959703 -119.355788 -45.739277 500.000000
0.260000 0.260000 0.290000 -98.456088 -32.504952 96.223101 500.000000
-0.260000 0.260000 0.410000 142.185282 -41.698884 -62.575540 500.000000
0.228399 0.260000 0.290000 97.679724 -33.822290 13.451739 500.000000
0.167589 0.260000 0.290000 42.354985 -13.318455 12.000305 500.000000
0.214901 0.090000 0.290000 94.980293 103.237466 30.451104 500.000000
-0.260000 0.090000 0.290000 76.239636 20.155982 68.016935 500.000000
0.260000 0.090000 0.410000 -53.517755 21.752710 -62.009661 500.000000
-0.260000 0.260000 0.410000 96.369208 -115.794591 -45.124692 500.000000
-0.260000 0.260000 0.410000 170.982637 -113.728622 -34.299135 500.000000
0.139704 0.090000 0.410000 79.940789 17.008414 -68.899513 500.000000
-0.260000 0.260000 0.410000 90.169525 -298.466775 -159.993303 500.000000
-0.260000 0.150166 0.410000 95.428450 -21.966750 -25.442309 500.000000
-0.231913 0.260000 0.345779 -98.382556 -138.102794 -12.844127 500.000000
-0.260000 0.090000 0.290000 211.524443 38.382417 83.308167 500.000000
0.260000 0.260000 0.410000 -127.608147 -52.441150 -37.340749 500.000000
-0.260000 0.260000 0.410000 91.423282 -129.192728 -28.921938 500.000000
0.260000 0.090000 0.410000 -244.686449 23.065272 -49.347600 500.000000
0.260000 0.256072 0.290000 -78.562249 33.214399 126.465619 500.000000
0.260000 0.214052 0.290000 -64.276038 24.810487 104.543032 500.000000
-0.260000 0.090000 0.410000 75.320035 122.277146 -201.420062 500.000000
0.260000 0.227979 0.290000 -69.367496 27.595851 34.329313 500.000000
0.068632 0.090000 0.410000 65.726372 25.069244 -44.908402 500.000000
0.035180 0.090000 0.410000 42.303485 434.336498 -49.869444 500.000000
-0.039090 0.090000 0.410000 -59.817905 162.668051 -184.037060 500.000000
-0.260000 0.260000 0.410000 22.940806 -111.114426 -38.360356 500.000000
0.260000 0.260000 0.410000 -162.282173 -32.416974 -20.277572 500.000000
-0.260000 0.260000 0.410000 131.965062 -33.589981 -43.615622 500.000000
0.120634 0.090000 0.290000 76.126848 226.409499 664.388394 500.000000
-0.162489 0.260000 0.290000 -84.497783 -131.117198 13.213995 500.000000
0.260000 0.260000 0.410000 -52.629385 -61.115500 -37.836575 500.000000
0.260000 0.090000 0.410000 -186.049049 40.718233 -147.026660 500.000000
-0.260000 0.260000 0.290000 494.746141 -127.214496 17.916702 500.000000
0.260000 0.260000 0.410000 -68.494552 -110.537816 -49.426746 500.000000
