ply
format ascii 1.0
element vertex 240
property float x
property float y
property float z
property float vx
property float vy
property float vz
property float density
end_header
-0.260000 0.090000 0.410000 366.502761 95.500073 -143.255870 500.000000
0.131144 0.260000 0.290000 78.228883 -24.551297 53.833000 500.000000
-0.260000 0.146308 0.410000 349.982343 -22.738425 -39.997123 500.000000
0.260000 0.260000 0.410000 -74.940243 -66.730065 -245.868206 500.000000
-0.260000 0.260000 0.290000 83.485596 -28.423880 32.413864 500.000000
-0.101571 0.260000 0.410000 -72.314158 -259.734403 -23.520254 500.000000
-0.170230 0.090000 0.290000 -86.046007 313.899231 305.123423 500.000000
-0.260000 0.090000 0.410000 40.232437 33.136282 -20.265064 500.000000
-0.260000 0.090000 0.290000 226.768814 27.572522 245.043116 500.000000
-0.260000 0.090000 0.290000 179.755129 33.838707 18.204545 500.000000
0.260000 0.260000 0.290000 -941.518318 -26.355206 32.782301 500.000000
0.222906 0.209125 0.410000 38.199138 23.825043 -20.074171 500.000000
-0.133852 0.090000 0.377445 -14.783039 8.868350 17.488927 500.000000
-0.260000 0.223554 0.290000 78.756431 26.710763 313.237379 500.000000
0.260000 0.090000 0.290000 -81.448903 93.906342 256.897858 500.000000
0.260000 0.090000 0.410000 -105.952434 98.664311 -186.555743 500.000000
-0.260000 0.090000 0.410000 38.548923 96.966468 -145.022455 500.000000
-0.260000 0.090000 0.290000 96.643373 24.090827 46.112240 500.000000
0.260000 0.090000 0.290000 -56.028642 39.753284 17.071091 500.000000
-0.260000 0.260000 0.410000 76.934233 -203.689587 -99.214114 500.000000
-0.260000 0.090000 0.410000 246.214700 94.325723 -143.478677 500.000000
0.051523 0.090000 0.290000 3.896629 33.620100 44.889963 500.000000
-0.260000 0.090000 0.410000 314.253291 74.015563 -13.510581 500.000000
-0.009377 0.090000 0.308696 16.428290 20.920191 -20.260842 500.000000
0.260000 0.260000 0.290000 -17.518317 -19.782730 17.526700 500.000000
0.260000 0.260000 0.410000 -57.013516 -54.894539 -147.335361 500.000000
-0.260000 0.260000 0.410000 106.599318 -27.695993 -98.580614 500.000000
0.260000 0.090000 0.290000 -46.568123 50.161073 52.234083 500.000000
0.260000 0.260000 0.290000 -102.935533 -24.160266 59.445855 500.000000
-0.247109 0.260000 0.290000 -101.421830 -37.022213 145.481511 500.000000
0.260000 0.260000 0.410000 -53.920793 -133.911487 -90.300658 500.000000
0.165962 0.260000 0.290000 20.619410 -60.105100 23.649347 500.000000
0.253484 0.090000 0.410000 102.696774 255.524675 -104.055041 500.000000
0.260000 0.090000 0.335198 -43.654213 24.551270 -14.960322 500.000000
0.260000 0.090000 0.410000 -81.251277 55.395645 -17.524094 500.000000
-0.260000 0.090000 0.290000 74.966431 35.078035 17.666312 500.000000
0.260000 0.090000 0.290000 -108.534999 34.740770 12.855155 500.000000
-0.260000 0.090000 0.290000 130.578120 34.978018 17.563626 500.000000
-0.260000 0.090000 0.290000 68.935730 77.952110 50.241087 500.000000
0.260000 0.090000 0.300700 -66.061719 23.207916 -21.860055 500.000000
0.260000 0.090000 0.410000 -65.181999 22.124156 -24.695069 500.000000
0.260000 0.260000 0.410000 -60.153292 -54.912508 -147.394918 500.000000
-0.260000 0.090000 0.290000 116.948418 50.668124 90.198142 500.000000
0.104392 0.216686 0.290000 72.878369 25.337244 176.016474 500.000000
-0.049586 0.090000 0.390297 -39.519708 18.093295 20.059442 500.000000
-0.215817 0.260000 0.410000 -95.163485 -277.510030 -21.467777 500.000000
0.260000 0.090000 0.336487 -100.459498 40.880482 -14.702668 500.000000
0.054274 0.260000 0.290000 62.854778 -52.454828 68.333799 500.000000
-0.260000 0.090000 0.410000 61.400237 22.675526 -345.619493 500.000000
0.260000 0.090000 0.290000 -38.897910 117.304936 54.570046 500.000000
-0.260000 0.090000 0.290000 90.801449 33.497472 82.087409 500.000000
-0.260000 0.090000 0.410000 63.023318 389.873715 -95.578092 500.000000
-0.260000 0.090000 0.410000 39.981633 96.886725 -146.507487 500.000000
0.260000 0.090000 0.324847 -99.634216 22.768902 6.969446 500.000000
0.260000 0.090000 0.410000 -109.916881 25.748835 -212.698014 500.000000
-0.067914 0.260000 0.290000 -65.582782 -104.528091 24.089582 500.000000
0.251325 0.260000 0.410000 34.220236 -18.208072 -32.753629 500.000000
-0.260000 0.090000 0.290000 122.100374 102.017920 294.501412 500.000000
0.260000 0.260000 0.290000 -362.829910 -58.288999 57.133220 500.000000
0.260000 0.260000 0.410000 -59.151738 -134.349454 -147.457657 500.000000
0.260000 0.090000 0.410000 -178.028937 26.527464 -146.211845 500.000000
-0.006155 0.260000 0.290000 50.768977 -66.379719 13.036168 500.000000
0.260000 0.090000 0.290000 -36.474192 17.319975 215.154799 500.000000
0.214100 0.218498 0.290000 94.820042 25.699561 389.194047 500.000000
-0.260000 0.260000 0.290000 110.334535 -81.639093 33.519788 500.000000
-0.260000 0.090000 0.410000 67.122721 413.351425 -101.795146 500.000000
0.174451 0.260000 0.290000 86.890190 -23.607176 52.279609 500.000000
0.260000 0.090000 0.410000 -43.297573 49.004053 -18.062165 500.000000
0.260000 0.090000 0.290000 -93.276215 36.633728 234.477313 500.000000
-0.080367 0.260000 0.410000 -68.073301 -177.647133 -28.088596 500.000000
0.260000 0.090000 0.290000 -48.095994 23.987134 18.022921 500.000000
0.260000 0.090000 0.352481 -87.738711 24.464818 12.496124 500.000000
0.260000 0.090000 0.312062 -51.117413 77.906076 -19.587621 500.000000
-0.079123 0.090000 0.290000 24.999479 35.457944 17.747638 500.000000
-0.260000 0.260000 0.290000 88.461721 -26.361090 43.397093 500.000000
0.248339 0.260000 0.290000 80.179961 -47.213528 35.367968 500.000000
0.175721 0.090000 0.410000 87.144230 760.532329 -42.548562 500.000000
0.260000 0.090000 0.410000 -96.393511 47.642102 -15.274920 500.000000
0.260000 0.260000 0.410000 -63.875237 -56.828307 -154.088210 500.000000
0.260000 0.090000 0.290000 -105.346144 108.982027 205.365400 500.000000
-0.260000 0.260000 0.290000 88.300885 -26.282747 42.576329 500.000000
-0.260000 0.260000 0.290000 88.512353 -26.339766 43.497158 500.000000
-0.260000 0.090000 0.290000 72.434848 39.898707 17.277281 500.000000
-0.260000 0.260000 0.290000 88.743291 -26.424457 44.357476 500.000000
-0.037342 0.260000 0.342315 44.531549 -19.424394 -13.537019 500.000000
0.131435 0.197523 0.290000 3.707734 1.415389 146.635633 500.000000
0.260000 0.090000 0.410000 -123.688396 96.430966 -146.276000 500.000000
-0.173599 0.260000 0.290000 3.265520 -66.971235 43.931573 500.000000
-0.260000 0.260000 0.290000 88.719872 -26.462433 42.498084 500.000000
-0.069774 0.113224 0.310822 38.045291 -8.594664 -19.835543 500.000000
0.260000 0.090000 0.290000 -103.573981 51.163423 59.924296 500.000000
0.260000 0.090000 0.290000 -351.961226 57.372089 54.425574 500.000000
0.260000 0.260000 0.410000 -49.180369 -30.897811 -29.996967 500.000000
-0.260000 0.090000 0.410000 108.312426 71.423188 -18.105979 500.000000
-0.260000 0.260000 0.410000 62.665727 -169.965521 -100.291592 500.000000
-0.260000 0.090000 0.290000 100.498749 125.285381 186.516141 500.000000
0.260000 0.260000 0.410000 -26.592993 -85.851890 -29.725064 500.000000
-0.260000 0.260000 0.410000 57.089855 -28.202627 -553.149702 500.000000
0.260000 0.260000 0.290000 -176.421369 -23.747132 53.225118 500.000000
-0.260000 0.090000 0.290000 83.411838 25.361796 18.678362 500.000000
-0.260000 0.260000 0.410000 68.931651 -170.708733 -100.983276 500.000000
0.260000 0.260000 0.290000 -80.852660 -23.402800 56.467287 500.000000
0.260000 0.260000 0.410000 -54.163960 -54.883305 -147.464752 500.000000
0.260000 0.260000 0.410000 -63.924376 -54.937681 -147.355624 500.000000
0.137932 0.260000 0.410000 79.586470 -55.314258 -69.663316 500.000000
0.054941 0.260000 0.365852 30.601226 -14.643929 6.220099 500.000000
0.260000 0.260000 0.410000 -54.453559 -130.315201 -147.548411 500.000000
0.139475 0.231449 0.290000 79.894967 28.289780 517.316951 500.000000
0.123469 0.260000 0.410000 -27.306275 -40.792522 -18.939144 500.000000
0.260000 0.194281 0.369603 -50.723843 20.856245 -8.079310 500.000000
-0.003685 0.090000 0.410000 51.263066 103.414723 -49.292588 500.000000
-0.260000 0.090000 0.290000 81.395759 28.875953 108.211754 500.000000
0.260000 0.090000 0.410000 -158.000573 46.672371 -18.664936 500.000000
0.001072 0.260000 0.290000 52.214470 -45.937428 818.539095 500.000000
-0.260000 0.260000 0.290000 52.228857 -20.966623 178.670683 500.000000
0.260000 0.090000 0.290000 -75.081215 97.458323 294.688433 500.000000
-0.108618 0.090000 0.410000 15.917850 96.643707 -146.938341 500.000000
0.260000 0.260000 0.410000 -55.774162 -254.085160 -148.362583 500.000000
-0.260000 0.154902 0.357837 98.903151 12.980415 -10.432503 500.000000
0.260000 0.260000 0.410000 -56.133363 -208.848399 -149.214233 500.000000
0.260000 0.090000 0.410000 -158.905599 76.338803 -17.451984 500.000000
-0.057352 0.183247 0.376892 -9.003479 18.649351 17.378384 500.000000
0.053166 0.090000 0.290000 -41.366795 74.025834 86.640285 500.000000
0.260000 0.090000 0.410000 -75.585111 52.227437 -17.502658 500.000000
-0.260000 0.090000 0.290000 93.722450 54.045118 48.592019 500.000000
0.149793 0.260000 0.290000 81.958607 -43.300799 425.390794 500.000000
0.260000 0.260000 0.290000 -123.525651 -21.733231 112.083444 500.000000
0.143471 0.260000 0.290000 80.694178 -42.302591 370.338091 500.000000
0.260000 0.260000 0.410000 -60.430849 -53.118771 -173.724801 500.000000
-0.260000 0.090000 0.290000 159.442851 122.002318 250.428260 500.000000
0.260000 0.147248 0.315896 -42.007491 -22.550422 -18.820771 500.000000
0.260000 0.090000 0.410000 -157.351737 96.677747 -146.310797 500.000000
-0.260000 0.260000 0.290000 92.160891 -98.926905 50.936184 500.000000
0.190420 0.260000 0.410000 90.083911 -58.859036 -59.046837 500.000000
-0.260000 0.260000 0.290000 38.035272 -70.723813 39.471950 500.000000
0.260000 0.260000 0.410000 -57.082303 -62.000753 -66.115575 500.000000
0.260000 0.260000 0.383336 -51.096037 -163.693470 18.667205 500.000000
0.022467 0.260000 0.410000 -47.506668 -277.764587 -21.628208 500.000000
0.260000 0.213271 0.290000 -22.039887 24.654135 337.271103 500.000000
-0.087664 0.090000 0.410000 -69.532797 445.321579 -23.479078 500.000000
-0.260000 0.260000 0.290000 86.318234 -26.538934 41.466199 500.000000
-0.260000 0.260000 0.290000 88.471360 -26.426363 43.497328 500.000000
0.260000 0.090000 0.290000 -92.972176 46.620239 17.231362 500.000000
-0.260000 0.260000 0.290000 88.198134 -26.291641 42.246538 500.000000
0.260000 0.090000 0.290000 -49.365506 24.034660 12.413125 500.000000
-0.260000 0.260000 0.410000 622.466855 -125.994414 -115.147759 500.000000
0.260000 0.090000 0.395088 -161.214548 26.454268 21.017565 500.000000
0.260000 0.090000 0.410000 -58.803238 94.877248 -146.496539 500.000000
-0.140843 0.260000 0.290000 -22.714619 -28.701295 109.452330 500.000000
-0.260000 0.260000 0.290000 89.155103 -27.136685 43.766231 500.000000
0.175305 0.260000 0.290000 20.427612 -17.813834 201.892218 500.000000
-0.260000 0.260000 0.410000 105.768853 -110.938040 -96.883316 500.000000
-0.260000 0.260000 0.290000 88.539138 -26.372888 43.495117 500.000000
0.260000 0.260000 0.410000 -55.088612 -54.473583 -147.718379 500.000000
0.260000 0.260000 0.410000 -36.213990 -14.633283 -6.620812 500.000000
-0.260000 0.260000 0.410000 203.414216 -165.136197 -92.918238 500.000000
-0.260000 0.090000 0.290000 55.702186 38.034972 17.847447 500.000000
0.260000 0.090000 0.410000 -109.278989 125.062587 -26.872982 500.000000
0.260000 0.260000 0.410000 -422.780475 -58.592848 -182.514487 500.000000
-0.260000 0.260000 0.290000 85.112234 -37.702400 35.975343 500.000000
0.131271 0.260000 0.290000 78.254223 -123.802208 62.351017 500.000000
-0.260000 0.090000 0.290000 130.461403 26.309985 52.077590 500.000000
0.260000 0.260000 0.410000 -58.763139 -54.947272 -147.356992 500.000000
-0.260000 0.090000 0.410000 63.126489 371.608746 -94.561760 500.000000
-0.260000 0.090000 0.290000 135.092737 31.719720 45.430637 500.000000
0.085280 0.090000 0.290000 12.349150 27.139065 25.113231 500.000000
-0.260000 0.260000 0.410000 170.762215 -26.005234 -44.181044 500.000000
-0.260000 0.090000 0.410000 52.475496 419.171834 -93.589314 500.000000
0.260000 0.260000 0.410000 -55.755500 -230.470781 -149.132324 500.000000
-0.260000 0.260000 0.290000 113.321149 -38.823853 31.500280 500.000000
0.134522 0.217900 0.290000 78.904451 25.579901 58.195699 500.000000
-0.260000 0.090000 0.410000 266.941361 97.557198 -146.037471 500.000000
0.260000 0.260000 0.290000 -55.933221 -26.232759 57.717033 500.000000
0.260000 0.090000 0.410000 -112.773163 29.411272 -13.525026 500.000000
-0.260000 0.181892 0.315078 38.541683 -15.621528 -18.984369 500.000000
-0.046870 0.100830 0.410000 -61.374012 -17.785006 -20.325521 500.000000
-0.260000 0.260000 0.290000 89.443077 -26.459000 66.337929 500.000000
0.170560 0.218189 0.290000 86.111949 25.637739 399.148825 500.000000
0.260000 0.260000 0.410000 -53.601736 -243.352839 -149.214969 500.000000
-0.260000 0.260000 0.290000 129.287279 -21.684882 363.125759 500.000000
0.126996 0.260000 0.410000 20.690861 -19.295145 -46.814922 500.000000
-0.260000 0.090000 0.410000 56.171746 355.374087 -93.558027 500.000000
0.142591 0.090000 0.410000 80.518248 231.377818 -106.278855 500.000000
-0.260000 0.090000 0.410000 155.716016 58.325728 -17.240237 500.000000
-0.260000 0.090000 0.299295 33.430901 22.869402 -22.140903 500.000000
-0.260000 0.090000 0.290000 65.596274 22.366979 17.297408 500.000000
0.260000 0.090000 0.410000 -113.398757 50.443321 -158.637051 500.000000
-0.260000 0.090000 0.410000 63.602889 94.312878 -145.933117 500.000000
0.193008 0.260000 0.410000 47.794416 -57.908438 -12.814587 500.000000
-0.260000 0.260000 0.290000 60.116582 -46.892092 56.529643 500.000000
-0.260000 0.260000 0.410000 68.285087 -169.166307 -93.560795 500.000000
-0.260000 0.260000 0.410000 57.129924 -164.250960 -101.625922 500.000000
0.260000 0.260000 0.410000 -52.452871 -259.185041 -148.929881 500.000000
-0.260000 0.090000 0.410000 49.571846 34.887251 -132.246660 500.000000
-0.078357 0.127489 0.310386 -43.560319 -14.058291 -19.922704 500.000000
-0.260000 0.260000 0.410000 34.876570 -24.533051 -24.602134 500.000000
-0.260000 0.260000 0.290000 88.623305 -27.718387 42.738885 500.000000
-0.202354 0.215970 0.290000 -41.475700 25.193903 32.059690 500.000000
-0.260000 0.090000 0.410000 225.791744 95.876812 -145.741457 500.000000
0.260000 0.260000 0.410000 -61.120913 -58.557687 -147.400986 500.000000
-0.260000 0.260000 0.410000 90.402870 -186.447975 -96.441866 500.000000
-0.260000 0.260000 0.290000 181.649724 -23.797106 34.478477 500.000000
-0.260000 0.090000 0.410000 110.042617 59.119198 -17.603061 500.000000
0.260000 0.090000 0.345228 -12.634626 132.858191 -12.954427 500.000000
0.260000 0.090000 0.290000 -116.680644 109.005386 258.649322 500.000000
-0.260000 0.260000 0.410000 21.938008 -28.091033 -99.610648 500.000000
0.260000 0.090000 0.410000 -107.754054 94.626548 -142.873400 500.000000
0.260000 0.090000 0.388910 -153.118120 28.388510 19.782022 500.000000
-0.260000 0.260000 0.290000 88.655062 -27.334918 42.630074 500.000000
-0.022983 0.260000 0.321641 47.403496 -60.642219 6.328108 500.000000
-0.260000 0.090000 0.410000 142.208785 100.271066 -146.135093 500.000000
-0.260000 0.260000 0.410000 59.502710 -163.743730 -93.223540 500.000000
-0.260000 0.090000 0.311505 39.352658 20.041805 -19.699083 500.000000
-0.260000 0.090000 0.290000 79.904320 98.763519 52.669476 500.000000
0.260000 0.260000 0.410000 -65.248377 -54.858145 -147.355377 500.000000
0.260000 0.260000 0.410000 -54.397599 -66.063345 -282.944744 500.000000
-0.012830 0.090000 0.353757 -26.607465 19.667058 -11.248502 500.000000
-0.088578 0.260000 0.326026 34.284446 -12.722536 -16.794766 500.000000
0.260000 0.260000 0.410000 -64.369064 -54.145394 -153.792415 500.000000
-0.260000 0.090000 0.410000 65.946232 17.075672 -17.778192 500.000000
0.100205 0.260000 0.410000 50.217756 -22.397545 -99.949413 500.000000
0.112520 0.237754 0.290000 74.504092 29.550897 21.955391 500.000000
0.260000 0.260000 0.290000 -119.315447 -18.709928 76.074993 500.000000
0.260000 0.260000 0.410000 -370.163357 -57.434118 -197.694951 500.000000
-0.260000 0.260000 0.294824 30.401255 -24.217397 -23.035205 500.000000
-0.260000 0.260000 0.410000 262.864371 -265.376545 -40.459890 500.000000
-0.260000 0.090000 0.290000 20.120057 33.926161 14.303450 500.000000
-0.083469 0.161060 0.359046 35.306195 14.212025 -10.190764 500.000000
-0.260000 0.260000 0.410000 72.383757 -171.697049 -100.908451 500.000000
-0.260000 0.260000 0.410000 53.376600 -153.668143 -57.753462 500.000000
0.117455 0.260000 0.290000 75.490999 -49.497080 59.695357 500.000000
-0.217437 0.217127 0.293059 -39.334906 25.425416 -23.388198 500.000000
-0.260000 0.260000 0.410000 55.144685 -165.323498 -94.150616 500.000000
-0.260000 0.260000 0.290000 220.527690 -31.912275 35.314421 500.000000
0.260000 0.260000 0.410000 -65.994940 -61.692770 -65.522294 500.000000
0.260000 0.260000 0.410000 -57.623243 -83.538095 -179.826072 500.000000
-0.260000 0.090000 0.397502 76.638779 58.692221 21.500354 500.000000
-0.196862 0.090000 0.410000 -46.463971 41.631899 -109.664627 500.000000
0.260000 0.260000 0.410000 -32.355166 -62.853667 -23.042805 500.000000
-0.260000 0.260000 0.290000 37.264679 -50.550880 198.984115 500.000000
