ply
format ascii 1.0
element vertex 240
property float x
property float y
property float z
property float vx
property float vy
property float vz
property float density
end_header
0.215160 0.260000 0.290000 95.032018 -44.629126 126.599862 500.000000
-0.260000 0.260000 0.290000 68.482831 -34.081827 15.433095 500.000000
-0.177075 0.260000 0.410000 -2.436226 -22.905680 -56.766542 500.000000
-0.260000 0.222343 0.410000 44.934640 26.468545 -49.837765 500.000000
-0.059753 0.260000 0.290000 14.564635 -20.695314 53.515343 500.000000
-0.260000 0.260000 0.387282 65.837561 -40.063715 12.190767 500.000000
-0.260000 0.260000 0.290000 57.359761 -24.226584 58.996914 500.000000
0.260000 0.224057 0.340559 -16.205708 -7.188683 -13.888190 500.000000
0.260000 0.260000 0.290000 -129.712113 -32.838287 116.147739 500.000000
0.260000 0.260000 0.410000 -71.987918 -21.670774 -68.987374 500.000000
-0.145188 0.090000 0.410000 -81.037655 57.300756 -468.383694 500.000000
-0.001981 0.174723 0.393259 -4.744202 -0.043390 20.651796 500.000000
-0.014886 0.090000 0.290000 23.537925 40.475016 53.662263 500.000000
-0.260000 0.090000 0.373246 64.986760 40.334126 9.383619 500.000000
-0.260000 0.090000 0.290000 57.357033 38.464623 88.099600 500.000000
0.260000 0.125964 0.340753 -19.510097 7.192790 -13.849496 500.000000
0.215284 0.090000 0.290000 95.056739 24.061125 97.223426 500.000000
-0.260000 0.090000 0.290000 73.790367 34.062412 31.382305 500.000000
0.125324 0.090000 0.410000 58.043729 22.835777 -56.774233 500.000000
0.260000 0.127662 0.410000 -16.528599 -26.467646 -49.837210 500.000000
0.069743 0.260000 0.290000 -38.051452 -20.848718 215.938427 500.000000
-0.090926 0.225300 0.410000 33.814831 27.060083 -159.585397 500.000000
-0.022168 0.260000 0.290000 -56.433551 -143.261633 67.793032 500.000000
0.141180 0.260000 0.410000 -23.763923 -19.549572 -210.350711 500.000000
-0.260000 0.260000 0.290000 89.870244 -24.714728 58.944263 500.000000
-0.102653 0.260000 0.290000 -72.530670 -30.536203 70.420811 500.000000
-0.260000 0.260000 0.290000 54.363810 -25.646611 58.541667 500.000000
0.260000 0.090000 0.290000 -42.183379 21.545542 13.114328 500.000000
-0.260000 0.090000 0.410000 90.202494 109.194116 -53.386531 500.000000
-0.260000 0.170060 0.410000 44.712321 -1.555445 -16.713620 500.000000
-0.260000 0.260000 0.290000 52.678951 -75.654447 68.853973 500.000000
0.021382 0.200980 0.290000 56.276425 5.498927 19.156609 500.000000
-0.260000 0.090000 0.290000 89.866931 38.952758 88.046950 500.000000
-0.101725 0.090000 0.290000 -72.345058 30.357876 59.325302 500.000000
-0.260000 0.090000 0.290000 54.361135 39.884624 87.644362 500.000000
0.260000 0.260000 0.290000 -41.270357 -21.596822 13.251756 500.000000
0.069843 0.090000 0.290000 -38.031340 20.828314 182.545565 500.000000
-0.089690 0.125211 0.410000 34.062026 -26.957892 -159.551224 500.000000
-0.022092 0.090000 0.290000 -56.418344 158.842687 96.895562 500.000000
0.139884 0.090000 0.410000 -24.023114 23.600647 -234.774869 500.000000
0.260000 0.104303 0.410000 -62.301545 -31.139480 -36.863628 500.000000
0.260000 0.090000 0.290000 -192.943963 21.212557 58.506168 500.000000
-0.210122 0.166718 0.290000 -44.187413 -18.656391 42.386762 500.000000
0.260000 0.090000 0.290000 -55.568533 23.881936 58.176446 500.000000
-0.041778 0.224844 0.290000 43.644486 26.968734 60.650513 500.000000
0.260000 0.260000 0.406623 -57.238688 -31.692054 7.631240 500.000000
-0.260000 0.090000 0.410000 40.352551 108.614725 -96.241473 500.000000
-0.113244 0.090000 0.410000 -24.582838 15.843532 -11.549522 500.000000
-0.029342 0.260000 0.410000 -57.868387 -112.015974 -207.763691 500.000000
-0.260000 0.090000 0.290000 23.412199 4.259870 53.768600 500.000000
0.260000 0.131377 0.290000 -79.084304 -25.724576 27.070212 500.000000
0.260000 0.090000 0.410000 -62.942888 52.066569 -11.415102 500.000000
-0.040009 0.125151 0.290000 43.998254 -26.969874 98.663985 500.000000
0.260000 0.090000 0.339784 -57.507199 39.683867 -5.736561 500.000000
-0.260000 0.260000 0.410000 44.083945 -109.512902 -96.000862 500.000000
-0.125661 0.260000 0.410000 -27.066335 -13.589228 -10.391267 500.000000
0.260000 0.245698 0.410000 -61.350711 31.139689 -36.863698 500.000000
0.260000 0.260000 0.290000 -192.928426 -41.780582 87.883323 500.000000
-0.210216 0.183282 0.290000 -44.206102 18.656388 42.378921 500.000000
0.260000 0.260000 0.290000 -55.556022 -44.449940 87.553621 500.000000
0.148127 0.260000 0.290000 81.625387 -128.203021 38.473499 500.000000
-0.260000 0.260000 0.290000 54.810749 -38.763284 19.004314 500.000000
-0.260000 0.090000 0.290000 55.249229 38.145732 87.851547 500.000000
0.260000 0.090000 0.290000 -181.993571 21.843982 57.236410 500.000000
-0.174664 0.090000 0.410000 -86.932840 25.378365 -159.577127 500.000000
0.260000 0.090000 0.410000 -30.121197 42.391518 -27.974247 500.000000
0.097314 0.255995 0.410000 -32.537203 33.199037 -136.598402 500.000000
-0.260000 0.090000 0.290000 55.544217 50.187727 90.307606 500.000000
-0.260000 0.090000 0.290000 81.462026 22.965922 82.749163 500.000000
0.091679 0.090000 0.290000 70.335845 296.989992 47.916455 500.000000
0.142396 0.090000 0.410000 80.479239 24.684008 -216.207068 500.000000
0.016565 0.090000 0.410000 55.312950 41.443850 -44.952237 500.000000
-0.174840 0.260000 0.410000 -86.968028 -25.378361 -159.571778 500.000000
0.260000 0.260000 0.410000 -30.121920 -42.311756 -27.974372 500.000000
0.097366 0.090000 0.410000 -32.526845 20.261343 -161.728659 500.000000
-0.260000 0.260000 0.290000 55.546913 -35.949897 61.204959 500.000000
0.146344 0.090000 0.290000 81.268853 125.238566 31.805710 500.000000
-0.260000 0.090000 0.290000 54.688687 38.641500 7.055073 500.000000
-0.260000 0.260000 0.290000 55.251920 -23.907688 58.748856 500.000000
0.260000 0.260000 0.290000 -181.978764 -42.412029 86.613605 500.000000
-0.260000 0.090000 0.410000 36.802892 47.228522 -22.406492 500.000000
0.074892 0.090000 0.410000 66.978360 22.521816 -174.563540 500.000000
-0.141002 0.090000 0.410000 23.799562 25.478061 -86.110738 500.000000
-0.062135 0.090000 0.410000 -64.427098 35.092359 -284.904789 500.000000
0.024198 0.260000 0.410000 56.839522 -28.623636 -174.314464 500.000000
-0.260000 0.260000 0.290000 63.617240 -38.698813 124.197341 500.000000
-0.260000 0.260000 0.290000 107.788534 -46.715268 58.594426 500.000000
-0.260000 0.260000 0.290000 55.295763 -41.596588 58.486224 500.000000
0.067822 0.090000 0.410000 -38.435618 43.018688 -46.422620 500.000000
0.105814 0.260000 0.410000 73.162791 -24.967195 -209.093141 500.000000
0.260000 0.090000 0.290000 -66.904609 84.434290 54.810114 500.000000
0.080168 0.090000 0.290000 68.033558 41.012298 56.653295 500.000000
0.025397 0.090000 0.410000 57.079321 28.623643 -174.280292 500.000000
-0.260000 0.090000 0.290000 63.614382 52.936454 153.298867 500.000000
-0.260000 0.090000 0.290000 107.784906 60.952802 87.697120 500.000000
-0.260000 0.090000 0.290000 55.293071 55.834229 87.588920 500.000000
-0.260000 0.260000 0.410000 72.734481 -47.227960 -22.406155 500.000000
0.073693 0.260000 0.410000 66.738583 -22.521818 -174.597712 500.000000
-0.141319 0.260000 0.410000 23.736209 -31.714497 -115.533098 500.000000
-0.062204 0.260000 0.410000 -64.440702 -32.228562 -262.297746 500.000000
0.053447 0.090000 0.290000 62.689341 35.332228 156.156818 500.000000
0.182687 0.165851 0.290000 20.051971 -18.829747 27.920243 500.000000
0.260000 0.090000 0.290000 -196.337523 17.465115 54.094170 500.000000
0.260000 0.090000 0.290000 -55.105296 25.113235 58.573442 500.000000
-0.008000 0.247600 0.290000 50.399908 31.519954 106.877981 500.000000
-0.260000 0.260000 0.357238 85.311609 -23.982183 5.050599 500.000000
0.260000 0.260000 0.290000 -57.099515 -44.604787 88.091609 500.000000
-0.260000 0.260000 0.290000 58.832466 -24.152707 60.159995 500.000000
-0.260000 0.260000 0.410000 47.115427 -109.158668 -69.487103 500.000000
0.260000 0.260000 0.290000 -58.718950 -70.643149 91.797698 500.000000
0.212824 0.090000 0.410000 94.564881 35.361495 -69.593041 500.000000
-0.140675 0.090000 0.290000 -80.134906 97.583074 83.049451 500.000000
-0.005702 0.102395 0.290000 50.859536 -31.521016 141.318930 500.000000
-0.260000 0.090000 0.290000 85.318417 43.743123 5.409847 500.000000
0.260000 0.090000 0.290000 -57.112056 24.036786 58.714444 500.000000
-0.260000 0.090000 0.290000 58.829711 38.390747 89.262661 500.000000
0.047204 0.260000 0.290000 61.440718 -35.332048 145.331128 500.000000
0.260000 0.184155 0.290000 -20.212174 18.831090 58.509990 500.000000
0.260000 0.260000 0.290000 -196.322438 -38.033244 83.471424 500.000000
0.260000 0.260000 0.290000 -55.092792 -45.681216 87.950609 500.000000
-0.049917 0.090000 0.290000 -61.983481 35.332617 145.172084 500.000000
-0.245062 0.165850 0.290000 -32.527654 -18.829932 42.268812 500.000000
-0.260000 0.090000 0.290000 196.327436 31.699822 83.196934 500.000000
-0.260000 0.090000 0.290000 55.097681 39.347944 87.676128 500.000000
0.006669 0.247614 0.290000 -50.666138 31.522867 141.288621 500.000000
0.260000 0.260000 0.368862 -85.266212 -36.247922 7.375432 500.000000
-0.260000 0.260000 0.290000 57.107130 -24.033472 58.714436 500.000000
0.260000 0.260000 0.290000 -58.824818 -44.724020 89.537140 500.000000
-0.045205 0.090000 0.410000 10.006326 21.979886 -69.492853 500.000000
-0.260000 0.090000 0.290000 59.540123 51.686858 86.390442 500.000000
-0.238866 0.260000 0.410000 -99.773127 -57.717760 -65.896588 500.000000
0.146132 0.260000 0.290000 81.226331 -105.324218 83.335088 500.000000
0.007008 0.102393 0.290000 -50.598450 -31.521391 106.906887 500.000000
0.260000 0.090000 0.351984 -85.340668 38.761252 3.999904 500.000000
-0.260000 0.090000 0.290000 57.104406 38.271514 87.817128 500.000000
0.260000 0.090000 0.290000 -58.837392 24.156021 60.160003 500.000000
-0.050834 0.260000 0.290000 -62.166880 -35.513339 156.238084 500.000000
-0.222049 0.184152 0.290000 -27.924983 18.830391 44.146318 500.000000
-0.260000 0.260000 0.290000 196.332747 -17.461807 54.094163 500.000000
-0.260000 0.260000 0.290000 55.100370 -25.109921 58.573434 500.000000
0.260000 0.090000 0.410000 -38.558540 47.228201 -22.406089 500.000000
-0.074211 0.090000 0.410000 -66.842199 22.521873 -174.583756 500.000000
0.141179 0.090000 0.410000 -23.764212 29.906546 -113.107349 500.000000
0.062405 0.090000 0.410000 64.481064 32.013858 -262.351579 500.000000
-0.024891 0.260000 0.410000 -56.978217 -28.623694 -174.295158 500.000000
0.260000 0.260000 0.290000 -63.609655 -59.269847 153.573269 500.000000
0.260000 0.260000 0.290000 -107.779956 -67.286077 87.971602 500.000000
0.260000 0.260000 0.290000 -55.288182 -62.167506 87.863402 500.000000
-0.068809 0.260000 0.410000 38.238130 -41.528489 -46.693630 500.000000
-0.106333 0.090000 0.410000 -73.266635 90.503728 -209.073451 500.000000
-0.260000 0.260000 0.290000 66.330067 -83.230844 54.818042 500.000000
-0.080107 0.260000 0.290000 -68.021316 -41.385620 56.650522 500.000000
-0.024715 0.090000 0.410000 -56.943092 28.623674 -174.300508 500.000000
0.260000 0.090000 0.290000 -63.622299 38.702145 124.197344 500.000000
0.260000 0.090000 0.290000 -107.793457 46.718551 58.594435 500.000000
0.260000 0.090000 0.290000 -55.300689 41.599876 58.486233 500.000000
0.260000 0.260000 0.410000 -71.001654 -47.227917 -22.405925 500.000000
-0.074386 0.260000 0.410000 -66.877212 -22.521849 -174.578406 500.000000
0.141137 0.260000 0.410000 -23.772571 -25.610315 -86.068000 500.000000
0.061926 0.260000 0.410000 64.385171 -36.462505 -286.930142 500.000000
-0.147121 0.260000 0.290000 -81.424260 -127.422343 32.545773 500.000000
0.260000 0.260000 0.290000 -54.325660 -38.640588 7.306769 500.000000
0.260000 0.090000 0.290000 -55.256846 23.911002 58.748864 500.000000
-0.260000 0.090000 0.290000 181.983719 36.078611 86.339118 500.000000
0.175344 0.090000 0.410000 87.068768 25.378305 -159.556912 500.000000
-0.260000 0.090000 0.410000 30.116102 42.306057 -27.975112 500.000000
-0.097533 0.260000 0.410000 32.493439 -21.873094 -163.988790 500.000000
0.260000 0.090000 0.290000 -55.551839 35.953210 61.204967 500.000000
0.260000 0.260000 0.290000 -80.286172 -26.921411 83.020643 500.000000
-0.096837 0.260000 0.290000 -71.367324 -175.257065 41.376063 500.000000
-0.141891 0.260000 0.410000 -80.378281 -68.330365 -216.217465 500.000000
-0.016810 0.260000 0.410000 -55.361979 -43.103520 -44.764997 500.000000
0.174145 0.260000 0.410000 86.828937 -25.378306 -159.591084 500.000000
-0.260000 0.260000 0.410000 30.127594 -42.396836 -27.975163 500.000000
-0.097154 0.095675 0.410000 32.569244 -32.864986 -136.647085 500.000000
0.260000 0.260000 0.290000 -55.539327 -56.520986 90.582084 500.000000
-0.147382 0.090000 0.290000 -81.476359 124.467023 36.867066 500.000000
0.260000 0.090000 0.290000 -55.156437 38.640768 18.816440 500.000000
0.260000 0.260000 0.290000 -55.244339 -44.479006 88.126028 500.000000
-0.260000 0.260000 0.290000 181.988793 -21.840675 57.236403 500.000000
-0.260000 0.104303 0.410000 63.077970 -31.139494 -36.864266 500.000000
-0.260000 0.090000 0.290000 192.931680 35.447051 87.608786 500.000000
0.210134 0.166718 0.290000 44.189388 -18.656398 42.385820 500.000000
-0.260000 0.090000 0.290000 55.560897 38.116666 87.279140 500.000000
0.040752 0.224859 0.290000 -43.849642 26.971813 98.641563 500.000000
-0.260000 0.260000 0.290000 57.394649 -33.077233 17.037991 500.000000
0.260000 0.090000 0.410000 -25.292386 109.473849 -95.976595 500.000000
0.061916 0.090000 0.410000 14.317260 15.406284 -12.656785 500.000000
0.029847 0.090000 0.410000 57.969344 68.360431 -207.753235 500.000000
0.260000 0.259262 0.290000 -28.548008 33.852432 47.354869 500.000000
-0.260000 0.260000 0.290000 44.660896 -25.241706 22.341034 500.000000
-0.260000 0.214726 0.410000 64.648199 2.748023 -17.088363 500.000000
0.041013 0.125149 0.290000 -43.797435 -26.970242 60.671732 500.000000
-0.260000 0.090000 0.410000 57.370887 28.095526 -18.278431 500.000000
0.260000 0.260000 0.410000 -59.196269 -108.571281 -96.285044 500.000000
0.125662 0.260000 0.410000 27.066354 -13.589224 -10.391278 500.000000
-0.260000 0.245699 0.410000 60.572384 31.139780 -36.864394 500.000000
-0.260000 0.260000 0.290000 192.936561 -21.209080 58.506082 500.000000
0.210199 0.183282 0.290000 44.202277 18.656403 42.380573 500.000000
-0.260000 0.260000 0.290000 55.563596 -23.878621 58.176438 500.000000
-0.071105 0.260000 0.290000 37.779067 -20.812804 182.509833 500.000000
0.089656 0.225548 0.410000 -34.068755 27.109643 -159.566090 500.000000
0.022090 0.260000 0.290000 56.417989 -165.196130 97.170035 500.000000
-0.140763 0.260000 0.410000 23.847384 -24.806458 -236.971228 500.000000
0.260000 0.260000 0.290000 -89.862004 -45.286030 88.321431 500.000000
0.098979 0.260000 0.290000 71.795849 -30.357311 59.486783 500.000000
0.260000 0.260000 0.290000 -54.356247 -46.217896 87.918843 500.000000
-0.260000 0.090000 0.290000 41.761498 21.413179 12.828362 500.000000
0.260000 0.090000 0.410000 -94.280295 87.675308 -53.380604 500.000000
0.260000 0.173309 0.410000 -44.890047 -0.390750 -16.771817 500.000000
0.189249 0.090000 0.290000 89.849826 27.011016 68.304119 500.000000
-0.004441 0.260000 0.290000 -52.888276 -29.074764 8.369305 500.000000
0.260000 0.090000 0.290000 -89.875162 24.718042 58.944271 500.000000
0.105298 0.090000 0.290000 73.059515 30.357505 70.336606 500.000000
0.260000 0.090000 0.290000 -54.368736 25.649925 58.541675 500.000000
-0.260000 0.260000 0.290000 41.679704 -21.691401 13.560723 500.000000
-0.068516 0.090000 0.290000 38.296789 20.862577 215.972615 500.000000
0.090955 0.125455 0.410000 -33.808903 -26.908930 -159.571440 500.000000
0.022174 0.090000 0.290000 56.434778 143.329830 67.793043 500.000000
-0.140236 0.090000 0.410000 23.952734 19.721037 -210.401292 500.000000
-0.215234 0.260000 0.290000 -95.046886 -24.057811 97.223422 500.000000
0.260000 0.260000 0.290000 -72.239752 -34.087100 31.048333 500.000000
0.169846 0.260000 0.410000 0.990292 -22.966563 -56.822276 500.000000
0.066009 0.222341 0.410000 35.671229 26.468244 -49.827147 500.000000
0.059230 0.260000 0.290000 -14.669268 -21.080632 53.546002 500.000000
0.260000 0.260000 0.393025 -66.525189 -34.600629 13.339283 500.000000
0.260000 0.260000 0.290000 -57.352141 -44.797896 88.374081 500.000000
-0.260000 0.216728 0.340591 18.015686 -8.654467 -13.881851 500.000000
-0.260000 0.090000 0.290000 116.468979 87.878688 111.504518 500.000000
-0.260000 0.260000 0.410000 33.923058 -65.632037 -68.990958 500.000000
0.147052 0.260000 0.410000 81.410480 -63.453552 -473.942635 500.000000
0.001981 0.174883 0.393259 4.744208 0.003546 20.651794 500.000000
-0.260000 0.090000 0.290000 44.477521 21.463331 53.552200 500.000000
0.260000 0.090000 0.342160 -62.606172 42.433088 3.166287 500.000000
0.260000 0.090000 0.290000 -57.364687 24.229898 58.996922 500.000000
-0.260000 0.125993 0.340725 19.369683 7.198540 -13.854906 500.000000
-0.215209 0.090000 0.290000 -95.041781 38.295852 126.325427 500.000000
0.260000 0.090000 0.290000 -70.028700 34.074377 15.760027 500.000000
-0.117892 0.090000 0.410000 -56.557340 22.743049 -56.723568 500.000000
-0.008076 0.127656 0.410000 20.854900 -26.468739 -49.825881 500.000000
