ply
format ascii 1.0
element vertex 240
property float x
property float y
property float z
property float vx
property float vy
property float vz
property float density
end_header
-0.260000 0.260000 0.410000 54.510080 -270.533964 -43.012501 500.000000
-0.260000 0.260000 0.290000 80.351555 -230.355503 134.318086 500.000000
0.260000 0.260000 0.410000 -113.303105 -45.942577 -22.018302 500.000000
0.260000 0.260000 0.410000 -61.651025 -248.089576 -31.479856 500.000000
-0.260000 0.260000 0.290000 65.744664 -56.595702 117.436992 500.000000
-0.260000 0.260000 0.290000 164.239234 -238.863664 140.618336 500.000000
-0.260000 0.090000 0.290000 156.671001 38.798925 55.703467 500.000000
-0.136264 0.260000 0.359806 -79.252734 -62.605696 13.961228 500.000000
-0.260000 0.260000 0.290000 62.117136 -271.810602 154.216249 500.000000
-0.260000 0.260000 0.290000 63.747186 -297.639297 147.155751 500.000000
0.260000 0.090000 0.410000 -89.219249 984.523556 -107.458045 500.000000
0.013692 0.154757 0.290000 54.738484 -21.048562 157.810589 500.000000
-0.260000 0.162717 0.410000 36.241072 14.543363 -14.528572 500.000000
0.260000 0.090000 0.290000 -187.341323 101.773597 28.550629 500.000000
-0.154334 0.090000 0.290000 -69.132470 31.410398 27.647981 500.000000
0.260000 0.090000 0.410000 -175.693754 26.556620 -81.448101 500.000000
0.260000 0.105578 0.410000 -178.278304 -30.884409 -75.484482 500.000000
0.156325 0.260000 0.290000 83.264954 -60.635374 30.912612 500.000000
0.037208 0.260000 0.290000 3.856619 -9.977262 14.453945 500.000000
-0.260000 0.260000 0.410000 216.035511 -219.504019 -12.694131 500.000000
-0.210009 0.260000 0.410000 -94.001757 -342.227949 -39.742146 500.000000
-0.260000 0.260000 0.290000 59.598436 -316.862189 141.563100 500.000000
-0.252474 0.260000 0.402602 -102.494734 -137.311798 22.520388 500.000000
-0.260000 0.252033 0.410000 36.362884 32.406640 -218.270341 500.000000
0.224986 0.090000 0.410000 51.885685 21.900198 -18.615683 500.000000
-0.260000 0.090000 0.410000 502.412653 349.706095 -24.658599 500.000000
0.260000 0.141454 0.410000 -162.543961 -23.709204 -48.521404 500.000000
0.260000 0.090000 0.290000 -82.542127 31.754140 28.976525 500.000000
-0.260000 0.260000 0.410000 82.826477 -35.080035 -231.662551 500.000000
0.260000 0.260000 0.290000 -128.926801 -56.573452 31.198069 500.000000
0.260000 0.260000 0.410000 -60.338917 -252.283277 -21.768781 500.000000
0.087312 0.090000 0.290000 19.895108 17.473815 13.657887 500.000000
-0.260000 0.090000 0.410000 118.379632 196.818059 -52.713184 500.000000
-0.194490 0.260000 0.410000 -35.571709 -20.824978 -17.617084 500.000000
0.260000 0.090000 0.410000 -174.151741 23.855498 -70.896005 500.000000
0.257395 0.100442 0.290000 26.004587 -31.911575 45.576859 500.000000
-0.260000 0.090000 0.290000 13.543609 25.799768 49.214464 500.000000
-0.002080 0.090000 0.290000 -41.278335 59.849447 17.196166 500.000000
0.180568 0.090000 0.290000 60.713092 17.338908 46.973644 500.000000
-0.260000 0.193458 0.410000 73.900259 20.691625 -50.831269 500.000000
0.260000 0.260000 0.386095 -54.114321 -29.055556 19.219074 500.000000
-0.260000 0.090000 0.410000 365.839539 306.867758 -25.435439 500.000000
0.208504 0.090000 0.290000 4.242877 60.821975 21.086500 500.000000
-0.260000 0.090000 0.290000 59.008947 65.641318 32.007942 500.000000
-0.150479 0.090000 0.410000 -82.095837 27.497858 -318.044537 500.000000
0.260000 0.260000 0.290000 -57.569304 -64.475984 264.170875 500.000000
-0.260000 0.090000 0.410000 150.846887 195.621495 -57.549581 500.000000
-0.260000 0.090000 0.290000 59.134891 435.578103 23.880816 500.000000
0.260000 0.260000 0.410000 -52.973814 -264.085069 -31.119044 500.000000
0.260000 0.090000 0.290000 -66.401773 31.538506 17.832752 500.000000
0.249443 0.260000 0.290000 101.888695 -54.951892 33.118953 500.000000
0.260000 0.090000 0.410000 -184.855288 39.893908 -72.394364 500.000000
0.260000 0.115758 0.410000 -164.248146 -28.848460 -75.598366 500.000000
-0.260000 0.260000 0.410000 85.830641 -93.535365 -51.875979 500.000000
0.260000 0.260000 0.410000 -55.602976 -300.813556 -26.195194 500.000000
0.260000 0.260000 0.410000 -180.723730 -24.161100 -260.805050 500.000000
-0.260000 0.090000 0.410000 160.568944 193.651494 -42.807174 500.000000
-0.260000 0.090000 0.290000 89.914209 64.029938 33.892876 500.000000
0.240150 0.260000 0.290000 100.030051 -56.941665 24.333577 500.000000
0.260000 0.260000 0.410000 -60.665451 -252.310616 -25.336723 500.000000
0.260000 0.260000 0.410000 -60.771788 -291.991183 -22.045365 500.000000
-0.125075 0.090000 0.410000 -77.014941 224.200041 -317.140339 500.000000
0.260000 0.260000 0.290000 -210.290760 -230.080031 65.201587 500.000000
0.260000 0.090000 0.290000 -149.267395 62.093985 32.569934 500.000000
-0.260000 0.260000 0.290000 74.484142 -229.624738 137.884902 500.000000
0.260000 0.090000 0.410000 -188.869914 31.003424 -50.966407 500.000000
0.243515 0.090000 0.290000 22.428476 119.660263 32.696017 500.000000
0.260000 0.090000 0.410000 -171.782415 23.456491 -70.929595 500.000000
0.260000 0.260000 0.290000 -116.635077 -328.465490 26.240807 500.000000
0.260000 0.260000 0.410000 -59.449532 -254.807658 -15.455813 500.000000
0.260000 0.260000 0.290000 -423.243635 -235.464024 82.366814 500.000000
0.203453 0.260000 0.410000 44.389560 -19.293344 -22.198920 500.000000
0.260000 0.137940 0.410000 -166.134390 -24.412068 -98.261906 500.000000
-0.260000 0.090000 0.410000 34.037631 21.056486 -251.675539 500.000000
-0.260000 0.090000 0.290000 65.572257 293.321402 28.003365 500.000000
-0.260000 0.260000 0.410000 83.492339 -135.760129 -361.450052 500.000000
-0.132899 0.090000 0.290000 -9.449410 49.259190 27.283130 500.000000
0.260000 0.090000 0.410000 -175.097022 23.371469 -70.755596 500.000000
-0.260000 0.090000 0.410000 1159.996200 267.587777 -45.796585 500.000000
-0.260000 0.090000 0.290000 67.873705 29.359653 61.118341 500.000000
-0.260000 0.090000 0.290000 65.516730 420.996113 27.859319 500.000000
-0.260000 0.090000 0.290000 65.562994 336.086682 27.984252 500.000000
-0.260000 0.260000 0.290000 41.830218 -176.629280 14.290192 500.000000
-0.260000 0.090000 0.290000 65.626931 208.691821 28.139069 500.000000
-0.260000 0.090000 0.290000 22.760978 23.760636 21.101404 500.000000
-0.260000 0.090000 0.290000 62.114169 38.189812 21.918204 500.000000
0.260000 0.090000 0.410000 -176.800953 26.417199 -78.933568 500.000000
0.237866 0.090000 0.366946 37.818441 10.708991 15.389129 500.000000
-0.260000 0.090000 0.290000 65.647836 79.271043 28.068728 500.000000
-0.260000 0.119464 0.290000 88.497809 -28.107119 32.112442 500.000000
-0.260000 0.090000 0.290000 116.082058 33.664723 28.081130 500.000000
0.260000 0.090000 0.290000 -93.508780 44.160702 53.406099 500.000000
-0.260000 0.090000 0.410000 26.178300 23.757321 -18.610537 500.000000
0.260000 0.260000 0.355598 -30.461055 -13.423203 13.119698 500.000000
-0.260000 0.260000 0.410000 315.553882 -219.261495 -12.117895 500.000000
0.260000 0.090000 0.290000 -145.058900 51.028805 60.332939 500.000000
-0.260000 0.260000 0.410000 284.229805 -52.384973 -43.971835 500.000000
0.260000 0.090000 0.410000 -165.370229 26.674042 -97.078401 500.000000
0.123770 0.260000 0.290000 76.754089 -54.785124 24.089584 500.000000
0.048933 0.260000 0.290000 61.786530 -62.145731 29.114841 500.000000
0.260000 0.260000 0.410000 -57.257525 -254.523111 -15.603507 500.000000
-0.041598 0.090000 0.410000 -60.319527 117.246739 -138.330297 500.000000
-0.260000 0.090000 0.410000 485.406654 392.862688 -24.134508 500.000000
-0.260000 0.090000 0.410000 441.492929 264.369879 -26.657697 500.000000
0.122827 0.090000 0.410000 47.669848 106.643905 -19.144380 500.000000
-0.260000 0.260000 0.290000 117.449493 -26.888174 208.604290 500.000000
0.260000 0.260000 0.410000 -60.372174 -252.058784 -25.342388 500.000000
0.260000 0.090000 0.290000 -170.687459 65.761697 42.344555 500.000000
0.260000 0.090000 0.290000 -33.300520 23.731679 44.379940 500.000000
0.260000 0.090000 0.290000 -136.829356 28.282186 1386.417847 500.000000
-0.229561 0.090000 0.290000 -97.912101 114.574980 344.607272 500.000000
0.051823 0.260000 0.290000 62.364599 -63.444639 34.704558 500.000000
0.260000 0.090000 0.410000 -178.942950 23.310932 -70.967224 500.000000
0.260000 0.260000 0.290000 -62.749361 -251.580864 88.187373 500.000000
-0.260000 0.090000 0.290000 61.016749 384.618399 31.826435 500.000000
0.260000 0.090000 0.290000 -66.220766 28.391495 29.991406 500.000000
0.260000 0.134989 0.410000 -172.649725 -25.002271 -75.345387 500.000000
0.260000 0.260000 0.410000 -60.454611 -259.784941 -25.393211 500.000000
0.260000 0.260000 0.290000 -65.731744 -73.628194 43.256143 500.000000
0.260000 0.260000 0.410000 -60.477033 -256.961103 -25.446374 500.000000
0.260000 0.090000 0.410000 -178.999448 25.162911 -70.891503 500.000000
-0.260000 0.260000 0.410000 59.719633 -17.188382 -434.000508 500.000000
-0.260000 0.090000 0.290000 158.292550 24.961719 42.116570 500.000000
0.260000 0.090000 0.410000 -173.798021 23.657717 -70.894667 500.000000
0.260000 0.090000 0.290000 -37.103697 18.562689 47.127287 500.000000
0.062263 0.090000 0.290000 64.452681 312.154536 27.318510 500.000000
-0.260000 0.260000 0.290000 106.315748 -23.112766 109.399286 500.000000
-0.260000 0.260000 0.290000 68.038713 -230.689934 154.072987 500.000000
-0.260000 0.090000 0.410000 451.169500 486.864386 -24.456161 500.000000
0.260000 0.090000 0.290000 -607.923442 66.149250 39.921361 500.000000
0.030184 0.090000 0.290000 -8.699084 55.737900 12.312768 500.000000
0.260000 0.090000 0.410000 -178.902446 26.432605 -78.935740 500.000000
-0.260000 0.260000 0.290000 73.349752 -230.703835 138.972026 500.000000
0.260000 0.260000 0.410000 -56.143604 -34.412183 -18.534137 500.000000
0.260000 0.260000 0.290000 -345.384042 -53.445585 28.405729 500.000000
0.260000 0.090000 0.410000 -167.740113 306.564826 -60.282112 500.000000
0.260000 0.205613 0.290000 -60.722145 23.122514 76.250541 500.000000
0.091554 0.260000 0.290000 35.150957 -21.866790 22.801479 500.000000
-0.260000 0.108627 0.290000 54.366489 -30.274684 33.845769 500.000000
-0.260000 0.090000 0.290000 66.723326 43.200165 233.994791 500.000000
-0.260000 0.090000 0.290000 65.543307 38.906652 28.097080 500.000000
-0.260000 0.090000 0.290000 65.611080 165.084365 28.087676 500.000000
-0.260000 0.090000 0.290000 70.364886 27.510552 25.423509 500.000000
-0.260000 0.090000 0.290000 65.515461 377.691092 27.849228 500.000000
-0.260000 0.260000 0.290000 226.409753 -18.950481 124.130280 500.000000
-0.260000 0.260000 0.410000 57.651409 -63.823492 -46.920381 500.000000
0.103902 0.260000 0.290000 72.780340 -84.939086 79.240274 500.000000
0.260000 0.090000 0.410000 -172.750383 26.320206 -78.947335 500.000000
0.187225 0.090000 0.290000 18.230453 65.120506 22.599008 500.000000
-0.260000 0.090000 0.290000 66.088891 21.270265 28.997941 500.000000
0.136099 0.260000 0.290000 79.219886 -55.798181 33.371280 500.000000
0.259983 0.260000 0.410000 103.996530 -61.013807 -12.328847 500.000000
-0.260000 0.090000 0.290000 65.583976 250.143128 28.023543 500.000000
-0.260000 0.090000 0.410000 490.339966 461.069315 -23.663253 500.000000
0.260000 0.090000 0.399101 -13.551278 14.590469 -2.179805 500.000000
0.102050 0.260000 0.410000 8.223688 -40.611175 -20.392679 500.000000
-0.207746 0.090000 0.290000 -22.556789 21.586115 45.519699 500.000000
0.260000 0.090000 0.410000 -175.901420 28.204578 -71.479626 500.000000
0.260000 0.090000 0.410000 -184.198925 223.607706 -66.681751 500.000000
-0.260000 0.090000 0.290000 73.769756 172.693042 52.027316 500.000000
-0.260000 0.260000 0.290000 69.530871 -236.545724 134.849744 500.000000
0.260000 0.260000 0.290000 -352.137504 -210.596011 22.796778 500.000000
-0.260000 0.090000 0.410000 410.949972 221.151139 -25.171199 500.000000
0.260000 0.090000 0.410000 -163.711814 38.629431 -72.330917 500.000000
-0.260000 0.260000 0.290000 59.556824 -312.688990 145.419909 500.000000
0.210501 0.260000 0.410000 54.824792 -20.458323 -37.266657 500.000000
0.260000 0.114252 0.410000 -241.846198 -29.149511 -48.080514 500.000000
0.260000 0.090000 0.410000 -161.308827 36.106965 -72.270417 500.000000
0.260000 0.260000 0.410000 -60.453446 -258.310848 -25.441261 500.000000
-0.260000 0.260000 0.290000 74.670565 -226.952230 137.758845 500.000000
-0.260000 0.090000 0.290000 55.331470 67.774463 12.224367 500.000000
-0.222949 0.260000 0.410000 -96.589849 -120.143086 -49.034108 500.000000
0.066399 0.090000 0.410000 4.193743 15.936588 -21.180462 500.000000
0.260000 0.260000 0.410000 -59.873030 -322.230517 -13.763759 500.000000
0.106204 0.260000 0.410000 -30.759239 -37.167176 -11.819592 500.000000
-0.260000 0.090000 0.410000 54.384607 265.785315 -27.500496 500.000000
-0.260000 0.090000 0.290000 65.690945 122.812090 29.552440 500.000000
0.260000 0.090000 0.290000 -55.065512 27.004853 68.922989 500.000000
0.260000 0.260000 0.410000 -60.319000 -259.114992 -25.446420 500.000000
-0.260000 0.090000 0.290000 66.047553 367.038189 43.778420 500.000000
0.260000 0.260000 0.290000 -160.673849 -117.329763 38.149742 500.000000
0.260000 0.090000 0.410000 -164.523441 36.473937 -72.268407 500.000000
0.260000 0.097621 0.410000 -194.592252 -32.475812 -48.441683 500.000000
-0.153493 0.260000 0.380066 -82.698548 -125.225925 18.013251 500.000000
0.255624 0.260000 0.410000 103.124848 -246.956201 -92.645212 500.000000
0.105700 0.090079 0.290000 73.140031 -17.382472 29.028420 500.000000
0.260000 0.090000 0.410000 -176.158604 23.546340 -79.705228 500.000000
-0.123585 0.090000 0.410000 -76.717065 194.206459 -51.091854 500.000000
-0.214939 0.260000 0.410000 -94.987776 -31.735834 -231.328846 500.000000
-0.260000 0.260000 0.290000 71.349561 -227.455846 139.321167 500.000000
0.260000 0.260000 0.410000 -73.754773 -254.503987 -13.685651 500.000000
0.225979 0.260000 0.410000 97.195843 -258.405424 -12.017739 500.000000
0.260000 0.260000 0.410000 -60.247284 -260.103294 -25.428624 500.000000
-0.260000 0.260000 0.410000 492.684576 -163.607615 -59.613079 500.000000
0.207769 0.221022 0.410000 72.827219 26.204478 -55.195663 500.000000
-0.126861 0.208907 0.290000 -77.372222 -10.218636 15.857553 500.000000
-0.260000 0.260000 0.290000 65.566995 -43.775011 117.028046 500.000000
-0.260000 0.090000 0.410000 474.063703 20.467191 -247.654112 500.000000
-0.197260 0.260000 0.410000 -91.452050 -187.935659 -44.265412 500.000000
0.260000 0.090000 0.410000 -161.587124 265.544507 -64.479367 500.000000
0.260000 0.260000 0.410000 -69.434188 -60.185149 -12.300737 500.000000
-0.260000 0.090000 0.290000 70.102492 404.668659 24.844138 500.000000
-0.206088 0.260000 0.362872 -93.217593 -46.181249 14.574441 500.000000
0.260000 0.164160 0.410000 -152.265423 -19.167981 -55.937409 500.000000
-0.260000 0.090000 0.290000 10.832034 34.254310 65.032202 500.000000
-0.093699 0.090000 0.410000 -70.739810 171.920431 -21.134500 500.000000
0.260000 0.090000 0.410000 -175.806224 26.304555 -78.721155 500.000000
0.108582 0.260000 0.290000 73.716364 -81.284923 75.489758 500.000000
-0.260000 0.258586 0.290000 65.313559 33.717130 116.489451 500.000000
-0.260000 0.090000 0.290000 76.648294 60.349056 23.752873 500.000000
0.260000 0.174683 0.410000 -280.787146 -17.063332 -58.387362 500.000000
-0.260000 0.260000 0.410000 572.512676 -205.313523 -36.531618 500.000000
0.233965 0.260000 0.410000 98.793027 -250.505661 -72.082124 500.000000
-0.260000 0.090000 0.290000 124.842514 26.472574 47.133761 500.000000
-0.260000 0.090000 0.410000 380.824624 435.331662 -26.854078 500.000000
0.260000 0.260000 0.410000 -60.368681 -248.047957 -33.794304 500.000000
0.038359 0.260000 0.290000 -7.788481 -250.475933 35.378333 500.000000
-0.066928 0.260000 0.315296 -32.537765 -7.205979 -18.940730 500.000000
-0.260000 0.090000 0.410000 462.386078 489.554113 -25.073414 500.000000
-0.136833 0.260000 0.290000 -79.366517 -23.838497 165.204259 500.000000
0.260000 0.090000 0.410000 -208.676062 22.177405 -46.846630 500.000000
-0.242790 0.090000 0.410000 -100.558027 197.146851 -141.606619 500.000000
-0.260000 0.260000 0.410000 99.456327 -22.212188 -577.138296 500.000000
0.260000 0.090000 0.410000 -179.678142 253.624543 -67.247013 500.000000
0.260000 0.090000 0.410000 -151.328066 26.145057 -164.685309 500.000000
0.260000 0.260000 0.410000 -40.441163 -46.459039 -16.949461 500.000000
0.260000 0.214898 0.328984 -138.380207 -9.020434 -16.203172 500.000000
0.190217 0.099236 0.410000 23.504159 -32.152837 -41.675515 500.000000
-0.260000 0.260000 0.410000 103.964075 -215.972394 -13.426489 500.000000
0.260000 0.260000 0.382646 -69.554911 -256.292928 18.529107 500.000000
-0.260000 0.260000 0.290000 82.220919 -231.995419 134.683848 500.000000
-0.260000 0.090000 0.290000 59.798781 23.234333 310.769411 500.000000
0.260000 0.260000 0.405383 -58.155183 -257.985307 23.076549 500.000000
-0.260000 0.090000 0.290000 78.141509 53.802440 37.583061 500.000000
0.260000 0.090000 0.410000 -167.518907 334.973962 -60.189278 500.000000
0.260000 0.260000 0.410000 -60.570037 -249.138792 -27.357273 500.000000
0.260000 0.149054 0.290000 -77.599766 -22.189216 84.096780 500.000000
0.260000 0.090000 0.410000 -172.608543 22.996464 -69.460861 500.000000
0.260000 0.090000 0.410000 -168.452418 304.653910 -57.719978 500.000000
0.260000 0.090000 0.290000 -334.689983 342.869211 38.353613 500.000000
