ply
format ascii 1.0
element vertex 240
property float x
property float y
property float z
property float vx
property float vy
property float vz
property float density
end_header
0.260000 0.090000 0.410000 -94.703004 34.968590 -605.257063 500.000000
0.260000 0.090000 0.290000 -55.111632 45.456828 170.555439 500.000000
0.260000 0.090000 0.303648 -58.960080 957.884754 -21.270359 500.000000
-0.260000 0.090000 0.290000 69.468075 45.319361 166.877729 500.000000
0.260000 0.090000 0.410000 -92.886670 78.640841 -32.513726 500.000000
0.260000 0.182316 0.290000 -344.378021 18.463135 71.380488 500.000000
0.260000 0.090000 0.410000 -125.809950 410.276689 -73.884431 500.000000
-0.042412 0.260000 0.410000 -8.117724 -82.128780 -25.281058 500.000000
-0.260000 0.260000 0.410000 176.989789 -41.200082 -13.794826 500.000000
-0.260000 0.260000 0.290000 55.951282 -32.499010 43.575449 500.000000
-0.260000 0.260000 0.290000 64.595991 -36.936586 21.057384 500.000000
-0.260000 0.139641 0.339680 22.176518 -24.071758 -14.063973 500.000000
0.260000 0.260000 0.290000 -80.173395 -78.429703 112.983571 500.000000
0.260000 0.216965 0.290000 -37.614643 25.393049 25.009794 500.000000
-0.260000 0.090000 0.290000 412.559154 79.631486 617.382814 500.000000
-0.260000 0.260000 0.410000 151.505055 -75.623345 -111.598946 500.000000
-0.260000 0.151980 0.410000 110.586429 -21.604049 -123.067877 500.000000
-0.260000 0.260000 0.290000 65.481000 -36.054085 23.316680 500.000000
-0.260000 0.094501 0.410000 141.987475 -33.099758 -124.723679 500.000000
-0.260000 0.126922 0.410000 79.425924 -26.615512 -101.096550 500.000000
0.260000 0.260000 0.410000 -107.338979 -52.843990 -23.694002 500.000000
0.260000 0.260000 0.410000 -92.096749 -37.874010 -53.805921 500.000000
-0.260000 0.090000 0.410000 75.107064 39.040457 -56.929057 500.000000
0.113638 0.090000 0.410000 74.727664 12.517854 -24.192885 500.000000
0.260000 0.260000 0.410000 -87.798624 -23.688271 -59.024143 500.000000
0.260000 0.260000 0.290000 -63.219179 -72.322017 85.691803 500.000000
-0.260000 0.260000 0.363222 365.878232 -30.403560 14.644489 500.000000
0.260000 0.090000 0.410000 -108.993191 455.760176 -81.114043 500.000000
0.260000 0.260000 0.290000 -82.923039 -78.974667 103.757959 500.000000
0.068946 0.204189 0.410000 4.473992 22.837872 -209.138460 500.000000
0.138177 0.090000 0.290000 79.635390 46.233935 170.267044 500.000000
-0.260000 0.090000 0.307837 247.015246 393.495681 -20.432533 500.000000
-0.260000 0.090000 0.410000 58.317821 23.576948 -579.796884 500.000000
-0.260000 0.090000 0.410000 68.580266 79.639125 -53.443858 500.000000
0.260000 0.260000 0.410000 -90.842835 -73.524263 -162.972805 500.000000
0.260000 0.210991 0.290000 -34.416696 24.198149 10.137986 500.000000
0.195972 0.090000 0.290000 91.194426 35.025802 141.987568 500.000000
-0.260000 0.260000 0.295354 56.542622 -37.482678 -22.929164 500.000000
0.260000 0.260000 0.290000 -77.824657 -62.951929 105.373787 500.000000
0.260000 0.134111 0.410000 -48.674579 8.822124 -29.092781 500.000000
-0.157652 0.090000 0.290000 -83.530419 69.225249 558.046974 500.000000
-0.260000 0.260000 0.290000 64.581116 -36.925449 20.928007 500.000000
0.125555 0.090000 0.290000 77.111088 50.666614 171.272036 500.000000
0.260000 0.090000 0.410000 -60.342729 78.580570 -36.510476 500.000000
0.260000 0.260000 0.290000 -67.423962 -75.156802 103.195603 500.000000
0.260000 0.260000 0.290000 -195.676355 -381.078077 28.501531 500.000000
-0.260000 0.090000 0.410000 62.522865 74.101567 -336.900825 500.000000
0.260000 0.260000 0.290000 -82.794651 -65.689566 20.761254 500.000000
0.219112 0.090000 0.290000 95.822398 46.239678 170.271594 500.000000
-0.260000 0.090000 0.410000 70.172142 44.221421 -51.128371 500.000000
-0.260000 0.090000 0.410000 59.270859 18.912806 -591.685216 500.000000
-0.260000 0.260000 0.290000 64.283032 -36.047041 22.830225 500.000000
-0.260000 0.090000 0.410000 59.745535 19.087233 -673.306048 500.000000
-0.260000 0.090000 0.290000 136.655263 53.185538 567.181171 500.000000
0.210575 0.090000 0.290000 94.115061 46.257551 170.269198 500.000000
0.260000 0.260000 0.290000 -59.671872 -71.997021 124.508339 500.000000
-0.260000 0.260000 0.290000 63.035017 -35.754825 21.244083 500.000000
0.060072 0.090000 0.290000 64.014378 543.852405 260.965736 500.000000
0.260000 0.155827 0.365674 -52.153922 -20.834513 15.134740 500.000000
-0.260000 0.090000 0.410000 66.937488 45.006514 -94.286314 500.000000
-0.260000 0.090000 0.410000 68.278304 44.857280 -181.123665 500.000000
0.260000 0.159850 0.410000 -14.052146 -20.029978 -8.482635 500.000000
0.260000 0.090000 0.410000 -92.569652 78.074650 -32.780546 500.000000
-0.260000 0.260000 0.290000 63.931597 -44.267118 31.667635 500.000000
-0.260000 0.090000 0.290000 61.605638 17.481912 43.395165 500.000000
-0.260000 0.260000 0.290000 65.701477 -36.042716 22.819852 500.000000
0.260000 0.260000 0.410000 -88.563147 -67.142909 -96.831694 500.000000
0.260000 0.260000 0.410000 -95.506343 -73.526477 -119.719963 500.000000
0.260000 0.260000 0.410000 -30.883586 -25.441858 -25.198963 500.000000
0.190925 0.090000 0.290000 90.184998 46.235163 170.263972 500.000000
-0.260000 0.090000 0.410000 65.150946 78.272409 -56.408299 500.000000
-0.260000 0.260000 0.290000 59.725533 -36.203039 22.763704 500.000000
0.260000 0.260000 0.290000 -65.981930 -91.473442 20.548822 500.000000
-0.099453 0.260000 0.410000 -71.890531 -130.875013 -32.260045 500.000000
0.251265 0.090000 0.410000 102.253041 76.426770 -17.730769 500.000000
0.258318 0.090000 0.290000 103.663681 46.018735 170.623125 500.000000
-0.260000 0.118202 0.290000 41.579643 5.640404 18.983613 500.000000
0.260000 0.260000 0.410000 -89.795617 -73.522963 -206.461933 500.000000
-0.260000 0.090000 0.290000 60.865417 187.969042 552.021786 500.000000
-0.260000 0.162136 0.410000 255.087127 -19.572883 -52.464489 500.000000
-0.260000 0.260000 0.410000 66.976357 -57.651279 -25.058203 500.000000
0.260000 0.260000 0.410000 -21.670187 -44.739050 -20.214205 500.000000
-0.260000 0.090000 0.410000 108.686045 121.018662 -54.455624 500.000000
-0.260000 0.090000 0.410000 792.808673 58.042245 -39.953529 500.000000
-0.260000 0.090000 0.410000 83.554943 20.456803 -55.830788 500.000000
-0.260000 0.260000 0.290000 61.544304 -36.767943 22.734115 500.000000
-0.260000 0.260000 0.290000 58.788583 -36.040480 22.834422 500.000000
0.220519 0.235837 0.410000 28.612716 10.531065 -13.752456 500.000000
-0.260000 0.090000 0.410000 127.908585 181.874217 -57.892525 500.000000
-0.260000 0.090000 0.290000 134.703738 54.729333 571.215247 500.000000
0.260000 0.090000 0.384895 -27.005563 32.304631 18.978970 500.000000
0.030086 0.222640 0.410000 -2.298729 8.629327 -4.658059 500.000000
0.260000 0.260000 0.290000 -69.291833 -72.814384 103.075973 500.000000
-0.125277 0.260000 0.290000 -77.055381 -619.873322 419.253241 500.000000
0.260000 0.129548 0.410000 -738.930195 -26.090438 -106.873728 500.000000
-0.260000 0.099944 0.410000 57.578707 -32.011245 -105.461463 500.000000
0.086427 0.139620 0.410000 11.208315 -24.076069 -33.717748 500.000000
0.260000 0.260000 0.290000 -67.399184 -71.181017 54.119142 500.000000
0.260000 0.260000 0.410000 -125.512855 -24.579723 -51.100255 500.000000
0.260000 0.090000 0.410000 -68.404016 89.104259 -173.205352 500.000000
0.200197 0.090000 0.290000 92.039452 46.235025 170.264044 500.000000
-0.260000 0.260000 0.290000 64.181485 -36.656561 22.888839 500.000000
0.260000 0.260000 0.290000 -59.863950 -72.417433 64.002361 500.000000
0.260000 0.260000 0.290000 -117.716333 -67.045688 19.220182 500.000000
0.260000 0.260000 0.410000 -99.897224 -595.530833 -29.530832 500.000000
-0.061972 0.218143 0.319334 9.240681 25.628605 -18.133275 500.000000
-0.260000 0.090000 0.410000 63.037063 20.592318 -469.427119 500.000000
-0.260000 0.260000 0.290000 38.190483 -73.793035 12.406254 500.000000
-0.260000 0.090000 0.410000 88.386294 21.185889 -424.513461 500.000000
-0.260000 0.090000 0.410000 57.576740 27.351548 -53.172877 500.000000
0.260000 0.260000 0.410000 -91.198963 -64.795189 -100.723370 500.000000
-0.116901 0.174577 0.290000 28.619816 -17.084654 145.976774 500.000000
-0.260000 0.260000 0.290000 60.794987 -36.038969 22.830131 500.000000
0.134854 0.260000 0.290000 78.970811 -37.167683 950.494167 500.000000
-0.260000 0.260000 0.410000 51.304406 -53.883931 -23.380603 500.000000
0.260000 0.260000 0.290000 -99.533645 -73.174801 114.227418 500.000000
0.260000 0.260000 0.290000 -73.396066 -147.484795 131.816770 500.000000
0.260000 0.090000 0.410000 -212.836622 34.290065 -793.032546 500.000000
0.260000 0.182760 0.290000 -437.200029 -15.447952 95.209119 500.000000
-0.260000 0.090000 0.410000 64.249131 45.014394 -6.900589 500.000000
-0.260000 0.260000 0.290000 62.139457 -36.039870 22.830085 500.000000
0.260000 0.260000 0.410000 -54.004075 -52.159949 -12.654946 500.000000
0.260000 0.090000 0.410000 -75.206433 447.449087 -79.167923 500.000000
0.260000 0.260000 0.410000 -92.087691 -73.524493 -141.191732 500.000000
-0.068315 0.260000 0.410000 -65.662962 -117.703253 -41.306929 500.000000
0.260000 0.260000 0.410000 -142.011340 -51.890503 -29.141147 500.000000
-0.260000 0.260000 0.290000 91.720957 -37.678427 162.540989 500.000000
0.260000 0.090000 0.336519 -27.473072 20.418236 -14.696140 500.000000
0.260000 0.143157 0.291025 -79.418770 -23.368590 -23.795007 500.000000
-0.038357 0.090000 0.303268 5.709471 10.858335 -21.346398 500.000000
-0.019453 0.260000 0.410000 -55.890676 -83.254850 -13.088926 500.000000
-0.260000 0.260000 0.290000 59.445149 -36.040488 22.834016 500.000000
-0.043700 0.260000 0.290000 -60.740006 -29.512726 19.336873 500.000000
0.260000 0.090000 0.410000 -70.607840 76.076562 -46.649394 500.000000
0.260000 0.260000 0.410000 -88.740402 -66.965317 -51.826180 500.000000
0.260000 0.260000 0.410000 -96.870766 -73.651524 -248.511323 500.000000
-0.260000 0.260000 0.290000 135.140468 -73.475125 104.466692 500.000000
0.206798 0.260000 0.290000 3.857900 -34.613309 16.357249 500.000000
-0.260000 0.090000 0.290000 145.004156 54.085824 566.355612 500.000000
0.260000 0.260000 0.410000 -91.109654 -73.186363 -96.606742 500.000000
0.191267 0.090000 0.410000 20.869079 224.377629 -18.369301 500.000000
0.260000 0.090000 0.410000 -61.130694 73.492037 -44.807487 500.000000
0.260000 0.090000 0.410000 -93.464854 78.111596 -32.865968 500.000000
0.260000 0.260000 0.410000 -20.395059 -57.630193 -25.059371 500.000000
-0.229602 0.260000 0.410000 -97.920354 -22.779514 -13.685402 500.000000
-0.260000 0.090000 0.410000 84.728504 23.825659 -367.024667 500.000000
0.260000 0.090000 0.290000 -68.854617 69.292419 144.210464 500.000000
0.260000 0.260000 0.410000 -93.128789 -73.540136 -56.354007 500.000000
0.260000 0.090000 0.410000 -122.767366 39.942195 -651.279870 500.000000
0.260000 0.090000 0.410000 -110.102564 75.158486 -32.868946 500.000000
-0.093249 0.090000 0.410000 -70.649759 98.789236 -531.951773 500.000000
-0.260000 0.260000 0.290000 572.639387 -41.076794 139.867147 500.000000
0.260000 0.090000 0.410000 -68.989454 59.240986 -41.132815 500.000000
0.260000 0.090000 0.410000 -172.102134 77.047929 -31.956538 500.000000
-0.166733 0.173224 0.379393 -3.174498 -17.355254 17.878534 500.000000
0.101234 0.260000 0.410000 -31.753135 -43.942732 -22.661048 500.000000
0.260000 0.090000 0.410000 -93.214556 85.440514 -34.362822 500.000000
-0.103120 0.260000 0.410000 -72.623988 -159.292217 -109.559985 500.000000
-0.260000 0.260000 0.290000 63.135830 -36.136444 22.827471 500.000000
0.260000 0.260000 0.290000 -63.333588 -65.252445 84.868699 500.000000
-0.260000 0.090000 0.410000 130.731236 49.868277 -49.147436 500.000000
-0.232528 0.090000 0.399997 -71.012091 20.497183 21.999376 500.000000
-0.260000 0.260000 0.290000 58.692249 -36.302241 20.920809 500.000000
0.260000 0.260000 0.290000 -69.512473 -71.147607 17.192381 500.000000
0.260000 0.090000 0.410000 -99.304474 78.467874 -33.237118 500.000000
-0.260000 0.090000 0.410000 90.499607 27.596550 -86.782883 500.000000
-0.260000 0.090000 0.290000 72.380781 47.939836 559.846525 500.000000
0.260000 0.260000 0.290000 -71.486920 -71.150057 38.390567 500.000000
0.260000 0.090000 0.410000 -191.104745 34.289238 -705.754274 500.000000
0.260000 0.260000 0.290000 -45.697724 -90.201141 41.639318 500.000000
-0.260000 0.090000 0.328476 123.742338 31.051783 -16.304847 500.000000
-0.082658 0.090000 0.410000 -68.531660 21.880039 -40.012334 500.000000
-0.260000 0.090000 0.410000 66.635315 42.590990 -292.515920 500.000000
0.178140 0.090000 0.290000 87.628094 46.267973 170.263149 500.000000
0.151848 0.090000 0.290000 82.369647 50.799277 176.558323 500.000000
-0.260000 0.090000 0.410000 327.472277 259.159229 -88.988272 500.000000
-0.260000 0.090000 0.290000 70.970047 55.570800 620.593270 500.000000
-0.260000 0.090000 0.410000 87.013959 53.035427 -17.801033 500.000000
0.151770 0.090000 0.290000 82.353951 46.237259 170.268834 500.000000
0.260000 0.090000 0.410000 -81.145298 82.166361 -32.876341 500.000000
-0.260000 0.260000 0.290000 86.656820 -42.285460 70.212678 500.000000
0.260000 0.260000 0.410000 -99.966539 -73.544343 -78.065081 500.000000
0.124032 0.090000 0.290000 76.806442 47.037681 170.228389 500.000000
0.260000 0.260000 0.410000 -113.633881 -229.503696 -94.326278 500.000000
-0.260000 0.148543 0.410000 149.635750 -22.291431 -71.543187 500.000000
0.260000 0.260000 0.290000 -70.400930 -82.864483 19.517205 500.000000
0.260000 0.260000 0.290000 -518.433332 -56.001440 17.083221 500.000000
0.260000 0.260000 0.290000 -64.102596 -71.765576 73.222766 500.000000
0.260000 0.260000 0.410000 -98.873015 -68.258521 -122.547442 500.000000
-0.260000 0.090000 0.410000 62.349033 30.259772 -51.906306 500.000000
-0.260000 0.090000 0.410000 68.500931 44.411832 -267.072930 500.000000
0.260000 0.090000 0.410000 -71.237173 71.166736 -98.673534 500.000000
0.165259 0.090000 0.290000 85.051712 46.237740 170.268825 500.000000
0.260000 0.090000 0.410000 -66.743200 71.119203 -50.390668 500.000000
-0.211788 0.260000 0.290000 -35.504774 -337.562125 16.030228 500.000000
-0.228114 0.090000 0.290000 -97.622775 41.306371 621.168118 500.000000
-0.088284 0.090000 0.410000 -69.656889 154.997316 -29.025407 500.000000
-0.260000 0.090000 0.410000 54.560357 17.832030 -58.476211 500.000000
-0.260000 0.260000 0.408018 41.845423 -25.036821 23.603503 500.000000
0.260000 0.260000 0.410000 -101.743826 -73.647399 -98.435568 500.000000
-0.260000 0.260000 0.290000 59.685884 -39.389786 22.991168 500.000000
0.260000 0.090000 0.410000 -93.323194 78.073751 -32.865990 500.000000
-0.006220 0.090000 0.410000 50.755954 70.488153 -17.994034 500.000000
0.260000 0.260000 0.410000 -99.982215 -68.298626 -97.814408 500.000000
-0.260000 0.260000 0.290000 91.982084 -32.140073 23.900590 500.000000
0.260000 0.090000 0.290000 -55.102690 48.904728 455.331228 500.000000
-0.260000 0.260000 0.410000 142.875160 -77.686462 -120.989346 500.000000
0.260000 0.260000 0.410000 -88.367011 -67.350983 -96.745356 500.000000
0.260000 0.090000 0.410000 -92.418865 196.352114 -64.499269 500.000000
0.260000 0.260000 0.290000 -74.823154 -73.011609 103.993460 500.000000
-0.260000 0.260000 0.410000 987.112736 -72.921554 -97.755202 500.000000
0.260000 0.090000 0.410000 -81.810959 70.518182 -66.017332 500.000000
-0.260000 0.102314 0.410000 62.714014 -31.537298 -62.660491 500.000000
-0.260000 0.090000 0.385055 48.514398 31.245840 19.010923 500.000000
-0.260000 0.260000 0.290000 60.707273 -36.779832 20.924606 500.000000
0.124604 0.090000 0.290000 76.920783 46.231874 170.272896 500.000000
-0.040511 0.245833 0.290000 -7.490658 31.166596 20.689824 500.000000
-0.023081 0.260000 0.290000 -56.616252 -163.578026 24.061364 500.000000
-0.260000 0.260000 0.290000 356.030837 -36.899848 107.406921 500.000000
-0.058796 0.090000 0.410000 -37.488370 77.154574 -66.548158 500.000000
-0.260000 0.260000 0.290000 62.378788 -36.038427 22.819124 500.000000
0.100537 0.090000 0.290000 72.107342 45.457792 170.884728 500.000000
-0.260000 0.090000 0.410000 69.279728 24.806793 -307.040596 500.000000
-0.260000 0.260000 0.290000 63.275251 -36.151049 22.828202 500.000000
0.260000 0.260000 0.290000 -63.080000 -72.373088 106.309932 500.000000
-0.260000 0.260000 0.290000 61.843843 -37.095652 22.764510 500.000000
0.260000 0.260000 0.290000 -523.075998 -93.807566 26.039729 500.000000
-0.248146 0.125190 0.398031 -15.670403 -1.543756 21.606145 500.000000
-0.260000 0.123543 0.410000 112.941976 -27.291427 -90.374071 500.000000
-0.260000 0.260000 0.290000 59.351057 -36.142255 60.350409 500.000000
0.162476 0.090000 0.290000 84.495104 46.091516 180.606303 500.000000
0.260000 0.090000 0.410000 -74.777734 67.639951 -36.457330 500.000000
-0.250774 0.090000 0.290000 -102.154824 19.525060 295.794462 500.000000
0.260000 0.260000 0.290000 -63.182500 -67.120946 104.042447 500.000000
0.260000 0.260000 0.410000 -98.161694 -73.665480 -226.696974 500.000000
-0.260000 0.090000 0.290000 65.594094 45.108506 80.176257 500.000000
0.260000 0.260000 0.290000 -69.723076 -65.321673 87.215192 500.000000
0.260000 0.260000 0.410000 -94.412588 -73.522973 -184.657641 500.000000
0.260000 0.260000 0.410000 -95.731005 -73.645512 -269.447869 500.000000
0.260000 0.260000 0.410000 -67.209761 -685.474726 -30.476210 500.000000
