ply
format ascii 1.0
element vertex 240
property float x
property float y
property float z
property float vx
property float vy
property float vz
property float density
end_header
-0.260000 0.260000 0.290000 113.052944 -58.098864 57.452398 500.000000
0.260000 0.260000 0.290000 -302.782498 -42.484452 21.806764 500.000000
-0.260000 0.260000 0.410000 213.175647 -44.943847 -43.787123 500.000000
0.187042 0.090000 0.410000 54.168032 32.126325 -30.570818 500.000000
0.260000 0.260000 0.410000 -772.067044 -43.617754 -43.634588 500.000000
0.260000 0.260000 0.290000 -77.101799 -67.298209 67.950333 500.000000
-0.260000 0.188441 0.290000 18.223697 19.688154 15.177289 500.000000
0.093676 0.260000 0.410000 70.735290 -31.986363 -43.669926 500.000000
0.260000 0.090000 0.410000 -88.663823 283.194646 -46.259414 500.000000
0.260000 0.090000 0.290000 -331.869788 45.392850 127.987710 500.000000
0.260000 0.090000 0.410000 -101.977440 54.423140 -85.495999 500.000000
0.260000 0.260000 0.290000 -102.149963 -36.996110 30.607803 500.000000
0.260000 0.090000 0.410000 -107.073488 64.939376 -36.573707 500.000000
0.260000 0.260000 0.290000 -118.847372 -247.196727 133.714412 500.000000
0.260000 0.090000 0.410000 -126.466290 72.594897 -85.378433 500.000000
-0.260000 0.260000 0.290000 112.941088 -57.922062 45.273106 500.000000
0.260000 0.090000 0.338332 -15.953922 10.335512 -14.333659 500.000000
0.260000 0.090000 0.410000 -102.847367 52.543276 -55.731131 500.000000
0.260000 0.260000 0.290000 -167.930177 -34.512427 19.795664 500.000000
-0.104452 0.090000 0.410000 17.378035 28.222170 -15.579385 500.000000
-0.260000 0.090000 0.410000 50.122947 36.700299 -18.971476 500.000000
-0.260000 0.090000 0.290000 62.756679 31.461015 16.411218 500.000000
-0.260000 0.260000 0.410000 267.488576 -37.581257 -259.388370 500.000000
-0.260000 0.260000 0.410000 219.474877 -42.193002 -47.022284 500.000000
0.260000 0.090000 0.290000 -107.914796 28.902904 44.346054 500.000000
0.260000 0.260000 0.290000 -98.365033 -34.762103 12.650478 500.000000
0.260000 0.248876 0.410000 -35.182464 31.775108 -22.262548 500.000000
0.260000 0.090000 0.410000 -121.754286 63.967842 -37.661017 500.000000
0.260000 0.260000 0.323874 -98.497352 -53.420260 -17.225218 500.000000
-0.260000 0.090000 0.290000 99.535269 30.090475 15.703846 500.000000
0.260000 0.260000 0.290000 -142.544883 -37.395560 23.272190 500.000000
-0.260000 0.260000 0.330106 872.298180 -31.408596 -15.978822 500.000000
0.260000 0.260000 0.290000 -94.646510 -71.199235 49.862228 500.000000
0.260000 0.090000 0.290000 -130.426699 25.328631 158.992673 500.000000
0.260000 0.090000 0.290000 -86.257872 20.306964 24.977706 500.000000
-0.065083 0.109004 0.410000 38.983380 -30.199196 -191.732518 500.000000
-0.260000 0.260000 0.290000 174.760578 -88.347125 32.524110 500.000000
0.260000 0.260000 0.290000 -33.161969 -19.148718 51.369327 500.000000
0.260000 0.090000 0.410000 -115.049932 73.545607 -83.285994 500.000000
-0.260000 0.260000 0.290000 114.584012 -53.925593 40.248573 500.000000
0.260000 0.090000 0.410000 -118.719629 59.124446 -37.264887 500.000000
0.260000 0.260000 0.290000 -99.154970 -87.903721 27.831209 500.000000
0.260000 0.090000 0.290000 -102.261260 67.566904 42.766241 500.000000
-0.260000 0.260000 0.290000 113.357546 -53.415249 37.701965 500.000000
0.260000 0.090000 0.290000 -77.375582 60.468044 315.728201 500.000000
-0.260000 0.260000 0.290000 53.542095 -120.390855 111.127697 500.000000
0.260000 0.090000 0.410000 -72.913051 40.878064 -17.734084 500.000000
-0.260000 0.260000 0.410000 62.787716 -131.233680 -53.851435 500.000000
0.260000 0.260000 0.290000 -141.395226 -33.870320 179.215052 500.000000
0.260000 0.260000 0.290000 -98.180505 -36.318987 12.986040 500.000000
0.069140 0.257945 0.410000 -38.172011 15.685415 -147.540280 500.000000
0.260000 0.260000 0.410000 -60.382756 -26.924500 -19.268885 500.000000
-0.260000 0.260000 0.410000 213.455280 -47.156591 -43.912714 500.000000
0.260000 0.260000 0.290000 -276.346014 -46.605535 48.638521 500.000000
-0.062266 0.260000 0.410000 -11.119971 -10.255333 -6.127033 500.000000
0.260000 0.239356 0.410000 -255.465132 29.871175 -49.261834 500.000000
0.260000 0.090000 0.410000 -119.681231 100.733265 -35.983631 500.000000
0.260000 0.090000 0.290000 -288.306558 40.263306 70.802039 500.000000
-0.260000 0.260000 0.410000 213.479147 -43.791471 -43.711989 500.000000
-0.260000 0.260000 0.410000 206.938072 -81.662795 -63.047536 500.000000
0.260000 0.202108 0.410000 -192.350036 22.421678 -130.488191 500.000000
0.193588 0.149915 0.290000 52.733067 -22.016970 28.919067 500.000000
0.260000 0.090000 0.290000 -102.191441 34.404317 47.462152 500.000000
-0.260000 0.260000 0.410000 241.784828 -46.185565 -37.684083 500.000000
-0.260000 0.260000 0.290000 112.547225 -57.927869 61.260599 500.000000
0.099209 0.260000 0.410000 71.841700 -37.669812 -45.884053 500.000000
-0.260000 0.090000 0.410000 18.854842 47.562415 -15.833814 500.000000
0.260000 0.260000 0.410000 -102.726421 -1083.599703 -39.781766 500.000000
-0.260000 0.158781 0.410000 302.764384 -20.243701 -16.449162 500.000000
-0.260000 0.090000 0.290000 320.659799 28.279986 18.503374 500.000000
0.192315 0.179169 0.360728 -0.094816 5.030499 14.145600 500.000000
-0.149092 0.260000 0.290000 -34.497087 -35.483494 157.019209 500.000000
0.206614 0.090000 0.410000 -10.677227 19.910031 -8.863269 500.000000
-0.260000 0.090000 0.290000 1041.470692 29.075051 44.358783 500.000000
-0.236840 0.260000 0.290000 -99.368067 -80.167526 27.334142 500.000000
0.260000 0.260000 0.290000 -82.854037 -46.345287 75.162687 500.000000
-0.260000 0.090000 0.410000 70.119644 40.335450 -64.848563 500.000000
0.260000 0.090000 0.410000 -123.778345 73.889458 -82.620948 500.000000
0.260000 0.090000 0.290000 -103.043877 28.903929 44.347931 500.000000
0.049184 0.260000 0.410000 61.836800 -39.005823 -45.816919 500.000000
-0.260000 0.090000 0.410000 811.919177 25.547145 -34.347787 500.000000
0.260000 0.260000 0.290000 -245.092152 -47.840298 25.278818 500.000000
-0.018001 0.260000 0.410000 48.399742 -27.570461 -53.403957 500.000000
-0.260000 0.260000 0.410000 213.537913 -43.822382 -43.681632 500.000000
0.260000 0.090000 0.410000 -85.758542 91.284936 -39.742657 500.000000
-0.126040 0.260000 0.410000 26.791942 -64.930028 -31.581690 500.000000
0.085353 0.260000 0.410000 20.196700 -28.827500 -25.181873 500.000000
-0.260000 0.090000 0.290000 62.469580 33.155112 17.586441 500.000000
0.260000 0.260000 0.290000 -318.945473 -47.076118 46.255661 500.000000
0.260000 0.090000 0.410000 -98.810560 74.251953 -87.373056 500.000000
0.260000 0.090000 0.410000 -155.675812 79.718801 -83.105147 500.000000
-0.260000 0.260000 0.410000 239.518656 -47.563360 -38.494188 500.000000
0.260000 0.245960 0.410000 -49.955321 31.191945 -35.249394 500.000000
-0.146124 0.260000 0.410000 -81.224703 -70.767386 -83.929315 500.000000
0.260000 0.090000 0.290000 -100.959134 34.573007 46.003429 500.000000
0.260000 0.260000 0.290000 -274.732806 -26.870882 12.212205 500.000000
0.260000 0.090000 0.290000 -177.496356 29.017636 46.058152 500.000000
0.260000 0.260000 0.410000 -39.141763 -18.313786 -59.949209 500.000000
0.148863 0.260000 0.410000 81.772513 -30.966745 -50.546867 500.000000
0.260000 0.090000 0.410000 -107.065384 70.149237 -82.753335 500.000000
-0.260000 0.260000 0.305871 13.174663 -30.997348 -20.825825 500.000000
0.260000 0.090000 0.290000 -101.408762 31.511884 59.027387 500.000000
-0.260000 0.158749 0.410000 232.755668 -20.250104 -13.181715 500.000000
-0.260000 0.260000 0.410000 213.332799 -45.956167 -45.603202 500.000000
-0.260000 0.090000 0.290000 54.722945 66.320313 16.516648 500.000000
0.260000 0.090000 0.410000 -113.446607 59.065285 -37.628235 500.000000
0.024158 0.090000 0.410000 -21.724331 9.250814 -87.005246 500.000000
0.053143 0.260000 0.410000 62.628689 -36.880607 -45.878203 500.000000
0.260000 0.090000 0.410000 -100.007843 74.239704 -84.638566 500.000000
-0.260000 0.260000 0.410000 206.139163 -52.779515 -29.882959 500.000000
0.260000 0.260000 0.295440 -96.117128 -39.923710 -22.911956 500.000000
-0.068824 0.090000 0.361161 -65.764794 554.485699 14.232287 500.000000
-0.137041 0.090000 0.327131 24.591802 508.374040 -16.573855 500.000000
-0.212921 0.090000 0.386411 -94.584238 26.371687 19.282138 500.000000
-0.260000 0.260000 0.410000 113.371806 -274.197064 -165.958523 500.000000
-0.260000 0.090000 0.410000 69.982037 25.533255 -63.429548 500.000000
-0.260000 0.160400 0.410000 112.838006 -19.920082 -66.344514 500.000000
-0.141417 0.260000 0.388650 -49.559996 -30.406626 19.730090 500.000000
0.030510 0.125738 0.410000 -0.895305 -26.852438 -13.557253 500.000000
-0.036650 0.260000 0.318885 -59.329950 -44.967372 -18.223091 500.000000
0.040248 0.260000 0.410000 60.049636 -34.957875 -43.715756 500.000000
0.093790 0.260000 0.410000 70.758091 -37.550400 -45.878548 500.000000
0.260000 0.260000 0.290000 -109.462758 -31.305282 83.846126 500.000000
-0.260000 0.260000 0.410000 213.568728 -43.850587 -44.774234 500.000000
0.260000 0.090000 0.290000 -101.171006 33.904056 46.023821 500.000000
-0.260000 0.090000 0.410000 101.017177 20.519224 -15.605347 500.000000
-0.260000 0.090000 0.290000 119.937729 557.572683 181.147307 500.000000
-0.260000 0.090000 0.410000 190.351669 28.245175 -76.630571 500.000000
0.185903 0.090000 0.290000 33.232964 32.931156 60.550724 500.000000
0.260000 0.090000 0.290000 -103.548959 59.095994 39.913252 500.000000
0.039620 0.196211 0.290000 -44.076053 21.242196 23.268444 500.000000
-0.260000 0.090000 0.410000 32.339516 24.559671 -15.567689 500.000000
-0.260000 0.260000 0.306108 125.391891 -104.305832 -20.778347 500.000000
0.260000 0.090000 0.290000 -100.333899 29.001411 45.339586 500.000000
0.260000 0.090000 0.410000 -226.216344 132.017321 -16.798197 500.000000
-0.244408 0.090000 0.410000 -100.881531 131.129176 -16.754342 500.000000
-0.229796 0.090000 0.410000 -97.959235 20.784870 -65.647383 500.000000
-0.260000 0.260000 0.303340 85.087779 -111.958973 -21.332076 500.000000
0.052806 0.217013 0.290000 62.561138 25.402523 320.498896 500.000000
0.069664 0.260000 0.290000 -38.067227 -50.617561 22.054764 500.000000
-0.260000 0.090000 0.410000 198.359867 29.922227 -15.754980 500.000000
-0.260000 0.090000 0.410000 69.152460 25.461906 -64.818179 500.000000
0.260000 0.090000 0.410000 -130.177556 57.662427 -15.950575 500.000000
-0.260000 0.260000 0.290000 108.708915 -119.023827 45.227352 500.000000
-0.260000 0.090000 0.290000 56.293593 42.034750 15.351457 500.000000
-0.260000 0.260000 0.290000 114.249426 -51.980595 38.536775 500.000000
0.260000 0.260000 0.290000 -102.483829 -121.788093 52.738529 500.000000
-0.260000 0.090000 0.290000 139.093627 35.912900 86.879566 500.000000
0.245690 0.191584 0.335630 19.985524 20.316893 9.125970 500.000000
0.260000 0.260000 0.310798 -96.704086 -35.327804 -19.840357 500.000000
-0.260000 0.090000 0.410000 21.220007 15.562672 -32.751888 500.000000
0.058158 0.260000 0.290000 -40.368436 -49.725207 40.569965 500.000000
0.017536 0.260000 0.410000 55.507181 -101.691260 -47.389121 500.000000
-0.260000 0.090000 0.410000 113.018583 20.365119 -15.915002 500.000000
0.260000 0.260000 0.410000 -837.017452 -43.408463 -43.581392 500.000000
-0.260000 0.090000 0.290000 53.647009 31.326659 16.665526 500.000000
-0.260000 0.260000 0.410000 370.320623 -52.950367 -22.992108 500.000000
0.260000 0.090000 0.290000 -87.628398 66.650676 52.467055 500.000000
0.260000 0.090000 0.290000 -103.630916 34.180649 46.914329 500.000000
-0.260000 0.090000 0.290000 986.182593 23.242506 40.162789 500.000000
0.260000 0.260000 0.410000 -721.728149 -43.801161 -43.677299 500.000000
0.260000 0.176676 0.410000 -76.603575 17.335139 -12.196239 500.000000
-0.260000 0.260000 0.410000 230.277467 -45.980009 -45.125743 500.000000
0.260000 0.260000 0.410000 -57.342196 -38.469043 -26.761963 500.000000
0.260000 0.090000 0.290000 -100.904032 30.086653 45.707456 500.000000
0.260000 0.090000 0.410000 -84.039348 77.011718 -83.972691 500.000000
-0.257231 0.184270 0.410000 -48.371693 18.854090 -19.720318 500.000000
-0.260000 0.260000 0.410000 213.351628 -43.803267 -43.790687 500.000000
-0.173444 0.105936 0.410000 -86.688852 -30.812727 -15.404024 500.000000
0.260000 0.260000 0.290000 -161.998050 -20.452629 195.956986 500.000000
-0.260000 0.260000 0.290000 1032.970879 -38.913129 20.684486 500.000000
-0.260000 0.090000 0.290000 75.148452 65.529019 20.017971 500.000000
0.260000 0.090000 0.410000 -117.949127 87.582136 -27.792776 500.000000
0.260000 0.260000 0.290000 -104.616102 -41.247195 21.543118 500.000000
0.260000 0.260000 0.410000 -58.587824 -28.952900 -42.564720 500.000000
-0.146603 0.090000 0.300369 -81.320627 37.481887 -21.926240 500.000000
-0.260000 0.260000 0.410000 213.418936 -39.450634 -40.964074 500.000000
-0.260000 0.131219 0.410000 284.123910 -25.756255 -15.773436 500.000000
0.260000 0.090000 0.290000 -83.210354 36.891926 139.755006 500.000000
0.067073 0.169725 0.373923 22.067027 -18.055073 16.784568 500.000000
0.260000 0.090000 0.410000 -98.860603 78.045915 -82.621462 500.000000
0.070243 0.260000 0.410000 66.048700 -29.096221 -43.418486 500.000000
-0.260000 0.096975 0.410000 293.001754 -32.605006 -22.562065 500.000000
0.131739 0.260000 0.290000 78.347714 -111.329638 240.630174 500.000000
0.260000 0.090000 0.410000 -114.897574 77.253993 -83.301439 500.000000
0.260000 0.260000 0.290000 -107.649284 -37.627096 15.241438 500.000000
-0.260000 0.090000 0.410000 132.122095 36.169055 -64.162715 500.000000
0.260000 0.260000 0.410000 -204.223861 -18.858672 -32.712463 500.000000
0.260000 0.090000 0.290000 -89.093967 67.956291 49.880306 500.000000
-0.260000 0.090000 0.290000 59.881492 29.342440 16.257609 500.000000
-0.047109 0.260000 0.290000 -61.421881 -32.853340 15.306642 500.000000
-0.260000 0.154728 0.410000 317.474412 -21.054340 -23.244115 500.000000
0.260000 0.090000 0.410000 -50.802576 54.042796 -16.019708 500.000000
0.260000 0.260000 0.290000 -93.521106 -31.579958 89.909988 500.000000
-0.260000 0.260000 0.290000 125.054108 -121.462856 39.827205 500.000000
-0.260000 0.090000 0.290000 53.376629 27.736228 16.029275 500.000000
0.260000 0.090000 0.290000 -101.239440 34.017841 43.905003 500.000000
0.260000 0.260000 0.410000 -906.360947 -43.192655 -43.690819 500.000000
-0.183215 0.090000 0.290000 -88.642985 52.612833 163.274764 500.000000
-0.260000 0.090000 0.410000 264.366088 18.537042 -15.569265 500.000000
-0.003155 0.260000 0.317370 -52.630917 -39.569883 -18.525983 500.000000
0.260000 0.090000 0.290000 -23.133090 31.500047 97.029202 500.000000
0.260000 0.090000 0.410000 -122.535999 63.360722 -476.183275 500.000000
0.260000 0.090000 0.410000 -188.039783 101.778892 -69.055134 500.000000
-0.260000 0.260000 0.290000 140.809727 -66.758650 36.796935 500.000000
0.260000 0.090000 0.290000 -129.225287 41.459324 51.030215 500.000000
-0.170304 0.090000 0.290000 -86.060798 55.199083 184.107740 500.000000
0.260000 0.090000 0.290000 -101.986489 30.214930 46.059270 500.000000
-0.260000 0.090000 0.410000 124.561531 46.678351 -21.392118 500.000000
0.260000 0.135409 0.298299 -24.837438 -24.918101 -22.340110 500.000000
0.260000 0.090000 0.410000 -104.721708 74.291598 -36.464258 500.000000
-0.192589 0.090000 0.290000 -90.517744 187.895260 14.364199 500.000000
-0.260000 0.260000 0.410000 213.814327 -43.857676 -43.777047 500.000000
0.013613 0.260000 0.410000 -30.861260 -39.220798 -63.704827 500.000000
0.260000 0.260000 0.290000 -227.540503 -47.494617 43.137322 500.000000
0.022948 0.090000 0.290000 -47.410374 39.984035 82.511760 500.000000
-0.260000 0.090000 0.410000 89.186806 22.774035 -15.564928 500.000000
0.260000 0.260000 0.290000 -341.075577 -47.239207 29.979091 500.000000
0.260000 0.090000 0.290000 -106.938548 32.626919 47.372224 500.000000
0.260000 0.260000 0.410000 -241.697192 -26.305880 -33.598034 500.000000
0.260000 0.090000 0.290000 -173.239637 67.474806 45.969070 500.000000
0.260000 0.260000 0.410000 -107.273477 -21.722658 -33.089283 500.000000
-0.260000 0.260000 0.410000 213.232935 -43.856012 -43.608471 500.000000
-0.260000 0.260000 0.410000 224.520659 -62.851145 -24.951458 500.000000
0.260000 0.090000 0.290000 -100.315439 28.906210 44.349543 500.000000
0.260000 0.135902 0.398140 -44.617790 -24.819615 21.628048 500.000000
-0.260000 0.090000 0.410000 184.625540 27.059847 -67.017665 500.000000
0.260000 0.090000 0.290000 -103.432017 34.565851 51.033424 500.000000
-0.260000 0.260000 0.290000 112.571453 -57.913218 54.803459 500.000000
0.037200 0.260000 0.290000 -44.560025 -38.923296 67.304354 500.000000
-0.260000 0.090000 0.410000 178.518704 18.496385 -15.538298 500.000000
0.260000 0.090000 0.290000 -100.892687 33.913297 45.988247 500.000000
-0.260000 0.260000 0.290000 74.475966 -39.642830 27.090613 500.000000
0.260000 0.090000 0.410000 -105.713632 67.653693 -36.573611 500.000000
0.260000 0.260000 0.290000 -194.755633 -31.265988 17.104287 500.000000
0.260000 0.090000 0.410000 -90.292714 79.528755 -85.367453 500.000000
-0.107452 0.260000 0.290000 -73.490489 -39.349556 12.739744 500.000000
0.260000 0.260000 0.410000 -97.594457 -175.074772 -16.323723 500.000000
0.260000 0.260000 0.290000 -127.168480 -32.139790 26.673143 500.000000
-0.260000 0.260000 0.290000 33.871439 -52.466891 20.812780 500.000000
