ply
format ascii 1.0
element vertex 240
property float x
property float y
property float z
property float vx
property float vy
property float vz
property float density
end_header
-0.260000 0.260000 0.410000 65.691482 -57.754646 -48.561899 500.000000
0.113631 0.260000 0.290000 -8.976793 -63.492579 12.792445 500.000000
-0.260000 0.260000 0.410000 100.620413 -57.724090 -346.971934 500.000000
0.260000 0.090000 0.410000 -114.782433 45.080121 -57.704593 500.000000
-0.260000 0.260000 0.410000 80.499861 -19.091470 -12.158495 500.000000
0.260000 0.260000 0.290000 -284.141190 -485.172500 145.424999 500.000000
-0.113480 0.260000 0.290000 -5.609591 -15.046865 42.858473 500.000000
-0.260000 0.260000 0.290000 85.234340 -63.745098 35.462955 500.000000
-0.260000 0.260000 0.290000 135.272648 -49.120374 17.039286 500.000000
-0.260000 0.090000 0.290000 124.230365 63.296504 184.699047 500.000000
0.260000 0.090000 0.290000 -367.098438 338.765277 20.977204 500.000000
-0.260000 0.090000 0.410000 678.762785 40.929101 -27.273499 500.000000
0.260000 0.090000 0.410000 -296.775096 209.163102 -363.378731 500.000000
-0.260000 0.260000 0.410000 88.504230 -53.075174 -23.631558 500.000000
-0.260000 0.090000 0.410000 114.144498 32.202757 -329.999170 500.000000
-0.004052 0.090000 0.410000 -52.810302 79.176045 -76.237561 500.000000
-0.260000 0.090000 0.410000 268.720285 346.161846 -396.739627 500.000000
-0.260000 0.260000 0.410000 209.524667 -22.445546 -21.383088 500.000000
0.260000 0.090000 0.410000 -119.308019 40.320677 -26.902562 500.000000
0.260000 0.090000 0.410000 -106.514247 34.830983 -19.084525 500.000000
0.073342 0.164929 0.410000 -37.331555 -19.014242 -77.275077 500.000000
0.260000 0.203111 0.410000 -133.604890 22.622183 -26.665186 500.000000
-0.260000 0.260000 0.290000 83.455235 -58.222311 230.424949 500.000000
0.260000 0.260000 0.290000 -58.475449 -26.474883 14.076038 500.000000
0.260000 0.090000 0.290000 -418.366611 29.030296 230.175180 500.000000
-0.042685 0.090000 0.410000 -34.544240 25.125669 -20.112642 500.000000
-0.260000 0.260000 0.410000 79.626284 -63.350915 -56.120985 500.000000
0.045428 0.090000 0.290000 26.643406 183.700865 10.844923 500.000000
-0.260000 0.260000 0.290000 118.417411 -65.154397 229.860726 500.000000
0.260000 0.260000 0.410000 -49.168989 -127.961336 -43.735839 500.000000
0.260000 0.260000 0.410000 -135.717546 -57.017128 -20.461479 500.000000
-0.260000 0.260000 0.290000 91.510796 -48.323011 153.106850 500.000000
-0.260000 0.090000 0.392186 425.043345 34.233520 20.437286 500.000000
0.260000 0.090000 0.410000 -185.292629 76.620540 -16.255015 500.000000
0.260000 0.090000 0.410000 -100.986521 199.322954 -9.369559 500.000000
-0.260000 0.260000 0.290000 412.468647 -58.944459 137.529511 500.000000
0.260000 0.090000 0.404342 -144.527712 47.986734 22.868445 500.000000
0.084432 0.260000 0.372266 -19.277397 -14.640108 16.453104 500.000000
0.260000 0.260000 0.410000 -123.958523 -18.207842 -87.082820 500.000000
-0.260000 0.260000 0.290000 98.523370 -63.946132 245.566786 500.000000
0.260000 0.090000 0.410000 -67.075335 307.864536 -232.324814 500.000000
0.035306 0.090000 0.410000 -23.184485 27.356086 -12.829855 500.000000
0.260000 0.090000 0.290000 -343.897756 185.630998 192.761795 500.000000
-0.260000 0.260000 0.290000 342.361855 -318.134427 238.103243 500.000000
0.248698 0.260000 0.410000 6.780545 -57.476319 -30.710990 500.000000
0.260000 0.230447 0.410000 -129.851659 28.089333 -28.283652 500.000000
0.260000 0.260000 0.290000 -448.412659 -59.912044 210.230391 500.000000
-0.260000 0.148140 0.290000 35.075287 -22.372041 34.932747 500.000000
0.260000 0.248468 0.410000 -71.656840 31.693668 -34.715982 500.000000
-0.260000 0.104881 0.410000 117.393252 -31.023762 -86.739837 500.000000
0.189170 0.260000 0.290000 46.972274 -59.436110 26.328708 500.000000
-0.260000 0.211919 0.410000 440.090043 24.383815 -30.653210 500.000000
0.260000 0.260000 0.290000 -138.078761 -67.643565 127.363873 500.000000
0.260000 0.260000 0.410000 -257.340649 -105.409661 -99.719975 500.000000
-0.238891 0.090000 0.290000 -99.778141 277.676226 216.305163 500.000000
-0.125638 0.260000 0.410000 -6.689059 -474.507435 -41.216326 500.000000
0.260000 0.260000 0.410000 -112.745266 -331.589234 -383.933503 500.000000
-0.260000 0.090000 0.290000 124.060138 60.305425 186.513173 500.000000
0.260000 0.260000 0.410000 -108.177457 -19.765092 -38.034474 500.000000
-0.260000 0.260000 0.410000 110.482605 -50.005587 -673.922450 500.000000
-0.260000 0.260000 0.290000 230.689449 -209.925907 595.439032 500.000000
0.260000 0.168863 0.290000 -54.987974 15.772668 138.245143 500.000000
0.178685 0.090000 0.290000 20.995267 102.173705 59.519635 500.000000
-0.260000 0.090000 0.290000 25.678097 52.466300 20.627197 500.000000
0.260000 0.260000 0.290000 -485.740726 -296.194986 139.793472 500.000000
0.260000 0.090000 0.410000 -128.236248 46.309184 -41.416250 500.000000
0.240744 0.260000 0.290000 14.221056 -25.317857 55.365343 500.000000
-0.260000 0.090000 0.290000 132.633626 56.356694 184.069107 500.000000
-0.260000 0.090000 0.410000 122.782014 51.663538 -167.326113 500.000000
-0.260000 0.260000 0.410000 162.940791 -17.402126 -31.051528 500.000000
-0.260000 0.176765 0.410000 48.202780 -16.646942 -38.550987 500.000000
0.260000 0.090000 0.410000 -103.883482 48.867093 -15.716824 500.000000
-0.260000 0.090000 0.290000 124.925973 161.818196 186.785954 500.000000
-0.260000 0.260000 0.410000 125.757780 -168.332844 -48.659690 500.000000
0.260000 0.260000 0.410000 -244.151869 -62.437972 -274.282859 500.000000
0.260000 0.090000 0.410000 -83.932950 43.427784 -21.226666 500.000000
0.260000 0.090000 0.410000 -237.541075 429.698754 -60.314996 500.000000
-0.260000 0.260000 0.290000 59.402237 -43.725881 520.957772 500.000000
0.260000 0.090000 0.410000 -205.432527 438.368312 -209.487044 500.000000
-0.260000 0.260000 0.410000 99.493075 -61.581497 -179.057593 500.000000
-0.260000 0.090000 0.410000 137.929259 366.483687 -66.161482 500.000000
-0.260000 0.188920 0.290000 135.100945 19.783938 32.252337 500.000000
0.030923 0.150317 0.366382 24.917636 -21.936553 5.640317 500.000000
0.260000 0.260000 0.290000 -78.896892 -58.683235 17.840916 500.000000
-0.260000 0.090000 0.290000 312.885044 33.528394 236.221489 500.000000
-0.260000 0.260000 0.290000 137.734731 -451.464291 263.982044 500.000000
0.260000 0.090000 0.410000 -99.234790 50.328456 -58.913897 500.000000
0.260000 0.090000 0.396994 -229.453421 50.738635 21.398739 500.000000
-0.260000 0.260000 0.410000 103.868728 -102.004683 -345.843445 500.000000
0.260000 0.260000 0.290000 -485.296660 -21.060219 130.542591 500.000000
-0.260000 0.260000 0.290000 233.802472 -31.468686 433.699109 500.000000
-0.176957 0.090000 0.290000 -87.391463 71.632413 35.909178 500.000000
0.260000 0.191643 0.410000 -148.842692 20.328610 -29.115800 500.000000
-0.115760 0.090000 0.410000 -75.151947 204.353634 -124.395819 500.000000
0.085164 0.090000 0.290000 -34.967293 62.772399 19.725967 500.000000
0.106425 0.194118 0.410000 40.021626 20.823656 -31.793825 500.000000
0.260000 0.090000 0.290000 -303.598650 29.676094 223.013857 500.000000
0.260000 0.090000 0.389756 -133.501217 34.098878 19.951235 500.000000
0.260000 0.208231 0.410000 -115.967930 23.646120 -36.217235 500.000000
0.260000 0.090000 0.410000 -284.834318 56.536148 -65.906233 500.000000
-0.260000 0.127707 0.410000 91.273724 -26.458573 -85.845637 500.000000
0.260000 0.260000 0.290000 -122.317662 -46.804697 128.064108 500.000000
0.260000 0.260000 0.410000 -229.574593 -24.547046 -29.305704 500.000000
-0.260000 0.260000 0.410000 98.126179 -55.231909 -431.088877 500.000000
0.089397 0.090000 0.410000 -34.120598 95.827042 -20.618006 500.000000
0.260000 0.090000 0.410000 -178.643442 307.123866 -145.017280 500.000000
-0.136663 0.260000 0.290000 -79.332517 -35.014229 38.557296 500.000000
-0.260000 0.090000 0.410000 527.568965 35.734057 -27.487490 500.000000
0.260000 0.260000 0.290000 -427.909483 -25.764705 43.670289 500.000000
-0.260000 0.260000 0.410000 106.436123 -51.318003 -661.994091 500.000000
-0.260000 0.260000 0.290000 158.261413 -63.399478 230.367444 500.000000
-0.260000 0.090000 0.410000 251.555315 66.927288 -173.094106 500.000000
0.159109 0.090000 0.391248 15.243450 14.488586 20.249528 500.000000
0.260000 0.090000 0.410000 -34.745844 24.533458 -44.754492 500.000000
0.031508 0.090000 0.410000 -45.698411 26.571017 -114.170128 500.000000
-0.260000 0.090000 0.410000 34.056561 37.472370 -135.046836 500.000000
0.260000 0.090000 0.410000 -139.600073 44.443932 -52.772044 500.000000
-0.260000 0.260000 0.290000 162.164851 -287.569190 30.338984 500.000000
0.260000 0.090000 0.410000 -48.988997 19.921796 -65.835413 500.000000
-0.260000 0.260000 0.290000 100.621459 -63.625360 229.468828 500.000000
-0.260000 0.260000 0.290000 99.972607 -69.629147 59.642435 500.000000
0.260000 0.260000 0.290000 -108.433722 -51.386212 127.673540 500.000000
0.260000 0.189618 0.410000 -113.542054 19.923592 -27.242249 500.000000
-0.260000 0.260000 0.290000 101.607167 -73.636482 229.267822 500.000000
0.255665 0.090000 0.337215 14.974314 15.672264 -14.556943 500.000000
-0.260000 0.192152 0.410000 237.768718 20.430308 -28.628650 500.000000
-0.033599 0.260000 0.410000 -58.719806 -17.326576 -55.616420 500.000000
-0.260000 0.090000 0.410000 221.067333 186.019571 -116.475575 500.000000
-0.014333 0.166411 0.361438 4.716712 15.282270 -9.712350 500.000000
0.260000 0.090000 0.290000 -140.696398 207.841460 193.017784 500.000000
-0.198396 0.260000 0.303411 -91.679244 -17.485178 -21.317879 500.000000
0.260000 0.090000 0.290000 -25.333676 60.916484 63.765473 500.000000
-0.260000 0.090000 0.290000 125.296794 61.172187 184.172718 500.000000
-0.260000 0.090000 0.290000 127.376290 58.367486 169.233278 500.000000
0.260000 0.090000 0.410000 -115.271548 44.049888 -28.484503 500.000000
-0.260000 0.260000 0.290000 324.315429 -35.294011 104.475702 500.000000
-0.260000 0.090000 0.410000 310.159383 252.664375 -247.897631 500.000000
-0.260000 0.260000 0.410000 28.929496 -22.334638 -28.603025 500.000000
-0.260000 0.260000 0.410000 121.054907 -44.502717 -479.228373 500.000000
0.260000 0.140697 0.410000 -59.541895 -23.860561 -41.395307 500.000000
-0.260000 0.191769 0.410000 301.462500 20.353895 -29.278484 500.000000
0.260000 0.090000 0.290000 -70.599022 39.700677 224.287606 500.000000
0.260000 0.090000 0.410000 -32.510827 25.978525 -70.040732 500.000000
0.260000 0.090000 0.404184 -221.730385 48.001660 22.836802 500.000000
-0.259841 0.090000 0.410000 -103.968213 151.645511 -272.060778 500.000000
0.260000 0.260000 0.290000 -55.263705 -60.191370 144.217646 500.000000
-0.260000 0.103563 0.410000 111.543716 -31.287379 -90.429164 500.000000
-0.260000 0.090000 0.290000 140.138028 49.998330 169.646963 500.000000
0.260000 0.117180 0.410000 -65.626177 -28.563913 -46.137545 500.000000
0.260000 0.090000 0.410000 -275.483351 248.460518 -451.477826 500.000000
-0.260000 0.090000 0.290000 198.644520 65.804036 169.731587 500.000000
-0.260000 0.113980 0.290000 65.766806 -29.203975 51.821035 500.000000
-0.260000 0.260000 0.340285 64.915615 -44.463993 -13.942919 500.000000
0.260000 0.090000 0.290000 -85.073739 111.800064 192.223167 500.000000
-0.260000 0.260000 0.410000 269.533616 -55.823751 -575.026022 500.000000
-0.260000 0.260000 0.290000 138.102609 -63.783272 230.288693 500.000000
0.260000 0.090000 0.410000 -114.978487 40.704255 -29.184765 500.000000
0.260000 0.191082 0.410000 -116.217916 20.216440 -29.090535 500.000000
0.260000 0.094342 0.290000 -336.920224 -33.131513 224.353491 500.000000
-0.204712 0.090000 0.410000 -92.942400 24.618220 -80.538731 500.000000
0.260000 0.260000 0.410000 -73.517158 -470.333606 -22.945958 500.000000
-0.260000 0.090000 0.410000 63.442913 20.315304 -130.950374 500.000000
-0.201697 0.260000 0.290000 -92.339322 -41.225729 230.238705 500.000000
-0.242624 0.260000 0.410000 -100.524708 -72.403295 -62.730398 500.000000
0.089829 0.260000 0.290000 -3.211435 -11.128975 19.940617 500.000000
-0.015368 0.090000 0.290000 -11.072623 28.468891 35.922776 500.000000
-0.260000 0.090000 0.410000 81.691022 253.051346 -47.240089 500.000000
0.260000 0.260000 0.410000 -350.081702 -52.863820 -360.112816 500.000000
0.260000 0.260000 0.410000 -357.001020 -21.131199 -285.576895 500.000000
-0.260000 0.260000 0.290000 84.874412 -94.788497 19.812533 500.000000
0.260000 0.090000 0.290000 -31.326481 22.265412 36.114911 500.000000
0.011793 0.260000 0.290000 -49.641342 -205.801651 150.547511 500.000000
0.260000 0.260000 0.410000 -104.169500 -245.645083 -469.775634 500.000000
-0.260000 0.260000 0.410000 55.366353 -40.508676 -29.727759 500.000000
0.260000 0.260000 0.410000 -30.069242 -52.410470 -105.953037 500.000000
-0.166801 0.090000 0.290000 2.707171 22.973378 46.304117 500.000000
-0.260000 0.260000 0.410000 277.696234 -183.727181 -18.705729 500.000000
0.260000 0.090000 0.410000 -172.396970 37.968498 -25.086291 500.000000
-0.260000 0.105311 0.290000 67.940126 -30.937771 138.519409 500.000000
0.260000 0.260000 0.290000 -68.847956 -26.122385 143.673662 500.000000
0.260000 0.260000 0.410000 -451.250810 -139.302263 -218.166576 500.000000
0.033784 0.090000 0.410000 -45.243111 26.536888 -128.576707 500.000000
-0.224192 0.090000 0.410000 -23.135794 27.166453 -53.254466 500.000000
-0.165615 0.090000 0.290000 -85.123033 136.707842 401.939194 500.000000
0.260000 0.260000 0.410000 -134.193550 -120.647098 -87.088693 500.000000
-0.260000 0.260000 0.410000 229.036835 -30.266456 -17.105406 500.000000
0.260000 0.090000 0.290000 -53.977334 44.293316 221.834553 500.000000
-0.260000 0.260000 0.290000 242.228979 -389.382660 146.287007 500.000000
-0.260000 0.260000 0.290000 239.826921 -143.976960 240.608768 500.000000
0.205503 0.258714 0.290000 93.100501 33.742833 143.426740 500.000000
0.260000 0.260000 0.290000 -439.775096 -352.267342 150.128715 500.000000
0.260000 0.260000 0.410000 -152.192429 -56.529233 -22.385371 500.000000
0.260000 0.230830 0.410000 -127.731209 28.166074 -30.646379 500.000000
0.260000 0.090000 0.290000 -28.023434 43.179362 14.926359 500.000000
0.260000 0.090000 0.410000 -117.746421 40.720921 -27.027632 500.000000
0.199806 0.090000 0.290000 91.961167 208.156560 45.709404 500.000000
-0.260000 0.260000 0.290000 91.727030 -63.610235 232.056807 500.000000
-0.260000 0.260000 0.410000 246.791314 -173.158540 -488.160794 500.000000
0.260000 0.090000 0.410000 -101.730333 69.760072 -14.978773 500.000000
-0.260000 0.260000 0.410000 59.244274 -66.464492 -47.463288 500.000000
-0.260000 0.260000 0.290000 345.739457 -82.344746 185.580215 500.000000
-0.260000 0.090000 0.290000 125.415775 51.229690 187.796438 500.000000
-0.260000 0.090000 0.410000 56.295737 235.678384 -225.402528 500.000000
-0.260000 0.260000 0.290000 281.060883 -125.464829 350.867671 500.000000
0.260000 0.090000 0.410000 -128.402423 60.111696 -83.680610 500.000000
0.260000 0.141312 0.290000 -265.494634 -23.737603 219.816685 500.000000
-0.087498 0.090000 0.410000 -41.020037 48.701204 -44.858000 500.000000
0.260000 0.110557 0.290000 -92.389240 -29.888556 47.101747 500.000000
0.260000 0.090000 0.410000 -95.869918 457.777083 -23.747911 500.000000
-0.260000 0.090000 0.410000 56.433236 38.474007 -7.546118 500.000000
0.260000 0.260000 0.410000 -327.024753 -55.462228 -296.694732 500.000000
0.260000 0.260000 0.290000 -71.167722 -60.327276 129.121155 500.000000
0.260000 0.260000 0.290000 -61.919727 -24.328310 128.591804 500.000000
0.260000 0.260000 0.410000 -46.944361 -74.314652 -48.723969 500.000000
0.260000 0.260000 0.290000 -68.233707 -20.744939 23.915385 500.000000
0.260000 0.123047 0.290000 -118.070749 -27.390509 237.099923 500.000000
-0.260000 0.090000 0.410000 76.957520 46.448469 -99.736867 500.000000
-0.260000 0.260000 0.410000 122.641287 -91.111552 -261.379147 500.000000
0.260000 0.090000 0.290000 -380.344315 22.525981 221.365162 500.000000
-0.260000 0.260000 0.410000 298.843975 -314.952451 -92.844384 500.000000
-0.012984 0.146895 0.290000 -4.160759 11.378958 37.269158 500.000000
-0.260000 0.090000 0.290000 126.630871 95.467852 169.588688 500.000000
-0.260000 0.260000 0.410000 99.031453 -61.566399 -263.750001 500.000000
0.049221 0.090000 0.290000 -42.155877 275.474535 128.533011 500.000000
-0.260000 0.090000 0.290000 122.462309 58.652647 169.779647 500.000000
0.260000 0.260000 0.410000 -114.196351 -52.357879 -100.546715 500.000000
-0.260000 0.090000 0.410000 175.626601 160.655306 -201.937795 500.000000
-0.075823 0.090000 0.290000 -67.164623 145.407180 220.508544 500.000000
0.260000 0.260000 0.290000 -73.543934 -64.079247 143.622737 500.000000
0.260000 0.132260 0.290000 -192.133447 -25.548097 208.819789 500.000000
-0.215224 0.260000 0.410000 -61.841201 -22.153089 -17.241603 500.000000
-0.260000 0.260000 0.290000 50.973614 -49.961755 19.578643 500.000000
0.113468 0.090000 0.290000 -29.306384 25.941592 34.036904 500.000000
0.260000 0.090000 0.410000 -339.497792 136.648659 -363.387592 500.000000
0.260000 0.199885 0.410000 -146.150789 21.977074 -28.236059 500.000000
-0.260000 0.090000 0.290000 129.705170 56.689024 169.046306 500.000000
0.260000 0.090000 0.410000 -145.021789 245.824285 -470.867274 500.000000
0.260000 0.260000 0.290000 -182.353792 -81.577644 133.345196 500.000000
0.260000 0.197866 0.410000 -125.842897 21.573143 -28.252984 500.000000
0.260000 0.260000 0.290000 -179.899235 -66.335071 138.045962 500.000000
