ply
format ascii 1.0
element vertex 240
property float x
property float y
property float z
property float vx
property float vy
property float vz
property float density
end_header
0.210528 0.260000 0.410000 94.105545 -56.989238 -46.745419 500.000000
-0.025769 0.260000 0.410000 46.846231 -65.068303 -25.541317 500.000000
-0.260000 0.131192 0.410000 102.340981 -25.761511 -81.464630 500.000000
0.260000 0.090000 0.290000 -46.691520 31.342670 115.435637 500.000000
0.157045 0.260000 0.410000 83.408984 -58.095239 -46.075654 500.000000
0.260000 0.090000 0.410000 -53.304992 38.094357 -27.214977 500.000000
0.041368 0.260000 0.410000 60.273693 -57.869056 -56.744347 500.000000
-0.260000 0.260000 0.410000 67.946722 -49.907509 -95.368864 500.000000
0.260000 0.260000 0.290000 -57.232124 -24.600584 13.129026 500.000000
-0.260000 0.260000 0.410000 68.430240 -49.246055 -94.179351 500.000000
-0.143882 0.090000 0.314619 -9.868210 22.838140 -19.076182 500.000000
-0.191416 0.169983 0.410000 -45.135958 15.996566 -29.496359 500.000000
-0.260000 0.260000 0.410000 67.972792 -48.914080 -94.206130 500.000000
0.260000 0.090000 0.410000 -67.030053 39.534432 -59.913926 500.000000
-0.260000 0.260000 0.295536 799.885053 -28.120287 -22.892750 500.000000
-0.260000 0.260000 0.410000 405.385068 -37.073934 -46.925635 500.000000
-0.126476 0.090000 0.410000 26.704764 39.757990 -17.876971 500.000000
-0.198706 0.090000 0.290000 12.258882 23.978707 16.430996 500.000000
0.054940 0.090000 0.410000 62.987900 81.501366 -17.439647 500.000000
0.260000 0.090000 0.410000 -212.437391 27.605449 -49.637753 500.000000
-0.240784 0.090000 0.410000 -18.252659 13.424955 -22.356631 500.000000
0.260000 0.260000 0.290000 -207.269941 -23.439089 25.363766 500.000000
0.260000 0.260000 0.290000 -53.936305 -23.828651 13.841532 500.000000
-0.260000 0.260000 0.305664 65.256350 -116.727784 -20.867156 500.000000
-0.260000 0.090000 0.290000 82.760250 30.768178 12.616328 500.000000
-0.260000 0.260000 0.290000 84.808937 -62.450231 13.441824 500.000000
0.260000 0.090000 0.352148 -100.639566 37.283865 -6.863843 500.000000
0.260000 0.260000 0.293694 -56.268187 -25.700457 -23.261257 500.000000
-0.260000 0.090000 0.290000 54.037257 28.095881 156.664998 500.000000
-0.260000 0.090000 0.290000 117.618228 30.771050 12.773282 500.000000
0.054084 0.260000 0.410000 62.816782 -56.494752 -46.718301 500.000000
0.118489 0.090000 0.410000 75.697846 459.651164 -51.508971 500.000000
-0.260000 0.090000 0.410000 89.346933 93.545610 -34.811609 500.000000
-0.184407 0.090000 0.306043 -88.881430 289.635639 -20.791354 500.000000
-0.141390 0.090000 0.410000 -54.034510 36.433215 -8.934428 500.000000
0.260000 0.260000 0.290000 -298.100005 -24.926215 15.696706 500.000000
0.131657 0.260000 0.290000 -25.668652 -20.732532 757.769659 500.000000
-0.260000 0.090000 0.410000 162.793960 27.962361 -49.381984 500.000000
0.260000 0.260000 0.410000 -55.685903 -58.547791 -47.194514 500.000000
-0.260000 0.090000 0.392247 17.251238 67.977469 20.449399 500.000000
-0.260000 0.090000 0.300228 99.453696 36.713436 -21.954307 500.000000
0.260000 0.090000 0.410000 -59.158276 27.401612 -49.589019 500.000000
-0.260000 0.260000 0.290000 98.648607 -99.247436 94.931453 500.000000
0.243345 0.260000 0.410000 100.668915 -22.656563 -23.121980 500.000000
-0.260000 0.260000 0.410000 79.018099 -235.244252 -76.587820 500.000000
-0.260000 0.090000 0.410000 167.814252 186.953240 -40.648107 500.000000
0.260000 0.090000 0.331492 -523.603665 141.900566 -15.701604 500.000000
0.217799 0.247489 0.410000 8.324552 30.165106 -7.337762 500.000000
-0.260000 0.260000 0.410000 68.070342 -51.132398 -94.310627 500.000000
0.107464 0.096444 0.317776 33.991538 -32.711281 -18.444784 500.000000
0.260000 0.260000 0.290000 -156.168641 -23.586477 15.066807 500.000000
-0.260000 0.090000 0.410000 101.706964 26.155735 -61.574859 500.000000
-0.260000 0.090465 0.410000 113.489165 -33.906929 -74.216727 500.000000
0.001684 0.260000 0.410000 52.336838 -58.388246 -44.417957 500.000000
-0.026898 0.090000 0.290000 46.620489 25.264656 25.781836 500.000000
0.260000 0.090000 0.290000 -87.706680 27.491474 16.753377 500.000000
-0.260000 0.156805 0.290000 34.048310 13.360970 14.589985 500.000000
-0.260000 0.260000 0.410000 71.811753 -50.270982 -98.702527 500.000000
-0.260000 0.260000 0.410000 181.389964 -49.477847 -75.300922 500.000000
0.260000 0.090000 0.410000 -75.081405 23.901250 -77.699912 500.000000
-0.260000 0.090000 0.290000 138.622129 31.620230 12.637066 500.000000
0.064858 0.260000 0.410000 64.971608 -58.253173 -47.590595 500.000000
-0.093753 0.251244 0.410000 33.249383 17.615241 -40.589908 500.000000
-0.260000 0.260000 0.410000 84.625722 -48.993496 -94.916194 500.000000
0.212751 0.260000 0.410000 94.550218 -59.572188 -45.678434 500.000000
-0.260000 0.260000 0.410000 92.638191 -53.181741 -95.010018 500.000000
0.260000 0.090000 0.410000 -284.735450 33.022809 -70.345355 500.000000
-0.260000 0.090000 0.316968 73.573973 22.603952 -18.606464 500.000000
-0.260000 0.090000 0.309961 79.542565 42.436894 -20.007732 500.000000
0.260000 0.260000 0.290000 -44.378494 -90.801656 481.273656 500.000000
-0.203686 0.090000 0.290000 -1.518881 18.803496 14.338857 500.000000
0.076116 0.260000 0.410000 67.223140 -58.299839 -45.959275 500.000000
0.260000 0.260000 0.290000 -86.727621 -23.448078 14.700170 500.000000
-0.260000 0.090000 0.290000 48.040322 116.216467 42.979578 500.000000
-0.260000 0.260000 0.410000 55.303810 -29.973713 -32.812043 500.000000
-0.260000 0.090000 0.410000 92.729001 27.136454 -47.972669 500.000000
0.260000 0.260000 0.347936 -21.272639 -63.844018 -12.412829 500.000000
-0.260000 0.260000 0.295334 542.111762 -28.116015 -22.933179 500.000000
-0.260000 0.090000 0.290000 83.543371 31.031106 13.098295 500.000000
-0.260000 0.108912 0.410000 55.287349 -16.367447 -47.804309 500.000000
-0.260000 0.260000 0.410000 68.013368 -48.981285 -94.245962 500.000000
0.225389 0.090000 0.397376 97.077771 24.799973 21.475268 500.000000
-0.260000 0.090000 0.410000 133.011562 17.173652 -67.598027 500.000000
0.141392 0.260000 0.410000 80.278454 -58.416517 -44.440848 500.000000
-0.260000 0.090000 0.410000 124.258256 54.600914 -68.533402 500.000000
0.260000 0.090000 0.410000 -60.481005 28.489457 -63.483687 500.000000
0.232103 0.090000 0.290000 8.865112 18.906748 40.980737 500.000000
-0.180912 0.090000 0.290000 -88.182419 166.064981 385.785651 500.000000
0.039146 0.260000 0.410000 59.829154 -58.050440 -46.365137 500.000000
-0.260000 0.090000 0.313294 90.107648 77.304710 -19.341260 500.000000
-0.260000 0.260000 0.410000 72.553031 -55.787355 -93.347615 500.000000
0.260000 0.260000 0.410000 -592.573608 -240.598800 -43.934052 500.000000
0.142966 0.090000 0.410000 -2.270757 26.367661 -35.727064 500.000000
-0.260000 0.145244 0.290000 90.765792 -22.951238 314.714867 500.000000
0.260000 0.260000 0.290000 -238.006628 -22.367459 14.783195 500.000000
0.260000 0.090000 0.410000 -71.554422 42.487659 -20.118236 500.000000
0.117259 0.260000 0.384063 75.451848 -27.626097 18.812573 500.000000
0.260000 0.090000 0.410000 -80.058579 36.469082 -47.595115 500.000000
0.260000 0.090000 0.290000 -66.648856 24.464742 17.283558 500.000000
0.260000 0.090000 0.290000 -73.433941 97.264377 8.580599 500.000000
-0.260000 0.260000 0.290000 34.053001 -21.689348 14.424980 500.000000
0.172700 0.260000 0.410000 86.540056 -18.801303 -55.931644 500.000000
0.260000 0.260000 0.410000 -68.964662 -57.532901 -46.714693 500.000000
-0.260000 0.100625 0.310269 124.951975 -31.874903 -19.946143 500.000000
-0.106616 0.260000 0.290000 -73.323110 -78.636570 587.789579 500.000000
-0.260000 0.090000 0.302858 99.253399 19.871518 -21.428395 500.000000
-0.260000 0.090000 0.290000 90.740584 18.247277 19.006350 500.000000
-0.260000 0.260000 0.410000 88.719330 -51.722926 -93.512081 500.000000
-0.260000 0.260000 0.295511 713.078093 -27.982426 -22.897758 500.000000
-0.260000 0.260000 0.294258 376.885981 -27.807485 -23.148489 500.000000
-0.260000 0.260000 0.290953 21.647222 -26.818403 -23.809493 500.000000
0.260000 0.260000 0.290000 -274.817756 -81.331669 122.846773 500.000000
-0.053385 0.145698 0.290000 -24.945904 -22.860498 14.002574 500.000000
0.260000 0.090000 0.290000 -70.939201 30.080637 45.322559 500.000000
-0.260000 0.090000 0.290000 94.129979 30.145275 18.819733 500.000000
0.260000 0.260000 0.410000 -55.085972 -59.128940 -47.882850 500.000000
-0.134522 0.090000 0.410000 -13.472146 18.481096 -16.907686 500.000000
0.103618 0.260000 0.290000 72.723579 -175.383555 12.346008 500.000000
0.260000 0.260000 0.290000 -274.782503 -44.029232 143.012713 500.000000
0.144676 0.090000 0.410000 -23.064707 106.369781 -15.174776 500.000000
-0.260000 0.260000 0.410000 67.998013 -51.100038 -94.738858 500.000000
-0.260000 0.260000 0.410000 91.782266 -49.469912 -93.597537 500.000000
0.260000 0.090000 0.410000 -62.346838 4.845626 -56.249811 500.000000
-0.260000 0.260000 0.337475 212.821149 -65.671301 -14.505042 500.000000
0.260000 0.260000 0.290000 -292.557689 -23.367642 19.090227 500.000000
0.260000 0.090000 0.410000 -113.949388 437.279223 -58.582340 500.000000
0.260000 0.090000 0.290000 -94.283741 26.663535 18.416875 500.000000
0.166968 0.090000 0.290000 6.049500 50.880554 82.677009 500.000000
-0.260000 0.260000 0.294344 211.561034 -27.631068 -23.131134 500.000000
0.158779 0.260000 0.349844 83.755830 -36.929892 11.968778 500.000000
-0.260000 0.260000 0.410000 80.255290 -48.940246 -101.390789 500.000000
0.260000 0.090000 0.410000 -183.635718 28.506242 -48.693446 500.000000
-0.260000 0.260000 0.290000 51.775833 -50.709135 21.324372 500.000000
-0.260000 0.090000 0.290000 64.675479 56.044992 267.560021 500.000000
-0.260000 0.260000 0.410000 67.990816 -49.291175 -94.153792 500.000000
0.260000 0.090000 0.290000 -59.372322 33.913522 25.302923 500.000000
0.044050 0.260000 0.290000 -43.189935 -63.163531 22.744085 500.000000
0.115147 0.090000 0.410000 75.029418 330.058636 -23.968219 500.000000
0.260000 0.260000 0.410000 -325.697649 -75.004217 -200.715452 500.000000
-0.260000 0.188642 0.410000 19.294158 19.728310 -56.768300 500.000000
-0.260000 0.260000 0.410000 78.709057 -49.539165 -93.598627 500.000000
-0.260000 0.090000 0.410000 54.006963 49.672435 -21.518406 500.000000
0.260000 0.090000 0.410000 -306.189381 31.561752 -70.442873 500.000000
0.260000 0.090000 0.290000 -47.894131 47.877953 34.933925 500.000000
-0.216084 0.260000 0.290000 -95.216869 -89.108333 16.842129 500.000000
0.260000 0.260000 0.290000 -235.093715 -39.115402 419.626696 500.000000
0.020624 0.090000 0.410000 56.124839 481.201767 -48.737385 500.000000
-0.260000 0.260000 0.410000 68.073068 -49.859026 -94.440627 500.000000
0.260000 0.090000 0.290000 -78.161960 29.745441 81.739850 500.000000
-0.065303 0.260000 0.290000 -24.963654 -59.604207 369.744674 500.000000
0.200357 0.090000 0.410000 5.376438 37.404091 -51.609087 500.000000
-0.168998 0.260000 0.312166 -85.799611 -144.558183 -19.566859 500.000000
-0.260000 0.090000 0.315765 21.868037 23.094114 -18.846992 500.000000
-0.207885 0.260000 0.410000 -93.576960 -39.076025 -74.059486 500.000000
0.063709 0.260000 0.410000 64.741704 -58.305317 -46.806720 500.000000
0.259723 0.090000 0.410000 35.512903 40.046112 -10.411148 500.000000
-0.260000 0.260000 0.410000 68.015955 -49.859381 -94.923106 500.000000
0.260000 0.090000 0.410000 -25.071547 8.068354 -54.595474 500.000000
-0.241558 0.090000 0.290000 -58.177817 74.698021 154.553855 500.000000
0.260000 0.260000 0.410000 -65.332779 -35.045913 -26.606133 500.000000
0.145262 0.260000 0.410000 81.052402 -58.010895 -46.301692 500.000000
-0.260000 0.260000 0.317936 51.963001 -49.594202 -18.412825 500.000000
0.260000 0.121724 0.410000 -29.249276 -27.655159 -77.569333 500.000000
-0.018667 0.090000 0.410000 -55.733489 741.299678 -21.091073 500.000000
0.260000 0.260000 0.290000 -16.074139 -65.594169 516.123619 500.000000
-0.260000 0.260000 0.295407 627.695193 -27.955525 -22.918503 500.000000
0.260000 0.260000 0.410000 -48.038797 -156.642137 -72.693280 500.000000
-0.260000 0.260000 0.410000 148.664625 -52.505055 -95.497318 500.000000
0.260000 0.260000 0.410000 -105.672635 -46.139994 -241.332093 500.000000
-0.088997 0.090000 0.410000 -46.221183 27.735698 -50.965069 500.000000
0.260000 0.260000 0.410000 -72.844453 -74.020959 -37.128830 500.000000
-0.260000 0.090000 0.410000 139.863994 28.040530 -50.111948 500.000000
-0.260000 0.090000 0.410000 104.358975 43.564447 -62.409899 500.000000
-0.260000 0.137087 0.353336 74.834595 -24.582635 -11.332825 500.000000
-0.260000 0.127930 0.313078 27.470358 -26.414026 -19.384393 500.000000
0.260000 0.260000 0.290000 -56.056821 -35.654064 313.541151 500.000000
0.260000 0.090000 0.290000 -384.095989 31.714088 13.981664 500.000000
-0.260000 0.260000 0.410000 68.042269 -49.210899 -94.193814 500.000000
-0.260000 0.260000 0.410000 68.423222 -49.213821 -94.176261 500.000000
0.260000 0.260000 0.290000 -321.587994 -58.696583 235.792896 500.000000
0.088655 0.260000 0.410000 69.731056 -58.414372 -44.515939 500.000000
0.043178 0.090000 0.290000 60.635659 30.334098 16.267890 500.000000
0.260000 0.090000 0.290000 -39.408972 60.846761 157.581198 500.000000
-0.073629 0.260000 0.341247 -66.725767 -235.950394 -13.750525 500.000000
-0.260000 0.260000 0.295338 455.182736 -27.956398 -22.932435 500.000000
0.151233 0.260000 0.307409 56.568563 -49.141436 -20.518203 500.000000
0.260000 0.260000 0.410000 -200.433642 -41.468363 -291.199321 500.000000
-0.260000 0.260000 0.410000 42.753190 -27.214291 -23.186902 500.000000
-0.260000 0.260000 0.410000 78.877331 -49.736443 -93.307483 500.000000
-0.150226 0.090000 0.290000 -0.966944 34.233737 36.198922 500.000000
0.260000 0.090000 0.290000 -87.040453 101.344933 16.015682 500.000000
0.260000 0.090000 0.290000 -202.966895 322.030793 48.588029 500.000000
-0.220092 0.090000 0.410000 -70.021805 35.144585 -107.857476 500.000000
-0.260000 0.260000 0.410000 68.108210 -49.243200 -94.177526 500.000000
-0.260000 0.260000 0.290000 45.600429 -66.297805 16.369878 500.000000
0.260000 0.260000 0.290000 -273.170980 -51.821379 107.319925 500.000000
0.260000 0.260000 0.290000 -65.592351 -35.053695 41.695657 500.000000
0.109618 0.260000 0.410000 73.923610 -58.359911 -44.442514 500.000000
-0.260000 0.260000 0.410000 68.694282 -49.319308 -94.160715 500.000000
0.260000 0.090000 0.410000 -105.989631 49.148822 -49.348996 500.000000
-0.260000 0.106441 0.290000 80.040645 -30.711783 353.561235 500.000000
-0.260000 0.260000 0.410000 68.408087 -49.243193 -94.178384 500.000000
-0.260000 0.090000 0.290000 97.904971 30.878596 12.682120 500.000000
-0.260000 0.147188 0.290000 61.584902 -22.562334 13.233575 500.000000
-0.260000 0.260000 0.292133 67.539918 -27.155375 -23.573335 500.000000
-0.260000 0.090000 0.410000 98.990760 28.830521 -49.587890 500.000000
-0.260000 0.260000 0.410000 68.660191 -49.243706 -94.221666 500.000000
-0.260000 0.260000 0.290000 150.285657 -27.283698 12.020614 500.000000
-0.260000 0.260000 0.410000 68.014123 -48.941056 -94.287281 500.000000
-0.156660 0.090000 0.410000 -8.645476 54.488666 -27.580967 500.000000
-0.260000 0.260000 0.410000 65.379176 -39.411842 -48.023026 500.000000
0.260000 0.260000 0.290000 -71.815170 -130.014530 27.007686 500.000000
0.036609 0.260000 0.410000 59.321711 -67.488667 -92.763282 500.000000
0.260000 0.090000 0.410000 -85.225637 31.024598 -16.378276 500.000000
0.214507 0.260000 0.410000 94.901455 -57.074007 -46.781805 500.000000
-0.260000 0.260000 0.410000 68.126354 -49.221775 -94.177080 500.000000
0.260000 0.090000 0.410000 -164.215054 63.105500 -48.047444 500.000000
0.219630 0.260000 0.410000 95.925998 -57.642977 -47.229414 500.000000
-0.260000 0.090000 0.290000 37.652537 80.857694 12.997290 500.000000
-0.260000 0.260000 0.410000 82.133841 -50.182587 -94.328948 500.000000
0.260000 0.260000 0.290000 -262.775894 -113.068016 107.314212 500.000000
-0.260000 0.260000 0.410000 82.515544 -49.519474 -93.574314 500.000000
0.185354 0.260000 0.410000 89.070735 -57.008837 -46.718662 500.000000
-0.101977 0.090000 0.410000 31.604639 24.656950 -20.580571 500.000000
-0.260000 0.090000 0.290000 87.186261 31.616320 13.512951 500.000000
-0.260000 0.090000 0.310906 38.725985 82.462013 -19.818722 500.000000
0.260000 0.260000 0.319987 -28.437362 -9.560358 -3.846858 500.000000
0.260000 0.260000 0.410000 -1273.752819 -55.878732 -24.360459 500.000000
0.028475 0.260000 0.410000 57.694931 -58.140756 -46.805307 500.000000
-0.142614 0.232692 0.290000 -80.522883 4.703860 16.658834 500.000000
0.260000 0.090000 0.410000 -107.077430 22.633291 -41.399087 500.000000
0.260000 0.090000 0.290000 -134.672000 70.313401 107.636894 500.000000
0.011054 0.090000 0.410000 54.210857 27.384015 -24.382597 500.000000
-0.260000 0.260000 0.410000 67.974292 -48.909454 -94.213389 500.000000
-0.260000 0.260000 0.410000 50.957642 -37.232906 -27.778918 500.000000
-0.260000 0.260000 0.299856 291.059378 -26.943344 -22.028768 500.000000
0.076356 0.090000 0.290000 67.271197 11.376340 29.679370 500.000000
0.036382 0.260000 0.290000 -32.757718 -31.217000 21.857632 500.000000
0.180000 0.090000 0.410000 87.999958 23.326643 -66.894622 500.000000
0.260000 0.090000 0.410000 -35.395613 303.770562 -33.782239 500.000000
