ply
format ascii 1.0
element vertex 240
property float x
property float y
property float z
property float vx
property float vy
property float vz
property float density
end_header
-0.260000 0.260000 0.410000 83.716123 -18.886784 -100.242818 500.000000
-0.260000 0.248653 0.402362 26.224234 31.730634 9.732117 500.000000
-0.260000 0.260000 0.410000 92.443393 -18.879149 -174.802927 500.000000
0.260000 0.090000 0.410000 -166.770419 60.722860 -81.832483 500.000000
-0.150321 0.183329 0.290000 -82.064180 18.665734 162.891160 500.000000
0.260000 0.260000 0.290000 -120.707687 -155.859208 54.529308 500.000000
-0.087435 0.090000 0.298082 34.513093 49.374407 -22.383542 500.000000
0.260000 0.260000 0.290000 -209.610671 -20.358065 12.101773 500.000000
-0.260000 0.260000 0.325621 150.580273 -60.517277 -16.875712 500.000000
-0.168792 0.090000 0.290000 -85.758434 45.183938 48.509737 500.000000
0.260000 0.090000 0.318162 -99.175987 135.938787 -18.367629 500.000000
-0.260000 0.090000 0.410000 213.093553 92.296926 -24.629635 500.000000
0.260000 0.090000 0.410000 -212.240822 101.718575 -158.204387 500.000000
-0.260000 0.260000 0.410000 89.416069 -17.717580 -94.013775 500.000000
-0.260000 0.090000 0.410000 72.020363 90.116598 -100.267419 500.000000
-0.260000 0.090000 0.410000 27.709445 19.784072 -19.038178 500.000000
-0.260000 0.090000 0.410000 110.642030 168.561117 -116.942913 500.000000
-0.260000 0.190728 0.290000 116.286198 20.145690 831.982092 500.000000
0.260000 0.090000 0.410000 -167.901125 59.533725 -74.136674 500.000000
0.260000 0.090000 0.410000 -164.704634 58.162139 -72.183357 500.000000
-0.163155 0.090000 0.410000 -20.382814 27.691965 -20.019324 500.000000
0.083777 0.090000 0.410000 68.755315 109.313157 -25.439475 500.000000
0.260000 0.256901 0.290000 -252.917824 33.380217 60.809720 500.000000
0.044120 0.090000 0.410000 60.823999 39.342653 -56.291057 500.000000
0.260000 0.090000 0.290000 -111.985991 58.547568 61.454586 500.000000
-0.260000 0.260000 0.290000 16.140445 -25.802312 13.314975 500.000000
-0.260000 0.260000 0.410000 87.197844 -20.285056 -102.131515 500.000000
-0.060606 0.090000 0.290000 -64.121163 49.166799 59.646418 500.000000
-0.260000 0.260000 0.290000 146.368861 -64.523502 61.612942 500.000000
0.096459 0.260000 0.410000 71.291756 -122.998265 -113.162270 500.000000
0.260000 0.260000 0.290000 -55.588724 -71.891879 528.741748 500.000000
0.260000 0.260000 0.290000 -658.271002 -39.472113 42.284785 500.000000
-0.260000 0.090000 0.290000 112.764801 29.745134 254.393760 500.000000
0.260000 0.090000 0.410000 -184.387211 68.603154 -71.476411 500.000000
-0.260000 0.090000 0.410000 969.414839 89.743014 -70.862199 500.000000
-0.260000 0.260000 0.290000 219.839841 -62.971901 38.543272 500.000000
0.159290 0.090000 0.290000 83.858080 28.460237 500.398942 500.000000
-0.260000 0.090000 0.368750 26.317152 16.881540 -8.250063 500.000000
0.260000 0.260000 0.410000 -54.332046 -95.576350 -123.992515 500.000000
-0.260000 0.260000 0.290000 141.398181 -64.221608 65.537223 500.000000
-0.260000 0.090000 0.410000 26.955553 89.377742 -123.365496 500.000000
0.253015 0.260000 0.290000 102.603087 -50.428661 69.282732 500.000000
0.260000 0.090000 0.290000 -93.379002 97.676242 52.106377 500.000000
-0.260000 0.260000 0.290000 202.323116 -127.732523 63.672398 500.000000
-0.260000 0.260000 0.410000 374.354142 -46.498814 -95.427153 500.000000
0.260000 0.090000 0.381612 -173.377480 197.711237 18.322346 500.000000
0.260000 0.260000 0.290000 -161.752738 -49.603161 70.721654 500.000000
0.127939 0.260000 0.322572 40.981561 -36.120123 -17.485660 500.000000
0.260000 0.090000 0.397695 -165.730648 311.568824 21.538953 500.000000
-0.260000 0.260000 0.410000 86.232020 -273.288414 -117.871084 500.000000
-0.260000 0.260000 0.334627 147.866006 -63.907472 -15.074510 500.000000
-0.260000 0.090000 0.410000 124.388462 107.689024 -12.278214 500.000000
0.260000 0.260000 0.290000 -84.212368 -51.534967 50.016535 500.000000
0.260000 0.260000 0.410000 -87.657577 -117.363728 -127.149908 500.000000
0.260000 0.090000 0.290000 -208.578420 86.670676 54.378422 500.000000
-0.237285 0.260000 0.407647 -15.642088 -118.567113 23.529385 500.000000
0.255304 0.260000 0.410000 103.060828 -173.874705 -198.160671 500.000000
-0.168367 0.090000 0.290000 -85.673366 44.436567 48.963027 500.000000
0.243891 0.260000 0.410000 100.778293 -95.965429 -111.737783 500.000000
-0.260000 0.259506 0.410000 94.907540 33.901239 -256.494101 500.000000
-0.260000 0.260000 0.290000 174.420900 -100.695786 152.955514 500.000000
-0.260000 0.260000 0.290000 27.211496 -17.627508 34.556459 500.000000
0.096664 0.090000 0.290000 -32.667123 28.271696 17.231042 500.000000
0.140113 0.090000 0.410000 6.987396 39.737423 -54.175263 500.000000
0.260000 0.260000 0.290000 -171.079570 -108.641078 53.122208 500.000000
0.260000 0.090000 0.410000 -170.131820 61.029939 -77.762882 500.000000
-0.260000 0.090000 0.290000 255.200919 282.212768 13.874608 500.000000
-0.189789 0.090000 0.290000 -89.957828 43.449909 48.352336 500.000000
-0.260000 0.090000 0.410000 74.178497 94.978988 -59.622602 500.000000
-0.260000 0.178044 0.410000 108.014633 17.608774 -95.867713 500.000000
0.260000 0.090000 0.386216 -75.131416 27.725393 19.243210 500.000000
-0.260000 0.090000 0.410000 1294.029994 61.668021 -71.368262 500.000000
-0.170530 0.090000 0.290000 -86.106052 69.801254 49.031186 500.000000
-0.260000 0.260000 0.410000 98.724163 -46.515622 -100.267252 500.000000
0.260000 0.260000 0.410000 -84.362359 -106.627250 -170.764453 500.000000
-0.260000 0.090000 0.410000 56.761317 27.239116 -76.431459 500.000000
0.260000 0.090000 0.410000 -197.441352 156.818845 -82.484685 500.000000
0.260000 0.201975 0.290000 -50.582361 22.394983 140.292215 500.000000
0.260000 0.090000 0.410000 -189.419114 158.984912 -119.754941 500.000000
-0.260000 0.260000 0.410000 92.161719 -19.842953 -132.848200 500.000000
-0.260000 0.090000 0.410000 77.963125 173.638648 -34.346025 500.000000
-0.077584 0.165938 0.305809 -67.516837 -18.812487 -20.838193 500.000000
-0.094279 0.133464 0.410000 -39.932665 8.692861 -11.053660 500.000000
0.211683 0.260000 0.410000 94.336580 -37.667081 -321.620983 500.000000
-0.260000 0.090000 0.290000 90.017787 37.745871 61.383493 500.000000
-0.260000 0.260000 0.290000 151.195443 -161.046022 70.138418 500.000000
-0.260000 0.090000 0.410000 787.513875 44.186133 -84.672192 500.000000
0.260000 0.090000 0.290000 -63.206607 27.364517 470.923131 500.000000
-0.260000 0.260000 0.410000 93.255010 -29.943005 -174.520965 500.000000
0.260000 0.090000 0.290000 -136.973856 61.863453 53.003903 500.000000
-0.260000 0.090000 0.290000 156.958024 732.432901 112.466558 500.000000
0.257122 0.090000 0.320138 47.644309 17.901490 -17.972392 500.000000
0.260000 0.090000 0.383658 -175.333571 85.204473 18.731633 500.000000
0.260000 0.090000 0.410000 -147.557186 88.065612 -33.171315 500.000000
-0.260000 0.103138 0.410000 16.591096 -31.372321 -22.224266 500.000000
0.260000 0.260000 0.391934 -287.118494 -223.963899 20.386759 500.000000
0.260000 0.090000 0.290000 -83.309758 58.708929 59.665238 500.000000
0.133478 0.090000 0.290000 78.695510 20.887602 408.747712 500.000000
0.107076 0.090000 0.410000 73.415189 683.897201 -101.583588 500.000000
0.260000 0.090000 0.410000 -209.257449 63.585119 -83.881642 500.000000
0.260000 0.260000 0.410000 -691.480081 -134.020656 -65.285666 500.000000
0.260000 0.260000 0.290000 -80.274282 -46.328145 50.191496 500.000000
0.260000 0.260000 0.410000 -80.720226 -97.160200 -109.556900 500.000000
-0.260000 0.260000 0.410000 91.820189 -18.256458 -195.820211 500.000000
-0.260000 0.090000 0.290000 101.672657 31.561180 44.213898 500.000000
0.260000 0.090000 0.410000 -182.725929 126.193822 -103.647335 500.000000
0.191266 0.260000 0.290000 90.253116 -43.329892 28.032324 500.000000
-0.260000 0.090000 0.410000 175.316890 90.998914 -24.683102 500.000000
0.260000 0.090000 0.290000 -128.953937 181.799533 21.194334 500.000000
-0.260000 0.260000 0.410000 93.896494 -17.278537 -253.513706 500.000000
-0.260000 0.260000 0.290000 156.324194 -64.085022 61.739549 500.000000
-0.260000 0.090000 0.410000 106.353261 98.792725 -61.063768 500.000000
0.260000 0.178969 0.342511 -15.446834 3.308669 -13.497895 500.000000
0.215914 0.090000 0.410000 25.966671 23.331228 -79.688443 500.000000
-0.140207 0.260000 0.410000 -80.041301 -305.459173 -29.936041 500.000000
-0.260000 0.090000 0.410000 52.009922 91.433241 -51.557435 500.000000
0.260000 0.090000 0.410000 -172.971043 60.563910 -80.600098 500.000000
-0.260000 0.260000 0.292391 157.299498 -120.095561 -23.521777 500.000000
-0.260000 0.090000 0.410000 55.008482 17.475237 -81.794745 500.000000
-0.260000 0.260000 0.290000 141.922404 -64.141460 61.515023 500.000000
-0.260000 0.260000 0.290000 141.760284 -65.641553 19.082583 500.000000
0.260000 0.260000 0.290000 -76.805226 -47.472887 50.093909 500.000000
0.260000 0.090000 0.378976 -166.491523 160.578611 17.795155 500.000000
-0.260000 0.260000 0.290000 142.168691 -66.642817 61.464800 500.000000
-0.059436 0.260000 0.410000 -63.887280 -341.511421 -47.822899 500.000000
-0.260000 0.158036 0.410000 109.174290 13.607139 -94.903131 500.000000
-0.113262 0.090000 0.410000 29.347520 63.143231 -18.804814 500.000000
-0.260000 0.090000 0.410000 98.735660 128.548630 -46.917296 500.000000
0.194823 0.260000 0.290000 24.233605 -13.413015 9.891428 500.000000
0.166066 0.090000 0.290000 85.213123 103.225809 52.170339 500.000000
0.246545 0.260000 0.410000 101.309054 -21.232829 -30.494101 500.000000
-0.260000 0.090000 0.290000 55.624822 62.020395 44.720964 500.000000
-0.171457 0.090000 0.290000 -86.291364 44.653142 48.378225 500.000000
-0.176653 0.090000 0.290000 -87.330559 43.952340 44.645353 500.000000
0.260000 0.090000 0.410000 -166.892623 60.465459 -74.531918 500.000000
-0.260000 0.260000 0.290000 197.814076 -57.062653 30.284522 500.000000
-0.260000 0.090000 0.410000 120.995832 145.200226 -79.753868 500.000000
0.260000 0.190433 0.410000 -644.188468 20.086630 -37.539810 500.000000
-0.260000 0.245757 0.410000 97.549113 31.151368 -207.848245 500.000000
-0.260000 0.260000 0.410000 52.907009 -106.907578 -12.444063 500.000000
-0.260000 0.090000 0.409317 88.392084 81.738891 23.863402 500.000000
-0.260000 0.090000 0.290000 50.161739 56.719312 70.033849 500.000000
-0.260000 0.090000 0.410000 50.553446 22.282827 -85.059448 500.000000
0.260000 0.090000 0.290000 -61.214177 28.437353 541.476941 500.000000
0.260000 0.090000 0.410000 -503.813978 110.535023 -83.257965 500.000000
0.260000 0.260000 0.290000 -63.520106 -49.672954 54.227637 500.000000
-0.260000 0.260000 0.410000 85.049268 -241.386543 -119.358418 500.000000
-0.208540 0.090000 0.290000 -93.708032 41.861164 44.748719 500.000000
-0.197441 0.260000 0.410000 -25.855088 -318.315697 -23.377540 500.000000
0.260000 0.090000 0.410000 -206.921134 111.536934 -180.215721 500.000000
-0.260000 0.090000 0.290000 61.472855 45.810488 44.769864 500.000000
0.260000 0.260000 0.290000 -75.229694 -173.282765 13.034925 500.000000
0.260000 0.201127 0.410000 -32.998809 22.225321 -73.079886 500.000000
-0.260000 0.090000 0.290000 77.987504 79.935871 53.702889 500.000000
-0.260000 0.260000 0.410000 134.647694 -18.404334 -231.784046 500.000000
-0.260000 0.260000 0.290000 151.287360 -64.180916 61.719873 500.000000
0.260000 0.090000 0.410000 -166.819403 59.629561 -74.706876 500.000000
0.260000 0.090000 0.383595 -167.176023 125.497685 18.718917 500.000000
0.260000 0.260000 0.290000 -120.432214 -244.989243 77.798444 500.000000
0.260000 0.260000 0.410000 -115.672524 -751.906488 -24.977859 500.000000
0.155783 0.260000 0.290000 83.156529 -188.678100 584.549404 500.000000
-0.260000 0.090000 0.410000 59.352275 87.146448 -50.533910 500.000000
0.260000 0.260000 0.290000 -95.142342 -44.883392 90.260708 500.000000
0.260000 0.260000 0.410000 -345.351104 -70.741175 -118.136280 500.000000
0.137688 0.260000 0.410000 -24.462440 -40.804640 -29.490092 500.000000
0.227597 0.134199 0.320108 56.295603 -25.160215 -17.978316 500.000000
-0.260000 0.090000 0.410000 63.911672 145.296913 -29.618404 500.000000
0.260000 0.260000 0.410000 -110.828933 -104.235147 -192.209072 500.000000
0.260000 0.260000 0.410000 -112.557725 -96.306750 -173.586268 500.000000
0.260000 0.260000 0.328084 -268.446917 -27.563332 -16.383106 500.000000
0.260000 0.090000 0.290000 -30.156508 52.363057 17.628334 500.000000
-0.260000 0.260000 0.290000 398.543492 -71.683656 47.604289 500.000000
0.233878 0.260000 0.410000 98.775516 -152.401555 -219.608332 500.000000
-0.260000 0.235777 0.410000 81.136308 29.155483 -95.536959 500.000000
-0.260000 0.260000 0.410000 185.891020 -56.019607 -30.455254 500.000000
0.130607 0.260000 0.294164 39.419082 -11.316262 -23.167145 500.000000
-0.260000 0.260000 0.290000 113.727240 -50.360882 600.105058 500.000000
0.260000 0.090000 0.410000 -181.165264 58.946040 -73.682883 500.000000
0.260000 0.260000 0.290000 -558.692845 -208.278909 35.158770 500.000000
0.141599 0.090000 0.290000 80.319756 122.314230 46.618955 500.000000
0.260000 0.260000 0.410000 -136.106039 -125.831796 -156.743797 500.000000
0.063232 0.260000 0.410000 64.646312 -496.045811 -36.636799 500.000000
0.260000 0.090000 0.410000 -262.359688 50.065954 -17.831926 500.000000
0.260000 0.090000 0.290000 -64.496774 38.653718 100.763426 500.000000
0.260000 0.260000 0.410000 -56.889268 -121.170802 -123.993982 500.000000
-0.260000 0.210240 0.290000 91.966334 24.048072 511.995983 500.000000
-0.260000 0.090000 0.290000 62.086175 60.423489 59.051054 500.000000
-0.260000 0.260000 0.290000 177.304141 -145.534446 40.731401 500.000000
-0.260000 0.260000 0.290000 176.703968 -84.217930 64.298423 500.000000
-0.260000 0.125030 0.290000 58.430637 -26.994021 38.196443 500.000000
0.260000 0.260000 0.290000 -159.594547 -122.651379 55.704583 500.000000
0.260000 0.260000 0.290000 -61.012654 -78.906049 619.096918 500.000000
0.260000 0.090000 0.387514 -172.923293 158.097188 19.502860 500.000000
0.080075 0.090000 0.290000 -1.279785 57.588604 21.120723 500.000000
0.260000 0.090000 0.410000 -167.510964 59.633725 -74.167922 500.000000
-0.040179 0.090000 0.290000 -60.035871 55.437864 13.885072 500.000000
0.260000 0.260000 0.290000 -595.456443 -45.155163 62.033968 500.000000
-0.260000 0.260000 0.410000 128.965350 -47.721360 -210.080081 500.000000
-0.260000 0.090000 0.410000 1004.196887 60.951077 -71.901610 500.000000
-0.260000 0.260000 0.410000 82.105237 -21.063007 -99.968321 500.000000
-0.260000 0.260000 0.290000 203.167036 -68.818644 50.549113 500.000000
-0.171754 0.090000 0.290000 -86.350823 42.168840 49.283673 500.000000
-0.260000 0.090000 0.410000 57.566511 140.956176 -74.133334 500.000000
-0.260000 0.260000 0.290000 187.006593 -79.592531 91.847464 500.000000
0.260000 0.090000 0.410000 -170.173339 64.478461 -88.322524 500.000000
0.260000 0.260000 0.290000 -100.973415 -107.280946 73.353053 500.000000
0.260000 0.090000 0.410000 -153.240342 49.174877 -13.298280 500.000000
-0.260000 0.260000 0.290000 330.286470 -140.494006 19.277702 500.000000
-0.260000 0.090000 0.410000 443.620400 135.564574 -83.092789 500.000000
-0.260000 0.090000 0.410000 57.600866 91.683506 -19.700633 500.000000
0.260000 0.260000 0.410000 -105.068153 -104.884360 -176.364061 500.000000
0.260000 0.260000 0.290000 -67.493902 -49.706911 50.455611 500.000000
0.085426 0.090000 0.290000 69.085104 163.817258 40.817338 500.000000
0.090901 0.260000 0.410000 70.180109 -109.594639 -114.408554 500.000000
0.066915 0.090000 0.410000 65.383086 126.941221 -28.241124 500.000000
0.260000 0.260000 0.290000 -64.627922 -123.327429 78.808197 500.000000
-0.260000 0.090000 0.410000 62.728979 93.675972 -42.735032 500.000000
-0.260000 0.260000 0.410000 97.945483 -27.221270 -153.416892 500.000000
0.260000 0.090000 0.290000 -102.485637 56.922382 59.253291 500.000000
-0.260000 0.260000 0.410000 141.971119 -83.149691 -111.307147 500.000000
0.031461 0.260000 0.315593 13.361377 -18.061630 -18.881369 500.000000
-0.174790 0.090000 0.290000 -86.958048 53.222495 44.734158 500.000000
-0.260000 0.260000 0.410000 92.046379 -19.839180 -154.009268 500.000000
0.034749 0.090000 0.290000 58.949824 73.327373 32.447888 500.000000
-0.164374 0.090000 0.290000 -84.874876 44.023592 44.781872 500.000000
0.258930 0.260000 0.410000 103.785935 -104.108738 -127.356469 500.000000
-0.260000 0.090000 0.410000 87.382027 122.211220 -68.270533 500.000000
-0.047416 0.090000 0.290000 42.516867 40.827796 55.430537 500.000000
0.260000 0.260000 0.290000 -68.087625 -50.644383 54.078992 500.000000
0.260000 0.260000 0.290000 -82.800485 -111.141200 71.057980 500.000000
0.260000 0.090000 0.290000 -127.072983 59.576187 56.293826 500.000000
0.260000 0.217557 0.326481 -40.811422 25.511391 -16.703834 500.000000
-0.260000 0.260000 0.322354 83.138751 -71.003652 -17.529138 500.000000
0.260000 0.090000 0.410000 -222.914978 83.601026 -158.206601 500.000000
0.260000 0.090000 0.381467 -174.820941 53.189586 18.293441 500.000000
-0.182472 0.090000 0.290000 -88.494379 43.532947 44.598635 500.000000
0.260000 0.090000 0.410000 -174.325645 110.878278 -185.060125 500.000000
0.260000 0.260000 0.290000 -95.274976 -55.016552 51.511035 500.000000
0.260000 0.090000 0.381508 -169.697174 82.375640 18.301558 500.000000
0.260000 0.260000 0.290000 -94.661678 -51.208026 52.685573 500.000000
