ply
format ascii 1.0
element vertex 240
property float x
property float y
property float z
property float vx
property float vy
property float vz
property float density
end_header
-0.260000 0.237609 0.290000 55.192966 29.521795 62.939550 500.000000
0.260000 0.260000 0.290000 -225.927712 -227.209730 81.101852 500.000000
-0.260000 0.260000 0.410000 93.821648 -86.252015 -74.619050 500.000000
-0.049128 0.260000 0.410000 -61.825579 -474.003442 -201.653701 500.000000
0.260000 0.260000 0.410000 -345.791193 -55.636166 -74.263046 500.000000
-0.260000 0.258160 0.290000 46.472000 33.631904 55.191951 500.000000
0.045584 0.168869 0.410000 42.798618 -18.226240 -55.087398 500.000000
-0.240720 0.260000 0.410000 -100.143995 -83.827359 -74.589906 500.000000
-0.260000 0.090000 0.410000 599.765925 74.261896 -30.601631 500.000000
0.260000 0.090000 0.290000 -571.876596 56.205372 36.115948 500.000000
0.260000 0.090000 0.410000 -93.965384 17.109861 -80.219596 500.000000
-0.260000 0.260000 0.290000 535.020402 -132.617878 71.234658 500.000000
0.260000 0.090000 0.410000 -95.238690 19.737464 -67.995797 500.000000
0.260000 0.260000 0.290000 -179.974143 -278.354173 109.060382 500.000000
0.260000 0.090000 0.410000 -100.084205 21.650284 -80.190220 500.000000
-0.260000 0.237167 0.290000 55.165017 29.433442 59.896394 500.000000
0.100360 0.233946 0.410000 -15.961993 14.392754 -96.766841 500.000000
0.260000 0.093598 0.410000 -94.182745 -33.280310 -72.782500 500.000000
0.260000 0.260000 0.290000 -192.236782 -225.218034 80.599408 500.000000
0.260000 0.161347 0.290000 -34.133941 -19.730505 26.768903 500.000000
-0.114357 0.090000 0.290000 -74.871357 67.521232 124.693798 500.000000
-0.207469 0.260000 0.410000 -54.540009 -33.333772 -22.091763 500.000000
-0.260000 0.260000 0.410000 107.392310 -84.412394 -128.489309 500.000000
-0.260000 0.260000 0.410000 95.395577 -85.564688 -75.427389 500.000000
0.260000 0.090000 0.290000 -515.924867 52.085612 15.219359 500.000000
-0.260000 0.260000 0.290000 354.579701 -55.178003 48.775919 500.000000
-0.240561 0.090000 0.389507 -64.900314 177.232657 18.210044 500.000000
0.260000 0.090000 0.410000 -98.906857 19.494715 -68.267473 500.000000
-0.260000 0.226273 0.410000 307.362635 27.254656 -252.687714 500.000000
0.260000 0.260000 0.410000 -88.417151 -29.643055 -50.424980 500.000000
0.260000 0.260000 0.290000 -185.894629 -225.938343 81.467968 500.000000
-0.260000 0.090000 0.410000 226.535401 934.548629 -151.516818 500.000000
-0.260000 0.260000 0.290000 304.975051 -55.385112 52.361042 500.000000
0.260000 0.090000 0.290000 -521.549122 51.192634 43.862064 500.000000
-0.260000 0.170806 0.290000 75.327362 -17.838889 28.456396 500.000000
0.260000 0.194306 0.410000 -68.594874 20.861299 -52.680817 500.000000
-0.260000 0.260000 0.290000 70.611428 -22.318823 56.710889 500.000000
-0.071511 0.090000 0.290000 -33.146956 9.569852 51.049095 500.000000
0.260000 0.090000 0.410000 -97.231697 21.887830 -79.667400 500.000000
-0.260000 0.227182 0.290000 55.575523 27.436302 58.640948 500.000000
0.260000 0.090000 0.410000 -98.148613 18.284536 -68.168496 500.000000
-0.260000 0.260000 0.290000 344.808404 -77.186152 54.767234 500.000000
-0.260000 0.090000 0.290000 251.278721 33.892438 14.825894 500.000000
-0.260000 0.225906 0.290000 55.269074 27.181270 58.004645 500.000000
-0.260000 0.090000 0.290000 84.202088 18.954111 99.104586 500.000000
0.260000 0.260000 0.290000 -277.069323 -30.323895 76.348494 500.000000
-0.260000 0.122743 0.290000 16.387648 -27.451369 28.900599 500.000000
0.260000 0.260000 0.410000 -29.162273 -32.852734 -14.596056 500.000000
0.260000 0.090000 0.290000 -185.342602 364.822998 120.316877 500.000000
-0.260000 0.260000 0.290000 424.102624 -53.934660 48.414005 500.000000
0.169347 0.090000 0.410000 5.816571 29.963628 -37.581599 500.000000
-0.134578 0.260000 0.290000 -18.546273 -60.440776 60.264601 500.000000
-0.260000 0.260000 0.410000 93.891517 -86.804893 -74.650430 500.000000
0.260000 0.260000 0.290000 -219.322933 -228.239324 87.805384 500.000000
-0.032069 0.183251 0.359208 3.079316 -5.096838 -3.983497 500.000000
0.260000 0.090000 0.410000 -129.730354 191.869100 -70.022017 500.000000
0.260000 0.090000 0.410000 -98.388880 28.680980 -67.848359 500.000000
0.260000 0.090000 0.290000 -560.992990 54.923834 21.828983 500.000000
-0.260000 0.260000 0.410000 93.897481 -85.964082 -74.600276 500.000000
-0.260000 0.260000 0.410000 92.263124 -95.426635 -79.431468 500.000000
0.260000 0.090000 0.410000 -113.968324 31.044729 -90.455550 500.000000
-0.033640 0.158818 0.336687 -58.727927 13.763635 -14.662581 500.000000
-0.260000 0.090000 0.290000 329.074528 24.902311 15.998937 500.000000
-0.260000 0.260000 0.410000 100.969955 -86.562272 -73.094140 500.000000
-0.260000 0.237182 0.290000 55.066605 29.436344 63.891079 500.000000
0.260000 0.189950 0.410000 -210.506557 19.989978 -74.825202 500.000000
-0.038998 0.090000 0.290000 -59.799595 49.172534 101.967573 500.000000
-0.260000 0.260000 0.410000 425.885957 -315.443631 -66.632568 500.000000
-0.260000 0.260000 0.290000 77.791550 -45.975498 473.417111 500.000000
-0.260000 0.260000 0.410000 97.059790 -62.747907 -44.952366 500.000000
0.260000 0.260000 0.336471 -23.747639 -10.966711 -14.705849 500.000000
-0.260000 0.260000 0.290000 294.519424 -44.787437 42.663375 500.000000
-0.260000 0.260000 0.410000 57.563989 -30.456806 -9.441669 500.000000
-0.260000 0.260000 0.290000 267.868324 -85.740344 50.242713 500.000000
0.260000 0.260000 0.290000 -365.956098 -236.698555 62.903925 500.000000
-0.260000 0.215518 0.290000 31.444642 25.103636 56.994192 500.000000
-0.164280 0.090000 0.410000 -84.856066 69.419603 -309.620226 500.000000
0.260000 0.090000 0.410000 -99.412591 21.973745 -79.501231 500.000000
-0.260000 0.090000 0.290000 265.210734 39.062105 15.221069 500.000000
-0.260000 0.260000 0.410000 85.484680 -85.963757 -75.126379 500.000000
-0.260000 0.090000 0.410000 227.758786 65.724902 -301.999931 500.000000
0.260000 0.260000 0.290000 -211.514601 -228.547812 81.969296 500.000000
-0.003355 0.090000 0.410000 -52.671017 573.784761 -25.444871 500.000000
-0.260000 0.260000 0.410000 93.912164 -85.971806 -74.592691 500.000000
-0.260000 0.090000 0.410000 371.246704 26.320644 -18.076773 500.000000
0.260000 0.252276 0.410000 -163.300442 32.455129 -79.235126 500.000000
0.260000 0.260000 0.410000 -1268.804058 -81.943548 -63.410060 500.000000
-0.037701 0.090000 0.290000 -20.299234 28.149379 24.737381 500.000000
0.260000 0.260000 0.290000 -229.965801 -228.356893 87.210061 500.000000
0.260000 0.090000 0.410000 -93.174102 22.064318 -80.688600 500.000000
0.260000 0.090000 0.410000 -107.382542 23.430273 -79.622214 500.000000
-0.260000 0.260000 0.410000 100.403728 -86.906529 -73.296553 500.000000
-0.260000 0.090000 0.391469 27.107825 197.887884 20.293800 500.000000
-0.260000 0.260000 0.410000 348.688893 -17.688553 -94.580159 500.000000
-0.260000 0.090000 0.290000 595.466039 18.247948 15.634434 500.000000
0.260000 0.090000 0.290000 -99.096569 346.150525 45.664675 500.000000
0.260000 0.090000 0.290000 -533.308756 52.114276 15.647101 500.000000
-0.260000 0.260000 0.410000 75.708964 -49.312768 -15.226402 500.000000
0.084636 0.090000 0.410000 -35.072763 952.543480 -41.186226 500.000000
0.260000 0.090000 0.410000 -95.236665 21.039207 -79.534309 500.000000
0.260000 0.090000 0.410000 -59.678181 62.890425 -227.086956 500.000000
-0.260000 0.090000 0.290000 395.362187 19.098609 18.887899 500.000000
-0.260000 0.090000 0.290000 64.288803 23.998157 141.753949 500.000000
-0.260000 0.260000 0.410000 93.860914 -86.504954 -75.072816 500.000000
0.260000 0.090000 0.290000 -72.184715 72.530950 10.658188 500.000000
0.260000 0.090000 0.410000 -96.831087 18.269754 -68.259283 500.000000
0.001791 0.172697 0.410000 12.680881 -17.460604 -38.133345 500.000000
-0.260000 0.260000 0.410000 58.157195 -85.950984 -75.141697 500.000000
0.260000 0.090000 0.410000 -93.473257 22.061258 -80.005356 500.000000
-0.260000 0.260000 0.410000 92.063508 -88.209840 -71.144947 500.000000
-0.260000 0.189811 0.410000 312.585876 19.962212 -512.817708 500.000000
0.260000 0.090000 0.340053 -505.903957 180.481654 -13.989409 500.000000
-0.260000 0.090000 0.410000 18.776268 127.026176 -48.145685 500.000000
0.260000 0.260000 0.290000 -459.558424 -700.502467 38.930050 500.000000
-0.260000 0.260000 0.410000 68.884599 -143.533365 -105.144870 500.000000
-0.163937 0.090000 0.410000 -84.787307 65.721432 -309.265701 500.000000
-0.260000 0.260000 0.410000 70.044212 -145.756088 -80.254438 500.000000
0.260000 0.090000 0.290000 -87.510122 567.083768 38.662495 500.000000
-0.054873 0.219061 0.290000 -12.747606 25.812212 17.356585 500.000000
-0.260000 0.202423 0.410000 330.706550 22.484524 -51.443357 500.000000
-0.260000 0.260000 0.410000 93.497553 -84.327023 -74.601406 500.000000
0.260000 0.192526 0.410000 -186.629789 20.505198 -74.823840 500.000000
0.260000 0.090000 0.290000 -123.361749 471.837271 78.544346 500.000000
-0.260000 0.260000 0.410000 93.919863 -85.978853 -74.865690 500.000000
-0.260000 0.090000 0.290000 537.254301 18.769137 15.639548 500.000000
-0.244700 0.090000 0.290000 -100.940095 41.580171 254.708183 500.000000
-0.069393 0.090000 0.290000 -65.878563 176.621570 82.965382 500.000000
-0.260000 0.090000 0.410000 72.466731 66.398976 -312.563836 500.000000
0.116867 0.090000 0.290000 -28.626503 46.831026 52.832383 500.000000
-0.260000 0.090000 0.290000 131.146370 59.629260 14.113317 500.000000
-0.171917 0.090000 0.410000 -21.751541 18.251699 -10.432465 500.000000
-0.073211 0.090000 0.290000 -66.642135 42.460913 425.884090 500.000000
-0.260000 0.260000 0.410000 79.403270 -101.169242 -314.494769 500.000000
-0.260000 0.106555 0.290000 772.896174 -30.689013 15.468545 500.000000
0.260000 0.090000 0.290000 -109.696748 36.495718 798.261314 500.000000
0.260000 0.090000 0.410000 -340.894398 43.844043 -65.283637 500.000000
0.260000 0.158214 0.410000 -260.489325 -20.357269 -81.334554 500.000000
-0.260000 0.260000 0.410000 70.213165 -103.108140 -250.861581 500.000000
0.129982 0.090000 0.290000 -26.003594 46.807548 117.806157 500.000000
0.260000 0.260000 0.410000 -145.158931 -135.144048 -605.949743 500.000000
-0.260000 0.090000 0.290000 74.757951 44.465926 181.754177 500.000000
-0.161864 0.090000 0.410000 -84.372785 65.703606 -309.612635 500.000000
0.260000 0.090000 0.290000 -77.897233 17.921563 781.368405 500.000000
-0.260000 0.260000 0.290000 54.107553 -29.983800 59.884961 500.000000
0.208672 0.090000 0.410000 35.149827 60.091369 -46.214632 500.000000
-0.260000 0.222322 0.290000 55.491922 26.464335 58.213233 500.000000
-0.260000 0.260000 0.290000 470.370891 -165.860574 79.543340 500.000000
-0.117257 0.090000 0.290000 -75.451392 46.276341 59.411045 500.000000
0.151438 0.090000 0.410000 -21.712438 48.630332 -82.039438 500.000000
-0.260000 0.179400 0.410000 266.102038 17.880090 -347.310717 500.000000
-0.042110 0.090000 0.410000 -60.421954 63.230387 -301.601212 500.000000
-0.260000 0.260000 0.306197 24.788693 -17.586126 -20.760623 500.000000
-0.260000 0.260000 0.410000 59.719223 -100.478609 -75.519135 500.000000
-0.260000 0.090000 0.290000 53.408397 42.699655 22.406003 500.000000
0.260000 0.260000 0.410000 -362.019030 -55.583875 -74.249755 500.000000
0.260000 0.260000 0.311068 -83.842427 -30.991161 -12.398702 500.000000
-0.260000 0.260000 0.290000 112.162144 -83.224782 1191.638945 500.000000
-0.260000 0.090000 0.290000 31.159737 20.498621 31.580407 500.000000
0.260000 0.090000 0.290000 -514.854605 53.404175 15.861004 500.000000
-0.260000 0.260000 0.290000 256.299433 -60.417551 30.627257 500.000000
0.260000 0.260000 0.410000 -333.214038 -55.681990 -74.273717 500.000000
-0.260000 0.144933 0.290000 54.517887 -23.013439 21.474502 500.000000
-0.260000 0.260000 0.410000 98.094719 -86.510912 -74.953518 500.000000
-0.260000 0.260000 0.410000 93.182428 -69.620907 -24.731879 500.000000
-0.260000 0.090342 0.290000 675.306638 -33.931526 15.560494 500.000000
-0.260000 0.090000 0.410000 305.917786 22.754715 -26.193357 500.000000
0.260000 0.260000 0.290000 -76.950640 -35.751523 365.032497 500.000000
-0.260000 0.260000 0.410000 93.865619 -85.967029 -74.619940 500.000000
0.260000 0.183341 0.290000 -118.335217 18.668252 416.401654 500.000000
0.151468 0.090000 0.290000 82.293685 63.843010 87.305404 500.000000
-0.260000 0.189671 0.290000 285.046543 19.934179 53.752604 500.000000
0.260000 0.092521 0.410000 -48.038482 -33.495778 -25.906685 500.000000
0.260000 0.090000 0.410000 -97.956094 25.395018 -65.801780 500.000000
0.260000 0.260000 0.290000 -176.418663 -226.900619 81.035984 500.000000
-0.188372 0.260000 0.410000 -31.099504 -74.702532 -31.422406 500.000000
0.260000 0.166321 0.410000 -101.698323 -18.735843 -61.095474 500.000000
-0.260000 0.260000 0.410000 93.882436 -84.879478 -73.913681 500.000000
-0.260000 0.260000 0.290000 75.785313 -84.229537 403.285068 500.000000
-0.260000 0.129367 0.290000 91.710475 -26.126679 64.581275 500.000000
0.260000 0.138517 0.365142 -39.708826 9.703417 -8.971522 500.000000
0.260000 0.090000 0.410000 -93.186606 23.012284 -79.501359 500.000000
-0.260000 0.260000 0.410000 54.083100 -100.371129 -74.527183 500.000000
-0.260000 0.260000 0.410000 136.262131 -406.378754 -70.411662 500.000000
-0.082552 0.260000 0.290000 -68.510429 -27.818461 60.139660 500.000000
0.260000 0.090000 0.410000 -97.193628 22.814413 -79.671260 500.000000
0.260000 0.260000 0.290000 -177.176461 -225.996189 79.461599 500.000000
-0.260000 0.090000 0.410000 57.918689 68.378674 -309.448875 500.000000
0.260000 0.260000 0.410000 -203.915774 -49.450118 -71.534157 500.000000
-0.235991 0.090000 0.290000 -9.651419 20.838624 27.142701 500.000000
0.197067 0.260000 0.410000 29.241673 -71.573277 -12.668940 500.000000
0.260000 0.090000 0.290000 -144.140600 411.978590 44.525910 500.000000
-0.260000 0.090000 0.290000 80.382730 65.112156 187.784252 500.000000
-0.260000 0.090000 0.290000 42.677559 17.014551 27.295592 500.000000
-0.260000 0.090000 0.290000 231.846609 103.305272 61.480638 500.000000
-0.260000 0.260000 0.290000 58.191614 -30.593223 58.535664 500.000000
0.260000 0.260000 0.410000 -62.083789 -75.204533 -13.837602 500.000000
-0.260000 0.090000 0.290000 459.311683 19.045778 15.110266 500.000000
0.260000 0.260000 0.410000 -379.344478 -55.529955 -74.277095 500.000000
0.260000 0.090000 0.290000 -506.223905 54.165819 43.363292 500.000000
-0.260000 0.090000 0.290000 91.284633 40.961695 338.631458 500.000000
0.260000 0.189273 0.410000 -172.376208 19.854571 -71.221549 500.000000
-0.098074 0.142842 0.290000 -48.011630 -23.431529 45.015969 500.000000
0.260000 0.090000 0.410000 -99.102177 19.343019 -177.837319 500.000000
0.260000 0.090000 0.410000 -115.469053 28.942242 -76.111656 500.000000
-0.260000 0.259247 0.290000 62.128362 33.849317 57.778511 500.000000
0.260000 0.090000 0.290000 -521.248968 55.222641 16.889295 500.000000
0.260000 0.090000 0.290000 -525.844161 54.811984 52.329587 500.000000
-0.260000 0.090000 0.290000 388.138207 22.093601 15.648476 500.000000
-0.260000 0.090000 0.410000 56.029762 71.004310 -298.763094 500.000000
-0.039334 0.260000 0.410000 -32.920314 -118.255969 -24.919192 500.000000
0.260000 0.090000 0.410000 -94.651071 22.074224 -67.968449 500.000000
-0.260000 0.090000 0.410000 31.275961 46.947760 -45.357118 500.000000
-0.260000 0.260000 0.410000 93.981229 -85.980624 -74.616532 500.000000
-0.260000 0.260000 0.410000 70.731361 -84.836768 -79.595555 500.000000
0.260000 0.260000 0.290000 -207.129572 -228.461449 86.430988 500.000000
-0.260000 0.155806 0.290000 257.626862 -20.838872 22.239128 500.000000
-0.215230 0.090000 0.290000 -95.045982 42.005500 513.022292 500.000000
0.260000 0.260000 0.290000 -235.494692 -228.397638 83.143592 500.000000
0.260000 0.090000 0.290000 -515.680967 53.016000 15.975402 500.000000
0.260000 0.260000 0.410000 -213.278472 -51.310801 -71.755416 500.000000
0.260000 0.090000 0.290000 -532.245280 61.722211 15.624845 500.000000
0.260000 0.260000 0.410000 -179.692754 -50.165684 -71.628305 500.000000
-0.260000 0.260000 0.410000 93.835962 -85.980208 -74.574411 500.000000
-0.260000 0.260000 0.410000 96.656320 -90.726344 -69.912759 500.000000
-0.260000 0.107151 0.290000 857.833761 -30.569875 15.221224 500.000000
-0.193792 0.260000 0.290000 -45.386923 -103.039305 33.181211 500.000000
-0.260000 0.090000 0.410000 71.036118 66.102835 -310.162153 500.000000
-0.260000 0.090000 0.290000 211.909114 52.313821 16.891148 500.000000
-0.260000 0.237145 0.290000 55.072659 29.429023 62.277677 500.000000
-0.028087 0.233848 0.290000 -41.548345 28.769612 18.700655 500.000000
-0.260000 0.090000 0.290000 69.845088 40.847574 597.859984 500.000000
-0.260000 0.090000 0.290000 761.155636 17.889239 15.630635 500.000000
-0.195540 0.191494 0.290000 -91.108002 20.298830 55.353259 500.000000
0.260000 0.090000 0.410000 -94.898915 20.415667 -67.995773 500.000000
0.260000 0.090000 0.290000 -143.839381 555.852144 61.623597 500.000000
-0.260000 0.090000 0.410000 716.950584 23.384045 -51.966387 500.000000
0.098146 0.230071 0.410000 71.629173 28.014218 -49.190818 500.000000
-0.260000 0.260000 0.290000 130.279289 -88.478196 122.525144 500.000000
0.260000 0.090000 0.290000 -146.742418 452.168448 70.314055 500.000000
0.260000 0.223535 0.290000 -55.232792 26.707046 53.784108 500.000000
