ply
format ascii 1.0
element vertex 240
property float x
property float y
property float z
property float vx
property float vy
property float vz
property float density
end_header
-0.260000 0.137025 0.410000 51.750187 -24.595049 -17.585657 500.000000
-0.260000 0.260000 0.410000 269.313325 -61.013697 -21.637871 500.000000
-0.260000 0.176497 0.290000 60.478629 -16.700625 71.332866 500.000000
-0.260000 0.090000 0.290000 62.821354 66.658638 86.062314 500.000000
0.260000 0.127414 0.410000 -117.480043 -26.517166 -94.780875 500.000000
-0.260000 0.260000 0.410000 63.450052 -46.283721 -16.551696 500.000000
-0.002460 0.090000 0.410000 -52.491907 58.333321 -24.263057 500.000000
0.260000 0.090000 0.290000 -38.797021 41.785373 59.644450 500.000000
-0.075915 0.260000 0.290000 -67.182998 -21.638339 26.254171 500.000000
-0.260000 0.090000 0.410000 80.487537 34.373676 -40.227026 500.000000
0.035543 0.090000 0.290000 59.108663 31.570215 56.707340 500.000000
0.041386 0.090000 0.290000 60.277293 28.172333 56.550175 500.000000
0.103068 0.090000 0.400424 -6.472687 9.393053 22.084886 500.000000
-0.260000 0.187814 0.410000 96.266504 19.562856 -26.885330 500.000000
0.260000 0.090000 0.290000 -96.239539 297.845226 36.580910 500.000000
-0.260000 0.090000 0.410000 52.933683 52.318462 -117.102969 500.000000
0.260000 0.090000 0.290000 -62.989098 55.977414 56.508406 500.000000
-0.260000 0.090000 0.410000 80.622741 33.671317 -40.264349 500.000000
-0.113225 0.260000 0.290000 -74.644926 -56.951408 26.873287 500.000000
0.061630 0.090000 0.290000 64.325939 28.042286 56.698163 500.000000
-0.260000 0.090000 0.410000 628.798382 58.064428 -50.816492 500.000000
0.260000 0.121264 0.410000 -81.631974 -27.747277 -95.126514 500.000000
0.260000 0.238245 0.410000 -110.304037 29.649070 -37.065071 500.000000
0.260000 0.168856 0.410000 -56.911001 -18.228892 -99.532710 500.000000
-0.239868 0.253883 0.410000 -58.252649 32.776626 -38.131378 500.000000
-0.260000 0.090000 0.410000 31.258449 20.196156 -202.726138 500.000000
0.260000 0.090000 0.410000 -53.815394 44.742054 -103.107778 500.000000
-0.260000 0.186485 0.410000 48.184880 -14.703002 -48.251025 500.000000
-0.071767 0.090000 0.410000 -66.353393 27.601767 -229.284686 500.000000
0.260000 0.154895 0.410000 -97.279089 -21.021050 -94.061225 500.000000
-0.133199 0.252115 0.290000 -25.149397 32.422987 387.358870 500.000000
-0.260000 0.260000 0.410000 85.646675 -66.660017 -14.737203 500.000000
-0.260000 0.260000 0.360488 26.046557 -120.873118 14.097555 500.000000
0.260000 0.090000 0.410000 -50.484058 75.174224 -30.333110 500.000000
0.260000 0.090000 0.290000 -68.995644 67.555613 30.509173 500.000000
0.136301 0.090000 0.290000 79.260227 60.951463 63.736054 500.000000
-0.260000 0.260000 0.290000 67.484354 -52.673977 46.144920 500.000000
-0.228642 0.090000 0.410000 -97.728430 225.324501 -24.724174 500.000000
-0.260000 0.260000 0.290000 54.687039 -23.666038 25.703848 500.000000
-0.260000 0.090000 0.410000 82.823902 37.637750 -39.733875 500.000000
0.184487 0.090000 0.290000 88.897386 125.141868 36.596115 500.000000
-0.260000 0.090000 0.410000 77.209035 34.525790 -40.057813 500.000000
0.260000 0.090000 0.290000 -53.302126 80.248204 39.591788 500.000000
0.260000 0.124038 0.410000 -68.652568 -27.192470 -95.645135 500.000000
-0.167870 0.260000 0.290000 -85.574066 -28.171150 50.167958 500.000000
-0.149853 0.203858 0.365256 -1.824172 22.771685 15.051298 500.000000
0.260000 0.225888 0.410000 -64.450336 27.177653 -42.127934 500.000000
0.260000 0.242217 0.367109 -26.744162 30.443479 15.421831 500.000000
-0.260000 0.260000 0.366008 97.161236 -51.083904 15.201684 500.000000
0.260000 0.136659 0.410000 -89.812467 -24.668296 -91.747540 500.000000
0.260000 0.090000 0.410000 -91.292807 125.405313 -52.106050 500.000000
-0.260000 0.260000 0.290000 66.250387 -53.722849 26.697017 500.000000
-0.240010 0.260000 0.290000 -100.002050 -42.437414 30.650953 500.000000
-0.100140 0.090000 0.290000 -36.939797 66.633363 37.023749 500.000000
-0.244942 0.260000 0.410000 -71.745855 -30.200131 -37.071942 500.000000
-0.260000 0.260000 0.404274 76.084479 -82.513717 22.854788 500.000000
-0.260000 0.090000 0.410000 82.794325 30.014930 -47.005154 500.000000
0.260000 0.090000 0.410000 -83.754031 39.038380 -98.155765 500.000000
-0.260000 0.260000 0.410000 53.441345 -53.008254 -50.075112 500.000000
0.260000 0.214582 0.410000 -73.450302 24.916495 -56.280109 500.000000
-0.260000 0.260000 0.290000 79.862954 -18.730149 43.786584 500.000000
0.160459 0.260000 0.290000 84.091790 -186.595625 39.788944 500.000000
-0.260000 0.260000 0.373503 58.075555 -127.628410 16.700501 500.000000
-0.260000 0.260000 0.290000 89.622139 -60.627951 36.251381 500.000000
0.260000 0.260000 0.290000 -53.624027 -55.971483 128.501518 500.000000
-0.260000 0.260000 0.410000 70.196819 -71.806234 -570.913695 500.000000
0.260000 0.090000 0.290000 -50.430062 67.694626 36.734352 500.000000
-0.016087 0.090000 0.410000 -55.217497 38.663112 -17.349593 500.000000
-0.192269 0.090000 0.410000 -90.453870 33.479579 -25.466256 500.000000
0.094115 0.090000 0.290000 70.822964 37.309348 55.462930 500.000000
0.128085 0.090000 0.410000 38.863765 109.078388 -14.525901 500.000000
-0.260000 0.090000 0.410000 24.291820 56.258174 -346.195371 500.000000
0.260000 0.247143 0.410000 -63.247672 31.428589 -37.060661 500.000000
-0.260000 0.090000 0.290000 73.949688 66.163641 86.380648 500.000000
-0.200188 0.090000 0.290000 -44.296680 86.181215 14.000570 500.000000
-0.260000 0.260000 0.290000 57.539707 -22.941257 25.704109 500.000000
0.078539 0.260000 0.290000 67.707705 -49.167164 36.624914 500.000000
-0.260000 0.090000 0.290000 42.540810 108.134224 119.858428 500.000000
0.260000 0.090000 0.290000 -77.068059 37.970293 36.627390 500.000000
-0.260000 0.260000 0.410000 22.444308 -109.408444 -25.378449 500.000000
-0.260000 0.090000 0.410000 121.793450 117.634019 -38.390913 500.000000
-0.260000 0.090000 0.290000 40.076069 55.791235 52.418582 500.000000
-0.260000 0.090000 0.290000 98.039923 27.230841 69.077250 500.000000
-0.260000 0.090000 0.290000 61.782511 45.423837 86.947438 500.000000
-0.260000 0.090000 0.410000 72.214252 34.976459 -36.655225 500.000000
-0.260000 0.090000 0.290000 83.103763 40.849154 79.901402 500.000000
0.260000 0.260000 0.410000 -86.321608 -138.580932 -58.407574 500.000000
0.202776 0.260000 0.290000 52.652759 -39.427271 47.816866 500.000000
-0.173036 0.260000 0.290000 -86.607267 -98.470468 26.471916 500.000000
0.260000 0.090000 0.410000 -58.828092 130.515964 -93.616851 500.000000
0.184434 0.146710 0.290000 88.886812 -22.658093 482.488410 500.000000
-0.260000 0.090000 0.290000 64.998664 66.701463 86.118971 500.000000
-0.260000 0.239201 0.410000 60.728594 29.840290 -42.215837 500.000000
-0.107414 0.090000 0.410000 -73.482760 28.292816 -26.059918 500.000000
0.260000 0.119493 0.410000 -55.278994 -28.101469 -96.011905 500.000000
0.178542 0.149658 0.290000 39.706412 11.931507 18.283441 500.000000
-0.260000 0.090000 0.410000 74.732343 29.848658 -35.617702 500.000000
-0.260000 0.090000 0.410000 64.861032 27.966812 -22.964549 500.000000
-0.243370 0.260000 0.290000 -100.673941 -25.258306 27.460699 500.000000
-0.260000 0.090000 0.410000 53.133036 71.425500 -22.391974 500.000000
-0.260000 0.105994 0.410000 79.761061 -30.801239 -122.457325 500.000000
0.169267 0.260000 0.290000 85.853394 -223.038732 37.639840 500.000000
-0.260000 0.231884 0.410000 98.090450 28.376852 -41.559951 500.000000
-0.260000 0.090000 0.290000 59.807960 27.988735 176.954138 500.000000
-0.260000 0.260000 0.290000 91.685584 -26.698060 38.657242 500.000000
-0.129854 0.260000 0.290000 -77.970804 -21.293913 25.785218 500.000000
0.048794 0.090000 0.290000 61.758796 447.723201 40.993372 500.000000
0.030567 0.090000 0.290000 58.113475 28.774950 56.548969 500.000000
-0.024478 0.090000 0.410000 3.749023 95.517697 -33.850943 500.000000
0.151647 0.260000 0.290000 82.329498 -246.443395 29.813949 500.000000
0.031614 0.090000 0.290000 -45.677298 412.855696 18.507562 500.000000
-0.134607 0.260000 0.290000 -78.921337 -115.878741 26.332021 500.000000
-0.260000 0.260000 0.290000 151.182055 -25.097867 28.783794 500.000000
-0.260000 0.090000 0.290000 67.395952 28.500369 157.842247 500.000000
-0.122246 0.260000 0.290000 -76.449227 -37.814839 26.402464 500.000000
-0.260000 0.260000 0.290000 52.024613 -22.933232 25.675603 500.000000
0.260000 0.158850 0.410000 -119.029403 -20.229957 -93.214171 500.000000
-0.256362 0.260000 0.290000 -103.272323 -106.281408 26.823117 500.000000
-0.260000 0.260000 0.290000 67.055194 -22.944517 25.715516 500.000000
0.257061 0.090000 0.290000 103.412121 58.168059 107.122998 500.000000
0.260000 0.260000 0.410000 -18.287870 -119.823996 -400.958131 500.000000
-0.260000 0.260000 0.290000 14.924153 -37.078700 36.306819 500.000000
0.260000 0.090000 0.410000 -57.816128 188.369323 -93.075240 500.000000
0.260000 0.260000 0.410000 -115.136222 -75.428701 -60.587311 500.000000
0.260000 0.103455 0.290000 -339.972531 -31.309025 71.986096 500.000000
0.260000 0.090000 0.410000 -82.392872 43.162722 -99.708962 500.000000
0.260000 0.090000 0.410000 -144.180653 30.085892 -101.930513 500.000000
-0.197425 0.260000 0.290000 -91.485078 -23.554570 26.505054 500.000000
0.260000 0.098371 0.410000 -91.207748 -32.325786 -101.774311 500.000000
0.260000 0.120481 0.410000 -139.276347 -27.903899 -307.371515 500.000000
-0.260000 0.090000 0.410000 53.224040 22.025709 -44.727581 500.000000
0.260000 0.090000 0.290000 -330.810890 71.979802 883.553909 500.000000
-0.260000 0.260000 0.408635 90.786791 -93.022477 23.726969 500.000000
0.260000 0.090000 0.290000 -86.248909 369.774421 37.609889 500.000000
-0.204642 0.260000 0.290000 -92.928388 -111.940575 26.464932 500.000000
0.260000 0.260000 0.290000 -70.516853 -222.426494 39.966789 500.000000
0.260000 0.090000 0.410000 -53.811556 55.143187 -412.817678 500.000000
-0.129319 0.090000 0.410000 -77.863724 43.294542 -24.571703 500.000000
-0.229874 0.260000 0.290000 -97.974843 -25.290198 27.351761 500.000000
0.260000 0.095926 0.410000 -86.901456 -32.814825 -103.318455 500.000000
-0.152537 0.237423 0.410000 -69.566397 29.484671 -37.328143 500.000000
0.260000 0.235920 0.410000 -297.052964 29.183982 -37.054403 500.000000
-0.260000 0.260000 0.290000 76.367811 -22.950380 25.727484 500.000000
-0.069808 0.090000 0.290000 22.103297 21.332263 40.492233 500.000000
-0.260000 0.260000 0.290000 83.604414 -22.966593 25.774956 500.000000
0.260000 0.090000 0.290000 -41.658600 43.390762 33.303690 500.000000
0.260000 0.136650 0.290000 -66.993161 -24.669925 656.235106 500.000000
0.143904 0.260000 0.290000 80.780753 -207.911879 36.847015 500.000000
0.054147 0.260000 0.410000 23.345516 -27.484078 -103.566003 500.000000
-0.260000 0.090000 0.290000 37.228164 12.376502 36.888019 500.000000
-0.260000 0.182857 0.410000 147.133169 18.571325 -64.346074 500.000000
-0.069212 0.246339 0.290000 -17.701370 31.267808 31.929996 500.000000
0.260000 0.146619 0.410000 -79.198766 -22.676178 -91.696839 500.000000
-0.196884 0.260000 0.290000 -91.376897 -22.241017 94.920532 500.000000
-0.122567 0.260000 0.290000 -76.513346 -51.447388 26.889465 500.000000
-0.116131 0.260000 0.290000 -75.226203 -59.727730 28.490453 500.000000
-0.260000 0.090000 0.290000 170.026232 23.544579 58.374994 500.000000
0.260000 0.090000 0.410000 -55.196644 148.676047 -93.005243 500.000000
0.260000 0.260000 0.410000 -77.518416 -27.541708 -57.196916 500.000000
0.260000 0.260000 0.410000 -144.949238 -24.783134 -43.132073 500.000000
0.169091 0.260000 0.290000 -18.181776 -112.495147 238.695148 500.000000
-0.260000 0.090000 0.290000 40.891316 55.243444 51.578687 500.000000
-0.260000 0.260000 0.357805 66.589354 -115.674411 13.560905 500.000000
0.260000 0.260000 0.410000 -75.471934 -108.751017 -18.144473 500.000000
-0.260000 0.090000 0.410000 57.185182 130.637851 -14.354127 500.000000
0.260000 0.260000 0.341611 -32.603873 -43.399944 10.322233 500.000000
0.260000 0.090000 0.290000 -55.133356 67.422167 36.556978 500.000000
-0.155886 0.260000 0.290000 -83.177204 -21.446873 124.373877 500.000000
0.151298 0.258719 0.410000 25.890796 33.743780 -46.561949 500.000000
0.260000 0.090000 0.290000 -100.868183 109.478215 36.773968 500.000000
-0.260000 0.090000 0.290000 85.951403 21.726561 55.501545 500.000000
0.198482 0.090000 0.290000 91.696340 28.074702 54.503421 500.000000
0.260000 0.260000 0.290000 -237.349863 -200.655172 33.126834 500.000000
0.260000 0.260000 0.410000 -190.415693 -17.623908 -48.705782 500.000000
-0.260000 0.260000 0.410000 74.598538 -22.996960 -18.230754 500.000000
-0.260000 0.090000 0.410000 78.363243 40.092242 -36.452400 500.000000
0.260000 0.260000 0.290000 -662.408653 -185.033034 16.954902 500.000000
-0.260000 0.260000 0.366821 44.884756 -18.097944 15.364137 500.000000
-0.260000 0.188146 0.408560 64.355544 19.629243 23.712083 500.000000
-0.260000 0.260000 0.366185 98.343992 -108.810275 15.237086 500.000000
0.260000 0.090000 0.290000 -25.302741 66.333347 31.582360 500.000000
-0.260000 0.189605 0.410000 233.036148 19.920911 -12.419384 500.000000
-0.260000 0.260000 0.410000 108.283380 -87.306794 -37.438447 500.000000
-0.260000 0.090000 0.290000 86.658177 29.388251 185.846868 500.000000
-0.251253 0.260000 0.290000 -102.250553 -25.192276 25.557076 500.000000
0.175848 0.090000 0.290000 87.169538 56.207816 68.714980 500.000000
-0.001885 0.260000 0.290000 -52.376955 -47.252702 73.226987 500.000000
-0.260000 0.090000 0.290000 34.759430 17.809986 42.985968 500.000000
-0.172925 0.260000 0.410000 -24.067504 -120.980147 -22.518162 500.000000
0.260000 0.260000 0.290000 -140.749135 -218.281315 31.357873 500.000000
-0.260000 0.090000 0.410000 79.872001 33.650942 -40.171987 500.000000
0.260000 0.260000 0.290000 -108.839104 -120.026240 268.114905 500.000000
-0.260000 0.221897 0.410000 93.251694 26.379368 -38.589911 500.000000
-0.098321 0.260000 0.290000 -71.664123 -21.960375 35.240496 500.000000
-0.120994 0.260000 0.290000 -76.198833 -53.513673 26.957623 500.000000
0.260000 0.090000 0.290000 -66.158057 211.383807 36.693356 500.000000
-0.166627 0.090000 0.410000 -85.325349 40.902111 -23.050781 500.000000
0.260000 0.090000 0.410000 -94.262258 30.792887 -16.681319 500.000000
0.260000 0.260000 0.290000 -37.277715 -290.805806 28.115511 500.000000
0.260000 0.090000 0.366261 -25.625021 36.041321 15.252205 500.000000
0.086806 0.260000 0.410000 4.642259 -20.805320 -37.428758 500.000000
0.104080 0.090000 0.316133 4.880543 11.626059 -18.773499 500.000000
0.260000 0.260000 0.290000 -55.321130 -135.074529 36.593887 500.000000
0.048041 0.090000 0.410000 3.627345 30.120173 -119.381997 500.000000
-0.260000 0.260000 0.290000 62.288734 -26.226819 28.629648 500.000000
-0.260000 0.260000 0.290000 78.164441 -50.566691 147.190334 500.000000
-0.260000 0.260000 0.381242 83.247667 -143.830365 18.248359 500.000000
-0.260000 0.260000 0.410000 119.520428 -25.798921 -42.049644 500.000000
0.055359 0.090000 0.290000 63.071873 28.857810 56.611897 500.000000
-0.140293 0.260000 0.290000 -80.058526 -52.014644 26.899886 500.000000
0.260000 0.260000 0.410000 -172.358733 -109.434308 -52.359167 500.000000
0.260000 0.260000 0.410000 -297.957956 -30.098730 -308.565242 500.000000
-0.260000 0.182352 0.290000 127.278593 18.470408 34.304769 500.000000
0.260000 0.137323 0.410000 -52.925831 -24.535404 -96.359554 500.000000
0.260000 0.110470 0.410000 -61.505099 -29.905950 -98.370316 500.000000
-0.260000 0.260000 0.410000 125.148676 -19.008763 -14.502256 500.000000
-0.260000 0.090000 0.410000 78.326368 33.318476 -42.508900 500.000000
0.222309 0.090000 0.290000 96.461817 54.980746 54.300555 500.000000
0.094655 0.090000 0.342199 -0.463811 90.702093 10.439857 500.000000
-0.260000 0.090000 0.410000 89.839139 31.356247 -50.339486 500.000000
0.085067 0.090000 0.410000 -34.986500 50.747782 -33.247465 500.000000
0.260000 0.231281 0.410000 -246.675354 28.256127 -43.807664 500.000000
0.260000 0.260000 0.410000 -112.023198 -268.586302 -14.432955 500.000000
-0.187282 0.249228 0.290000 -47.448084 31.845681 33.791134 500.000000
0.176486 0.090000 0.410000 87.297254 39.175825 -98.151366 500.000000
-0.260000 0.149843 0.290000 53.067417 -22.031369 131.153427 500.000000
0.109107 0.260000 0.410000 7.111452 -24.681060 -36.712428 500.000000
-0.260000 0.090000 0.290000 78.474582 21.858230 55.814908 500.000000
0.260000 0.260000 0.410000 -106.963493 -130.852875 -145.822296 500.000000
-0.260000 0.090000 0.410000 130.803736 33.588685 -333.610800 500.000000
0.260000 0.090000 0.410000 -75.803491 134.300898 -32.142148 500.000000
-0.141124 0.090000 0.290000 -42.415790 75.108638 10.213857 500.000000
0.045159 0.090000 0.290000 61.031730 137.544376 39.162651 500.000000
-0.184685 0.260000 0.290000 -88.936921 -22.915969 25.694162 500.000000
-0.260000 0.090000 0.378445 21.592279 70.602839 17.688981 500.000000
0.260000 0.090000 0.290000 -57.281849 52.212336 55.504334 500.000000
-0.260000 0.260000 0.290000 52.099160 -25.304014 27.225225 500.000000
-0.256622 0.260000 0.290000 -103.324397 -23.035267 29.997461 500.000000
0.260000 0.090000 0.410000 -52.531538 106.249816 -93.029985 500.000000
-0.127780 0.260000 0.290000 -77.556032 -44.183586 27.734815 500.000000
