ply
format ascii 1.0
element vertex 240
property float x
property float y
property float z
property float vx
property float vy
property float vz
property float density
end_header
-0.260000 0.090000 0.410000 75.180721 102.111231 -240.156473 500.000000
-0.063267 0.260000 0.410000 -64.653422 -29.412832 -89.307637 500.000000
-0.085919 0.090000 0.290000 -69.183838 28.082900 17.226608 500.000000
0.260000 0.090000 0.290000 -53.255162 103.258879 189.788898 500.000000
-0.260000 0.090000 0.410000 109.909101 25.590040 -21.468727 500.000000
0.260000 0.090000 0.410000 -160.260569 25.028579 -45.953016 500.000000
-0.064406 0.253976 0.410000 -64.881160 32.795164 -87.563628 500.000000
-0.198855 0.260000 0.410000 -35.303812 -37.770696 -20.267497 500.000000
0.260000 0.260000 0.290000 -72.031138 -140.212008 22.043339 500.000000
-0.260000 0.090000 0.410000 355.077406 64.011003 -44.842578 500.000000
0.141283 0.090000 0.290000 80.256650 301.155515 196.637131 500.000000
0.124795 0.090000 0.290000 76.959060 83.293960 186.560508 500.000000
-0.260000 0.260000 0.290000 113.368288 -19.860106 31.220893 500.000000
-0.203082 0.090000 0.410000 -92.616339 102.679836 -527.954451 500.000000
-0.260000 0.260000 0.290000 112.817044 -20.246646 28.696657 500.000000
-0.260000 0.090000 0.290000 123.713193 219.950916 75.536994 500.000000
0.116813 0.090000 0.290000 75.362672 134.453757 194.427368 500.000000
-0.260000 0.090000 0.410000 363.745780 18.980367 -47.235459 500.000000
-0.260000 0.090000 0.290000 128.146045 35.664899 192.722921 500.000000
0.131058 0.090000 0.290000 78.211695 74.955041 196.049015 500.000000
-0.260000 0.215564 0.290000 284.536339 25.112774 37.539965 500.000000
-0.260000 0.090000 0.410000 111.005268 53.913211 -20.389549 500.000000
-0.074451 0.260000 0.410000 -66.890144 -37.123713 -84.202721 500.000000
0.143994 0.090000 0.410000 80.798855 101.068954 -660.756540 500.000000
0.158559 0.260000 0.410000 83.711727 -56.359740 -54.634819 500.000000
0.132447 0.182815 0.404621 -4.504602 18.563069 12.272418 500.000000
-0.258731 0.090000 0.410000 -103.746247 102.463318 -305.921016 500.000000
-0.063124 0.090000 0.290000 6.401148 17.690256 196.270225 500.000000
0.260000 0.170790 0.304436 -31.391353 -1.238290 -21.112762 500.000000
-0.260000 0.189762 0.410000 225.031847 19.952302 -35.413404 500.000000
-0.260000 0.120037 0.410000 70.840900 -27.992665 -48.132168 500.000000
0.260000 0.090000 0.410000 -146.237527 24.698278 -26.783389 500.000000
0.260000 0.109616 0.410000 -148.838243 -30.076709 -42.773797 500.000000
0.260000 0.260000 0.290000 -64.233032 -117.419769 19.198147 500.000000
0.183751 0.090000 0.290000 88.750274 160.753150 186.769726 500.000000
0.102374 0.260000 0.410000 37.738288 -32.446569 -38.841532 500.000000
0.260000 0.090000 0.410000 -123.228925 32.778497 -23.864046 500.000000
0.260000 0.260000 0.410000 -53.824482 -114.233446 -14.582229 500.000000
0.260000 0.260000 0.290000 -61.932415 -270.208872 18.317380 500.000000
-0.084470 0.252073 0.410000 -68.894090 32.414562 -79.872062 500.000000
-0.260000 0.260000 0.290000 113.208782 -20.240879 28.876770 500.000000
-0.260000 0.090000 0.410000 144.881612 73.763531 -33.993741 500.000000
-0.260000 0.260000 0.290000 97.137049 -122.950329 120.466839 500.000000
-0.260000 0.090000 0.410000 112.244952 23.004496 -25.656648 500.000000
-0.067668 0.260000 0.410000 11.457599 -383.632208 -29.592846 500.000000
-0.063486 0.260000 0.410000 -64.697257 -23.166098 -91.063877 500.000000
-0.260000 0.166888 0.410000 121.367590 -18.622408 -40.856497 500.000000
-0.260000 0.215523 0.410000 28.804718 25.104501 -23.588740 500.000000
-0.063395 0.260000 0.410000 -64.679036 -24.053556 -91.272391 500.000000
-0.260000 0.090000 0.410000 61.083887 104.563129 -94.998349 500.000000
0.260000 0.260000 0.290000 -66.813770 -136.317336 21.263836 500.000000
0.117881 0.090000 0.290000 75.576284 56.858932 187.507322 500.000000
0.049586 0.260000 0.290000 61.917114 -1223.304355 232.829111 500.000000
0.161565 0.090000 0.290000 84.313091 101.574327 186.271412 500.000000
-0.065952 0.260000 0.410000 -65.190400 -22.323485 -84.480867 500.000000
0.260000 0.090000 0.410000 -365.763628 23.328222 -26.261770 500.000000
0.260000 0.090000 0.410000 -58.604025 33.065928 -755.605275 500.000000
0.260000 0.090000 0.410000 -194.536066 74.962110 -29.720225 500.000000
0.203568 0.090000 0.410000 92.713666 26.042494 -661.066735 500.000000
0.153772 0.260000 0.290000 82.754430 -126.041381 20.514769 500.000000
0.260000 0.260000 0.381944 -55.921699 -40.141412 18.388742 500.000000
0.124829 0.090000 0.290000 76.965720 52.444938 305.656012 500.000000
0.057575 0.260000 0.290000 63.515009 -306.467007 31.466548 500.000000
0.260000 0.090000 0.290000 -134.553937 59.525122 48.957211 500.000000
0.260000 0.090000 0.410000 -215.608347 22.199513 -16.682337 500.000000
0.038483 0.090000 0.290000 59.696515 67.699606 185.663572 500.000000
0.110320 0.090000 0.290000 74.064045 169.615870 197.086820 500.000000
-0.260000 0.253271 0.290000 17.727283 32.654131 87.681192 500.000000
0.260000 0.260000 0.410000 -54.259050 -64.808738 -59.500243 500.000000
0.260000 0.260000 0.290000 -890.196042 -17.104459 28.606913 500.000000
0.160794 0.260000 0.410000 -19.841296 -84.435075 -55.149017 500.000000
0.209056 0.090000 0.290000 93.811267 144.762500 185.507366 500.000000
-0.073133 0.260000 0.410000 -66.626683 -22.168961 -83.875152 500.000000
0.260000 0.090000 0.290000 -58.535951 71.504237 195.517988 500.000000
0.260000 0.260000 0.339783 -57.453814 -151.183476 -14.043312 500.000000
-0.260000 0.260000 0.290000 114.691826 -19.756418 28.836167 500.000000
-0.260000 0.260000 0.290000 113.252901 -20.289705 30.630531 500.000000
0.130546 0.260000 0.410000 78.109119 -140.838465 -40.376488 500.000000
-0.260000 0.260000 0.290000 113.190354 -20.306593 30.921115 500.000000
-0.260000 0.260000 0.290000 58.916062 -65.944889 14.626978 500.000000
0.260000 0.260000 0.410000 -65.579324 -78.466278 -132.824781 500.000000
0.022973 0.090000 0.290000 56.594620 122.507491 227.959067 500.000000
0.135258 0.147456 0.410000 7.540045 3.005575 -25.126890 500.000000
0.218735 0.260000 0.290000 16.067024 -31.253037 31.688842 500.000000
-0.184997 0.260000 0.410000 -88.999493 -22.544968 -84.349295 500.000000
-0.260000 0.181171 0.290000 74.047159 18.234181 82.922772 500.000000
0.169572 0.090000 0.290000 85.914352 217.772965 185.163961 500.000000
-0.260000 0.109047 0.410000 21.572766 -30.190594 -47.910889 500.000000
0.108694 0.090000 0.290000 73.738892 66.482857 196.228186 500.000000
-0.060369 0.260000 0.410000 -64.073805 -22.130064 -84.470149 500.000000
0.162783 0.090000 0.410000 84.556582 245.931293 -40.747037 500.000000
0.260000 0.090000 0.290000 -54.883321 106.005491 189.373017 500.000000
-0.063705 0.260000 0.410000 -64.740910 -22.289106 -89.183201 500.000000
0.166634 0.090000 0.410000 85.326702 133.907243 -296.831224 500.000000
-0.260000 0.090000 0.410000 113.431774 39.065538 -20.663265 500.000000
-0.093217 0.160192 0.410000 -19.418992 -19.961556 -46.653621 500.000000
-0.243992 0.171388 0.290000 -22.290576 -17.722314 29.808621 500.000000
0.260000 0.090000 0.410000 -141.610848 33.778052 -28.017721 500.000000
0.145237 0.260000 0.290000 81.047331 -118.828751 18.996103 500.000000
0.260000 0.090000 0.290000 -59.624132 136.736039 37.541894 500.000000
-0.260000 0.090000 0.348350 63.870705 99.138149 -12.329923 500.000000
-0.239724 0.090000 0.290000 -29.959720 50.071539 100.117890 500.000000
0.260000 0.260000 0.342875 -98.169889 -177.715441 -13.425062 500.000000
0.260000 0.090000 0.410000 -59.891870 102.312658 -45.864841 500.000000
0.260000 0.090000 0.290000 -64.768301 50.318001 239.846412 500.000000
0.260000 0.260000 0.290000 -63.907260 -118.130353 19.256035 500.000000
-0.260000 0.133263 0.383936 90.173749 8.652561 -5.212700 500.000000
0.121851 0.090000 0.290000 76.370100 121.933024 186.483320 500.000000
0.260000 0.260000 0.410000 -85.341747 -66.439469 -58.579091 500.000000
0.200185 0.090000 0.290000 92.036967 66.736839 196.828093 500.000000
0.260000 0.260000 0.290000 -229.392990 -19.304387 334.861791 500.000000
0.116475 0.090000 0.290000 75.295022 65.098904 187.257033 500.000000
-0.260000 0.260000 0.290000 61.986144 -119.962821 25.567780 500.000000
0.260000 0.090000 0.410000 -40.112501 46.224539 -40.248720 500.000000
-0.260000 0.170243 0.290000 112.754528 -17.951404 191.496684 500.000000
-0.260000 0.260000 0.290000 113.927240 -20.256888 28.943604 500.000000
0.209351 0.090000 0.410000 64.001108 54.534704 -39.497360 500.000000
0.260000 0.090000 0.290000 -55.930287 65.222952 207.256458 500.000000
-0.260000 0.260000 0.290000 114.890310 -19.680292 29.026092 500.000000
-0.260000 0.253059 0.410000 89.186323 32.611829 -21.140394 500.000000
-0.260000 0.090000 0.290000 72.218740 45.765276 127.521104 500.000000
0.260000 0.090000 0.290000 -70.012040 50.016985 89.983349 500.000000
-0.062868 0.260000 0.410000 -64.573652 -22.876654 -94.096498 500.000000
0.054231 0.260000 0.290000 12.954722 -18.278314 15.311485 500.000000
-0.260000 0.252787 0.410000 95.009900 32.557332 -18.373866 500.000000
0.102974 0.234182 0.308231 7.507369 14.851266 -8.608087 500.000000
0.160302 0.260000 0.410000 84.060491 -65.422633 -60.509814 500.000000
-0.260000 0.260000 0.290000 124.765987 -20.828662 28.296797 500.000000
-0.260000 0.090000 0.410000 125.110773 32.826180 -26.494091 500.000000
0.260000 0.260000 0.290000 -170.416411 -18.838612 23.274216 500.000000
0.188736 0.260000 0.290000 89.747286 -128.660761 18.676360 500.000000
0.105577 0.090000 0.290000 -4.540463 9.514230 56.252107 500.000000
-0.221109 0.090000 0.410000 -40.194228 58.022236 -43.686533 500.000000
-0.260000 0.260000 0.290000 112.989827 -17.031737 94.339896 500.000000
0.103920 0.090000 0.290000 72.783935 63.740784 195.783537 500.000000
-0.260000 0.260000 0.290000 104.842201 -24.937119 251.892010 500.000000
0.117619 0.090000 0.290000 75.523852 80.140241 191.500032 500.000000
0.260000 0.090000 0.410000 -151.617250 118.859107 -79.878954 500.000000
0.152987 0.260000 0.290000 82.597497 -123.239220 20.365755 500.000000
-0.260000 0.090000 0.410000 127.916231 19.129600 -20.778509 500.000000
-0.086392 0.260000 0.410000 -69.278485 -22.580167 -101.066672 500.000000
-0.074901 0.260000 0.410000 -66.980136 -22.110038 -83.475954 500.000000
-0.260000 0.260000 0.290000 115.117811 -19.717760 29.152521 500.000000
0.199424 0.260000 0.410000 -12.115280 -93.901083 -53.470305 500.000000
-0.260000 0.260000 0.290000 115.641590 -19.928845 30.636560 500.000000
-0.140117 0.121771 0.410000 7.596761 -27.645797 -44.431182 500.000000
-0.260000 0.090000 0.410000 68.836052 104.230694 -21.104657 500.000000
0.260000 0.090000 0.374837 -45.793520 28.894057 16.967378 500.000000
0.260000 0.090000 0.410000 -40.639122 27.419367 -20.069410 500.000000
-0.260000 0.260000 0.290000 113.326812 -19.936656 31.392508 500.000000
-0.260000 0.260000 0.290000 34.953443 -116.186482 65.214520 500.000000
-0.005050 0.260000 0.292485 -9.114193 -357.375374 -23.502947 500.000000
-0.260000 0.090000 0.410000 64.145286 40.702518 -91.746390 500.000000
-0.091410 0.260000 0.410000 -70.282051 -24.932892 -41.245109 500.000000
-0.260000 0.090000 0.290000 152.435937 23.259362 193.771793 500.000000
0.260000 0.195458 0.290000 -83.917616 21.091696 294.195481 500.000000
0.120426 0.090000 0.290000 76.085203 73.733019 195.844419 500.000000
-0.063067 0.260000 0.410000 -64.613320 -22.603190 -90.519971 500.000000
0.260000 0.090000 0.410000 -165.276440 25.723465 -46.112645 500.000000
-0.260000 0.126858 0.410000 109.775570 -26.628402 -62.761673 500.000000
0.171300 0.260000 0.290000 22.190103 -20.300246 12.099720 500.000000
-0.260000 0.090000 0.290000 141.819671 66.886314 194.429076 500.000000
0.260000 0.126812 0.410000 -103.808639 -26.637634 -20.757208 500.000000
0.260000 0.260000 0.301393 -277.359236 -127.774378 -21.721380 500.000000
0.260000 0.260000 0.410000 -395.012830 -55.648434 -39.442176 500.000000
-0.038094 0.090000 0.410000 44.381125 146.605978 -48.078795 500.000000
0.112577 0.090000 0.290000 74.515450 152.145828 185.708302 500.000000
0.260000 0.260000 0.337740 -46.587617 -184.818051 -14.452037 500.000000
-0.260000 0.260000 0.337682 132.149300 -196.140326 -14.463556 500.000000
0.106991 0.260000 0.290000 73.398123 -120.749828 19.558333 500.000000
0.260000 0.090000 0.290000 -70.804799 114.377119 186.798214 500.000000
-0.260000 0.090000 0.354917 94.982715 58.482152 12.983340 500.000000
-0.260000 0.090000 0.290000 57.957373 23.681738 193.734972 500.000000
-0.260000 0.260000 0.410000 58.396565 -27.907794 -442.561120 500.000000
0.260000 0.090000 0.410000 -74.415703 92.717523 -1050.176617 500.000000
-0.003032 0.260000 0.410000 -52.606339 -25.240704 -43.851147 500.000000
-0.038517 0.090000 0.410000 -10.450493 78.266082 -49.047946 500.000000
-0.172313 0.090000 0.410000 -86.462624 46.509752 -453.109347 500.000000
0.260000 0.090000 0.410000 -236.145997 33.499412 -26.727930 500.000000
0.260000 0.151758 0.410000 -273.647069 -21.648352 -97.605496 500.000000
-0.260000 0.090000 0.290000 63.215959 61.877709 193.574222 500.000000
-0.061619 0.161895 0.410000 -45.462017 -19.621067 -36.985949 500.000000
0.260000 0.090000 0.290000 -127.157680 114.050204 13.883740 500.000000
-0.260000 0.254878 0.410000 66.936266 32.975568 -54.047576 500.000000
0.260000 0.260000 0.290000 -56.420436 -368.051199 18.792143 500.000000
-0.260000 0.090000 0.388890 214.105072 21.799659 19.778093 500.000000
-0.078751 0.121220 0.410000 -23.120366 -27.755924 -24.917555 500.000000
-0.235950 0.260000 0.410000 -99.190061 -140.101114 -12.939609 500.000000
0.260000 0.090000 0.290000 -161.605715 40.410639 28.191226 500.000000
-0.260000 0.090000 0.290000 57.117472 23.097516 200.326468 500.000000
-0.260000 0.090000 0.410000 315.613305 17.674094 -41.313844 500.000000
-0.260000 0.110396 0.410000 78.578289 -29.920831 -48.838161 500.000000
-0.063644 0.260000 0.410000 -64.728796 -22.857297 -88.095535 500.000000
-0.046040 0.243505 0.290000 -30.812515 30.700904 16.551908 500.000000
-0.260000 0.090000 0.290000 145.424307 34.114626 198.132144 500.000000
-0.260000 0.260000 0.290000 113.194719 -20.029436 35.142229 500.000000
0.260000 0.090000 0.410000 -177.309792 35.808480 -26.937409 500.000000
-0.110994 0.090000 0.410000 -8.233328 20.150460 -45.700453 500.000000
0.186463 0.090000 0.290000 89.292579 229.645584 185.488282 500.000000
-0.260000 0.090000 0.410000 81.850558 102.037440 -162.983656 500.000000
-0.065429 0.260000 0.410000 -65.085870 -36.451494 -79.749206 500.000000
-0.260000 0.260000 0.410000 31.509985 -19.608624 -51.767075 500.000000
-0.260000 0.260000 0.290000 113.197493 -20.642986 28.757631 500.000000
0.260000 0.260000 0.290000 -46.902606 -19.736385 13.172925 500.000000
0.258039 0.260000 0.290000 103.607894 -118.392064 18.310013 500.000000
0.260000 0.090000 0.410000 -143.234106 23.448006 -16.410444 500.000000
-0.260000 0.090000 0.331984 129.133704 23.512027 -15.603276 500.000000
-0.260000 0.115701 0.410000 126.450742 -28.859714 -45.050956 500.000000
0.142767 0.090000 0.290000 80.553412 127.243201 190.517542 500.000000
-0.260000 0.090000 0.290000 163.217179 29.963946 194.433557 500.000000
0.048649 0.260000 0.339087 61.729840 -165.696686 -14.182665 500.000000
0.089675 0.090000 0.290000 24.006406 51.151635 89.276382 500.000000
-0.083998 0.090000 0.290000 35.200491 46.537181 417.884655 500.000000
-0.260000 0.090000 0.410000 73.692945 100.307036 -390.678451 500.000000
-0.260000 0.090000 0.410000 117.413619 49.868521 -63.926159 500.000000
0.260000 0.090000 0.410000 -143.448634 28.664210 -20.580243 500.000000
-0.260000 0.230679 0.332321 331.482389 28.135711 -15.535797 500.000000
0.222451 0.090000 0.290000 96.490192 70.542260 195.950220 500.000000
-0.260000 0.217734 0.410000 106.621151 -8.453233 -26.939720 500.000000
0.241403 0.090000 0.410000 100.280533 30.683679 -740.365548 500.000000
0.029430 0.090000 0.410000 57.885927 175.031369 -1084.263427 500.000000
0.122690 0.260000 0.318202 76.537970 -41.669096 -18.359559 500.000000
-0.040767 0.090000 0.410000 43.846688 74.545565 -675.956734 500.000000
-0.130041 0.090000 0.290000 25.991833 50.834680 407.213231 500.000000
0.260000 0.090000 0.410000 -192.551030 89.634914 -29.438151 500.000000
-0.260000 0.090000 0.410000 32.996460 19.824629 -12.985122 500.000000
0.231550 0.260000 0.410000 98.309926 -65.816834 -43.401394 500.000000
0.260000 0.090000 0.290000 -82.697158 101.772272 185.534128 500.000000
0.058332 0.090000 0.290000 4.165422 49.340938 75.232493 500.000000
0.260000 0.249319 0.290000 -62.556571 31.863845 46.019170 500.000000
0.260000 0.260000 0.410000 -90.365347 -65.486669 -58.836629 500.000000
-0.260000 0.252456 0.290000 140.025487 32.491107 28.546886 500.000000
0.260000 0.260000 0.290000 -808.545810 -87.127517 32.398762 500.000000
-0.260000 0.260000 0.290000 113.451511 -19.718849 31.220910 500.000000
-0.063594 0.260000 0.410000 -64.718847 -22.039549 -93.731539 500.000000
-0.260000 0.251264 0.290000 99.336770 32.252717 116.087242 500.000000
0.215154 0.260000 0.290000 95.030896 -123.054016 19.132551 500.000000
-0.260000 0.131231 0.290000 111.779076 -25.753784 263.589617 500.000000
-0.063196 0.260000 0.410000 -64.639224 -22.267055 -92.384761 500.000000
-0.260000 0.090000 0.290000 126.446493 31.767057 247.968657 500.000000
