ply
format ascii 1.0
element vertex 240
property float x
property float y
property float z
property float vx
property float vy
property float vz
property float density
end_header
-0.260000 0.260000 0.387626 65.498535 -80.485256 19.525216 500.000000
-0.260000 0.090000 0.410000 84.746463 37.800827 -22.072032 500.000000
-0.214138 0.090000 0.290000 -11.539975 37.800812 22.271912 500.000000
-0.260000 0.260000 0.311022 65.627847 -80.485010 -19.795699 500.000000
0.058746 0.260000 0.403798 -40.250715 -34.562991 22.759557 500.000000
-0.260000 0.260000 0.410000 110.655496 -60.637722 -21.477825 500.000000
-0.260000 0.260000 0.290000 109.381131 -60.637724 21.786920 500.000000
0.057253 0.260000 0.294965 -40.549404 -34.562748 -23.006957 500.000000
0.060753 0.175000 0.410000 64.150548 -0.000000 -39.115869 500.000000
0.068594 0.175000 0.410000 65.718880 0.000000 -47.514732 500.000000
0.062577 0.175000 0.290000 64.515409 0.000000 48.093643 500.000000
0.054735 0.175000 0.290000 62.947076 0.000000 39.694777 500.000000
0.058746 0.090000 0.403798 -40.250715 34.562991 22.759557 500.000000
-0.260000 0.090000 0.410000 110.655496 60.637722 -21.477825 500.000000
-0.260000 0.090000 0.290000 109.381131 60.637724 21.786920 500.000000
0.057253 0.090000 0.294965 -40.549404 34.562748 -23.006957 500.000000
-0.260000 0.090000 0.387626 65.498535 80.485256 19.525216 500.000000
-0.260000 0.260000 0.410000 84.746463 -37.800827 -22.072032 500.000000
-0.214138 0.260000 0.290000 -11.539975 -37.800812 22.271912 500.000000
-0.260000 0.090000 0.311022 65.627847 80.485010 -19.795699 500.000000
-0.016787 0.090000 0.410000 4.769747 53.999184 -15.432683 500.000000
-0.260000 0.090000 0.410000 63.981500 35.281662 -19.475686 500.000000
-0.260000 0.090000 0.290000 76.355359 35.281631 19.653311 500.000000
-0.034138 0.090000 0.290000 1.407066 53.999183 15.741789 500.000000
-0.114784 0.260000 0.376080 -74.956877 -86.105087 17.215992 500.000000
-0.260000 0.260000 0.410000 61.245374 -83.383529 -14.406500 500.000000
-0.260000 0.260000 0.290000 61.392899 -83.383283 14.494916 500.000000
-0.113293 0.260000 0.323536 -74.658524 -86.104843 -17.292837 500.000000
-0.121421 0.175000 0.410000 15.973775 0.000002 -51.220661 500.000000
-0.260000 0.175000 0.410000 55.457625 0.000000 -26.782772 500.000000
-0.260000 0.175000 0.290000 55.172839 -0.000000 26.940490 500.000000
-0.132776 0.175000 0.290000 13.598951 0.000000 50.299324 500.000000
-0.114784 0.090000 0.376080 -74.956877 86.105087 17.215992 500.000000
-0.260000 0.090000 0.410000 61.245374 83.383529 -14.406500 500.000000
-0.260000 0.090000 0.290000 61.392899 83.383283 14.494916 500.000000
-0.113293 0.090000 0.323536 -74.658524 86.104843 -17.292837 500.000000
-0.016787 0.260000 0.410000 4.769747 -53.999184 -15.432683 500.000000
-0.260000 0.260000 0.410000 63.981500 -35.281662 -19.475686 500.000000
-0.260000 0.260000 0.290000 76.355359 -35.281631 19.653311 500.000000
-0.034138 0.260000 0.290000 1.407066 -53.999183 15.741789 500.000000
-0.176422 0.090000 0.350269 16.715590 77.613080 12.053757 500.000000
-0.021030 0.090000 0.396549 -56.205975 98.444431 21.309767 500.000000
-0.021263 0.090000 0.302839 -56.252517 98.444183 -21.432215 500.000000
-0.176654 0.090000 0.349455 16.669113 77.612834 -12.108991 500.000000
-0.117782 0.260000 0.410000 28.443546 -85.789332 -41.670862 500.000000
0.095861 0.260000 0.379724 24.421626 -59.176037 17.944787 500.000000
0.145895 0.260000 0.319563 34.234407 -59.176025 -18.087387 500.000000
-0.115378 0.260000 0.290000 28.924378 -85.789092 41.225505 500.000000
0.260000 0.175000 0.410000 -53.037411 -0.000000 -21.980670 500.000000
0.004182 0.175000 0.388822 52.836445 -0.000000 19.764307 500.000000
-0.002262 0.175000 0.310812 51.547562 -0.000000 -19.837572 500.000000
0.260000 0.175000 0.290000 -52.456600 -0.000000 21.985562 500.000000
-0.117782 0.090000 0.410000 28.443546 85.789332 -41.670862 500.000000
0.095861 0.090000 0.379724 24.421626 59.176037 17.944787 500.000000
0.145895 0.090000 0.319563 34.234408 59.176025 -18.087387 500.000000
-0.115378 0.090000 0.290000 28.924378 85.789092 41.225505 500.000000
-0.176422 0.260000 0.350269 16.715590 -77.613080 12.053757 500.000000
-0.021030 0.260000 0.396549 -56.205975 -98.444431 21.309767 500.000000
-0.021263 0.260000 0.302839 -56.252517 -98.444183 -21.432215 500.000000
-0.176654 0.260000 0.349455 16.669113 -77.612834 -12.108991 500.000000
-0.260000 0.090000 0.410000 55.522790 72.491225 -15.241541 500.000000
-0.260000 0.090000 0.410000 75.520206 55.529986 -17.534456 500.000000
-0.260000 0.090000 0.290000 75.618368 55.529744 17.813606 500.000000
-0.260000 0.090000 0.290000 55.915576 72.491229 15.550648 500.000000
-0.260000 0.090000 0.410000 80.345157 248.421028 -58.122239 500.000000
0.260000 0.260000 0.410000 -28.797564 -57.545620 -17.471900 500.000000
0.260000 0.260000 0.290000 -28.538530 -57.545620 17.781004 500.000000
-0.260000 0.090000 0.290000 80.343484 248.418181 57.154715 500.000000
0.260000 0.175000 0.348906 -42.198537 -0.000004 11.781178 500.000000
-0.260000 0.175000 0.388212 85.700261 -0.000000 19.642352 500.000000
-0.260000 0.175000 0.311193 83.372542 -0.000000 -19.761489 500.000000
0.260000 0.175000 0.351322 -39.016084 -0.000003 -11.735547 500.000000
-0.260000 0.260000 0.410000 80.345157 -248.421028 -58.122239 500.000000
0.260000 0.090000 0.410000 -28.797564 57.545620 -17.471900 500.000000
0.260000 0.090000 0.290000 -28.538530 57.545620 17.781004 500.000000
-0.260000 0.260000 0.290000 80.343484 -248.418181 57.154715 500.000000
-0.260000 0.260000 0.410000 55.522790 -72.491225 -15.241541 500.000000
-0.260000 0.260000 0.410000 75.520206 -55.529986 -17.534456 500.000000
-0.260000 0.260000 0.290000 75.618368 -55.529744 17.813606 500.000000
-0.260000 0.260000 0.290000 55.915576 -72.491229 15.550648 500.000000
0.260000 0.090000 0.410000 -73.752229 17.658160 -15.241511 500.000000
-0.260000 0.090000 0.410000 45.571180 19.716481 -19.112731 500.000000
-0.260000 0.090000 0.290000 47.927296 19.716487 19.421833 500.000000
0.260000 0.090000 0.290000 -74.856032 17.658170 15.550596 500.000000
-0.260000 0.260000 0.410000 46.738630 -22.716269 -14.575205 500.000000
0.241346 0.260000 0.410000 79.544470 -20.805650 -17.472046 500.000000
0.254725 0.260000 0.290000 82.327942 -20.805658 17.781130 500.000000
-0.260000 0.260000 0.290000 128.663963 -22.716274 13.606750 500.000000
-0.260000 0.175000 0.410000 63.710762 0.000010 -73.685956 500.000000
-0.260000 0.175000 0.410000 31.552052 0.000003 -42.900641 500.000000
-0.260000 0.175000 0.290000 33.784915 -0.000005 43.479530 500.000000
-0.260000 0.175000 0.290000 62.530400 -0.000019 72.999615 500.000000
-0.260000 0.090000 0.410000 46.738630 22.716269 -14.575205 500.000000
0.241346 0.090000 0.410000 79.544470 20.805650 -17.472046 500.000000
0.254725 0.090000 0.290000 82.327942 20.805658 17.781130 500.000000
-0.260000 0.090000 0.290000 128.663963 22.716274 13.606750 500.000000
0.260000 0.260000 0.410000 -73.752229 -17.658160 -15.241511 500.000000
-0.260000 0.260000 0.410000 45.571180 -19.716481 -19.112731 500.000000
-0.260000 0.260000 0.290000 47.927296 -19.716487 19.421833 500.000000
0.260000 0.260000 0.290000 -74.856032 -17.658170 15.550596 500.000000
0.260000 0.090000 0.410000 -73.173084 74.786988 -14.691264 500.000000
0.104706 0.090000 0.410000 72.941242 76.892403 -12.779306 500.000000
0.106079 0.090000 0.290000 73.215782 76.892158 12.933038 500.000000
0.260000 0.090000 0.290000 -73.190887 74.786743 15.003748 500.000000
-0.260000 0.260000 0.410000 127.860809 -59.454397 -41.482468 500.000000
0.260000 0.260000 0.410000 -110.225839 -57.544490 -16.948879 500.000000
0.260000 0.260000 0.290000 -105.334569 -57.544508 17.262279 500.000000
-0.260000 0.260000 0.290000 132.970469 -59.454380 40.416801 500.000000
0.260000 0.175000 0.410000 -37.993671 0.000070 -30.001286 500.000000
0.194448 0.175000 0.410000 14.568146 -0.000003 -42.900489 500.000000
0.214406 0.175000 0.290000 18.375857 0.000005 43.479361 500.000000
0.260000 0.174999 0.290000 -35.763193 -0.000113 29.314909 500.000000
-0.260000 0.090000 0.410000 127.860809 59.454397 -41.482468 500.000000
0.260000 0.090000 0.410000 -110.225839 57.544490 -16.948879 500.000000
0.260000 0.090000 0.290000 -105.334569 57.544508 17.262279 500.000000
-0.260000 0.090000 0.290000 132.970469 59.454380 40.416801 500.000000
0.260000 0.260000 0.410000 -73.173084 -74.786988 -14.691264 500.000000
0.104706 0.260000 0.410000 72.941242 -76.892403 -12.779306 500.000000
0.106079 0.260000 0.290000 73.215782 -76.892158 12.933038 500.000000
0.260000 0.260000 0.290000 -73.190887 -74.786743 15.003748 500.000000
-0.260000 0.090000 0.410000 73.173084 74.786988 -14.691264 500.000000
-0.104706 0.090000 0.410000 -72.941242 76.892403 -12.779306 500.000000
-0.106079 0.090000 0.290000 -73.215782 76.892158 12.933038 500.000000
-0.260000 0.090000 0.290000 73.190887 74.786743 15.003748 500.000000
0.260000 0.260000 0.410000 -127.860809 -59.454397 -41.482468 500.000000
-0.260000 0.260000 0.410000 110.225839 -57.544490 -16.948879 500.000000
-0.260000 0.260000 0.290000 105.334569 -57.544508 17.262279 500.000000
0.260000 0.260000 0.290000 -132.970469 -59.454380 40.416801 500.000000
-0.260000 0.175000 0.410000 37.993671 -0.000013 -30.001286 500.000000
-0.194448 0.175000 0.410000 -14.568146 0.000001 -42.900489 500.000000
-0.214406 0.175000 0.290000 -18.375857 -0.000001 43.479361 500.000000
-0.260000 0.175000 0.290000 35.763193 0.000025 29.314909 500.000000
0.260000 0.090000 0.410000 -127.860809 59.454397 -41.482468 500.000000
-0.260000 0.090000 0.410000 110.225839 57.544490 -16.948879 500.000000
-0.260000 0.090000 0.290000 105.334568 57.544508 17.262279 500.000000
0.260000 0.090000 0.290000 -132.970469 59.454380 40.416801 500.000000
-0.260000 0.260000 0.410000 73.173084 -74.786988 -14.691264 500.000000
-0.104706 0.260000 0.410000 -72.941242 -76.892403 -12.779306 500.000000
-0.106079 0.260000 0.290000 -73.215782 -76.892158 12.933038 500.000000
-0.260000 0.260000 0.290000 73.190887 -74.786743 15.003748 500.000000
-0.260000 0.090000 0.410000 73.752229 17.658160 -15.241511 500.000000
0.260000 0.090000 0.410000 -45.571180 19.716481 -19.112731 500.000000
0.260000 0.090000 0.290000 -47.927296 19.716487 19.421833 500.000000
-0.260000 0.090000 0.290000 74.856032 17.658170 15.550596 500.000000
0.260000 0.260000 0.410000 -46.738630 -22.716269 -14.575205 500.000000
-0.241346 0.260000 0.410000 -79.544470 -20.805650 -17.472046 500.000000
-0.254725 0.260000 0.290000 -82.327942 -20.805658 17.781130 500.000000
0.260000 0.260000 0.290000 -128.663963 -22.716274 13.606750 500.000000
0.260000 0.175000 0.410000 -63.710762 -0.000052 -73.685956 500.000000
0.260000 0.175000 0.410000 -31.552052 -0.000015 -42.900641 500.000000
0.260000 0.175000 0.290000 -33.784915 0.000021 43.479530 500.000000
0.260000 0.175000 0.290000 -62.530400 0.000087 72.999615 500.000000
0.260000 0.090000 0.410000 -46.738630 22.716269 -14.575205 500.000000
-0.241346 0.090000 0.410000 -79.544470 20.805650 -17.472046 500.000000
-0.254725 0.090000 0.290000 -82.327942 20.805658 17.781130 500.000000
0.260000 0.090000 0.290000 -128.663963 22.716274 13.606750 500.000000
-0.260000 0.260000 0.410000 73.752229 -17.658160 -15.241511 500.000000
0.260000 0.260000 0.410000 -45.571180 -19.716481 -19.112731 500.000000
0.260000 0.260000 0.290000 -47.927296 -19.716487 19.421833 500.000000
-0.260000 0.260000 0.290000 74.856032 -17.658170 15.550596 500.000000
0.260000 0.090000 0.410000 -55.522790 72.491225 -15.241541 500.000000
0.260000 0.090000 0.410000 -75.520206 55.529986 -17.534456 500.000000
0.260000 0.090000 0.290000 -75.618368 55.529744 17.813606 500.000000
0.260000 0.090000 0.290000 -55.915576 72.491229 15.550648 500.000000
0.260000 0.090000 0.410000 -80.345157 248.421028 -58.122239 500.000000
-0.260000 0.260000 0.410000 28.797564 -57.545620 -17.471900 500.000000
-0.260000 0.260000 0.290000 28.538530 -57.545620 17.781004 500.000000
0.260000 0.090000 0.290000 -80.343484 248.418181 57.154715 500.000000
-0.260000 0.175000 0.348906 42.198537 -0.000002 11.781178 500.000000
0.260000 0.175000 0.388212 -85.700261 -0.000001 19.642352 500.000000
0.260000 0.175000 0.311193 -83.372542 -0.000001 -19.761489 500.000000
-0.260000 0.175000 0.351322 39.016084 0.000000 -11.735547 500.000000
0.260000 0.260000 0.410000 -80.345157 -248.421028 -58.122239 500.000000
-0.260000 0.090000 0.410000 28.797564 57.545620 -17.471900 500.000000
-0.260000 0.090000 0.290000 28.538530 57.545620 17.781004 500.000000
0.260000 0.260000 0.290000 -80.343484 -248.418181 57.154715 500.000000
0.260000 0.260000 0.410000 -55.522790 -72.491225 -15.241541 500.000000
0.260000 0.260000 0.410000 -75.520206 -55.529986 -17.534456 500.000000
0.260000 0.260000 0.290000 -75.618368 -55.529744 17.813606 500.000000
0.260000 0.260000 0.290000 -55.915576 -72.491229 15.550648 500.000000
0.176422 0.090000 0.350269 -16.715590 77.613080 12.053757 500.000000
0.021030 0.090000 0.396549 56.205975 98.444431 21.309767 500.000000
0.021263 0.090000 0.302839 56.252517 98.444183 -21.432215 500.000000
0.176654 0.090000 0.349455 -16.669113 77.612834 -12.108991 500.000000
0.117782 0.260000 0.410000 -28.443546 -85.789332 -41.670862 500.000000
-0.095861 0.260000 0.379724 -24.421626 -59.176037 17.944787 500.000000
-0.145895 0.260000 0.319563 -34.234407 -59.176025 -18.087387 500.000000
0.115378 0.260000 0.290000 -28.924378 -85.789092 41.225505 500.000000
-0.260000 0.175000 0.410000 53.037411 -0.000000 -21.980670 500.000000
-0.004182 0.175000 0.388822 -52.836445 -0.000000 19.764307 500.000000
0.002262 0.175000 0.310812 -51.547562 -0.000000 -19.837572 500.000000
-0.260000 0.175000 0.290000 52.456600 -0.000000 21.985562 500.000000
0.117782 0.090000 0.410000 -28.443546 85.789332 -41.670862 500.000000
-0.095861 0.090000 0.379724 -24.421626 59.176037 17.944787 500.000000
-0.145895 0.090000 0.319563 -34.234407 59.176025 -18.087387 500.000000
0.115378 0.090000 0.290000 -28.924378 85.789092 41.225505 500.000000
0.176422 0.260000 0.350269 -16.715590 -77.613080 12.053757 500.000000
0.021030 0.260000 0.396549 56.205975 -98.444431 21.309767 500.000000
0.021263 0.260000 0.302839 56.252517 -98.444183 -21.432215 500.000000
0.176654 0.260000 0.349455 -16.669113 -77.612834 -12.108991 500.000000
0.016787 0.090000 0.410000 -4.769747 53.999184 -15.432683 500.000000
0.260000 0.090000 0.410000 -63.981500 35.281662 -19.475686 500.000000
0.260000 0.090000 0.290000 -76.355359 35.281631 19.653311 500.000000
0.034138 0.090000 0.290000 -1.407066 53.999183 15.741789 500.000000
0.114784 0.260000 0.376080 74.956877 -86.105087 17.215992 500.000000
0.260000 0.260000 0.410000 -61.245374 -83.383529 -14.406500 500.000000
0.260000 0.260000 0.290000 -61.392899 -83.383283 14.494916 500.000000
0.113293 0.260000 0.323536 74.658524 -86.104843 -17.292837 500.000000
0.121421 0.175000 0.410000 -15.973775 0.000005 -51.220661 500.000000
0.260000 0.175000 0.410000 -55.457625 0.000000 -26.782772 500.000000
0.260000 0.175000 0.290000 -55.172839 -0.000000 26.940490 500.000000
0.132776 0.175000 0.290000 -13.598951 0.000004 50.299324 500.000000
0.114784 0.090000 0.376080 74.956877 86.105087 17.215992 500.000000
0.260000 0.090000 0.410000 -61.245374 83.383529 -14.406500 500.000000
0.260000 0.090000 0.290000 -61.392899 83.383283 14.494916 500.000000
0.113293 0.090000 0.323536 74.658524 86.104843 -17.292837 500.000000
0.016787 0.260000 0.410000 -4.769748 -53.999184 -15.432683 500.000000
0.260000 0.260000 0.410000 -63.981500 -35.281662 -19.475686 500.000000
0.260000 0.260000 0.290000 -76.355359 -35.281631 19.653311 500.000000
0.034138 0.260000 0.290000 -1.407066 -53.999183 15.741789 500.000000
0.260000 0.260000 0.387626 -65.498535 -80.485256 19.525216 500.000000
0.260000 0.090000 0.410000 -84.746463 37.800827 -22.072032 500.000000
0.214138 0.090000 0.290000 11.539975 37.800812 22.271912 500.000000
0.260000 0.260000 0.311022 -65.627847 -80.485010 -19.795699 500.000000
-0.058746 0.260000 0.403798 40.250715 -34.562991 22.759557 500.000000
0.260000 0.260000 0.410000 -110.655496 -60.637722 -21.477825 500.000000
0.260000 0.260000 0.290000 -109.381131 -60.637724 21.786920 500.000000
-0.057253 0.260000 0.294965 40.549404 -34.562748 -23.006957 500.000000
-0.060753 0.175000 0.410000 -64.150548 -0.000000 -39.115869 500.000000
-0.068594 0.175000 0.410000 -65.718880 0.000000 -47.514732 500.000000
-0.062577 0.175000 0.290000 -64.515409 0.000000 48.093643 500.000000
-0.054735 0.175000 0.290000 -62.947076 -0.000000 39.694777 500.000000
-0.058746 0.090000 0.403798 40.250715 34.562991 22.759557 500.000000
0.260000 0.090000 0.410000 -110.655496 60.637722 -21.477825 500.000000
0.260000 0.090000 0.290000 -109.381131 60.637724 21.786920 500.000000
-0.057253 0.090000 0.294965 40.549404 34.562748 -23.006957 500.000000
0.260000 0.090000 0.387626 -65.498535 80.485256 19.525216 500.000000
0.260000 0.260000 0.410000 -84.746463 -37.800827 -22.072032 500.000000
0.214138 0.260000 0.290000 11.539975 -37.800812 22.271912 500.000000
0.260000 0.090000 0.311022 -65.627847 80.485010 -19.795699 500.000000
