ply
format ascii 1.0
element vertex 240
property float x
property float y
property float z
property float vx
property float vy
property float vz
property float density
end_header
-0.260000 0.090000 0.290000 78.507389 39.670818 86.293535 500.000000
0.260000 0.260000 0.290000 -93.022233 -27.480379 26.374707 500.000000
0.260000 0.090000 0.410000 -265.741645 419.714844 -22.322324 500.000000
-0.020098 0.260000 0.410000 -56.019536 -398.458504 -18.190991 500.000000
0.260000 0.260000 0.410000 -87.896417 -20.279824 -20.480816 500.000000
0.260000 0.090000 0.298657 -82.195761 78.826932 -22.268678 500.000000
0.039634 0.228433 0.290000 -7.660158 11.015849 11.002782 500.000000
0.260000 0.090000 0.410000 -149.375502 537.158178 -38.605203 500.000000
-0.260000 0.090000 0.410000 96.800875 42.340299 -22.424806 500.000000
0.260000 0.114937 0.304630 -105.412853 -29.012524 -21.073954 500.000000
0.260000 0.090000 0.410000 -67.125214 62.091541 -40.460405 500.000000
-0.260000 0.260000 0.290000 61.243095 -64.199018 69.461790 500.000000
0.260000 0.090000 0.410000 -67.204707 62.255584 -39.697268 500.000000
-0.260000 0.260000 0.290000 141.170849 -22.089102 56.199563 500.000000
0.260000 0.090000 0.410000 -67.507214 62.375002 -40.458571 500.000000
0.016234 0.090000 0.290000 -48.753144 59.968581 86.091722 500.000000
0.260000 0.090000 0.410000 -76.574487 55.507860 -38.779758 500.000000
0.103214 0.260000 0.410000 45.772908 -126.513389 -14.813024 500.000000
-0.260000 0.260000 0.290000 245.022097 -25.274306 57.535442 500.000000
-0.260000 0.260000 0.372784 67.462894 -75.528813 16.556818 500.000000
-0.260000 0.090000 0.290000 59.751752 23.080830 94.121624 500.000000
-0.260000 0.207518 0.290000 1263.491582 -10.496459 123.218844 500.000000
-0.260000 0.090000 0.410000 163.969477 758.349526 -18.911820 500.000000
-0.260000 0.090000 0.410000 165.238944 620.200810 -12.484008 500.000000
0.260000 0.117509 0.317677 -101.919612 -28.498105 -18.464675 500.000000
-0.239787 0.260000 0.290000 -99.957455 -59.364681 68.059759 500.000000
0.260000 0.090000 0.290000 -95.667929 21.998300 28.872417 500.000000
0.260000 0.090000 0.410000 -67.433712 62.240429 -39.714229 500.000000
-0.260000 0.090000 0.410000 77.909937 99.473330 -31.408000 500.000000
-0.037663 0.260000 0.290000 -59.532593 -38.069207 114.718798 500.000000
-0.260000 0.260000 0.290000 204.909759 -22.255593 56.323454 500.000000
0.260000 0.090000 0.410000 -145.071587 96.046955 -28.108776 500.000000
0.260000 0.260000 0.290000 -193.293210 -59.375972 25.171162 500.000000
0.260000 0.118067 0.299794 -102.270752 -28.386602 -22.041182 500.000000
-0.260000 0.090000 0.410000 40.501689 18.951822 -16.577642 500.000000
0.260000 0.260000 0.290000 -45.096919 -32.977369 12.075522 500.000000
0.260000 0.260000 0.290000 -98.632763 -41.178221 24.448982 500.000000
0.000486 0.090000 0.410000 52.097275 43.132263 -48.052323 500.000000
0.260000 0.090000 0.410000 -67.329131 62.389832 -40.425931 500.000000
-0.260000 0.090000 0.410000 56.865833 54.381991 -534.778997 500.000000
0.260000 0.090000 0.410000 -67.386374 62.164877 -39.708050 500.000000
-0.233687 0.260000 0.290000 -98.737470 -60.738583 68.433779 500.000000
0.260000 0.090000 0.410000 -51.480573 50.906865 -115.241801 500.000000
0.260000 0.090000 0.344267 -129.535188 52.163349 -13.146565 500.000000
0.260000 0.090000 0.290000 -225.765996 19.582179 43.717752 500.000000
0.260000 0.090000 0.290000 -70.404288 143.659806 13.649597 500.000000
-0.237935 0.260000 0.410000 -45.355911 -49.244917 -71.643701 500.000000
-0.013378 0.090000 0.410000 49.324367 20.837627 -98.707718 500.000000
0.260000 0.090000 0.290000 -81.280326 33.774227 15.793905 500.000000
-0.260000 0.260000 0.290000 54.318834 -59.287063 68.037166 500.000000
-0.197055 0.090000 0.290000 -3.879860 8.433785 18.120688 500.000000
0.260000 0.090000 0.410000 -14.792149 167.043745 -9.689425 500.000000
0.243871 0.090000 0.410000 100.774179 262.657360 -21.888098 500.000000
0.260000 0.260000 0.290000 -92.609887 -27.544658 26.793218 500.000000
0.260000 0.260000 0.290000 -32.176484 -18.719114 10.760010 500.000000
0.260000 0.090000 0.410000 -69.358035 73.001832 -39.823766 500.000000
0.260000 0.090000 0.410000 -67.401374 62.813931 -39.688064 500.000000
0.260000 0.115737 0.313550 -104.733356 -28.852503 -19.289994 500.000000
-0.109114 0.090000 0.410000 -73.822887 545.634549 -12.365681 500.000000
0.260000 0.090000 0.410000 -360.077984 190.740638 -16.423858 500.000000
0.260000 0.090000 0.410000 -68.374005 62.961501 -41.099440 500.000000
0.049532 0.163175 0.410000 -4.371450 14.635031 -56.751912 500.000000
-0.260000 0.090000 0.290000 65.846551 34.242743 103.411264 500.000000
-0.260000 0.090000 0.410000 266.965428 127.905663 -13.414969 500.000000
0.260000 0.090000 0.334374 -109.426754 39.447582 -15.125203 500.000000
-0.260000 0.260000 0.395292 588.447217 -197.976319 21.058345 500.000000
-0.260000 0.164244 0.290000 35.954384 -19.151145 13.201156 500.000000
-0.220616 0.260000 0.410000 -96.123180 -406.508456 -12.828651 500.000000
0.055550 0.260000 0.290000 63.110003 -34.365957 46.391750 500.000000
-0.260000 0.090000 0.362651 249.392742 278.086125 14.530175 500.000000
-0.260000 0.260000 0.410000 268.241801 -44.101911 -18.833022 500.000000
0.260000 0.260000 0.290000 -141.260315 -58.714899 24.170859 500.000000
0.260000 0.100944 0.410000 -102.076605 -31.811241 -70.715917 500.000000
0.117095 0.260000 0.290000 -12.640812 -61.272464 24.482860 500.000000
0.260000 0.260000 0.290000 -101.764405 -28.072780 25.238584 500.000000
0.101642 0.090000 0.290000 -31.671623 61.422887 89.337642 500.000000
0.260000 0.090000 0.410000 -65.345637 55.008616 -54.524315 500.000000
0.260000 0.090000 0.410000 -67.465285 62.395195 -40.415557 500.000000
0.260000 0.090000 0.410000 -64.514656 51.228975 -80.718374 500.000000
0.260000 0.090000 0.410000 -241.584486 542.101263 -22.682239 500.000000
0.260000 0.090000 0.410000 -69.904048 41.807898 -37.501965 500.000000
0.260000 0.260000 0.290000 -92.122402 -27.563917 26.428862 500.000000
-0.260000 0.090000 0.290000 34.293098 37.050851 65.108365 500.000000
-0.260000 0.090000 0.410000 80.124948 458.478798 -12.367388 500.000000
-0.181339 0.260000 0.403340 -88.267838 -405.332641 22.667905 500.000000
0.260000 0.090000 0.410000 -70.986923 104.916053 -40.231956 500.000000
0.260000 0.260000 0.410000 -145.828491 -563.199898 -19.010903 500.000000
0.260000 0.260000 0.290000 -91.959670 -129.372028 21.747004 500.000000
0.260000 0.260000 0.290000 -93.274337 -27.551998 26.756051 500.000000
0.260000 0.090000 0.410000 -67.075814 62.400850 -40.489685 500.000000
0.260000 0.090000 0.410000 -67.962852 62.486127 -40.423110 500.000000
-0.260000 0.090000 0.410000 238.072952 51.641922 -13.342921 500.000000
0.260000 0.090000 0.290000 -76.325716 19.288089 40.323130 500.000000
-0.260000 0.090000 0.401124 92.549663 64.316284 22.224728 500.000000
-0.260000 0.090000 0.410000 95.448917 49.929209 -48.443412 500.000000
-0.260000 0.090000 0.290000 185.028679 40.400785 86.695943 500.000000
0.260000 0.117492 0.317410 -103.004942 -28.501684 -18.518085 500.000000
-0.024346 0.207323 0.290000 -25.884563 23.464574 55.835799 500.000000
0.260000 0.090000 0.290000 -80.260878 72.444939 267.929081 500.000000
0.260000 0.090000 0.410000 -67.204580 62.336852 -40.417622 500.000000
0.126654 0.090000 0.410000 38.648157 46.831798 -27.824034 500.000000
-0.260000 0.090000 0.410000 82.981220 49.981998 -16.693066 500.000000
0.260000 0.090000 0.290000 -103.447975 17.733586 46.382212 500.000000
0.260000 0.090000 0.410000 -180.004176 340.425426 -22.150427 500.000000
0.203705 0.260000 0.410000 23.080165 -9.023360 -13.698891 500.000000
0.260000 0.090000 0.410000 -67.304121 62.163954 -39.713718 500.000000
0.144544 0.260000 0.290000 10.500983 -152.230038 29.669023 500.000000
0.260000 0.260000 0.410000 -76.335193 -563.754678 -14.461701 500.000000
0.260000 0.090000 0.410000 -67.094490 62.400659 -40.447030 500.000000
0.260000 0.090000 0.410000 -388.840230 220.507511 -20.502550 500.000000
-0.260000 0.090000 0.410000 77.311176 43.225274 -47.649182 500.000000
0.260000 0.090000 0.410000 -92.140453 62.436996 -49.697838 500.000000
-0.184125 0.090000 0.369557 -50.505457 19.926169 15.911332 500.000000
0.260000 0.260000 0.290000 -107.608132 -57.028720 23.741861 500.000000
0.260000 0.260000 0.410000 -117.518182 -564.523140 -16.699840 500.000000
0.260000 0.260000 0.410000 -80.149823 -1134.754766 -28.584567 500.000000
0.260000 0.260000 0.410000 -92.704027 -564.649814 -15.200226 500.000000
-0.241012 0.090000 0.410000 -100.202323 38.262153 -46.864660 500.000000
-0.032990 0.260000 0.410000 -15.272412 -191.708588 -29.717526 500.000000
-0.260000 0.090000 0.410000 78.532860 50.464827 -18.846980 500.000000
0.260000 0.090000 0.410000 -296.333269 795.657886 -23.905330 500.000000
-0.260000 0.090000 0.410000 126.899621 280.820784 -13.537479 500.000000
-0.260000 0.090000 0.290000 550.769322 54.379974 92.683319 500.000000
-0.260000 0.090000 0.410000 123.558552 371.301284 -12.386014 500.000000
-0.260000 0.090000 0.410000 91.815435 49.961736 -26.723742 500.000000
0.260000 0.090000 0.290000 -153.079077 20.928043 23.417057 500.000000
0.260000 0.090000 0.290000 -81.944050 22.256092 12.697277 500.000000
0.260000 0.090000 0.410000 -92.658596 56.833940 -59.598880 500.000000
-0.202229 0.195427 0.290000 -29.712633 21.085361 41.377112 500.000000
0.260000 0.090000 0.410000 -41.308581 54.241767 -122.180816 500.000000
0.260000 0.260000 0.337298 -78.825280 -26.303020 9.459552 500.000000
-0.019915 0.157962 0.290000 48.017054 13.592451 76.569731 500.000000
0.260000 0.260000 0.410000 -147.672609 -561.824057 -29.920558 500.000000
-0.260000 0.260000 0.410000 70.423935 -451.440488 -19.558700 500.000000
-0.260000 0.090000 0.290000 181.836857 22.657032 136.996561 500.000000
0.260000 0.090000 0.410000 -82.541093 63.760567 -39.527947 500.000000
0.260000 0.090000 0.410000 -76.819840 57.715516 -41.082443 500.000000
-0.260000 0.260000 0.410000 280.267054 -39.072867 -20.217479 500.000000
0.260000 0.260000 0.290000 -31.139436 -41.677471 23.219215 500.000000
0.026110 0.260000 0.410000 -46.777991 -382.215408 -51.755832 500.000000
0.260000 0.090000 0.290000 -145.769030 19.718244 48.877876 500.000000
0.260000 0.260000 0.410000 -89.919427 -1177.675455 -28.607067 500.000000
-0.218301 0.260000 0.290000 -95.660178 -99.160649 51.662508 500.000000
0.260000 0.260000 0.290000 -97.227015 -41.656837 29.038466 500.000000
0.260000 0.090000 0.410000 -380.566270 41.539436 -18.231657 500.000000
-0.260000 0.090000 0.410000 99.884154 63.088496 -539.982744 500.000000
-0.260000 0.260000 0.290000 57.207222 -66.274259 69.980476 500.000000
-0.260000 0.260000 0.410000 44.914379 -183.232855 -32.823431 500.000000
0.128047 0.133160 0.290000 77.609378 -25.367910 1137.082025 500.000000
0.260000 0.090000 0.410000 -52.364928 46.655349 -35.451551 500.000000
-0.260000 0.260000 0.410000 137.511844 -689.076259 -33.861463 500.000000
-0.260000 0.260000 0.410000 191.078576 -382.956985 -77.006418 500.000000
-0.260000 0.183060 0.370592 46.823327 18.612037 16.118400 500.000000
0.260000 0.090000 0.410000 -53.783116 22.128392 -98.898429 500.000000
0.260000 0.090000 0.410000 -88.888934 65.455140 -20.506188 500.000000
-0.260000 0.090000 0.410000 77.574815 55.526442 -45.125106 500.000000
-0.260000 0.260000 0.290000 106.281700 -37.566084 130.668934 500.000000
0.260000 0.090000 0.290000 -63.348529 17.514818 39.504762 500.000000
0.260000 0.116686 0.317276 -101.852792 -28.662749 -18.544795 500.000000
0.260000 0.260000 0.290000 -108.279802 -59.691535 23.258420 500.000000
0.260000 0.260000 0.410000 -87.128735 -106.221588 -20.458573 500.000000
0.260000 0.260000 0.410000 -75.688084 -568.879158 -22.289392 500.000000
-0.260000 0.090000 0.410000 258.781488 213.657099 -12.943162 500.000000
0.260000 0.090000 0.290000 -309.051910 310.615387 240.671534 500.000000
-0.260000 0.260000 0.410000 77.115285 -132.681259 -522.998251 500.000000
-0.126247 0.260000 0.409955 -77.249448 -414.101371 23.991021 500.000000
0.060608 0.090000 0.290000 8.299126 155.233535 26.732611 500.000000
0.260000 0.090000 0.410000 -135.654538 672.801454 -22.556388 500.000000
-0.110851 0.126346 0.290000 -74.170184 7.269263 69.682217 500.000000
-0.260000 0.233547 0.410000 108.057856 28.709348 -59.328125 500.000000
-0.260000 0.090000 0.290000 56.118075 23.864796 120.402232 500.000000
0.260000 0.260000 0.290000 -46.315529 -119.331666 17.958390 500.000000
0.260000 0.090000 0.410000 -67.374355 62.608787 -39.560295 500.000000
-0.260000 0.260000 0.290000 172.150876 -17.481825 53.570886 500.000000
0.117201 0.090000 0.410000 -28.559737 77.624145 -21.175003 500.000000
-0.260000 0.260000 0.410000 258.971844 -663.412804 -20.310101 500.000000
0.260000 0.090000 0.410000 -90.855142 725.634271 -23.416678 500.000000
0.260000 0.260000 0.290000 -81.472644 -45.043079 46.038379 500.000000
0.217368 0.260000 0.290000 95.473625 -39.525112 37.121134 500.000000
0.260000 0.090000 0.325982 -34.967570 21.559167 -16.803676 500.000000
0.260000 0.090000 0.410000 -67.076594 62.460032 -40.415565 500.000000
0.260000 0.260000 0.410000 -123.409291 -562.147533 -14.423290 500.000000
0.260000 0.260000 0.410000 -162.963667 -592.563789 -15.858074 500.000000
0.260000 0.202758 0.410000 -47.982182 -11.448305 -5.374151 500.000000
0.260000 0.090000 0.410000 -67.326754 62.447679 -40.426172 500.000000
-0.260000 0.260000 0.290000 139.848068 -17.676357 53.634266 500.000000
-0.260000 0.090000 0.410000 594.372182 26.485120 -28.400100 500.000000
0.260000 0.090000 0.410000 -73.144265 218.038608 -23.889946 500.000000
0.260000 0.090000 0.317871 -135.514294 17.085052 -18.425769 500.000000
-0.260000 0.090000 0.310165 25.081053 20.998398 -19.967038 500.000000
0.260000 0.090000 0.299380 -78.707956 36.718298 -22.124074 500.000000
0.260000 0.090000 0.290000 -196.812387 21.904262 49.253505 500.000000
0.236845 0.090000 0.290000 99.368981 17.297320 39.237356 500.000000
-0.260000 0.090000 0.290000 59.895071 39.137169 120.872933 500.000000
-0.260000 0.260000 0.290000 194.980492 -38.100155 61.543321 500.000000
0.260000 0.260000 0.343053 -53.931185 -37.485739 -6.227916 500.000000
-0.260000 0.090000 0.410000 86.950416 49.979652 -101.796384 500.000000
0.260000 0.090000 0.410000 -89.948678 151.137823 -20.534977 500.000000
0.260000 0.116211 0.300105 -101.313950 -28.757853 -21.978903 500.000000
-0.251205 0.090000 0.290000 -102.240998 35.245375 138.174055 500.000000
0.260000 0.090000 0.410000 -71.319542 63.308080 -39.785214 500.000000
0.260000 0.128276 0.352875 -158.864612 -26.344762 12.574976 500.000000
0.260000 0.090000 0.410000 -67.445906 62.230958 -46.554719 500.000000
0.260000 0.090000 0.410000 -68.467696 62.830242 -40.203945 500.000000
-0.206264 0.090000 0.290000 -93.252791 81.684466 86.595341 500.000000
0.260000 0.115551 0.316634 -102.252012 -28.889814 -18.673194 500.000000
0.260000 0.115807 0.294508 -102.538904 -28.838537 -23.098490 500.000000
-0.260000 0.090000 0.290000 69.533203 34.067646 89.742662 500.000000
0.260000 0.090000 0.410000 -67.324916 55.172994 -58.726206 500.000000
0.260000 0.090000 0.410000 -33.827710 15.434981 -12.703952 500.000000
0.260000 0.090000 0.410000 -67.168021 62.401468 -39.695561 500.000000
-0.260000 0.090000 0.410000 1150.785788 56.880497 -29.340982 500.000000
-0.260000 0.090000 0.410000 165.307682 283.953731 -12.375101 500.000000
-0.131082 0.090000 0.410000 -78.216307 707.219478 -12.910890 500.000000
0.260000 0.260000 0.290000 -91.848638 -27.558525 26.707412 500.000000
-0.078001 0.260000 0.410000 -67.600206 -393.737800 -95.961655 500.000000
0.260000 0.112224 0.290000 -106.474571 -29.555236 39.543357 500.000000
0.260000 0.260000 0.290000 -93.619513 -27.554541 26.502175 500.000000
0.260000 0.116929 0.317205 -101.904384 -28.614279 -18.559079 500.000000
0.260000 0.090000 0.410000 -76.103538 190.658266 -22.718545 500.000000
0.260000 0.111493 0.317423 -102.938546 -29.701391 -18.515306 500.000000
-0.260000 0.090000 0.410000 132.710267 28.168734 -17.935947 500.000000
0.260000 0.090000 0.410000 -222.099183 542.115606 -22.540751 500.000000
-0.260000 0.090000 0.410000 211.523619 88.443690 -12.953072 500.000000
-0.260000 0.260000 0.410000 75.599362 -460.579015 -37.066417 500.000000
0.260000 0.090000 0.390719 -227.966847 154.257808 20.143734 500.000000
0.260000 0.090000 0.410000 -99.043909 56.022680 -59.437117 500.000000
-0.260000 0.090000 0.290000 58.533230 35.953670 104.309650 500.000000
0.260000 0.090000 0.335424 -87.625632 61.174097 -14.915249 500.000000
0.046644 0.260000 0.410000 -42.671212 -388.043443 -126.383899 500.000000
0.260000 0.090000 0.290000 -120.314792 18.954800 74.852733 500.000000
-0.260000 0.090000 0.410000 105.790990 49.906823 -70.193783 500.000000
-0.260000 0.260000 0.293184 54.868560 -148.108702 -23.363130 500.000000
0.260000 0.090000 0.410000 -67.183494 62.297924 -39.697267 500.000000
0.260000 0.090000 0.290000 -78.689150 45.700775 12.129499 500.000000
-0.260000 0.260000 0.410000 64.442213 -397.649721 -13.569240 500.000000
0.260000 0.090000 0.410000 -42.211147 53.584430 -23.167987 500.000000
-0.016383 0.260000 0.290000 48.723398 -37.906210 44.068021 500.000000
0.260000 0.090000 0.290000 -78.870395 39.227477 12.672072 500.000000
0.260000 0.090000 0.325684 -88.564938 32.127159 -16.863182 500.000000
