ply
format ascii 1.0
element vertex 240
property float x
property float y
property float z
property float vx
property float vy
property float vz
property float density
end_header
-0.260000 0.260000 0.290000 55.444302 -112.710773 121.157243 500.000000
-0.241302 0.260000 0.290000 -100.260301 -94.137230 49.051376 500.000000
-0.260000 0.260000 0.410000 87.620182 -85.569389 -142.625014 500.000000
-0.260000 0.090000 0.345433 30.218324 128.569239 -12.913380 500.000000
-0.260000 0.260000 0.410000 86.793765 -81.089594 -142.063194 500.000000
-0.178415 0.260000 0.290000 -87.683095 -196.392942 271.894777 500.000000
0.260000 0.260000 0.410000 -17.147655 -39.393874 -17.515035 500.000000
0.260000 0.260000 0.410000 -87.815240 -127.619177 -79.216981 500.000000
-0.070473 0.090000 0.410000 -66.094560 932.608779 -101.915275 500.000000
-0.244875 0.090000 0.290000 -100.974963 136.810444 474.275056 500.000000
-0.233227 0.187909 0.410000 -98.645303 19.581829 -258.919828 500.000000
0.260000 0.260000 0.290000 -81.040802 -75.397496 96.123468 500.000000
0.260000 0.090000 0.410000 -94.717493 51.875708 -63.152444 500.000000
-0.236468 0.260000 0.382194 -26.989593 -8.347238 18.438863 500.000000
-0.221104 0.090000 0.410000 -96.220721 85.767166 -258.233412 500.000000
-0.260000 0.260000 0.290000 54.996615 -112.003142 72.411112 500.000000
0.086414 0.156329 0.290000 18.211532 -7.261535 28.407439 500.000000
0.042514 0.259600 0.410000 -43.497106 33.919924 -139.827779 500.000000
-0.088966 0.260000 0.290000 -69.793289 -46.704581 79.154063 500.000000
0.260000 0.090000 0.410000 -61.700238 28.395047 -62.356584 500.000000
0.260000 0.090000 0.410000 -66.542463 28.349250 -62.111598 500.000000
-0.260000 0.090000 0.290000 132.947277 72.526513 49.546487 500.000000
-0.260000 0.260000 0.297679 30.525129 -51.705015 -22.464147 500.000000
-0.260000 0.260000 0.410000 112.831547 -74.559701 -155.573075 500.000000
0.260000 0.090000 0.290000 -85.406797 42.651105 37.120269 500.000000
0.260000 0.260000 0.290000 -65.892828 -66.456593 24.254993 500.000000
-0.147874 0.142672 0.410000 22.425214 -23.465525 -50.518439 500.000000
-0.066976 0.090000 0.410000 -65.395171 55.151107 -67.500163 500.000000
0.008779 0.260000 0.290000 -50.244153 -140.919769 21.243618 500.000000
-0.260000 0.090000 0.290000 280.140288 67.041420 46.715483 500.000000
0.260000 0.260000 0.290000 -242.708603 -76.996168 66.765013 500.000000
0.260000 0.158603 0.290000 -49.346649 -20.279331 31.246696 500.000000
-0.102919 0.090000 0.290000 -72.583849 20.865250 199.497858 500.000000
0.260000 0.090000 0.290000 -175.505521 28.345896 495.967051 500.000000
-0.104619 0.090000 0.290000 -72.923757 36.672101 68.653269 500.000000
-0.190711 0.090000 0.290000 -10.403554 34.064352 14.791939 500.000000
-0.260000 0.260000 0.290000 302.421575 -233.775746 21.384810 500.000000
-0.114343 0.260000 0.290000 -74.868680 -15.511317 205.521614 500.000000
-0.092150 0.090000 0.410000 -70.429922 93.383803 -250.114949 500.000000
-0.260000 0.260000 0.290000 61.572218 -96.007765 52.301034 500.000000
0.260000 0.090000 0.410000 -141.329005 28.602533 -65.918764 500.000000
-0.202265 0.260000 0.290000 -92.453093 -279.153320 109.367537 500.000000
0.260000 0.090000 0.290000 -62.779816 197.394891 30.797432 500.000000
-0.260000 0.260000 0.290000 56.663434 -93.965174 42.108545 500.000000
0.260000 0.090000 0.410000 -227.961122 113.101071 -16.352166 500.000000
-0.115195 0.260000 0.290000 -75.039054 -307.768128 435.132772 500.000000
0.260000 0.090000 0.410000 -64.848196 29.681216 -65.403276 500.000000
-0.005156 0.260000 0.410000 -53.031230 -511.395737 -212.215475 500.000000
-0.094166 0.260000 0.290000 -70.833222 -35.942297 717.218804 500.000000
0.260000 0.260000 0.290000 -65.154311 -72.687527 25.597972 500.000000
-0.007726 0.090000 0.410000 50.454742 17.905106 -590.517219 500.000000
-0.104818 0.260000 0.410000 -72.963584 -13.404647 -75.398682 500.000000
-0.260000 0.260000 0.410000 88.739354 -94.425440 -143.127666 500.000000
-0.248032 0.260000 0.290000 -101.606400 -109.773523 138.746770 500.000000
0.048948 0.090000 0.290000 27.148799 20.270141 12.357646 500.000000
0.260000 0.260000 0.410000 -968.660891 -59.380771 -101.596189 500.000000
0.260000 0.090000 0.410000 -145.177642 195.134096 -60.790772 500.000000
-0.244890 0.090000 0.290000 -100.978056 116.278562 245.369515 500.000000
-0.260000 0.260000 0.410000 88.834877 -80.957242 -142.324303 500.000000
-0.132387 0.260000 0.410000 -78.477307 -232.653126 -239.511153 500.000000
-0.260000 0.260000 0.324967 38.872986 -33.454463 -17.006519 500.000000
-0.260000 0.198439 0.290000 27.397817 21.687842 105.267087 500.000000
0.260000 0.090000 0.290000 -62.500381 64.669247 49.591738 500.000000
-0.260000 0.260000 0.410000 202.122520 -90.539110 -118.198853 500.000000
-0.260000 0.260000 0.290000 53.420224 -112.026385 136.399102 500.000000
0.260000 0.260000 0.410000 -90.029205 -150.364742 -88.078073 500.000000
0.260000 0.090000 0.410000 -62.827986 28.479550 -62.679593 500.000000
0.260000 0.090000 0.410000 -76.949535 26.673928 -75.443673 500.000000
0.260000 0.090000 0.410000 -54.989303 28.714085 -65.877376 500.000000
0.240899 0.090000 0.290000 100.179834 39.468785 42.004803 500.000000
0.182203 0.090000 0.410000 -15.559370 12.805099 -28.350766 500.000000
-0.021610 0.120521 0.290000 47.677980 -27.895853 628.359643 500.000000
0.225630 0.181289 0.350273 19.795635 -4.085387 12.054516 500.000000
0.260000 0.090000 0.290000 -52.269711 43.983889 37.594009 500.000000
-0.260000 0.090000 0.290000 80.626381 21.573486 26.535142 500.000000
-0.103415 0.260000 0.290000 -72.683037 -62.228695 300.760442 500.000000
-0.260000 0.090000 0.410000 56.509298 146.135503 -256.323337 500.000000
-0.180887 0.090000 0.410000 -88.177340 91.187292 -247.446419 500.000000
0.260000 0.090000 0.290000 -65.912063 42.655206 37.127783 500.000000
0.260000 0.260000 0.410000 -70.009048 -155.711550 -87.809398 500.000000
0.260000 0.090000 0.410000 -73.239917 41.183040 -63.155192 500.000000
-0.249408 0.260000 0.290000 -101.881558 -114.570772 40.501032 500.000000
-0.109696 0.260000 0.410000 -73.939274 -109.945236 -118.173170 500.000000
-0.260000 0.260000 0.410000 89.070078 -81.080958 -142.202808 500.000000
-0.108352 0.090000 0.410000 -73.670415 162.304239 -75.829323 500.000000
-0.126736 0.260000 0.410000 -77.347277 -259.464353 -30.836195 500.000000
0.260000 0.160699 0.410000 -54.701177 -19.860249 -85.397239 500.000000
-0.260000 0.090000 0.290000 131.798269 79.306521 54.249892 500.000000
-0.247912 0.260000 0.290000 -101.582368 -111.670542 129.600473 500.000000
-0.148909 0.090000 0.410000 -81.781801 86.128260 -266.468789 500.000000
-0.243685 0.090000 0.410000 -100.737098 106.071101 -247.004947 500.000000
-0.260000 0.260000 0.410000 193.052635 -96.053452 -121.441132 500.000000
-0.260000 0.260000 0.410000 68.002772 -59.913743 -121.318889 500.000000
-0.260000 0.090000 0.290000 44.314539 24.397299 12.273633 500.000000
0.260000 0.090000 0.290000 -57.568357 65.344390 43.753532 500.000000
0.260000 0.260000 0.290000 -771.748657 -34.874495 22.500946 500.000000
0.260000 0.090000 0.290000 -363.891023 43.110293 43.972549 500.000000
-0.260000 0.260000 0.410000 52.705628 -73.169296 -220.174229 500.000000
0.260000 0.260000 0.410000 -109.901111 -123.538595 -106.738984 500.000000
0.036013 0.090000 0.410000 -44.797312 79.900517 -247.976255 500.000000
0.260000 0.260000 0.290000 -38.842368 -124.048309 15.297969 500.000000
0.260000 0.090000 0.290000 -59.367889 53.092949 95.878936 500.000000
0.225697 0.090000 0.410000 97.139362 38.872410 -52.800624 500.000000
-0.260000 0.260000 0.410000 88.249151 -89.620991 -149.893493 500.000000
-0.260000 0.090000 0.290000 100.795165 212.038251 49.968429 500.000000
0.260000 0.090000 0.410000 -120.224714 28.365751 -67.372996 500.000000
0.260000 0.260000 0.326103 -11.335514 -17.299480 -16.779445 500.000000
0.260000 0.260000 0.410000 -71.593644 -147.206288 -88.054660 500.000000
-0.206548 0.090000 0.410000 -93.309688 95.513313 -255.521576 500.000000
0.128974 0.260000 0.410000 77.794821 -117.052359 -106.773509 500.000000
-0.171623 0.260000 0.290000 -86.324636 -86.325473 45.781516 500.000000
0.149252 0.186052 0.310119 29.613230 -14.789575 -19.976260 500.000000
-0.218598 0.160749 0.290000 8.280458 -19.850293 32.311240 500.000000
0.026112 0.238240 0.410000 57.222483 29.648070 -38.630416 500.000000
0.260000 0.090000 0.326132 -86.130586 21.924240 -16.773648 500.000000
-0.260000 0.090000 0.410000 55.958574 86.894443 -250.644182 500.000000
-0.260000 0.090000 0.410000 227.475898 24.567632 -262.310402 500.000000
0.260000 0.149055 0.410000 -29.692076 -22.189026 -39.358638 500.000000
0.019023 0.090000 0.290000 18.533707 40.536120 14.737573 500.000000
0.183456 0.260000 0.290000 88.691233 -64.942776 26.844094 500.000000
0.260000 0.260000 0.410000 -66.432868 -139.511376 -79.400398 500.000000
0.260000 0.260000 0.410000 -87.860864 -149.886845 -88.056043 500.000000
0.260000 0.260000 0.290000 -110.307936 -52.621770 309.192896 500.000000
-0.260000 0.260000 0.410000 89.193407 -81.193843 -146.575720 500.000000
0.260000 0.090000 0.290000 -58.416326 62.667066 43.835148 500.000000
0.260000 0.090000 0.410000 -60.163965 34.785379 -62.496107 500.000000
-0.260000 0.260000 0.290000 88.400636 -25.869191 616.532069 500.000000
-0.260000 0.090000 0.410000 537.699568 97.748038 -303.477061 500.000000
-0.126027 0.090000 0.290000 -77.205493 131.792741 217.304236 500.000000
0.260000 0.090000 0.290000 -67.933535 163.492016 19.378998 500.000000
0.132244 0.260000 0.290000 35.065826 -37.401942 11.098359 500.000000
0.260000 0.090000 0.410000 -61.250973 28.409098 -62.341854 500.000000
0.231406 0.260000 0.290000 98.281170 -302.444032 19.614390 500.000000
0.260000 0.090000 0.290000 -55.065997 43.045353 41.096655 500.000000
0.115231 0.090000 0.410000 75.046296 528.371313 -67.264553 500.000000
0.098035 0.090000 0.410000 71.606927 524.781488 -67.099568 500.000000
-0.109850 0.090000 0.410000 -73.970084 80.667242 -262.779584 500.000000
0.260000 0.129787 0.290000 -71.374867 -26.042609 35.108487 500.000000
0.059581 0.260000 0.410000 -1.568997 -33.774729 -19.782930 500.000000
0.068134 0.260000 0.290000 65.626877 -66.773979 16.458658 500.000000
0.260000 0.090000 0.410000 -57.140822 100.106035 -63.098145 500.000000
-0.260000 0.090000 0.410000 52.638456 86.608893 -256.201734 500.000000
0.260000 0.090000 0.410000 -63.162637 28.456759 -62.681115 500.000000
-0.260000 0.260000 0.290000 38.057858 -356.555500 72.227989 500.000000
-0.260000 0.090000 0.290000 107.081115 114.844065 45.305173 500.000000
-0.260000 0.260000 0.290000 60.233078 -88.223147 45.449769 500.000000
-0.095608 0.260000 0.290000 -71.121699 -384.945846 211.009633 500.000000
-0.260000 0.090000 0.290000 438.458315 90.343571 331.570570 500.000000
0.032206 0.260000 0.290453 58.441144 -38.840102 -23.909407 500.000000
0.260000 0.260000 0.290000 -59.245414 -68.720632 13.327839 500.000000
-0.011774 0.260000 0.295254 -35.500268 -28.544928 -22.949207 500.000000
-0.026532 0.260000 0.290000 -57.306444 -10.154149 37.383083 500.000000
0.260000 0.260000 0.410000 -57.343258 -406.583087 -94.101460 500.000000
0.260000 0.090000 0.410000 -57.167095 61.715994 -63.738655 500.000000
-0.260000 0.260000 0.410000 86.612831 -81.079004 -141.907042 500.000000
-0.260000 0.090000 0.290000 96.489117 71.988800 50.564263 500.000000
0.242139 0.260000 0.410000 100.427801 -117.733333 -79.194066 500.000000
-0.175019 0.090000 0.290000 16.996144 222.152935 178.673815 500.000000
0.260000 0.090000 0.290000 -68.261549 63.774067 47.399204 500.000000
0.260000 0.090000 0.290000 -51.247893 23.299104 22.563897 500.000000
-0.260000 0.260000 0.410000 87.089924 -81.075883 -142.183395 500.000000
-0.260000 0.260000 0.410000 49.676662 -34.563226 -29.059194 500.000000
-0.260000 0.260000 0.410000 156.066684 -89.716415 -147.982562 500.000000
-0.260000 0.136549 0.410000 23.793794 -24.690293 -51.499496 500.000000
0.260000 0.090000 0.290000 -57.347821 47.388785 42.568972 500.000000
-0.193043 0.090000 0.410000 -90.608628 106.199255 -252.856348 500.000000
-0.260000 0.260000 0.410000 32.137737 -37.598029 -44.685934 500.000000
-0.260000 0.260000 0.410000 88.324509 -81.004453 -142.639275 500.000000
0.024964 0.090000 0.410000 56.992708 61.652622 -61.690811 500.000000
-0.182766 0.260000 0.290000 -88.553234 -48.033402 784.250865 500.000000
0.260000 0.260000 0.290000 -52.917079 -84.882436 56.388958 500.000000
-0.110767 0.249240 0.290000 -74.153486 9.893288 80.042952 500.000000
-0.105241 0.090000 0.410000 -73.048262 148.080782 -27.999531 500.000000
0.260000 0.260000 0.290000 -90.910739 -92.411109 59.844953 500.000000
0.260000 0.260000 0.410000 -180.744033 -115.479044 -74.793869 500.000000
-0.260000 0.090000 0.290000 44.514564 96.622877 27.742443 500.000000
-0.260000 0.260000 0.410000 88.593895 -63.583941 -131.326343 500.000000
0.260000 0.090000 0.410000 -57.119909 31.991583 -63.172025 500.000000
-0.190926 0.090000 0.290000 -90.185117 147.435821 559.281265 500.000000
-0.260000 0.183270 0.292506 30.414828 -15.345920 -23.498826 500.000000
-0.185862 0.090000 0.410000 -89.172385 108.994372 -247.448130 500.000000
0.260000 0.260000 0.410000 -78.437207 -116.052624 -78.210703 500.000000
0.070320 0.256878 0.299292 -10.233154 33.375556 -22.141595 500.000000
-0.055325 0.090000 0.410000 40.934990 31.718996 -15.428150 500.000000
-0.166154 0.090000 0.410000 -85.230873 100.750242 -250.170939 500.000000
0.260000 0.260000 0.290000 -103.050083 -77.922817 34.624487 500.000000
-0.260000 0.090000 0.410000 304.654300 129.460837 -253.578449 500.000000
-0.260000 0.260000 0.410000 77.720817 -62.197876 -110.672093 500.000000
-0.014089 0.090000 0.290000 -54.817823 162.427148 168.324956 500.000000
-0.260000 0.090000 0.290000 121.440384 64.047681 48.931720 500.000000
-0.023963 0.117030 0.290000 47.207454 -28.594024 51.631314 500.000000
0.260000 0.090000 0.410000 -53.867317 32.517429 -93.074746 500.000000
0.260000 0.090000 0.410000 -63.043898 28.215719 -63.137934 500.000000
-0.166014 0.260000 0.290000 18.797255 -52.249588 359.785085 500.000000
-0.260000 0.260000 0.290000 103.477499 -366.317417 50.614559 500.000000
-0.260000 0.090000 0.290000 95.407021 57.619399 48.017896 500.000000
0.260000 0.090000 0.290000 -58.690217 63.122467 35.355065 500.000000
-0.260000 0.260000 0.410000 86.466360 -81.079851 -142.405213 500.000000
-0.260000 0.090000 0.290000 59.167110 157.179018 637.314729 500.000000
0.260000 0.090000 0.410000 -60.039804 28.731093 -62.352080 500.000000
0.154609 0.260000 0.290000 82.921822 -43.209389 27.414628 500.000000
-0.137664 0.090000 0.290000 -79.532810 126.064583 388.272004 500.000000
0.260000 0.090000 0.292160 -134.764848 24.428755 -23.567966 500.000000
-0.241550 0.090000 0.410000 -100.309905 195.127400 -190.977857 500.000000
-0.260000 0.260000 0.290000 166.537439 -147.370506 38.486273 500.000000
-0.104393 0.090000 0.290000 -72.878620 121.331922 172.925362 500.000000
-0.260000 0.090000 0.290000 53.999976 167.529546 720.691184 500.000000
0.260000 0.090000 0.290000 -61.680107 47.902185 43.977024 500.000000
0.260000 0.090000 0.410000 -67.790902 73.580723 -63.152512 500.000000
-0.055648 0.090000 0.290000 40.870422 26.101286 44.645903 500.000000
0.260000 0.090000 0.410000 -85.304929 89.306240 -62.714394 500.000000
-0.260000 0.090000 0.290000 62.918633 698.598019 41.354032 500.000000
-0.260000 0.260000 0.410000 90.176365 -81.222214 -142.584685 500.000000
-0.260000 0.260000 0.410000 68.805409 -153.578151 -235.204238 500.000000
-0.252366 0.260000 0.290000 -102.473269 -112.923786 100.146426 500.000000
-0.106982 0.090000 0.290000 -73.396320 106.638462 322.341426 500.000000
0.260000 0.090000 0.410000 -60.948038 28.948797 -62.331777 500.000000
-0.240699 0.260000 0.290000 -100.139899 -113.254362 83.015807 500.000000
0.260000 0.090000 0.290000 -81.499589 57.555620 49.231824 500.000000
-0.260000 0.260000 0.410000 79.277349 -86.730985 -112.686881 500.000000
0.260000 0.090000 0.290000 -346.854480 197.026290 43.616021 500.000000
-0.260000 0.260000 0.410000 63.642398 -86.811961 -112.675296 500.000000
-0.260000 0.260000 0.410000 87.849465 -81.215554 -141.909993 500.000000
0.039097 0.260000 0.410000 59.819322 -108.683899 -87.036042 500.000000
0.260000 0.090000 0.290000 -54.992113 42.664336 37.134235 500.000000
0.045806 0.198187 0.410000 37.213146 21.637467 -43.322720 500.000000
-0.260000 0.090000 0.410000 514.782567 93.004142 -265.004472 500.000000
0.260000 0.090000 0.290000 -67.465504 65.315747 63.884933 500.000000
-0.260000 0.260000 0.290000 53.517195 -111.967748 110.555185 500.000000
-0.012482 0.260000 0.290000 49.503537 -40.754244 184.030845 500.000000
0.260000 0.090000 0.410000 -60.056772 28.317488 -62.228073 500.000000
0.260000 0.090000 0.290000 -57.302416 62.704050 43.692771 500.000000
0.211971 0.260000 0.290000 94.394197 -43.630494 95.546087 500.000000
0.260000 0.090000 0.410000 -89.274922 62.739258 -63.152061 500.000000
0.260000 0.260000 0.290000 -451.665499 -52.464506 42.079946 500.000000
-0.133843 0.090000 0.410000 -78.768528 108.862117 -258.442694 500.000000
0.254736 0.153429 0.290000 19.726644 -21.314191 40.289225 500.000000
0.260000 0.090000 0.410000 -63.433810 26.237335 -63.644318 500.000000
-0.156265 0.260000 0.290000 -83.253040 -52.483666 106.685621 500.000000
0.260000 0.161783 0.290000 -24.908736 -19.643359 8.342154 500.000000
