ply
format ascii 1.0
element vertex 240
property float x
property float y
property float z
property float vx
property float vy
property float vz
property float density
end_header
-0.260000 0.244891 0.290000 78.304805 11.738093 64.859923 500.000000
-0.260000 0.260000 0.290000 74.060499 -35.804628 676.314487 500.000000
-0.077090 0.260000 0.290000 -67.417939 -79.662912 124.838091 500.000000
0.260000 0.090000 0.290000 -244.412384 25.166882 26.921600 500.000000
0.068160 0.090000 0.410000 65.632001 38.514493 -242.214762 500.000000
-0.058004 0.260000 0.410000 -63.600736 -47.172373 -224.853532 500.000000
0.260000 0.090000 0.410000 -443.324095 163.025800 -246.288157 500.000000
-0.260000 0.260000 0.410000 86.696121 -29.979365 -201.627952 500.000000
-0.260000 0.260000 0.290000 126.815222 -58.313710 84.523909 500.000000
-0.260000 0.090000 0.290000 211.422458 123.151328 41.926886 500.000000
-0.260000 0.260000 0.410000 70.180401 -41.422698 -202.130126 500.000000
-0.260000 0.090000 0.410000 84.010757 72.594352 -225.631480 500.000000
0.260000 0.090000 0.290000 -333.463438 108.087672 71.885595 500.000000
-0.260000 0.090000 0.410000 129.114917 109.625209 -242.004113 500.000000
-0.260000 0.260000 0.410000 107.916741 -31.406318 -201.540850 500.000000
0.097971 0.090000 0.410000 -32.405851 262.234776 -59.943961 500.000000
0.260000 0.260000 0.410000 -35.874341 -28.913985 -57.349629 500.000000
-0.260000 0.260000 0.410000 106.622179 -35.458930 -201.492797 500.000000
-0.148005 0.090000 0.290000 22.398980 17.401579 96.305393 500.000000
0.247775 0.260000 0.290000 101.554971 -330.045998 188.795571 500.000000
0.260000 0.090000 0.290000 -158.314645 105.542800 329.376986 500.000000
0.260000 0.260000 0.410000 -104.537879 -49.875203 -164.877010 500.000000
-0.260000 0.260000 0.410000 71.254719 -29.951614 -242.618546 500.000000
-0.260000 0.260000 0.290000 52.088882 -314.912212 95.000221 500.000000
-0.260000 0.260000 0.410000 113.416944 -34.887086 -202.915159 500.000000
0.260000 0.090000 0.410000 -414.356746 35.303364 -246.987028 500.000000
0.031785 0.090000 0.410000 58.357099 81.638241 -382.667159 500.000000
0.260000 0.090000 0.410000 -468.480024 54.111843 -247.657321 500.000000
-0.260000 0.260000 0.290000 69.667903 -32.118932 199.267888 500.000000
-0.260000 0.260000 0.410000 72.613109 -39.451605 -200.344770 500.000000
0.260000 0.260000 0.290000 -92.814941 -35.310982 396.253813 500.000000
0.138019 0.090000 0.410000 79.603828 386.871819 -251.903701 500.000000
0.260000 0.224577 0.410000 -73.743447 26.915409 -599.318726 500.000000
-0.260000 0.090000 0.290000 28.070505 161.702355 23.922229 500.000000
0.046857 0.090000 0.410000 61.371406 43.671044 -265.476085 500.000000
0.260000 0.260000 0.410000 -104.825400 -45.793017 -164.748410 500.000000
-0.260000 0.090000 0.290000 85.292399 104.873514 28.244325 500.000000
-0.260000 0.090000 0.410000 42.879585 17.615270 -162.282587 500.000000
0.038151 0.260000 0.290000 59.630291 -239.031967 194.179377 500.000000
0.260000 0.090000 0.290000 -68.905519 174.225317 56.559350 500.000000
0.225038 0.260000 0.290000 55.281500 -18.559518 38.159484 500.000000
-0.260000 0.260000 0.290000 92.541204 -42.279561 506.959309 500.000000
-0.260000 0.090000 0.290000 105.962628 134.673109 51.619177 500.000000
0.260000 0.260000 0.410000 -104.575915 -45.794241 -163.949168 500.000000
-0.260000 0.195242 0.290000 45.565763 21.048485 22.850659 500.000000
0.260000 0.260000 0.410000 -80.242985 -109.315799 -160.263071 500.000000
-0.260000 0.260000 0.290000 58.244095 -66.086609 87.057275 500.000000
-0.260000 0.260000 0.410000 85.629964 -39.683273 -203.392223 500.000000
0.260000 0.260000 0.410000 -110.965841 -45.531230 -164.057571 500.000000
-0.260000 0.090000 0.410000 85.475900 65.737068 -221.345332 500.000000
0.260000 0.260000 0.292740 -74.732652 -29.855654 -23.452039 500.000000
-0.260000 0.260000 0.290000 80.956893 -40.676086 376.002006 500.000000
0.260000 0.222949 0.410000 -53.336894 26.589848 -518.480225 500.000000
-0.056490 0.090000 0.290000 -63.298047 212.951545 17.312077 500.000000
0.010816 0.090000 0.410000 54.163189 33.626167 -306.575382 500.000000
0.175049 0.090000 0.410000 87.009791 41.210362 -245.437180 500.000000
0.227963 0.195908 0.290000 97.592555 21.181568 172.398025 500.000000
-0.260000 0.260000 0.410000 99.624034 -31.530765 -201.490567 500.000000
-0.260000 0.260000 0.410000 95.181240 -190.922049 -224.111479 500.000000
-0.260000 0.090000 0.290000 99.018104 95.820842 15.862753 500.000000
-0.260000 0.090000 0.290000 98.404271 97.120409 15.873309 500.000000
0.260000 0.260000 0.410000 -106.691531 -45.473308 -163.330892 500.000000
-0.260000 0.260000 0.410000 97.150540 -127.064051 -32.735282 500.000000
0.260000 0.260000 0.410000 -105.362604 -50.625350 -163.916585 500.000000
0.012539 0.260000 0.290000 54.507756 -21.509343 211.846572 500.000000
0.260000 0.260000 0.410000 -104.383099 -46.321558 -163.278237 500.000000
-0.260000 0.260000 0.290000 78.565568 -295.976653 99.168162 500.000000
0.049365 0.090000 0.410000 61.872929 41.184603 -258.713368 500.000000
0.260000 0.090000 0.290000 -84.507247 174.326334 43.641779 500.000000
-0.260000 0.090000 0.290000 83.942349 60.926125 429.812670 500.000000
-0.022683 0.215682 0.290000 47.463324 25.136342 174.313577 500.000000
0.260000 0.090000 0.290000 -113.454087 38.244506 720.142742 500.000000
0.123722 0.260000 0.410000 -27.255618 -23.409787 -440.927432 500.000000
0.161541 0.126998 0.290000 -19.691847 -26.600478 343.393680 500.000000
0.146622 0.260000 0.290000 81.324346 -209.720487 194.736147 500.000000
0.260000 0.260000 0.410000 -138.711530 -161.907909 -160.103718 500.000000
0.260000 0.260000 0.290000 -114.262277 -225.296817 172.528792 500.000000
0.260000 0.258882 0.410000 -96.164854 33.776416 -274.163206 500.000000
-0.260000 0.090000 0.410000 88.580805 184.722552 -223.376592 500.000000
0.113548 0.260000 0.290000 -29.290339 -63.374780 83.185976 500.000000
0.260000 0.260000 0.290000 -501.738807 -27.473080 485.038359 500.000000
-0.175065 0.090000 0.410000 -43.501058 33.805843 -153.252929 500.000000
-0.231740 0.260000 0.410000 -98.348081 -35.687617 -217.808877 500.000000
0.244703 0.090000 0.290000 100.940676 65.486547 36.790818 500.000000
-0.260000 0.090000 0.290000 114.918557 96.833129 15.767429 500.000000
0.056155 0.090000 0.410000 63.231040 43.712162 -264.213229 500.000000
-0.260000 0.090000 0.290000 142.823497 36.017383 476.088203 500.000000
-0.260000 0.090000 0.410000 85.424604 133.303701 -227.223146 500.000000
-0.260000 0.260000 0.410000 105.231437 -26.159296 -274.749913 500.000000
-0.260000 0.090000 0.290000 87.936242 119.937108 63.171210 500.000000
0.260000 0.260000 0.410000 -153.553817 -185.594058 -159.729028 500.000000
-0.260000 0.090000 0.410000 74.839260 22.281472 -53.400868 500.000000
-0.260000 0.090000 0.410000 117.432258 169.077880 -220.950681 500.000000
-0.260000 0.260000 0.290000 75.139459 -42.267349 269.436925 500.000000
-0.050515 0.260000 0.410000 -62.103061 -135.412874 -364.205753 500.000000
-0.260000 0.090000 0.410000 153.113057 103.919625 -221.387701 500.000000
-0.260000 0.090000 0.290000 95.141003 108.873394 14.652922 500.000000
0.081628 0.090000 0.410000 68.325521 43.807413 -263.620456 500.000000
-0.260000 0.090000 0.410000 86.395372 154.717572 -228.201207 500.000000
0.128740 0.260000 0.410000 -26.252037 -24.460306 -248.374491 500.000000
-0.260000 0.260000 0.290000 64.748423 -89.075565 131.047011 500.000000
-0.260000 0.260000 0.290000 70.145421 -39.331549 376.019958 500.000000
0.260000 0.090000 0.290000 -54.286780 20.754802 236.313200 500.000000
-0.035961 0.260000 0.290000 -59.192185 -79.976807 81.557040 500.000000
-0.260000 0.260000 0.410000 127.658568 -89.348446 -200.242336 500.000000
0.260000 0.090000 0.290000 -90.839849 191.840954 108.659396 500.000000
-0.115756 0.260000 0.290000 -75.151177 -66.186729 87.073721 500.000000
0.260000 0.260000 0.410000 -159.610821 -75.790157 -160.151019 500.000000
0.044951 0.090000 0.410000 60.990131 42.821888 -320.640157 500.000000
0.260000 0.224883 0.410000 -95.314583 26.976639 -653.449064 500.000000
0.260000 0.260000 0.410000 -105.170158 -58.195369 -164.620480 500.000000
-0.260000 0.260000 0.290000 70.339800 -31.933232 675.889490 500.000000
0.260000 0.090000 0.290000 -182.752291 29.543484 740.412210 500.000000
0.260000 0.090000 0.290000 -75.460788 83.823055 368.828842 500.000000
-0.015049 0.090000 0.290000 -55.009811 32.824404 63.491576 500.000000
0.260000 0.260000 0.410000 -245.644978 -95.535137 -159.871178 500.000000
-0.260000 0.260000 0.290000 70.132448 -33.176322 589.914150 500.000000
-0.260000 0.260000 0.410000 74.058192 -18.567427 -38.410057 500.000000
0.260000 0.260000 0.290000 -12.531624 -36.243359 34.289489 500.000000
-0.260000 0.260000 0.331829 13.387068 -138.445688 -15.634205 500.000000
0.260000 0.260000 0.410000 -118.351511 -45.788989 -160.810605 500.000000
0.260000 0.260000 0.290000 -61.903084 -23.214778 207.074784 500.000000
-0.260000 0.260000 0.410000 107.152550 -32.843956 -202.902083 500.000000
-0.260000 0.090000 0.410000 102.281835 68.163171 -227.734840 500.000000
0.260000 0.260000 0.410000 -104.720186 -48.454638 -164.632636 500.000000
0.001343 0.260000 0.290000 52.268601 -264.294105 188.220991 500.000000
0.260000 0.260000 0.410000 -102.550533 -75.216450 -212.360082 500.000000
0.066885 0.090000 0.410000 65.376911 39.842794 -263.309337 500.000000
-0.260000 0.260000 0.410000 703.778546 -20.506289 -117.384854 500.000000
-0.260000 0.126316 0.312587 60.032748 -26.736717 -19.482551 500.000000
-0.035178 0.090000 0.410000 -59.035504 92.155866 -256.781015 500.000000
-0.260000 0.090000 0.290000 106.106235 39.823236 483.968571 500.000000
-0.260000 0.260000 0.410000 321.306815 -62.683288 -257.386657 500.000000
0.260000 0.090000 0.410000 -373.942517 37.907789 -247.173883 500.000000
-0.138604 0.090000 0.290000 -39.460269 165.076953 22.162273 500.000000
0.260000 0.090000 0.290000 -58.598499 225.493384 27.377190 500.000000
0.260000 0.090000 0.290000 -60.304868 171.264911 57.151776 500.000000
0.260000 0.090000 0.381161 -37.536326 40.796710 18.232160 500.000000
0.132641 0.090000 0.290000 6.523015 38.281182 34.683998 500.000000
0.260000 0.260000 0.410000 -105.505510 -59.300977 -165.122850 500.000000
0.260000 0.260000 0.290000 -78.016515 -31.465561 216.007289 500.000000
0.260000 0.260000 0.290000 -375.564567 -40.309867 539.930119 500.000000
-0.260000 0.260000 0.290000 80.181325 -103.751225 115.784898 500.000000
0.132604 0.090000 0.410000 78.520700 41.250064 -263.556583 500.000000
0.260000 0.090000 0.290000 -73.548182 183.503809 29.377910 500.000000
-0.260000 0.260000 0.410000 72.966474 -248.731936 -50.656281 500.000000
-0.260000 0.260000 0.410000 107.661638 -33.731963 -201.489679 500.000000
-0.260000 0.260000 0.410000 99.224344 -32.772952 -202.601070 500.000000
0.260000 0.260000 0.290000 -22.249900 -18.968681 13.423816 500.000000
-0.260000 0.260000 0.290000 73.137452 -332.701914 91.274395 500.000000
-0.260000 0.090000 0.410000 112.125512 69.992608 -245.431964 500.000000
0.260000 0.090000 0.410000 -88.900539 42.177661 -263.614944 500.000000
-0.260000 0.090000 0.410000 85.126805 66.431809 -225.124916 500.000000
-0.126034 0.260000 0.410000 -77.206811 -679.441465 -184.683864 500.000000
0.249852 0.260000 0.290000 101.970378 -62.519811 596.865192 500.000000
0.121298 0.090000 0.410000 76.259526 93.080808 -269.704031 500.000000
-0.260000 0.260000 0.410000 91.361780 -30.135236 -201.831268 500.000000
0.260000 0.241123 0.410000 -111.295710 30.224582 -633.105501 500.000000
-0.260000 0.090000 0.290000 129.309473 77.022912 565.542056 500.000000
0.260000 0.260000 0.410000 -93.973545 -44.532166 -188.733030 500.000000
-0.260000 0.260000 0.410000 589.746556 -23.024490 -93.044299 500.000000
0.085485 0.090000 0.290000 -34.902957 40.284261 21.590817 500.000000
-0.260000 0.090000 0.290000 156.681211 9.798950 42.105967 500.000000
0.260000 0.260000 0.410000 -178.667123 -48.359492 -164.191386 500.000000
0.178624 0.260000 0.290000 87.724707 -181.754067 188.763112 500.000000
-0.260000 0.090000 0.410000 290.821368 71.699764 -306.350764 500.000000
-0.260000 0.090000 0.290000 84.191259 95.902981 32.188787 500.000000
0.260000 0.260000 0.410000 -104.452739 -48.533945 -163.903357 500.000000
0.091210 0.260000 0.290000 70.242055 -190.431284 190.565038 500.000000
0.260000 0.090000 0.290000 -67.156880 180.490874 29.799003 500.000000
0.042553 0.260000 0.410000 -43.489348 -60.740181 -248.406696 500.000000
-0.260000 0.260000 0.290000 77.309927 -37.720080 117.816472 500.000000
-0.260000 0.090000 0.290000 99.682566 98.460833 15.886851 500.000000
-0.094477 0.090000 0.319109 -13.625825 6.179763 2.886026 500.000000
0.260000 0.090000 0.290000 -78.628934 176.506421 91.374145 500.000000
0.260000 0.260000 0.290000 -55.225000 -340.620180 187.032898 500.000000
-0.162504 0.260000 0.290000 -84.500896 -79.508046 154.077277 500.000000
0.055123 0.236867 0.290000 63.024584 29.373419 170.963279 500.000000
-0.260000 0.090000 0.290000 104.061246 95.782675 16.605065 500.000000
0.134407 0.090000 0.410000 78.881489 42.810550 -257.946609 500.000000
0.260000 0.090000 0.290000 -130.056753 70.019515 632.862334 500.000000
-0.260000 0.260000 0.410000 72.356855 -67.943934 -201.083804 500.000000
-0.260000 0.090000 0.290000 59.687335 660.019920 87.694225 500.000000
-0.250917 0.260000 0.290000 -102.183304 -349.438047 95.858138 500.000000
0.029943 0.090000 0.410000 57.988692 363.013208 -249.822019 500.000000
0.260000 0.260000 0.410000 -119.662889 -17.964778 -618.966987 500.000000
-0.105314 0.213109 0.290000 30.937160 24.621843 190.134421 500.000000
-0.260000 0.260000 0.290000 118.608052 -33.730234 496.881383 500.000000
0.260000 0.260000 0.410000 -147.102444 -112.889686 -161.902556 500.000000
-0.260000 0.260000 0.290000 71.453623 -65.337765 87.022488 500.000000
-0.260000 0.090000 0.290000 97.733840 99.819291 15.883758 500.000000
0.146055 0.090000 0.290000 81.210999 30.812627 450.060139 500.000000
-0.052402 0.090000 0.410000 41.519587 36.809354 -247.780192 500.000000
-0.260000 0.090000 0.290000 211.899070 95.775737 26.917299 500.000000
-0.260000 0.260000 0.290000 69.875708 -91.302439 129.867222 500.000000
-0.260000 0.090000 0.410000 86.019505 76.780144 -225.194851 500.000000
0.135626 0.090000 0.290000 79.125130 32.098441 402.406388 500.000000
-0.260000 0.090000 0.290000 347.911659 168.925427 41.172159 500.000000
0.260000 0.090000 0.290000 -57.965802 171.411590 85.056097 500.000000
-0.260000 0.090000 0.410000 63.295839 114.076881 -224.160428 500.000000
-0.079100 0.090000 0.290000 36.179926 53.211532 545.717806 500.000000
-0.260000 0.090000 0.290000 202.082533 168.273625 33.984174 500.000000
-0.116544 0.260000 0.410000 28.691113 -674.194924 -136.719641 500.000000
-0.260000 0.260000 0.410000 118.981489 -57.542070 -201.108818 500.000000
-0.079505 0.090000 0.410000 -67.900967 95.085646 -243.318555 500.000000
0.229660 0.170239 0.290000 97.932067 16.047775 167.024256 500.000000
-0.260000 0.090000 0.290000 199.783639 187.147720 389.922770 500.000000
0.260000 0.090000 0.290000 -301.338047 70.879924 22.699067 500.000000
0.260000 0.260000 0.290000 -507.952614 -27.538856 824.837626 500.000000
0.260000 0.090000 0.410000 -121.387337 36.978335 -325.412402 500.000000
0.021389 0.260000 0.290000 56.277740 -151.263208 191.342298 500.000000
-0.009833 0.090000 0.410000 50.033381 33.703443 -247.508272 500.000000
-0.260000 0.260000 0.290000 65.983429 -331.478415 95.154962 500.000000
0.252491 0.260000 0.290000 102.498164 -225.556649 231.948796 500.000000
0.260000 0.090000 0.290000 -66.494048 38.267620 566.761620 500.000000
-0.260000 0.090000 0.290000 105.393683 161.193156 23.345372 500.000000
0.260000 0.260000 0.410000 -95.396774 -33.366768 -16.606427 500.000000
-0.260000 0.260000 0.290000 135.855711 -26.513718 369.286077 500.000000
-0.091584 0.110059 0.410000 -50.837882 -29.988247 -21.533538 500.000000
-0.260000 0.260000 0.410000 65.401417 -21.351280 -202.243799 500.000000
-0.260000 0.260000 0.410000 69.962528 -41.175336 -218.386134 500.000000
0.260000 0.260000 0.290000 -50.267819 -26.274585 16.057286 500.000000
0.260000 0.090000 0.290000 -103.407413 177.086825 47.341594 500.000000
0.260000 0.260000 0.290000 -543.458480 -34.246961 360.877780 500.000000
-0.260000 0.090000 0.290000 161.987517 100.936182 12.885424 500.000000
-0.260000 0.090000 0.290000 41.375055 177.186710 30.944339 500.000000
-0.260000 0.260000 0.290000 70.003157 -38.488032 727.402792 500.000000
0.260000 0.200135 0.372652 -100.809899 -11.973075 -7.469699 500.000000
0.260000 0.260000 0.290000 -75.047880 -305.433595 191.600226 500.000000
-0.260000 0.090000 0.290000 124.321498 33.375460 511.550739 500.000000
0.260000 0.090000 0.290000 -21.643686 52.289165 18.501320 500.000000
0.098195 0.229787 0.290000 71.638926 27.957335 163.514677 500.000000
0.260000 0.090000 0.290000 -116.250287 150.637075 479.551260 500.000000
0.260000 0.090000 0.290000 -345.799616 70.043042 131.571814 500.000000
0.260000 0.204449 0.364981 -174.122017 -11.110103 -9.003776 500.000000
-0.064283 0.260000 0.410000 -64.856500 -31.469021 -419.946113 500.000000
0.260000 0.260000 0.290000 -22.806348 -30.738477 31.952955 500.000000
-0.081481 0.090000 0.334908 -68.296274 29.796729 -15.018470 500.000000
-0.260000 0.260000 0.410000 143.645156 -19.250474 -341.954547 500.000000
-0.260000 0.090000 0.290000 128.687124 58.923351 508.175164 500.000000
