ply
format ascii 1.0
element vertex 240
property float x
property float y
property float z
property float vx
property float vy
property float vz
property float density
end_header
0.022654 0.260000 0.410000 56.530807 -185.870602 -42.418374 500.000000
-0.260000 0.090000 0.410000 112.934048 126.592734 -71.907177 500.000000
0.260000 0.090000 0.290000 -77.706346 61.826241 37.325414 500.000000
-0.021609 0.090000 0.290000 5.503875 236.940765 100.825316 500.000000
-0.260000 0.090000 0.290000 174.839214 67.213053 37.432576 500.000000
-0.014595 0.260000 0.410000 49.081037 -578.736962 -55.104562 500.000000
0.171164 0.090000 0.290000 25.116101 8.338447 27.561290 500.000000
-0.260000 0.090000 0.290000 917.682693 54.693563 37.311880 500.000000
0.260000 0.260000 0.290000 -312.390299 -37.122548 54.392029 500.000000
-0.260000 0.260000 0.410000 285.866361 -28.607092 -24.152790 500.000000
-0.260000 0.260000 0.290000 52.584568 -91.415859 41.712559 500.000000
0.260000 0.090000 0.410000 -268.720940 291.562683 -63.380643 500.000000
-0.260000 0.260000 0.290000 53.221043 -92.729292 35.602373 500.000000
-0.260000 0.090000 0.410000 89.963445 152.158076 -85.882681 500.000000
-0.260000 0.260000 0.290000 55.643121 -93.685435 41.697876 500.000000
0.022340 0.260000 0.410000 56.468003 -350.497850 -40.608604 500.000000
-0.172753 0.090000 0.290000 -54.622588 26.633397 48.395598 500.000000
-0.260000 0.090000 0.290000 52.632190 1012.908785 38.401009 500.000000
-0.260000 0.090000 0.410000 96.093115 125.597153 -71.656022 500.000000
0.089332 0.206772 0.410000 -34.133563 9.084978 -13.373251 500.000000
-0.260000 0.260000 0.410000 48.449540 -37.735038 -62.306798 500.000000
-0.260000 0.090000 0.299278 198.983152 17.828320 -22.144318 500.000000
0.260000 0.090000 0.290000 -84.489818 60.906683 64.253166 500.000000
0.260000 0.090000 0.290000 -78.493095 61.482671 37.729473 500.000000
-0.260000 0.260000 0.410000 257.897638 -26.547738 -13.707163 500.000000
0.260000 0.090000 0.410000 -178.531088 252.855834 -52.155070 500.000000
-0.260000 0.260000 0.410000 207.843392 -88.592269 -170.955928 500.000000
-0.260000 0.260000 0.290000 55.054612 -92.607952 35.738174 500.000000
0.260000 0.260000 0.290000 -161.136774 -494.567923 126.317507 500.000000
-0.201869 0.090000 0.290000 -92.373716 54.219999 25.516754 500.000000
-0.260000 0.090000 0.410000 92.922892 125.957211 -72.090186 500.000000
0.260000 0.260000 0.290000 -125.824576 -467.151728 114.833573 500.000000
0.260000 0.090000 0.410000 -153.737147 252.959354 -53.947025 500.000000
-0.260000 0.260000 0.410000 260.709047 -26.101363 -28.024859 500.000000
0.126409 0.090000 0.410000 77.281720 25.484433 -14.200615 500.000000
-0.082943 0.090000 0.290000 -68.588600 120.729119 26.662283 500.000000
0.105949 0.090000 0.410000 73.189897 236.431798 -56.121214 500.000000
-0.129732 0.164392 0.410000 -11.644110 14.878466 -25.496101 500.000000
-0.260000 0.260000 0.290000 54.217267 -93.804174 41.436539 500.000000
0.022574 0.260000 0.410000 56.514817 -304.608966 -34.987291 500.000000
-0.260000 0.260000 0.290000 54.675596 -92.003032 35.688699 500.000000
0.260000 0.090000 0.410000 -173.647091 263.856189 -55.149715 500.000000
0.260000 0.260000 0.363891 -184.077795 -146.919224 14.778182 500.000000
0.021123 0.260000 0.410000 56.224533 -365.243758 -34.207961 500.000000
0.260000 0.260000 0.410000 -100.565942 -139.452427 -49.515088 500.000000
-0.260000 0.090000 0.410000 138.497974 28.176300 -69.531137 500.000000
-0.026370 0.090000 0.410000 46.725956 345.670312 -14.427692 500.000000
0.094326 0.090000 0.333929 -33.134800 55.824406 -15.214235 500.000000
-0.260000 0.260000 0.410000 92.648699 -182.876514 -66.242508 500.000000
0.260000 0.090000 0.410000 -213.280798 252.234373 -51.974174 500.000000
0.048144 0.239782 0.290000 -24.240636 29.956463 18.810833 500.000000
-0.203354 0.090000 0.410000 -13.755166 30.212831 -30.100210 500.000000
0.260000 0.090000 0.290000 -77.741271 62.102604 37.341099 500.000000
-0.260000 0.090000 0.410000 109.632547 127.107392 -75.258041 500.000000
-0.011560 0.090000 0.290000 4.101734 13.880512 10.288310 500.000000
-0.260000 0.260000 0.290000 70.462040 -178.770985 36.615199 500.000000
-0.260000 0.260000 0.290000 54.795696 -97.199797 35.528675 500.000000
-0.260000 0.260000 0.410000 280.425947 -27.966487 -17.011131 500.000000
0.260000 0.090000 0.290000 -77.744252 61.682314 37.316030 500.000000
0.260000 0.090000 0.290000 -76.927297 66.412294 39.730964 500.000000
-0.260000 0.260000 0.290000 62.583234 -98.381340 46.829102 500.000000
-0.260000 0.260000 0.364084 28.653501 -17.837795 5.479312 500.000000
0.260000 0.260000 0.369754 -222.963376 -142.425585 15.950853 500.000000
0.260000 0.090000 0.290000 -81.279520 61.981327 36.563168 500.000000
0.021854 0.260000 0.410000 56.370761 -263.427408 -42.614363 500.000000
-0.260000 0.260000 0.290000 105.226188 -18.960428 38.047871 500.000000
-0.260000 0.260000 0.410000 34.282894 -24.582781 -50.946889 500.000000
0.260000 0.090000 0.290000 -243.693022 176.390660 33.333267 500.000000
0.141838 0.090000 0.410000 80.367592 248.256137 -264.403892 500.000000
0.260000 0.090000 0.290000 -79.324973 50.077406 22.496135 500.000000
0.141203 0.186371 0.290000 -23.759327 -14.725891 141.549457 500.000000
0.260000 0.090000 0.410000 -148.511101 247.662308 -49.099831 500.000000
0.260000 0.090000 0.362544 -59.582482 33.936278 -9.491299 500.000000
0.260000 0.090000 0.410000 -135.190056 268.131839 -52.888219 500.000000
-0.260000 0.090000 0.410000 182.929406 131.335870 -62.810661 500.000000
-0.094672 0.260000 0.410000 33.065517 -337.709252 -30.962206 500.000000
-0.101796 0.260000 0.290000 12.496883 -34.700839 154.796249 500.000000
-0.260000 0.260000 0.290000 55.307408 -93.847120 41.353478 500.000000
0.260000 0.260000 0.365866 -191.041595 -149.503239 15.173232 500.000000
0.260000 0.090000 0.290000 -73.539004 61.682152 37.579009 500.000000
0.260000 0.260000 0.290000 -126.436107 -32.855184 190.055156 500.000000
-0.260000 0.090000 0.410000 105.729432 127.261595 -72.340782 500.000000
-0.260000 0.260000 0.290000 37.945394 -286.819219 12.744552 500.000000
0.260000 0.090000 0.290000 -77.751591 61.686175 37.312238 500.000000
0.260000 0.221583 0.290000 -198.161020 26.316571 48.131262 500.000000
-0.260000 0.260000 0.290000 83.504012 -434.297709 39.883441 500.000000
-0.260000 0.090000 0.290000 636.221329 80.363201 32.007545 500.000000
-0.260000 0.230718 0.410000 96.541683 28.143536 -12.343012 500.000000
-0.260000 0.090000 0.410000 114.952550 127.166161 -74.960459 500.000000
-0.260000 0.260000 0.290000 52.189038 -93.892394 41.946996 500.000000
-0.260000 0.260000 0.290000 59.291266 -94.575180 41.413952 500.000000
0.260000 0.090000 0.290000 -80.996484 62.153408 36.664347 500.000000
0.123972 0.260000 0.410000 76.794392 -98.915839 -317.215656 500.000000
0.260000 0.090000 0.290000 -205.105063 27.553900 47.303235 500.000000
0.260000 0.260000 0.367932 -356.116937 -139.099458 15.586465 500.000000
-0.235367 0.260000 0.410000 -99.073382 -173.542661 -28.925935 500.000000
-0.260000 0.260000 0.410000 266.587363 -26.562066 -13.920979 500.000000
0.260000 0.090000 0.333628 -68.652484 43.361676 -15.274448 500.000000
-0.078789 0.260000 0.290000 -32.684966 -476.151857 20.612520 500.000000
-0.260000 0.260000 0.290000 53.220030 -93.379982 41.370012 500.000000
-0.094458 0.260000 0.290000 -70.891544 -114.299725 115.125655 500.000000
0.260000 0.260000 0.384194 -256.096706 -139.524653 18.838900 500.000000
0.260000 0.260000 0.410000 -90.612454 -141.973651 -70.833014 500.000000
0.260000 0.090000 0.290000 -77.725973 61.952676 37.552235 500.000000
-0.100842 0.260000 0.404272 -72.168397 -36.767797 22.854319 500.000000
-0.260000 0.260000 0.290000 54.017018 -91.995643 35.734079 500.000000
0.141377 0.090000 0.290000 27.917254 9.121441 20.910687 500.000000
0.260000 0.090000 0.290000 -59.879004 61.675767 37.586666 500.000000
-0.260000 0.260000 0.290000 52.338574 -93.890864 41.605470 500.000000
0.260000 0.090000 0.290000 -76.827516 62.804885 35.588838 500.000000
0.260000 0.260000 0.290000 -156.342691 -44.208247 256.355306 500.000000
-0.260000 0.260000 0.290000 252.873401 -94.181801 115.673663 500.000000
-0.040274 0.260000 0.290000 43.945172 -63.497685 63.161727 500.000000
-0.260000 0.090000 0.410000 229.717978 363.175437 -50.826948 500.000000
0.260000 0.090000 0.290000 -65.241236 90.459071 52.584143 500.000000
-0.260000 0.260000 0.290000 79.664396 -32.852292 154.618051 500.000000
0.260000 0.090000 0.290000 -65.820884 91.570128 40.142336 500.000000
-0.177449 0.260000 0.410000 -87.489893 -283.981084 -25.425739 500.000000
-0.008447 0.260000 0.376548 9.285262 -26.244055 17.309654 500.000000
0.260000 0.260000 0.290000 -166.124314 -102.172964 25.745558 500.000000
0.260000 0.090000 0.290000 -77.544343 60.864009 37.316594 500.000000
-0.260000 0.090000 0.290000 93.291948 47.986921 37.845516 500.000000
-0.260000 0.260000 0.410000 61.666184 -236.369992 -45.361573 500.000000
0.260000 0.090000 0.290000 -77.755440 61.689697 37.448700 500.000000
0.260000 0.260000 0.367958 -327.020288 -139.359969 15.591577 500.000000
-0.260000 0.260000 0.410000 667.507119 -80.023237 -127.277460 500.000000
-0.260000 0.260000 0.410000 97.962823 -90.656292 -41.449284 500.000000
0.228107 0.260000 0.290000 97.621382 -33.192132 195.335706 500.000000
0.260000 0.260000 0.410000 -30.313024 -23.409712 -26.385472 500.000000
0.260000 0.260000 0.360329 -124.030647 -159.783559 14.065830 500.000000
0.260000 0.181244 0.356196 -93.253094 18.248744 -10.760767 500.000000
0.260000 0.260000 0.410000 -55.523147 -24.108565 -212.856011 500.000000
0.260000 0.090000 0.290000 -70.499131 69.282811 157.230422 500.000000
0.260000 0.090000 0.367169 -422.783010 536.203256 15.433710 500.000000
-0.260000 0.260000 0.410000 54.835427 -18.754780 -405.128196 500.000000
-0.260000 0.260000 0.290000 176.014466 -104.779203 34.246673 500.000000
-0.260000 0.260000 0.290000 130.206271 -56.378460 46.693017 500.000000
0.260000 0.090000 0.290000 -65.905337 70.251995 125.422542 500.000000
-0.071686 0.260000 0.410000 -40.333633 -23.397991 -58.863415 500.000000
-0.260000 0.090000 0.290000 74.550106 106.956286 303.204313 500.000000
0.260000 0.260000 0.410000 -95.845369 -152.204294 -90.826792 500.000000
-0.260000 0.260000 0.290000 158.153870 -32.843383 154.790704 500.000000
-0.129397 0.184701 0.410000 -77.879457 18.940147 -396.683897 500.000000
0.023458 0.090000 0.410000 56.691601 240.262991 -57.707714 500.000000
0.260000 0.260000 0.290000 -148.590509 -30.699762 23.127939 500.000000
0.022849 0.260000 0.410000 56.569855 -379.542723 -33.179305 500.000000
0.260000 0.090000 0.410000 -236.407111 308.178412 -67.533580 500.000000
0.163804 0.260000 0.410000 56.212170 -26.763229 -29.674833 500.000000
0.260000 0.260000 0.290000 -17.821397 -24.309840 41.033702 500.000000
0.260000 0.260000 0.290000 -133.018322 -71.668148 173.635885 500.000000
-0.227979 0.260000 0.290000 -37.173910 -31.608728 150.786647 500.000000
-0.126630 0.090000 0.290000 26.674023 112.906896 571.292944 500.000000
0.260000 0.090000 0.290000 -60.659803 68.937590 37.775333 500.000000
0.260000 0.260000 0.401779 -85.173974 -151.321438 22.355889 500.000000
-0.260000 0.090000 0.290000 182.950947 67.186915 37.425932 500.000000
-0.159191 0.090000 0.290000 -83.838281 23.992300 346.487121 500.000000
0.260000 0.090000 0.410000 -57.363284 266.874483 -623.393413 500.000000
0.260000 0.260000 0.410000 -74.053168 -140.224437 -15.763693 500.000000
-0.260000 0.260000 0.410000 257.362644 -27.206851 -14.027903 500.000000
0.260000 0.090000 0.410000 -129.407566 255.474723 -43.083807 500.000000
-0.260000 0.090000 0.290000 168.552331 67.235959 37.437910 500.000000
0.036933 0.090000 0.397135 59.386577 125.837974 21.426914 500.000000
0.260000 0.090000 0.290000 -79.842296 61.955654 37.492602 500.000000
0.260000 0.090000 0.290000 -77.386823 53.512964 12.388661 500.000000
0.260000 0.090000 0.367646 -395.959955 840.032214 15.529267 500.000000
0.260000 0.203758 0.290000 -165.505232 22.751589 52.188477 500.000000
-0.124656 0.090000 0.410000 -76.931104 30.889384 -213.834306 500.000000
0.260000 0.090000 0.290000 -77.728325 61.683787 37.325859 500.000000
-0.260000 0.166540 0.410000 59.152686 -3.360293 -208.121078 500.000000
0.188290 0.260000 0.410000 7.364257 -31.913404 -43.617285 500.000000
0.260000 0.260000 0.410000 -144.122091 -59.327501 -26.940132 500.000000
-0.036043 0.090000 0.290000 -59.208699 955.416942 14.848862 500.000000
-0.260000 0.260000 0.290000 54.579364 -95.557277 34.505672 500.000000
-0.260000 0.090000 0.410000 88.186184 126.438220 -71.874252 500.000000
-0.260000 0.090000 0.290000 62.847481 37.344301 15.732891 500.000000
-0.248380 0.260000 0.290000 -101.676033 -31.989756 34.866656 500.000000
0.260000 0.090000 0.290000 -77.736731 61.140160 36.972826 500.000000
0.131810 0.090000 0.410000 78.362033 267.376691 -229.349724 500.000000
0.260000 0.090000 0.410000 -55.601333 300.084631 -32.259324 500.000000
0.061472 0.090000 0.410000 -39.705686 17.244017 -29.856884 500.000000
-0.260000 0.260000 0.290000 52.195288 -94.366243 41.353542 500.000000
0.260000 0.090000 0.290000 -57.842514 68.883864 37.279493 500.000000
0.260000 0.090000 0.290000 -98.920775 221.845767 35.222296 500.000000
-0.260000 0.090000 0.410000 33.652713 20.329603 -30.037649 500.000000
-0.260000 0.260000 0.290000 54.198238 -94.267336 41.438468 500.000000
-0.260000 0.090000 0.410000 88.564980 125.986127 -71.087271 500.000000
0.155386 0.260000 0.290000 83.077202 -34.181718 193.778639 500.000000
-0.260000 0.090000 0.290000 103.920613 64.120863 36.068499 500.000000
-0.260000 0.260000 0.410000 526.874265 -49.254233 -13.551411 500.000000
0.260000 0.090000 0.346412 -40.345882 36.006498 -12.717544 500.000000
-0.260000 0.260000 0.410000 72.052957 -206.448292 -28.356697 500.000000
0.260000 0.260000 0.410000 -98.656868 -162.524138 -93.840874 500.000000
0.260000 0.260000 0.410000 -79.810255 -138.482954 -13.621965 500.000000
0.260000 0.260000 0.410000 -174.364817 -181.614647 -30.709073 500.000000
0.043871 0.090000 0.410000 60.774282 240.567600 -57.033293 500.000000
-0.070237 0.090000 0.337720 -66.047448 76.994601 -14.455986 500.000000
0.260000 0.260000 0.365312 -288.061325 -139.498246 15.062464 500.000000
-0.260000 0.090000 0.290000 191.611337 67.159962 37.439599 500.000000
-0.260000 0.260000 0.410000 253.048395 -27.587576 -27.775537 500.000000
0.260000 0.260000 0.410000 -104.106093 -150.452733 -169.240584 500.000000
-0.260000 0.260000 0.290000 86.167181 -101.156290 36.306525 500.000000
-0.260000 0.090000 0.410000 22.565155 27.236303 -22.478621 500.000000
-0.260000 0.260000 0.290000 55.152244 -92.532125 90.507739 500.000000
-0.260000 0.260000 0.290000 63.333389 -97.330391 39.659165 500.000000
0.063693 0.260000 0.410000 64.738638 -516.892158 -56.619969 500.000000
-0.260000 0.260000 0.410000 260.559008 -28.115852 -14.541917 500.000000
-0.260000 0.260000 0.410000 262.856019 -27.910576 -32.257540 500.000000
0.260000 0.260000 0.368003 -252.485860 -141.021675 15.600503 500.000000
0.145944 0.260000 0.290000 81.188776 -35.494187 188.437167 500.000000
-0.260000 0.090000 0.290000 50.113041 59.114908 12.481847 500.000000
-0.260000 0.260000 0.290000 52.927315 -93.897345 35.588703 500.000000
0.022208 0.260000 0.290000 56.441547 -23.469105 61.767814 500.000000
0.260000 0.090000 0.290000 -77.786114 61.690583 37.324155 500.000000
0.260000 0.090000 0.290000 -66.164364 61.118811 39.812985 500.000000
-0.260000 0.090000 0.410000 103.537507 127.218425 -74.571028 500.000000
0.260000 0.090000 0.400942 -129.489588 74.099405 22.188476 500.000000
-0.260000 0.260000 0.410000 294.367032 -30.779709 -256.393070 500.000000
-0.260000 0.090000 0.410000 117.716251 127.186528 -72.927772 500.000000
-0.260000 0.260000 0.410000 257.775719 -27.012813 -14.085088 500.000000
-0.260000 0.090000 0.290000 108.600702 65.050953 36.179099 500.000000
-0.260000 0.260000 0.410000 266.055761 -31.364807 -13.909854 500.000000
-0.260000 0.090000 0.290000 91.812366 64.478549 36.115561 500.000000
0.260000 0.090000 0.290000 -77.713501 61.690375 37.303101 500.000000
0.260000 0.090000 0.290000 -79.123293 64.062793 34.972913 500.000000
0.260000 0.090000 0.365932 -464.231005 609.389878 15.186368 500.000000
-0.260000 0.090000 0.410000 47.143225 53.599206 -16.791731 500.000000
0.220956 0.260000 0.290000 96.191149 -33.044100 194.135184 500.000000
0.260000 0.260000 0.374214 -164.399227 -156.126998 16.842782 500.000000
0.021870 0.260000 0.410000 56.373984 -437.393663 -41.784388 500.000000
-0.260000 0.260000 0.383235 37.719924 -7.459781 18.647044 500.000000
0.260000 0.260000 0.410000 -93.389716 -150.395691 -298.813787 500.000000
0.260000 0.260000 0.367913 -438.935492 -138.920160 15.582668 500.000000
-0.260000 0.260000 0.410000 50.186960 -11.365278 -27.645142 500.000000
-0.260000 0.260000 0.290000 53.051202 -93.068299 35.602361 500.000000
-0.260000 0.260000 0.410000 71.902386 -278.366705 -36.903359 500.000000
0.260000 0.206904 0.290000 -370.967074 23.380751 65.071571 500.000000
0.260000 0.260000 0.290000 -55.137925 -47.831582 24.614025 500.000000
0.260000 0.090000 0.410000 -66.418794 269.500302 -89.017217 500.000000
-0.260000 0.260000 0.410000 73.353534 -226.538091 -41.247478 500.000000
-0.016174 0.260000 0.410000 -55.234745 -204.817173 -34.120340 500.000000
