ply
format ascii 1.0
element vertex 240
property float x
property float y
property float z
property float vx
property float vy
property float vz
property float density
end_header
-0.260000 0.090000 0.410000 77.752691 119.908964 -130.970707 500.000000
0.260000 0.260000 0.410000 -262.007733 -43.301494 -52.759114 500.000000
0.260000 0.260000 0.410000 -18.706828 -19.698953 -15.084309 500.000000
-0.260000 0.090000 0.290000 297.537861 25.803827 48.533032 500.000000
-0.260000 0.090000 0.410000 86.429427 100.790474 -76.332514 500.000000
0.260000 0.090000 0.410000 -57.749990 26.202203 -19.135277 500.000000
0.260000 0.090000 0.410000 -65.702495 269.992486 -22.668570 500.000000
0.201607 0.260000 0.290000 92.321305 -19.991235 509.879226 500.000000
0.223869 0.260000 0.290000 96.773757 -52.252352 32.128831 500.000000
-0.260000 0.090000 0.410000 147.683673 110.389786 -82.172370 500.000000
0.260000 0.090000 0.290000 -226.007625 75.274482 54.955745 500.000000
0.260000 0.090000 0.290000 -235.367131 20.847543 52.438291 500.000000
-0.204578 0.260000 0.290000 -92.915592 -71.599357 34.748762 500.000000
0.260000 0.090000 0.410000 -68.331486 27.793323 -133.162694 500.000000
-0.203201 0.260000 0.290000 -92.640125 -71.695938 34.118060 500.000000
-0.260000 0.090000 0.290000 78.746644 60.091984 26.196808 500.000000
-0.260000 0.090000 0.290000 94.655631 33.597910 48.594083 500.000000
-0.260000 0.090000 0.410000 149.849429 99.139076 -82.770221 500.000000
-0.260000 0.119548 0.290000 79.854261 -28.090481 55.477545 500.000000
0.260000 0.090000 0.290000 -267.792542 18.764462 54.808744 500.000000
-0.260000 0.090000 0.290000 108.018062 103.304104 13.893503 500.000000
-0.260000 0.090000 0.410000 86.703299 107.866896 -76.062886 500.000000
-0.260000 0.260000 0.410000 203.462527 -66.484113 -21.027735 500.000000
-0.260000 0.090000 0.410000 76.342298 68.946268 -219.412289 500.000000
-0.260000 0.260000 0.410000 91.268336 -53.534098 -13.639669 500.000000
0.144122 0.112988 0.369233 4.757662 -6.411193 -8.153386 500.000000
0.260000 0.090000 0.410000 -402.126717 77.781963 -93.823935 500.000000
-0.039120 0.260000 0.290000 44.176061 -48.508747 49.055047 500.000000
-0.053800 0.185207 0.388207 -31.376029 -14.958635 19.641361 500.000000
-0.260000 0.090000 0.410000 86.486772 56.193094 -63.616164 500.000000
0.260000 0.260000 0.410000 -20.074068 -203.486627 -24.833488 500.000000
0.260000 0.090000 0.410000 -54.246121 26.119672 -14.345457 500.000000
0.260000 0.260000 0.410000 -127.738749 -250.181612 -45.843452 500.000000
0.204384 0.260000 0.290000 92.876876 -46.557466 31.417929 500.000000
-0.260000 0.090000 0.290000 61.804925 40.170290 46.681162 500.000000
-0.216207 0.090000 0.386968 -95.241496 742.136657 19.393563 500.000000
0.224971 0.090000 0.410000 96.994152 28.138636 -13.616015 500.000000
-0.260000 0.260000 0.410000 292.982763 -30.729138 -17.325930 500.000000
0.198636 0.260000 0.290000 91.727209 -84.733466 31.197860 500.000000
-0.260000 0.090000 0.410000 185.108616 162.675175 -74.272850 500.000000
-0.204179 0.260000 0.290000 -92.835884 -71.694497 34.163062 500.000000
-0.260000 0.090000 0.410000 95.167158 112.826413 -79.461835 500.000000
0.260000 0.260000 0.290000 -403.652201 -92.692288 41.598744 500.000000
-0.260000 0.090000 0.410000 87.013029 100.144487 -77.378848 500.000000
-0.260000 0.260000 0.363852 191.930042 -156.846673 14.770315 500.000000
0.260000 0.260000 0.410000 -176.094062 -41.934619 -53.197842 500.000000
-0.260000 0.260000 0.410000 64.898952 -46.718752 -13.130814 500.000000
-0.125166 0.090000 0.290000 -7.675458 42.810321 13.388940 500.000000
0.260000 0.260000 0.410000 -219.175863 -42.078745 -53.249932 500.000000
-0.260000 0.090000 0.410000 74.230657 120.521560 -94.703574 500.000000
0.210833 0.260000 0.290000 94.166527 -51.279226 31.934063 500.000000
-0.260000 0.117538 0.290000 546.813858 -28.492419 52.653139 500.000000
-0.260000 0.260000 0.290000 71.134985 -313.272278 82.961753 500.000000
-0.260000 0.090000 0.290000 102.312615 25.383768 53.891761 500.000000
-0.260000 0.260000 0.410000 141.224073 -67.839767 -21.097226 500.000000
0.260000 0.090000 0.410000 -109.098023 25.777343 -14.215122 500.000000
0.063496 0.090000 0.410000 64.699143 28.210455 -196.452577 500.000000
0.260000 0.090000 0.410000 -66.314239 38.678847 -15.079269 500.000000
-0.260000 0.260000 0.410000 82.561300 -664.065417 -182.850279 500.000000
-0.260000 0.260000 0.321211 59.067850 -32.094319 -17.757789 500.000000
-0.255710 0.190319 0.290000 -29.467466 20.063759 48.979531 500.000000
0.260000 0.128591 0.290000 -278.759136 -26.281829 82.190449 500.000000
-0.076908 0.260000 0.290000 36.618450 -77.549788 13.118087 500.000000
0.260000 0.110922 0.290000 -191.781160 -29.815669 18.056928 500.000000
0.260000 0.090000 0.408216 -71.579465 25.495318 23.643114 500.000000
-0.260000 0.090805 0.290000 53.555060 -33.839099 46.404430 500.000000
-0.260000 0.090000 0.290000 168.461777 42.382339 49.258398 500.000000
0.260000 0.090000 0.290000 -86.686168 343.318975 29.692546 500.000000
-0.260000 0.260000 0.410000 234.692565 -18.870521 -29.214489 500.000000
0.260000 0.260000 0.290000 -252.814180 -21.492606 33.768810 500.000000
0.260000 0.260000 0.410000 -131.619325 -34.815198 -44.224431 500.000000
-0.260000 0.090000 0.290000 59.717154 36.174512 46.365125 500.000000
-0.260000 0.260000 0.410000 171.138930 -62.892006 -20.945901 500.000000
-0.260000 0.090000 0.290000 475.808314 17.874208 53.632591 500.000000
0.082175 0.260000 0.410000 26.058840 -38.383037 -44.311862 500.000000
-0.207885 0.260000 0.290000 -93.576987 -71.573450 34.152917 500.000000
-0.204290 0.260000 0.290000 -92.857931 -71.706696 34.601255 500.000000
-0.260000 0.260000 0.390787 71.633487 -74.664955 20.157334 500.000000
-0.204133 0.260000 0.290000 -92.826675 -71.710916 34.673860 500.000000
0.260000 0.260000 0.314861 -76.662968 -75.958963 -19.027840 500.000000
0.260000 0.260000 0.410000 -107.282519 -33.323895 -73.938456 500.000000
-0.260000 0.090000 0.290000 71.402853 30.614128 56.972755 500.000000
0.260000 0.260000 0.362637 -9.732272 -26.255427 14.527411 500.000000
-0.260000 0.251958 0.290000 61.121417 32.391547 32.081198 500.000000
0.165109 0.090000 0.410000 85.021828 115.123443 -21.931393 500.000000
-0.215557 0.260000 0.290000 -95.111452 -20.065896 42.311588 500.000000
-0.131144 0.090000 0.290000 -28.640191 54.413239 46.280466 500.000000
-0.024636 0.260000 0.410000 0.431656 -182.545698 -25.937155 500.000000
-0.260000 0.093833 0.290000 198.206792 -33.233395 49.043865 500.000000
0.260000 0.260000 0.410000 -415.841427 -37.437110 -51.550651 500.000000
-0.260000 0.090000 0.410000 67.034170 104.341690 -64.499600 500.000000
-0.260000 0.090000 0.290000 332.417299 26.489853 49.440647 500.000000
-0.260000 0.260000 0.410000 68.638848 -67.617786 -22.271964 500.000000
0.260000 0.090000 0.410000 -17.557432 51.685013 -74.280180 500.000000
-0.260000 0.090000 0.410000 87.309552 104.157269 -76.131273 500.000000
-0.260000 0.192898 0.406456 51.114554 20.579548 23.291137 500.000000
0.074180 0.090000 0.334811 66.835920 38.029856 -15.037774 500.000000
0.260000 0.090000 0.410000 -53.090076 28.388390 -14.653873 500.000000
-0.260000 0.260000 0.290000 76.516390 -38.085667 31.858103 500.000000
-0.260000 0.090000 0.290000 493.802891 34.184276 14.760065 500.000000
0.260000 0.090000 0.290000 -39.352252 27.873603 14.330853 500.000000
0.260000 0.099027 0.290000 -292.870597 -32.194671 35.804774 500.000000
-0.260000 0.260000 0.410000 609.114120 -56.338905 -93.003630 500.000000
0.066714 0.090000 0.410000 65.342718 45.512794 -19.113245 500.000000
0.260000 0.133926 0.290000 -174.344625 -25.214714 65.752219 500.000000
0.203570 0.260000 0.290000 92.714081 -46.735013 31.432393 500.000000
0.260000 0.260000 0.290000 -174.573068 -71.452064 64.050072 500.000000
0.260000 0.090000 0.290000 -218.037210 30.500194 52.418964 500.000000
0.260000 0.260000 0.410000 -112.220310 -30.318906 -55.387609 500.000000
-0.260000 0.093197 0.290000 57.213927 -33.360670 49.193782 500.000000
0.260000 0.260000 0.290000 -87.705430 -22.042282 110.289885 500.000000
-0.260000 0.097288 0.290000 135.312383 -32.542384 46.802735 500.000000
0.260000 0.260000 0.290000 -33.676850 -89.455659 12.247561 500.000000
0.017292 0.090000 0.410000 55.458372 31.498333 -17.709973 500.000000
-0.260000 0.147222 0.290000 77.757745 -22.555581 47.937240 500.000000
-0.205975 0.260000 0.290000 -93.194910 -71.698497 34.179762 500.000000
-0.260000 0.090000 0.410000 85.713933 57.122633 -64.844314 500.000000
-0.260000 0.096989 0.290000 330.523563 -32.602151 54.671455 500.000000
-0.208381 0.260000 0.290000 -93.676174 -71.554429 34.200372 500.000000
-0.260000 0.090000 0.290000 55.367898 68.704977 905.731336 500.000000
-0.260000 0.094310 0.290000 65.879950 -33.137956 39.185851 500.000000
0.260000 0.134679 0.290000 -175.654818 -25.064291 28.307658 500.000000
0.260000 0.260000 0.410000 -390.376915 -41.257796 -53.955430 500.000000
0.260000 0.090000 0.333648 -8.929113 11.843565 -15.270398 500.000000
-0.182505 0.090000 0.290000 -88.501018 95.845749 648.636330 500.000000
0.260000 0.090000 0.410000 -859.889388 52.483759 -39.380679 500.000000
-0.259369 0.260000 0.410000 -103.873753 -55.798527 -15.107579 500.000000
-0.233056 0.260000 0.290000 -98.611225 -71.841359 34.018151 500.000000
-0.260000 0.090000 0.410000 90.227499 102.598392 -77.588080 500.000000
0.260000 0.260000 0.290000 -72.969497 -21.925903 32.436379 500.000000
0.030873 0.260000 0.410000 -45.825375 -36.444950 -566.631519 500.000000
-0.260000 0.090000 0.290000 162.724339 188.213937 16.257848 500.000000
0.260000 0.090000 0.410000 -123.895089 24.919057 -14.743930 500.000000
-0.203632 0.260000 0.290000 -92.726468 -70.892664 50.519607 500.000000
-0.260000 0.100685 0.290000 245.930172 -31.862945 48.932730 500.000000
-0.183275 0.260000 0.290000 -88.654954 -72.867894 89.885405 500.000000
-0.260000 0.090000 0.290000 58.204863 20.028949 47.862768 500.000000
0.260000 0.090000 0.410000 -55.590326 49.647173 -27.612183 500.000000
-0.260000 0.260000 0.290000 54.898402 -38.596526 30.113070 500.000000
-0.260000 0.090000 0.410000 90.928431 99.176361 -76.160066 500.000000
-0.260000 0.260000 0.410000 206.484538 -65.166909 -25.240807 500.000000
-0.260000 0.260000 0.410000 243.300281 -62.753024 -20.846173 500.000000
-0.208949 0.260000 0.290000 -93.789859 -71.563791 34.231961 500.000000
0.260000 0.260000 0.410000 -21.772504 -23.464396 -13.600200 500.000000
-0.210258 0.260000 0.290000 -94.051601 -71.616532 34.602762 500.000000
0.260000 0.215709 0.400910 -85.998298 25.141740 22.181966 500.000000
-0.260000 0.090000 0.410000 76.167502 120.438503 -76.241553 500.000000
-0.260000 0.138282 0.290000 28.892323 -24.343669 147.364399 500.000000
0.018608 0.090000 0.410000 55.721540 26.799577 -12.667868 500.000000
-0.204474 0.260000 0.290000 -92.894865 -71.618484 34.791642 500.000000
-0.131497 0.260000 0.290000 -9.248461 -88.512126 22.154129 500.000000
0.205236 0.260000 0.351296 47.851728 -90.923712 12.259289 500.000000
-0.260000 0.090000 0.410000 74.995535 104.566261 -93.891086 500.000000
-0.260000 0.260000 0.392956 218.502661 -60.109296 20.591229 500.000000
-0.260000 0.150545 0.290000 85.923470 -21.891047 55.739622 500.000000
-0.260000 0.156575 0.290000 85.586121 -20.685015 81.387890 500.000000
0.260000 0.090000 0.290000 -187.148742 18.458966 54.757507 500.000000
0.260000 0.260000 0.410000 -348.035148 -41.402823 -53.061970 500.000000
0.260000 0.090000 0.410000 -59.003280 26.375830 -19.175162 500.000000
-0.260000 0.260000 0.410000 64.375199 -226.041514 -28.157047 500.000000
-0.260000 0.090000 0.410000 23.676324 10.199296 -7.975554 500.000000
-0.260000 0.090000 0.290000 83.270831 21.846399 55.903854 500.000000
0.260000 0.260000 0.410000 -110.080295 -152.020216 -37.630952 500.000000
0.260000 0.260000 0.410000 -161.068898 -56.023026 -223.562221 500.000000
0.260000 0.260000 0.410000 -189.593974 -27.622684 -50.606106 500.000000
0.068338 0.090000 0.410000 65.667552 38.411197 -12.804614 500.000000
-0.260000 0.090000 0.290000 144.425992 38.017837 46.415756 500.000000
-0.260000 0.260000 0.407045 92.623146 -46.900323 23.408983 500.000000
-0.260000 0.260000 0.410000 67.607517 -99.106861 -89.711075 500.000000
-0.202529 0.260000 0.290000 -92.505709 -43.738812 37.337831 500.000000
0.260000 0.090000 0.290000 -175.852896 28.613072 52.497675 500.000000
0.260000 0.090000 0.290000 -487.000771 19.283701 19.653578 500.000000
-0.260000 0.149489 0.290000 62.316524 -22.102121 55.730421 500.000000
-0.260000 0.260000 0.410000 61.147832 -111.356334 -110.766471 500.000000
0.103004 0.090000 0.410000 72.600715 43.115304 -270.055662 500.000000
0.150635 0.090000 0.410000 82.126932 194.991100 -14.991482 500.000000
-0.024741 0.090000 0.410000 17.268763 21.391156 -13.789280 500.000000
0.030734 0.114803 0.410000 58.146875 -29.039307 -114.008348 500.000000
0.260000 0.090000 0.410000 -76.711106 28.318768 -14.331600 500.000000
0.260000 0.260000 0.410000 -149.147679 -56.965629 -54.967921 500.000000
-0.260000 0.090000 0.290000 63.630464 20.594921 55.690255 500.000000
0.260000 0.260000 0.410000 -101.505760 -23.309698 -39.686303 500.000000
0.229123 0.090000 0.410000 97.824543 28.499116 -96.002310 500.000000
-0.028050 0.090000 0.410000 -57.609901 79.146113 -13.685862 500.000000
0.184864 0.260000 0.290000 88.972754 -109.180424 31.316484 500.000000
-0.260000 0.090000 0.290000 94.887114 37.289090 241.306093 500.000000
-0.199809 0.156269 0.352148 -12.153029 13.253799 12.429659 500.000000
0.260000 0.260000 0.290000 -73.041034 -49.216034 95.954505 500.000000
0.260000 0.158681 0.290000 -198.540277 -20.263837 12.868370 500.000000
-0.260000 0.150949 0.290000 62.106662 -21.810167 57.377410 500.000000
-0.260000 0.090000 0.410000 137.823737 98.812709 -81.290731 500.000000
0.260000 0.260000 0.410000 -766.916646 -236.655448 -25.943578 500.000000
-0.260000 0.260000 0.410000 531.608293 -40.341341 -45.430356 500.000000
-0.260000 0.167025 0.410000 22.707926 -18.595089 -22.895559 500.000000
-0.260000 0.123421 0.290000 84.171505 -27.315762 56.829123 500.000000
-0.204144 0.260000 0.290000 -92.828856 -71.641666 35.728543 500.000000
0.260000 0.090000 0.410000 -62.009995 28.895723 -14.383941 500.000000
-0.163359 0.144195 0.404093 0.029923 -23.160989 22.818516 500.000000
-0.028734 0.090000 0.290000 -28.160250 62.515070 52.272254 500.000000
-0.260000 0.090000 0.410000 79.419121 119.890528 -111.689410 500.000000
-0.260000 0.260000 0.410000 101.036169 -71.556487 -19.915172 500.000000
0.260000 0.260000 0.410000 -32.357144 -69.833614 -13.124242 500.000000
-0.204151 0.260000 0.290000 -92.830243 -71.794967 34.133295 500.000000
0.161082 0.260000 0.290000 84.216489 -22.150221 29.912462 500.000000
-0.260000 0.260000 0.290000 267.967857 -53.599966 50.583119 500.000000
0.260000 0.090000 0.407536 -53.495671 25.807273 23.507241 500.000000
-0.173299 0.260000 0.410000 -86.659756 -584.550228 -52.982928 500.000000
-0.260000 0.260000 0.410000 70.794928 -241.130525 -24.349667 500.000000
0.260000 0.090000 0.290000 -257.748783 31.827435 53.426942 500.000000
-0.260000 0.133792 0.290000 88.617332 -25.241537 55.904974 500.000000
-0.252589 0.260000 0.410000 -102.517895 -81.055255 -13.466727 500.000000
-0.260000 0.132142 0.290000 172.740682 -25.571692 22.323123 500.000000
0.006821 0.143681 0.290000 34.232449 -23.263754 106.800353 500.000000
-0.260000 0.090000 0.410000 77.380976 119.458194 -168.577975 500.000000
-0.260000 0.090000 0.410000 88.304398 106.856348 -86.940321 500.000000
0.260000 0.090000 0.410000 -53.549274 27.110620 -12.795507 500.000000
-0.260000 0.090000 0.410000 113.065106 93.487110 -118.724447 500.000000
-0.260000 0.090000 0.290000 90.867977 17.630686 48.973907 500.000000
-0.023931 0.090000 0.357257 -56.786237 19.551932 13.451311 500.000000
-0.260000 0.090000 0.410000 297.481823 62.055240 -244.158290 500.000000
-0.173324 0.090000 0.410000 -86.664879 85.810474 -325.233368 500.000000
-0.260000 0.260000 0.410000 58.683418 -55.355770 -26.620472 500.000000
-0.260000 0.090000 0.410000 79.693054 62.849788 -223.208877 500.000000
0.260000 0.131839 0.290000 -40.028318 -25.632111 101.892886 500.000000
0.260000 0.090000 0.410000 -65.818247 42.345068 -15.008789 500.000000
-0.260000 0.090000 0.410000 67.213135 99.350011 -74.212922 500.000000
-0.260000 0.260000 0.410000 109.006628 -55.897006 -14.908228 500.000000
0.260000 0.090000 0.290000 -178.824303 25.463644 52.181833 500.000000
-0.248269 0.136673 0.290000 -101.653845 -24.665361 18.812713 500.000000
0.260000 0.090000 0.290000 -174.773145 215.714339 35.956160 500.000000
0.260000 0.260000 0.410000 -113.475495 -30.080842 -55.451956 500.000000
-0.260000 0.090000 0.290000 70.645956 376.922453 13.727302 500.000000
0.260000 0.260000 0.290000 -232.412991 -38.988620 34.716245 500.000000
-0.204786 0.260000 0.290000 -92.957180 -71.564063 34.748767 500.000000
0.260000 0.260000 0.410000 -133.121991 -41.739585 -53.864255 500.000000
0.260000 0.090000 0.290000 -670.144332 405.917995 35.686108 500.000000
-0.260000 0.260000 0.290000 104.744338 -38.817846 28.086128 500.000000
-0.235156 0.260000 0.290000 -99.031210 -61.701958 88.283473 500.000000
0.260000 0.260000 0.410000 -305.219841 -41.448617 -53.527816 500.000000
-0.260000 0.129287 0.290000 79.429601 -26.142608 69.281556 500.000000
