ply
format ascii 1.0
element vertex 240
property float x
property float y
property float z
property float vx
property float vy
property float vz
property float density
end_header
0.260000 0.090000 0.290000 -307.146224 23.737716 21.016640 500.000000
0.260000 0.090000 0.290000 -145.944501 69.107586 139.002593 500.000000
-0.113730 0.260000 0.290000 -74.745923 -32.754352 42.223202 500.000000
-0.260000 0.090000 0.290000 185.684325 24.087685 23.597016 500.000000
0.260000 0.090000 0.410000 -57.555403 77.018437 -36.604227 500.000000
-0.041705 0.129092 0.290000 43.658985 -26.181560 281.481803 500.000000
-0.260000 0.244259 0.290000 46.422903 30.851831 12.645004 500.000000
-0.260000 0.170735 0.410000 51.646361 -17.853015 -41.420905 500.000000
0.229236 0.260000 0.410000 97.847164 -56.379500 -26.562110 500.000000
0.260000 0.260000 0.290000 -55.648662 -47.749834 133.002015 500.000000
-0.260000 0.260000 0.290000 78.682808 -37.699169 61.187377 500.000000
0.030121 0.224307 0.290000 -5.844587 26.861400 28.090977 500.000000
0.260000 0.090000 0.410000 -191.822056 25.119185 -14.369887 500.000000
-0.260000 0.202552 0.389783 39.281219 -11.489687 19.956689 500.000000
0.246647 0.090000 0.290000 101.329383 84.892461 304.867320 500.000000
-0.260000 0.260000 0.410000 593.803342 -50.417054 -416.991504 500.000000
0.222340 0.090000 0.410000 96.467909 42.784696 -320.676259 500.000000
-0.260000 0.260000 0.290000 82.224773 -34.167240 70.229487 500.000000
0.048300 0.090000 0.410000 61.659941 40.714543 -327.294417 500.000000
0.062001 0.090000 0.410000 64.400129 41.447923 -232.727780 500.000000
-0.260000 0.170230 0.410000 77.715169 -17.954028 -54.385939 500.000000
-0.022769 0.151397 0.410000 -56.553789 -21.720676 -51.981200 500.000000
-0.260000 0.167489 0.410000 157.811175 -18.502273 -45.298274 500.000000
0.260000 0.090000 0.410000 -23.326613 9.659072 -96.694226 500.000000
0.044378 0.260000 0.410000 -43.124487 -65.898328 -72.865573 500.000000
0.260000 0.260000 0.290000 -86.174727 -57.603480 301.562117 500.000000
0.009166 0.146021 0.410000 16.169951 -22.795882 -24.652163 500.000000
0.260000 0.256590 0.410000 -196.498665 33.317950 -228.526130 500.000000
0.260000 0.260000 0.290000 -165.033680 -84.228775 373.866639 500.000000
0.260000 0.260000 0.321643 -30.302878 -43.261847 -1.814622 500.000000
0.260000 0.090000 0.290000 -84.733954 72.217782 137.848359 500.000000
0.229719 0.260000 0.290000 49.744530 -22.671730 17.935234 500.000000
-0.260000 0.090000 0.290000 163.526099 53.443734 19.447471 500.000000
-0.260000 0.090000 0.410000 70.786723 177.920210 -42.009779 500.000000
0.260000 0.260000 0.410000 -70.418754 -52.813400 -486.301720 500.000000
0.108282 0.260000 0.410000 -30.343682 -30.152848 -13.525143 500.000000
0.260000 0.090000 0.290000 -107.865177 27.359747 24.666110 500.000000
0.260000 0.260000 0.290000 -50.009912 -67.798621 4.493483 500.000000
0.260000 0.260000 0.290000 -144.628895 -20.102435 380.333519 500.000000
-0.038935 0.145976 0.410000 -59.787100 11.195161 -70.346002 500.000000
0.160840 0.090000 0.290000 84.168030 115.794763 67.318897 500.000000
-0.260000 0.260000 0.290000 78.623276 -37.654595 60.669587 500.000000
0.260000 0.090000 0.290000 -79.682480 89.958582 141.870614 500.000000
-0.034778 0.113387 0.410000 -58.955635 -29.322507 -52.601762 500.000000
0.260000 0.260000 0.290000 -103.003146 -68.948881 371.615971 500.000000
0.260000 0.103583 0.290000 -614.570930 -31.283498 114.010025 500.000000
-0.260000 0.090000 0.290000 158.116760 161.240640 23.379654 500.000000
0.260000 0.260000 0.290000 -164.519845 -31.059030 41.696527 500.000000
0.260000 0.090000 0.290000 -117.126386 72.240768 137.866570 500.000000
-0.260000 0.090000 0.410000 77.157772 36.170517 -32.742676 500.000000
-0.260000 0.090000 0.290000 157.608332 22.778484 21.082088 500.000000
-0.260000 0.260000 0.290000 77.430291 -34.139049 68.282607 500.000000
-0.260000 0.090000 0.290000 159.854877 24.022781 21.033269 500.000000
-0.260000 0.090000 0.290000 454.966299 22.749182 103.880760 500.000000
0.260000 0.090000 0.290000 -113.709770 72.312300 137.856980 500.000000
0.260000 0.260000 0.290000 -71.977666 -56.302779 456.913984 500.000000
-0.260000 0.260000 0.290000 72.435508 -32.969546 61.934580 500.000000
0.260000 0.257576 0.290000 -80.617027 33.515266 459.833937 500.000000
-0.260000 0.169625 0.410000 41.905699 15.925015 -18.104029 500.000000
-0.260000 0.090000 0.290000 175.560740 24.095906 23.585051 500.000000
-0.260000 0.090000 0.290000 180.931969 24.173194 23.578640 500.000000
0.028649 0.090000 0.290000 4.196596 32.651139 14.027448 500.000000
0.260000 0.090000 0.410000 -56.286611 74.752387 -37.672114 500.000000
-0.260000 0.260000 0.290000 76.023783 -67.037276 103.651511 500.000000
0.203153 0.260000 0.410000 46.323851 -17.231375 -21.286682 500.000000
-0.260000 0.260000 0.290000 83.107162 -34.121739 68.241093 500.000000
0.260000 0.260000 0.410000 -61.294695 -27.273122 -221.583243 500.000000
0.260000 0.260000 0.410000 -89.083649 -52.822258 -313.189622 500.000000
0.034080 0.260000 0.410000 -45.184023 -71.726158 -57.005043 500.000000
0.260000 0.090000 0.290000 -105.845172 72.222698 137.836064 500.000000
-0.260000 0.166075 0.410000 117.949459 -18.784948 -44.162656 500.000000
-0.260000 0.260000 0.290000 59.190361 -34.763382 68.016377 500.000000
0.260000 0.260000 0.290000 -97.231834 -134.251477 40.846330 500.000000
-0.260000 0.102686 0.410000 105.566672 -31.462859 -101.121222 500.000000
-0.209333 0.260000 0.410000 -93.866515 -17.068714 -70.964697 500.000000
0.260000 0.090000 0.290000 -132.817871 71.356492 139.273490 500.000000
0.010556 0.143326 0.290000 -2.035750 -13.678871 74.714622 500.000000
0.260000 0.260000 0.410000 -66.227446 -52.808196 -660.359514 500.000000
-0.260000 0.090000 0.290000 151.600348 562.250556 43.201902 500.000000
0.254589 0.090000 0.410000 102.917752 35.437445 -38.086571 500.000000
-0.260000 0.260000 0.410000 65.977006 -17.317681 -70.964513 500.000000
-0.260000 0.260000 0.410000 52.380866 -17.152059 -70.964676 500.000000
-0.260000 0.090000 0.410000 231.299156 343.530507 -46.059094 500.000000
-0.046170 0.259036 0.410000 -61.234009 33.807193 -70.964867 500.000000
0.136802 0.090000 0.410000 79.360487 40.539952 -51.561844 500.000000
-0.260000 0.260000 0.290000 66.469407 -37.024227 67.897955 500.000000
-0.260000 0.260000 0.290000 55.440518 -34.112789 68.299402 500.000000
-0.064975 0.130985 0.410000 -64.995074 -25.802993 -55.086313 500.000000
-0.260000 0.255926 0.410000 357.568651 33.185189 -57.262032 500.000000
-0.260000 0.090000 0.290000 447.154879 28.928572 120.028058 500.000000
0.155664 0.090000 0.410000 83.132767 111.083377 -38.024048 500.000000
0.053076 0.136336 0.344371 -1.210652 9.267189 10.874118 500.000000
0.260000 0.260000 0.290000 -110.478756 -59.574039 371.137188 500.000000
0.066825 0.090000 0.290000 65.365093 32.854254 28.343413 500.000000
0.063714 0.090000 0.410000 64.742734 41.441716 -275.810306 500.000000
0.135283 0.242373 0.410000 79.056598 30.474614 -250.193771 500.000000
0.077137 0.090000 0.410000 67.427480 41.460228 -134.986115 500.000000
0.260000 0.260000 0.290000 -102.903978 -53.036962 175.201748 500.000000
0.260000 0.169038 0.410000 -259.265066 -18.192398 -41.152158 500.000000
-0.104772 0.231971 0.410000 -72.954310 28.394116 -592.623002 500.000000
0.260000 0.090000 0.290000 -109.556190 72.222144 137.836352 500.000000
-0.260000 0.260000 0.290000 77.023879 -36.578457 68.517190 500.000000
0.260000 0.260000 0.290000 -72.746402 -57.985357 214.756451 500.000000
0.260000 0.260000 0.290000 -304.283693 -36.486514 35.528834 500.000000
0.260000 0.090000 0.410000 -213.050156 26.100120 -43.715144 500.000000
-0.125307 0.260000 0.290000 -77.061302 -51.259759 36.232847 500.000000
-0.260000 0.090000 0.290000 169.546574 23.664684 21.522596 500.000000
0.128976 0.111982 0.410000 -26.204799 -29.603512 -13.806686 500.000000
-0.260000 0.090000 0.290000 268.578233 19.771387 21.876262 500.000000
0.140988 0.090000 0.410000 80.197535 73.263213 -40.924205 500.000000
0.260000 0.260000 0.410000 -71.844097 -17.876772 -237.159009 500.000000
-0.080096 0.259939 0.290000 2.642486 33.987860 40.293553 500.000000
-0.260000 0.260000 0.290000 63.470507 -34.106742 68.282231 500.000000
-0.099368 0.260000 0.410000 32.126443 -10.547775 -8.369380 500.000000
-0.260000 0.260000 0.410000 69.785860 -17.271094 -70.981538 500.000000
0.260000 0.260000 0.290000 -231.512788 -61.016500 415.767596 500.000000
0.260000 0.260000 0.290000 -126.904751 -358.420582 486.163845 500.000000
0.260000 0.090000 0.290000 -777.500663 24.054732 23.356387 500.000000
0.179509 0.215505 0.290000 14.299986 12.591808 44.903386 500.000000
-0.260000 0.090000 0.290000 164.798889 24.104964 23.585264 500.000000
-0.260000 0.260000 0.290000 68.851315 -34.110349 68.282046 500.000000
-0.260000 0.260000 0.410000 20.255097 -46.949382 -49.040037 500.000000
0.260000 0.259717 0.410000 -60.614024 33.943341 -220.698183 500.000000
0.260000 0.260000 0.410000 -75.401079 -52.814317 -399.126703 500.000000
-0.260000 0.260000 0.410000 118.850832 -218.828245 -135.670492 500.000000
-0.260000 0.260000 0.410000 60.994511 -17.069655 -71.033220 500.000000
-0.260000 0.260000 0.290000 187.241798 -40.668150 627.430208 500.000000
-0.260000 0.090000 0.290000 54.973080 52.869675 29.358008 500.000000
0.015642 0.193015 0.290000 26.988853 20.602987 25.267079 500.000000
-0.094799 0.260000 0.363492 11.044005 -14.774097 2.474272 500.000000
-0.260000 0.260000 0.410000 99.295627 -80.959680 -22.737085 500.000000
-0.260000 0.260000 0.290000 58.068212 -34.112822 68.297778 500.000000
0.147792 0.260000 0.290000 81.558377 -57.241709 54.301802 500.000000
-0.139339 0.249947 0.410000 -79.867768 31.989402 -91.035710 500.000000
0.260000 0.169621 0.410000 -112.090238 -18.075779 -44.057528 500.000000
0.260000 0.260000 0.410000 -94.544519 -53.322737 -828.655000 500.000000
-0.260000 0.260000 0.290000 361.014491 -183.932973 395.006428 500.000000
0.027645 0.114576 0.410000 -46.471075 -29.084859 -19.971040 500.000000
-0.260000 0.090000 0.290000 488.384627 26.352780 100.576275 500.000000
0.260000 0.260000 0.410000 -71.486654 -51.461012 -220.682909 500.000000
-0.260000 0.255733 0.410000 57.818175 33.146619 -70.964930 500.000000
-0.100581 0.258187 0.410000 -72.116201 33.637475 -70.964795 500.000000
0.260000 0.090000 0.410000 -59.869456 74.900252 -38.013993 500.000000
-0.260000 0.260000 0.410000 65.975860 -17.233336 -70.964495 500.000000
-0.260000 0.260000 0.290000 60.947418 -28.242091 10.274790 500.000000
-0.260000 0.090000 0.290000 252.324374 24.706258 22.124892 500.000000
0.260000 0.090000 0.290000 -200.947707 164.504183 33.562755 500.000000
0.260000 0.260000 0.410000 -79.567898 -52.876928 -59.578228 500.000000
0.260000 0.090000 0.290000 -420.130099 42.813258 20.636330 500.000000
0.162815 0.090000 0.410000 84.562948 55.236485 -38.026722 500.000000
0.106537 0.090000 0.290000 73.307337 368.513420 21.314400 500.000000
0.260000 0.260000 0.290000 -65.483995 -61.713596 518.437098 500.000000
-0.154881 0.259846 0.410000 -82.976153 33.969104 -70.964716 500.000000
-0.246772 0.090000 0.410000 -101.354445 20.542941 -34.376083 500.000000
-0.141784 0.090000 0.410000 23.643177 34.726698 -35.823573 500.000000
0.167445 0.260000 0.410000 -18.511046 -73.103329 -62.699488 500.000000
0.260000 0.153590 0.410000 -181.993857 -21.282011 -44.006335 500.000000
-0.260000 0.124048 0.290000 142.214647 -27.190329 13.411091 500.000000
-0.260000 0.260000 0.290000 72.838981 -34.496854 68.271584 500.000000
0.260000 0.260000 0.290000 -86.632618 -29.309582 298.267881 500.000000
-0.260000 0.090000 0.410000 319.529012 58.770517 -24.814523 500.000000
0.260000 0.166560 0.410000 -27.485237 -18.688054 -44.046602 500.000000
-0.260000 0.260000 0.290000 55.054971 -35.160403 60.640780 500.000000
0.260000 0.260000 0.290000 -111.361802 -52.903247 27.413154 500.000000
0.260000 0.090000 0.410000 -83.241217 76.326176 -39.499441 500.000000
0.019734 0.090000 0.410000 55.946837 60.469104 -175.437419 500.000000
-0.260000 0.090000 0.410000 172.276110 51.054303 -20.749261 500.000000
0.260000 0.260000 0.290000 -119.263952 -52.913053 112.252712 500.000000
0.260000 0.090000 0.290000 -690.504880 24.052062 23.357395 500.000000
-0.260000 0.094142 0.410000 14.043965 -21.992836 -8.654710 500.000000
0.260000 0.090000 0.290000 -31.856026 11.565185 24.800196 500.000000
0.206296 0.260000 0.410000 38.070009 -16.383690 -38.544490 500.000000
-0.260000 0.090000 0.290000 185.484135 138.781093 15.526176 500.000000
0.260000 0.090000 0.290000 -100.728455 72.354011 137.832769 500.000000
0.260000 0.090000 0.290000 -90.205579 90.489538 163.027788 500.000000
0.260000 0.237776 0.410000 -65.996675 29.555126 -335.048997 500.000000
-0.260000 0.090000 0.290000 192.046409 32.296733 317.674731 500.000000
-0.167994 0.260000 0.410000 -85.598811 -17.087421 -70.629478 500.000000
0.260000 0.090000 0.290000 -90.174170 72.231087 137.855522 500.000000
0.159098 0.090000 0.410000 83.819595 80.294158 -38.056434 500.000000
-0.260000 0.260000 0.290000 166.974211 -59.106325 257.915702 500.000000
0.260000 0.260000 0.410000 -106.934821 -52.893764 -146.473085 500.000000
0.260000 0.090000 0.290000 -79.072840 75.434595 137.693649 500.000000
0.260000 0.260000 0.410000 -161.636019 -677.094389 -211.555744 500.000000
0.221408 0.090000 0.410000 96.281587 44.228703 -114.448234 500.000000
0.260000 0.260000 0.290000 -114.917592 -99.796628 36.717583 500.000000
-0.248502 0.260000 0.290000 -101.700336 -34.107196 68.301478 500.000000
0.260000 0.260000 0.290000 -89.710347 -55.376489 251.658432 500.000000
0.260000 0.260000 0.410000 -102.558179 -31.738167 -324.506122 500.000000
0.121948 0.090000 0.410000 76.389619 78.941689 -35.851410 500.000000
-0.260000 0.090000 0.290000 181.833862 24.100176 23.562357 500.000000
0.065633 0.090000 0.410000 65.126573 41.243555 -301.404320 500.000000
0.260000 0.090000 0.290000 -95.572760 72.233012 137.855487 500.000000
0.089344 0.090000 0.410000 69.868753 41.867099 -108.149954 500.000000
0.260000 0.108045 0.290000 -31.919423 -30.391055 64.092900 500.000000
0.009435 0.243296 0.290000 53.886971 30.659234 319.978772 500.000000
0.183867 0.260000 0.410000 88.773406 -25.532831 -93.078221 500.000000
0.111709 0.090000 0.410000 74.341735 42.259128 -62.145804 500.000000
-0.056182 0.168406 0.410000 -63.236383 -18.318718 -47.279417 500.000000
0.260000 0.260000 0.410000 -114.048105 -53.306230 -228.002472 500.000000
-0.260000 0.260000 0.290000 59.031678 -47.517317 68.926727 500.000000
0.260000 0.090000 0.410000 -59.302492 74.748788 -38.014082 500.000000
-0.022453 0.260000 0.410000 -56.490568 -21.449932 -71.131027 500.000000
0.260000 0.260000 0.410000 -106.997560 -31.898681 -225.516388 500.000000
-0.260000 0.260000 0.290000 188.286877 -18.502660 72.566399 500.000000
0.260000 0.090000 0.410000 -53.181715 81.767110 -18.593733 500.000000
-0.260000 0.260000 0.410000 559.264984 -58.674010 -454.573536 500.000000
0.260000 0.260000 0.410000 -60.509694 -28.105902 -221.237690 500.000000
0.260000 0.090000 0.410000 -55.683122 548.131240 -164.619142 500.000000
0.260000 0.260000 0.290000 -132.616255 -60.363371 374.809163 500.000000
0.260000 0.260000 0.410000 -53.774715 -49.984224 -232.888921 500.000000
0.079178 0.090000 0.410000 67.835524 41.672805 -170.695946 500.000000
0.105183 0.090000 0.410000 73.036514 42.092276 -78.892429 500.000000
0.143996 0.090000 0.410000 80.799209 92.915966 -38.088663 500.000000
-0.260000 0.260000 0.290000 63.119459 -37.071809 60.655976 500.000000
0.260000 0.090000 0.290000 -79.301653 72.209533 137.871780 500.000000
0.044494 0.260000 0.290000 8.410140 -29.931881 7.775970 500.000000
0.094804 0.260000 0.290000 70.960736 -600.691979 73.209947 500.000000
0.260000 0.260000 0.290000 -62.429157 -58.691186 388.491666 500.000000
0.260000 0.260000 0.343784 -23.746562 -25.680590 -13.243137 500.000000
-0.260000 0.260000 0.290000 69.809162 -34.104575 68.238177 500.000000
0.260000 0.090000 0.290000 -69.669294 69.111443 140.320498 500.000000
-0.260000 0.090000 0.290000 189.117110 22.223475 22.353343 500.000000
-0.260000 0.260000 0.290000 73.396969 -34.555306 68.274510 500.000000
0.260000 0.260000 0.290000 -85.617704 -57.807879 384.080165 500.000000
-0.260000 0.260000 0.290000 67.668215 -38.335779 68.019603 500.000000
-0.252035 0.260000 0.290000 -102.406982 -178.440871 104.156329 500.000000
-0.178614 0.090000 0.410000 -21.779069 8.583748 -43.282919 500.000000
0.060106 0.090000 0.410000 64.021126 41.448357 -189.810418 500.000000
-0.260000 0.260000 0.290000 57.691638 -34.520114 218.445130 500.000000
0.260000 0.090000 0.290000 -94.458912 71.647781 179.228917 500.000000
-0.024955 0.137997 0.410000 -56.991013 -24.400654 -52.389226 500.000000
0.048992 0.090000 0.410000 -42.201644 53.488730 -16.917227 500.000000
0.260000 0.260000 0.290000 -86.027932 -36.787712 375.005217 500.000000
0.260000 0.260000 0.410000 -99.711238 -53.378596 -741.346803 500.000000
-0.260000 0.090000 0.290000 170.180771 24.089729 23.588986 500.000000
0.260000 0.260000 0.290000 -112.204678 -29.586647 307.659037 500.000000
0.260000 0.260000 0.410000 -84.706081 -52.808237 -573.091567 500.000000
0.260000 0.260000 0.410000 -89.982818 -53.298676 -912.449945 500.000000
0.260000 0.090000 0.410000 -41.130573 27.830598 -33.298377 500.000000
