ply
format ascii 1.0
element vertex 240
property float x
property float y
property float z
property float vx
property float vy
property float vz
property float density
end_header
-0.135989 0.090000 0.290000 24.802229 39.948217 49.875206 500.000000
0.156147 0.260000 0.410000 83.229413 -338.222614 -65.672156 500.000000
0.158780 0.260000 0.290000 83.756082 -108.149110 32.893255 500.000000
-0.095133 0.260000 0.290000 -31.286943 -22.877446 387.578793 500.000000
-0.188255 0.159445 0.391948 -89.650989 2.116751 20.389596 500.000000
-0.260000 0.090000 0.290000 42.588034 36.394096 14.828214 500.000000
0.260000 0.260000 0.410000 -59.374514 -29.254381 -111.405326 500.000000
0.260000 0.260000 0.410000 -72.667081 -31.803818 -34.065397 500.000000
0.111087 0.090000 0.290000 2.382814 22.882468 91.871026 500.000000
0.260000 0.253467 0.410000 -249.164804 32.693363 -31.862582 500.000000
0.260000 0.260000 0.410000 -53.459238 -808.885177 -66.260120 500.000000
-0.260000 0.260000 0.410000 187.558324 -40.970098 -75.514082 500.000000
0.260000 0.260000 0.410000 -60.514986 -30.857641 -21.515719 500.000000
0.260000 0.090000 0.290000 -60.555694 39.369960 24.484344 500.000000
0.260000 0.260000 0.410000 -78.256852 -51.573278 -28.481132 500.000000
0.260000 0.260000 0.290000 -78.516902 -337.994213 45.021692 500.000000
-0.260000 0.106575 0.290000 110.646856 -30.685009 39.303542 500.000000
0.260000 0.260000 0.410000 -88.152876 -88.227727 -25.401434 500.000000
0.110401 0.090000 0.290000 74.080225 46.952573 46.931505 500.000000
-0.260000 0.090000 0.290000 70.937876 19.598055 39.427834 500.000000
-0.260000 0.090000 0.410000 55.483812 57.027578 -141.894059 500.000000
0.260000 0.260000 0.410000 -100.117392 -317.251853 -127.928093 500.000000
-0.260000 0.090000 0.290000 23.803040 35.667837 31.694272 500.000000
-0.260000 0.090000 0.290000 92.254268 26.108547 27.456374 500.000000
0.260000 0.260000 0.410000 -87.515116 -63.049980 -116.612427 500.000000
0.160312 0.090000 0.410000 84.062409 474.040788 -67.086953 500.000000
-0.148321 0.260000 0.290000 -81.664173 -113.591401 35.047248 500.000000
-0.260000 0.260000 0.410000 85.402858 -47.177349 -95.675069 500.000000
-0.260000 0.260000 0.410000 120.533426 -72.248844 -66.876112 500.000000
0.162419 0.260000 0.410000 42.957368 -65.997873 -231.571539 500.000000
0.207123 0.260000 0.410000 93.424607 -263.993529 -52.755396 500.000000
-0.036803 0.090000 0.290000 -12.805668 31.096951 35.213578 500.000000
-0.260000 0.260000 0.290000 64.198821 -117.579062 48.401036 500.000000
-0.260000 0.260000 0.290000 123.905597 -25.105206 31.667976 500.000000
0.260000 0.090000 0.410000 -183.151621 475.622929 -153.738310 500.000000
0.260000 0.260000 0.410000 -118.551521 -55.525702 -119.683027 500.000000
-0.120244 0.260000 0.290000 -76.048870 -95.705100 14.129439 500.000000
0.260000 0.260000 0.290000 -70.568909 -106.610064 46.716032 500.000000
0.260000 0.090000 0.290000 -218.560953 36.323623 65.258973 500.000000
-0.185673 0.090000 0.410000 14.865439 474.723738 -13.864006 500.000000
-0.260000 0.260000 0.410000 94.815345 -520.072524 -23.263000 500.000000
0.247812 0.260000 0.410000 101.562306 -721.945954 -66.259177 500.000000
0.205946 0.090000 0.292942 47.840079 21.464905 -23.411580 500.000000
0.260000 0.260000 0.410000 -102.556028 -55.604186 -68.440191 500.000000
0.260000 0.090000 0.290000 -43.234327 37.259845 15.334437 500.000000
-0.260000 0.090000 0.410000 59.239948 53.311962 -113.192000 500.000000
-0.260000 0.260000 0.290000 71.572185 -117.978242 46.782145 500.000000
-0.215695 0.260000 0.344544 -5.397717 -65.402204 -13.091220 500.000000
0.260000 0.260000 0.410000 -512.241131 -38.741422 -75.390423 500.000000
-0.143310 0.090000 0.290000 -80.661934 399.988688 31.649834 500.000000
-0.260000 0.260000 0.290000 65.280049 -117.543331 48.544024 500.000000
0.230325 0.260000 0.410000 98.064949 -640.011803 -66.274758 500.000000
-0.260000 0.260000 0.290000 64.533195 -117.545284 49.211102 500.000000
-0.260000 0.090000 0.410000 25.801819 8.484688 -29.061168 500.000000
-0.260000 0.090000 0.290000 42.556031 100.442962 31.608974 500.000000
0.206342 0.090000 0.410000 93.268353 474.038253 -66.814639 500.000000
-0.144160 0.260000 0.290000 -80.831983 -23.903954 189.121105 500.000000
0.260000 0.260000 0.410000 -78.677970 -52.171113 -25.256792 500.000000
0.260000 0.090000 0.340744 -216.575339 57.151323 -13.851164 500.000000
-0.260000 0.090000 0.290000 248.305898 61.134377 31.986225 500.000000
-0.260000 0.090000 0.290000 208.952265 144.451319 32.663039 500.000000
-0.222605 0.260000 0.410000 -9.322720 -108.770391 -25.881649 500.000000
-0.131937 0.090000 0.410000 -78.387490 50.708561 -129.262841 500.000000
0.187487 0.260000 0.410000 89.497364 -439.031788 -66.350084 500.000000
0.019950 0.090000 0.290000 55.990098 34.097955 442.143757 500.000000
0.260000 0.260000 0.410000 -90.193759 -89.412735 -25.423977 500.000000
0.037507 0.090000 0.290000 59.501411 39.308034 147.944022 500.000000
0.211691 0.090000 0.410000 94.338291 475.039928 -152.481822 500.000000
-0.257520 0.090000 0.290000 -103.504028 39.551101 83.336912 500.000000
-0.260000 0.260000 0.339585 12.269183 -17.420344 -14.082970 500.000000
-0.260000 0.260000 0.290000 331.162331 -106.347168 31.691089 500.000000
-0.260000 0.090000 0.410000 56.923828 55.645286 -113.817852 500.000000
-0.260000 0.260000 0.290000 65.090629 -155.098205 28.548718 500.000000
-0.061487 0.090000 0.410000 -64.297385 46.014955 -236.048954 500.000000
-0.260000 0.090000 0.290000 21.988936 54.892357 109.825475 500.000000
-0.260000 0.090000 0.410000 57.572548 51.541966 -113.378685 500.000000
-0.260000 0.090000 0.290000 54.183040 23.692188 135.903338 500.000000
0.027719 0.090000 0.290000 57.543834 39.486863 148.999860 500.000000
0.260000 0.260000 0.410000 -65.236057 -20.401918 -24.582564 500.000000
0.260000 0.170900 0.410000 -13.349401 -17.820075 -108.072864 500.000000
-0.260000 0.260000 0.410000 87.928269 -63.937492 -110.642955 500.000000
0.176490 0.260000 0.410000 67.185778 -20.828045 -21.017615 500.000000
0.260000 0.260000 0.290000 -216.648168 -78.532126 31.675261 500.000000
0.004359 0.090000 0.290000 0.918603 34.652063 32.566059 500.000000
0.260000 0.090000 0.290000 -77.009958 275.619498 31.686006 500.000000
0.260000 0.090000 0.410000 -242.763046 478.259032 -72.775401 500.000000
-0.260000 0.090000 0.410000 64.819505 55.749608 -113.818403 500.000000
-0.260000 0.260000 0.410000 262.313590 -58.126935 -80.153041 500.000000
0.260000 0.260000 0.290000 -202.213852 -52.975059 31.702030 500.000000
0.260000 0.260000 0.410000 -68.815659 -11.448019 -22.412642 500.000000
-0.260000 0.090000 0.410000 56.957655 50.194758 -93.928579 500.000000
0.092041 0.132160 0.290000 39.205360 -25.567939 16.674081 500.000000
0.034291 0.090000 0.295408 9.746779 22.313946 -22.918440 500.000000
0.176078 0.260000 0.410000 87.215664 -733.932694 -68.890595 500.000000
-0.260000 0.090000 0.290000 56.808513 26.675198 99.403096 500.000000
-0.260000 0.090000 0.410000 70.368434 58.659510 -152.803873 500.000000
-0.260000 0.243467 0.290000 25.729324 30.693409 28.925198 500.000000
0.260000 0.090000 0.410000 -406.069017 484.365662 -34.772194 500.000000
-0.260000 0.260000 0.410000 83.622883 -63.178938 -117.441879 500.000000
0.048394 0.260000 0.290000 61.678728 -126.683817 29.421355 500.000000
0.260000 0.090000 0.290000 -348.278073 24.266781 258.457582 500.000000
0.206422 0.260000 0.410000 93.284472 -559.848457 -66.276173 500.000000
0.182245 0.090000 0.410000 88.448963 474.041530 -66.362822 500.000000
0.260000 0.260000 0.290000 -80.169963 -28.568640 24.300529 500.000000
-0.260000 0.090000 0.410000 70.587707 50.086798 -201.282943 500.000000
-0.260000 0.260000 0.410000 77.462531 -48.309667 -70.207025 500.000000
-0.260000 0.260000 0.290000 71.314611 -117.561627 47.836668 500.000000
-0.260000 0.090000 0.410000 57.136308 54.543387 -113.297208 500.000000
0.260000 0.090000 0.290000 -192.162064 358.782475 34.559731 500.000000
-0.260000 0.260000 0.290000 64.135628 -117.608476 44.269581 500.000000
0.260000 0.260000 0.410000 -140.655443 -850.692779 -111.480868 500.000000
0.114802 0.260000 0.410000 74.960353 -142.816037 -56.046831 500.000000
-0.260000 0.090000 0.410000 55.055367 55.566334 -113.818371 500.000000
-0.260000 0.090000 0.410000 57.348299 56.038183 -120.774481 500.000000
0.260000 0.260000 0.410000 -35.770002 -24.347682 -20.103442 500.000000
-0.260000 0.090000 0.410000 52.031666 52.621968 -114.201895 500.000000
0.177326 0.260000 0.410000 87.465150 -169.040988 -65.780328 500.000000
-0.193382 0.090000 0.290000 -90.676353 75.926172 24.248780 500.000000
0.260000 0.260000 0.410000 -73.441635 -69.148860 -14.337158 500.000000
-0.260000 0.260000 0.290000 370.710924 -18.458093 31.305141 500.000000
-0.260000 0.260000 0.343735 78.118493 -141.430420 -13.253065 500.000000
-0.256330 0.260000 0.290000 -70.417891 -17.079840 16.364403 500.000000
0.260000 0.260000 0.410000 -81.561220 -77.886001 -115.771066 500.000000
0.260000 0.090000 0.410000 -122.091155 475.357664 -141.773541 500.000000
0.260000 0.260000 0.410000 -111.805855 -226.173457 -112.260217 500.000000
-0.260000 0.090000 0.290000 53.813135 23.060394 86.436816 500.000000
-0.260000 0.105546 0.290000 32.374153 -30.890763 13.766238 500.000000
-0.209272 0.090000 0.410000 -93.854308 8.769185 -53.759112 500.000000
-0.230158 0.090000 0.290000 -53.648459 15.122259 15.092891 500.000000
0.260000 0.090000 0.390414 -49.107922 34.823582 -3.917219 500.000000
-0.147168 0.260000 0.290000 22.566438 -116.633623 32.191924 500.000000
-0.260000 0.090000 0.410000 61.459934 55.670640 -113.818400 500.000000
0.260000 0.260000 0.290000 -446.109728 -119.632316 29.689478 500.000000
0.109432 0.090000 0.410000 73.886419 641.118563 -79.069074 500.000000
0.016535 0.090000 0.290000 55.307056 39.317265 147.609015 500.000000
0.211154 0.101082 0.290000 24.408835 -31.783569 105.235413 500.000000
-0.183716 0.090000 0.290000 -88.743219 46.532458 949.528263 500.000000
0.021671 0.260000 0.290000 -4.328492 -104.781625 46.507231 500.000000
-0.260000 0.090000 0.403878 67.414747 143.681370 22.775576 500.000000
0.260000 0.260000 0.410000 -162.156271 -921.577983 -143.689905 500.000000
-0.178396 0.090000 0.410000 16.320883 146.515072 -31.434620 500.000000
0.121719 0.260000 0.410000 76.343740 -854.647909 -110.051635 500.000000
-0.260000 0.090000 0.410000 60.403748 52.520405 -108.523369 500.000000
-0.224279 0.090000 0.410000 -96.855728 313.830400 -77.686945 500.000000
-0.260000 0.260000 0.290000 37.357104 -61.060236 66.635368 500.000000
0.260000 0.090000 0.290000 -116.919978 193.024347 34.111625 500.000000
0.260000 0.260000 0.410000 -84.961383 -50.345431 -25.200925 500.000000
0.260000 0.260000 0.410000 -82.018125 -62.810998 -96.468686 500.000000
-0.050515 0.185995 0.290000 -62.102996 -0.112476 42.985196 500.000000
-0.188457 0.090000 0.290000 -89.691326 30.340383 88.995777 500.000000
0.260000 0.090000 0.290000 -74.158401 62.535613 16.868544 500.000000
0.183757 0.090000 0.410000 88.751455 475.430566 -67.562238 500.000000
0.159984 0.090000 0.410000 83.996872 497.309850 -57.264990 500.000000
0.014759 0.090000 0.410000 54.951874 520.725698 -54.848617 500.000000
-0.260000 0.111294 0.290000 54.963645 -29.741221 16.632371 500.000000
-0.260000 0.260000 0.309426 63.503017 -35.210781 -20.114855 500.000000
0.260000 0.260000 0.410000 -71.454408 -51.793401 -47.102174 500.000000
-0.260000 0.260000 0.290000 62.729158 -178.828083 30.535954 500.000000
-0.260000 0.090000 0.410000 144.280680 57.014070 -113.378630 500.000000
0.057314 0.260000 0.410000 -40.537275 -247.130332 -22.291091 500.000000
0.260000 0.260000 0.290000 -237.152135 -41.749870 31.633866 500.000000
-0.030714 0.090000 0.410000 45.857238 14.672164 -19.347457 500.000000
-0.260000 0.090000 0.410000 67.247534 55.765719 -113.803485 500.000000
0.260000 0.260000 0.319706 -49.831422 -84.567513 -18.058898 500.000000
-0.260000 0.090000 0.290000 52.513017 23.697804 110.068216 500.000000
0.260000 0.090000 0.290000 -229.126632 106.265279 31.927258 500.000000
-0.201545 0.090000 0.290000 -92.308905 48.423740 1090.393061 500.000000
0.183100 0.260000 0.410000 88.620049 -304.981797 -65.501791 500.000000
-0.260000 0.090000 0.290000 53.084932 30.509789 102.955033 500.000000
-0.260000 0.260000 0.290000 18.386909 -19.604155 41.000483 500.000000
-0.098188 0.090000 0.290000 -71.637622 27.721975 40.673645 500.000000
-0.260000 0.260000 0.410000 610.588161 -427.655608 -67.505119 500.000000
-0.260000 0.090000 0.290000 290.905457 230.387707 33.531242 500.000000
0.148815 0.090000 0.290000 38.651830 14.442380 5.346108 500.000000
-0.260000 0.260000 0.410000 75.633185 -34.481062 -71.496598 500.000000
-0.260000 0.090000 0.290000 69.597815 15.433104 31.944542 500.000000
0.260000 0.260000 0.410000 -253.192917 -212.475496 -17.338512 500.000000
0.260000 0.260000 0.290000 -153.866331 -104.274970 31.389577 500.000000
0.260000 0.090000 0.290000 -147.801892 45.586734 211.046447 500.000000
-0.260000 0.260000 0.410000 70.144031 -45.831269 -130.533897 500.000000
-0.260000 0.090000 0.410000 56.678266 55.972033 -114.461462 500.000000
-0.260000 0.090000 0.410000 95.047107 50.730608 -263.542866 500.000000
-0.260000 0.260000 0.290000 81.064557 -115.741818 87.503631 500.000000
-0.260000 0.090000 0.290000 129.362648 24.444840 83.340653 500.000000
-0.145981 0.112708 0.290000 -81.196180 -29.458324 38.930518 500.000000
-0.175583 0.090000 0.410000 -21.925930 19.474154 -29.135515 500.000000
0.119022 0.260000 0.325063 75.804416 -110.444646 -16.987333 500.000000
-0.260000 0.090000 0.410000 96.941823 52.430883 -112.916502 500.000000
-0.260000 0.090000 0.410000 57.443004 53.555452 -225.829928 500.000000
-0.260000 0.260000 0.290000 73.474367 -117.636321 44.551540 500.000000
-0.260000 0.090000 0.290000 165.970038 317.480187 33.332934 500.000000
0.164685 0.090000 0.410000 84.937027 480.821223 -170.161276 500.000000
0.260000 0.090000 0.410000 -53.601843 473.992238 -65.924703 500.000000
0.041283 0.090000 0.290000 60.256551 46.121749 112.907823 500.000000
-0.260000 0.105402 0.290000 42.360307 -30.919672 104.609088 500.000000
0.057660 0.260000 0.410000 63.532040 -81.434291 -55.102899 500.000000
0.132465 0.090000 0.410000 78.493075 474.356104 -58.757074 500.000000
0.260000 0.260000 0.290000 -43.788358 -42.639315 44.321844 500.000000
-0.260000 0.260000 0.410000 69.819725 -40.390893 -75.279185 500.000000
-0.260000 0.090000 0.410000 133.806073 53.158713 -248.235695 500.000000
-0.260000 0.090000 0.410000 59.520695 55.673688 -113.819626 500.000000
0.232681 0.090000 0.410000 98.536226 479.165193 -24.023400 500.000000
-0.260000 0.166169 0.290000 46.000855 -18.766191 30.858604 500.000000
-0.260000 0.090000 0.410000 118.001601 52.410883 -266.633900 500.000000
0.075371 0.260000 0.290000 67.074147 -106.255272 43.717520 500.000000
0.090918 0.090000 0.290000 -33.816479 26.027920 524.155268 500.000000
-0.030091 0.260000 0.290000 5.126840 -23.358132 51.362809 500.000000
0.057921 0.090000 0.290000 63.584282 39.296679 147.927963 500.000000
-0.260000 0.260000 0.410000 82.207008 -63.807606 -167.503558 500.000000
0.260000 0.260000 0.290000 -114.561782 -27.828859 90.867807 500.000000
-0.260000 0.090000 0.290000 27.660657 31.092647 143.006479 500.000000
-0.155513 0.090000 0.410000 20.897320 488.486304 -28.075597 500.000000
-0.260000 0.090000 0.290000 103.164230 37.254850 98.718174 500.000000
-0.242943 0.090000 0.410000 -100.588534 79.839148 -28.344486 500.000000
-0.260000 0.090000 0.410000 57.484518 55.577476 -113.803516 500.000000
0.260000 0.090000 0.290000 -41.476347 32.554711 247.220202 500.000000
-0.260000 0.260000 0.327717 19.676144 -27.074290 -16.456687 500.000000
0.182807 0.260000 0.410000 88.561484 -130.732514 -65.762504 500.000000
0.166870 0.090000 0.410000 85.374080 475.398002 -67.309177 500.000000
-0.253143 0.138232 0.410000 -35.386382 -24.353633 -40.192880 500.000000
-0.260000 0.260000 0.291348 89.217642 -121.796338 -23.730343 500.000000
-0.059363 0.090000 0.290000 -63.872688 25.309914 157.385798 500.000000
-0.260000 0.090000 0.290000 80.171162 439.483680 33.644404 500.000000
0.182405 0.260000 0.410000 88.480986 -501.939130 -66.279065 500.000000
0.212241 0.090000 0.410000 94.448193 474.041186 -67.216185 500.000000
-0.260000 0.260000 0.290000 36.547365 -36.715618 527.934851 500.000000
0.039928 0.260000 0.410000 59.985672 -583.798732 -51.988324 500.000000
0.118098 0.090000 0.410000 -28.380314 48.985558 -91.211610 500.000000
-0.260000 0.090000 0.290000 78.461542 19.421300 39.366847 500.000000
-0.260000 0.090000 0.410000 63.881819 55.681193 -114.110868 500.000000
-0.260000 0.260000 0.290000 96.365363 -173.653214 462.119811 500.000000
-0.016946 0.090000 0.410000 -9.423896 28.465640 -36.591537 500.000000
-0.260000 0.090000 0.410000 56.065805 59.234714 -116.025481 500.000000
0.186894 0.090000 0.410000 89.378863 474.000244 -67.221642 500.000000
-0.166391 0.090000 0.410000 18.721873 21.020865 -95.137640 500.000000
-0.069518 0.090000 0.292246 -65.903668 34.205514 -23.550897 500.000000
-0.260000 0.260000 0.410000 564.737296 -163.711605 -25.186033 500.000000
0.260000 0.090000 0.290000 -65.030154 34.846516 111.915670 500.000000
0.001828 0.090000 0.290000 52.365660 34.847481 112.611269 500.000000
-0.260000 0.090000 0.410000 99.937557 56.833941 -118.607071 500.000000
