ply
format ascii 1.0
element vertex 240
property float x
property float y
property float z
property float vx
property float vy
property float vz
property float density
end_header
-0.260000 0.090000 0.290000 169.960400 345.885752 57.835634 500.000000
-0.096720 0.260000 0.290000 -71.343934 -69.676248 173.973997 500.000000
-0.075509 0.260000 0.290000 36.898242 -146.136625 31.208820 500.000000
0.260000 0.260000 0.322676 -75.585204 -194.041796 -17.464771 500.000000
0.260000 0.090000 0.410000 -96.014509 75.997472 -60.883111 500.000000
0.260000 0.260000 0.410000 -73.283229 -46.439894 -59.096141 500.000000
0.260000 0.090000 0.410000 -164.466599 107.107056 -70.833961 500.000000
-0.115222 0.090000 0.410000 -75.044353 411.206231 -50.381088 500.000000
-0.228535 0.260000 0.290000 -97.707070 -75.300484 26.106142 500.000000
-0.260000 0.090000 0.290000 196.379607 51.855371 50.541978 500.000000
-0.052421 0.260000 0.410000 -62.484172 -287.885004 -50.506914 500.000000
0.260000 0.090000 0.410000 -235.048940 18.307523 -56.367399 500.000000
0.260000 0.090000 0.290000 -99.292060 97.251714 59.738831 500.000000
-0.260000 0.090000 0.410000 87.062267 111.116706 -60.458676 500.000000
-0.161730 0.090000 0.410000 -84.345982 397.634521 -50.359245 500.000000
0.260000 0.090000 0.410000 -77.258578 131.892991 -15.343293 500.000000
-0.260000 0.260000 0.410000 34.306522 -68.298910 -17.662083 500.000000
-0.143470 0.260000 0.410000 -80.694084 -286.394961 -50.347678 500.000000
0.018785 0.260000 0.290000 -48.242950 -13.700338 24.669404 500.000000
-0.260000 0.260000 0.290000 288.343956 -128.565387 50.588491 500.000000
0.260000 0.090000 0.290000 -55.528830 96.615844 124.076443 500.000000
0.260000 0.260000 0.410000 -80.847413 -101.508565 -44.428564 500.000000
-0.076774 0.090000 0.410000 -67.354887 495.533769 -60.621230 500.000000
-0.041820 0.260000 0.290000 -60.364050 -139.415512 28.723808 500.000000
-0.160447 0.260000 0.410000 -84.089420 -286.252086 -50.703054 500.000000
0.260000 0.090000 0.410000 -157.228743 75.194003 -71.008583 500.000000
-0.260000 0.090000 0.410000 101.661297 104.123917 -95.603191 500.000000
0.260000 0.090000 0.410000 -170.752123 79.893537 -71.176064 500.000000
-0.085744 0.260000 0.290000 -69.148820 -68.755321 54.776666 500.000000
-0.058499 0.260000 0.410000 -63.699793 -287.392528 -50.060844 500.000000
0.260000 0.260000 0.290000 -80.557679 -133.193070 119.397720 500.000000
0.260000 0.090000 0.410000 -88.045091 163.034807 -63.303459 500.000000
-0.260000 0.090000 0.410000 36.981701 187.443336 -156.231425 500.000000
0.002478 0.090000 0.290000 24.431927 44.422887 22.890289 500.000000
-0.260000 0.090000 0.410000 84.426481 94.637997 -66.323651 500.000000
0.260000 0.260000 0.410000 -80.919251 -100.488606 -44.396433 500.000000
0.260000 0.090000 0.314299 -11.380664 30.223024 -19.140290 500.000000
0.168635 0.260000 0.410000 42.858147 -8.803232 -40.538101 500.000000
-0.074163 0.260000 0.290000 5.667081 -67.267680 48.533000 500.000000
0.071888 0.090000 0.290000 66.377567 113.777074 55.909367 500.000000
-0.260000 0.090000 0.309022 144.795043 70.175836 -20.195636 500.000000
-0.142897 0.260000 0.290000 -80.579303 -71.294108 131.658036 500.000000
-0.260000 0.090000 0.290000 170.029837 54.734157 52.963655 500.000000
0.260000 0.260000 0.410000 -80.856916 -100.488911 -44.196737 500.000000
-0.142599 0.090000 0.410000 -22.480438 26.414124 -17.488374 500.000000
-0.252221 0.260000 0.410000 -22.220822 -81.710581 -58.307184 500.000000
-0.057200 0.260000 0.290000 -63.439997 -77.242660 26.739142 500.000000
-0.091021 0.260000 0.410000 -70.204300 -287.450410 -50.822248 500.000000
0.260000 0.260000 0.410000 -82.453479 -100.423196 -44.223822 500.000000
0.260000 0.095695 0.410000 -28.193623 -32.860943 -55.296504 500.000000
0.260000 0.090000 0.410000 -98.783880 634.150707 -307.632407 500.000000
-0.113951 0.260000 0.290000 -74.790271 -70.893456 98.936367 500.000000
-0.216410 0.090000 0.410000 -41.947115 215.586621 -136.451945 500.000000
0.018226 0.090000 0.290000 55.645182 123.452702 50.689626 500.000000
-0.260000 0.260000 0.410000 102.590894 -568.774357 -76.591180 500.000000
0.260000 0.130676 0.410000 -300.660913 -25.864851 -61.316952 500.000000
-0.118394 0.260000 0.290000 -75.678876 -186.249681 43.847373 500.000000
-0.140415 0.090000 0.410000 -80.082922 324.553557 -50.346675 500.000000
-0.114885 0.260000 0.410000 -74.977061 -325.237326 -55.998942 500.000000
0.260000 0.090000 0.299421 -424.569219 37.764236 -22.115848 500.000000
0.260000 0.090000 0.308569 -439.062319 36.777667 -20.286112 500.000000
0.260000 0.260000 0.410000 -81.385516 -100.408724 -44.042257 500.000000
-0.119806 0.260000 0.371837 -75.961118 -309.282444 16.367432 500.000000
0.260000 0.260000 0.410000 -81.053475 -101.695994 -44.188596 500.000000
0.027105 0.090000 0.290000 -46.579033 1256.501238 52.953784 500.000000
0.260000 0.260000 0.410000 -80.808740 -100.620665 -44.029101 500.000000
-0.107976 0.260000 0.290000 -73.595254 -134.684176 29.765231 500.000000
-0.260000 0.157062 0.410000 34.111542 -20.587689 -64.634596 500.000000
0.110871 0.090000 0.290000 74.174161 113.802315 52.681742 500.000000
0.260000 0.090000 0.290000 -151.312196 19.242254 109.906725 500.000000
0.260000 0.090000 0.290000 -729.388809 31.755874 70.330559 500.000000
0.183198 0.090000 0.290000 88.639659 79.800479 221.714409 500.000000
-0.080292 0.090000 0.410000 -68.058340 57.504748 -110.154881 500.000000
-0.260000 0.260000 0.290000 40.307464 -17.987966 85.817377 500.000000
0.089082 0.260000 0.290000 -34.183523 -98.914582 48.671677 500.000000
0.260000 0.260000 0.410000 -89.385911 -129.500632 -43.235928 500.000000
0.260000 0.260000 0.290000 -85.916341 -180.661425 63.499560 500.000000
-0.260000 0.090000 0.410000 135.131552 487.733475 -69.079943 500.000000
-0.260000 0.090000 0.410000 117.714647 46.158359 -55.804085 500.000000
-0.260000 0.260000 0.290000 69.986400 -22.675913 20.799019 500.000000
0.260000 0.090000 0.290000 -182.655757 235.326185 141.573854 500.000000
0.260000 0.260000 0.410000 -64.429375 -463.736401 -38.657699 500.000000
0.260000 0.260000 0.410000 -326.003219 -43.570218 -57.333822 500.000000
-0.260000 0.090000 0.290000 497.415757 33.432436 46.768891 500.000000
-0.260000 0.090000 0.290000 172.267529 45.279611 44.005881 500.000000
-0.260000 0.143724 0.410000 94.311742 -23.255132 -66.009078 500.000000
-0.260000 0.090000 0.290000 179.239746 30.084433 159.019781 500.000000
0.260000 0.090000 0.410000 -113.611896 33.314046 -56.765110 500.000000
-0.198209 0.090000 0.410000 -91.641849 197.451494 -68.649003 500.000000
0.188520 0.090000 0.290000 1.789890 33.986769 18.296996 500.000000
0.260000 0.260000 0.410000 -93.094349 -135.418763 -43.142309 500.000000
0.260000 0.260000 0.410000 -37.150732 -14.262892 -13.331481 500.000000
-0.260000 0.090000 0.410000 84.143176 125.971865 -55.198154 500.000000
-0.099416 0.260000 0.290000 -71.883123 -71.291057 72.309465 500.000000
0.260000 0.260000 0.410000 -103.899240 -68.487195 -93.914430 500.000000
-0.260000 0.090000 0.410000 93.058569 109.691079 -55.307350 500.000000
0.260000 0.090000 0.337173 -357.378062 33.985728 -14.565341 500.000000
0.260000 0.090000 0.410000 -77.023755 77.319984 -66.230940 500.000000
-0.260000 0.090000 0.410000 111.216662 38.659098 -57.009489 500.000000
0.026906 0.090000 0.410000 57.381284 193.648999 -62.280476 500.000000
-0.073452 0.260000 0.290000 -66.690407 -82.986800 37.730645 500.000000
-0.086937 0.260000 0.290000 -69.387450 -70.557503 98.940853 500.000000
0.018567 0.260000 0.290000 55.713409 -25.785835 59.184697 500.000000
0.068438 0.260000 0.290000 50.302891 -23.715631 20.392136 500.000000
-0.196030 0.260000 0.410000 -91.205942 -299.859223 -50.035251 500.000000
0.126694 0.090000 0.290000 77.338729 118.178573 68.927249 500.000000
-0.099684 0.260000 0.290000 32.063232 -144.097086 21.773151 500.000000
0.260000 0.260000 0.410000 -94.607729 -107.983577 -43.247746 500.000000
-0.260000 0.090000 0.410000 118.949466 94.425847 -80.105958 500.000000
-0.260000 0.090000 0.410000 175.357774 149.914096 -169.774376 500.000000
0.260000 0.260000 0.410000 -81.005391 -103.587410 -44.364468 500.000000
-0.087423 0.260000 0.290000 -69.484588 -68.708921 173.867805 500.000000
0.260000 0.260000 0.290000 -61.031903 -485.288496 194.680031 500.000000
0.088267 0.090000 0.290000 69.653408 91.188880 133.934009 500.000000
-0.046757 0.260000 0.290000 42.648658 -747.077528 46.822973 500.000000
0.260000 0.260000 0.410000 -116.103897 -112.916983 -43.177826 500.000000
-0.086905 0.260000 0.290000 -69.380968 -69.019526 152.385562 500.000000
-0.175933 0.090000 0.386006 -87.186608 176.531716 19.201243 500.000000
0.260000 0.260000 0.290000 -60.498726 -133.426027 28.960184 500.000000
-0.260000 0.260000 0.410000 22.022388 -36.082466 -126.408693 500.000000
0.260000 0.260000 0.410000 -84.298834 -100.487599 -43.412548 500.000000
0.260000 0.090000 0.290000 -72.770703 136.875457 72.130256 500.000000
-0.152194 0.090000 0.410000 -82.438796 302.296258 -50.699208 500.000000
0.260000 0.090000 0.410000 -507.294250 30.256436 -56.894483 500.000000
0.260000 0.260000 0.410000 -80.892963 -101.153628 -44.367506 500.000000
-0.156453 0.260000 0.290000 -83.290535 -114.848518 47.043834 500.000000
-0.260000 0.260000 0.410000 827.662032 -103.878724 -58.213847 500.000000
0.221248 0.160416 0.410000 49.949841 -19.916888 -65.782629 500.000000
-0.260000 0.090000 0.410000 215.014677 80.469267 -29.333417 500.000000
0.260000 0.260000 0.410000 -45.524896 -129.789514 -79.767925 500.000000
0.260000 0.090000 0.410000 -72.065297 89.862711 -64.522199 500.000000
-0.260000 0.090000 0.290000 170.065718 31.035348 160.988739 500.000000
-0.260000 0.260000 0.410000 93.985867 -293.196950 -64.312725 500.000000
0.260000 0.090000 0.410000 -147.130741 75.844751 -71.055271 500.000000
-0.011220 0.090000 0.290000 49.755934 111.490840 48.812898 500.000000
0.046134 0.090000 0.290000 61.226878 126.587075 48.617821 500.000000
0.050398 0.090000 0.290000 62.079595 113.037378 56.057393 500.000000
-0.260000 0.158047 0.290000 62.293208 -20.390610 89.332558 500.000000
-0.260000 0.090000 0.290000 179.175400 29.570871 46.235729 500.000000
0.260000 0.260000 0.410000 -81.089181 -103.863653 -44.489989 500.000000
0.260000 0.090000 0.290000 -76.845189 279.141198 74.361985 500.000000
0.260000 0.260000 0.290000 -151.203259 -134.442052 155.295543 500.000000
-0.112013 0.260000 0.290000 -74.402696 -86.653736 33.917175 500.000000
-0.260000 0.090000 0.410000 91.519918 94.033479 -65.843510 500.000000
0.083488 0.090000 0.290000 68.697628 116.095428 49.117727 500.000000
-0.059382 0.260000 0.410000 -63.876369 -339.681091 -12.661267 500.000000
-0.147914 0.090000 0.410000 -81.582748 318.903578 -50.346309 500.000000
-0.132805 0.090000 0.410000 -78.560934 381.389956 -50.624015 500.000000
0.260000 0.090000 0.290000 -62.861590 27.230356 23.746858 500.000000
-0.094413 0.260000 0.290000 -70.882659 -143.860539 27.792853 500.000000
-0.260000 0.090000 0.410000 82.817204 101.213895 -61.315177 500.000000
-0.260000 0.154507 0.410000 104.653102 -21.098567 -74.792804 500.000000
0.260000 0.093787 0.410000 -189.528073 -33.242513 -56.240849 500.000000
-0.260000 0.260000 0.410000 51.567690 -169.770556 -67.254120 500.000000
-0.260000 0.260000 0.290000 263.425852 -61.672908 153.432496 500.000000
-0.260000 0.090000 0.410000 98.914184 106.983294 -67.379377 500.000000
-0.126166 0.090000 0.410000 -77.233112 341.134968 -50.431871 500.000000
0.260000 0.090000 0.410000 -81.505369 349.964553 -161.185835 500.000000
-0.260000 0.090000 0.290000 175.863186 40.329910 181.370362 500.000000
-0.260000 0.260000 0.410000 208.150010 -67.627207 -63.332054 500.000000
-0.260000 0.090000 0.410000 180.869564 118.430475 -23.253186 500.000000
-0.239918 0.159330 0.410000 -62.252145 -20.133997 -60.994364 500.000000
-0.260000 0.260000 0.290000 60.548428 -240.073166 14.511294 500.000000
0.260000 0.260000 0.410000 -99.369064 -101.129855 -44.257257 500.000000
0.080606 0.260000 0.290000 -35.878797 -90.977676 47.179324 500.000000
-0.260000 0.090000 0.410000 127.467096 101.640454 -76.536671 500.000000
0.260000 0.090000 0.304443 -70.040210 27.981638 -21.111384 500.000000
0.260000 0.260000 0.410000 -80.826140 -101.173443 -44.185291 500.000000
-0.000099 0.260000 0.290000 -52.019803 -103.666942 47.629386 500.000000
0.067519 0.090000 0.290000 65.503726 115.342606 49.222943 500.000000
0.078830 0.241804 0.410000 50.733843 30.360755 -66.936126 500.000000
-0.104839 0.260000 0.290000 -72.967772 -70.154853 34.424794 500.000000
0.260000 0.090000 0.290000 -418.091586 39.855123 12.358720 500.000000
0.211242 0.090000 0.290000 31.426454 14.377548 9.444485 500.000000
0.096183 0.090000 0.290000 71.236614 114.347038 64.608302 500.000000
0.260000 0.260000 0.290000 -71.165755 -209.475206 67.123441 500.000000
-0.086869 0.260000 0.290000 34.626273 -144.101472 38.514598 500.000000
-0.260000 0.090000 0.290000 154.604387 39.020693 80.283941 500.000000
-0.260000 0.090000 0.290000 169.554765 45.017149 44.215169 500.000000
0.172749 0.123709 0.410000 13.360590 -27.258161 -64.441555 500.000000
0.224682 0.090000 0.290000 96.936448 87.739884 199.906250 500.000000
-0.057859 0.260000 0.410000 -63.571743 -294.511319 -50.245491 500.000000
0.260000 0.090000 0.290000 -83.935093 168.936116 29.270706 500.000000
0.260000 0.260000 0.290000 -411.181061 -223.554654 28.592775 500.000000
-0.260000 0.090000 0.410000 137.131699 174.423611 -62.412752 500.000000
0.260000 0.260000 0.410000 -84.626490 -93.535548 -157.885763 500.000000
0.260000 0.144966 0.290000 -34.264857 -23.006891 61.821789 500.000000
-0.208028 0.260000 0.290000 -93.605698 -69.157929 129.139913 500.000000
0.260000 0.260000 0.410000 -91.482433 -117.253125 -43.685378 500.000000
-0.090206 0.260000 0.290000 -70.041199 -77.055550 26.730450 500.000000
0.260000 0.090000 0.316378 -536.789154 36.071113 -18.724371 500.000000
0.130579 0.132894 0.290000 39.131618 -25.421175 114.288801 500.000000
-0.260000 0.090000 0.410000 70.884761 94.936458 -61.901684 500.000000
-0.260000 0.090000 0.290000 196.498691 45.015415 46.791743 500.000000
-0.086263 0.260000 0.290000 -69.252667 -83.543218 37.435857 500.000000
-0.212203 0.090000 0.410000 -76.438557 19.185940 -56.258333 500.000000
-0.260000 0.090000 0.290000 158.931457 28.478702 138.110280 500.000000
-0.260000 0.090000 0.290000 230.482251 63.292303 50.353405 500.000000
0.044554 0.090000 0.290000 60.910703 113.074027 63.029655 500.000000
0.260000 0.090000 0.410000 -28.005947 28.505236 -56.000090 500.000000
0.260000 0.090000 0.290000 -505.998596 21.748959 150.847087 500.000000
-0.260000 0.090000 0.290000 194.045971 63.129447 48.557444 500.000000
-0.260000 0.260000 0.410000 159.737168 -171.989462 -50.954757 500.000000
-0.174350 0.260000 0.410000 -86.870016 -291.912420 -50.251741 500.000000
-0.260000 0.090000 0.410000 342.945677 52.784877 -61.450204 500.000000
-0.260000 0.090000 0.290000 167.359928 31.109627 79.299669 500.000000
-0.260000 0.090000 0.290000 193.471578 67.845252 137.490832 500.000000
0.260000 0.090000 0.410000 -92.461056 70.961851 -769.597406 500.000000
0.260000 0.090000 0.290000 -184.208118 152.674060 226.465024 500.000000
0.260000 0.090000 0.410000 -84.026660 75.612515 -90.604147 500.000000
0.034647 0.260000 0.290000 1.325668 -41.488354 47.823849 500.000000
-0.260000 0.260000 0.410000 80.056584 -485.427256 -61.835100 500.000000
-0.076538 0.260000 0.290000 -67.307577 -143.554829 28.762472 500.000000
-0.260000 0.260000 0.290000 243.858522 -102.329376 64.037338 500.000000
0.065862 0.090000 0.290000 65.172492 79.806255 183.390117 500.000000
-0.260000 0.090000 0.290000 169.887682 61.360349 45.899275 500.000000
-0.260000 0.260000 0.290000 135.391189 -64.344031 119.201135 500.000000
-0.251124 0.260000 0.290000 -102.224876 -67.354773 97.258290 500.000000
-0.260000 0.260000 0.290000 55.864589 -19.337124 53.582689 500.000000
0.260000 0.090000 0.410000 -181.688213 81.451380 -50.535045 500.000000
-0.051877 0.260000 0.410000 -62.375301 -287.823201 -54.568468 500.000000
0.260000 0.090000 0.290000 -69.865283 238.695087 24.408844 500.000000
0.158095 0.090000 0.290000 83.619072 114.492060 53.606190 500.000000
0.260000 0.260000 0.290000 -193.151901 -132.927223 110.558945 500.000000
-0.260000 0.090000 0.410000 164.380026 45.789579 -850.680566 500.000000
0.039204 0.090000 0.290000 18.475953 48.291826 14.410061 500.000000
-0.086582 0.260000 0.290000 -69.316357 -70.346737 186.739185 500.000000
-0.260000 0.090000 0.410000 90.761798 23.296991 -112.986849 500.000000
0.260000 0.260000 0.290000 -76.118542 -200.683765 68.264598 500.000000
-0.260000 0.090000 0.290000 174.616910 29.424333 167.880308 500.000000
-0.260000 0.129340 0.410000 31.734448 -26.131987 -23.679198 500.000000
-0.260000 0.090000 0.290000 159.469097 40.433788 78.422731 500.000000
0.190185 0.090000 0.290000 90.036994 107.883242 161.599462 500.000000
0.260000 0.090000 0.290000 -102.374417 87.745762 74.652219 500.000000
0.175093 0.090000 0.290000 87.018527 23.623526 26.966434 500.000000
0.260000 0.090000 0.410000 -126.102421 25.519621 -104.916183 500.000000
0.260000 0.090000 0.290000 -63.036618 308.153018 28.380905 500.000000
0.241230 0.260000 0.410000 100.246072 -326.031947 -19.868150 500.000000
-0.260000 0.090000 0.410000 65.401281 115.863608 -85.441612 500.000000
-0.260000 0.090000 0.290000 175.707688 35.807626 167.036901 500.000000
