ply
format ascii 1.0
element vertex 240
property float x
property float y
property float z
property float vx
property float vy
property float vz
property float density
end_header
-0.164689 0.090000 0.290000 -84.937799 298.607312 71.646658 500.000000
-0.260000 0.260000 0.290000 76.158309 -35.354239 86.389788 500.000000
0.260000 0.260000 0.331876 -148.999003 -36.514541 -15.624730 500.000000
-0.260000 0.260000 0.410000 32.811650 -48.486424 -73.149909 500.000000
-0.260000 0.090000 0.410000 277.753638 63.766443 -15.383327 500.000000
0.180721 0.206049 0.410000 88.144264 23.209755 -14.754335 500.000000
0.260000 0.090000 0.410000 -75.131295 75.100436 -17.863857 500.000000
0.260000 0.090000 0.410000 -107.715641 107.134993 -12.849587 500.000000
0.260000 0.260000 0.344635 -88.059800 -18.815786 -13.072960 500.000000
-0.230698 0.090000 0.290000 -98.139645 225.142884 69.824314 500.000000
0.260000 0.260000 0.410000 -69.784948 -71.935203 -12.619125 500.000000
0.260000 0.090000 0.410000 -92.767243 52.912677 -14.249192 500.000000
0.260000 0.090000 0.290000 -55.025107 69.570924 83.576811 500.000000
-0.260000 0.090000 0.410000 66.460883 46.202100 -55.502122 500.000000
-0.260000 0.090000 0.410000 73.798683 108.200877 -60.956748 500.000000
-0.260000 0.090000 0.290000 41.727164 79.408158 40.126660 500.000000
-0.067714 0.260000 0.290000 -65.542882 -17.070053 189.633049 500.000000
0.176610 0.260000 0.410000 87.321941 -71.562830 -16.141330 500.000000
0.040533 0.260000 0.348206 60.106667 -26.343892 -12.358801 500.000000
-0.260000 0.260000 0.290000 100.045519 -50.066267 55.565535 500.000000
-0.260000 0.090000 0.290000 378.577470 43.268827 99.648338 500.000000
0.199622 0.260000 0.400893 91.924411 -25.364966 22.178654 500.000000
0.260000 0.090000 0.410000 -83.824262 128.205956 -15.136532 500.000000
0.260000 0.260000 0.338094 -114.602891 -34.836724 -14.381177 500.000000
0.101713 0.260000 0.410000 72.342506 -71.527111 -14.031115 500.000000
0.260000 0.090000 0.410000 -73.322820 67.126530 -17.907488 500.000000
-0.260000 0.090000 0.410000 70.108625 44.454868 -64.283399 500.000000
0.260000 0.090000 0.410000 -76.701818 68.300772 -17.949336 500.000000
0.260000 0.260000 0.290000 -196.431165 -17.182699 13.700377 500.000000
0.137031 0.260000 0.410000 -6.793321 -71.813240 -12.606043 500.000000
-0.260000 0.260000 0.290000 37.852038 -33.281973 37.490605 500.000000
-0.260000 0.090000 0.410000 37.657638 84.699782 -16.680169 500.000000
0.260000 0.090000 0.410000 -52.086743 56.427104 -39.026309 500.000000
-0.110732 0.090000 0.410000 -74.146328 175.958843 -1009.115941 500.000000
-0.260000 0.090000 0.410000 65.802301 42.084698 -56.967556 500.000000
0.199802 0.260000 0.400813 91.960311 -25.110107 22.162596 500.000000
0.207219 0.172078 0.410000 25.071160 -17.584377 -186.128762 500.000000
0.135902 0.260000 0.398186 -24.819669 -233.870252 21.637167 500.000000
0.260000 0.258112 0.290000 -186.874923 33.622409 12.140332 500.000000
0.124374 0.090000 0.290000 76.874803 71.670460 13.984963 500.000000
-0.260000 0.090000 0.410000 71.634756 26.668403 -312.044691 500.000000
-0.131582 0.260000 0.290000 -78.316434 -35.757057 75.820502 500.000000
-0.164862 0.090000 0.290000 -84.972497 225.862158 70.429378 500.000000
0.199646 0.260000 0.400314 91.929160 -25.110183 22.062800 500.000000
-0.149576 0.260000 0.389944 -7.551909 -42.046614 19.988858 500.000000
0.260000 0.260000 0.410000 -176.794787 -20.420728 -14.557423 500.000000
0.260000 0.260000 0.343048 -138.297402 -19.303366 -13.390332 500.000000
-0.088229 0.260000 0.410000 -4.684072 -71.826785 -15.512436 500.000000
0.203635 0.260000 0.400382 92.727031 -25.093763 22.076335 500.000000
0.166006 0.260000 0.410000 9.558627 -380.123893 -13.972462 500.000000
-0.260000 0.090000 0.410000 434.466541 204.692880 -77.027478 500.000000
-0.260000 0.260000 0.290000 162.868388 -35.657772 67.644593 500.000000
0.260000 0.090000 0.410000 -110.537312 59.761955 -35.971899 500.000000
-0.260000 0.090000 0.290000 57.403748 242.546518 57.170264 500.000000
-0.260000 0.260000 0.410000 100.634188 -142.117264 -64.555381 500.000000
0.260000 0.260000 0.410000 -90.713495 -117.995123 -15.310804 500.000000
-0.260000 0.260000 0.290000 166.597838 -64.476425 53.882116 500.000000
0.260000 0.090000 0.410000 -81.007584 85.484180 -15.204166 500.000000
0.024172 0.260000 0.410000 56.834355 -81.268072 -19.816722 500.000000
0.260000 0.101962 0.410000 -149.964979 -31.607648 -192.770021 500.000000
0.260000 0.108561 0.410000 -151.386979 -30.287893 -193.526933 500.000000
0.200967 0.260000 0.399928 92.193324 -25.090147 21.985599 500.000000
-0.059234 0.260000 0.290000 40.153106 -77.281841 18.417682 500.000000
0.200137 0.260000 0.400294 92.027389 -25.411799 22.058731 500.000000
-0.003733 0.090000 0.290000 -52.746663 525.619689 57.735999 500.000000
0.199525 0.260000 0.399895 91.905084 -25.143105 21.979025 500.000000
-0.260000 0.260000 0.290000 133.122789 -51.594059 50.364269 500.000000
0.260000 0.260000 0.410000 -54.331914 -61.888454 -16.138672 500.000000
-0.260000 0.090000 0.290000 26.892395 31.771939 13.176801 500.000000
0.260000 0.260000 0.290000 -55.400255 -302.752003 96.108361 500.000000
0.260000 0.090000 0.290000 -212.456822 53.206576 86.223188 500.000000
-0.178170 0.090000 0.290000 -87.634068 231.953696 99.905151 500.000000
0.217266 0.090000 0.410000 95.453151 18.760148 -27.512965 500.000000
-0.120609 0.090000 0.290000 -76.121832 116.299566 39.561164 500.000000
0.152543 0.260000 0.290000 82.508577 -24.716007 12.174032 500.000000
0.220957 0.260000 0.397913 96.191464 -32.359384 21.582642 500.000000
-0.260000 0.260000 0.290000 43.133135 -45.142549 23.523535 500.000000
-0.260000 0.090000 0.410000 78.471569 140.304301 -57.656249 500.000000
-0.260000 0.090000 0.410000 74.119747 29.971481 -54.339117 500.000000
-0.194786 0.090000 0.410000 -90.957276 70.454925 -66.867827 500.000000
0.260000 0.090000 0.290000 -75.853797 104.069278 104.023556 500.000000
0.158598 0.260000 0.386474 83.719613 -115.875356 19.294705 500.000000
0.260000 0.198878 0.410000 -107.219639 21.775655 -14.313982 500.000000
-0.260000 0.090000 0.290000 124.284664 220.539855 68.881596 500.000000
-0.170453 0.090000 0.290000 -86.090686 223.499910 68.191250 500.000000
-0.260000 0.260000 0.410000 88.310817 -37.424717 -61.912132 500.000000
-0.187886 0.260000 0.290000 -89.577203 -792.054854 75.087596 500.000000
0.260000 0.090000 0.410000 -62.424563 56.662259 -14.348565 500.000000
0.260000 0.090000 0.410000 -87.738034 53.808507 -22.729686 500.000000
0.173038 0.173796 0.410000 -1.547966 -17.240828 -9.365038 500.000000
0.230224 0.260000 0.397679 98.044730 -33.838156 21.535857 500.000000
-0.260000 0.117398 0.290000 44.160155 -14.258368 6.711467 500.000000
-0.260000 0.090000 0.410000 65.731513 49.913839 -54.187718 500.000000
-0.260000 0.260000 0.290000 90.757855 -35.757571 60.992589 500.000000
0.257222 0.260000 0.410000 103.444397 -17.113868 -23.454431 500.000000
-0.260000 0.090000 0.410000 67.959131 45.845890 -54.215002 500.000000
0.260000 0.129472 0.410000 -124.599886 -26.105604 -102.657491 500.000000
-0.260000 0.090000 0.410000 55.190933 73.540167 -27.877471 500.000000
-0.260000 0.090000 0.410000 72.496147 28.097701 -54.640302 500.000000
-0.237907 0.090000 0.410000 -99.581464 57.233986 -55.957274 500.000000
0.260000 0.260000 0.315584 -241.526343 -20.738236 -18.883241 500.000000
-0.068706 0.260000 0.290000 -33.035747 -17.633131 24.733416 500.000000
-0.131552 0.090000 0.290000 -78.310466 129.712527 55.850218 500.000000
-0.003249 0.090000 0.410000 -52.649881 27.423679 -99.015464 500.000000
-0.013335 0.260000 0.410000 49.333022 -74.926447 -12.490424 500.000000
0.188826 0.090000 0.290000 23.350618 34.165704 17.235600 500.000000
-0.260000 0.260000 0.410000 157.536865 -54.574019 -541.992205 500.000000
0.234005 0.260000 0.397943 98.801031 -26.982886 21.588548 500.000000
-0.260000 0.090000 0.410000 74.428281 42.031690 -60.411230 500.000000
-0.260000 0.090000 0.410000 88.522571 55.896092 -82.815956 500.000000
0.200017 0.260000 0.400733 92.003359 -25.884410 22.146622 500.000000
-0.214722 0.260000 0.290000 -94.944326 -35.112793 86.363140 500.000000
-0.001936 0.260000 0.290000 8.629637 -121.259751 56.301453 500.000000
0.165575 0.090000 0.290000 85.114992 66.866563 33.479055 500.000000
0.260000 0.260000 0.292874 -77.505259 -186.655288 -23.425256 500.000000
0.260000 0.260000 0.397768 -54.771794 -28.215603 21.553606 500.000000
0.085295 0.260000 0.290000 69.059086 -17.248685 38.084999 500.000000
-0.007630 0.090000 0.290000 50.474094 87.243441 40.487692 500.000000
-0.260000 0.260000 0.290000 75.958547 -33.340931 14.893531 500.000000
0.260000 0.180199 0.410000 -201.978487 18.039792 -42.421646 500.000000
0.208246 0.260000 0.398355 93.649234 -25.109855 21.670907 500.000000
0.223987 0.090000 0.290000 96.797319 79.471045 86.672848 500.000000
-0.260000 0.090000 0.410000 68.087189 84.380965 -58.253014 500.000000
0.260000 0.090000 0.410000 -160.791399 55.898274 -14.380891 500.000000
0.199736 0.260000 0.400741 91.947174 -25.276277 22.148140 500.000000
0.041475 0.260000 0.290000 -43.705002 -46.638872 54.680187 500.000000
-0.260000 0.260000 0.410000 281.802598 -25.957072 -59.963566 500.000000
-0.260000 0.168381 0.410000 70.478698 15.676215 -61.854743 500.000000
-0.260000 0.090000 0.410000 98.431322 38.544471 -47.725104 500.000000
-0.260000 0.260000 0.410000 502.066129 -32.435348 -19.918287 500.000000
-0.260000 0.090000 0.410000 74.244242 77.075820 -22.389897 500.000000
-0.164971 0.260000 0.290000 -84.994170 -846.041829 86.475200 500.000000
-0.260000 0.260000 0.410000 98.484111 -73.260682 -61.487450 500.000000
0.260000 0.090000 0.410000 -70.799698 67.289128 -17.919154 500.000000
-0.240164 0.090000 0.290000 -100.032761 239.556929 56.701224 500.000000
0.094135 0.090000 0.290000 -33.172915 243.329108 56.652912 500.000000
-0.084059 0.090000 0.290000 -10.342623 28.247166 14.019850 500.000000
0.260000 0.246232 0.290000 -58.376057 31.246303 22.414425 500.000000
-0.187725 0.260000 0.290000 -89.544976 -803.089328 43.018662 500.000000
0.200226 0.260000 0.401047 92.045233 -25.953435 22.209350 500.000000
0.234167 0.090000 0.290000 98.833366 115.016601 87.230453 500.000000
0.121483 0.260000 0.290000 76.296695 -33.593795 46.460867 500.000000
-0.260000 0.260000 0.290000 137.426089 -39.595080 51.401434 500.000000
-0.260000 0.090000 0.410000 67.574681 41.933652 -56.847587 500.000000
0.013872 0.090000 0.290000 -2.177245 29.620842 12.286198 500.000000
-0.260000 0.260000 0.290000 53.250166 -85.462828 44.239119 500.000000
0.145535 0.090000 0.410000 29.341223 79.685181 -16.694312 500.000000
0.260000 0.090000 0.410000 -91.514895 99.684918 -14.196939 500.000000
0.199228 0.090000 0.290000 91.845671 52.075861 74.584099 500.000000
-0.260000 0.260000 0.290000 57.633798 -53.886512 49.871759 500.000000
-0.260000 0.090000 0.410000 65.400204 43.727764 -55.716129 500.000000
-0.260000 0.260000 0.410000 94.167312 -27.463910 -64.106322 500.000000
0.260000 0.260000 0.410000 -60.333548 -357.817551 -14.214685 500.000000
-0.260000 0.260000 0.410000 87.885380 -42.421000 -62.222395 500.000000
-0.260000 0.260000 0.290000 93.819415 -33.352333 81.262413 500.000000
-0.260000 0.090000 0.410000 69.422226 45.169318 -57.231342 500.000000
0.260000 0.090000 0.410000 -107.166659 89.627391 -13.498470 500.000000
-0.260000 0.090000 0.410000 54.097880 135.299090 -47.860358 500.000000
-0.179437 0.090000 0.290000 -87.887459 222.263211 102.512203 500.000000
-0.260000 0.258992 0.410000 127.009500 33.798323 -61.242416 500.000000
-0.260000 0.090000 0.290000 86.204932 47.933270 1024.197934 500.000000
0.260000 0.260000 0.410000 -65.267431 -25.762287 -15.229026 500.000000
-0.171260 0.260000 0.410000 -86.251915 -65.214352 -98.903689 500.000000
0.245902 0.260000 0.400465 101.180474 -25.270337 22.093044 500.000000
-0.171204 0.260000 0.291985 3.224640 -22.733328 -23.603027 500.000000
-0.260000 0.090000 0.410000 76.556513 43.834345 -59.519401 500.000000
0.260000 0.128439 0.410000 -60.288245 -26.312279 -188.246001 500.000000
0.199569 0.260000 0.400285 91.913780 -25.281228 22.057080 500.000000
0.260000 0.260000 0.290863 -18.263129 -25.904053 -23.827372 500.000000
-0.137995 0.090000 0.290000 -46.050431 28.849294 12.312459 500.000000
-0.221297 0.095666 0.410000 -96.259493 -32.866815 -57.120574 500.000000
-0.260000 0.260000 0.290000 121.203171 -35.473564 51.528364 500.000000
0.260000 0.090000 0.290000 -134.678201 55.230200 71.738736 500.000000
-0.182423 0.090000 0.290000 -88.484584 43.994259 32.869391 500.000000
0.234979 0.090000 0.290000 98.995750 73.371220 16.158384 500.000000
-0.260000 0.260000 0.290000 53.391884 -52.342694 24.429192 500.000000
0.258374 0.260000 0.313622 103.674792 -36.005618 -19.275633 500.000000
-0.126322 0.090000 0.290000 -77.264302 221.936099 77.255439 500.000000
-0.163676 0.090000 0.290000 -84.735101 223.434333 68.243541 500.000000
0.260000 0.150598 0.410000 -428.319855 12.119610 -61.505583 500.000000
-0.260000 0.090000 0.290000 114.171312 234.238997 107.439080 500.000000
0.171322 0.260000 0.410000 86.264328 -73.590860 -12.636656 500.000000
0.251881 0.090000 0.290000 102.376237 87.481504 75.964251 500.000000
0.260000 0.260000 0.290000 -103.109820 -55.860642 14.801247 500.000000
-0.260000 0.090000 0.410000 78.971329 62.020087 -55.990372 500.000000
0.209065 0.260000 0.410000 93.812978 -23.372736 -39.439040 500.000000
-0.026258 0.260000 0.290000 -21.009760 -46.371476 18.001224 500.000000
0.260000 0.260000 0.290000 -58.424636 -17.280999 32.280301 500.000000
0.226196 0.260000 0.399036 97.239186 -29.299081 21.807252 500.000000
-0.260000 0.260000 0.290000 60.291363 -37.197829 49.606384 500.000000
0.260000 0.114809 0.410000 -173.627180 -29.038273 -212.009425 500.000000
0.182623 0.260000 0.290000 -15.475470 -39.370316 71.481744 500.000000
-0.260000 0.090000 0.410000 62.418740 42.159272 -55.862675 500.000000
-0.230996 0.090000 0.290000 -98.199152 223.433900 68.887306 500.000000
0.260000 0.260000 0.316317 -158.484354 -20.876999 -18.736626 500.000000
0.260000 0.260000 0.410000 -98.428579 -111.178403 -16.560424 500.000000
-0.137154 0.260000 0.290000 -79.430882 -820.725357 60.351396 500.000000
-0.260000 0.090000 0.290000 57.590477 228.000438 69.777199 500.000000
-0.258238 0.090000 0.290000 -103.647549 239.953212 60.253395 500.000000
-0.260000 0.090000 0.410000 59.438860 51.072745 -14.157618 500.000000
0.260000 0.260000 0.290000 -149.894588 -400.193128 106.335488 500.000000
-0.224868 0.090000 0.290000 -96.973512 227.959748 69.328472 500.000000
-0.260000 0.260000 0.410000 114.912924 -42.975422 -58.149789 500.000000
-0.047966 0.260000 0.410000 42.406786 -72.941389 -12.897374 500.000000
-0.260000 0.090000 0.410000 130.396411 31.627195 -55.749867 500.000000
-0.158212 0.260000 0.290000 -83.642425 -769.406164 67.132232 500.000000
-0.223432 0.090000 0.290000 -96.686484 229.138007 91.548763 500.000000
-0.260000 0.090000 0.410000 125.577904 61.683293 -192.447393 500.000000
0.260000 0.090000 0.290000 -76.241659 83.418377 125.233890 500.000000
-0.260000 0.090000 0.410000 26.319075 64.318670 -26.860667 500.000000
-0.044186 0.193670 0.290378 43.162880 20.734016 -23.924351 500.000000
-0.260000 0.260000 0.410000 95.003699 -121.291912 -60.868383 500.000000
0.260000 0.260000 0.337988 -141.861425 -35.869503 -14.402478 500.000000
-0.260000 0.260000 0.290000 88.930269 -43.510867 58.925900 500.000000
-0.099531 0.090000 0.290000 -71.906205 231.651669 90.323118 500.000000
-0.164507 0.090000 0.290000 -84.901462 227.517733 68.664320 500.000000
-0.260000 0.260000 0.290000 61.828331 -34.019747 72.709274 500.000000
0.260000 0.258306 0.290000 -148.143552 33.661171 24.314043 500.000000
-0.159487 0.260000 0.290000 -83.897428 -21.931115 40.359074 500.000000
0.260000 0.090000 0.410000 -79.434347 68.690020 -12.791899 500.000000
0.260000 0.260000 0.410000 -111.812593 -71.919759 -13.630193 500.000000
0.216727 0.090000 0.290000 95.345462 104.911009 74.749499 500.000000
-0.231775 0.090000 0.290000 -98.355058 242.727156 57.899429 500.000000
0.226302 0.260000 0.290000 97.260374 -33.215280 35.282392 500.000000
-0.260000 0.090000 0.410000 85.779649 29.879337 -252.948506 500.000000
-0.260000 0.090000 0.410000 57.199633 21.473191 -209.091680 500.000000
0.260000 0.260000 0.290000 -118.324617 -17.580254 46.667208 500.000000
-0.260000 0.090000 0.410000 67.385255 24.259295 -68.626914 500.000000
-0.260000 0.260000 0.290000 47.610128 -50.145701 24.714271 500.000000
-0.176338 0.260000 0.290000 -87.267560 -868.917548 72.475596 500.000000
0.260000 0.260000 0.290000 -27.470474 -98.390507 11.888962 500.000000
-0.138476 0.090000 0.290000 -79.695228 222.289166 76.790409 500.000000
-0.260000 0.090000 0.290000 30.985095 27.042578 40.613239 500.000000
0.260000 0.090000 0.290000 -55.795243 67.195831 87.302969 500.000000
-0.260000 0.260000 0.300927 59.988792 -453.010185 -21.814533 500.000000
0.260000 0.090000 0.410000 -65.545489 54.714717 -26.379759 500.000000
0.199666 0.090000 0.290000 91.933134 122.265298 75.741931 500.000000
-0.260000 0.260000 0.290000 354.063465 -81.452017 229.005192 500.000000
0.260000 0.090000 0.410000 -970.806288 46.907016 -35.787941 500.000000
-0.179049 0.090000 0.290000 -87.809755 221.133304 98.930942 500.000000
