ply
format ascii 1.0
element vertex 240
property float x
property float y
property float z
property float vx
property float vy
property float vz
property float density
end_header
0.180566 0.090000 0.410000 88.113209 40.231479 -340.687386 500.000000
0.260000 0.260000 0.290000 -68.059555 -18.895785 33.733376 500.000000
-0.260000 0.260000 0.410000 124.416664 -18.896651 -14.682992 500.000000
0.178796 0.090000 0.290000 87.759297 40.231391 343.639443 500.000000
-0.157682 0.090000 0.410000 -43.285733 17.277703 -6.201773 500.000000
0.260000 0.090000 0.290000 -81.010623 30.311193 33.436352 500.000000
0.260000 0.090000 0.410000 -100.762890 30.311106 -34.618650 500.000000
-0.260000 0.090000 0.290000 42.440163 17.277547 13.387414 500.000000
0.260000 0.175000 0.290000 -66.829622 0.000003 20.786537 500.000000
0.081170 0.175000 0.290000 2.515187 0.000004 24.126781 500.000000
0.009942 0.175000 0.410000 -10.527093 -0.000000 -24.895990 500.000000
0.260000 0.175000 0.410000 -61.131424 0.000000 -22.088405 500.000000
-0.157682 0.260000 0.410000 -43.285733 -17.277703 -6.201773 500.000000
0.260000 0.260000 0.290000 -81.010623 -30.311193 33.436352 500.000000
0.260000 0.260000 0.410000 -100.762890 -30.311106 -34.618650 500.000000
-0.260000 0.260000 0.290000 42.440163 -17.277547 13.387414 500.000000
0.180566 0.260000 0.410000 88.113209 -40.231479 -340.687386 500.000000
0.260000 0.090000 0.290000 -68.059555 18.895785 33.733376 500.000000
-0.260000 0.090000 0.410000 124.416663 18.896651 -14.682992 500.000000
0.178796 0.260000 0.290000 87.759297 -40.231391 343.639443 500.000000
0.073052 0.260000 0.290000 17.967898 -26.993108 41.072758 500.000000
0.260000 0.260000 0.290000 -57.679838 -17.636538 32.435548 500.000000
0.260000 0.260000 0.410000 -84.254511 -17.636520 -33.552136 500.000000
-0.013840 0.260000 0.410000 4.059623 -26.993037 -31.648603 500.000000
-0.224851 0.090000 0.410000 -22.013398 43.041534 -34.195720 500.000000
0.260000 0.090000 0.290000 -56.312140 41.681068 29.901631 500.000000
0.260000 0.090000 0.410000 -76.775322 41.680781 -30.973643 500.000000
-0.260000 0.090000 0.290000 49.431916 43.041430 31.271503 500.000000
0.031042 0.175000 0.290000 30.492706 -0.000001 25.628420 500.000000
0.031473 0.175000 0.290000 58.294586 -0.000001 42.096586 500.000000
0.096630 0.175000 0.410000 71.326011 -0.000003 -42.477763 500.000000
-0.057978 0.175000 0.410000 14.959673 0.000000 -25.118853 500.000000
-0.224851 0.260000 0.410000 -22.013398 -43.041534 -34.195720 500.000000
0.260000 0.260000 0.290000 -56.312140 -41.681068 29.901631 500.000000
0.260000 0.260000 0.410000 -76.775322 -41.680781 -30.973643 500.000000
-0.260000 0.260000 0.290000 49.431916 -43.041430 31.271503 500.000000
0.073052 0.090000 0.290000 17.967898 26.993108 41.072758 500.000000
0.260000 0.090000 0.290000 -57.679838 17.636538 32.435548 500.000000
0.260000 0.090000 0.410000 -84.254511 17.636520 -33.552136 500.000000
-0.013840 0.090000 0.410000 4.059623 26.993037 -31.648603 500.000000
-0.129198 0.260000 0.290000 9.444835 -38.796782 42.010072 500.000000
-0.129002 0.260000 0.410000 -21.594460 -49.209399 -44.754532 500.000000
-0.260000 0.260000 0.290000 45.864226 -49.209335 32.706339 500.000000
0.106591 0.260000 0.410000 56.649160 -38.796656 -28.049159 500.000000
0.260000 0.090000 0.290000 -56.237489 42.883753 45.565616 500.000000
0.260000 0.090000 0.410000 -42.229391 29.580857 -31.451468 500.000000
0.172827 0.090000 0.290000 5.386284 29.580920 3.237076 500.000000
0.260000 0.090000 0.410000 -45.794669 42.883637 -42.213383 500.000000
-0.019375 0.175000 0.290000 -55.875015 -0.000014 39.696172 500.000000
-0.057986 0.175000 0.410000 -12.433655 -0.000001 -11.368282 500.000000
0.260000 0.175000 0.290000 -62.768686 -0.000001 13.044351 500.000000
-0.083053 0.175000 0.410000 -68.610500 -0.000000 -40.000963 500.000000
0.260000 0.260000 0.290000 -56.237489 -42.883753 45.565616 500.000000
0.260000 0.260000 0.410000 -42.229391 -29.580857 -31.451468 500.000000
0.172827 0.260000 0.290000 5.386284 -29.580920 3.237076 500.000000
0.260000 0.260000 0.410000 -45.794669 -42.883637 -42.213383 500.000000
-0.129198 0.090000 0.290000 9.444834 38.796782 42.010072 500.000000
-0.129002 0.090000 0.410000 -21.594460 49.209399 -44.754532 500.000000
-0.260000 0.090000 0.290000 45.864226 49.209335 32.706339 500.000000
0.106591 0.090000 0.410000 56.649161 38.796656 -28.049158 500.000000
0.260000 0.260000 0.290000 -53.451609 -36.236366 30.319040 500.000000
0.260000 0.260000 0.290000 -63.447655 -27.758005 31.465192 500.000000
0.260000 0.260000 0.410000 -83.886116 -27.757813 -32.632535 500.000000
0.260000 0.260000 0.410000 -74.037408 -36.236241 -31.501365 500.000000
0.260000 0.260000 0.290000 -65.859489 -124.177847 51.753680 500.000000
-0.140926 0.090000 0.290000 -80.185108 28.765553 31.433922 500.000000
-0.260000 0.090000 0.410000 60.352621 28.765476 -32.616239 500.000000
0.260000 0.260000 0.410000 -86.248029 -124.175709 -52.297721 500.000000
0.047788 0.175001 0.410000 -42.442387 0.000240 -42.911603 500.000000
0.176113 0.175000 0.410000 87.222610 -0.000010 -101.685484 500.000000
0.211448 0.175000 0.290000 94.289664 0.000007 107.393254 500.000000
0.064441 0.174999 0.290000 -39.111852 -0.000181 41.615418 500.000000
0.260000 0.090000 0.290000 -65.859488 124.177847 51.753680 500.000000
-0.140926 0.260000 0.290000 -80.185108 -28.765553 31.433922 500.000000
-0.260000 0.260000 0.410000 60.352621 -28.765476 -32.616239 500.000000
0.260000 0.090000 0.410000 -86.248029 124.175709 -52.297721 500.000000
0.260000 0.090000 0.290000 -53.451609 36.236366 30.319040 500.000000
0.260000 0.090000 0.290000 -63.447655 27.758005 31.465192 500.000000
0.260000 0.090000 0.410000 -83.886116 27.757813 -32.632535 500.000000
0.260000 0.090000 0.410000 -74.037408 36.236241 -31.501365 500.000000
-0.260000 0.178271 0.290000 62.563902 17.654266 30.319025 500.000000
0.224771 0.188560 0.290000 96.954258 19.712040 32.254119 500.000000
0.260000 0.188561 0.410000 -70.044358 19.712143 -33.436429 500.000000
-0.260000 0.178272 0.410000 83.505051 17.654387 -31.501339 500.000000
0.230607 0.146445 0.290000 98.121397 -22.711029 29.985960 500.000000
0.260000 0.155970 0.290000 -410.835867 -20.805988 22.330418 500.000000
0.260000 0.155965 0.410000 -531.872267 -20.807092 -31.396165 500.000000
0.260000 0.146444 0.410000 -110.401674 -22.711111 -30.529681 500.000000
0.072728 0.175000 0.290000 66.545533 -0.000101 65.541954 500.000000
-0.088023 0.175000 0.290000 34.395358 -0.000030 50.153381 500.000000
-0.010281 0.175000 0.410000 49.943822 0.000057 -50.745065 500.000000
0.133408 0.175001 0.410000 78.681599 0.000227 -65.501150 500.000000
0.230607 0.203555 0.290000 98.121398 22.711029 29.985960 500.000000
0.260000 0.194030 0.290000 -410.835868 20.805988 22.330418 500.000000
0.260000 0.194035 0.410000 -531.872266 20.807092 -31.396165 500.000000
0.260000 0.203556 0.410000 -110.401674 22.711111 -30.529681 500.000000
-0.260000 0.171729 0.290000 62.563902 -17.654266 30.319025 500.000000
0.224771 0.161440 0.290000 96.954258 -19.712040 32.254119 500.000000
0.260000 0.161439 0.410000 -70.044358 -19.712143 -33.436429 500.000000
-0.260000 0.171728 0.410000 83.505051 -17.654387 -31.501339 500.000000
-0.260000 0.260000 0.290000 62.274407 -37.383942 30.043974 500.000000
0.260000 0.260000 0.290000 -58.768044 -38.436503 35.865002 500.000000
0.260000 0.260000 0.410000 -71.859592 -38.436400 -24.805413 500.000000
-0.260000 0.260000 0.410000 82.672706 -37.383684 -31.227989 500.000000
0.260000 0.090000 0.290000 -89.610989 29.719688 43.436010 500.000000
-0.260000 0.090000 0.290000 80.795852 28.764988 31.172482 500.000000
-0.260000 0.090000 0.410000 98.740160 28.764920 -32.356946 500.000000
0.260000 0.090000 0.410000 -112.554340 29.719595 -43.931048 500.000000
0.055824 0.174997 0.290000 -40.835267 -0.000742 43.705416 500.000000
0.260000 0.175000 0.290000 -14.849772 0.000002 21.726257 500.000000
0.260000 0.175000 0.410000 -55.251950 -0.000055 -24.486540 500.000000
0.000392 0.175006 0.410000 -51.921570 0.001398 -43.664654 500.000000
0.260000 0.260000 0.290000 -89.610989 -29.719688 43.436010 500.000000
-0.260000 0.260000 0.290000 80.795852 -28.764988 31.172482 500.000000
-0.260000 0.260000 0.410000 98.740160 -28.764920 -32.356946 500.000000
0.260000 0.260000 0.410000 -112.554340 -29.719595 -43.931048 500.000000
-0.260000 0.090000 0.290000 62.274407 37.383942 30.043974 500.000000
0.260000 0.090000 0.290000 -58.768044 38.436503 35.865002 500.000000
0.260000 0.090000 0.410000 -71.859592 38.436400 -24.805413 500.000000
-0.260000 0.090000 0.410000 82.672706 37.383684 -31.227989 500.000000
0.260000 0.260000 0.290000 -62.274407 -37.383942 30.043974 500.000000
-0.260000 0.260000 0.290000 58.768044 -38.436503 35.865002 500.000000
-0.260000 0.260000 0.410000 71.859592 -38.436400 -24.805413 500.000000
0.260000 0.260000 0.410000 -82.672706 -37.383684 -31.227989 500.000000
-0.260000 0.090000 0.290000 89.610989 29.719688 43.436010 500.000000
0.260000 0.090000 0.290000 -80.795851 28.764988 31.172482 500.000000
0.260000 0.090000 0.410000 -98.740161 28.764920 -32.356946 500.000000
-0.260000 0.090000 0.410000 112.554339 29.719595 -43.931048 500.000000
-0.055824 0.175001 0.290000 40.835267 0.000135 43.705416 500.000000
-0.260000 0.175000 0.290000 14.849772 -0.000000 21.726257 500.000000
-0.260000 0.175000 0.410000 55.251949 0.000012 -24.486540 500.000000
-0.000392 0.174999 0.410000 51.921570 -0.000308 -43.664654 500.000000
-0.260000 0.260000 0.290000 89.610989 -29.719688 43.436010 500.000000
0.260000 0.260000 0.290000 -80.795852 -28.764988 31.172482 500.000000
0.260000 0.260000 0.410000 -98.740161 -28.764920 -32.356946 500.000000
-0.260000 0.260000 0.410000 112.554339 -29.719595 -43.931048 500.000000
0.260000 0.090000 0.290000 -62.274407 37.383942 30.043974 500.000000
-0.260000 0.090000 0.290000 58.768044 38.436503 35.865002 500.000000
-0.260000 0.090000 0.410000 71.859592 38.436400 -24.805413 500.000000
0.260000 0.090000 0.410000 -82.672706 37.383684 -31.227989 500.000000
0.260000 0.178271 0.290000 -62.563902 17.654266 30.319025 500.000000
-0.224771 0.188560 0.290000 -96.954259 19.712040 32.254119 500.000000
-0.260000 0.188561 0.410000 70.044358 19.712143 -33.436429 500.000000
0.260000 0.178272 0.410000 -83.505052 17.654387 -31.501339 500.000000
-0.230607 0.146445 0.290000 -98.121398 -22.711029 29.985960 500.000000
-0.260000 0.155970 0.290000 410.835862 -20.805988 22.330418 500.000000
-0.260000 0.155965 0.410000 531.872284 -20.807092 -31.396165 500.000000
-0.260000 0.146444 0.410000 110.401674 -22.711111 -30.529681 500.000000
-0.072728 0.175002 0.290000 -66.545533 0.000519 65.541954 500.000000
0.088023 0.175001 0.290000 -34.395358 0.000142 50.153381 500.000000
0.010281 0.174999 0.410000 -49.943822 -0.000275 -50.745065 500.000000
-0.133408 0.174995 0.410000 -78.681599 -0.001061 -65.501150 500.000000
-0.230607 0.203555 0.290000 -98.121398 22.711029 29.985960 500.000000
-0.260000 0.194030 0.290000 410.835863 20.805988 22.330418 500.000000
-0.260000 0.194035 0.410000 531.872283 20.807092 -31.396165 500.000000
-0.260000 0.203556 0.410000 110.401674 22.711111 -30.529681 500.000000
0.260000 0.171729 0.290000 -62.563902 -17.654266 30.319025 500.000000
-0.224771 0.161440 0.290000 -96.954259 -19.712040 32.254119 500.000000
-0.260000 0.161439 0.410000 70.044358 -19.712143 -33.436429 500.000000
0.260000 0.171728 0.410000 -83.505052 -17.654387 -31.501339 500.000000
-0.260000 0.260000 0.290000 53.451610 -36.236366 30.319040 500.000000
-0.260000 0.260000 0.290000 63.447655 -27.758005 31.465192 500.000000
-0.260000 0.260000 0.410000 83.886115 -27.757813 -32.632535 500.000000
-0.260000 0.260000 0.410000 74.037407 -36.236241 -31.501365 500.000000
-0.260000 0.260000 0.290000 65.859489 -124.177847 51.753680 500.000000
0.140926 0.090000 0.290000 80.185108 28.765553 31.433922 500.000000
0.260000 0.090000 0.410000 -60.352621 28.765476 -32.616239 500.000000
-0.260000 0.260000 0.410000 86.248028 -124.175709 -52.297721 500.000000
-0.047788 0.175002 0.410000 42.442387 0.000313 -42.911603 500.000000
-0.176113 0.175000 0.410000 -87.222610 0.000072 -101.685484 500.000000
-0.211448 0.175000 0.290000 -94.289664 -0.000038 107.393254 500.000000
-0.064441 0.174999 0.290000 39.111852 -0.000296 41.615418 500.000000
-0.260000 0.090000 0.290000 65.859489 124.177847 51.753680 500.000000
0.140926 0.260000 0.290000 80.185108 -28.765553 31.433922 500.000000
0.260000 0.260000 0.410000 -60.352621 -28.765476 -32.616239 500.000000
-0.260000 0.090000 0.410000 86.248028 124.175709 -52.297721 500.000000
-0.260000 0.090000 0.290000 53.451610 36.236366 30.319040 500.000000
-0.260000 0.090000 0.290000 63.447655 27.758005 31.465192 500.000000
-0.260000 0.090000 0.410000 83.886115 27.757813 -32.632535 500.000000
-0.260000 0.090000 0.410000 74.037408 36.236241 -31.501365 500.000000
0.129198 0.260000 0.290000 -9.444843 -38.796782 42.010074 500.000000
0.129002 0.260000 0.410000 21.594459 -49.209399 -44.754532 500.000000
0.260000 0.260000 0.290000 -45.864226 -49.209335 32.706339 500.000000
-0.106591 0.260000 0.410000 -56.649153 -38.796656 -28.049159 500.000000
-0.260000 0.090000 0.290000 56.237489 42.883753 45.565616 500.000000
-0.260000 0.090000 0.410000 42.229391 29.580857 -31.451468 500.000000
-0.172827 0.090000 0.290000 -5.386281 29.580920 3.237078 500.000000
-0.260000 0.090000 0.410000 45.794669 42.883637 -42.213382 500.000000
0.019375 0.175000 0.290000 55.875015 -0.000000 39.696172 500.000000
0.057986 0.175000 0.410000 12.433655 0.000001 -11.368282 500.000000
-0.260000 0.175000 0.290000 62.768686 0.000001 13.044351 500.000000
0.083053 0.175000 0.410000 68.610500 -0.000002 -40.000963 500.000000
-0.260000 0.260000 0.290000 56.237489 -42.883753 45.565616 500.000000
-0.260000 0.260000 0.410000 42.229391 -29.580857 -31.451468 500.000000
-0.172827 0.260000 0.290000 -5.386280 -29.580920 3.237078 500.000000
-0.260000 0.260000 0.410000 45.794669 -42.883637 -42.213382 500.000000
0.129198 0.090000 0.290000 -9.444842 38.796782 42.010074 500.000000
0.129002 0.090000 0.410000 21.594459 49.209399 -44.754532 500.000000
0.260000 0.090000 0.290000 -45.864226 49.209335 32.706339 500.000000
-0.106591 0.090000 0.410000 -56.649154 38.796656 -28.049159 500.000000
-0.073052 0.260000 0.290000 -17.967898 -26.993108 41.072758 500.000000
-0.260000 0.260000 0.290000 57.679839 -17.636538 32.435548 500.000000
-0.260000 0.260000 0.410000 84.254510 -17.636520 -33.552136 500.000000
0.013840 0.260000 0.410000 -4.059624 -26.993037 -31.648603 500.000000
0.224851 0.090000 0.410000 22.013398 43.041534 -34.195720 500.000000
-0.260000 0.090000 0.290000 56.312140 41.681068 29.901631 500.000000
-0.260000 0.090000 0.410000 76.775322 41.680781 -30.973643 500.000000
0.260000 0.090000 0.290000 -49.431915 43.041430 31.271503 500.000000
-0.031042 0.175000 0.290000 -30.492706 -0.000002 25.628420 500.000000
-0.031473 0.175000 0.290000 -58.294587 -0.000015 42.096586 500.000000
-0.096630 0.175000 0.410000 -71.326011 -0.000001 -42.477763 500.000000
0.057978 0.175000 0.410000 -14.959673 0.000003 -25.118853 500.000000
0.224851 0.260000 0.410000 22.013398 -43.041534 -34.195720 500.000000
-0.260000 0.260000 0.290000 56.312140 -41.681068 29.901631 500.000000
-0.260000 0.260000 0.410000 76.775322 -41.680781 -30.973643 500.000000
0.260000 0.260000 0.290000 -49.431915 -43.041430 31.271503 500.000000
-0.073052 0.090000 0.290000 -17.967898 26.993108 41.072758 500.000000
-0.260000 0.090000 0.290000 57.679838 17.636538 32.435548 500.000000
-0.260000 0.090000 0.410000 84.254510 17.636520 -33.552136 500.000000
0.013840 0.090000 0.410000 -4.059623 26.993037 -31.648603 500.000000
-0.180566 0.090000 0.410000 -88.113209 40.231479 -340.687387 500.000000
-0.260000 0.260000 0.290000 68.059556 -18.895785 33.733376 500.000000
0.260000 0.260000 0.410000 -124.416674 -18.896651 -14.682992 500.000000
-0.178796 0.090000 0.290000 -87.759300 40.231391 343.639443 500.000000
0.157682 0.090000 0.410000 43.285733 17.277703 -6.201773 500.000000
-0.260000 0.090000 0.290000 81.010623 30.311193 33.436352 500.000000
-0.260000 0.090000 0.410000 100.762890 30.311106 -34.618650 500.000000
0.260000 0.090000 0.290000 -42.440164 17.277547 13.387414 500.000000
-0.260000 0.175000 0.290000 66.829622 0.000007 20.786537 500.000000
-0.081170 0.175000 0.290000 -2.515187 -0.000004 24.126781 500.000000
-0.009942 0.175000 0.410000 10.527093 -0.000012 -24.895990 500.000000
-0.260000 0.175000 0.410000 61.131424 0.000012 -22.088405 500.000000
0.157682 0.260000 0.410000 43.285733 -17.277703 -6.201773 500.000000
-0.260000 0.260000 0.290000 81.010623 -30.311193 33.436352 500.000000
-0.260000 0.260000 0.410000 100.762889 -30.311106 -34.618650 500.000000
0.260000 0.260000 0.290000 -42.440164 -17.277547 13.387414 500.000000
-0.180566 0.260000 0.410000 -88.113209 -40.231479 -340.687387 500.000000
-0.260000 0.090000 0.290000 68.059556 18.895785 33.733376 500.000000
0.260000 0.090000 0.410000 -124.416676 18.896651 -14.682992 500.000000
-0.178796 0.260000 0.290000 -87.759300 -40.231391 343.639443 500.000000
