ply
format ascii 1.0
element vertex 240
property float x
property float y
property float z
property float vx
property float vy
property float vz
property float density
end_header
-0.007899 0.260000 0.290000 -53.579861 -24.595832 17.196461 500.000000
-0.252416 0.090000 0.290000 -102.483290 122.054902 14.891535 500.000000
0.260000 0.260000 0.410000 -54.149318 -16.704062 -43.880498 500.000000
0.260000 0.260000 0.410000 -58.836062 -133.352885 -73.347520 500.000000
-0.260000 0.260000 0.290000 185.974052 -26.521879 18.728483 500.000000
0.260000 0.090000 0.290000 -26.516578 92.591719 33.155885 500.000000
0.260000 0.260000 0.290000 -47.446666 -106.758569 26.427984 500.000000
0.076165 0.260000 0.410000 67.232945 -83.590260 -119.258138 500.000000
0.260000 0.090000 0.410000 -67.199917 21.069177 -52.472508 500.000000
0.260000 0.260000 0.290000 -155.957965 -58.826853 58.364201 500.000000
-0.260000 0.260000 0.410000 53.686354 -63.156382 -107.229642 500.000000
-0.260000 0.260000 0.410000 54.855281 -56.358897 -106.915232 500.000000
0.135431 0.169126 0.290000 -6.090484 -18.174843 22.139470 500.000000
-0.224027 0.090000 0.290000 -57.236140 19.558855 51.381240 500.000000
-0.260000 0.122564 0.410000 183.686479 -27.487108 -73.131189 500.000000
-0.037935 0.260000 0.290000 -59.587033 -104.659531 182.261216 500.000000
-0.260000 0.260000 0.410000 120.572835 -111.983152 -106.831672 500.000000
0.260000 0.260000 0.290000 -156.228443 -57.421770 58.438866 500.000000
0.260000 0.090000 0.410000 -74.663752 91.713364 -53.711056 500.000000
-0.260000 0.260000 0.410000 58.904953 -56.098737 -107.211282 500.000000
-0.239918 0.260000 0.290000 -35.816519 -116.164561 45.471068 500.000000
-0.260000 0.260000 0.290000 114.257524 -27.752340 19.419958 500.000000
0.191521 0.090000 0.290000 90.304151 29.650786 74.196505 500.000000
-0.260000 0.260000 0.290000 64.801517 -18.231248 28.234856 500.000000
0.051395 0.090000 0.290000 62.279020 28.033386 73.273768 500.000000
-0.045336 0.148520 0.290000 -61.067221 -22.296072 405.340004 500.000000
-0.260000 0.260000 0.290000 58.608542 -89.506727 35.387025 500.000000
-0.223313 0.260000 0.368394 -28.311916 -14.703349 15.678773 500.000000
0.260000 0.260000 0.290000 -61.311747 -45.279523 436.577574 500.000000
-0.260000 0.260000 0.290000 145.560654 -21.024200 17.288773 500.000000
-0.007452 0.090000 0.410000 50.509545 29.226729 -771.617754 500.000000
0.260000 0.090000 0.290000 -70.921882 133.355383 29.525912 500.000000
-0.100981 0.090000 0.290000 -72.196239 241.809635 14.149567 500.000000
0.143141 0.260000 0.290000 80.628295 -146.206735 60.730806 500.000000
0.060175 0.260000 0.410000 64.035067 -135.145330 -60.981814 500.000000
-0.260000 0.260000 0.410000 73.843026 -121.933772 -121.290632 500.000000
0.260000 0.090000 0.410000 -135.002951 83.156316 -92.264173 500.000000
0.260000 0.260000 0.290000 -92.694920 -440.827536 27.350458 500.000000
0.260000 0.090000 0.410000 -109.401780 25.125612 -51.371580 500.000000
0.260000 0.260000 0.290000 -160.631906 -65.356693 57.377643 500.000000
-0.260000 0.122436 0.410000 79.983680 -27.512757 -73.161613 500.000000
0.260000 0.260000 0.290000 -149.399260 -59.131160 58.025687 500.000000
-0.260000 0.097566 0.410000 82.428665 -32.486820 -79.155694 500.000000
-0.260000 0.260000 0.290000 88.291330 -27.197375 20.457495 500.000000
0.260000 0.090000 0.410000 -85.595684 34.138137 -100.312304 500.000000
-0.140733 0.090000 0.290000 -80.146512 22.770443 15.101329 500.000000
0.018461 0.090000 0.290000 55.692178 27.182179 73.210214 500.000000
0.194880 0.090000 0.290000 45.975048 30.445404 15.468693 500.000000
-0.194999 0.090000 0.290000 -90.999755 102.192255 15.086191 500.000000
-0.260000 0.260000 0.290000 130.623163 -24.672483 12.660088 500.000000
-0.090932 0.260000 0.290000 33.813544 -250.877382 102.692211 500.000000
0.260000 0.090000 0.410000 -132.534386 85.254596 -53.358427 500.000000
0.260000 0.090000 0.410000 -100.027356 62.677959 -61.268318 500.000000
0.084559 0.260000 0.410000 68.911805 -133.300427 -74.016730 500.000000
0.113788 0.090000 0.290000 74.757528 29.820101 74.205184 500.000000
0.260000 0.090000 0.290000 -51.792296 165.071395 22.904496 500.000000
0.260000 0.260000 0.290000 -160.572737 -50.107099 71.923972 500.000000
-0.260000 0.260000 0.290000 118.502844 -78.096136 25.480182 500.000000
0.040520 0.090000 0.290000 60.104078 104.286088 94.407436 500.000000
-0.260000 0.090000 0.290000 37.290115 24.918982 32.392647 500.000000
-0.031440 0.090000 0.410000 -58.288076 19.731226 -74.806367 500.000000
-0.260000 0.090000 0.410000 58.532995 24.350305 -79.549073 500.000000
0.083696 0.090000 0.290000 -35.260872 218.663048 16.744538 500.000000
-0.216713 0.090000 0.410000 -95.342533 69.155701 -72.471996 500.000000
-0.077831 0.090000 0.410000 -67.566110 82.247645 -223.840826 500.000000
-0.204886 0.090000 0.290000 -92.977195 143.649365 1141.709789 500.000000
0.167168 0.260000 0.410000 85.433512 -135.423246 -73.438105 500.000000
0.260000 0.260000 0.290000 -50.172963 -67.407949 12.597470 500.000000
0.260000 0.260000 0.290000 -85.418473 -57.038195 28.835005 500.000000
-0.260000 0.260000 0.410000 65.403625 -74.637558 -104.740191 500.000000
-0.066233 0.260000 0.290000 -65.246681 -218.214647 17.294861 500.000000
-0.159668 0.260000 0.290000 -83.933607 -112.543945 692.632183 500.000000
0.151150 0.090000 0.290000 82.229998 29.202148 74.186284 500.000000
0.260000 0.260000 0.410000 -81.098869 -132.362617 -73.984364 500.000000
0.021295 0.260000 0.410000 -47.740941 -172.406701 -27.958231 500.000000
0.260000 0.090000 0.410000 -115.108574 23.675679 -51.372103 500.000000
-0.260000 0.122406 0.410000 58.766625 -27.518846 -73.219236 500.000000
-0.056944 0.105273 0.410000 -63.388756 -30.945392 -208.374588 500.000000
-0.260000 0.122422 0.410000 145.241065 -27.515594 -73.224190 500.000000
-0.086102 0.090000 0.290000 -69.220333 218.028169 50.631737 500.000000
-0.034681 0.260000 0.290000 -58.936256 -235.333975 22.410488 500.000000
-0.101220 0.260000 0.410000 -72.243935 -111.610547 -104.814243 500.000000
-0.160278 0.260000 0.410000 -84.055631 -54.474715 -137.990520 500.000000
0.260000 0.260000 0.410000 -56.757802 -90.871567 -75.118256 500.000000
0.260000 0.260000 0.290000 -139.407104 -60.032731 51.218746 500.000000
0.260000 0.260000 0.410000 -99.412070 -81.719676 -61.022297 500.000000
-0.260000 0.090000 0.290000 63.039985 277.235458 36.648776 500.000000
-0.060488 0.090000 0.410000 -24.413931 22.801486 -40.796783 500.000000
0.260000 0.090000 0.410000 -86.629150 174.772706 -52.908109 500.000000
-0.260000 0.260000 0.290000 68.636789 -261.103333 16.399774 500.000000
-0.260000 0.260000 0.318773 70.413538 -22.652021 -18.245471 500.000000
0.260000 0.260000 0.410000 -63.191883 -133.438558 -73.460865 500.000000
0.023132 0.090000 0.290000 56.626371 29.792377 74.351904 500.000000
0.260000 0.260000 0.290000 -68.442963 -46.661978 30.022638 500.000000
-0.260000 0.260000 0.290000 61.536574 -28.106632 21.191243 500.000000
-0.019990 0.090000 0.294855 -55.998020 8.712007 -6.769949 500.000000
0.260000 0.260000 0.290000 -144.444591 -49.774469 49.143163 500.000000
0.260000 0.260000 0.290000 -124.696850 -46.009801 23.830294 500.000000
0.260000 0.090000 0.410000 -100.699419 28.310962 -54.886180 500.000000
0.260000 0.260000 0.290000 -101.234776 -132.949717 22.684848 500.000000
-0.006673 0.260000 0.290000 50.665301 -30.804123 228.317105 500.000000
-0.260000 0.090000 0.410000 60.295181 97.260611 -75.249445 500.000000
0.260000 0.090000 0.290000 -95.816193 28.383694 83.185981 500.000000
0.260000 0.260000 0.410000 -52.807611 -55.991743 -255.181319 500.000000
-0.194934 0.090000 0.410000 -90.986841 50.032344 -77.285134 500.000000
0.260000 0.090000 0.410000 -77.990480 20.380149 -51.534361 500.000000
-0.260000 0.124094 0.410000 53.817721 -27.181205 -81.959763 500.000000
-0.260000 0.260000 0.410000 52.690914 -57.564435 -106.912818 500.000000
-0.043223 0.260000 0.290000 -60.644621 -191.086056 23.955790 500.000000
-0.260000 0.090000 0.410000 56.770120 144.085411 -59.592490 500.000000
0.260000 0.129670 0.410000 -45.677426 -26.065974 -36.969101 500.000000
0.260000 0.090000 0.410000 -78.941255 209.598150 -52.628248 500.000000
0.260000 0.090000 0.410000 -302.441134 27.990002 -57.533048 500.000000
0.260000 0.260000 0.410000 -67.987780 -57.015292 -216.946992 500.000000
0.260000 0.090000 0.410000 -76.468514 53.430446 -52.769170 500.000000
0.260000 0.090000 0.410000 -104.075567 23.659624 -51.315075 500.000000
-0.260000 0.260000 0.290000 189.073652 -20.232882 15.594183 500.000000
0.260000 0.090000 0.410000 -103.298465 190.398580 -53.610691 500.000000
0.260000 0.090000 0.410000 -134.144411 23.682201 -51.394923 500.000000
-0.260000 0.260000 0.410000 98.001042 -116.365553 -208.086514 500.000000
0.106734 0.090000 0.290000 73.346877 196.764920 802.202278 500.000000
-0.196570 0.090000 0.410000 -91.314061 69.440398 -72.582818 500.000000
-0.260000 0.260000 0.290000 66.612287 -376.842957 15.316242 500.000000
-0.260000 0.090000 0.290000 120.685459 150.895392 41.009480 500.000000
0.239302 0.260000 0.410000 59.646440 -31.311931 -84.567580 500.000000
-0.260000 0.260000 0.290000 115.779753 -86.347166 28.587460 500.000000
-0.260000 0.260000 0.290000 239.390458 -60.186067 33.031826 500.000000
0.260000 0.090000 0.410000 -91.508207 24.902617 -52.974402 500.000000
-0.260000 0.260000 0.290000 133.414518 -32.332151 32.719333 500.000000
0.253840 0.260000 0.393137 27.856046 -27.630885 20.627312 500.000000
-0.138555 0.260000 0.290000 24.289022 -44.058168 89.523035 500.000000
-0.260000 0.260000 0.293510 614.102858 -144.011680 -23.297932 500.000000
0.260000 0.090000 0.290000 -81.204908 186.094623 23.776914 500.000000
-0.260000 0.123511 0.410000 164.262547 -27.297748 -75.189996 500.000000
0.260000 0.090000 0.410000 -92.951886 201.719807 -52.894138 500.000000
-0.260000 0.122311 0.410000 132.065821 -27.537715 -79.905780 500.000000
-0.260000 0.260000 0.290000 58.600864 -110.314910 654.982978 500.000000
0.260000 0.260000 0.290000 -72.825062 -76.673211 27.045436 500.000000
0.260000 0.090000 0.410000 -97.999631 28.374761 -54.668250 500.000000
-0.260000 0.260000 0.290000 124.799484 -32.821329 35.808499 500.000000
0.195295 0.090000 0.290000 91.059023 29.486273 74.722699 500.000000
0.241276 0.090000 0.290000 100.255275 29.184789 74.173829 500.000000
0.260000 0.090000 0.410000 -152.774406 23.693930 -51.418864 500.000000
-0.180324 0.260000 0.410000 -88.064851 -42.674503 -77.088437 500.000000
0.260000 0.090000 0.410000 -167.251310 23.726363 -51.513833 500.000000
-0.010214 0.260000 0.410000 49.957134 -86.802595 -66.575248 500.000000
-0.260000 0.260000 0.306455 102.715742 -24.662032 -20.708989 500.000000
-0.260000 0.090000 0.410000 55.220864 66.996904 -73.663270 500.000000
-0.062580 0.090000 0.393734 -8.307716 24.548963 20.746800 500.000000
-0.119703 0.122490 0.410000 -75.940620 -27.501965 -73.247928 500.000000
0.260000 0.090000 0.290000 -193.928273 18.575503 128.770605 500.000000
0.019295 0.090000 0.345484 -19.558942 31.275363 2.254790 500.000000
-0.260000 0.260000 0.290000 109.389724 -22.679798 12.558657 500.000000
0.260000 0.090000 0.410000 -91.399999 22.274840 -189.840329 500.000000
0.260000 0.090000 0.410000 -76.532649 80.702512 -53.743420 500.000000
0.260000 0.090000 0.410000 -75.245178 97.267428 -56.946215 500.000000
0.260000 0.260000 0.410000 -273.304967 -47.100978 -17.957604 500.000000
-0.260000 0.260000 0.290000 61.371828 -297.433827 15.176210 500.000000
-0.260000 0.090000 0.290000 45.428639 55.094407 34.226778 500.000000
0.017807 0.090000 0.290000 55.561349 49.578810 75.086925 500.000000
0.260000 0.244772 0.324720 -17.455660 10.315534 6.943973 500.000000
-0.169344 0.260000 0.410000 -85.868818 -110.515853 -101.961938 500.000000
-0.078927 0.090000 0.290000 -67.785440 229.550061 13.123891 500.000000
-0.142608 0.090000 0.290000 -80.521577 217.560779 36.345221 500.000000
-0.147161 0.260000 0.290000 -81.432179 -261.346580 28.757526 500.000000
0.190274 0.242678 0.290000 37.464833 30.535529 10.346027 500.000000
0.137151 0.260000 0.410000 79.430228 -134.878198 -73.083110 500.000000
0.260000 0.090000 0.410000 -83.198211 20.686147 -248.762074 500.000000
0.021844 0.090000 0.290000 56.368754 33.725225 82.774755 500.000000
-0.260000 0.157559 0.410000 201.791918 -20.488149 -73.517230 500.000000
0.260000 0.260000 0.410000 -105.108920 -43.463938 -12.209121 500.000000
-0.260000 0.260000 0.410000 86.282292 -56.163585 -102.820686 500.000000
-0.260000 0.090000 0.410000 449.270050 52.478693 -66.220449 500.000000
0.013776 0.090000 0.290000 54.755181 35.255131 85.404482 500.000000
0.260000 0.090000 0.290000 -48.819607 46.005548 36.514912 500.000000
0.260000 0.260000 0.290000 -151.708274 -70.266951 50.812991 500.000000
-0.260000 0.090000 0.410000 1299.668645 21.224089 -33.865895 500.000000
-0.136022 0.090000 0.290000 -48.361637 36.198513 15.414981 500.000000
0.260000 0.090000 0.290000 -28.328055 19.633709 23.762024 500.000000
-0.127719 0.090000 0.290000 -77.543848 217.678503 15.289140 500.000000
0.187438 0.260000 0.410000 89.487566 -132.701145 -62.605201 500.000000
0.260000 0.090000 0.290000 -365.780899 19.925457 24.889016 500.000000
0.260000 0.090000 0.290000 -116.207591 174.660153 74.940732 500.000000
0.260000 0.260000 0.410000 -106.522858 -58.791546 -272.971684 500.000000
0.260000 0.090000 0.410000 -102.276434 28.178866 -51.077962 500.000000
-0.260000 0.260000 0.410000 81.754342 -112.444074 -131.251008 500.000000
0.260000 0.090000 0.410000 -52.390090 72.310995 -146.442150 500.000000
-0.151368 0.151866 0.410000 -82.273661 -21.626846 -85.944482 500.000000
-0.052587 0.090000 0.290000 -62.517443 236.027118 40.642357 500.000000
-0.260000 0.090000 0.410000 256.004731 87.742633 -62.681357 500.000000
0.260000 0.260000 0.290000 -154.726573 -57.381010 58.254095 500.000000
-0.260000 0.090000 0.293358 115.926329 240.120325 -23.328463 500.000000
0.260000 0.090000 0.290000 -86.136052 26.385668 77.244286 500.000000
0.260000 0.090000 0.410000 -71.682187 21.713414 -70.449752 500.000000
0.260000 0.090000 0.410000 -76.218056 84.836137 -53.879771 500.000000
-0.260000 0.122507 0.410000 123.463548 -27.498598 -73.356175 500.000000
0.260000 0.260000 0.290000 -80.288622 -71.887108 24.002803 500.000000
-0.164775 0.260000 0.290000 19.044956 -61.598866 33.412851 500.000000
0.120315 0.090000 0.410000 76.063088 581.421706 -56.196046 500.000000
0.197487 0.260000 0.290000 -12.502675 -24.673252 14.994672 500.000000
0.063595 0.090000 0.290000 64.718940 30.284304 74.057551 500.000000
0.079677 0.152535 0.410000 5.342212 -21.492936 -18.729046 500.000000
-0.260000 0.122315 0.410000 101.663619 -27.537074 -73.157156 500.000000
0.029905 0.260000 0.290000 57.980931 -60.254893 233.544481 500.000000
0.260000 0.090000 0.410000 -124.609056 30.248483 -57.224675 500.000000
-0.057704 0.090000 0.410000 -63.540738 43.398062 -242.444166 500.000000
-0.049686 0.090000 0.290000 -61.937167 281.548000 12.808984 500.000000
0.025825 0.090000 0.290000 57.164941 51.463362 74.611400 500.000000
-0.260000 0.260000 0.410000 57.650569 -57.730197 -107.038707 500.000000
0.260000 0.090000 0.410000 -80.078735 81.837313 -53.764268 500.000000
-0.260000 0.090000 0.290000 235.162742 218.925778 24.548553 500.000000
0.234847 0.090000 0.290000 98.969306 60.210108 617.401291 500.000000
-0.185193 0.090000 0.410000 -89.038506 17.073585 -68.577485 500.000000
-0.260000 0.260000 0.290000 56.828911 -24.539553 21.886739 500.000000
-0.260000 0.260000 0.290000 73.992327 -29.911627 25.909406 500.000000
0.260000 0.090000 0.290000 -149.947344 38.026987 29.055890 500.000000
0.260000 0.260000 0.290000 -151.634507 -56.715905 62.929132 500.000000
-0.260000 0.260000 0.410000 91.048976 -109.989312 -102.414852 500.000000
0.096974 0.107417 0.290000 35.673911 -30.516538 10.482841 500.000000
0.260000 0.260000 0.290000 -174.666018 -52.790428 78.594366 500.000000
0.260000 0.260000 0.290000 -29.936720 -91.583557 44.401459 500.000000
0.010698 0.090000 0.290000 54.139591 28.260905 74.895013 500.000000
0.177987 0.090000 0.290000 87.597420 537.328119 28.918176 500.000000
0.049958 0.090000 0.410000 -42.008405 30.423997 -66.642387 500.000000
-0.260000 0.260000 0.290000 38.269226 -78.371104 25.471383 500.000000
-0.033720 0.260000 0.306794 -58.743933 -22.028568 -20.641159 500.000000
0.073549 0.090000 0.290000 66.709891 28.328503 73.432205 500.000000
0.260000 0.260000 0.410000 -90.151154 -43.727350 -12.836020 500.000000
-0.260000 0.090000 0.290000 104.335393 261.774988 211.527504 500.000000
0.260000 0.260000 0.390120 -169.824134 -66.682588 20.024062 500.000000
-0.045271 0.260000 0.290000 -61.054234 -268.677812 24.344861 500.000000
0.070955 0.260000 0.331146 -37.809069 -150.255119 -15.770745 500.000000
-0.260000 0.164639 0.410000 61.041665 -19.072131 -78.296102 500.000000
0.260000 0.090000 0.410000 -88.959399 23.625090 -51.352203 500.000000
-0.086438 0.260000 0.290000 -69.287549 -141.238623 15.216002 500.000000
-0.260000 0.260000 0.410000 109.155444 -104.451088 -104.823019 500.000000
0.260000 0.090000 0.410000 -104.224698 28.402401 -54.415113 500.000000
0.260000 0.090000 0.410000 -103.350552 23.863746 -59.961002 500.000000
-0.260000 0.260000 0.290000 56.040100 -212.557235 15.225706 500.000000
0.260000 0.090000 0.410000 -77.575602 66.171194 -55.434552 500.000000
