ply
format ascii 1.0
element vertex 240
property float x
property float y
property float z
property float vx
property float vy
property float vz
property float density
end_header
-0.260000 0.090000 0.290000 36.858427 21.679524 39.585130 500.000000
0.260000 0.110584 0.290000 -67.695793 -29.883201 95.784529 500.000000
0.260000 0.110584 0.410000 -67.695793 -29.883201 -95.784510 500.000000
-0.260000 0.090000 0.410000 36.858427 21.679524 -39.585111 500.000000
-0.074430 0.090000 0.290000 22.859507 82.607196 27.077073 500.000000
-0.260000 0.090000 0.290000 129.975188 55.973902 75.612554 500.000000
-0.260000 0.090000 0.410000 129.975188 55.973902 -75.612536 500.000000
-0.074430 0.090000 0.410000 22.859507 82.607196 -27.077054 500.000000
-0.066468 0.175000 0.290000 23.106247 0.000000 27.785158 500.000000
-0.260000 0.175000 0.290000 155.147296 -0.000000 95.030969 500.000000
-0.260000 0.175000 0.410000 155.147296 -0.000000 -95.030951 500.000000
-0.066468 0.175000 0.410000 23.106247 -0.000000 -27.785140 500.000000
-0.074430 0.260000 0.290000 22.859507 -82.607196 27.077073 500.000000
-0.260000 0.260000 0.290000 129.975188 -55.973902 75.612554 500.000000
-0.260000 0.260000 0.410000 129.975188 -55.973902 -75.612536 500.000000
-0.074430 0.260000 0.410000 22.859507 -82.607196 -27.077054 500.000000
-0.260000 0.260000 0.290000 36.858427 -21.679524 39.585130 500.000000
0.260000 0.239416 0.290000 -67.695793 29.883201 95.784529 500.000000
0.260000 0.239416 0.410000 -67.695793 29.883201 -95.784510 500.000000
-0.260000 0.260000 0.410000 36.858427 -21.679524 -39.585111 500.000000
-0.260000 0.111896 0.290000 102.437458 -29.620847 27.207738 500.000000
-0.260000 0.137869 0.290000 76.035394 -24.426277 79.354204 500.000000
-0.260000 0.137869 0.410000 76.035394 -24.426277 -79.354186 500.000000
-0.260000 0.111896 0.410000 102.437458 -29.620847 -27.207720 500.000000
-0.260000 0.090000 0.410000 84.117968 66.678632 -20.172124 500.000000
-0.260000 0.090000 0.290000 62.308170 44.888931 62.170053 500.000000
-0.260000 0.090000 0.410000 62.308170 44.888931 -62.170034 500.000000
-0.260000 0.090000 0.290000 84.117968 66.678632 20.172142 500.000000
-0.260000 0.175000 0.410000 119.084826 0.000000 -22.228819 500.000000
-0.260000 0.175000 0.290000 94.591737 0.000000 79.441538 500.000000
-0.260000 0.175000 0.410000 94.591737 0.000000 -79.441520 500.000000
-0.260000 0.175000 0.290000 119.084826 0.000000 22.228838 500.000000
-0.260000 0.260000 0.410000 84.117968 -66.678632 -20.172124 500.000000
-0.260000 0.260000 0.290000 62.308170 -44.888931 62.170053 500.000000
-0.260000 0.260000 0.410000 62.308170 -44.888931 -62.170034 500.000000
-0.260000 0.260000 0.290000 84.117968 -66.678632 20.172142 500.000000
-0.260000 0.238104 0.290000 102.437458 29.620847 27.207738 500.000000
-0.260000 0.212131 0.290000 76.035394 24.426277 79.354204 500.000000
-0.260000 0.212131 0.410000 76.035394 24.426277 -79.354186 500.000000
-0.260000 0.238104 0.410000 102.437458 29.620847 -27.207720 500.000000
0.260000 0.091495 0.290000 -74.329967 -33.700926 26.794330 500.000000
0.260000 0.122531 0.290000 -59.798876 -27.493720 77.867918 500.000000
0.260000 0.122531 0.410000 -59.798876 -27.493720 -77.867899 500.000000
0.260000 0.091495 0.410000 -74.329967 -33.700926 -26.794312 500.000000
0.260000 0.090000 0.410000 -66.018695 64.151106 -19.244872 500.000000
0.260000 0.090000 0.290000 -53.103894 44.267692 61.489451 500.000000
0.260000 0.090000 0.410000 -53.103894 44.267692 -61.489433 500.000000
0.260000 0.090000 0.290000 -66.018695 64.151106 19.244891 500.000000
0.260000 0.175000 0.410000 -95.525444 0.000000 -21.454526 500.000000
0.260000 0.175000 0.290000 -80.860361 0.000000 79.114867 500.000000
0.260000 0.175000 0.410000 -80.860361 -0.000000 -79.114849 500.000000
0.260000 0.175000 0.290000 -95.525444 0.000000 21.454545 500.000000
0.260000 0.260000 0.410000 -66.018695 -64.151106 -19.244872 500.000000
0.260000 0.260000 0.290000 -53.103894 -44.267692 61.489451 500.000000
0.260000 0.260000 0.410000 -53.103894 -44.267692 -61.489433 500.000000
0.260000 0.260000 0.290000 -66.018695 -64.151106 19.244891 500.000000
0.260000 0.258505 0.290000 -74.329967 33.700926 26.794330 500.000000
0.260000 0.227469 0.290000 -59.798876 27.493720 77.867918 500.000000
0.260000 0.227469 0.410000 -59.798876 27.493720 -77.867899 500.000000
0.260000 0.258505 0.410000 -74.329967 33.700926 -26.794312 500.000000
-0.260000 0.097348 0.290000 113.373795 -32.530352 25.677136 500.000000
-0.260000 0.122350 0.290000 46.731842 -27.529982 56.676832 500.000000
-0.260000 0.122350 0.410000 46.731842 -27.529982 -56.676813 500.000000
-0.260000 0.097348 0.410000 113.373795 -32.530352 -25.677118 500.000000
0.205540 0.090000 0.410000 66.930192 46.502367 -16.262598 500.000000
0.260000 0.090000 0.290000 -118.117248 31.209738 43.537291 500.000000
0.260000 0.090000 0.410000 -118.117248 31.209738 -43.537272 500.000000
0.205540 0.090000 0.290000 66.930192 46.502367 16.262616 500.000000
-0.260000 0.175000 0.410000 39.544624 -0.000000 -18.097838 500.000000
0.260000 0.175000 0.290000 -46.522323 -0.000000 58.087371 500.000000
0.260000 0.175000 0.410000 -46.522323 0.000000 -58.087352 500.000000
-0.260000 0.175000 0.290000 39.544624 0.000000 18.097857 500.000000
0.205540 0.260000 0.410000 66.930192 -46.502367 -16.262598 500.000000
0.260000 0.260000 0.290000 -118.117248 -31.209738 43.537291 500.000000
0.260000 0.260000 0.410000 -118.117248 -31.209738 -43.537272 500.000000
0.205540 0.260000 0.290000 66.930192 -46.502367 16.262616 500.000000
-0.260000 0.252652 0.290000 113.373795 32.530352 25.677136 500.000000
-0.260000 0.227650 0.290000 46.731842 27.529982 56.676832 500.000000
-0.260000 0.227650 0.410000 46.731842 27.529982 -56.676813 500.000000
-0.260000 0.252652 0.410000 113.373795 32.530352 -25.677118 500.000000
-0.011108 0.097348 0.290000 12.778361 -32.530388 25.676786 500.000000
-0.011108 0.122465 0.290000 12.778361 -27.507095 56.677139 500.000000
-0.011108 0.122465 0.410000 12.778361 -27.507095 -56.677121 500.000000
-0.011108 0.097348 0.410000 12.778361 -32.530388 -25.676767 500.000000
-0.011108 0.090000 0.410000 12.778361 46.502935 -16.270999 500.000000
-0.011108 0.090000 0.290000 12.778361 31.209709 43.537062 500.000000
-0.011108 0.090000 0.410000 12.778361 31.209709 -43.537044 500.000000
-0.011108 0.090000 0.290000 12.778361 46.502935 16.271017 500.000000
-0.042222 0.175000 0.410000 6.555590 -0.000000 -18.107000 500.000000
-0.042222 0.175000 0.290000 6.555590 -0.000000 58.087677 500.000000
-0.042222 0.175000 0.410000 6.555590 0.000000 -58.087659 500.000000
-0.042222 0.175000 0.290000 6.555590 0.000000 18.107018 500.000000
-0.011108 0.260000 0.410000 12.778361 -46.502935 -16.270999 500.000000
-0.011108 0.260000 0.290000 12.778361 -31.209709 43.537062 500.000000
-0.011108 0.260000 0.410000 12.778361 -31.209709 -43.537044 500.000000
-0.011108 0.260000 0.290000 12.778361 -46.502935 16.271017 500.000000
-0.011108 0.252652 0.290000 12.778361 32.530388 25.676786 500.000000
-0.011108 0.227535 0.290000 12.778361 27.507095 56.677139 500.000000
-0.011108 0.227535 0.410000 12.778361 27.507095 -56.677121 500.000000
-0.011108 0.252652 0.410000 12.778361 32.530388 -25.676767 500.000000
0.260000 0.097347 0.290000 -43.187657 -32.530577 25.676978 500.000000
0.260000 0.122463 0.290000 -43.187657 -27.507356 56.676889 500.000000
0.260000 0.122463 0.410000 -43.187657 -27.507356 -56.676870 500.000000
0.260000 0.097347 0.410000 -43.187657 -32.530577 -25.676960 500.000000
0.260000 0.090000 0.410000 -43.187657 46.502597 -16.271326 500.000000
0.260000 0.090000 0.290000 -43.187657 31.209590 43.537000 500.000000
0.260000 0.090000 0.410000 -43.187657 31.209590 -43.536981 500.000000
0.260000 0.090000 0.290000 -43.187657 46.502597 16.271345 500.000000
-0.025000 0.175000 0.410000 -0.000000 -0.000000 -18.107025 500.000000
-0.025000 0.175000 0.290000 -0.000000 0.000000 58.087655 500.000000
-0.025000 0.175000 0.410000 0.000000 0.000000 -58.087637 500.000000
-0.025000 0.175000 0.290000 0.000000 0.000000 18.107043 500.000000
0.260000 0.260000 0.410000 -43.187657 -46.502597 -16.271326 500.000000
0.260000 0.260000 0.290000 -43.187657 -31.209590 43.537000 500.000000
0.260000 0.260000 0.410000 -43.187657 -31.209590 -43.536981 500.000000
0.260000 0.260000 0.290000 -43.187657 -46.502597 16.271345 500.000000
0.260000 0.252653 0.290000 -43.187657 32.530577 25.676978 500.000000
0.260000 0.227537 0.290000 -43.187657 27.507356 56.676889 500.000000
0.260000 0.227537 0.410000 -43.187657 27.507356 -56.676870 500.000000
0.260000 0.252653 0.410000 -43.187657 32.530577 -25.676960 500.000000
-0.260000 0.097347 0.290000 43.187657 -32.530577 25.676978 500.000000
-0.260000 0.122463 0.290000 43.187657 -27.507356 56.676889 500.000000
-0.260000 0.122463 0.410000 43.187657 -27.507356 -56.676870 500.000000
-0.260000 0.097347 0.410000 43.187657 -32.530577 -25.676960 500.000000
-0.260000 0.090000 0.410000 43.187657 46.502597 -16.271326 500.000000
-0.260000 0.090000 0.290000 43.187657 31.209590 43.537000 500.000000
-0.260000 0.090000 0.410000 43.187657 31.209590 -43.536981 500.000000
-0.260000 0.090000 0.290000 43.187657 46.502597 16.271345 500.000000
0.025000 0.175000 0.410000 -0.000000 -0.000000 -18.107025 500.000000
0.025000 0.175000 0.290000 -0.000000 -0.000000 58.087655 500.000000
0.025000 0.175000 0.410000 -0.000000 0.000000 -58.087637 500.000000
0.025000 0.175000 0.290000 -0.000000 0.000000 18.107043 500.000000
-0.260000 0.260000 0.410000 43.187657 -46.502597 -16.271326 500.000000
-0.260000 0.260000 0.290000 43.187657 -31.209590 43.537000 500.000000
-0.260000 0.260000 0.410000 43.187657 -31.209590 -43.536981 500.000000
-0.260000 0.260000 0.290000 43.187657 -46.502597 16.271345 500.000000
-0.260000 0.252653 0.290000 43.187657 32.530577 25.676978 500.000000
-0.260000 0.227537 0.290000 43.187657 27.507356 56.676889 500.000000
-0.260000 0.227537 0.410000 43.187657 27.507356 -56.676870 500.000000
-0.260000 0.252653 0.410000 43.187657 32.530577 -25.676960 500.000000
0.011108 0.097348 0.290000 -12.778361 -32.530388 25.676786 500.000000
0.011108 0.122465 0.290000 -12.778361 -27.507095 56.677139 500.000000
0.011108 0.122465 0.410000 -12.778361 -27.507095 -56.677121 500.000000
0.011108 0.097348 0.410000 -12.778361 -32.530388 -25.676767 500.000000
0.011108 0.090000 0.410000 -12.778361 46.502935 -16.270999 500.000000
0.011108 0.090000 0.290000 -12.778361 31.209709 43.537062 500.000000
0.011108 0.090000 0.410000 -12.778361 31.209709 -43.537044 500.000000
0.011108 0.090000 0.290000 -12.778361 46.502935 16.271017 500.000000
0.042222 0.175000 0.410000 -6.555590 -0.000000 -18.107000 500.000000
0.042222 0.175000 0.290000 -6.555590 -0.000000 58.087677 500.000000
0.042222 0.175000 0.410000 -6.555590 0.000000 -58.087659 500.000000
0.042222 0.175000 0.290000 -6.555590 -0.000000 18.107018 500.000000
0.011108 0.260000 0.410000 -12.778361 -46.502935 -16.270999 500.000000
0.011108 0.260000 0.290000 -12.778361 -31.209709 43.537062 500.000000
0.011108 0.260000 0.410000 -12.778361 -31.209709 -43.537044 500.000000
0.011108 0.260000 0.290000 -12.778361 -46.502935 16.271017 500.000000
0.011108 0.252652 0.290000 -12.778361 32.530388 25.676786 500.000000
0.011108 0.227535 0.290000 -12.778361 27.507095 56.677139 500.000000
0.011108 0.227535 0.410000 -12.778361 27.507095 -56.677121 500.000000
0.011108 0.252652 0.410000 -12.778361 32.530388 -25.676767 500.000000
0.260000 0.097348 0.290000 -113.373795 -32.530352 25.677136 500.000000
0.260000 0.122350 0.290000 -46.731842 -27.529982 56.676832 500.000000
0.260000 0.122350 0.410000 -46.731842 -27.529982 -56.676813 500.000000
0.260000 0.097348 0.410000 -113.373795 -32.530352 -25.677118 500.000000
-0.205540 0.090000 0.410000 -66.930192 46.502367 -16.262598 500.000000
-0.260000 0.090000 0.290000 118.117248 31.209738 43.537291 500.000000
-0.260000 0.090000 0.410000 118.117248 31.209738 -43.537272 500.000000
-0.205540 0.090000 0.290000 -66.930192 46.502367 16.262616 500.000000
0.260000 0.175000 0.410000 -39.544624 0.000000 -18.097838 500.000000
-0.260000 0.175000 0.290000 46.522323 0.000000 58.087371 500.000000
-0.260000 0.175000 0.410000 46.522323 -0.000000 -58.087352 500.000000
0.260000 0.175000 0.290000 -39.544624 -0.000000 18.097857 500.000000
-0.205540 0.260000 0.410000 -66.930192 -46.502367 -16.262598 500.000000
-0.260000 0.260000 0.290000 118.117248 -31.209738 43.537291 500.000000
-0.260000 0.260000 0.410000 118.117248 -31.209738 -43.537272 500.000000
-0.205540 0.260000 0.290000 -66.930192 -46.502367 16.262616 500.000000
0.260000 0.252652 0.290000 -113.373795 32.530352 25.677136 500.000000
0.260000 0.227650 0.290000 -46.731842 27.529982 56.676832 500.000000
0.260000 0.227650 0.410000 -46.731842 27.529982 -56.676813 500.000000
0.260000 0.252652 0.410000 -113.373795 32.530352 -25.677118 500.000000
-0.260000 0.091495 0.290000 74.329967 -33.700926 26.794330 500.000000
-0.260000 0.122531 0.290000 59.798876 -27.493720 77.867918 500.000000
-0.260000 0.122531 0.410000 59.798876 -27.493720 -77.867899 500.000000
-0.260000 0.091495 0.410000 74.329967 -33.700926 -26.794312 500.000000
-0.260000 0.090000 0.410000 66.018695 64.151106 -19.244872 500.000000
-0.260000 0.090000 0.290000 53.103894 44.267692 61.489451 500.000000
-0.260000 0.090000 0.410000 53.103894 44.267692 -61.489433 500.000000
-0.260000 0.090000 0.290000 66.018695 64.151106 19.244891 500.000000
-0.260000 0.175000 0.410000 95.525444 0.000000 -21.454526 500.000000
-0.260000 0.175000 0.290000 80.860361 0.000000 79.114867 500.000000
-0.260000 0.175000 0.410000 80.860361 0.000000 -79.114849 500.000000
-0.260000 0.175000 0.290000 95.525444 0.000000 21.454545 500.000000
-0.260000 0.260000 0.410000 66.018695 -64.151106 -19.244872 500.000000
-0.260000 0.260000 0.290000 53.103894 -44.267692 61.489451 500.000000
-0.260000 0.260000 0.410000 53.103894 -44.267692 -61.489433 500.000000
-0.260000 0.260000 0.290000 66.018695 -64.151106 19.244891 500.000000
-0.260000 0.258505 0.290000 74.329967 33.700926 26.794330 500.000000
-0.260000 0.227469 0.290000 59.798876 27.493720 77.867918 500.000000
-0.260000 0.227469 0.410000 59.798876 27.493720 -77.867899 500.000000
-0.260000 0.258505 0.410000 74.329967 33.700926 -26.794312 500.000000
0.260000 0.111896 0.290000 -102.437458 -29.620847 27.207738 500.000000
0.260000 0.137869 0.290000 -76.035394 -24.426277 79.354204 500.000000
0.260000 0.137869 0.410000 -76.035394 -24.426277 -79.354186 500.000000
0.260000 0.111896 0.410000 -102.437458 -29.620847 -27.207720 500.000000
0.260000 0.090000 0.410000 -84.117968 66.678632 -20.172124 500.000000
0.260000 0.090000 0.290000 -62.308170 44.888931 62.170053 500.000000
0.260000 0.090000 0.410000 -62.308170 44.888931 -62.170034 500.000000
0.260000 0.090000 0.290000 -84.117968 66.678632 20.172142 500.000000
0.260000 0.175000 0.410000 -119.084826 0.000000 -22.228819 500.000000
0.260000 0.175000 0.290000 -94.591737 -0.000000 79.441538 500.000000
0.260000 0.175000 0.410000 -94.591737 0.000000 -79.441520 500.000000
0.260000 0.175000 0.290000 -119.084826 0.000000 22.228838 500.000000
0.260000 0.260000 0.410000 -84.117968 -66.678632 -20.172124 500.000000
0.260000 0.260000 0.290000 -62.308170 -44.888931 62.170053 500.000000
0.260000 0.260000 0.410000 -62.308170 -44.888931 -62.170034 500.000000
0.260000 0.260000 0.290000 -84.117968 -66.678632 20.172142 500.000000
0.260000 0.238104 0.290000 -102.437458 29.620847 27.207738 500.000000
0.260000 0.212131 0.290000 -76.035394 24.426277 79.354204 500.000000
0.260000 0.212131 0.410000 -76.035394 24.426277 -79.354186 500.000000
0.260000 0.238104 0.410000 -102.437458 29.620847 -27.207720 500.000000
0.260000 0.090000 0.290000 -36.858427 21.679524 39.585130 500.000000
-0.260000 0.110584 0.290000 67.695793 -29.883201 95.784529 500.000000
-0.260000 0.110584 0.410000 67.695793 -29.883201 -95.784510 500.000000
0.260000 0.090000 0.410000 -36.858427 21.679524 -39.585111 500.000000
0.074430 0.090000 0.290000 -22.859507 82.607196 27.077073 500.000000
0.260000 0.090000 0.290000 -129.975188 55.973902 75.612554 500.000000
0.260000 0.090000 0.410000 -129.975188 55.973902 -75.612536 500.000000
0.074430 0.090000 0.410000 -22.859507 82.607196 -27.077054 500.000000
0.066468 0.175000 0.290000 -23.106247 -0.000000 27.785158 500.000000
0.260000 0.175000 0.290000 -155.147296 -0.000000 95.030969 500.000000
0.260000 0.175000 0.410000 -155.147296 -0.000000 -95.030951 500.000000
0.066468 0.175000 0.410000 -23.106247 0.000000 -27.785140 500.000000
0.074430 0.260000 0.290000 -22.859507 -82.607196 27.077073 500.000000
0.260000 0.260000 0.290000 -129.975188 -55.973902 75.612554 500.000000
0.260000 0.260000 0.410000 -129.975188 -55.973902 -75.612536 500.000000
0.074430 0.260000 0.410000 -22.859507 -82.607196 -27.077054 500.000000
0.260000 0.260000 0.290000 -36.858427 -21.679524 39.585130 500.000000
-0.260000 0.239416 0.290000 67.695793 29.883201 95.784529 500.000000
-0.260000 0.239416 0.410000 67.695793 29.883201 -95.784510 500.000000
0.260000 0.260000 0.410000 -36.858427 -21.679524 -39.585111 500.000000
