ply
format ascii 1.0
element vertex 240
property float x
property float y
property float z
property float vx
property float vy
property float vz
property float density
end_header
-0.260000 0.090000 0.410000 94.804050 48.126240 -101.821795 500.000000
-0.256314 0.090000 0.323169 -33.530967 31.616614 -17.366167 500.000000
-0.164894 0.090000 0.290000 -84.978870 44.246629 109.733167 500.000000
0.112322 0.090000 0.290000 10.571877 26.472272 85.882405 500.000000
-0.132576 0.090000 0.410000 25.484793 41.401110 -107.008760 500.000000
-0.241883 0.164432 0.326328 -17.696898 -19.113568 -16.734353 500.000000
0.260000 0.090000 0.410000 -114.482358 48.463875 -25.347788 500.000000
0.184387 0.260000 0.410000 44.758330 -7.189521 -13.819308 500.000000
0.255734 0.174497 0.410000 103.146801 -0.100788 -134.893827 500.000000
0.089893 0.090000 0.290000 69.978616 43.349602 105.467618 500.000000
0.260000 0.260000 0.395021 -80.885305 -89.266910 21.004117 500.000000
0.021740 0.174940 0.290000 13.473336 -0.012031 20.706010 500.000000
-0.132576 0.260000 0.410000 25.484807 -43.683753 -107.303125 500.000000
-0.241883 0.185568 0.326328 -17.696896 19.113566 -16.734353 500.000000
0.260000 0.260000 0.410000 -114.482402 -48.464156 -25.347789 500.000000
0.184428 0.090000 0.410000 44.766590 7.193677 -13.803299 500.000000
-0.260000 0.260000 0.410000 94.804065 -48.126240 -101.821795 500.000000
-0.256036 0.260000 0.323169 -33.475213 -31.600876 -17.366167 500.000000
-0.164894 0.260000 0.290000 -84.978869 -44.105275 109.748580 500.000000
0.112324 0.260000 0.290000 10.572188 -26.472308 85.882405 500.000000
0.260000 0.090000 0.300078 -28.716406 29.529452 -21.984478 500.000000
-0.260000 0.090000 0.290000 29.805120 21.064935 12.933207 500.000000
0.260000 0.090000 0.410000 -56.180383 286.599339 -42.944854 500.000000
0.260000 0.090000 0.370610 -21.516252 26.584451 16.121960 500.000000
0.260000 0.090000 0.410000 -179.521176 49.440431 -25.242457 500.000000
0.260000 0.090000 0.334558 -46.189254 17.752313 -15.088386 500.000000
0.260000 0.090000 0.410000 -108.488810 51.304709 -24.437045 500.000000
0.204266 0.106957 0.331733 41.744140 -30.608637 -15.653450 500.000000
-0.150821 0.260000 0.290000 -82.164155 -218.109369 105.851645 500.000000
-0.207690 0.177837 0.290000 -49.977060 0.572085 14.455763 500.000000
0.260000 0.172652 0.410000 -34.190599 -0.470706 -17.624337 500.000000
-0.260000 0.173486 0.352645 24.257395 -0.267135 12.529012 500.000000
0.260000 0.260000 0.410000 -179.521209 -49.440711 -25.242458 500.000000
0.260000 0.260000 0.334558 -46.189288 -17.752313 -15.088386 500.000000
0.260000 0.260000 0.410000 -108.488855 -51.304989 -24.437045 500.000000
0.204266 0.243043 0.331733 41.744189 30.608637 -15.653450 500.000000
0.260000 0.260000 0.300077 -28.769651 -29.490216 -21.984539 500.000000
-0.260000 0.260000 0.290000 29.812506 -20.962713 12.933207 500.000000
0.260000 0.260000 0.410000 -56.169637 -289.290674 -42.944855 500.000000
0.260000 0.260000 0.370610 -21.786556 -27.818735 16.121962 500.000000
-0.025957 0.260000 0.290000 46.808553 -31.145486 45.404926 500.000000
-0.260000 0.260000 0.410000 385.715135 -42.427539 -24.366011 500.000000
0.010815 0.260000 0.327917 6.620740 -18.539185 -16.416623 500.000000
-0.260000 0.260000 0.410000 110.888808 -47.767763 -23.706385 500.000000
-0.260000 0.090000 0.295438 37.351887 17.998303 -22.912353 500.000000
-0.260000 0.157916 0.368467 103.938997 -20.416804 15.693423 500.000000
-0.062186 0.260000 0.290000 -64.437130 -217.289057 168.411852 500.000000
0.009670 0.124677 0.395357 23.195355 -27.064637 21.071457 500.000000
0.260000 0.090000 0.290000 -53.727221 218.096998 109.357921 500.000000
-0.053542 0.113522 0.410000 -62.708489 -12.352772 -102.487020 500.000000
0.126351 0.260000 0.410000 77.270187 -25.730891 -54.104499 500.000000
-0.260000 0.144084 0.405275 123.063775 -6.183171 23.055027 500.000000
-0.260000 0.260000 0.295438 37.351848 -17.998303 -22.912353 500.000000
-0.260000 0.192084 0.368467 103.938986 20.416804 15.693423 500.000000
-0.062231 0.090000 0.290000 -64.446134 219.085416 167.899991 500.000000
0.009670 0.225323 0.395357 23.195383 27.064637 21.071457 500.000000
-0.025957 0.090000 0.290000 46.808556 31.145484 45.404926 500.000000
-0.260000 0.090000 0.410000 385.714268 42.427479 -24.365983 500.000000
0.010815 0.090000 0.327917 6.620668 18.539185 -16.416623 500.000000
-0.260000 0.090000 0.410000 110.888795 47.767763 -23.706385 500.000000
-0.260000 0.234645 0.334101 65.261654 28.929084 -15.179737 500.000000
0.260000 0.090000 0.331217 -73.679802 34.906139 -15.756661 500.000000
0.260000 0.260000 0.410000 -110.265561 -47.826188 -24.851537 500.000000
-0.260000 0.260000 0.410000 363.808334 -43.690737 -21.825797 500.000000
0.260000 0.260000 0.290000 -82.835817 -44.768723 12.944586 500.000000
-0.011193 0.260000 0.290000 49.761357 -84.805118 16.330374 500.000000
0.260000 0.090000 0.371377 -30.461572 21.228430 16.275450 500.000000
0.260000 0.260000 0.410000 -110.855710 -71.917219 -29.765091 500.000000
0.260000 0.260000 0.410000 -162.706485 -17.457692 -14.643784 500.000000
-0.260000 0.121481 0.410000 69.929969 -10.704302 -29.700025 500.000000
-0.260000 0.260000 0.290000 76.243930 -43.379698 126.279585 500.000000
-0.260000 0.176866 0.290000 27.817871 0.381467 13.033475 500.000000
0.260000 0.090000 0.290000 -82.835771 44.768725 12.944586 500.000000
-0.011193 0.090000 0.290000 49.761382 84.645535 16.330317 500.000000
0.260000 0.260000 0.371377 -30.461552 -21.228426 16.275450 500.000000
0.260000 0.090000 0.410000 -110.855666 71.916940 -29.765091 500.000000
-0.260000 0.115355 0.334101 65.261675 -28.929084 -15.179737 500.000000
0.260000 0.260000 0.331217 -73.679768 -34.906059 -15.756661 500.000000
0.260000 0.090000 0.410000 -110.265517 47.825908 -24.851536 500.000000
-0.260000 0.090000 0.410000 363.808513 43.690745 -21.825800 500.000000
-0.159269 0.260000 0.290000 -83.853866 -93.510220 42.483412 500.000000
-0.260000 0.260000 0.290000 62.738918 -39.053989 42.967030 500.000000
-0.260000 0.260000 0.373426 22.106099 -40.645643 16.685211 500.000000
0.260000 0.260000 0.368591 -61.732334 -50.444750 15.718221 500.000000
-0.260000 0.090000 0.290000 52.836861 51.261366 42.400361 500.000000
0.260000 0.090000 0.410000 -127.000751 77.416281 -155.784446 500.000000
0.260000 0.090000 0.410000 -215.367595 93.453593 -24.542593 500.000000
0.260000 0.090000 0.410000 -110.353228 83.213421 -24.326130 500.000000
0.260000 0.174909 0.290000 -10.862163 -0.013328 16.389191 500.000000
-0.260000 0.090000 0.290000 69.165127 43.946246 111.979010 500.000000
-0.260000 0.260000 0.410000 133.567189 -168.905736 -16.971871 500.000000
-0.260000 0.260000 0.410000 67.773462 -82.037898 -20.659246 500.000000
-0.260000 0.260000 0.290000 52.836848 -51.261380 42.400361 500.000000
0.260000 0.260000 0.410000 -127.000759 -77.416281 -155.784447 500.000000
0.260000 0.260000 0.410000 -215.367636 -93.453664 -24.542593 500.000000
0.260000 0.260000 0.410000 -110.353273 -83.213525 -24.326130 500.000000
-0.159269 0.090000 0.290000 -83.853872 93.510147 42.483412 500.000000
-0.260000 0.090000 0.290000 62.738952 39.053994 42.967030 500.000000
-0.260000 0.090000 0.373426 22.106081 40.645869 16.685211 500.000000
0.260000 0.090000 0.368591 -61.732317 50.444633 15.718221 500.000000
-0.260000 0.260000 0.334698 36.124996 -27.710881 -15.060343 500.000000
0.082427 0.260000 0.319457 24.928270 -18.833034 -18.108531 500.000000
-0.260000 0.260000 0.410000 392.504119 -34.930596 -15.539590 500.000000
-0.260000 0.260000 0.410000 109.962080 -50.231038 -24.500594 500.000000
-0.260000 0.090000 0.299052 42.045969 20.114139 -22.189563 500.000000
0.260000 0.169019 0.331985 -93.079653 -18.196182 -15.603021 500.000000
-0.260000 0.090000 0.410000 113.976688 48.077548 -24.782676 500.000000
0.260000 0.090000 0.410000 -117.428576 48.316080 -27.674589 500.000000
0.095246 0.090000 0.290000 -32.950710 218.377469 110.351020 500.000000
-0.260000 0.170619 0.410000 92.384882 -0.876064 -98.251897 500.000000
-0.260000 0.177444 0.405131 52.366274 0.492371 23.026127 500.000000
0.260000 0.260000 0.410000 -79.893133 -166.735627 -15.244537 500.000000
-0.260000 0.260000 0.299052 42.045971 -20.114136 -22.189563 500.000000
0.260000 0.180981 0.331985 -93.079651 18.196179 -15.603021 500.000000
-0.260000 0.260000 0.410000 113.976704 -48.077549 -24.782676 500.000000
0.260000 0.260000 0.410000 -117.428620 -48.316360 -27.674590 500.000000
-0.260000 0.090000 0.334698 36.124972 27.710885 -15.060343 500.000000
0.082427 0.090000 0.319457 24.928180 18.833035 -18.108531 500.000000
-0.260000 0.090000 0.410000 392.504284 34.930603 -15.539594 500.000000
-0.260000 0.090000 0.410000 109.962065 50.231038 -24.500594 500.000000
0.260000 0.260000 0.334698 -36.125443 -27.710895 -15.060343 500.000000
-0.082424 0.260000 0.319457 -24.927598 -18.833033 -18.108531 500.000000
0.260000 0.260000 0.410000 -392.504471 -34.930598 -15.539589 500.000000
0.260000 0.260000 0.410000 -109.962378 -50.231314 -24.500596 500.000000
0.260000 0.090000 0.299052 -42.045994 20.114097 -22.189563 500.000000
-0.260000 0.169019 0.331985 93.079667 -18.196200 -15.603021 500.000000
0.260000 0.090000 0.410000 -113.976957 48.077545 -24.782678 500.000000
-0.260000 0.090000 0.410000 117.428307 48.316084 -27.674588 500.000000
-0.095237 0.260000 0.290000 32.952598 -43.969298 110.357040 500.000000
0.260000 0.184117 0.410000 -92.383536 1.823472 -98.224401 500.000000
0.260000 0.173131 0.405131 -52.366551 -0.374614 23.026130 500.000000
-0.260000 0.090000 0.410000 80.994309 169.552063 -15.266841 500.000000
0.260000 0.260000 0.299052 -42.045998 -20.114090 -22.189563 500.000000
-0.260000 0.180981 0.331985 93.079667 18.196199 -15.603021 500.000000
0.260000 0.260000 0.410000 -113.977002 -48.077825 -24.782678 500.000000
-0.260000 0.260000 0.410000 117.428322 -48.316084 -27.674588 500.000000
0.260000 0.090000 0.334698 -36.125385 27.710899 -15.060343 500.000000
-0.082424 0.090000 0.319457 -24.927565 18.833033 -18.108530 500.000000
0.260000 0.090000 0.410000 -392.504642 34.930607 -15.539595 500.000000
0.260000 0.090000 0.410000 -109.962334 50.231034 -24.500596 500.000000
0.159269 0.260000 0.290000 83.853821 -93.510160 42.483414 500.000000
0.260000 0.260000 0.290000 -62.739027 -39.053989 42.967031 500.000000
0.260000 0.260000 0.373426 -22.106089 -40.645806 16.685211 500.000000
-0.260000 0.260000 0.368591 61.732336 -50.444559 15.718221 500.000000
0.260000 0.090000 0.290000 -52.836778 51.261377 42.400362 500.000000
-0.260000 0.090000 0.410000 127.000792 77.416278 -155.784447 500.000000
-0.260000 0.090000 0.410000 215.367330 93.453446 -24.542591 500.000000
-0.260000 0.090000 0.410000 110.352959 83.213298 -24.326128 500.000000
-0.260000 0.173706 0.290000 10.862924 -0.190083 16.389191 500.000000
0.260000 0.260000 0.290000 -69.165429 -175.059324 111.967540 500.000000
0.260000 0.090000 0.410000 -132.427894 166.504797 -16.987750 500.000000
0.260000 0.090000 0.410000 -67.771330 82.791370 -20.653717 500.000000
0.260000 0.260000 0.290000 -52.836889 -51.261327 42.400362 500.000000
-0.260000 0.260000 0.410000 127.000765 -77.416324 -155.784448 500.000000
-0.260000 0.260000 0.410000 215.367346 -93.453539 -24.542591 500.000000
-0.260000 0.260000 0.410000 110.352974 -83.213377 -24.326128 500.000000
0.159269 0.090000 0.290000 83.853815 93.510164 42.483413 500.000000
0.260000 0.090000 0.290000 -62.738805 39.053952 42.967031 500.000000
0.260000 0.090000 0.373426 -22.106068 40.645705 16.685211 500.000000
-0.260000 0.090000 0.368591 61.732324 50.444821 15.718221 500.000000
0.260000 0.234645 0.334101 -65.261882 28.929085 -15.179737 500.000000
-0.260000 0.090000 0.331217 73.679575 34.905426 -15.756661 500.000000
-0.260000 0.260000 0.410000 110.265263 -47.825912 -24.851535 500.000000
0.260000 0.260000 0.410000 -363.808649 -43.690737 -21.825794 500.000000
-0.260000 0.260000 0.290000 82.835476 -44.768718 12.944586 500.000000
0.011193 0.260000 0.290000 -49.761491 -84.634141 16.330411 500.000000
-0.260000 0.090000 0.371377 30.461514 21.228428 16.275450 500.000000
-0.260000 0.260000 0.410000 110.855412 -71.916944 -29.765090 500.000000
-0.260000 0.090000 0.410000 160.363618 12.700412 -14.637767 500.000000
0.260000 0.220458 0.410000 -69.930536 9.093870 -29.694241 500.000000
0.260000 0.090000 0.290000 -76.244006 130.699032 126.270645 500.000000
0.260000 0.174049 0.290000 -27.816572 -0.249383 13.033624 500.000000
-0.260000 0.090000 0.290000 82.835457 44.768719 12.944586 500.000000
0.011192 0.090000 0.290000 -49.761523 84.815768 16.330281 500.000000
-0.260000 0.260000 0.371377 30.461494 -21.228424 16.275450 500.000000
-0.260000 0.090000 0.410000 110.855397 71.916944 -29.765090 500.000000
0.260000 0.115355 0.334101 -65.261887 -28.929085 -15.179737 500.000000
-0.260000 0.260000 0.331217 73.679560 -34.905398 -15.756661 500.000000
-0.260000 0.090000 0.410000 110.265248 47.825912 -24.851535 500.000000
0.260000 0.090000 0.410000 -363.808857 43.690748 -21.825799 500.000000
0.025957 0.260000 0.290000 -46.808506 -31.145508 45.404926 500.000000
0.260000 0.260000 0.410000 -385.710973 -42.427248 -24.365873 500.000000
-0.010813 0.260000 0.327917 -6.620294 -18.539185 -16.416624 500.000000
0.260000 0.260000 0.410000 -110.889081 -47.768039 -23.706387 500.000000
0.260000 0.090000 0.295438 -37.352129 17.998303 -22.912352 500.000000
0.260000 0.157916 0.368467 -103.939004 -20.416804 15.693423 500.000000
0.062173 0.260000 0.290000 64.434680 -219.006664 167.892404 500.000000
-0.009670 0.124677 0.395357 -23.195332 -27.064637 21.071457 500.000000
-0.260000 0.260000 0.290000 53.727143 -130.759286 109.366742 500.000000
0.053513 0.090000 0.410000 62.702542 29.547038 -92.863142 500.000000
-0.126351 0.233688 0.410000 -77.270177 11.737597 -44.643806 500.000000
0.260000 0.200986 0.405304 -123.375484 5.195936 23.060870 500.000000
0.260000 0.260000 0.295438 -37.352112 -17.998303 -22.912353 500.000000
0.260000 0.192084 0.368467 -103.938991 20.416804 15.693423 500.000000
0.062240 0.090000 0.290000 64.448083 217.202266 168.464611 500.000000
-0.009670 0.225323 0.395357 -23.195365 27.064637 21.071457 500.000000
0.025957 0.090000 0.290000 -46.808516 31.145505 45.404925 500.000000
0.260000 0.090000 0.410000 -385.710405 42.427210 -24.365856 500.000000
-0.010812 0.090000 0.327917 -6.620256 18.539185 -16.416623 500.000000
0.260000 0.090000 0.410000 -110.889041 47.767759 -23.706387 500.000000
-0.260000 0.090000 0.300078 28.731239 29.460403 -21.984469 500.000000
0.260000 0.090000 0.290000 -29.920303 21.114406 12.933207 500.000000
-0.260000 0.090000 0.410000 56.178683 289.331043 -42.944859 500.000000
-0.260000 0.090000 0.370610 21.646316 27.145217 16.121962 500.000000
-0.260000 0.090000 0.410000 179.520904 49.440435 -25.242456 500.000000
-0.260000 0.090000 0.334558 46.188994 17.752314 -15.088386 500.000000
-0.260000 0.090000 0.410000 108.488541 51.304713 -24.437043 500.000000
-0.204263 0.106957 0.331733 -41.743674 -30.608637 -15.653450 500.000000
0.150818 0.260000 0.290000 82.163531 -175.059582 105.840207 500.000000
0.207722 0.175263 0.290000 49.983570 0.033757 14.455778 500.000000
-0.260000 0.176929 0.410000 34.190879 0.388853 -17.624335 500.000000
0.260000 0.162597 0.352645 -24.241130 -2.161589 12.529011 500.000000
-0.260000 0.260000 0.410000 179.520913 -49.440435 -25.242456 500.000000
-0.260000 0.260000 0.334558 46.189007 -17.752314 -15.088386 500.000000
-0.260000 0.260000 0.410000 108.488556 -51.304713 -24.437043 500.000000
-0.204263 0.243043 0.331733 -41.743669 30.608637 -15.653450 500.000000
-0.260000 0.260000 0.300078 28.753227 -29.559119 -21.984494 500.000000
0.260000 0.260000 0.290000 -29.695617 -20.913621 12.933208 500.000000
-0.260000 0.260000 0.410000 56.171496 -286.729170 -42.944861 500.000000
-0.260000 0.260000 0.370610 21.670904 -27.288102 16.121962 500.000000
0.260000 0.090000 0.410000 -94.804320 48.126236 -101.821796 500.000000
0.256154 0.090000 0.323169 33.498823 31.607437 -17.366166 500.000000
0.164894 0.090000 0.290000 84.978829 44.368545 109.845415 500.000000
-0.112347 0.090000 0.290000 -10.576761 26.472922 85.882404 500.000000
0.132576 0.090000 0.410000 -25.484707 42.171943 -107.070094 500.000000
0.241883 0.164432 0.326328 17.696868 -19.113547 -16.734353 500.000000
-0.260000 0.090000 0.410000 114.482089 48.463879 -25.347787 500.000000
-0.184508 0.260000 0.410000 -44.782601 -7.183921 -13.835589 500.000000
-0.255732 0.180812 0.410000 -103.146335 1.162198 -134.863468 500.000000
-0.089892 0.090000 0.290000 -69.978329 131.298199 105.475807 500.000000
-0.260000 0.090000 0.395151 81.265256 91.696193 21.030222 500.000000
-0.021740 0.174865 0.290000 -13.473330 -0.027823 20.706009 500.000000
0.132576 0.260000 0.410000 -25.484718 -42.937708 -107.083026 500.000000
0.241883 0.185568 0.326328 17.696863 19.113544 -16.734353 500.000000
-0.260000 0.260000 0.410000 114.482104 -48.463879 -25.347787 500.000000
-0.184307 0.090000 0.410000 -44.742425 7.199456 -13.787154 500.000000
0.260000 0.260000 0.410000 -94.804366 -48.126516 -101.821794 500.000000
0.256195 0.260000 0.323169 33.507022 -31.609767 -17.366166 500.000000
0.164894 0.260000 0.290000 84.978850 -43.920479 109.648019 500.000000
-0.112351 0.260000 0.290000 -10.577499 -26.473014 85.882404 500.000000
