ply
format ascii 1.0
element vertex 240
property float x
property float y
property float z
property float vx
property float vy
property float vz
property float density
end_header
0.260000 0.090000 0.290000 -75.344871 77.685603 29.136173 500.000000
0.260000 0.260000 0.290000 -162.264253 -56.102167 41.324069 500.000000
0.144153 0.260000 0.410000 80.830525 -68.033548 -35.925719 500.000000
0.260000 0.260000 0.410000 -39.516718 -33.414400 -18.266269 500.000000
-0.260000 0.090000 0.290000 90.129794 34.404048 266.361345 500.000000
-0.189323 0.090000 0.410000 -89.864509 180.446053 -87.112936 500.000000
-0.260000 0.090000 0.393052 100.264712 74.912916 14.524989 500.000000
0.260000 0.090000 0.290000 -94.765159 147.876819 181.248719 500.000000
-0.260000 0.090000 0.410000 101.464875 93.772713 -115.545310 500.000000
0.260000 0.090000 0.290000 -156.780966 63.039000 28.682363 500.000000
0.260000 0.260000 0.410000 -95.484072 -76.300330 -41.367734 500.000000
0.260000 0.090000 0.410000 -112.150598 129.767806 -23.735939 500.000000
0.260000 0.090000 0.290000 -98.108921 20.460127 32.117027 500.000000
-0.244390 0.090000 0.410000 -100.877990 170.933956 -93.588566 500.000000
-0.260000 0.090000 0.410000 52.272333 186.424255 -94.951396 500.000000
-0.260000 0.090000 0.290000 83.803766 31.225818 49.476528 500.000000
-0.103723 0.090000 0.290000 31.255449 49.361446 47.397238 500.000000
-0.260000 0.260000 0.410000 160.611065 -161.522221 -98.612263 500.000000
-0.035218 0.090000 0.410000 -59.043518 190.553513 -14.649881 500.000000
-0.164850 0.260000 0.290000 -84.970070 -236.912886 30.330481 500.000000
-0.260000 0.090000 0.290000 167.967218 22.196256 64.348267 500.000000
-0.260000 0.090000 0.410000 241.877550 265.279473 -140.170344 500.000000
-0.260000 0.090000 0.410000 124.252292 142.034349 -72.992120 500.000000
0.055545 0.260000 0.410000 63.109079 -66.917921 -76.867675 500.000000
-0.260000 0.260000 0.410000 94.491045 -159.232503 -45.678501 500.000000
-0.260000 0.090000 0.326115 112.127857 69.901931 1.181226 500.000000
-0.253504 0.090000 0.410000 -102.700756 170.497412 -95.782555 500.000000
-0.260000 0.090000 0.410000 79.514045 77.752591 -24.456993 500.000000
0.260000 0.260000 0.290000 -59.126180 -195.421684 127.782267 500.000000
-0.260000 0.260000 0.410000 88.245026 -159.600929 -65.809293 500.000000
0.260000 0.090000 0.290000 -49.727929 33.939977 25.665615 500.000000
-0.057842 0.090000 0.290000 -63.568333 44.548819 332.798979 500.000000
-0.260000 0.090000 0.391578 37.067514 65.970073 20.315534 500.000000
0.061091 0.090000 0.410000 64.218109 72.932127 -352.150489 500.000000
-0.242744 0.090000 0.410000 -100.548898 169.905229 -93.954703 500.000000
-0.260000 0.090000 0.410000 150.603347 421.057030 -112.225417 500.000000
0.260000 0.090000 0.410000 -24.955502 63.047948 -48.049564 500.000000
-0.124743 0.260000 0.290000 -76.948692 -283.037505 25.376751 500.000000
0.260000 0.090000 0.290000 -87.078999 196.363569 86.743912 500.000000
0.090716 0.090000 0.410000 -33.856730 32.636268 -47.346925 500.000000
-0.202189 0.260000 0.410000 -92.437723 -713.707783 -116.960960 500.000000
0.260000 0.260000 0.290000 -78.394056 -143.342566 54.549610 500.000000
0.134387 0.090000 0.290000 61.823580 56.437753 17.661093 500.000000
-0.260000 0.090000 0.290000 156.514295 568.132335 81.028476 500.000000
-0.165430 0.260000 0.290000 18.914022 -144.907321 46.477184 500.000000
0.260000 0.090000 0.410000 -131.847712 186.634213 -41.853851 500.000000
0.260000 0.090000 0.410000 -67.561407 107.954717 -83.581243 500.000000
0.091933 0.260000 0.290000 21.896448 -17.948069 16.361991 500.000000
0.260000 0.090000 0.290000 -110.620631 304.980418 45.519672 500.000000
-0.260000 0.260000 0.410000 163.994119 -238.233970 -77.798454 500.000000
-0.260000 0.090000 0.410000 142.384645 210.532634 -98.966643 500.000000
-0.260000 0.260000 0.290000 58.181468 -233.312892 33.348461 500.000000
0.199418 0.090000 0.410000 91.883501 95.766107 -109.004847 500.000000
-0.260000 0.090000 0.290000 87.720626 71.986617 53.734944 500.000000
0.260000 0.260000 0.410000 -319.963509 -123.619039 -44.569522 500.000000
0.260000 0.260000 0.410000 -100.712942 -87.808121 -42.040233 500.000000
-0.260000 0.260000 0.290000 59.113280 -240.513296 29.909875 500.000000
-0.260000 0.090000 0.369612 177.770359 111.119447 7.178062 500.000000
0.260000 0.260000 0.290000 -8.248053 -20.399804 53.566408 500.000000
0.158933 0.260000 0.410000 83.786672 -294.253847 -48.149476 500.000000
0.155720 0.260000 0.410000 83.143931 -268.525139 -48.339198 500.000000
0.260000 0.090000 0.290000 -63.697968 259.474912 137.544017 500.000000
-0.102566 0.260000 0.410000 31.486776 -57.684645 -232.344704 500.000000
0.045613 0.090000 0.290000 -42.877416 324.475951 92.865954 500.000000
0.259974 0.090000 0.290000 103.994708 134.409936 25.660258 500.000000
-0.260000 0.090000 0.290000 185.469985 481.827709 177.228918 500.000000
-0.247495 0.260000 0.290000 -101.498929 -237.294609 29.030933 500.000000
0.260000 0.260000 0.410000 -91.623225 -73.790210 -42.247071 500.000000
-0.260000 0.090000 0.410000 80.244212 31.942444 -58.613896 500.000000
-0.260000 0.260000 0.290000 59.105915 -134.838749 113.059718 500.000000
0.260000 0.096286 0.290000 -137.444482 -32.742731 32.778246 500.000000
-0.260000 0.090000 0.290000 777.580931 60.650070 35.366907 500.000000
-0.260000 0.090000 0.410000 137.900233 169.887818 -86.595991 500.000000
0.260000 0.090000 0.290000 -121.675369 32.137311 21.119610 500.000000
0.041980 0.090000 0.368377 -43.604099 23.625069 3.552731 500.000000
0.032979 0.260000 0.290000 58.595766 -142.970229 86.667790 500.000000
0.072552 0.229126 0.290000 5.259786 27.825209 22.175635 500.000000
-0.260000 0.090000 0.410000 53.439846 194.445246 -94.126771 500.000000
-0.260000 0.260000 0.410000 52.134587 -903.673302 -89.086096 500.000000
0.260000 0.090000 0.410000 -74.911404 48.566338 -116.723162 500.000000
0.260000 0.090000 0.290000 -103.313134 29.079814 37.225809 500.000000
-0.260000 0.260000 0.290000 84.282364 -254.211776 59.009755 500.000000
0.260000 0.260000 0.410000 -63.297859 -148.071463 -41.195096 500.000000
-0.260000 0.090000 0.290000 104.431101 66.488160 56.661069 500.000000
0.037287 0.090000 0.290000 20.771398 55.846314 17.051630 500.000000
0.260000 0.260000 0.410000 -71.211884 -30.651588 -44.187690 500.000000
-0.260000 0.260000 0.290000 61.498571 -422.293282 20.559960 500.000000
-0.260000 0.090000 0.290000 54.542065 66.028963 17.709547 500.000000
0.204971 0.090000 0.290000 92.994229 97.074043 113.744367 500.000000
0.175018 0.260000 0.410000 -16.996442 -118.686370 -28.732572 500.000000
-0.260000 0.252837 0.290000 68.636143 32.567394 55.364407 500.000000
-0.260000 0.260000 0.290000 58.201546 -147.840407 232.308362 500.000000
-0.242568 0.090000 0.410000 -100.513526 171.861328 -93.260164 500.000000
-0.141645 0.260000 0.290000 -80.328983 -233.337827 31.686443 500.000000
-0.260000 0.090000 0.410000 143.774547 60.990692 -51.529556 500.000000
-0.248133 0.090000 0.410000 -101.626660 170.844957 -93.266981 500.000000
0.069734 0.260000 0.410000 65.946799 -207.370277 -25.639437 500.000000
-0.216232 0.090000 0.410000 -95.246430 177.764330 -86.686589 500.000000
-0.232778 0.260000 0.410000 -98.555616 -819.965146 -66.450949 500.000000
0.260000 0.090000 0.410000 -398.901083 47.565496 -113.998189 500.000000
0.260000 0.260000 0.410000 -77.523121 -67.900869 -67.522875 500.000000
-0.080890 0.260000 0.336265 -68.177956 -10.714254 -14.747026 500.000000
0.260000 0.090000 0.290000 -91.684118 35.488746 25.189404 500.000000
-0.082274 0.260000 0.410000 35.545126 -91.074738 -63.435154 500.000000
0.238752 0.260000 0.290000 4.903092 -20.030153 28.970139 500.000000
-0.260000 0.090000 0.410000 53.593890 20.763424 -152.773891 500.000000
-0.260000 0.260000 0.410000 100.415552 -176.292590 -175.005080 500.000000
0.023724 0.090000 0.290000 56.744842 380.324851 69.287287 500.000000
-0.260000 0.090000 0.410000 52.429637 169.891985 -94.815099 500.000000
-0.260000 0.090000 0.410000 55.951074 173.355985 -100.412886 500.000000
-0.260000 0.090000 0.410000 77.087235 203.275193 -69.320613 500.000000
0.260000 0.260000 0.290000 -74.891796 -143.180945 58.006135 500.000000
-0.260000 0.260000 0.290000 46.120170 -58.822851 14.255902 500.000000
-0.206571 0.090000 0.290000 -93.314281 18.646022 47.815392 500.000000
0.018278 0.260000 0.410000 55.655551 -139.444452 -152.564152 500.000000
0.260000 0.090000 0.290000 -85.532473 284.426791 175.045434 500.000000
0.061940 0.090000 0.303760 -39.611907 50.137429 -21.247958 500.000000
-0.180185 0.090000 0.290000 -88.037036 23.738463 49.566443 500.000000
0.260000 0.090000 0.290000 -178.525308 54.305473 23.438110 500.000000
0.260000 0.260000 0.410000 -54.438291 -88.412352 -28.479789 500.000000
0.260000 0.090000 0.290000 -101.343690 300.829915 100.444418 500.000000
-0.260000 0.090000 0.290000 58.459180 21.795398 61.106352 500.000000
-0.248453 0.090000 0.410000 -101.690650 180.472887 -94.275872 500.000000
0.260000 0.090000 0.410000 -131.292426 129.988755 -107.768877 500.000000
-0.260000 0.090000 0.410000 196.336070 344.568144 -61.850745 500.000000
-0.260000 0.220008 0.290000 11.451180 26.001689 15.382506 500.000000
-0.260000 0.260000 0.410000 131.463369 -169.142640 -54.570131 500.000000
0.260000 0.260000 0.410000 -35.257303 -7.252936 -15.443712 500.000000
-0.260000 0.090000 0.410000 58.426760 169.020709 -91.645490 500.000000
-0.260000 0.260000 0.290000 163.198310 -85.855196 303.130737 500.000000
-0.253087 0.090000 0.290000 -102.617498 118.450648 928.724522 500.000000
0.022874 0.260000 0.290000 56.574773 -345.786426 62.522015 500.000000
0.260000 0.260000 0.410000 -264.230547 -73.909838 -35.587671 500.000000
-0.260000 0.090000 0.290000 114.841427 68.733707 8.876278 500.000000
0.260000 0.090000 0.290000 -100.420597 68.826086 25.404090 500.000000
0.110677 0.090000 0.290000 1.653997 60.801521 14.168331 500.000000
0.246862 0.260000 0.290000 101.372397 -170.568333 50.921339 500.000000
-0.260000 0.090000 0.290000 74.408660 193.149315 47.482096 500.000000
0.131196 0.260000 0.290000 41.176888 -201.186845 12.421308 500.000000
0.195518 0.090000 0.410000 18.550401 23.212767 -123.409599 500.000000
-0.260000 0.090000 0.290000 70.889127 30.676146 61.245705 500.000000
-0.088881 0.090000 0.291518 -69.776270 361.803290 -23.696304 500.000000
-0.258247 0.260000 0.290000 -103.649307 -234.296637 29.290071 500.000000
-0.247173 0.090000 0.410000 -101.434551 169.867490 -93.924729 500.000000
0.260000 0.260000 0.290000 -53.370213 -102.455299 21.933962 500.000000
0.260000 0.260000 0.290000 -98.161065 -21.359064 27.351738 500.000000
0.138733 0.090000 0.290000 -24.253336 42.526856 247.058627 500.000000
0.260000 0.090000 0.290000 -110.970279 141.658396 62.193493 500.000000
-0.260000 0.110493 0.290000 68.089645 -29.901476 58.085913 500.000000
0.260000 0.224662 0.290000 -38.919277 26.932367 28.759182 500.000000
-0.241740 0.090000 0.410000 -100.347972 170.315747 -93.642035 500.000000
0.260000 0.260000 0.410000 -160.021476 -35.025926 -29.703578 500.000000
0.260000 0.260000 0.410000 -93.122697 -147.726300 -41.766375 500.000000
0.260000 0.260000 0.410000 -151.527336 -31.905276 -37.103646 500.000000
-0.149294 0.090000 0.290000 -81.858832 425.139931 36.872763 500.000000
-0.251789 0.090000 0.410000 -102.357764 170.675917 -94.020609 500.000000
0.260000 0.090000 0.290000 -103.645005 141.703900 124.075948 500.000000
-0.213501 0.090000 0.410000 -94.700235 193.194702 -91.679283 500.000000
-0.260000 0.090000 0.290000 75.308185 57.474072 65.063424 500.000000
-0.217323 0.090000 0.410000 -95.464658 401.258311 -95.024009 500.000000
-0.260000 0.090000 0.290000 94.916722 23.361686 295.350834 500.000000
0.260000 0.090000 0.410000 -95.541165 466.686807 -42.021779 500.000000
-0.105783 0.260000 0.410000 30.843348 -73.405531 -30.604842 500.000000
-0.153648 0.090000 0.290000 -82.729665 440.012065 63.247146 500.000000
0.260000 0.090000 0.410000 -27.623142 16.264309 -27.402086 500.000000
-0.260000 0.090000 0.410000 52.961373 170.342376 -94.592277 500.000000
-0.260000 0.260000 0.410000 55.664397 -114.984719 -47.585994 500.000000
-0.260000 0.090000 0.290000 210.517222 411.152717 94.240433 500.000000
-0.260000 0.260000 0.410000 30.139679 -58.807017 -112.245914 500.000000
0.260000 0.260000 0.290000 -66.931594 -181.586711 10.091769 500.000000
0.260000 0.260000 0.410000 -213.855637 -98.885203 -14.263416 500.000000
-0.217713 0.260000 0.290000 -95.542643 -233.266867 29.321785 500.000000
0.260000 0.091230 0.290000 -118.010878 -33.753968 29.159191 500.000000
-0.260000 0.130639 0.290000 98.846750 -25.872276 47.664249 500.000000
-0.057668 0.090000 0.410000 -63.533512 32.035155 -148.811926 500.000000
0.244648 0.220826 0.290000 29.423007 26.165110 22.402086 500.000000
-0.260000 0.260000 0.410000 118.426649 -156.736008 -92.146886 500.000000
0.260000 0.090000 0.290000 -107.019985 58.529981 30.537306 500.000000
0.260000 0.090000 0.290000 -155.880824 58.904759 28.285951 500.000000
0.260000 0.260000 0.410000 -109.010034 -102.717930 -15.358683 500.000000
-0.260000 0.090000 0.290000 101.904238 69.910948 66.294817 500.000000
-0.260000 0.260000 0.410000 171.132004 -161.888919 -85.327188 500.000000
-0.260000 0.090000 0.290000 82.265015 23.796715 58.431079 500.000000
0.098113 0.260000 0.290000 71.622673 -205.084749 128.057302 500.000000
-0.260000 0.090000 0.410000 53.564711 174.886055 -93.710554 500.000000
0.184264 0.090000 0.410000 88.852795 289.191411 -178.167069 500.000000
-0.138879 0.260000 0.410000 24.224290 -45.331574 -295.359573 500.000000
0.070563 0.260000 0.290000 52.873708 -62.680143 97.435045 500.000000
-0.260000 0.090000 0.290000 66.712870 55.981893 23.900498 500.000000
0.260000 0.182971 0.290000 -14.796053 18.594144 28.692917 500.000000
0.204057 0.260000 0.410000 92.811379 -250.056461 -52.957092 500.000000
0.260000 0.260000 0.290000 -33.524759 -17.392065 17.875589 500.000000
-0.234291 0.090000 0.410000 -98.858143 169.923861 -93.678650 500.000000
0.260000 0.090000 0.290000 -115.477584 62.672839 28.448280 500.000000
0.260000 0.260000 0.410000 -53.995267 -67.664591 -107.298270 500.000000
0.260000 0.260000 0.410000 -102.640509 -86.105005 -42.352443 500.000000
0.260000 0.260000 0.290000 -53.318606 -339.461946 50.825332 500.000000
-0.260000 0.090000 0.290000 87.767281 68.352218 56.884839 500.000000
0.260000 0.090000 0.290000 -190.646861 72.434393 26.292017 500.000000
-0.084368 0.090000 0.290000 -68.873640 28.748818 213.964170 500.000000
0.214998 0.260000 0.290000 94.999524 -291.110707 150.925666 500.000000
0.260000 0.090000 0.290000 -153.939603 62.671939 28.558342 500.000000
-0.260000 0.260000 0.410000 89.765952 -173.394678 -54.116958 500.000000
0.260000 0.260000 0.290000 -57.465301 -18.392285 19.858779 500.000000
-0.260000 0.090000 0.410000 66.413189 167.292438 -93.650465 500.000000
0.260000 0.260000 0.290000 -88.122466 -326.639902 54.405149 500.000000
0.260000 0.090000 0.290000 -186.274366 62.737753 34.109572 500.000000
-0.260000 0.090000 0.410000 65.209292 174.801908 -127.804132 500.000000
0.260000 0.090000 0.290000 -103.410045 23.920023 42.525379 500.000000
0.260000 0.090000 0.410000 -538.457483 41.890731 -27.876919 500.000000
0.260000 0.193334 0.349741 -23.651583 -13.333246 11.948277 500.000000
0.260000 0.260000 0.410000 -122.251923 -61.452347 -29.293967 500.000000
0.123606 0.260000 0.410000 76.721274 -67.185762 -33.976831 500.000000
-0.137079 0.260000 0.290000 -79.415731 -235.275005 31.170076 500.000000
0.260000 0.090000 0.290000 -80.508334 60.957646 33.802364 500.000000
0.260000 0.090000 0.290000 -117.804746 59.924947 28.391081 500.000000
-0.242355 0.175298 0.290000 -76.411740 17.059543 34.465432 500.000000
0.260000 0.090000 0.290000 -77.409348 152.268515 91.220809 500.000000
0.217026 0.090000 0.290000 95.405245 67.589925 13.771665 500.000000
-0.260000 0.090000 0.290000 185.621824 97.455566 89.085485 500.000000
0.260000 0.260000 0.410000 -105.984424 -76.296471 -41.620343 500.000000
-0.260000 0.090000 0.290000 63.787553 28.151405 58.127353 500.000000
0.260000 0.090000 0.290000 -78.036054 67.654865 25.703224 500.000000
-0.260000 0.260000 0.290000 135.261156 -235.931073 24.841102 500.000000
-0.260000 0.260000 0.410000 54.985548 -978.758559 -137.666662 500.000000
-0.087964 0.260000 0.410000 -69.592891 -306.459923 -59.835410 500.000000
0.136125 0.260000 0.290000 79.225020 -195.521007 136.018502 500.000000
-0.146190 0.260000 0.410000 -81.238017 -503.701042 -38.120310 500.000000
0.260000 0.220190 0.290000 -31.390438 26.038021 22.473211 500.000000
0.260000 0.260000 0.290000 -27.376288 -223.560034 24.952974 500.000000
-0.260000 0.260000 0.290000 31.914003 -81.496726 92.018967 500.000000
0.178043 0.090000 0.290000 87.608544 58.618210 30.421130 500.000000
-0.260000 0.090000 0.290000 81.119815 18.142060 49.598102 500.000000
0.260000 0.090000 0.290000 -98.301346 19.866692 33.048038 500.000000
0.260000 0.260000 0.410000 -23.458726 -125.238033 -332.166149 500.000000
-0.260000 0.090000 0.410000 56.363557 65.542266 -27.331221 500.000000
-0.003084 0.090000 0.290000 -52.616886 32.487391 58.375198 500.000000
-0.260000 0.260000 0.290000 105.951982 -244.754686 73.664764 500.000000
0.260000 0.090000 0.410000 -260.876595 92.554351 -108.958886 500.000000
-0.082389 0.090000 0.290000 -68.477707 57.191778 64.168696 500.000000
