ply
format ascii 1.0
element vertex 240
property float x
property float y
property float z
property float vx
property float vy
property float vz
property float density
end_header
0.260000 0.186201 0.312024 -156.647302 19.240197 -19.595213 500.000000
0.260000 0.090000 0.323527 -148.151917 63.223468 -17.294506 500.000000
0.260000 0.090000 0.410000 -67.432923 50.103368 -98.936690 500.000000
-0.260000 0.260000 0.410000 428.393327 -34.501253 -42.547200 500.000000
-0.260000 0.260000 0.290000 65.639255 -28.147391 12.533647 500.000000
0.260000 0.090000 0.290000 -63.608573 70.176012 62.857884 500.000000
-0.260000 0.260000 0.290000 886.937866 -277.255665 20.683240 500.000000
0.260000 0.090000 0.290000 -173.437176 35.778378 16.391029 500.000000
0.260000 0.090000 0.410000 -253.699664 7.392528 -18.284844 500.000000
0.260000 0.260000 0.410000 -408.845875 -246.365291 -83.824469 500.000000
0.260000 0.090000 0.290000 -140.394574 58.672775 17.395717 500.000000
0.260000 0.260000 0.290000 -168.059922 -34.768110 22.788449 500.000000
-0.260000 0.260000 0.410000 606.543964 -200.388021 -132.499694 500.000000
0.260000 0.260000 0.290000 -258.298775 -108.854893 55.544800 500.000000
0.260000 0.090000 0.290000 -215.892756 38.633247 16.216767 500.000000
0.260000 0.132485 0.290000 -32.384860 -25.503015 39.316220 500.000000
0.098833 0.090000 0.290000 71.766623 57.842431 114.776991 500.000000
0.260000 0.090000 0.290000 -213.302756 46.741210 16.120628 500.000000
-0.260000 0.260000 0.355414 19.276542 -33.598255 -10.917264 500.000000
-0.260000 0.090000 0.410000 101.576455 660.288498 -64.901646 500.000000
-0.260000 0.260000 0.308475 316.746126 -182.695573 -20.305082 500.000000
-0.260000 0.090000 0.290000 103.105015 99.777992 58.787139 500.000000
0.260000 0.090000 0.290000 -142.543936 35.722857 98.399917 500.000000
0.260000 0.090000 0.410000 -104.203455 520.739003 -39.243571 500.000000
0.260000 0.090000 0.290000 -226.896878 45.597134 18.966314 500.000000
-0.260000 0.260000 0.290000 828.983240 -21.722923 22.081462 500.000000
-0.260000 0.260000 0.290000 58.361850 -114.424554 293.535071 500.000000
-0.260000 0.260000 0.290000 937.267030 -59.352821 23.422511 500.000000
0.260000 0.090000 0.321953 -139.361622 54.923490 -17.609337 500.000000
0.260000 0.090000 0.290000 -145.261635 54.729258 13.823799 500.000000
-0.260000 0.090000 0.327552 112.232856 70.631989 -16.489573 500.000000
-0.260000 0.260000 0.290000 79.615888 -725.101706 31.918191 500.000000
-0.260000 0.090000 0.398673 147.512939 26.873229 21.734681 500.000000
-0.109313 0.260000 0.410000 -73.862558 -323.485428 -47.807302 500.000000
-0.260000 0.260000 0.290000 61.377195 -38.464040 59.072298 500.000000
-0.260000 0.090000 0.290000 103.680235 91.611065 58.529859 500.000000
0.260000 0.260000 0.410000 -156.521556 -209.800359 -56.452382 500.000000
-0.168903 0.260000 0.290000 -85.780614 -35.239350 324.695386 500.000000
-0.260000 0.090000 0.410000 59.639201 478.205841 -75.672486 500.000000
-0.260000 0.260000 0.410000 77.283953 -332.699354 -101.838852 500.000000
-0.051370 0.090000 0.410000 20.507803 37.128428 -76.289214 500.000000
0.260000 0.090000 0.323345 -185.133743 76.075309 -17.330987 500.000000
0.260000 0.260000 0.410000 -197.872536 -269.414717 -103.213983 500.000000
-0.260000 0.090000 0.290000 103.181110 91.613514 56.930873 500.000000
-0.021834 0.090000 0.410000 -56.366794 21.053638 -45.663485 500.000000
-0.260000 0.090000 0.290000 54.500016 218.696398 49.556372 500.000000
0.260000 0.090000 0.410000 -116.517467 22.942853 -23.353051 500.000000
0.260000 0.090000 0.290000 -171.304141 55.192750 19.920763 500.000000
-0.260000 0.090000 0.290000 115.964963 91.087327 57.147749 500.000000
0.260000 0.260000 0.290000 -170.991199 -21.048900 14.213252 500.000000
0.155427 0.090000 0.410000 83.085340 28.734764 -23.408010 500.000000
0.260000 0.090000 0.323340 -161.952071 72.863682 -17.331981 500.000000
-0.260000 0.090000 0.398926 106.681068 26.547327 21.785234 500.000000
0.260000 0.129789 0.410000 -63.308361 -26.042224 -12.699112 500.000000
-0.260000 0.260000 0.290000 54.166498 -18.367376 141.299168 500.000000
-0.260000 0.260000 0.290000 87.024399 -33.540983 18.980701 500.000000
-0.260000 0.090000 0.410000 97.612851 21.186447 -32.096717 500.000000
0.260000 0.090000 0.290000 -199.301737 38.882226 16.116166 500.000000
0.260000 0.090000 0.290000 -190.413147 357.772504 61.373276 500.000000
0.260000 0.260000 0.410000 -183.979952 -191.690407 -31.682935 500.000000
0.260000 0.260000 0.410000 -182.751973 -194.290202 -31.704054 500.000000
-0.260000 0.090000 0.290000 107.413667 90.971447 55.693934 500.000000
0.260000 0.208762 0.290000 -194.349257 23.752374 23.485431 500.000000
-0.260000 0.090000 0.290000 104.754981 101.278756 56.865687 500.000000
-0.260000 0.090000 0.410000 54.515130 43.030114 -111.017473 500.000000
-0.260000 0.090000 0.290000 102.795357 92.668479 55.588591 500.000000
0.260000 0.090000 0.410000 -157.172249 482.856855 -47.581880 500.000000
-0.260000 0.260000 0.290000 61.878890 -33.489447 45.542210 500.000000
-0.260000 0.260000 0.410000 108.495911 -332.901443 -75.996669 500.000000
0.260000 0.260000 0.295641 -167.916758 -32.177624 -22.871754 500.000000
-0.260000 0.090000 0.410000 47.468584 25.142407 -35.928970 500.000000
-0.260000 0.260000 0.315880 226.974029 -57.425757 -18.824004 500.000000
0.260000 0.090000 0.397400 -27.245215 27.175145 21.480072 500.000000
0.260000 0.260000 0.330337 -19.666338 -14.671968 -15.932549 500.000000
-0.260000 0.090000 0.410000 81.339762 419.565299 -76.786362 500.000000
-0.260000 0.090000 0.290000 171.473710 323.913544 49.237567 500.000000
-0.260000 0.090000 0.410000 228.584119 450.727303 -32.358330 500.000000
-0.260000 0.090000 0.367929 190.733388 33.757577 15.585803 500.000000
0.260000 0.260000 0.290000 -177.203111 -259.100417 18.277146 500.000000
0.260000 0.090000 0.410000 -29.294218 17.517617 -15.608199 500.000000
-0.260000 0.090000 0.308270 935.030654 54.944063 -20.346009 500.000000
0.042440 0.260000 0.290000 -43.511936 -67.628594 306.631554 500.000000
0.260000 0.090000 0.290000 -98.367658 47.198737 48.763814 500.000000
-0.260000 0.260000 0.410000 40.403544 -115.162555 -62.291015 500.000000
0.260000 0.260000 0.410000 -215.788952 -193.715496 -31.492240 500.000000
-0.260000 0.260000 0.290000 63.237468 -38.546304 56.545716 500.000000
0.260000 0.260000 0.305374 -285.736864 -19.690056 -20.925218 500.000000
0.260000 0.260000 0.290000 -170.888572 -156.227907 25.972859 500.000000
0.260000 0.090000 0.290000 -210.520332 28.135658 162.684365 500.000000
0.260000 0.260000 0.410000 -161.810587 -239.935214 -126.323930 500.000000
-0.260000 0.090000 0.290000 201.167577 371.300672 48.487951 500.000000
0.260000 0.153568 0.290000 -149.713178 12.713563 36.180460 500.000000
0.260000 0.260000 0.290000 -234.925549 -227.800482 13.423684 500.000000
0.260000 0.090000 0.322523 -150.310902 75.570649 -17.495328 500.000000
0.260000 0.090000 0.290000 -62.110392 246.716643 341.656496 500.000000
0.260000 0.260000 0.290000 -306.311301 -97.439863 14.298018 500.000000
0.260000 0.260000 0.410000 -176.223778 -217.802154 -29.262658 500.000000
-0.260000 0.260000 0.290000 68.333702 -38.736872 55.359763 500.000000
0.260000 0.260000 0.290000 -172.830765 -199.070145 27.929642 500.000000
0.260000 0.090000 0.290000 -26.247254 24.736528 109.915696 500.000000
0.260000 0.090000 0.410000 -129.529912 68.934158 -111.358148 500.000000
0.260000 0.090000 0.323339 -140.317640 70.172806 -17.332110 500.000000
-0.260000 0.260000 0.343359 108.198596 -38.936167 -13.328291 500.000000
0.260000 0.090000 0.410000 -59.204773 50.731341 -12.349378 500.000000
0.260000 0.090000 0.290000 -255.389750 154.556658 13.618861 500.000000
-0.260000 0.260000 0.410000 121.164566 -367.940226 -206.067336 500.000000
0.260000 0.090000 0.410000 -75.168414 23.143153 -23.385954 500.000000
-0.260000 0.090000 0.290000 213.285377 151.624126 49.332199 500.000000
-0.260000 0.260000 0.290000 60.995788 -36.765144 169.438393 500.000000
-0.260000 0.090000 0.397384 190.664977 26.935379 21.476857 500.000000
-0.260000 0.090000 0.290000 104.369968 116.423533 58.273918 500.000000
0.260000 0.090000 0.326531 -140.706935 57.125939 -16.693754 500.000000
-0.260000 0.260000 0.318235 365.644192 -42.497395 -18.353029 500.000000
-0.260000 0.260000 0.312961 150.945701 -145.206025 -19.407772 500.000000
0.260000 0.260000 0.410000 -40.917155 -65.665466 -126.964825 500.000000
-0.260000 0.090000 0.290000 385.407553 191.126447 48.772342 500.000000
0.260000 0.090000 0.323494 -140.291471 57.944606 -17.301229 500.000000
0.260000 0.187453 0.290000 -148.150987 19.490558 20.534537 500.000000
0.166579 0.090000 0.410000 85.315777 27.511855 -68.547771 500.000000
-0.257341 0.214160 0.410000 -20.927610 24.831947 -14.796779 500.000000
-0.260000 0.090000 0.290000 130.740926 91.603008 50.651784 500.000000
-0.260000 0.090000 0.410000 123.834325 46.442008 -101.471035 500.000000
0.260000 0.090000 0.290000 -214.363858 41.509495 18.940153 500.000000
0.260000 0.260000 0.290000 -204.614446 -25.902749 26.996593 500.000000
-0.260000 0.090000 0.290000 103.469743 96.935973 58.298237 500.000000
-0.260000 0.090000 0.410000 52.275303 528.745271 -63.752141 500.000000
-0.260000 0.090000 0.290000 99.129077 150.476352 153.783009 500.000000
-0.260000 0.260000 0.290000 65.384077 -30.804907 54.737311 500.000000
-0.245702 0.090000 0.290000 -101.140380 41.002666 93.286385 500.000000
0.260000 0.260000 0.410000 -105.989396 -26.743472 -19.436865 500.000000
0.260000 0.260000 0.290000 -59.037021 -73.904381 85.108608 500.000000
0.260000 0.260000 0.313158 -212.266375 -44.571922 -19.368496 500.000000
0.260000 0.090000 0.290000 -642.817104 101.208322 127.946119 500.000000
-0.260000 0.260000 0.290000 748.126978 -26.933565 22.455301 500.000000
0.058697 0.260000 0.410000 -40.260588 -330.239990 -44.286953 500.000000
-0.260000 0.260000 0.410000 56.664296 -435.263426 -43.458628 500.000000
-0.260000 0.260000 0.410000 60.077963 -326.776927 -103.024025 500.000000
0.155017 0.260000 0.290000 3.463243 -81.614334 18.285524 500.000000
0.100026 0.117490 0.410000 14.003880 -8.961659 -69.336907 500.000000
-0.260000 0.090000 0.290000 105.040882 118.635442 59.278972 500.000000
-0.260000 0.090000 0.410000 156.070854 62.948523 -119.341404 500.000000
-0.260000 0.090000 0.309659 684.490065 80.630743 -20.068167 500.000000
0.260000 0.090000 0.318969 -160.399869 196.427426 -18.206159 500.000000
-0.260000 0.260000 0.290000 78.532388 -33.620414 55.231973 500.000000
-0.260000 0.260000 0.410000 86.571809 -351.261394 -47.461158 500.000000
0.260000 0.222928 0.290000 -145.959877 26.585694 37.086102 500.000000
0.260000 0.090000 0.290000 -215.382377 43.286108 16.114390 500.000000
0.260000 0.090000 0.290000 -198.502087 41.367439 18.337922 500.000000
0.083634 0.090000 0.410000 33.304951 10.920611 -26.804720 500.000000
0.260000 0.090000 0.410000 -146.312856 556.328768 -31.789748 500.000000
0.260000 0.260000 0.290000 -224.308463 -29.562861 62.402822 500.000000
-0.260000 0.260000 0.290000 177.846916 -35.476246 55.348735 500.000000
0.260000 0.260000 0.290000 -170.292772 -22.438853 21.774979 500.000000
0.260000 0.253155 0.290000 -77.194168 32.631060 42.662771 500.000000
-0.260000 0.090000 0.410000 101.991987 125.075651 -881.285665 500.000000
-0.260000 0.260000 0.290000 76.270435 -137.317561 67.531098 500.000000
0.260000 0.090000 0.290000 -182.771647 36.090225 16.797799 500.000000
-0.260000 0.090000 0.393099 222.579783 30.187891 20.619803 500.000000
0.260000 0.260000 0.297441 -258.696774 -73.317558 -22.511790 500.000000
-0.260000 0.090000 0.290000 81.969731 89.088574 106.514114 500.000000
-0.236421 0.090000 0.290000 -69.403796 46.044244 91.111387 500.000000
0.260000 0.260000 0.410000 -20.805184 -80.588978 -43.141979 500.000000
0.260000 0.159817 0.298159 -313.453513 13.963409 -22.368285 500.000000
-0.260000 0.090000 0.290000 251.409910 96.745622 57.415462 500.000000
-0.260000 0.090000 0.410000 87.742043 363.615684 -64.836708 500.000000
0.260000 0.260000 0.290000 -581.821146 -32.978329 184.281662 500.000000
0.260000 0.260000 0.410000 -154.318715 -191.854727 -64.343315 500.000000
-0.260000 0.090000 0.290000 102.934681 97.094637 56.839224 500.000000
-0.260000 0.090000 0.410000 70.254148 380.975324 -68.441641 500.000000
-0.260000 0.260000 0.410000 73.785721 -345.233882 -48.303574 500.000000
0.260000 0.090000 0.290000 -43.490389 97.320795 109.980129 500.000000
0.260000 0.090000 0.321757 -154.654162 66.014235 -17.648594 500.000000
0.260000 0.260000 0.410000 -185.309215 -196.971734 -31.731145 500.000000
-0.026348 0.149821 0.304679 -13.629233 -12.362616 2.935797 500.000000
-0.260000 0.260000 0.410000 96.736082 -337.262805 -171.487415 500.000000
-0.260000 0.090000 0.410000 110.474152 681.443206 -61.375242 500.000000
0.260000 0.090000 0.410000 -84.520856 49.793545 -157.432096 500.000000
-0.260000 0.090000 0.410000 63.034512 29.380755 -29.226365 500.000000
0.260000 0.260000 0.410000 -194.068803 -191.614054 -33.167937 500.000000
-0.260000 0.260000 0.290000 78.893301 -36.742460 44.008164 500.000000
-0.260000 0.260000 0.315876 260.197417 -121.005578 -18.824862 500.000000
0.260000 0.090000 0.290000 -144.748953 111.733171 15.302366 500.000000
0.260000 0.090115 0.410000 -119.405344 -33.977079 -24.628225 500.000000
0.260000 0.090000 0.410000 -102.208414 589.810785 -40.959903 500.000000
-0.260000 0.260000 0.290000 57.993316 -677.368070 27.753396 500.000000
-0.260000 0.090000 0.388875 239.220092 35.898504 19.775048 500.000000
-0.260000 0.090000 0.410000 30.937464 24.627754 -67.580148 500.000000
0.260000 0.090000 0.304408 -237.297679 47.234526 -21.118412 500.000000
-0.260000 0.090000 0.290000 188.260792 225.846409 52.836368 500.000000
0.260000 0.090000 0.410000 -142.944217 21.444730 -23.283457 500.000000
0.260000 0.260000 0.410000 -181.410770 -199.689340 -31.724957 500.000000
-0.260000 0.260000 0.313169 81.196655 -39.383142 -19.366222 500.000000
-0.260000 0.260000 0.290000 41.518547 -24.735939 23.668338 500.000000
0.260000 0.260000 0.410000 -409.799340 -191.600174 -53.797655 500.000000
0.260000 0.090000 0.410000 -139.787468 73.389202 -108.997882 500.000000
0.260000 0.260000 0.290000 -172.078777 -43.142528 21.914897 500.000000
-0.260000 0.260000 0.308945 79.108223 -36.386482 -20.210942 500.000000
-0.235789 0.260000 0.410000 -99.157896 -327.297771 -76.112144 500.000000
-0.260000 0.260000 0.410000 55.398558 -327.070365 -158.847875 500.000000
0.260000 0.260000 0.290000 -126.616062 -117.761251 19.845351 500.000000
-0.260000 0.260000 0.298717 36.135251 -63.896851 -22.256654 500.000000
-0.215410 0.260000 0.410000 -95.081953 -333.416762 -66.975660 500.000000
-0.260000 0.239049 0.290000 28.652488 29.809799 35.565289 500.000000
0.260000 0.090000 0.290000 -238.029729 90.922412 15.352411 500.000000
0.260000 0.260000 0.290000 -67.905486 -79.765925 58.174574 500.000000
-0.260000 0.090000 0.410000 97.952465 16.051115 -21.345957 500.000000
0.260000 0.260000 0.322482 -399.703036 -353.859843 -17.503564 500.000000
-0.260000 0.260000 0.410000 542.275676 -125.952248 -34.099833 500.000000
-0.260000 0.090000 0.290532 910.302619 55.071316 -23.893533 500.000000
-0.260000 0.260000 0.290000 242.842863 -25.074017 178.986167 500.000000
-0.260000 0.090000 0.410000 56.285645 302.615677 -69.996627 500.000000
-0.260000 0.260000 0.290000 50.035269 -18.521981 23.124310 500.000000
0.260000 0.090000 0.410000 -132.000643 553.881058 -39.553143 500.000000
-0.260000 0.090000 0.410000 102.519931 451.247123 -151.233980 500.000000
-0.260000 0.260000 0.315143 133.002725 -56.642799 -18.971445 500.000000
0.059216 0.260000 0.410000 -40.156799 -322.470179 -46.653817 500.000000
-0.260000 0.189622 0.290000 190.841360 19.924401 31.888933 500.000000
-0.255803 0.090000 0.323819 -45.527725 53.028590 -17.236126 500.000000
0.162605 0.260000 0.290000 20.777587 -29.995235 43.127141 500.000000
0.260000 0.090000 0.290000 -130.833376 18.516376 17.623140 500.000000
0.260000 0.090000 0.290000 -139.958681 58.177885 49.918719 500.000000
0.058996 0.090000 0.410000 38.303021 45.437649 -32.073321 500.000000
-0.260000 0.260000 0.410000 146.306543 -338.423929 -83.398316 500.000000
-0.260000 0.090000 0.323307 987.054994 68.501990 -17.338688 500.000000
0.260000 0.260000 0.410000 -309.950829 -201.923691 -25.726763 500.000000
-0.065316 0.260000 0.410000 -65.063293 -354.462189 -61.855172 500.000000
0.260000 0.090000 0.327798 -140.033512 70.886708 -16.440360 500.000000
0.057814 0.260000 0.410000 31.777390 -11.969295 -7.421697 500.000000
-0.260000 0.090000 0.410000 150.131803 611.048929 -70.512638 500.000000
0.260000 0.260000 0.307740 -248.714555 -20.360915 -20.452033 500.000000
0.173118 0.110381 0.410000 86.623547 -29.923815 -36.962602 500.000000
-0.260000 0.090000 0.410000 71.651438 27.964246 -14.324693 500.000000
-0.260000 0.260000 0.315136 232.569573 -281.496901 -18.972776 500.000000
-0.260000 0.260000 0.410000 631.223042 -124.278028 -251.904659 500.000000
0.212136 0.260000 0.410000 94.427115 -11.099846 -8.953564 500.000000
0.260000 0.090000 0.386719 -64.862165 49.169987 19.343796 500.000000
0.112272 0.090000 0.410000 74.454328 29.327174 -63.873425 500.000000
0.260000 0.260000 0.410000 -54.206999 -59.608575 -14.971648 500.000000
0.260000 0.090000 0.387238 -287.392824 24.426239 19.447681 500.000000
0.260000 0.260000 0.296063 -257.451628 -30.327642 -22.787416 500.000000
