ply
format ascii 1.0
element vertex 240
property float x
property float y
property float z
property float vx
property float vy
property float vz
property float density
end_header
-0.260000 0.260000 0.406777 284.411126 -146.087769 23.355330 500.000000
-0.260000 0.260000 0.353774 198.650800 -135.492023 12.754808 500.000000
-0.260000 0.260000 0.410000 201.814402 -205.682522 -23.817685 500.000000
-0.260000 0.260000 0.290000 45.775900 -45.227536 35.005562 500.000000
-0.260000 0.260000 0.410000 188.574944 -133.914831 -14.817148 500.000000
0.164010 0.090000 0.410000 84.801919 72.361749 -36.354827 500.000000
0.260000 0.260000 0.410000 -167.286394 -26.680887 -14.169243 500.000000
0.260000 0.220836 0.410000 -825.149929 26.167280 -24.010532 500.000000
-0.032231 0.260000 0.290000 -1.228723 -15.477665 33.370487 500.000000
-0.260000 0.218062 0.410000 420.320376 25.612428 -23.713466 500.000000
-0.095643 0.260000 0.410000 32.871476 -133.288448 -20.716195 500.000000
-0.144425 0.260000 0.410000 23.114905 -783.310377 -31.065491 500.000000
0.260000 0.218288 0.410000 -741.272605 25.657558 -23.720078 500.000000
0.198303 0.090000 0.410000 91.660602 72.721566 -44.524981 500.000000
-0.260000 0.090000 0.410000 243.432496 235.096310 -236.148392 500.000000
-0.260000 0.260000 0.409108 277.238167 -128.695457 23.821567 500.000000
-0.087474 0.090000 0.290000 34.505279 22.420666 387.835241 500.000000
0.053065 0.260000 0.290000 62.612963 -198.859043 15.270461 500.000000
0.260000 0.090000 0.290000 -15.804801 20.366266 11.168247 500.000000
0.260000 0.090000 0.410000 -82.161753 69.740992 -41.957378 500.000000
0.260000 0.090000 0.410000 -159.725025 69.007414 -38.033167 500.000000
0.258070 0.090000 0.290000 103.613987 58.487036 37.027476 500.000000
-0.260000 0.260000 0.290000 55.367125 -11.961393 33.548836 500.000000
-0.260000 0.260000 0.410000 605.708258 -29.303925 -231.249630 500.000000
-0.260000 0.090000 0.290000 74.923727 81.911767 123.846542 500.000000
0.260000 0.260000 0.290000 -152.285997 -75.681835 246.508113 500.000000
0.128127 0.090000 0.347723 77.625386 135.246662 -12.455471 500.000000
-0.152282 0.090000 0.410000 -26.179514 19.595279 -371.320928 500.000000
-0.260000 0.090000 0.290000 67.747567 81.244119 159.835699 500.000000
-0.260000 0.090000 0.290000 83.632653 81.912484 123.885756 500.000000
-0.260000 0.260000 0.408460 187.304934 -133.292851 23.692056 500.000000
-0.071029 0.090000 0.410000 -66.205900 146.681462 -12.859756 500.000000
-0.260000 0.090000 0.410000 54.018787 94.761184 -22.018469 500.000000
0.006164 0.090000 0.410000 53.232744 127.262876 -61.650953 500.000000
0.260000 0.168963 0.317885 -26.528983 -18.207494 -9.441212 500.000000
0.260000 0.260000 0.290000 -74.486041 -45.264085 35.146973 500.000000
0.126091 0.090000 0.290000 30.727063 59.084667 196.555265 500.000000
-0.260000 0.090000 0.410000 72.370088 78.374708 -25.658988 500.000000
0.260000 0.248856 0.410000 -66.588523 31.771254 -12.878427 500.000000
0.260000 0.090000 0.290000 -31.389590 29.418018 179.962759 500.000000
-0.256788 0.090000 0.410000 -103.357548 71.646373 -109.649971 500.000000
0.178635 0.090000 0.410000 87.726920 69.690061 -41.945201 500.000000
-0.260000 0.260000 0.290000 83.981923 -82.854233 263.819720 500.000000
-0.260000 0.260000 0.355914 303.530812 -128.829959 13.182832 500.000000
0.150154 0.260000 0.410000 -7.586051 -59.092559 -19.317552 500.000000
-0.260000 0.090000 0.410000 73.624446 118.099795 -23.476762 500.000000
0.260000 0.090000 0.410000 -132.586074 90.342982 -90.759619 500.000000
-0.086163 0.090000 0.410000 -69.232631 113.075839 -155.573732 500.000000
0.260000 0.223585 0.410000 -55.266043 26.717085 -23.746198 500.000000
0.260000 0.260000 0.372217 -140.425348 -22.370936 16.443445 500.000000
0.130372 0.260000 0.290000 78.074454 -22.051703 34.497037 500.000000
-0.260000 0.090000 0.410000 57.107035 77.923309 -28.705471 500.000000
-0.260000 0.260000 0.410000 219.743880 -347.559202 -31.870324 500.000000
-0.260000 0.260000 0.400936 210.049097 -133.765915 22.187214 500.000000
0.260000 0.260000 0.337769 -52.668414 -49.674468 -14.446190 500.000000
0.142005 0.260000 0.306504 80.400965 -140.417554 -20.699181 500.000000
0.071426 0.260000 0.316672 31.826927 -56.274007 -18.665610 500.000000
-0.260000 0.218168 0.410000 420.341692 25.633527 -24.843165 500.000000
-0.260000 0.260000 0.410000 221.274188 -131.794508 -19.000197 500.000000
0.218420 0.090000 0.410000 95.684021 68.815462 -48.968984 500.000000
-0.260000 0.090000 0.290000 88.880273 82.124644 123.851723 500.000000
0.186730 0.235560 0.410000 89.346000 29.112004 -12.581439 500.000000
0.260000 0.191844 0.393312 -47.750170 -13.631189 20.662455 500.000000
0.260000 0.260000 0.410000 -195.816258 -31.902290 -23.898273 500.000000
-0.260000 0.260000 0.404198 251.980023 -148.062407 22.839678 500.000000
0.260000 0.260000 0.410000 -860.819885 -130.679186 -23.924220 500.000000
0.260000 0.090000 0.410000 -100.226134 71.094573 -47.131376 500.000000
0.260000 0.090000 0.410000 -326.426599 42.171939 -251.587749 500.000000
-0.161009 0.090000 0.410000 -84.201877 74.851747 -124.187914 500.000000
0.260000 0.260000 0.290000 -31.962239 -23.507277 150.342090 500.000000
-0.260000 0.260000 0.290000 7.928401 -16.536678 14.006622 500.000000
0.144646 0.235676 0.410000 80.929274 29.135298 -13.262395 500.000000
-0.260000 0.090000 0.290000 44.145724 10.280810 33.985074 500.000000
-0.260000 0.090000 0.290000 66.249291 103.260189 131.432504 500.000000
0.260000 0.090000 0.373804 -35.914987 74.580673 16.760786 500.000000
-0.260000 0.090000 0.410000 54.863823 78.168349 -25.306860 500.000000
-0.260000 0.249633 0.410000 517.208775 31.926645 -33.095564 500.000000
-0.260000 0.090000 0.410000 179.009830 321.920239 -63.353671 500.000000
-0.260000 0.090000 0.290000 75.119382 81.977457 123.966957 500.000000
0.260000 0.260000 0.410000 -540.094385 -216.335738 -19.620021 500.000000
0.260000 0.218353 0.410000 -397.152992 25.670592 -23.730035 500.000000
-0.260000 0.260000 0.290000 173.002534 -474.184643 75.799182 500.000000
-0.260000 0.090000 0.410000 64.928728 75.679066 -30.210406 500.000000
-0.260000 0.260000 0.410000 225.042179 -133.776479 -17.053810 500.000000
-0.260000 0.090000 0.410000 62.741648 85.030554 -30.444116 500.000000
0.181940 0.090000 0.410000 88.387914 69.961870 -45.416920 500.000000
-0.260000 0.090000 0.290000 133.140573 16.519606 13.749687 500.000000
0.251380 0.090000 0.290000 102.275970 167.099824 112.373385 500.000000
-0.260000 0.260000 0.405802 209.856081 -133.681521 23.160341 500.000000
-0.173352 0.090000 0.410000 -86.670336 81.464965 -188.255071 500.000000
-0.260000 0.231949 0.410000 418.645108 28.389823 -23.505333 500.000000
0.260000 0.260000 0.410000 -200.737631 -61.373687 -12.063754 500.000000
0.137805 0.260000 0.379201 -24.438933 -265.675211 17.840162 500.000000
0.260000 0.260000 0.290000 -53.715300 -29.667917 94.759691 500.000000
0.260000 0.090000 0.290000 -59.534162 185.469373 34.132977 500.000000
0.209608 0.090000 0.410000 93.921518 73.459458 -34.581636 500.000000
-0.118380 0.090000 0.290000 -75.675967 80.270787 43.022477 500.000000
0.230856 0.090000 0.410000 98.171212 71.955658 -41.447005 500.000000
-0.260000 0.260000 0.305183 68.375999 -221.904827 -20.963453 500.000000
0.139735 0.090000 0.325903 79.946922 149.909905 -16.819388 500.000000
-0.260000 0.090000 0.290000 28.469013 41.368538 223.458282 500.000000
-0.053331 0.090000 0.410000 -62.666266 265.139717 -15.589804 500.000000
0.260000 0.246320 0.410000 -69.906412 31.264084 -12.758537 500.000000
-0.260000 0.260000 0.410000 211.890666 -270.590435 -140.260972 500.000000
-0.095486 0.260000 0.290000 32.902755 -48.835933 184.975973 500.000000
-0.243764 0.090000 0.410000 -100.752842 68.330245 -132.609060 500.000000
-0.260000 0.090000 0.290000 76.917536 78.783542 125.443027 500.000000
0.260000 0.260000 0.410000 -565.479828 -80.080349 -23.549145 500.000000
-0.260000 0.090000 0.410000 220.116860 391.217905 -192.708016 500.000000
-0.260000 0.131013 0.290000 116.298075 2.006200 26.172332 500.000000
0.260000 0.090000 0.290000 -34.023153 30.297615 69.891418 500.000000
0.260000 0.260000 0.290000 -68.668335 -47.008612 97.616808 500.000000
-0.260000 0.159841 0.410000 11.505829 13.968143 -7.174046 500.000000
0.109980 0.260000 0.290000 73.996003 -137.842040 17.500603 500.000000
-0.260000 0.090000 0.290000 77.764343 81.756140 125.396403 500.000000
0.260000 0.250308 0.410000 -66.438622 32.061671 -13.050418 500.000000
-0.260000 0.260000 0.290000 6.223973 -10.828587 9.825074 500.000000
-0.119485 0.260000 0.410000 -75.896963 -60.674770 -79.532656 500.000000
0.260000 0.260000 0.290000 -68.659527 -37.688124 102.655524 500.000000
0.104348 0.090000 0.290000 72.869687 31.367621 253.983275 500.000000
0.260000 0.223684 0.410000 -482.475632 26.736877 -23.853161 500.000000
0.260000 0.260000 0.410000 -826.082781 -123.023218 -23.571298 500.000000
0.186602 0.090000 0.410000 89.320307 64.054227 -43.609466 500.000000
-0.260000 0.260000 0.410000 227.017943 -135.584920 -87.109218 500.000000
0.260000 0.090000 0.290000 -73.117063 142.583588 35.440314 500.000000
0.260000 0.090000 0.410000 -57.553558 172.102010 -44.192271 500.000000
0.166905 0.260000 0.302349 85.380989 -176.490521 -21.530160 500.000000
0.260000 0.090000 0.290000 -46.598071 34.866374 21.476115 500.000000
-0.260000 0.090000 0.410000 90.955834 606.439194 -29.079407 500.000000
-0.260000 0.260000 0.290000 72.848085 -67.285344 24.744143 500.000000
0.260000 0.225818 0.410000 -40.003358 27.163625 -25.514314 500.000000
0.260000 0.090000 0.410000 -74.965372 69.966064 -41.721433 500.000000
0.049394 0.216709 0.290000 -7.703103 25.341803 225.184150 500.000000
-0.260000 0.090000 0.290000 70.405423 88.226932 187.541740 500.000000
0.260000 0.219184 0.410000 -568.904792 25.836789 -23.707006 500.000000
-0.260000 0.174467 0.290000 192.152757 -17.012053 12.485454 500.000000
0.012290 0.260000 0.410000 54.457925 -41.474785 -346.144695 500.000000
-0.260000 0.090000 0.349784 69.836654 114.301618 11.956868 500.000000
0.260000 0.260000 0.410000 -134.054838 -19.997501 -51.237840 500.000000
-0.055798 0.090000 0.410000 20.498750 18.421345 -16.330425 500.000000
0.260000 0.216416 0.410000 -139.269062 25.283128 -23.567151 500.000000
-0.191888 0.090000 0.410000 -90.377651 83.799136 -18.697060 500.000000
0.260000 0.090000 0.410000 -105.586609 70.729513 -47.155742 500.000000
-0.260000 0.090000 0.290000 24.619197 39.104674 14.891037 500.000000
0.260000 0.260000 0.290000 -97.741470 -48.954173 50.247079 500.000000
0.260000 0.260000 0.290000 -58.742778 -36.460341 171.771048 500.000000
-0.260000 0.090000 0.410000 42.200191 120.238769 -37.457415 500.000000
-0.184311 0.220398 0.410000 -63.536830 26.079561 -23.778674 500.000000
0.125308 0.260000 0.290000 77.061604 -202.071497 26.592038 500.000000
-0.142205 0.260000 0.290000 23.559077 -41.580094 131.892251 500.000000
-0.100578 0.090000 0.410000 -72.115698 41.425673 -17.035098 500.000000
0.129576 0.260000 0.374648 77.915134 -38.873581 16.929571 500.000000
0.260000 0.090000 0.410000 -65.958301 33.611617 -236.013783 500.000000
0.260000 0.187646 0.410000 -139.954125 19.529285 -18.493737 500.000000
-0.260000 0.260000 0.410000 185.676323 -133.745163 -12.315550 500.000000
-0.260000 0.090000 0.354953 427.240161 49.792707 12.990542 500.000000
0.260000 0.220540 0.410000 -222.694795 26.108002 -23.899190 500.000000
0.093466 0.090000 0.410000 70.693112 64.859457 -43.196113 500.000000
0.260000 0.090000 0.290000 -230.819339 160.315686 92.529901 500.000000
0.260000 0.190133 0.367341 -68.998934 20.026690 15.468249 500.000000
-0.260000 0.260000 0.410000 193.319498 -133.695172 -16.742805 500.000000
0.260000 0.260000 0.410000 -123.240678 -25.994758 -175.517325 500.000000
-0.260000 0.260000 0.410000 57.626929 -188.008251 -20.833728 500.000000
-0.043049 0.090000 0.290000 -5.594775 185.228439 57.719214 500.000000
0.260000 0.260000 0.290000 -10.486300 -28.693498 159.353656 500.000000
-0.260000 0.090000 0.410000 198.482986 562.393898 -150.014262 500.000000
0.260000 0.260000 0.410000 -64.677784 -40.395909 -19.249660 500.000000
-0.260000 0.260000 0.410000 213.097937 -132.550840 -24.046158 500.000000
0.260000 0.217854 0.410000 -79.078427 25.570721 -61.386491 500.000000
0.139250 0.260000 0.410000 79.849908 -396.107221 -22.778527 500.000000
0.260000 0.260000 0.393634 -70.875834 -19.751820 20.726743 500.000000
-0.260000 0.090000 0.410000 66.640861 78.394239 -25.841375 500.000000
-0.260000 0.090000 0.410000 57.769660 82.273008 -28.914112 500.000000
0.260000 0.260000 0.403213 -552.997858 -18.021696 22.642629 500.000000
0.077473 0.260000 0.410000 33.743046 -92.419251 -56.036123 500.000000
-0.260000 0.260000 0.290000 35.434829 -26.706846 108.430515 500.000000
0.260000 0.260000 0.312800 -116.647596 -165.008023 -19.439929 500.000000
0.260000 0.218855 0.410000 -138.860146 25.770901 -23.717013 500.000000
-0.260000 0.217996 0.410000 333.867357 25.599228 -23.712693 500.000000
0.260000 0.260000 0.290000 -80.354474 -41.352948 125.837834 500.000000
-0.260000 0.235973 0.410000 326.056726 29.194515 -15.039395 500.000000
-0.002331 0.260000 0.410000 -52.466120 -100.784226 -131.637052 500.000000
-0.260000 0.090000 0.290000 58.778295 19.194531 45.536527 500.000000
0.093467 0.260000 0.359224 70.693393 -58.982841 13.844761 500.000000
-0.260000 0.090000 0.410000 155.410389 475.107247 -106.997216 500.000000
0.260000 0.260000 0.371205 -747.537245 -112.096761 16.241020 500.000000
0.260000 0.206181 0.410000 -102.755826 23.236173 -73.846534 500.000000
0.260000 0.090000 0.290000 -27.218516 17.477014 12.044126 500.000000
0.260000 0.217141 0.410000 -69.091128 25.428285 -23.494457 500.000000
0.036728 0.090000 0.290000 59.345595 134.161633 21.594318 500.000000
0.173732 0.090000 0.307326 86.746309 150.929464 -20.534815 500.000000
0.260000 0.090000 0.290000 -72.338286 206.069559 18.405864 500.000000
0.260000 0.090000 0.410000 -103.684628 66.868504 -54.473118 500.000000
-0.260000 0.218774 0.410000 114.401417 25.754851 -23.712956 500.000000
-0.144163 0.255657 0.290000 -40.241367 33.131418 223.945098 500.000000
0.260000 0.260000 0.290000 -68.256867 -39.635091 93.737227 500.000000
-0.260000 0.260000 0.290000 63.453352 -23.226184 40.505429 500.000000
-0.260000 0.260000 0.410000 183.329815 -133.758733 -20.296399 500.000000
-0.260000 0.217735 0.410000 559.412885 25.546936 -23.708855 500.000000
0.260000 0.090000 0.410000 -55.564734 75.123815 -41.885229 500.000000
-0.260000 0.260000 0.290000 85.065868 -268.731946 176.745091 500.000000
-0.260000 0.218101 0.410000 248.515123 25.620202 -23.713221 500.000000
-0.260000 0.090000 0.290000 78.707488 81.939354 123.862980 500.000000
0.260000 0.260000 0.290000 -63.908327 -54.019015 14.613341 500.000000
0.260000 0.090000 0.290000 -51.554063 29.387016 37.348265 500.000000
-0.260000 0.090000 0.410000 56.428371 78.591624 -25.710435 500.000000
-0.260000 0.217608 0.410000 476.610722 25.521575 -23.724076 500.000000
-0.260000 0.090000 0.290000 57.410552 156.148190 233.676236 500.000000
0.260000 0.218251 0.410000 -309.850902 25.650114 -23.740357 500.000000
-0.214071 0.090000 0.358810 -94.814115 45.445802 13.762049 500.000000
0.260000 0.205768 0.410000 -590.735431 23.153513 -12.182439 500.000000
0.068689 0.260000 0.290000 33.534413 -36.517683 36.835030 500.000000
-0.260000 0.260000 0.410000 242.765242 -136.039430 -23.171604 500.000000
0.243766 0.090000 0.410000 100.753293 70.595300 -33.647171 500.000000
-0.260000 0.260000 0.407103 216.993292 -148.282358 23.420509 500.000000
-0.260000 0.218677 0.410000 199.342144 25.735457 -23.712847 500.000000
0.260000 0.090000 0.410000 -70.112928 78.611029 -41.560024 500.000000
-0.260000 0.260000 0.408983 198.299862 -148.900458 23.796525 500.000000
0.260000 0.090000 0.290000 -442.868296 60.707654 121.885085 500.000000
0.260000 0.260000 0.410000 -162.964071 -18.454697 -23.750777 500.000000
0.260000 0.260000 0.290000 -65.659523 -54.938342 93.735800 500.000000
0.260000 0.260000 0.410000 -119.835624 -19.753497 -23.562383 500.000000
-0.260000 0.260000 0.410000 205.487587 -135.932740 -12.362831 500.000000
-0.233615 0.260000 0.290000 -15.193332 -17.003619 11.740555 500.000000
-0.260000 0.090000 0.290000 76.029523 82.123667 124.070555 500.000000
0.192670 0.090000 0.410000 18.933672 57.659831 -161.301575 500.000000
-0.062461 0.238099 0.410000 -36.043117 5.183397 -163.760453 500.000000
0.260000 0.242187 0.361730 -370.940045 30.437448 14.346021 500.000000
-0.260000 0.260000 0.406901 253.533844 -133.704085 23.380234 500.000000
0.058499 0.090000 0.344862 63.699871 132.038319 -13.027593 500.000000
0.260000 0.090000 0.410000 -55.836531 68.498649 -39.898866 500.000000
0.260000 0.090000 0.290000 -55.274271 143.175992 33.159687 500.000000
-0.052782 0.260000 0.350865 -62.556469 -256.525431 12.172950 500.000000
0.260000 0.218272 0.410000 -654.071179 25.654480 -23.721891 500.000000
0.260000 0.260000 0.361256 -48.908023 -24.226057 14.251286 500.000000
-0.260000 0.090000 0.410000 103.650878 605.049772 -239.500829 500.000000
0.123439 0.090000 0.299590 -27.312137 7.833732 -22.082041 500.000000
0.260000 0.090000 0.410000 -109.930288 35.178542 -62.584439 500.000000
0.024135 0.260000 0.410000 -47.173034 -160.292055 -17.694299 500.000000
0.119261 0.090000 0.410000 75.852251 138.743559 -37.995722 500.000000
