ply
format ascii 1.0
element vertex 240
property float x
property float y
property float z
property float vx
property float vy
property float vz
property float density
end_header
-0.260000 0.139983 0.368784 39.088803 9.996686 15.756893 500.000000
-0.260000 0.260000 0.290000 611.429121 -216.761141 22.323745 500.000000
-0.260000 0.260000 0.306128 83.863550 -55.324889 -20.774412 500.000000
0.061115 0.090000 0.290000 64.223041 84.556962 267.816955 500.000000
0.082668 0.090000 0.290000 68.533635 90.539683 110.185725 500.000000
-0.260000 0.260000 0.308798 43.458441 -105.363555 -20.240420 500.000000
0.245810 0.260000 0.290000 101.162034 -38.912833 49.959840 500.000000
0.088013 0.236813 0.410000 69.602594 29.362565 -113.362843 500.000000
-0.150595 0.090000 0.290000 -82.118992 29.616362 58.790180 500.000000
-0.254356 0.090000 0.290000 -102.871124 49.006545 33.876990 500.000000
-0.186754 0.090000 0.410000 -89.350800 34.981631 -111.368961 500.000000
-0.151262 0.090000 0.290000 -82.252344 35.986789 132.820827 500.000000
0.052506 0.234483 0.384324 27.375725 28.896572 18.864721 500.000000
-0.260000 0.260000 0.410000 57.503545 -21.357386 -95.484694 500.000000
-0.260000 0.260000 0.290000 82.213171 -20.910128 344.278278 500.000000
0.066336 0.260000 0.290000 65.267277 -18.162192 54.956735 500.000000
0.260000 0.244796 0.410000 -89.263669 30.959256 -86.277770 500.000000
-0.203214 0.090000 0.290000 -92.642773 66.116824 33.866385 500.000000
-0.176202 0.090000 0.290000 -87.240377 29.671695 44.121207 500.000000
0.260000 0.090000 0.410000 -220.328899 73.184381 -18.255780 500.000000
0.260000 0.090000 0.290000 -54.269414 162.179817 113.265032 500.000000
-0.123606 0.090000 0.290000 -76.721211 29.697603 30.581550 500.000000
0.260000 0.227564 0.410000 -76.593174 27.512764 -22.581399 500.000000
-0.260000 0.090000 0.335420 118.578394 27.060788 -14.916041 500.000000
0.260000 0.260000 0.290000 -14.346413 -17.290105 21.782973 500.000000
-0.260000 0.090000 0.290000 98.266308 26.028400 26.282808 500.000000
0.260000 0.090000 0.305451 -49.953438 118.358487 -20.909745 500.000000
0.047859 0.260000 0.290000 61.571875 -18.328411 54.592602 500.000000
0.260000 0.090000 0.290000 -229.133775 79.984660 106.689175 500.000000
0.072610 0.090000 0.290000 66.521934 88.733695 110.568575 500.000000
-0.221776 0.260000 0.410000 -96.355181 -32.808369 -79.924642 500.000000
-0.166690 0.090000 0.290000 -85.337945 29.294129 34.484717 500.000000
0.260000 0.090000 0.395177 -131.209458 74.487434 21.035346 500.000000
0.260000 0.260000 0.290000 -54.170382 -38.978165 52.508042 500.000000
-0.260000 0.245679 0.290000 104.937930 31.135896 33.093892 500.000000
0.062497 0.260000 0.290000 1.229466 -17.692943 47.659176 500.000000
0.018594 0.090000 0.410000 -48.281167 49.914864 -111.386934 500.000000
-0.260000 0.260000 0.290000 50.920852 -17.715547 20.849889 500.000000
0.258636 0.260000 0.290000 103.727235 -36.609045 51.106752 500.000000
-0.176680 0.090000 0.290000 -87.335948 41.123589 33.961481 500.000000
-0.049942 0.260000 0.290000 -14.649914 -18.213732 67.696166 500.000000
-0.260000 0.090000 0.290000 86.555553 49.256858 33.843543 500.000000
0.260000 0.246687 0.290000 -203.873827 31.337396 46.292062 500.000000
-0.260000 0.142198 0.410000 31.909791 -23.560496 -79.384109 500.000000
0.260000 0.090000 0.410000 -239.314584 63.706229 -18.023840 500.000000
0.257638 0.260000 0.410000 103.527634 -19.979599 -119.517285 500.000000
-0.260000 0.160710 0.313595 43.777348 -19.858049 -19.280960 500.000000
0.171199 0.090000 0.378873 86.239773 106.407798 17.774503 500.000000
-0.142754 0.260000 0.410000 -80.550850 -186.121754 -75.718719 500.000000
-0.205088 0.090000 0.290000 -93.017559 29.126849 31.211642 500.000000
0.255717 0.260000 0.290000 103.143410 -39.387021 52.688425 500.000000
-0.260000 0.090000 0.410000 66.384553 49.881144 -111.235310 500.000000
-0.194747 0.260000 0.410000 -90.949370 -168.545693 -75.072027 500.000000
0.260000 0.090000 0.290000 -55.277870 135.643575 122.630105 500.000000
-0.182063 0.090000 0.290000 -88.412633 29.079261 34.030992 500.000000
0.260000 0.260000 0.410000 -61.375571 -173.847718 -102.725858 500.000000
-0.142553 0.090000 0.290000 -80.510693 83.896562 33.875690 500.000000
-0.260000 0.260000 0.317780 100.726412 -51.907936 -18.443951 500.000000
-0.260000 0.260000 0.290000 83.944689 -56.954338 18.299457 500.000000
-0.260000 0.260000 0.290000 158.449894 -70.683566 13.276692 500.000000
0.260000 0.260000 0.290000 -53.954981 -41.654511 58.458820 500.000000
0.260000 0.090000 0.290000 -44.838712 26.950998 21.408978 500.000000
-0.260000 0.260000 0.302517 100.185475 -221.092927 -21.496543 500.000000
0.098045 0.090000 0.408292 71.608966 25.438732 23.658452 500.000000
-0.202553 0.260000 0.410000 -92.510579 -52.949716 -73.415197 500.000000
-0.241734 0.260000 0.290000 -31.855908 -53.664277 24.390176 500.000000
0.260000 0.239294 0.410000 -58.064242 29.858748 -114.619539 500.000000
-0.182979 0.090000 0.410000 -88.595884 100.696857 -106.149087 500.000000
-0.260000 0.090000 0.410000 51.997108 30.010551 -492.931992 500.000000
-0.130320 0.090000 0.290000 -78.063940 104.864842 487.328188 500.000000
0.054308 0.159572 0.290000 62.861666 13.914315 254.533613 500.000000
0.040174 0.090000 0.410000 60.034861 119.130340 -1027.447299 500.000000
-0.043708 0.090000 0.410000 -60.741602 272.252708 -35.468916 500.000000
-0.026313 0.090000 0.410000 -57.262679 106.025589 -116.916845 500.000000
0.260000 0.090000 0.290000 -55.076476 128.065109 109.983384 500.000000
0.258157 0.260000 0.290000 103.631346 -45.412136 68.131408 500.000000
0.010225 0.260000 0.290000 -11.224112 -36.867960 28.790956 500.000000
0.260000 0.090000 0.410000 -81.527136 79.450658 -19.834415 500.000000
-0.017211 0.260000 0.290000 -55.442167 -18.806824 425.858806 500.000000
0.260000 0.260000 0.410000 -31.912519 -40.775735 -14.605464 500.000000
0.255916 0.260000 0.290000 103.183201 -36.821014 52.680675 500.000000
-0.129785 0.090000 0.290000 -77.956903 86.780791 481.290262 500.000000
-0.113220 0.090000 0.410000 -74.643941 102.211781 -117.912535 500.000000
-0.121238 0.090000 0.290000 -76.247507 89.307071 461.445680 500.000000
-0.260000 0.090000 0.290000 98.982585 45.779443 33.769095 500.000000
-0.126427 0.090000 0.290000 -77.285342 178.825140 739.978979 500.000000
0.057891 0.090000 0.290000 63.578135 89.497625 110.475029 500.000000
-0.260000 0.090000 0.410000 214.715938 60.963718 -113.661539 500.000000
0.260000 0.090000 0.290000 -52.269534 89.393901 120.121245 500.000000
0.180098 0.245541 0.290000 88.019592 31.108268 55.678605 500.000000
-0.260000 0.260000 0.410000 72.576223 -10.285938 -14.164185 500.000000
0.260000 0.090000 0.410000 -68.524664 80.330918 -12.771417 500.000000
-0.260000 0.260000 0.290000 148.319058 -71.689839 13.783263 500.000000
0.100800 0.090000 0.410000 72.160073 64.650088 -65.674618 500.000000
0.260000 0.225559 0.410000 -35.123842 27.111807 -62.292143 500.000000
-0.260000 0.260000 0.290000 126.554491 -99.992407 17.466511 500.000000
-0.260000 0.090000 0.290000 84.029654 75.168945 33.724996 500.000000
-0.219046 0.090000 0.290000 -95.809167 47.801564 37.098988 500.000000
0.260000 0.260000 0.290000 -53.301612 -22.107824 13.295259 500.000000
0.082511 0.090000 0.290000 22.042840 24.971154 24.301670 500.000000
0.129505 0.090000 0.290000 77.900943 78.347373 106.927128 500.000000
0.260000 0.090000 0.290000 -56.740727 72.772214 109.444501 500.000000
0.254362 0.260000 0.290000 102.872358 -39.176617 53.048664 500.000000
-0.113393 0.090000 0.410000 -74.678503 98.802431 -118.198589 500.000000
-0.260000 0.260000 0.410000 65.955013 -52.165881 -80.927486 500.000000
-0.176890 0.260000 0.410000 -87.378039 -217.720659 -72.497054 500.000000
0.260000 0.260000 0.290000 -49.861618 -17.821760 29.073504 500.000000
0.200697 0.090000 0.406734 92.139489 27.690336 23.346716 500.000000
0.260000 0.090000 0.410000 -73.074380 85.162441 -27.525422 500.000000
-0.206573 0.090000 0.410000 -93.314698 99.141435 -107.684914 500.000000
-0.260000 0.260000 0.290000 94.468079 -49.651695 18.192069 500.000000
-0.226030 0.090000 0.410000 -97.206057 98.576186 -107.589429 500.000000
0.260000 0.260000 0.290000 -53.633041 -38.336497 56.062043 500.000000
0.260000 0.173996 0.410000 -95.645606 -17.200841 -443.609383 500.000000
-0.152817 0.090000 0.290000 -82.563349 29.633828 53.744640 500.000000
0.257714 0.260000 0.290000 103.542739 -48.116476 73.471654 500.000000
-0.260000 0.090000 0.310173 375.923136 65.829936 -19.965484 500.000000
-0.202949 0.260000 0.410000 -92.589773 -197.609613 -75.784459 500.000000
0.258904 0.260000 0.290000 103.780748 -42.694331 62.721928 500.000000
0.068203 0.260000 0.410000 65.640534 -17.529917 -127.402688 500.000000
0.260000 0.260000 0.326346 -74.867003 -290.310306 -16.730855 500.000000
-0.211193 0.090000 0.410000 -94.238586 43.670809 -111.310194 500.000000
0.260000 0.260000 0.290000 -49.409771 -31.763644 12.735190 500.000000
0.110496 0.090000 0.290000 74.099203 89.059150 110.055821 500.000000
-0.108708 0.090000 0.410000 -73.741644 106.483377 -117.380956 500.000000
-0.260000 0.260000 0.290000 151.415582 -70.750120 13.454494 500.000000
0.260000 0.260000 0.290000 -53.467870 -41.533700 50.663435 500.000000
0.080089 0.090000 0.290000 68.017835 88.746378 109.266756 500.000000
0.260000 0.090000 0.410000 -135.708642 75.712732 -956.143219 500.000000
0.026321 0.260000 0.290000 57.264246 -167.668845 42.248506 500.000000
-0.260000 0.260000 0.290000 142.007982 -51.971071 12.790017 500.000000
0.260000 0.246010 0.410000 -168.313491 31.202009 -96.759322 500.000000
-0.226201 0.090000 0.410000 -97.240254 98.688602 -112.472748 500.000000
-0.260000 0.260000 0.290000 55.580847 -21.473286 257.057523 500.000000
0.021841 0.260000 0.290000 56.368173 -247.658093 55.466395 500.000000
0.260000 0.090000 0.361075 -33.948364 75.194573 14.214974 500.000000
0.260000 0.260000 0.290000 -53.145137 -38.822019 55.489801 500.000000
0.260000 0.090000 0.290000 -109.437664 33.572250 114.368398 500.000000
0.260000 0.260000 0.290000 -162.998879 -28.263275 22.062451 500.000000
-0.176821 0.090000 0.290000 -87.364117 31.354878 30.894856 500.000000
0.250613 0.260000 0.290000 102.122666 -38.098547 50.067670 500.000000
-0.027503 0.090000 0.290000 -57.500520 132.908235 14.291620 500.000000
0.259637 0.260000 0.290000 103.927376 -39.983896 57.329028 500.000000
0.024276 0.090000 0.290000 56.855246 77.271624 105.811683 500.000000
0.260000 0.260000 0.290000 -52.022557 -37.302794 52.083668 500.000000
0.111176 0.237025 0.410000 74.235288 29.405100 -113.513985 500.000000
0.260000 0.260000 0.410000 -77.603881 -95.045990 -12.483286 500.000000
-0.260000 0.166372 0.408050 39.998434 -18.725629 23.610096 500.000000
0.089416 0.260000 0.410000 -34.116751 -25.149689 -86.742384 500.000000
-0.260000 0.094249 0.410000 55.996109 -33.150219 -28.637016 500.000000
0.255223 0.260000 0.290000 103.044558 -38.089170 52.788442 500.000000
0.096367 0.139921 0.290000 -32.726513 -24.015727 16.615694 500.000000
0.026673 0.154427 0.410000 57.334641 12.885315 -103.329945 500.000000
-0.092880 0.090000 0.410000 -70.575948 99.396450 -117.558963 500.000000
0.238229 0.260000 0.290000 99.645845 -208.815264 45.803794 500.000000
-0.152250 0.260000 0.410000 -82.449915 -176.143514 -76.752238 500.000000
-0.238925 0.090000 0.410000 -99.785048 99.932769 -107.947112 500.000000
0.201630 0.260000 0.410000 7.907389 -18.724422 -6.887813 500.000000
-0.176169 0.090000 0.410000 -87.233867 101.103657 -373.084798 500.000000
0.260000 0.260000 0.410000 -100.866898 -64.961033 -617.413562 500.000000
0.260000 0.090000 0.366858 -49.324676 74.336600 15.371567 500.000000
-0.260000 0.224924 0.410000 69.216761 -7.015141 -25.369229 500.000000
0.260000 0.090000 0.410000 -158.885851 62.759910 -21.060386 500.000000
0.260000 0.090000 0.410000 -77.548006 74.174296 -13.523897 500.000000
-0.260000 0.090000 0.410000 38.358412 88.289975 -31.950785 500.000000
0.026661 0.090000 0.290000 57.332126 229.931005 132.693954 500.000000
0.260000 0.245687 0.290000 -163.296443 31.137387 214.967774 500.000000
0.260000 0.090000 0.290000 -39.400085 26.163470 17.686464 500.000000
-0.134933 0.260000 0.410000 -78.986578 -84.446045 -98.813062 500.000000
-0.260000 0.260000 0.290000 118.106784 -19.458822 170.746646 500.000000
0.260000 0.090000 0.410000 -62.320922 63.059459 -16.414675 500.000000
-0.084792 0.260000 0.290000 -9.297035 -18.652864 13.135395 500.000000
-0.152570 0.090000 0.290000 -82.514042 32.216728 46.552075 500.000000
-0.260000 0.260000 0.340436 26.897588 -124.743559 -13.912887 500.000000
0.260000 0.260000 0.290000 -435.161230 -39.433772 12.285267 500.000000
-0.260000 0.090000 0.290000 77.478858 28.104342 33.923811 500.000000
-0.161979 0.260000 0.410000 -84.395824 -335.638819 -72.823384 500.000000
-0.260000 0.260000 0.410000 31.584967 -45.287553 -34.673736 500.000000
0.173115 0.090000 0.410000 86.623000 74.146979 -13.966258 500.000000
0.260000 0.260000 0.410000 -53.275066 -206.718575 -93.653809 500.000000
0.180377 0.090000 0.290000 -15.924514 18.114159 19.914942 500.000000
-0.137469 0.260000 0.410000 -79.493705 -155.233194 -156.390638 500.000000
-0.202358 0.090000 0.290000 -92.471609 28.743055 32.374511 500.000000
-0.123620 0.090000 0.410000 -76.724025 152.483638 -105.819522 500.000000
0.260000 0.260000 0.290000 -144.074838 -29.244250 15.764418 500.000000
-0.051700 0.260000 0.410000 -62.339975 -30.864974 -84.927511 500.000000
0.260000 0.090000 0.410000 -162.795546 63.637970 -17.369345 500.000000
0.260000 0.260000 0.290000 -62.444144 -47.180864 50.154623 500.000000
0.260000 0.260000 0.410000 -21.450978 -64.177556 -13.430567 500.000000
0.260000 0.090000 0.290000 -184.259555 76.929244 121.360290 500.000000
-0.260000 0.090000 0.290000 62.761896 64.636735 33.857968 500.000000
-0.088331 0.090000 0.410000 -69.666140 99.813738 -118.995214 500.000000
-0.260000 0.260000 0.290000 159.218741 -70.123477 13.133720 500.000000
-0.157302 0.090000 0.290000 -83.460373 29.793953 32.726373 500.000000
-0.164054 0.090000 0.290000 -84.810763 29.746295 33.442804 500.000000
0.251927 0.256909 0.290000 102.385338 33.381897 132.159912 500.000000
-0.088716 0.260000 0.410000 -69.743218 -25.584665 -81.798976 500.000000
-0.036553 0.260000 0.410000 -59.310555 -27.510158 -133.844430 500.000000
0.072560 0.090000 0.290000 66.511963 89.761943 128.733936 500.000000
-0.066018 0.090000 0.410000 -65.203536 113.381076 -119.710280 500.000000
-0.050013 0.147612 0.410000 41.997453 -22.477590 -12.140984 500.000000
0.260000 0.260000 0.290000 -55.469010 -70.872882 313.654712 500.000000
-0.260000 0.186758 0.410000 86.336229 19.351530 -310.157894 500.000000
-0.260000 0.260000 0.305084 53.284376 -262.840844 -20.983269 500.000000
-0.260000 0.260000 0.410000 53.711343 -25.366447 -84.509573 500.000000
-0.260000 0.090000 0.410000 114.575517 25.647504 -12.695083 500.000000
0.085712 0.260000 0.410000 69.142430 -179.399674 -97.767959 500.000000
-0.058540 0.260000 0.410000 40.291919 -84.182568 -283.272364 500.000000
-0.260000 0.090000 0.410000 70.019836 48.027981 -110.835970 500.000000
-0.260000 0.260000 0.410000 73.655103 -574.223681 -53.425567 500.000000
-0.260000 0.260000 0.290000 44.072584 -274.507397 19.013470 500.000000
0.260000 0.090000 0.290000 -129.955390 73.430634 109.811170 500.000000
-0.066589 0.155800 0.290000 38.682132 13.160054 65.747113 500.000000
-0.131878 0.090000 0.290000 -78.375680 30.651550 30.747340 500.000000
-0.088458 0.155751 0.410000 34.308301 13.150218 -119.727998 500.000000
-0.039854 0.189432 0.410000 12.574601 19.886435 -44.217524 500.000000
-0.260000 0.090000 0.290000 76.766313 66.491991 33.855580 500.000000
-0.122188 0.260000 0.410000 -76.437694 -31.875156 -86.394120 500.000000
-0.260000 0.090000 0.410000 136.983344 42.015828 -116.832962 500.000000
0.092829 0.090000 0.290000 70.565853 130.017253 112.612113 500.000000
0.260000 0.260000 0.410000 -24.691420 -192.244757 -18.840073 500.000000
-0.260000 0.090000 0.294412 128.146483 330.355867 -23.117567 500.000000
0.114833 0.090000 0.290000 14.125415 27.197999 17.964737 500.000000
0.112632 0.242827 0.290000 74.526499 30.565338 69.036841 500.000000
-0.016287 0.257457 0.393191 -55.257483 10.492848 5.938384 500.000000
-0.122688 0.260000 0.410000 -76.537543 -383.307086 -83.750999 500.000000
-0.079278 0.260000 0.410000 -67.855574 -26.605250 -97.963775 500.000000
0.260000 0.090000 0.410000 -54.042237 63.217052 -16.416946 500.000000
0.092534 0.090000 0.290000 70.506781 89.437363 110.670984 500.000000
0.260000 0.090000 0.290000 -61.245496 123.322871 114.885274 500.000000
0.260000 0.243063 0.290000 -118.158788 30.612646 53.591888 500.000000
-0.112037 0.260000 0.290000 -74.407431 -26.279837 171.908598 500.000000
-0.048466 0.090000 0.332317 25.857606 55.251501 -15.536536 500.000000
0.228605 0.260000 0.290000 97.720980 -242.465284 70.025364 500.000000
0.172941 0.173155 0.352977 59.586722 -17.368983 12.595337 500.000000
0.260000 0.244503 0.359567 -123.161092 30.900527 6.883757 500.000000
0.260000 0.090000 0.290000 -54.335269 141.541964 120.224952 500.000000
0.260000 0.260000 0.290000 -218.745676 -26.087737 17.038436 500.000000
0.260000 0.260000 0.290000 -54.095598 -39.220431 52.996816 500.000000
0.260000 0.090000 0.290000 -58.186920 89.023034 114.330139 500.000000
