ply
format ascii 1.0
element vertex 240
property float x
property float y
property float z
property float vx
property float vy
property float vz
property float density
end_header
-0.260000 0.090000 0.290000 64.577868 66.417891 44.255479 500.000000
0.260000 0.090000 0.290000 -328.423151 35.771542 23.077577 500.000000
0.027248 0.260000 0.290000 -6.679646 -35.247462 27.362726 500.000000
-0.260000 0.090000 0.290000 187.314383 66.075754 44.362398 500.000000
0.260000 0.090000 0.410000 -143.065602 188.219436 -16.884258 500.000000
-0.072266 0.090000 0.410000 8.946146 36.774186 -15.626439 500.000000
0.009083 0.260000 0.376390 -50.183454 -61.727298 17.277928 500.000000
-0.260000 0.090000 0.410000 78.496718 32.021795 -94.281100 500.000000
0.260000 0.260000 0.410000 -87.096000 -222.676043 -15.233783 500.000000
0.260000 0.260000 0.410000 -114.595490 -188.131017 -15.102874 500.000000
-0.260000 0.260000 0.290000 209.615442 -55.033872 19.030254 500.000000
-0.260000 0.260000 0.290000 54.786233 -48.469839 28.139302 500.000000
0.191608 0.090000 0.410000 47.791536 100.512491 -57.526523 500.000000
0.260000 0.191735 0.316431 -69.300276 -13.653031 -18.713756 500.000000
0.260000 0.090000 0.409186 -88.891643 184.845165 23.837275 500.000000
0.256536 0.260000 0.290000 103.307138 -20.805056 15.742036 500.000000
0.260000 0.090000 0.325142 -135.853877 50.415895 -16.971627 500.000000
-0.260000 0.260000 0.290000 223.791190 -40.898292 55.218824 500.000000
0.260000 0.090000 0.321182 -61.461574 40.614696 -17.763592 500.000000
0.260000 0.090000 0.318442 -62.144817 42.265081 -18.311534 500.000000
-0.260000 0.090000 0.410000 84.992822 32.221441 -146.174020 500.000000
-0.260000 0.090000 0.410000 98.414947 39.763172 -95.309477 500.000000
-0.260000 0.090000 0.410000 79.810949 33.321088 -109.800094 500.000000
-0.060823 0.260000 0.410000 -64.164633 -19.325190 -386.991499 500.000000
0.181748 0.260000 0.410000 88.349603 -259.948827 -84.654421 500.000000
0.260000 0.260000 0.290000 -140.977227 -35.702829 16.838640 500.000000
-0.074408 0.090000 0.410000 -66.881558 38.182460 -98.708066 500.000000
-0.238945 0.260000 0.410000 -99.788904 -66.641278 -22.861649 500.000000
0.260000 0.260000 0.290000 -283.713590 -128.200564 44.787523 500.000000
-0.126058 0.260000 0.410000 26.788383 -165.243982 -15.804278 500.000000
0.260000 0.090000 0.290000 -83.417317 48.220640 18.457555 500.000000
-0.260000 0.140636 0.374536 48.208489 -23.872746 16.907186 500.000000
-0.260000 0.090000 0.290000 98.631643 183.565978 27.754885 500.000000
-0.260000 0.090000 0.410000 268.543604 708.353765 -55.402838 500.000000
0.260000 0.260000 0.290000 -87.017342 -20.783991 15.666081 500.000000
-0.028134 0.090000 0.290000 -28.191408 23.779200 14.316108 500.000000
-0.260000 0.090000 0.290000 59.380780 80.918432 59.148050 500.000000
-0.031963 0.260000 0.410000 45.607472 -269.214141 -16.992055 500.000000
-0.205805 0.260000 0.290000 -93.161015 -50.956230 71.194145 500.000000
0.249752 0.156710 0.410000 53.626090 -20.657990 -76.967716 500.000000
-0.204313 0.260000 0.399292 -67.685785 -24.408397 21.858305 500.000000
-0.260000 0.260000 0.290000 209.377182 -54.855479 16.957941 500.000000
0.260000 0.090000 0.290000 -63.197915 119.231272 34.557329 500.000000
-0.260000 0.090000 0.410000 103.221163 54.974822 -97.793031 500.000000
0.260000 0.260000 0.290000 -35.412703 -67.036957 35.778364 500.000000
-0.260000 0.090000 0.290000 71.136990 32.466433 407.102894 500.000000
-0.260000 0.090000 0.290000 76.982119 614.996054 43.492462 500.000000
-0.260000 0.260000 0.290000 84.231557 -43.010580 51.305265 500.000000
0.260000 0.090000 0.290000 -213.073646 48.312647 18.530447 500.000000
0.217192 0.226168 0.301864 95.438424 27.233675 -21.627164 500.000000
-0.260000 0.090000 0.290000 74.947264 60.836006 34.297028 500.000000
-0.260000 0.260000 0.290000 204.602585 -40.785466 47.426973 500.000000
-0.260000 0.090000 0.290000 83.938498 65.815993 34.101644 500.000000
0.247211 0.090000 0.290000 101.442140 42.806278 15.480268 500.000000
0.260000 0.090000 0.290000 -199.398046 48.598967 18.492062 500.000000
0.260000 0.260000 0.290000 -82.968568 -29.986613 16.971601 500.000000
-0.260000 0.260000 0.290000 184.612330 -36.104850 22.020729 500.000000
0.260000 0.260000 0.410000 -144.956820 -64.082821 -22.576337 500.000000
0.260000 0.166240 0.410000 -23.901885 15.248099 -26.255087 500.000000
-0.260000 0.090000 0.290000 146.797275 66.108659 44.314510 500.000000
-0.260000 0.090000 0.290000 168.294272 66.417983 44.288853 500.000000
-0.260000 0.184192 0.410000 53.539665 -15.161569 -14.248096 500.000000
0.260000 0.090000 0.410000 -137.987649 179.150262 -21.158152 500.000000
0.209627 0.115089 0.290000 -10.074664 -28.982283 249.299231 500.000000
-0.260000 0.090000 0.410000 39.948910 28.428466 -13.701510 500.000000
-0.260000 0.260000 0.290000 227.322709 -40.716189 47.260822 500.000000
0.260000 0.260000 0.410000 -61.111121 -106.175167 -27.774858 500.000000
0.260000 0.260000 0.290000 -161.662093 -20.780864 15.677478 500.000000
0.071661 0.260000 0.410000 66.332288 -286.092531 -15.502334 500.000000
0.260000 0.090000 0.290000 -167.918629 48.240319 18.408342 500.000000
-0.260000 0.090000 0.410000 78.895478 33.886809 -105.254883 500.000000
-0.260000 0.260000 0.290000 131.602249 -43.284187 46.361458 500.000000
-0.260000 0.260000 0.290000 77.786569 -507.816873 30.265945 500.000000
0.236422 0.090000 0.343714 99.284486 49.041629 -13.257282 500.000000
-0.260000 0.260000 0.410000 127.881680 -68.066031 -23.353365 500.000000
0.260000 0.090000 0.290000 -275.881538 44.773181 24.161890 500.000000
0.039141 0.260000 0.290000 59.828227 -9.658153 298.962000 500.000000
0.260000 0.260000 0.290000 -70.272556 -20.780224 15.661035 500.000000
-0.260000 0.260000 0.290000 517.372322 -28.902587 17.002958 500.000000
0.260000 0.090000 0.410000 -118.666113 21.804203 -22.816889 500.000000
-0.260000 0.260000 0.410000 204.098079 -69.062439 -23.352627 500.000000
-0.260000 0.260000 0.410000 149.683957 -68.399593 -23.353280 500.000000
0.260000 0.236553 0.290000 -71.168998 29.310587 12.681869 500.000000
-0.260000 0.260000 0.410000 62.581193 -67.405202 -23.354046 500.000000
0.260000 0.090000 0.410000 -71.525731 42.225429 -76.747557 500.000000
-0.260000 0.260000 0.290000 160.734643 -52.332600 45.887508 500.000000
-0.260000 0.260000 0.290000 116.594528 -40.680366 47.494189 500.000000
-0.260000 0.090000 0.410000 115.306386 47.932095 -107.736457 500.000000
-0.148250 0.260000 0.410000 -81.649947 -66.395887 -23.353354 500.000000
0.252331 0.090000 0.290000 102.466176 56.007682 21.166291 500.000000
0.260000 0.090000 0.410000 -79.074430 324.553966 -22.566661 500.000000
0.010368 0.173867 0.347891 9.621134 -17.226660 -12.421836 500.000000
0.260000 0.260000 0.290000 -65.336684 -29.510572 33.861856 500.000000
-0.037593 0.260000 0.290000 -31.574523 -19.453616 105.384723 500.000000
0.260000 0.090000 0.318487 -62.920803 42.263190 -18.302548 500.000000
0.032965 0.139857 0.410000 -45.407029 -24.028665 -141.915891 500.000000
0.260000 0.090000 0.316003 -62.676557 40.961984 -18.799305 500.000000
0.260000 0.260000 0.290000 -215.275935 -20.805899 15.919398 500.000000
-0.260000 0.090000 0.410000 76.041263 32.701164 -93.205463 500.000000
-0.260000 0.260000 0.296971 137.254196 -56.806433 1.394254 500.000000
0.260000 0.090000 0.290000 -182.772624 48.238103 18.409493 500.000000
-0.260000 0.260000 0.290000 202.976031 -50.548530 48.365824 500.000000
0.260000 0.260000 0.290000 -87.253618 -37.247223 16.834556 500.000000
-0.260000 0.260000 0.290000 87.152391 -40.647716 16.854234 500.000000
-0.260000 0.090000 0.410000 73.004459 100.757545 -103.463318 500.000000
0.029756 0.260000 0.403662 57.951184 -109.307812 22.732489 500.000000
-0.260000 0.090000 0.290000 122.727083 64.382799 36.060053 500.000000
0.129806 0.090000 0.335530 44.054547 59.236044 -14.893935 500.000000
0.213923 0.090000 0.290000 94.784590 32.463223 13.497298 500.000000
0.260000 0.090000 0.410000 -73.200746 173.190298 -34.173653 500.000000
-0.199509 0.260000 0.410000 -91.901861 -71.539577 -30.935990 500.000000
-0.073158 0.260000 0.290000 -16.524113 -65.543283 6.884332 500.000000
-0.260000 0.260000 0.290000 148.732364 -40.656168 47.425467 500.000000
-0.020790 0.090000 0.290000 -14.785925 20.481523 13.063863 500.000000
-0.260000 0.260000 0.410000 219.341776 -68.875990 -23.420765 500.000000
0.260000 0.260000 0.290000 -549.821596 -35.284574 212.512099 500.000000
0.260000 0.093025 0.290000 -95.930009 -33.394907 13.782565 500.000000
-0.260000 0.090000 0.290000 71.039820 66.166925 44.314950 500.000000
0.018522 0.090000 0.290000 55.704464 12.512173 179.656174 500.000000
-0.260000 0.090000 0.290000 103.725664 66.144912 44.315365 500.000000
-0.260000 0.260000 0.290000 170.267577 -40.670604 47.424724 500.000000
0.260000 0.132797 0.341616 -63.842027 8.559437 -13.676751 500.000000
0.260000 0.260000 0.410000 -58.386807 -64.944706 -24.232501 500.000000
0.260000 0.260000 0.290000 -106.953052 -20.782447 15.667623 500.000000
-0.260000 0.260000 0.341138 475.132833 -875.883938 -13.772427 500.000000
-0.260000 0.260000 0.410000 184.157265 -68.069796 -23.627605 500.000000
0.234861 0.260000 0.410000 98.972196 -161.466619 -22.038166 500.000000
0.184892 0.090000 0.410000 88.978311 195.973173 -13.826908 500.000000
-0.260000 0.260000 0.290000 19.047503 -41.223079 16.837068 500.000000
-0.139231 0.090000 0.290000 -36.272145 18.024406 12.274668 500.000000
0.260000 0.128484 0.410000 -53.160674 -13.728559 -56.096569 500.000000
-0.260000 0.260000 0.290000 127.111157 -40.680500 47.487691 500.000000
0.260000 0.260000 0.410000 -54.745106 -226.127357 -15.177547 500.000000
-0.260000 0.260000 0.410000 99.868967 -63.767644 -103.681055 500.000000
-0.260000 0.090000 0.410000 78.288403 32.467604 -104.834146 500.000000
0.260000 0.260000 0.290000 -183.937978 -22.987677 15.617240 500.000000
0.260000 0.126455 0.290000 -66.166811 -26.708952 21.022364 500.000000
0.127580 0.090000 0.410000 5.003945 58.195761 -38.325781 500.000000
0.245887 0.090000 0.290000 101.177358 58.945659 19.273637 500.000000
0.260000 0.260000 0.410000 -101.903350 -202.984617 -24.171367 500.000000
-0.260000 0.260000 0.410000 171.445015 -66.083336 -23.354296 500.000000
-0.260000 0.260000 0.410000 84.357407 -67.065581 -23.353755 500.000000
0.260000 0.090000 0.410000 -152.326894 179.742046 -22.526420 500.000000
-0.260000 0.260000 0.410000 204.093492 -68.724875 -23.352557 500.000000
0.206423 0.260000 0.410000 93.284509 -111.299497 -12.393973 500.000000
-0.260000 0.090000 0.290000 454.024464 68.551438 38.470590 500.000000
-0.260000 0.260000 0.290000 86.745968 -29.212422 23.103195 500.000000
0.260000 0.260000 0.290000 -123.164982 -20.803194 15.735220 500.000000
-0.260000 0.090000 0.290000 66.925568 142.569428 40.359715 500.000000
0.260000 0.090000 0.410000 -81.936362 101.043820 -22.577363 500.000000
0.260000 0.239601 0.290000 -83.715946 29.920191 32.809530 500.000000
0.260000 0.260000 0.290000 -55.356320 -50.963527 17.149408 500.000000
-0.260000 0.260000 0.410000 106.089117 -67.729200 -23.353442 500.000000
-0.260000 0.090000 0.410000 188.063337 78.513935 -24.852008 500.000000
-0.120851 0.090000 0.410000 -76.170117 44.814234 -102.830653 500.000000
0.164336 0.260000 0.410000 -19.132800 -279.543291 -39.983236 500.000000
-0.260000 0.090000 0.410000 77.958121 38.884051 -104.629265 500.000000
0.207906 0.198409 0.290000 24.964482 21.681792 28.320884 500.000000
-0.260000 0.260000 0.290000 186.227123 -42.217483 47.382854 500.000000
0.260000 0.260000 0.410000 -167.785911 -114.326531 -22.724134 500.000000
0.258583 0.090000 0.410000 103.716502 209.330523 -12.825065 500.000000
-0.260000 0.090000 0.410000 78.341060 33.692912 -104.790412 500.000000
-0.260000 0.260000 0.290000 115.051484 -44.873158 16.842646 500.000000
0.260000 0.260000 0.290000 -250.430024 -20.899079 15.737992 500.000000
0.260000 0.090000 0.410000 -245.865236 185.448871 -28.471470 500.000000
0.260000 0.090000 0.342736 -61.694364 126.346295 -13.452787 500.000000
0.132021 0.090000 0.410000 78.404247 204.334010 -82.669057 500.000000
0.260000 0.260000 0.290000 -281.944981 -20.879398 15.755204 500.000000
-0.260000 0.090000 0.290000 71.043171 66.155433 44.315325 500.000000
-0.049294 0.260000 0.290000 -12.496278 -11.180908 8.237023 500.000000
-0.260000 0.260000 0.290000 51.765053 -21.165471 14.967964 500.000000
-0.260000 0.090000 0.410000 48.833750 27.720348 -82.769051 500.000000
-0.260000 0.090000 0.290000 186.513173 525.107349 12.060884 500.000000
0.260000 0.090000 0.290000 -147.438081 48.765921 18.395151 500.000000
0.260000 0.090000 0.290000 -105.318447 121.356515 119.242586 500.000000
-0.120053 0.260000 0.410000 -76.010552 -59.134007 -481.909056 500.000000
-0.260000 0.090000 0.401044 238.019253 121.195298 22.208748 500.000000
-0.260000 0.260000 0.410000 111.337284 -68.140899 -22.011758 500.000000
0.260000 0.090000 0.290000 -105.192727 48.273897 18.486224 500.000000
0.260000 0.090000 0.410000 -80.448839 201.329509 -22.696276 500.000000
0.237994 0.260000 0.410000 99.598897 -234.964964 -16.918176 500.000000
0.260000 0.260000 0.290000 -232.750269 -20.882283 15.731800 500.000000
0.260000 0.090000 0.290000 -60.757728 61.096495 17.838298 500.000000
-0.248045 0.090000 0.305178 -17.707527 10.052498 -20.964364 500.000000
0.260000 0.090000 0.304854 -74.672461 41.929552 -21.029165 500.000000
-0.260000 0.260000 0.290000 81.794506 -345.120659 24.443567 500.000000
-0.260000 0.260000 0.290000 98.222909 -40.657985 47.502498 500.000000
0.260000 0.260000 0.290000 -161.917675 -29.912690 15.992973 500.000000
0.260000 0.260000 0.410000 -226.263815 -124.046035 -439.712711 500.000000
0.260000 0.090000 0.410000 -65.580734 195.916664 -13.871340 500.000000
-0.260000 0.090000 0.290000 171.903873 66.125748 44.223684 500.000000
0.260000 0.090000 0.319835 -66.212412 42.128311 -18.033076 500.000000
0.260000 0.090000 0.290000 -126.801519 48.281602 18.486086 500.000000
0.260000 0.090000 0.314784 -64.301965 41.829233 -19.043227 500.000000
0.132697 0.232653 0.410000 17.044404 14.324941 -8.803449 500.000000
-0.059199 0.260000 0.410000 -2.355399 -61.334023 -20.029521 500.000000
0.260000 0.260000 0.410000 -68.101368 -99.196906 -15.414278 500.000000
0.260000 0.090000 0.311808 -63.728302 41.260733 -19.638421 500.000000
-0.260000 0.090000 0.410000 111.787156 32.955681 -76.492464 500.000000
0.260000 0.260000 0.290000 -261.502277 -22.667899 15.692367 500.000000
-0.260000 0.260000 0.290000 130.967165 -94.328326 50.004885 500.000000
0.260000 0.090000 0.410000 -150.057792 179.135857 -22.526774 500.000000
-0.260000 0.260000 0.410000 53.089155 -85.600429 -24.019046 500.000000
0.260000 0.260000 0.410000 -244.031967 -124.688473 -43.516850 500.000000
0.095799 0.260000 0.406964 -32.840174 -59.283147 23.392780 500.000000
-0.201591 0.090000 0.410000 -92.318116 233.080984 -32.967549 500.000000
0.259750 0.260000 0.290000 20.087885 -23.503226 15.720220 500.000000
0.260000 0.260000 0.410000 -57.969237 -109.508279 -26.391818 500.000000
0.260000 0.257386 0.290000 -131.487491 33.477270 12.917155 500.000000
0.260000 0.260000 0.290000 -153.950475 -32.670174 48.560337 500.000000
0.260000 0.260000 0.410000 -31.013203 -197.073933 -73.024631 500.000000
0.260000 0.090000 0.316584 -64.924418 42.154432 -18.683276 500.000000
0.260000 0.090000 0.313744 -67.577251 42.031250 -19.251213 500.000000
0.260000 0.090000 0.410000 -74.404753 251.844445 -22.825260 500.000000
-0.260000 0.260000 0.290000 147.327393 -52.523036 16.903467 500.000000
0.260000 0.090000 0.290000 -61.673591 48.187623 18.551301 500.000000
0.260000 0.194744 0.410000 -44.623115 -13.051167 -19.268099 500.000000
-0.109204 0.090000 0.290000 -73.840849 31.751980 253.375284 500.000000
0.260000 0.260000 0.290000 -45.885713 -40.045003 16.841880 500.000000
0.149052 0.260000 0.355022 -22.189546 -94.629534 13.004304 500.000000
-0.260000 0.260000 0.290000 174.101099 -40.647492 47.249153 500.000000
0.260000 0.090000 0.290000 -23.118402 35.786980 28.352717 500.000000
-0.260000 0.090000 0.290000 201.053243 58.614721 39.384907 500.000000
-0.260000 0.260000 0.290000 188.460316 -42.451422 47.394567 500.000000
0.260000 0.260000 0.290000 -118.468677 -29.344072 18.729835 500.000000
-0.260000 0.260000 0.290000 165.532545 -57.581732 46.374369 500.000000
-0.260000 0.124263 0.290000 101.866515 -27.147301 266.542879 500.000000
0.018501 0.121599 0.410000 -48.299871 -27.680268 -171.711119 500.000000
0.260000 0.090000 0.318385 -61.270950 42.237543 -18.322955 500.000000
-0.260000 0.260000 0.392650 93.813817 -42.241300 20.529917 500.000000
0.260000 0.090000 0.290000 -122.343148 45.939113 184.090414 500.000000
-0.260000 0.090000 0.410000 99.289854 45.125944 -96.942439 500.000000
0.073128 0.090000 0.410000 66.625589 209.396937 -26.516475 500.000000
0.260000 0.260000 0.410000 -166.364098 -144.260410 -22.605102 500.000000
0.260000 0.260000 0.290000 -204.618091 -23.209126 15.617889 500.000000
-0.260000 0.090000 0.290000 125.265298 66.083934 44.330261 500.000000
0.260000 0.260000 0.410000 -264.977033 -115.435800 -23.800743 500.000000
0.260000 0.260000 0.290000 -144.243991 -20.777284 15.661952 500.000000
0.260000 0.260000 0.290000 -165.841024 -22.972783 15.592935 500.000000
-0.088265 0.260000 0.290000 -39.184619 -31.457031 17.301315 500.000000
