ply
format ascii 1.0
element vertex 240
property float x
property float y
property float z
property float vx
property float vy
property float vz
property float density
end_header
0.260000 0.260000 0.410000 -416.915975 -30.783219 -35.222501 500.000000
0.260000 0.090000 0.290000 -105.713696 150.076111 89.777880 500.000000
-0.260000 0.260000 0.410000 80.875136 -45.951638 -38.242144 500.000000
-0.260000 0.090000 0.410000 187.111324 28.252240 -33.543931 500.000000
-0.072594 0.260000 0.290000 -66.518703 -99.550826 171.764108 500.000000
-0.260000 0.260000 0.290000 110.018815 -110.279655 167.949159 500.000000
-0.260000 0.090000 0.290000 76.776081 24.740677 409.831115 500.000000
0.127712 0.090000 0.290000 77.542492 294.875192 27.058639 500.000000
-0.260000 0.090000 0.410000 309.877786 229.476207 -62.177255 500.000000
0.187926 0.260000 0.290000 89.585119 -424.588988 159.089464 500.000000
-0.260000 0.090000 0.410000 81.973752 33.848944 -26.082052 500.000000
-0.260000 0.090000 0.410000 68.773170 25.256219 -39.619038 500.000000
0.260000 0.090000 0.410000 -118.051917 47.297739 -48.432784 500.000000
0.260000 0.260000 0.410000 -198.532167 -37.990554 -33.798850 500.000000
0.260000 0.090000 0.410000 -113.638287 50.392645 -28.222045 500.000000
0.260000 0.095953 0.410000 -727.321987 -32.809315 -38.884991 500.000000
-0.260000 0.090000 0.410000 62.377044 30.017450 -45.382225 500.000000
0.260000 0.090000 0.290000 -65.622962 19.826468 60.712488 500.000000
-0.260000 0.260000 0.410000 55.060895 -121.579432 -34.659536 500.000000
-0.260000 0.260000 0.410000 167.847695 -117.533615 -36.628359 500.000000
-0.238615 0.090000 0.410000 -99.723080 63.719751 -99.043186 500.000000
-0.260000 0.130445 0.290000 85.014122 -25.910947 150.514727 500.000000
0.260000 0.090000 0.290000 -114.668171 211.815474 48.903910 500.000000
-0.260000 0.090000 0.410000 63.693568 18.015698 -34.949721 500.000000
-0.260000 0.090000 0.290000 268.431017 18.545142 17.261952 500.000000
0.115015 0.184679 0.303327 12.111929 -15.064207 -21.334674 500.000000
0.260000 0.260000 0.410000 -234.289720 -34.541622 -34.730094 500.000000
-0.260000 0.260000 0.290000 33.658679 -122.728940 21.010019 500.000000
-0.145199 0.090000 0.290000 -19.329905 13.560540 13.682809 500.000000
-0.248921 0.090000 0.410000 -21.021542 43.882130 -13.811549 500.000000
-0.260000 0.260000 0.290000 59.178294 -105.038260 192.769490 500.000000
0.260000 0.260000 0.290000 -66.778148 -68.345322 132.740161 500.000000
0.260000 0.090000 0.290000 -50.280042 17.033005 24.646964 500.000000
-0.260000 0.090000 0.410000 247.436664 46.973802 -39.395184 500.000000
-0.260000 0.090000 0.410000 115.990876 25.096777 -42.505372 500.000000
-0.260000 0.090000 0.290000 56.652929 153.242733 19.737745 500.000000
-0.084580 0.260000 0.290000 -68.916027 -154.751421 190.942949 500.000000
0.260000 0.260000 0.290000 -62.057764 -21.815162 42.424162 500.000000
-0.260000 0.240243 0.410000 459.447516 30.048681 -32.337795 500.000000
0.260000 0.090000 0.290000 -122.690755 44.342110 14.229256 500.000000
0.260000 0.090000 0.410000 -116.774805 50.346464 -29.664151 500.000000
-0.260000 0.108831 0.290000 162.888375 -7.383562 22.814918 500.000000
-0.260000 0.090000 0.307788 155.893894 22.268612 -20.442429 500.000000
0.260000 0.260000 0.290000 -138.910683 -68.647635 130.840380 500.000000
-0.110302 0.260000 0.410000 -74.060375 -33.638380 -31.137137 500.000000
0.260000 0.090000 0.290000 -105.889184 100.059857 103.839712 500.000000
0.097807 0.260000 0.290000 71.561355 -68.977800 134.515465 500.000000
0.110755 0.090000 0.290000 74.151094 94.309958 58.869880 500.000000
0.260000 0.090000 0.290000 -105.816237 107.165543 105.509235 500.000000
0.260000 0.260000 0.410000 -299.362730 -49.119906 -35.890136 500.000000
-0.260000 0.090000 0.410000 268.101192 198.290721 -55.935606 500.000000
-0.260000 0.090000 0.410000 63.235244 26.217160 -38.847929 500.000000
-0.006249 0.260000 0.410000 50.750220 -64.796426 -641.338740 500.000000
0.260000 0.260000 0.410000 -83.384394 -17.444507 -52.009789 500.000000
0.260000 0.090000 0.290000 -107.863428 93.313239 51.130963 500.000000
0.260000 0.260000 0.290000 -84.142692 -71.230463 135.682521 500.000000
-0.260000 0.260000 0.410000 68.518666 -27.208809 -38.255276 500.000000
0.260000 0.260000 0.290000 -54.993033 -494.663433 156.254943 500.000000
-0.260000 0.260000 0.410000 67.146031 -22.239937 -31.737072 500.000000
-0.260000 0.090000 0.410000 64.425175 116.008919 -49.937663 500.000000
0.169624 0.090000 0.290000 85.924735 307.119734 29.324388 500.000000
0.221894 0.260000 0.290000 29.163372 -35.919629 14.467883 500.000000
0.080922 0.260000 0.410000 -35.815505 -49.323325 -38.734087 500.000000
0.260000 0.260000 0.410000 -85.242887 -25.732681 -47.463546 500.000000
0.103629 0.260000 0.290000 72.725897 -72.663518 133.416738 500.000000
-0.260000 0.260000 0.410000 59.526565 -59.553075 -33.859272 500.000000
-0.260000 0.090000 0.410000 57.175916 31.193958 -50.240837 500.000000
-0.260000 0.090000 0.292180 70.867469 22.900741 -23.564083 500.000000
-0.260000 0.090000 0.410000 139.151219 130.002609 -13.589641 500.000000
0.260000 0.090000 0.410000 -35.767733 25.216576 -27.473913 500.000000
-0.260000 0.090000 0.290000 64.875220 569.495884 150.301840 500.000000
-0.260000 0.090000 0.410000 136.256845 23.344034 -42.536965 500.000000
0.260000 0.090000 0.290000 -113.613434 92.075993 46.281134 500.000000
-0.260000 0.260000 0.410000 323.424091 -89.903105 -32.376437 500.000000
0.260000 0.257742 0.410000 -83.178671 33.548441 -54.732679 500.000000
0.260000 0.090000 0.410000 -128.649059 46.467549 -29.339055 500.000000
0.260000 0.090000 0.410000 -117.128053 50.737399 -43.705946 500.000000
0.260000 0.090000 0.290000 -61.825284 21.096695 12.828874 500.000000
0.260000 0.090000 0.410000 -116.627261 50.872616 -46.032559 500.000000
0.082257 0.260000 0.410000 0.158929 -45.067190 -35.679452 500.000000
-0.260000 0.090000 0.410000 229.808577 62.636327 -17.568423 500.000000
0.236243 0.090000 0.330770 31.594207 17.866934 -15.846096 500.000000
-0.001133 0.174198 0.410000 7.189574 -17.160475 -12.804512 500.000000
-0.079645 0.090000 0.410000 -67.928923 211.167642 -44.143359 500.000000
0.260000 0.090000 0.290000 -203.180569 95.086601 50.077501 500.000000
-0.227372 0.199329 0.290000 -10.956062 21.865757 14.215088 500.000000
-0.260000 0.090000 0.410000 104.634662 22.252626 -43.367540 500.000000
-0.260000 0.260000 0.290000 61.781521 -113.838051 190.998327 500.000000
-0.260000 0.260000 0.410000 149.940880 -49.697033 -38.062979 500.000000
0.260000 0.090000 0.290000 -103.393261 91.764561 51.045154 500.000000
0.260000 0.090000 0.290000 -54.327522 60.926046 15.787026 500.000000
0.260000 0.260000 0.410000 -81.238078 -52.927782 -70.240774 500.000000
0.260000 0.090000 0.290000 -106.063944 93.037971 88.781543 500.000000
-0.260000 0.090000 0.410000 85.793313 17.857290 -26.382719 500.000000
-0.197617 0.260000 0.290000 -91.523326 -202.989791 165.316967 500.000000
0.194907 0.260000 0.290000 90.981378 -74.366706 180.660249 500.000000
0.178149 0.103920 0.316867 44.167850 -31.215938 -18.626545 500.000000
0.260000 0.260000 0.290000 -63.305407 -69.944234 142.623682 500.000000
-0.260000 0.090000 0.410000 57.590618 58.255827 -37.777374 500.000000
0.260000 0.260000 0.410000 -169.389731 -319.533480 -80.565496 500.000000
0.260000 0.260000 0.410000 -121.081505 -18.484412 -48.147556 500.000000
0.011134 0.260000 0.410000 -49.773149 -74.812673 -601.116771 500.000000
0.260000 0.251832 0.410000 -82.951290 32.366370 -50.911443 500.000000
0.260000 0.260000 0.410000 -167.026470 -43.893001 -39.678208 500.000000
0.260000 0.090000 0.294748 -136.007916 17.146326 -23.050481 500.000000
-0.260000 0.090000 0.410000 244.828135 52.663601 -39.858711 500.000000
-0.020883 0.206603 0.346050 47.823478 -10.679399 11.210050 500.000000
-0.260000 0.090000 0.410000 66.414744 25.175183 -39.622376 500.000000
-0.260000 0.090000 0.290000 616.614131 99.251597 48.842980 500.000000
-0.260000 0.260000 0.410000 223.197014 -51.730663 -42.866419 500.000000
-0.062862 0.090000 0.290000 -64.572428 78.612450 21.802545 500.000000
-0.260000 0.090000 0.410000 62.109293 25.661757 -41.893648 500.000000
0.212551 0.090000 0.336949 -9.489899 60.897316 -14.610284 500.000000
-0.098391 0.260000 0.410000 -71.678111 -44.002039 -34.678594 500.000000
-0.256211 0.260000 0.290000 -85.570695 -19.150314 15.945490 500.000000
0.260000 0.090000 0.410000 -122.527269 50.474647 -30.199270 500.000000
-0.158490 0.260000 0.410000 -83.698050 -110.544311 -33.974650 500.000000
-0.260000 0.260000 0.410000 302.560596 -39.609005 -126.366100 500.000000
0.260000 0.090000 0.410000 -130.238259 45.858026 -30.859725 500.000000
0.144744 0.090000 0.290000 80.948754 119.313820 13.930713 500.000000
0.260000 0.260000 0.296172 -82.560358 -30.090769 -22.765601 500.000000
0.028648 0.260000 0.410000 -46.270311 -74.364557 -686.569521 500.000000
0.260000 0.090000 0.290000 -105.394345 97.742341 128.121253 500.000000
0.089968 0.090000 0.290000 33.903114 6.942358 13.673600 500.000000
0.260000 0.260000 0.290000 -40.323026 -21.733261 72.777647 500.000000
-0.122483 0.127957 0.377420 27.503355 -26.408635 17.483987 500.000000
-0.260000 0.090000 0.290000 269.827258 91.109981 64.301904 500.000000
0.260000 0.090000 0.410000 -209.309600 55.052656 -25.020501 500.000000
-0.219658 0.260000 0.290000 -95.931521 -153.041599 212.005241 500.000000
0.251077 0.090000 0.410000 51.301204 17.833055 -9.497520 500.000000
-0.260000 0.090000 0.410000 92.421832 136.982865 -35.217123 500.000000
0.041599 0.090000 0.410000 60.319798 37.690174 -450.204667 500.000000
0.004779 0.260000 0.290000 52.955803 -456.142095 157.177472 500.000000
-0.260000 0.090000 0.294494 66.726811 22.931132 -23.101207 500.000000
-0.260000 0.260000 0.410000 146.117721 -27.741315 -34.502687 500.000000
0.260000 0.090000 0.292725 -119.186858 162.869656 -23.455057 500.000000
-0.260000 0.090000 0.410000 63.023439 28.559012 -43.060485 500.000000
0.260000 0.090000 0.290000 -174.085287 26.616362 280.354634 500.000000
-0.260000 0.090000 0.410000 63.796878 93.571410 -48.744479 500.000000
0.260000 0.260000 0.290000 -264.384867 -37.622762 91.782911 500.000000
0.260000 0.090000 0.290000 -124.229636 95.368437 183.929934 500.000000
0.260000 0.090000 0.290000 -115.028445 91.604213 43.084842 500.000000
0.260000 0.090000 0.410000 -132.059780 46.158026 -31.872005 500.000000
-0.260000 0.090000 0.290000 79.854867 645.285247 136.857261 500.000000
0.260000 0.090000 0.410000 -136.253507 47.848110 -43.754219 500.000000
-0.260000 0.260000 0.290000 65.867511 -103.651165 163.137885 500.000000
0.260000 0.260000 0.410000 -359.657600 -45.862405 -36.192400 500.000000
-0.260000 0.260000 0.410000 30.486776 -84.035615 -15.613172 500.000000
-0.037280 0.260000 0.290000 -59.456047 -114.553905 160.552538 500.000000
0.260000 0.090000 0.410000 -117.719833 47.910654 -49.806852 500.000000
0.014634 0.090000 0.410000 54.926774 37.092766 -407.835248 500.000000
-0.082354 0.260000 0.410000 -68.470755 -32.362599 -93.884138 500.000000
-0.111519 0.260000 0.410000 -74.303895 -290.287275 -16.368579 500.000000
-0.260000 0.090000 0.290000 51.206273 93.083888 38.981451 500.000000
-0.260000 0.260000 0.410000 57.653316 -22.239369 -38.494827 500.000000
-0.139967 0.238964 0.290000 -79.993327 15.339930 21.855404 500.000000
-0.260000 0.260000 0.410000 159.334309 -107.748914 -34.990164 500.000000
0.260000 0.090000 0.290000 -105.553152 95.552776 99.484776 500.000000
-0.260000 0.260000 0.290000 150.179535 -115.843418 169.227268 500.000000
0.260000 0.260000 0.290000 -66.781766 -60.308988 428.212425 500.000000
0.260000 0.207809 0.290000 -61.838394 23.561841 45.287017 500.000000
-0.224574 0.090000 0.410000 -96.914703 20.602757 -42.106868 500.000000
0.064013 0.260000 0.290000 -39.197490 -103.351891 165.231175 500.000000
0.260000 0.235338 0.410000 -99.472402 29.067650 -51.447061 500.000000
0.260000 0.201196 0.375345 -102.540521 -11.760825 -6.931070 500.000000
0.260000 0.178167 0.290000 -79.933781 17.633371 385.065578 500.000000
-0.260000 0.090000 0.410000 58.988584 24.232983 -39.713689 500.000000
0.260000 0.256249 0.410000 -84.831000 33.249759 -56.071483 500.000000
0.260000 0.251299 0.410000 -84.938930 32.259807 -54.908847 500.000000
-0.260000 0.090000 0.410000 26.966183 73.638305 -42.279271 500.000000
0.260000 0.260000 0.410000 -41.945607 -119.997322 -45.649681 500.000000
-0.260000 0.120141 0.290000 67.999393 -6.550817 25.678381 500.000000
-0.260000 0.260000 0.410000 58.922645 -25.621123 -37.618093 500.000000
0.260000 0.090000 0.410000 -297.606105 110.980116 -23.636456 500.000000
0.260000 0.260000 0.410000 -79.384626 -22.743742 -25.774270 500.000000
-0.153543 0.090000 0.290000 -82.708573 109.196917 33.307819 500.000000
0.260000 0.090000 0.290000 -96.583460 24.245190 50.430667 500.000000
-0.260000 0.260000 0.410000 76.984362 -220.462773 -35.051124 500.000000
0.260000 0.260000 0.290000 -60.561517 -78.883874 132.295286 500.000000
0.156882 0.090000 0.293033 14.714031 21.875049 -23.393489 500.000000
0.260000 0.260000 0.410000 -86.409070 -17.973175 -53.857358 500.000000
-0.121812 0.260000 0.290000 -36.903765 -35.480382 296.267914 500.000000
0.260000 0.260000 0.410000 -105.898363 -137.898915 -66.572136 500.000000
-0.260000 0.090000 0.290000 107.832400 19.385054 12.481673 500.000000
-0.260000 0.259467 0.410000 415.323241 33.893317 -36.138503 500.000000
-0.186411 0.096708 0.290000 -10.460716 -32.658442 32.621843 500.000000
0.114139 0.260000 0.410000 2.898094 -8.717015 -14.718252 500.000000
0.260000 0.260000 0.290000 -299.054357 -19.798242 22.862945 500.000000
-0.077809 0.090000 0.290000 36.438290 32.848564 15.967102 500.000000
-0.260000 0.260000 0.410000 45.356667 -20.949524 -109.040549 500.000000
0.096459 0.260000 0.290000 71.291885 -73.538176 133.577954 500.000000
-0.260000 0.260000 0.290000 78.244807 -105.476030 198.431891 500.000000
0.260000 0.090000 0.290000 -106.015447 97.587354 80.072833 500.000000
0.260000 0.170503 0.410000 -143.015190 -17.899429 -92.925006 500.000000
-0.260000 0.260000 0.410000 99.124157 -106.776622 -34.735355 500.000000
0.260000 0.090000 0.410000 -116.662210 48.653510 -79.829652 500.000000
0.260000 0.260000 0.290000 -62.856656 -68.700113 133.973096 500.000000
-0.260000 0.260000 0.410000 45.530122 -25.479371 -37.058907 500.000000
-0.260000 0.090000 0.410000 118.162346 23.299274 -42.570263 500.000000
0.260000 0.260000 0.410000 -468.608042 -29.745539 -35.453649 500.000000
0.260000 0.090000 0.290000 -107.444954 206.433167 13.245578 500.000000
0.181726 0.121441 0.410000 88.345246 -27.711855 -16.526112 500.000000
0.260000 0.090000 0.410000 -116.684421 53.566011 -28.710245 500.000000
0.039310 0.090000 0.290000 59.862026 35.453599 16.882422 500.000000
-0.260000 0.090000 0.410000 147.914280 54.759178 -32.283707 500.000000
0.013490 0.260000 0.290000 54.698095 -72.578387 124.142805 500.000000
-0.260000 0.260000 0.410000 59.037758 -52.375099 -31.501526 500.000000
-0.260000 0.260000 0.290000 76.728178 -104.113174 168.106334 500.000000
-0.260000 0.090000 0.410000 83.165134 27.957451 -43.268936 500.000000
-0.224505 0.090000 0.410000 -96.900959 20.885965 -41.027159 500.000000
0.260000 0.256654 0.410000 -84.471350 33.330821 -55.082267 500.000000
-0.041596 0.260000 0.410000 -60.319122 -83.456228 -541.354869 500.000000
0.260000 0.090000 0.296897 -38.650420 24.440749 -22.620554 500.000000
0.260000 0.260000 0.410000 -409.556298 -17.387702 -34.669502 500.000000
0.260000 0.090000 0.290000 -292.874062 21.457782 164.202375 500.000000
-0.104467 0.260000 0.290000 -72.893440 -108.248892 164.651278 500.000000
-0.248638 0.090000 0.410000 -101.727588 21.010421 -40.694763 500.000000
-0.260000 0.260000 0.410000 241.025449 -82.200580 -35.837314 500.000000
-0.260000 0.260000 0.290000 79.393547 -10.459712 14.186522 500.000000
-0.260000 0.260000 0.410000 65.214662 -25.206493 -31.042851 500.000000
0.209151 0.090000 0.410000 -10.169860 6.924603 -35.927842 500.000000
-0.189889 0.092260 0.294433 -67.141251 -33.548024 -23.113304 500.000000
0.260000 0.260000 0.410000 -84.833169 -44.695554 -37.023308 500.000000
0.260000 0.090000 0.301419 -40.184631 18.394199 -21.716126 500.000000
0.260000 0.260000 0.290000 -60.567763 -528.132364 153.996661 500.000000
-0.260000 0.260000 0.410000 65.102801 -22.864161 -33.992694 500.000000
-0.260000 0.090000 0.410000 98.279026 120.386412 -14.316266 500.000000
0.260000 0.260000 0.410000 -43.911637 -19.058798 -32.313083 500.000000
-0.076039 0.260000 0.410000 36.792266 -68.950798 -573.951257 500.000000
-0.143297 0.220252 0.290000 -60.085199 26.050382 14.267873 500.000000
-0.260000 0.090000 0.290000 656.837132 91.622707 50.905032 500.000000
0.260000 0.090000 0.410000 -331.487476 18.357189 -27.022880 500.000000
0.260000 0.221517 0.410000 -113.708110 26.303301 -39.147879 500.000000
0.260000 0.090000 0.410000 -118.718256 46.166742 -48.432922 500.000000
0.260000 0.090000 0.290000 -105.975618 91.039823 125.199106 500.000000
-0.260000 0.090000 0.294523 69.894682 22.904969 -23.095386 500.000000
-0.260000 0.090000 0.410000 113.575340 92.088440 -38.869948 500.000000
0.099682 0.260000 0.410000 71.936360 -66.845188 -585.397679 500.000000
0.260000 0.090000 0.290000 -105.656854 92.861414 114.415745 500.000000
-0.260000 0.260000 0.410000 58.274099 -90.366893 -472.045215 500.000000
