ply
format ascii 1.0
element vertex 240
property float x
property float y
property float z
property float vx
property float vy
property float vz
property float density
end_header
-0.058618 0.125765 0.410000 40.276314 -2.843617 -30.701305 500.000000
0.260000 0.090000 0.410000 -331.644927 137.806620 -149.030347 500.000000
0.260000 0.090000 0.290000 -57.766865 43.138964 427.260125 500.000000
0.260000 0.260000 0.410000 -146.728714 -44.950483 -133.842836 500.000000
-0.260000 0.260000 0.410000 58.237313 -50.656991 -55.054420 500.000000
0.094986 0.090000 0.290000 70.997224 65.815674 466.920556 500.000000
0.260000 0.090000 0.410000 -905.119300 88.287691 -35.985279 500.000000
0.260000 0.260000 0.290000 -37.932489 -70.940052 61.904438 500.000000
-0.260000 0.238062 0.410000 186.235918 29.612478 -29.369790 500.000000
-0.260000 0.260000 0.410000 320.005452 -24.676149 -70.149957 500.000000
-0.260000 0.260000 0.290000 45.663027 -17.505478 55.696322 500.000000
-0.260000 0.260000 0.410000 110.151128 -17.990103 -66.369508 500.000000
0.260000 0.260000 0.410000 -34.937490 -28.429488 -28.773255 500.000000
0.232152 0.090000 0.290000 98.430410 24.769557 48.498255 500.000000
0.260000 0.090000 0.410000 -67.119968 39.911837 -309.957110 500.000000
-0.260000 0.146935 0.410000 50.248164 -22.613094 -27.446893 500.000000
-0.255548 0.260000 0.290000 -103.109536 -196.758957 49.122799 500.000000
0.088320 0.260000 0.410000 58.306870 -33.048852 -18.302743 500.000000
-0.212306 0.238333 0.410000 -7.220759 29.666608 -22.034632 500.000000
-0.260000 0.260000 0.290000 113.030718 -36.582992 54.187054 500.000000
-0.011289 0.260000 0.410000 -54.257725 -81.069367 -85.655652 500.000000
-0.260000 0.238471 0.410000 298.432176 29.694279 -15.273694 500.000000
-0.144475 0.260000 0.290000 -80.895099 -177.670741 15.965668 500.000000
0.260000 0.250241 0.290000 -62.814560 32.048285 102.909205 500.000000
-0.260000 0.090000 0.410000 508.439066 108.175772 -24.388730 500.000000
0.260000 0.222058 0.410000 -108.703357 26.411657 -84.798940 500.000000
0.010274 0.260000 0.290000 -49.945171 -59.162566 402.366641 500.000000
0.260000 0.165414 0.410000 -29.895838 -18.917214 -27.265199 500.000000
-0.260000 0.260000 0.410000 114.538266 -39.982495 -82.368580 500.000000
0.260000 0.260000 0.410000 -92.790765 -48.550591 -55.246085 500.000000
-0.260000 0.090000 0.290000 41.746997 20.054837 39.978660 500.000000
0.260000 0.236448 0.410000 -64.672135 29.289635 -17.219770 500.000000
-0.260000 0.260000 0.410000 68.156973 -37.234189 -297.443393 500.000000
-0.260000 0.090000 0.410000 528.342655 119.015230 -39.744787 500.000000
0.260000 0.260000 0.410000 -69.788075 -514.610804 -104.694488 500.000000
-0.069243 0.155410 0.410000 -26.348065 -20.917918 -23.799197 500.000000
-0.093229 0.260000 0.290000 -22.364614 -26.490328 55.707666 500.000000
0.254787 0.090000 0.410000 102.957435 38.315047 -148.293650 500.000000
0.260000 0.090000 0.410000 -477.596268 119.917502 -39.018547 500.000000
0.260000 0.260000 0.410000 -76.159283 -20.556901 -16.956776 500.000000
-0.099272 0.168952 0.410000 -9.865992 -18.209589 -33.816151 500.000000
0.260000 0.260000 0.410000 -102.849733 -24.816580 -88.578175 500.000000
-0.260000 0.260000 0.410000 240.590099 -795.592328 -34.788784 500.000000
-0.057862 0.090000 0.290000 40.427554 34.232494 51.638702 500.000000
-0.260000 0.260000 0.290000 122.520988 -31.845200 54.071115 500.000000
0.260000 0.090000 0.290000 -350.247569 121.991221 64.586872 500.000000
-0.041023 0.090000 0.290000 43.795406 13.629453 7.377078 500.000000
0.260000 0.260000 0.410000 -51.758974 -53.190264 -32.416493 500.000000
-0.100893 0.090000 0.290000 8.372183 93.037129 37.875030 500.000000
0.260000 0.235611 0.410000 -90.057156 29.122260 -17.338110 500.000000
0.260000 0.090000 0.410000 -756.081640 126.057226 -39.581282 500.000000
0.260000 0.260000 0.290000 -97.773186 -70.704224 56.836101 500.000000
-0.260000 0.090000 0.290000 80.852626 84.364417 37.551210 500.000000
-0.016330 0.260000 0.410000 -55.265918 -67.804703 -90.336969 500.000000
0.260000 0.235371 0.410000 -167.005967 29.074259 -16.992153 500.000000
-0.260000 0.090000 0.290000 75.034517 200.437505 56.217147 500.000000
-0.260000 0.260000 0.410000 140.869568 -41.935396 -16.918783 500.000000
0.260000 0.090000 0.290000 -58.551639 33.385364 400.253705 500.000000
0.260000 0.090000 0.410000 -67.985456 57.928287 -147.018834 500.000000
0.260000 0.090000 0.410000 -105.226371 64.790747 -144.508240 500.000000
-0.260000 0.090000 0.410000 528.234999 120.352839 -42.718922 500.000000
0.035853 0.224726 0.410000 -44.829480 26.945145 -39.739590 500.000000
0.260000 0.090000 0.290000 -68.936991 129.623967 317.135543 500.000000
0.260000 0.217166 0.410000 -66.828961 25.433113 -33.092196 500.000000
-0.260000 0.090000 0.290000 58.773908 27.045189 36.722939 500.000000
-0.260000 0.090000 0.410000 472.559466 40.416173 -83.968420 500.000000
-0.078337 0.260000 0.290000 -67.667439 -219.346491 63.149996 500.000000
-0.260000 0.260000 0.290000 105.822571 -50.338339 53.087258 500.000000
0.260000 0.260000 0.290000 -90.581602 -60.771882 247.627700 500.000000
-0.260000 0.260000 0.410000 128.797636 -52.416029 -243.557314 500.000000
0.260000 0.165707 0.410000 -38.819380 1.227034 -127.209405 500.000000
0.150919 0.260000 0.290000 22.149015 -60.892365 513.709903 500.000000
-0.260000 0.260000 0.290000 42.600767 -139.388785 17.788002 500.000000
-0.260000 0.260000 0.290000 61.074269 -54.979288 58.468690 500.000000
-0.015323 0.260000 0.410000 -55.064577 -64.016457 -84.015255 500.000000
0.260000 0.090000 0.410000 -552.985554 124.998460 -47.504279 500.000000
0.260000 0.090000 0.410000 -54.059122 18.430716 -14.369174 500.000000
-0.176486 0.260000 0.290000 -87.297287 -39.715281 54.976158 500.000000
-0.048238 0.165979 0.410000 -6.205469 -18.804268 -212.846344 500.000000
-0.260000 0.090000 0.290000 60.307498 133.921871 12.170430 500.000000
0.260000 0.090000 0.410000 -673.295998 124.359495 -39.600175 500.000000
-0.260000 0.260000 0.410000 208.479575 -43.377594 -240.539788 500.000000
-0.260000 0.260000 0.290000 24.609216 -51.699757 58.966224 500.000000
-0.260000 0.260000 0.410000 355.558719 -44.640672 -230.624920 500.000000
0.260000 0.260000 0.410000 -109.061389 -23.078393 -88.540963 500.000000
-0.260000 0.260000 0.410000 248.746179 -89.382195 -369.835783 500.000000
0.260000 0.260000 0.410000 -202.233872 -47.023984 -55.199672 500.000000
0.260000 0.260000 0.290000 -171.916828 -76.243864 58.048855 500.000000
-0.001292 0.260000 0.410000 -52.258366 -44.685890 -89.082865 500.000000
0.260000 0.260000 0.410000 -53.460965 -18.302317 -27.807880 500.000000
0.260000 0.090000 0.331509 -56.749491 19.235340 -15.698154 500.000000
-0.111492 0.260000 0.290000 -74.298338 -40.155292 51.445616 500.000000
0.260000 0.090000 0.410000 -100.162542 65.293726 -144.761446 500.000000
0.098512 0.260000 0.290000 -0.457630 -32.316843 54.073378 500.000000
0.065958 0.260000 0.290000 -38.808430 -244.438333 35.528630 500.000000
0.260000 0.090000 0.410000 -89.283673 79.440571 -146.602492 500.000000
0.260000 0.260000 0.410000 -101.587162 -37.768745 -88.518920 500.000000
-0.260000 0.260000 0.410000 10.403126 -23.895248 -24.981724 500.000000
-0.260000 0.090000 0.410000 527.908453 110.583616 -20.146662 500.000000
0.124543 0.260000 0.410000 8.406382 -17.868736 -12.128075 500.000000
-0.260000 0.260000 0.410000 66.806227 -41.457876 -53.425022 500.000000
-0.023642 0.260000 0.410000 -56.728394 -36.377212 -83.745884 500.000000
0.260000 0.090000 0.410000 -901.398578 129.312398 -39.579200 500.000000
0.260000 0.260000 0.290000 -61.604502 -49.987522 59.109208 500.000000
0.260000 0.090000 0.290000 -53.439788 40.169608 41.221634 500.000000
-0.260000 0.090000 0.290000 24.236784 108.831496 36.264400 500.000000
-0.260000 0.090000 0.410000 526.189181 108.441488 -28.032459 500.000000
0.260000 0.228429 0.410000 -54.820834 27.685732 -7.411546 500.000000
-0.134234 0.260000 0.290000 -78.846821 -42.570398 58.820619 500.000000
-0.260000 0.260000 0.290000 126.249516 -50.068727 53.854738 500.000000
0.260000 0.090000 0.410000 -73.245500 54.278111 -146.965157 500.000000
-0.260000 0.260000 0.290000 158.763274 -53.065188 53.987290 500.000000
-0.260000 0.090000 0.410000 528.074097 118.694532 -41.521039 500.000000
-0.218107 0.215835 0.290000 -95.621387 8.367812 221.771515 500.000000
0.228685 0.238149 0.410000 76.300321 29.629837 -26.847750 500.000000
0.260000 0.090000 0.410000 -629.365550 126.983755 -50.147336 500.000000
0.260000 0.260000 0.290000 -209.321028 -33.524342 218.004893 500.000000
0.050089 0.090000 0.290000 50.607594 99.384942 37.907168 500.000000
0.260000 0.090000 0.410000 -396.929328 122.571851 -44.831802 500.000000
0.260000 0.090000 0.290000 -95.367923 31.892749 71.013787 500.000000
-0.260000 0.090000 0.290000 65.935353 164.332702 413.477404 500.000000
-0.260000 0.260000 0.290000 84.979749 -22.764227 55.666701 500.000000
-0.260000 0.090000 0.410000 525.963353 115.409491 -19.866746 500.000000
-0.260000 0.260000 0.410000 41.625581 -49.712406 -54.988996 500.000000
-0.260000 0.260000 0.290000 81.072855 -54.047378 58.700425 500.000000
0.260000 0.090000 0.410000 -101.710318 64.824014 -144.597113 500.000000
-0.260000 0.090000 0.410000 527.991547 120.292459 -38.822873 500.000000
0.260000 0.260000 0.410000 -87.931971 -49.484172 -54.595182 500.000000
-0.260000 0.260000 0.290000 70.732055 -37.846825 523.003693 500.000000
0.026201 0.090000 0.410000 -0.024098 83.811444 -21.095525 500.000000
0.260000 0.090000 0.410000 -97.007994 55.437435 -144.264979 500.000000
-0.260000 0.260000 0.290000 91.702012 -123.908948 54.350287 500.000000
-0.260000 0.260000 0.290000 73.319314 -53.170454 56.432453 500.000000
0.260000 0.090000 0.410000 -53.807984 40.193327 -266.360414 500.000000
0.260000 0.090000 0.410000 -62.353060 123.793904 -27.702570 500.000000
0.088833 0.260000 0.410000 -34.233307 -37.587971 -120.047724 500.000000
-0.260000 0.090000 0.410000 527.830248 118.937190 -41.235038 500.000000
-0.260000 0.257823 0.410000 54.705802 33.564672 -86.207191 500.000000
-0.260000 0.090000 0.410000 582.733961 113.660044 -24.528410 500.000000
0.260000 0.246745 0.410000 -161.317993 31.349076 -15.424068 500.000000
0.260000 0.090000 0.410000 -930.348739 123.337463 -37.360053 500.000000
-0.247939 0.260000 0.410000 -44.087357 -66.507894 -13.692621 500.000000
0.260000 0.090000 0.410000 -328.086834 120.107284 -42.151940 500.000000
0.260000 0.260000 0.410000 -117.549629 -38.738988 -52.868558 500.000000
-0.260000 0.090000 0.410000 527.269195 118.177898 -39.532690 500.000000
-0.028716 0.260000 0.290000 -27.978486 -38.722308 57.459247 500.000000
-0.260000 0.090000 0.298903 83.146189 161.048697 -22.219332 500.000000
-0.060045 0.090000 0.410000 39.991078 8.416161 -9.858947 500.000000
-0.260000 0.090000 0.290000 74.653827 48.831399 46.101486 500.000000
0.260000 0.090000 0.290000 -91.029043 290.859635 16.100951 500.000000
0.260000 0.090000 0.410000 -832.280007 126.533765 -39.570262 500.000000
-0.205873 0.090000 0.372836 -60.448185 59.490504 16.567280 500.000000
0.260000 0.190712 0.290000 -28.546079 7.257090 51.677440 500.000000
-0.260000 0.260000 0.290000 62.195730 -51.408319 58.789054 500.000000
0.260000 0.090000 0.410000 -786.176166 144.615554 -31.361018 500.000000
-0.069134 0.090000 0.290000 16.623069 88.049875 38.391515 500.000000
-0.260000 0.260000 0.290000 133.414731 -58.839096 54.608943 500.000000
0.260000 0.134913 0.375230 -39.487620 -25.017487 -6.954007 500.000000
-0.260000 0.260000 0.290000 147.833032 -50.538780 186.513296 500.000000
-0.260000 0.090000 0.290000 94.774139 146.010820 313.482263 500.000000
0.009286 0.260000 0.410000 -50.142888 -37.159004 -87.296881 500.000000
0.147144 0.260000 0.290000 81.428722 -69.056087 12.838478 500.000000
-0.260000 0.260000 0.290000 82.317519 -31.372168 55.588977 500.000000
-0.156596 0.260000 0.290000 -83.319235 -37.077815 51.821754 500.000000
0.260000 0.260000 0.290000 -83.764282 -89.902930 17.205625 500.000000
0.260000 0.260000 0.410000 -44.698898 -115.100478 -66.305550 500.000000
-0.260000 0.260000 0.410000 210.504088 -858.809887 -118.797953 500.000000
0.063039 0.220789 0.410000 -39.392270 26.157822 -37.878818 500.000000
-0.260000 0.090000 0.290000 102.540086 42.216081 49.418437 500.000000
0.260000 0.090000 0.410000 -85.061145 39.186411 -223.218515 500.000000
-0.080481 0.260000 0.290000 -68.096278 -31.521902 53.266751 500.000000
-0.171582 0.166759 0.355426 -17.358032 -18.648253 13.085254 500.000000
-0.260000 0.251058 0.410000 45.043704 32.211664 -23.253014 500.000000
-0.109334 0.090000 0.290000 30.133114 63.785825 173.886144 500.000000
-0.260000 0.090000 0.410000 718.757761 119.242938 -19.641880 500.000000
0.260000 0.232435 0.410000 -98.312744 28.486978 -88.618297 500.000000
-0.045721 0.090000 0.290000 23.251567 167.771023 36.427646 500.000000
0.102594 0.090000 0.290000 72.518892 36.731380 18.101059 500.000000
0.260000 0.260000 0.290000 -60.228035 -37.064142 25.439610 500.000000
-0.260000 0.090000 0.290000 70.985503 216.867905 51.682510 500.000000
0.021720 0.180550 0.389307 -31.731436 18.110038 19.861451 500.000000
-0.260000 0.090000 0.290000 37.106831 77.597881 78.197509 500.000000
-0.260000 0.233693 0.410000 46.054385 28.738563 -17.409351 500.000000
0.260000 0.260000 0.290000 -80.639729 -76.399349 52.921834 500.000000
-0.260000 0.090000 0.410000 573.275930 114.150325 -21.380722 500.000000
-0.260000 0.093580 0.290000 61.256759 -33.283962 47.323207 500.000000
-0.260000 0.260000 0.290000 84.271837 -31.811079 53.743957 500.000000
-0.260000 0.090000 0.410000 532.477792 123.114850 -38.568574 500.000000
-0.260000 0.090000 0.294168 55.078328 145.619202 -23.166323 500.000000
-0.260000 0.260000 0.410000 92.107001 -38.455185 -89.702226 500.000000
0.260000 0.260000 0.410000 -90.956466 -32.504217 -88.585385 500.000000
-0.260000 0.260000 0.290000 119.054376 -51.945528 59.506911 500.000000
0.260000 0.090000 0.410000 -105.610674 64.510791 -144.436776 500.000000
0.260000 0.238948 0.410000 -48.936067 29.789687 -16.342361 500.000000
0.052152 0.238709 0.410000 43.241124 29.741735 -16.699422 500.000000
0.260000 0.260000 0.410000 -833.312433 -400.822481 -78.631307 500.000000
-0.251417 0.132012 0.290000 -32.540237 -25.597647 40.963252 500.000000
-0.260000 0.097693 0.290000 81.154118 -32.461451 79.372017 500.000000
0.260000 0.260000 0.410000 -179.649092 -49.057965 -64.325470 500.000000
-0.260000 0.260000 0.290000 67.826600 -60.078709 59.865019 500.000000
0.069021 0.090000 0.349057 23.806682 8.815995 -12.188680 500.000000
-0.260000 0.090000 0.410000 528.991695 134.955865 -170.263069 500.000000
0.171568 0.090000 0.290000 86.313642 10.762167 158.771461 500.000000
0.173376 0.090000 0.290000 86.675139 147.848562 358.609294 500.000000
0.213196 0.090000 0.290000 94.639240 26.773541 43.012189 500.000000
0.260000 0.260000 0.334194 -121.861504 -58.591007 -15.161274 500.000000
0.260000 0.090000 0.290000 -56.002189 124.455278 52.299182 500.000000
0.260000 0.090000 0.290000 -42.701908 42.855838 144.612835 500.000000
0.260000 0.260000 0.290000 -99.590287 -69.777918 56.636491 500.000000
0.260000 0.090000 0.290000 -57.288784 301.127399 27.474420 500.000000
0.220557 0.090000 0.410000 96.111316 166.670690 -147.375729 500.000000
-0.260000 0.260000 0.410000 64.961992 -36.706336 -83.929171 500.000000
0.127192 0.220879 0.410000 38.756206 13.015765 -32.840807 500.000000
-0.260000 0.243240 0.410000 64.141289 30.647939 -15.356589 500.000000
0.211685 0.158399 0.290000 60.028756 0.529516 59.873130 500.000000
-0.022631 0.196824 0.290000 3.444658 1.478385 22.185215 500.000000
0.260000 0.260000 0.410000 -97.956578 -33.431567 -88.584192 500.000000
-0.260000 0.100613 0.290000 171.177160 -31.877310 43.211222 500.000000
0.260000 0.260000 0.290000 -133.062086 -66.772735 59.634095 500.000000
-0.260000 0.260000 0.410000 123.463269 -71.102252 -56.266986 500.000000
-0.260000 0.090000 0.290000 56.698053 209.633211 14.287087 500.000000
0.260000 0.260000 0.290000 -114.036145 -165.419712 270.327645 500.000000
-0.260000 0.260000 0.379589 121.804867 -18.188213 17.917877 500.000000
0.260000 0.260000 0.410000 -26.488772 -19.457127 -34.485179 500.000000
-0.260000 0.260000 0.410000 61.764960 -8.042492 -23.670065 500.000000
-0.260000 0.090000 0.290000 87.804663 191.596703 41.890091 500.000000
-0.260000 0.126411 0.290000 42.279956 -26.717784 49.377807 500.000000
-0.039099 0.260000 0.290000 -59.819836 -31.600678 53.267886 500.000000
-0.260000 0.260000 0.410000 39.156069 -50.809010 -55.296775 500.000000
-0.046160 0.260000 0.410000 -61.231990 -61.645955 -86.465562 500.000000
-0.260000 0.260000 0.410000 166.035257 -881.248426 -37.361268 500.000000
-0.260000 0.128634 0.410000 16.000584 -26.273192 -85.907592 500.000000
0.113366 0.260000 0.290000 32.366398 -27.619052 14.330563 500.000000
0.260000 0.090000 0.410000 -628.176911 143.579517 -40.287884 500.000000
0.260000 0.090000 0.410000 -29.785913 8.682320 -6.271575 500.000000
-0.260000 0.260000 0.410000 62.241686 -32.435670 -40.424937 500.000000
-0.011618 0.260000 0.410000 -54.323563 -70.753129 -89.134705 500.000000
-0.260000 0.090000 0.410000 610.595607 112.572734 -22.017462 500.000000
-0.260000 0.090000 0.410000 528.305278 119.136312 -39.989071 500.000000
-0.030871 0.260000 0.410000 -58.174210 -44.500505 -86.188066 500.000000
