ply
format ascii 1.0
element vertex 240
property float x
property float y
property float z
property float vx
property float vy
property float vz
property float density
end_header
-0.011718 0.260000 0.410000 38.698496 -43.369162 -79.141567 500.000000
-0.154656 0.260000 0.410000 9.277674 -29.889054 -191.572325 500.000000
-0.154656 0.260000 0.290000 9.277674 -29.889054 191.670388 500.000000
-0.011718 0.260000 0.290000 38.698496 -43.369162 79.239630 500.000000
-0.188727 0.260000 0.410000 2.463305 -165.258903 -54.116703 500.000000
-0.230079 0.260000 0.410000 -6.640321 -111.977897 -151.217518 500.000000
-0.230079 0.260000 0.290000 -6.640321 -111.977897 151.315581 500.000000
-0.188727 0.260000 0.290000 2.463305 -165.258903 54.214766 500.000000
-0.181999 0.175000 0.410000 3.808965 0.000000 -55.534811 500.000000
-0.254072 0.175000 0.410000 -11.438854 0.000000 -190.064163 500.000000
-0.254072 0.175000 0.290000 -11.438854 0.000000 190.162226 500.000000
-0.181999 0.175000 0.290000 3.808965 0.000000 55.632875 500.000000
-0.188727 0.090000 0.410000 2.463305 165.258903 -54.116703 500.000000
-0.230079 0.090000 0.410000 -6.640321 111.977897 -151.217518 500.000000
-0.230079 0.090000 0.290000 -6.640321 111.977897 151.315581 500.000000
-0.188727 0.090000 0.290000 2.463305 165.258903 54.214766 500.000000
-0.011718 0.090000 0.410000 38.698496 43.369162 -79.141567 500.000000
-0.154656 0.090000 0.410000 9.277674 29.889054 -191.572325 500.000000
-0.154656 0.090000 0.290000 9.277674 29.889054 191.670388 500.000000
-0.011718 0.090000 0.290000 38.698496 43.369162 79.239630 500.000000
0.260000 0.260000 0.410000 -169.628046 -29.627529 -54.379372 500.000000
0.260000 0.260000 0.410000 -116.810289 -24.431619 -158.699221 500.000000
0.260000 0.260000 0.290000 -116.810289 -24.431619 158.797284 500.000000
0.260000 0.260000 0.290000 -169.628046 -29.627529 54.477435 500.000000
0.260000 0.260000 0.290000 -132.979610 -133.390720 40.402611 500.000000
0.260000 0.260000 0.410000 -89.348754 -89.800071 -124.322048 500.000000
0.260000 0.260000 0.290000 -89.348754 -89.800071 124.420111 500.000000
0.260000 0.260000 0.410000 -132.979610 -133.390720 -40.304548 500.000000
0.260000 0.175000 0.290000 -163.227135 0.000000 44.516329 500.000000
0.260000 0.175000 0.410000 -114.228199 0.000000 -158.873470 500.000000
0.260000 0.175000 0.290000 -114.228199 -0.000000 158.971533 500.000000
0.260000 0.175000 0.410000 -163.227135 0.000000 -44.418266 500.000000
0.260000 0.090000 0.290000 -132.979610 133.390720 40.402611 500.000000
0.260000 0.090000 0.410000 -89.348754 89.800071 -124.322048 500.000000
0.260000 0.090000 0.290000 -89.348754 89.800071 124.420111 500.000000
0.260000 0.090000 0.410000 -132.979610 133.390720 -40.304548 500.000000
0.260000 0.090000 0.410000 -169.628046 29.627529 -54.379372 500.000000
0.260000 0.090000 0.410000 -116.810289 24.431619 -158.699221 500.000000
0.260000 0.090000 0.290000 -116.810289 24.431619 158.797284 500.000000
0.260000 0.090000 0.290000 -169.628046 29.627529 54.477435 500.000000
-0.260000 0.260000 0.410000 113.398555 -33.708661 -53.552343 500.000000
-0.260000 0.260000 0.410000 84.328872 -27.499853 -155.725881 500.000000
-0.260000 0.260000 0.290000 84.328872 -27.499853 155.823944 500.000000
-0.260000 0.260000 0.290000 113.398555 -33.708661 53.650406 500.000000
-0.260000 0.260000 0.290000 96.771720 -128.334363 38.547629 500.000000
-0.260000 0.260000 0.410000 70.935453 -88.557271 -122.960494 500.000000
-0.260000 0.260000 0.290000 70.935453 -88.557271 123.058557 500.000000
-0.260000 0.260000 0.410000 96.771720 -128.334363 -38.449566 500.000000
-0.260000 0.175000 0.290000 116.096100 0.000000 42.967340 500.000000
-0.260000 0.175000 0.410000 86.758293 0.000000 -158.219958 500.000000
-0.260000 0.175000 0.290000 86.758293 0.000000 158.318021 500.000000
-0.260000 0.175000 0.410000 116.096100 0.000000 -42.869277 500.000000
-0.260000 0.090000 0.290000 96.771720 128.334363 38.547629 500.000000
-0.260000 0.090000 0.410000 70.935453 88.557271 -122.960494 500.000000
-0.260000 0.090000 0.290000 70.935453 88.557271 123.058557 500.000000
-0.260000 0.090000 0.410000 96.771720 128.334363 -38.449566 500.000000
-0.260000 0.090000 0.410000 113.398555 33.708661 -53.552343 500.000000
-0.260000 0.090000 0.410000 84.328872 27.499853 -155.725881 500.000000
-0.260000 0.090000 0.290000 84.328872 27.499853 155.823944 500.000000
-0.260000 0.090000 0.290000 113.398555 33.708661 53.650406 500.000000
-0.125031 0.260000 0.410000 -0.006282 -32.536977 -51.315944 500.000000
-0.128058 0.260000 0.410000 -0.611634 -27.534964 -113.334973 500.000000
-0.128058 0.260000 0.290000 -0.611634 -27.534964 113.433036 500.000000
-0.125031 0.260000 0.290000 -0.006282 -32.536977 51.414008 500.000000
-0.129111 0.260000 0.290000 -0.822220 -93.030480 32.578929 500.000000
-0.129515 0.260000 0.410000 -0.902937 -62.435507 -87.047518 500.000000
-0.129515 0.260000 0.290000 -0.902937 -62.435507 87.145582 500.000000
-0.129111 0.260000 0.410000 -0.822220 -93.030480 -32.480866 500.000000
-0.129111 0.175000 0.290000 -0.822220 0.000000 36.252553 500.000000
-0.129510 0.175000 0.410000 -0.901975 0.000000 -116.156119 500.000000
-0.129510 0.175000 0.290000 -0.901975 -0.000000 116.254182 500.000000
-0.129111 0.175000 0.410000 -0.822220 0.000000 -36.154490 500.000000
-0.129111 0.090000 0.290000 -0.822220 93.030480 32.578929 500.000000
-0.129515 0.090000 0.410000 -0.902937 62.435507 -87.047518 500.000000
-0.129515 0.090000 0.290000 -0.902937 62.435507 87.145582 500.000000
-0.129111 0.090000 0.410000 -0.822220 93.030480 -32.480866 500.000000
-0.125031 0.090000 0.410000 -0.006282 32.536977 -51.315944 500.000000
-0.128058 0.090000 0.410000 -0.611634 27.534964 -113.334973 500.000000
-0.128058 0.090000 0.290000 -0.611634 27.534964 113.433036 500.000000
-0.125031 0.090000 0.290000 -0.006282 32.536977 51.414008 500.000000
-0.075000 0.260000 0.410000 -0.000000 -32.537849 -51.316683 500.000000
-0.075000 0.260000 0.410000 -0.000000 -27.513131 -113.334973 500.000000
-0.075000 0.260000 0.290000 -0.000000 -27.513131 113.433036 500.000000
-0.075000 0.260000 0.290000 0.000000 -32.537849 51.414747 500.000000
-0.075000 0.260000 0.290000 -0.000000 -93.030480 32.597875 500.000000
-0.075000 0.260000 0.410000 0.000000 -62.435355 -87.047367 500.000000
-0.075000 0.260000 0.290000 0.000000 -62.435355 87.145430 500.000000
-0.075000 0.260000 0.410000 0.000000 -93.030480 -32.499812 500.000000
-0.075000 0.175000 0.290000 -0.000000 0.000000 36.271499 500.000000
-0.075000 0.175000 0.410000 -0.000000 0.000000 -116.155967 500.000000
-0.075000 0.175000 0.290000 0.000000 -0.000000 116.254030 500.000000
-0.075000 0.175000 0.410000 0.000000 0.000000 -36.173436 500.000000
-0.075000 0.090000 0.290000 -0.000000 93.030480 32.597875 500.000000
-0.075000 0.090000 0.410000 -0.000000 62.435355 -87.047367 500.000000
-0.075000 0.090000 0.290000 -0.000000 62.435355 87.145430 500.000000
-0.075000 0.090000 0.410000 0.000000 93.030480 -32.499812 500.000000
-0.075000 0.090000 0.410000 -0.000000 32.537849 -51.316683 500.000000
-0.075000 0.090000 0.410000 0.000000 27.513131 -113.334973 500.000000
-0.075000 0.090000 0.290000 -0.000000 27.513131 113.433036 500.000000
-0.075000 0.090000 0.290000 0.000000 32.537849 51.414747 500.000000
-0.025000 0.260000 0.410000 -0.000000 -32.537849 -51.316683 500.000000
-0.025000 0.260000 0.410000 -0.000000 -27.513131 -113.334973 500.000000
-0.025000 0.260000 0.290000 -0.000000 -27.513131 113.433036 500.000000
-0.025000 0.260000 0.290000 0.000000 -32.537849 51.414747 500.000000
-0.025000 0.260000 0.290000 -0.000000 -93.030480 32.597875 500.000000
-0.025000 0.260000 0.410000 0.000000 -62.435355 -87.047367 500.000000
-0.025000 0.260000 0.290000 0.000000 -62.435355 87.145430 500.000000
-0.025000 0.260000 0.410000 0.000000 -93.030480 -32.499812 500.000000
-0.025000 0.175000 0.290000 -0.000000 0.000000 36.271499 500.000000
-0.025000 0.175000 0.410000 -0.000000 0.000000 -116.155967 500.000000
-0.025000 0.175000 0.290000 0.000000 -0.000000 116.254030 500.000000
-0.025000 0.175000 0.410000 0.000000 0.000000 -36.173436 500.000000
-0.025000 0.090000 0.290000 -0.000000 93.030480 32.597875 500.000000
-0.025000 0.090000 0.410000 0.000000 62.435355 -87.047367 500.000000
-0.025000 0.090000 0.290000 0.000000 62.435355 87.145430 500.000000
-0.025000 0.090000 0.410000 0.000000 93.030480 -32.499812 500.000000
-0.025000 0.090000 0.410000 -0.000000 32.537849 -51.316683 500.000000
-0.025000 0.090000 0.410000 0.000000 27.513131 -113.334973 500.000000
-0.025000 0.090000 0.290000 0.000000 27.513131 113.433036 500.000000
-0.025000 0.090000 0.290000 0.000000 32.537849 51.414747 500.000000
0.025000 0.260000 0.410000 -0.000000 -32.537849 -51.316683 500.000000
0.025000 0.260000 0.410000 -0.000000 -27.513131 -113.334973 500.000000
0.025000 0.260000 0.290000 -0.000000 -27.513131 113.433036 500.000000
0.025000 0.260000 0.290000 0.000000 -32.537849 51.414747 500.000000
0.025000 0.260000 0.290000 -0.000000 -93.030480 32.597875 500.000000
0.025000 0.260000 0.410000 0.000000 -62.435355 -87.047367 500.000000
0.025000 0.260000 0.290000 0.000000 -62.435355 87.145430 500.000000
0.025000 0.260000 0.410000 0.000000 -93.030480 -32.499812 500.000000
0.025000 0.175000 0.290000 -0.000000 0.000000 36.271499 500.000000
0.025000 0.175000 0.410000 -0.000000 0.000000 -116.155967 500.000000
0.025000 0.175000 0.290000 0.000000 -0.000000 116.254030 500.000000
0.025000 0.175000 0.410000 0.000000 0.000000 -36.173436 500.000000
0.025000 0.090000 0.290000 -0.000000 93.030480 32.597875 500.000000
0.025000 0.090000 0.410000 0.000000 62.435355 -87.047367 500.000000
0.025000 0.090000 0.290000 0.000000 62.435355 87.145430 500.000000
0.025000 0.090000 0.410000 0.000000 93.030480 -32.499812 500.000000
0.025000 0.090000 0.410000 -0.000000 32.537849 -51.316683 500.000000
0.025000 0.090000 0.410000 -0.000000 27.513131 -113.334973 500.000000
0.025000 0.090000 0.290000 0.000000 27.513131 113.433036 500.000000
0.025000 0.090000 0.290000 0.000000 32.537849 51.414747 500.000000
0.075000 0.260000 0.410000 -0.000000 -32.537849 -51.316683 500.000000
0.075000 0.260000 0.410000 0.000000 -27.513131 -113.334973 500.000000
0.075000 0.260000 0.290000 0.000000 -27.513131 113.433036 500.000000
0.075000 0.260000 0.290000 0.000000 -32.537849 51.414747 500.000000
0.075000 0.260000 0.290000 0.000000 -93.030480 32.597875 500.000000
0.075000 0.260000 0.410000 0.000000 -62.435355 -87.047367 500.000000
0.075000 0.260000 0.290000 0.000000 -62.435355 87.145430 500.000000
0.075000 0.260000 0.410000 0.000000 -93.030480 -32.499812 500.000000
0.075000 0.175000 0.290000 0.000000 0.000000 36.271499 500.000000
0.075000 0.175000 0.410000 0.000000 0.000000 -116.155967 500.000000
0.075000 0.175000 0.290000 0.000000 -0.000000 116.254030 500.000000
0.075000 0.175000 0.410000 0.000000 0.000000 -36.173436 500.000000
0.075000 0.090000 0.290000 0.000000 93.030480 32.597875 500.000000
0.075000 0.090000 0.410000 0.000000 62.435355 -87.047367 500.000000
0.075000 0.090000 0.290000 0.000000 62.435355 87.145430 500.000000
0.075000 0.090000 0.410000 0.000000 93.030480 -32.499812 500.000000
0.075000 0.090000 0.410000 -0.000000 32.537849 -51.316683 500.000000
0.075000 0.090000 0.410000 0.000000 27.513131 -113.334973 500.000000
0.075000 0.090000 0.290000 0.000000 27.513131 113.433036 500.000000
0.075000 0.090000 0.290000 0.000000 32.537849 51.414747 500.000000
0.125031 0.260000 0.410000 0.006282 -32.536977 -51.315944 500.000000
0.128058 0.260000 0.410000 0.611634 -27.534964 -113.334973 500.000000
0.128058 0.260000 0.290000 0.611634 -27.534964 113.433036 500.000000
0.125031 0.260000 0.290000 0.006282 -32.536977 51.414008 500.000000
0.129111 0.260000 0.290000 0.822220 -93.030480 32.578929 500.000000
0.129515 0.260000 0.410000 0.902937 -62.435507 -87.047518 500.000000
0.129515 0.260000 0.290000 0.902937 -62.435507 87.145582 500.000000
0.129111 0.260000 0.410000 0.822220 -93.030480 -32.480866 500.000000
0.129111 0.175000 0.290000 0.822220 0.000000 36.252553 500.000000
0.129510 0.175000 0.410000 0.901975 -0.000000 -116.156119 500.000000
0.129510 0.175000 0.290000 0.901975 0.000000 116.254182 500.000000
0.129111 0.175000 0.410000 0.822220 -0.000000 -36.154490 500.000000
0.129111 0.090000 0.290000 0.822220 93.030480 32.578929 500.000000
0.129515 0.090000 0.410000 0.902937 62.435507 -87.047518 500.000000
0.129515 0.090000 0.290000 0.902937 62.435507 87.145582 500.000000
0.129111 0.090000 0.410000 0.822220 93.030480 -32.480866 500.000000
0.125031 0.090000 0.410000 0.006282 32.536977 -51.315944 500.000000
0.128058 0.090000 0.410000 0.611634 27.534964 -113.334973 500.000000
0.128058 0.090000 0.290000 0.611634 27.534964 113.433036 500.000000
0.125031 0.090000 0.290000 0.006282 32.536977 51.414008 500.000000
0.260000 0.260000 0.410000 -113.398555 -33.708661 -53.552343 500.000000
0.260000 0.260000 0.410000 -84.328872 -27.499853 -155.725881 500.000000
0.260000 0.260000 0.290000 -84.328872 -27.499853 155.823944 500.000000
0.260000 0.260000 0.290000 -113.398555 -33.708661 53.650406 500.000000
0.260000 0.260000 0.290000 -96.771720 -128.334363 38.547629 500.000000
0.260000 0.260000 0.410000 -70.935453 -88.557271 -122.960494 500.000000
0.260000 0.260000 0.290000 -70.935453 -88.557271 123.058557 500.000000
0.260000 0.260000 0.410000 -96.771720 -128.334363 -38.449566 500.000000
0.260000 0.175000 0.290000 -116.096100 -0.000000 42.967340 500.000000
0.260000 0.175000 0.410000 -86.758293 -0.000000 -158.219958 500.000000
0.260000 0.175000 0.290000 -86.758293 -0.000000 158.318021 500.000000
0.260000 0.175000 0.410000 -116.096100 -0.000000 -42.869277 500.000000
0.260000 0.090000 0.290000 -96.771720 128.334363 38.547629 500.000000
0.260000 0.090000 0.410000 -70.935453 88.557271 -122.960494 500.000000
0.260000 0.090000 0.290000 -70.935453 88.557271 123.058557 500.000000
0.260000 0.090000 0.410000 -96.771720 128.334363 -38.449566 500.000000
0.260000 0.090000 0.410000 -113.398555 33.708661 -53.552343 500.000000
0.260000 0.090000 0.410000 -84.328872 27.499853 -155.725881 500.000000
0.260000 0.090000 0.290000 -84.328872 27.499853 155.823944 500.000000
0.260000 0.090000 0.290000 -113.398555 33.708661 53.650406 500.000000
-0.260000 0.260000 0.410000 169.628046 -29.627529 -54.379372 500.000000
-0.260000 0.260000 0.410000 116.810289 -24.431619 -158.699221 500.000000
-0.260000 0.260000 0.290000 116.810289 -24.431619 158.797284 500.000000
-0.260000 0.260000 0.290000 169.628046 -29.627529 54.477435 500.000000
-0.260000 0.260000 0.290000 132.979610 -133.390720 40.402611 500.000000
-0.260000 0.260000 0.410000 89.348754 -89.800071 -124.322048 500.000000
-0.260000 0.260000 0.290000 89.348754 -89.800071 124.420111 500.000000
-0.260000 0.260000 0.410000 132.979610 -133.390720 -40.304548 500.000000
-0.260000 0.175000 0.290000 163.227135 0.000000 44.516329 500.000000
-0.260000 0.175000 0.410000 114.228199 0.000000 -158.873470 500.000000
-0.260000 0.175000 0.290000 114.228199 0.000000 158.971533 500.000000
-0.260000 0.175000 0.410000 163.227135 -0.000000 -44.418266 500.000000
-0.260000 0.090000 0.290000 132.979610 133.390720 40.402611 500.000000
-0.260000 0.090000 0.410000 89.348754 89.800071 -124.322048 500.000000
-0.260000 0.090000 0.290000 89.348754 89.800071 124.420111 500.000000
-0.260000 0.090000 0.410000 132.979610 133.390720 -40.304548 500.000000
-0.260000 0.090000 0.410000 169.628046 29.627529 -54.379372 500.000000
-0.260000 0.090000 0.410000 116.810289 24.431619 -158.699221 500.000000
-0.260000 0.090000 0.290000 116.810289 24.431619 158.797284 500.000000
-0.260000 0.090000 0.290000 169.628046 29.627529 54.477435 500.000000
0.011718 0.260000 0.410000 -38.698496 -43.369162 -79.141567 500.000000
0.154656 0.260000 0.410000 -9.277674 -29.889054 -191.572325 500.000000
0.154656 0.260000 0.290000 -9.277674 -29.889054 191.670388 500.000000
0.011718 0.260000 0.290000 -38.698496 -43.369162 79.239630 500.000000
0.188727 0.260000 0.410000 -2.463305 -165.258903 -54.116703 500.000000
0.230079 0.260000 0.410000 6.640321 -111.977897 -151.217518 500.000000
0.230079 0.260000 0.290000 6.640321 -111.977897 151.315581 500.000000
0.188727 0.260000 0.290000 -2.463305 -165.258903 54.214766 500.000000
0.181999 0.175000 0.410000 -3.808965 -0.000000 -55.534811 500.000000
0.254072 0.175000 0.410000 11.438854 0.000000 -190.064163 500.000000
0.254072 0.175000 0.290000 11.438854 0.000000 190.162226 500.000000
0.181999 0.175000 0.290000 -3.808965 -0.000000 55.632875 500.000000
0.188727 0.090000 0.410000 -2.463305 165.258903 -54.116703 500.000000
0.230079 0.090000 0.410000 6.640321 111.977897 -151.217518 500.000000
0.230079 0.090000 0.290000 6.640321 111.977897 151.315581 500.000000
0.188727 0.090000 0.290000 -2.463305 165.258903 54.214766 500.000000
0.011718 0.090000 0.410000 -38.698496 43.369162 -79.141567 500.000000
0.154656 0.090000 0.410000 -9.277674 29.889054 -191.572325 500.000000
0.154656 0.090000 0.290000 -9.277674 29.889054 191.670388 500.000000
0.011718 0.090000 0.290000 -38.698496 43.369162 79.239630 500.000000
