ply
format ascii 1.0
element vertex 240
property float x
property float y
property float z
property float vx
property float vy
property float vz
property float density
end_header
0.214653 0.090000 0.290000 94.930586 121.052290 77.126325 500.000000
0.260000 0.260000 0.290000 -73.557237 -30.941819 84.754974 500.000000
-0.260000 0.260000 0.407633 111.447661 -17.004391 23.526594 500.000000
-0.260000 0.090000 0.290000 33.484576 18.848927 29.804108 500.000000
-0.260000 0.090000 0.290000 72.931846 25.972128 109.650279 500.000000
0.260000 0.090000 0.410000 -79.162770 86.390853 -72.000063 500.000000
-0.260000 0.090000 0.290000 133.352909 18.725736 397.535796 500.000000
0.260000 0.090000 0.290000 -52.317528 138.589840 115.132241 500.000000
-0.260000 0.090000 0.410000 228.933293 62.616141 -61.608968 500.000000
0.260000 0.090000 0.290000 -67.812421 117.392778 77.012939 500.000000
-0.260000 0.260000 0.410000 489.198079 -50.201364 -32.341174 500.000000
0.042357 0.090000 0.290000 60.471396 73.175708 902.249036 500.000000
0.260000 0.090000 0.290000 -53.152980 106.754280 77.871103 500.000000
0.260000 0.090000 0.410000 -339.594297 84.013760 -94.090180 500.000000
-0.260000 0.090000 0.410000 216.643213 85.763855 -56.463861 500.000000
-0.260000 0.090000 0.290000 71.351223 25.178015 55.459386 500.000000
-0.260000 0.136642 0.290000 73.058350 -24.671517 49.835609 500.000000
-0.260000 0.260000 0.410000 114.619314 -40.364658 -27.426593 500.000000
0.000779 0.090000 0.290000 52.155848 49.160958 169.609216 500.000000
-0.064773 0.260000 0.290000 39.045469 -59.197646 82.008009 500.000000
-0.260000 0.090000 0.290000 92.380324 22.921886 59.175242 500.000000
-0.260000 0.090000 0.410000 264.013469 105.464747 -67.761194 500.000000
-0.260000 0.090000 0.410000 234.626416 74.673647 -50.977638 500.000000
-0.260000 0.257248 0.410000 88.106126 33.449691 -21.993328 500.000000
-0.260000 0.260000 0.410000 98.098176 -39.792536 -14.200251 500.000000
-0.260000 0.090000 0.410000 72.823783 60.820708 -158.522310 500.000000
0.260000 0.090000 0.410000 -265.982300 83.904578 -103.192277 500.000000
-0.260000 0.090000 0.410000 223.449180 58.613734 -38.851804 500.000000
0.217873 0.260000 0.290000 95.574637 -65.751977 106.357285 500.000000
-0.260000 0.260000 0.410000 96.537509 -39.884593 -19.230249 500.000000
0.150648 0.090000 0.290000 82.129599 110.122273 76.259192 500.000000
0.200992 0.090000 0.290000 92.198396 73.048961 153.397958 500.000000
-0.260000 0.095083 0.290000 111.262017 -32.983475 425.684296 500.000000
-0.260000 0.090000 0.410000 65.968309 57.406315 -92.489344 500.000000
0.260000 0.090000 0.410000 -357.251700 83.756829 -92.630866 500.000000
-0.260000 0.090000 0.410000 241.209865 144.383627 -60.779538 500.000000
0.106368 0.100991 0.410000 2.908723 -31.801718 -12.165831 500.000000
0.260000 0.260000 0.290000 -58.533019 -70.722305 81.424681 500.000000
0.243971 0.090000 0.290000 100.794222 150.704445 91.519844 500.000000
-0.081805 0.260000 0.410000 35.639078 -812.932448 -25.513487 500.000000
0.260000 0.260000 0.410000 -142.101576 -211.299003 -51.425743 500.000000
0.260000 0.260000 0.290000 -52.601560 -52.739569 88.059487 500.000000
-0.086206 0.118899 0.410000 -69.241174 -28.220240 -486.700494 500.000000
-0.260000 0.090000 0.290000 89.518693 159.329608 63.342963 500.000000
-0.260000 0.260000 0.290000 55.073246 -36.210638 59.951977 500.000000
0.091159 0.090000 0.410000 70.231765 87.936749 -60.606992 500.000000
-0.260000 0.090000 0.410000 67.218088 32.737492 -20.947289 500.000000
0.076405 0.189749 0.410000 -36.718945 19.949878 -163.820374 500.000000
0.260000 0.090000 0.290000 -56.279080 177.842790 81.219806 500.000000
-0.260000 0.260000 0.410000 115.464624 -59.532308 -22.225932 500.000000
-0.260000 0.090000 0.410000 239.156535 91.787002 -57.467016 500.000000
-0.260000 0.260000 0.290000 62.112014 -81.870417 56.671673 500.000000
0.260000 0.090000 0.410000 -995.602994 63.010181 -28.115220 500.000000
-0.260000 0.090000 0.290000 72.329891 35.362518 56.523395 500.000000
0.260000 0.260000 0.410000 -173.666924 -63.862734 -33.338185 500.000000
0.260000 0.260000 0.410000 -118.884613 -54.914958 -32.706213 500.000000
-0.260000 0.260000 0.290000 62.344835 -83.669497 55.812514 500.000000
-0.260000 0.090000 0.290000 92.110573 27.768177 220.375123 500.000000
0.090750 0.260000 0.290000 70.149978 -22.021282 87.813826 500.000000
-0.206242 0.260000 0.410000 -63.334445 -73.524105 -12.019824 500.000000
-0.260000 0.260000 0.410000 96.387214 -67.098647 -14.864895 500.000000
0.185553 0.090000 0.290000 89.110537 166.473061 104.212450 500.000000
-0.102643 0.235133 0.410000 -13.976148 29.026597 -59.011281 500.000000
0.073819 0.090000 0.290000 66.763740 142.990588 100.623112 500.000000
-0.260000 0.090000 0.290000 682.539306 73.301697 42.934576 500.000000
-0.260000 0.090000 0.290000 96.753569 137.765513 87.379629 500.000000
0.260000 0.260000 0.290000 -218.380134 -71.318029 81.684855 500.000000
-0.260000 0.260000 0.410000 406.999257 -27.247463 -24.814605 500.000000
-0.260000 0.260000 0.410000 183.016077 -800.474644 -47.265855 500.000000
-0.260000 0.260000 0.290000 62.342995 -57.265844 76.588185 500.000000
0.149901 0.260000 0.290000 81.980240 -584.642798 82.621218 500.000000
-0.260000 0.090000 0.290000 244.698554 32.529965 51.933953 500.000000
-0.260000 0.090000 0.410000 238.036166 81.632454 -54.376378 500.000000
0.260000 0.090000 0.410000 -59.041963 85.397950 -1120.284426 500.000000
-0.260000 0.260000 0.357984 16.733173 -12.558511 -10.403214 500.000000
0.260000 0.260000 0.290000 -84.358915 -37.594624 24.460972 500.000000
0.066849 0.090000 0.410000 -20.344700 27.950928 -19.519026 500.000000
-0.260000 0.090000 0.410000 216.934900 87.767789 -56.257840 500.000000
0.260000 0.260000 0.410000 -320.403262 -225.785203 -22.692023 500.000000
-0.245104 0.090000 0.410000 -17.442549 34.864287 -29.153971 500.000000
0.260000 0.090000 0.290000 -54.453273 108.907943 79.147552 500.000000
-0.260000 0.260000 0.290000 68.633537 -87.092175 63.083358 500.000000
-0.260000 0.260000 0.392816 26.191852 -40.654516 20.563212 500.000000
-0.260000 0.090000 0.290000 76.505174 33.988672 57.254517 500.000000
0.260000 0.120335 0.290000 -1015.251842 -27.933004 38.513399 500.000000
-0.260000 0.090000 0.400292 42.733736 25.256632 22.058352 500.000000
-0.260000 0.260000 0.410000 61.352023 -129.079540 -388.566855 500.000000
-0.260000 0.090000 0.290000 64.039887 33.873937 47.522080 500.000000
-0.260000 0.090000 0.290000 126.230400 24.538099 64.939601 500.000000
0.260000 0.260000 0.410000 -124.677119 -62.630928 -29.381261 500.000000
-0.260000 0.090000 0.290000 68.574937 225.296002 50.355048 500.000000
-0.260000 0.260000 0.290000 62.117031 -60.514415 106.383437 500.000000
0.260000 0.090000 0.410000 -398.153740 84.245434 -92.294226 500.000000
-0.171262 0.260000 0.290000 17.747555 -58.304474 82.374108 500.000000
-0.260000 0.090000 0.410000 239.503783 54.426004 -45.615512 500.000000
0.260000 0.090000 0.410000 -311.823338 83.991470 -97.675314 500.000000
0.260000 0.260000 0.353975 -96.102497 -51.815974 12.794909 500.000000
0.260000 0.090000 0.410000 -210.357982 85.720559 -75.523945 500.000000
0.260000 0.260000 0.410000 -231.631496 -237.840522 -38.806101 500.000000
0.260000 0.090000 0.410000 -101.843558 53.188144 -78.633441 500.000000
-0.260000 0.260000 0.410000 30.984347 -23.249716 -16.859952 500.000000
-0.081271 0.260000 0.336344 35.745775 -107.614246 9.268705 500.000000
0.255477 0.090000 0.290000 103.095436 110.509239 76.140209 500.000000
0.260000 0.260000 0.410000 -127.521242 -55.731647 -38.185810 500.000000
-0.260000 0.260000 0.290000 172.931559 -18.573809 55.578308 500.000000
-0.260000 0.260000 0.410000 174.063356 -77.356631 -70.027599 500.000000
-0.260000 0.260000 0.410000 99.578508 -44.055270 -46.514552 500.000000
-0.260000 0.090000 0.290000 65.863003 95.029678 55.626375 500.000000
-0.260000 0.090000 0.410000 216.682513 81.633495 -56.429810 500.000000
-0.260000 0.090000 0.410000 217.562296 82.498927 -57.828340 500.000000
-0.260000 0.090000 0.410000 222.842875 89.973830 -50.060363 500.000000
0.257265 0.260000 0.290000 103.452982 -52.699187 88.923129 500.000000
-0.260000 0.260000 0.410000 53.354185 -38.274216 -117.972112 500.000000
0.260000 0.260000 0.290000 -71.273490 -206.928404 13.356880 500.000000
-0.260000 0.260000 0.410000 86.220449 -34.846476 -40.907278 500.000000
0.240107 0.090000 0.290000 100.021411 172.707386 113.582326 500.000000
0.036332 0.090000 0.410000 59.266367 53.831728 -69.731428 500.000000
-0.120391 0.260000 0.290000 27.921854 -218.044503 14.066388 500.000000
0.260000 0.090000 0.410000 -73.240910 113.120145 -1445.497578 500.000000
0.260000 0.260000 0.361053 -45.154076 -22.092219 14.210580 500.000000
0.260000 0.090000 0.290000 -53.961200 176.805771 94.942969 500.000000
-0.260000 0.090000 0.290000 65.018618 22.821728 58.365217 500.000000
0.260000 0.090000 0.410000 -273.237482 86.396327 -98.241778 500.000000
0.089771 0.090000 0.410000 69.954270 73.782950 -77.076945 500.000000
-0.260000 0.090000 0.410000 252.635557 125.273931 -48.194119 500.000000
0.020403 0.090000 0.410000 27.930770 82.994371 -8.194032 500.000000
-0.260000 0.260000 0.410000 107.336299 -42.268741 -16.421966 500.000000
-0.168980 0.188086 0.290000 -42.644167 -7.130931 8.008929 500.000000
-0.260000 0.090000 0.410000 218.180812 81.415818 -55.637926 500.000000
-0.260000 0.260000 0.290000 88.351334 -45.026901 124.078989 500.000000
0.260000 0.090000 0.290000 -446.759648 107.592792 308.111672 500.000000
-0.164753 0.260000 0.290000 -84.950593 -87.235501 63.961276 500.000000
0.260000 0.260000 0.410000 -159.741393 -51.442310 -31.093965 500.000000
-0.260000 0.090000 0.290000 79.106301 34.549745 45.314998 500.000000
0.260000 0.090000 0.290000 -53.730562 118.838705 76.193849 500.000000
0.036972 0.108000 0.410000 -44.605694 -30.400061 -524.861675 500.000000
-0.260000 0.260000 0.290000 207.779180 -58.717866 61.062348 500.000000
-0.260000 0.090000 0.290000 69.003759 65.636259 54.961057 500.000000
0.102857 0.260000 0.410000 -31.428529 -50.571468 -88.660991 500.000000
0.086116 0.260000 0.410000 -34.776805 -100.505783 -30.827250 500.000000
-0.260000 0.090000 0.290000 68.124368 25.040673 58.400035 500.000000
0.143897 0.090000 0.410000 4.813065 90.402314 -18.171073 500.000000
0.260000 0.260000 0.290000 -238.606739 -81.476762 81.749848 500.000000
0.260000 0.090000 0.410000 -340.189257 83.747333 -96.892253 500.000000
0.203527 0.260000 0.410000 92.705476 -42.536953 -538.790886 500.000000
0.260000 0.260000 0.290000 -57.540514 -22.260961 81.263869 500.000000
0.025120 0.090000 0.290000 57.024048 72.543343 131.578211 500.000000
0.260000 0.090000 0.290000 -56.366441 137.036143 85.385826 500.000000
0.260000 0.260000 0.290000 -85.015235 -286.841091 19.051397 500.000000
0.035291 0.090000 0.290000 59.058202 140.227450 77.508006 500.000000
0.260000 0.090000 0.410000 -428.832913 83.859386 -91.636136 500.000000
0.260000 0.260000 0.410000 -133.703542 -41.726711 -29.623755 500.000000
-0.260000 0.260000 0.410000 419.820224 -51.837054 -28.668647 500.000000
0.260000 0.090000 0.410000 -89.383008 471.046582 -29.419687 500.000000
0.172677 0.090000 0.290000 86.535500 168.142646 79.092381 500.000000
0.260000 0.090000 0.410000 -282.576466 83.949190 -101.325615 500.000000
0.260000 0.090000 0.290000 -54.536192 137.047512 100.847400 500.000000
0.260000 0.090000 0.410000 -223.868321 89.575307 -76.033259 500.000000
-0.260000 0.090000 0.290000 69.228515 31.736410 59.353932 500.000000
0.260000 0.090000 0.410000 -179.186446 141.551405 -77.933432 500.000000
-0.260000 0.090000 0.290000 74.127909 23.213081 116.893600 500.000000
0.000441 0.090000 0.410000 52.088189 157.912495 -60.648952 500.000000
-0.260000 0.260000 0.394501 102.365072 -18.346493 20.900258 500.000000
-0.171301 0.090000 0.290000 17.739738 171.858565 85.667783 500.000000
-0.103540 0.253452 0.359052 -36.406080 16.429762 13.810475 500.000000
-0.260000 0.090000 0.410000 216.815360 81.746019 -56.374140 500.000000
0.260000 0.260000 0.410000 -405.061017 -28.738901 -13.776953 500.000000
-0.260000 0.090000 0.290000 103.011878 120.106642 66.644106 500.000000
-0.260000 0.236974 0.410000 60.680513 29.394707 -28.035274 500.000000
0.260000 0.260000 0.290000 -53.348234 -63.447843 132.159012 500.000000
0.260000 0.260000 0.290000 -59.613930 -26.052145 79.967980 500.000000
0.260000 0.260000 0.290000 -91.822186 -60.185135 81.756834 500.000000
0.107409 0.260000 0.290000 73.481709 -624.781596 81.717359 500.000000
-0.075662 0.260000 0.290000 -67.132401 -144.152509 61.740619 500.000000
-0.260000 0.260000 0.410000 13.083477 -44.501219 -37.171671 500.000000
-0.260000 0.090000 0.290000 87.906522 77.470872 42.588037 500.000000
-0.260000 0.260000 0.410000 104.078867 -39.168747 -25.811115 500.000000
0.260000 0.090000 0.290000 -55.379444 116.266182 77.476403 500.000000
0.260000 0.090000 0.290000 -67.587517 116.359822 76.913893 500.000000
0.097149 0.260000 0.290000 71.429769 -27.742748 63.258259 500.000000
-0.260000 0.090000 0.290000 75.873811 34.843891 59.661608 500.000000
-0.260000 0.260000 0.410000 117.248138 -40.456284 -24.107105 500.000000
-0.260000 0.090000 0.290000 70.966750 23.321777 57.696772 500.000000
0.063579 0.260000 0.290000 -3.453040 -55.433906 32.009897 500.000000
-0.260000 0.090000 0.410000 216.966096 82.881194 -56.153854 500.000000
-0.260000 0.090000 0.410000 96.294783 111.441433 -45.388911 500.000000
-0.260000 0.206034 0.410000 41.369898 23.206806 -76.411064 500.000000
-0.074227 0.260000 0.290000 -66.845400 -23.863511 72.684551 500.000000
-0.260000 0.090000 0.290000 67.080888 31.363573 49.068953 500.000000
0.230764 0.090000 0.290000 16.820359 21.378696 16.925077 500.000000
-0.260000 0.260000 0.410000 110.153577 -62.481725 -16.018785 500.000000
0.153938 0.260000 0.410000 82.787571 -21.282069 -333.359474 500.000000
0.260000 0.090000 0.410000 -359.229308 83.761624 -85.727483 500.000000
0.260000 0.090000 0.290000 -57.492609 117.301292 76.954452 500.000000
-0.260000 0.259094 0.410000 32.356188 33.818720 -26.810987 500.000000
0.260000 0.260000 0.410000 -119.366238 -54.489415 -32.784222 500.000000
0.203362 0.260000 0.290000 92.672494 -101.741652 87.128945 500.000000
-0.260000 0.090000 0.290000 72.341548 34.454426 57.310428 500.000000
0.260000 0.090000 0.290000 -76.273947 119.740254 76.415701 500.000000
-0.072807 0.260000 0.290000 37.438686 -749.551320 70.229492 500.000000
-0.260000 0.260000 0.290000 107.430036 -77.322135 86.048099 500.000000
0.260000 0.090000 0.290000 -67.102495 117.301067 76.981951 500.000000
-0.260000 0.260000 0.410000 96.917537 -43.331181 -16.308733 500.000000
0.213752 0.260000 0.410000 94.750431 -21.534352 -421.249224 500.000000
-0.260000 0.090000 0.410000 220.176111 80.984034 -56.138842 500.000000
0.260000 0.260000 0.290000 -55.032285 -98.537956 88.023392 500.000000
0.260000 0.090000 0.290000 -75.181462 117.317511 78.368948 500.000000
-0.260000 0.090000 0.410000 219.875334 82.860171 -64.671666 500.000000
0.260000 0.090000 0.290000 -54.477487 107.618749 80.471670 500.000000
0.260000 0.090000 0.410000 -136.714019 51.770210 -57.114626 500.000000
0.018748 0.090000 0.353993 -24.122218 5.581445 0.400627 500.000000
0.260000 0.260000 0.410000 -124.266379 -48.329661 -29.521409 500.000000
-0.260000 0.257922 0.402763 109.147403 33.584403 22.552670 500.000000
0.159181 0.260000 0.290000 83.836118 -58.788485 82.330707 500.000000
0.227554 0.090000 0.290000 97.510809 116.872744 78.292191 500.000000
0.260000 0.090000 0.290000 -58.074059 116.614720 76.940160 500.000000
-0.041838 0.260000 0.290000 43.632450 -1196.838109 39.447101 500.000000
0.219811 0.090000 0.290000 95.962222 139.687123 92.638414 500.000000
-0.260000 0.090000 0.410000 153.184739 17.802987 -225.300626 500.000000
-0.260000 0.090000 0.290000 96.791508 41.726196 65.356090 500.000000
0.260000 0.260000 0.410000 -120.201754 -52.038638 -32.601298 500.000000
-0.260000 0.090000 0.290000 66.349967 24.409841 57.620883 500.000000
0.221377 0.090000 0.290000 96.275391 118.546070 76.268589 500.000000
-0.260000 0.260000 0.290000 81.371007 -82.524591 54.546040 500.000000
0.260000 0.260000 0.410000 -437.133942 -244.537465 -35.979023 500.000000
0.260000 0.260000 0.410000 -122.574967 -109.545938 -37.272417 500.000000
-0.260000 0.260000 0.290000 21.619086 -48.985194 33.999359 500.000000
0.013213 0.260000 0.410000 -0.683093 -127.635595 -26.567676 500.000000
0.006124 0.090000 0.290000 53.224735 162.870119 76.116466 500.000000
0.138543 0.260000 0.290000 79.708680 -72.782581 80.664518 500.000000
-0.260000 0.260000 0.290000 55.548872 -43.937902 71.330981 500.000000
-0.260000 0.113527 0.290000 56.310429 -29.294579 44.122172 500.000000
-0.260000 0.090000 0.290000 70.680610 21.908904 55.489762 500.000000
0.260000 0.090000 0.290000 -53.201058 106.606008 78.103719 500.000000
0.260000 0.260000 0.410000 -15.856152 -31.294428 -82.985539 500.000000
-0.260000 0.090000 0.410000 217.665349 55.563152 -39.569891 500.000000
0.143532 0.260000 0.290000 14.717317 -16.243234 14.728426 500.000000
-0.260000 0.260000 0.290000 74.047869 -84.729243 66.745032 500.000000
0.260000 0.090000 0.410000 -67.355870 64.429349 -77.374288 500.000000
0.260000 0.090000 0.290000 -57.857198 76.208386 90.060176 500.000000
