ply
format ascii 1.0
element vertex 240
property float x
property float y
property float z
property float vx
property float vy
property float vz
property float density
end_header
0.260000 0.260000 0.410000 -337.616254 -62.968362 -38.530189 500.000000
-0.260000 0.105326 0.410000 91.054561 -30.934754 -44.642615 500.000000
0.260000 0.090000 0.410000 -60.391318 94.870286 -841.987378 500.000000
-0.092613 0.260000 0.410000 33.477356 -77.122739 -14.875935 500.000000
0.104569 0.260000 0.410000 72.913878 -80.683368 -54.788142 500.000000
-0.135715 0.260000 0.290000 -79.142979 -43.184628 36.015550 500.000000
0.260000 0.260000 0.410000 -66.659238 -77.061160 -198.691676 500.000000
-0.260000 0.260000 0.410000 184.637645 -86.119654 -57.525970 500.000000
0.260000 0.260000 0.290000 -143.378565 -31.299941 64.559815 500.000000
-0.260000 0.260000 0.410000 192.382636 -75.524482 -38.472359 500.000000
0.260000 0.090000 0.290000 -249.223890 145.249022 152.515735 500.000000
-0.260000 0.260000 0.410000 40.395857 -36.579420 -451.862601 500.000000
-0.260000 0.260000 0.410000 185.055239 -70.206919 -38.901305 500.000000
-0.260000 0.260000 0.290000 169.754699 -41.996378 47.057847 500.000000
0.260000 0.260000 0.290000 -137.235175 -42.870690 61.987952 500.000000
0.096668 0.260000 0.410000 71.333685 -80.286420 -27.700079 500.000000
0.105222 0.090000 0.410000 73.044500 280.059108 -24.889865 500.000000
0.260000 0.090000 0.290000 -61.995935 140.332283 150.059251 500.000000
0.260000 0.260000 0.410000 -110.162638 -24.575352 -85.963522 500.000000
-0.260000 0.090000 0.410000 66.444158 29.600006 -47.075806 500.000000
0.201785 0.260000 0.410000 92.357055 -79.158663 -29.557501 500.000000
0.260000 0.260000 0.290000 -160.913943 -52.718491 67.635102 500.000000
0.260000 0.260000 0.290000 -146.224362 -37.327075 59.245577 500.000000
0.227188 0.260000 0.290000 97.437670 -927.322185 132.455256 500.000000
0.260000 0.090000 0.290000 -53.738076 140.046315 143.448249 500.000000
0.260000 0.260000 0.290000 -65.344767 -30.402466 113.003476 500.000000
-0.260000 0.260000 0.290000 132.957902 -41.941801 51.607758 500.000000
0.260000 0.260000 0.290000 -140.637244 -29.299275 53.184288 500.000000
0.260000 0.090000 0.410000 -152.806822 32.868946 -53.205396 500.000000
0.260000 0.090000 0.290000 -52.957998 140.092329 145.962423 500.000000
0.260000 0.260000 0.410000 -87.026671 -55.047747 -38.095817 500.000000
0.260000 0.260000 0.410000 -196.510094 -37.100490 -76.650789 500.000000
0.260000 0.090000 0.410000 -55.615588 1168.604681 -212.706365 500.000000
0.260000 0.260000 0.290000 -61.917950 -28.695727 79.995857 500.000000
-0.260000 0.260000 0.290000 178.581194 -41.867945 46.328373 500.000000
0.260000 0.260000 0.290000 -149.515203 -72.172707 64.145211 500.000000
-0.260000 0.090000 0.348932 40.167996 50.514197 -12.213627 500.000000
-0.260000 0.090000 0.410000 83.544498 35.352203 -42.977923 500.000000
0.260000 0.260000 0.410000 -475.900582 -87.933051 -45.723742 500.000000
-0.018441 0.090000 0.290000 12.672630 418.666949 16.712724 500.000000
-0.260000 0.090000 0.290000 82.590701 105.621719 36.241805 500.000000
-0.260000 0.090000 0.410000 80.579576 26.363284 -46.294422 500.000000
-0.260000 0.090000 0.290000 34.611932 14.106592 243.313929 500.000000
0.187481 0.260000 0.410000 89.496205 -147.343938 -31.640794 500.000000
0.015297 0.090000 0.410000 55.059415 18.100773 -30.929854 500.000000
-0.016373 0.260000 0.290000 -21.506421 -60.082647 30.320798 500.000000
0.260000 0.253646 0.290000 -62.542672 32.729254 44.234434 500.000000
-0.105787 0.260000 0.290000 -36.438364 -10.685792 81.914121 500.000000
-0.260000 0.260000 0.410000 186.617793 -105.739910 -40.575126 500.000000
0.260000 0.090000 0.290000 -62.418452 149.912964 147.459773 500.000000
0.260000 0.260000 0.290000 -148.488813 -45.881455 62.489395 500.000000
0.050482 0.090000 0.410000 62.096412 40.924918 -29.290115 500.000000
-0.260000 0.260000 0.290000 497.677047 -31.497214 14.078614 500.000000
0.101560 0.260000 0.410000 72.312086 -85.377284 -28.231939 500.000000
-0.260000 0.090000 0.290000 98.369188 31.923144 27.200426 500.000000
-0.260000 0.090000 0.290000 70.985300 27.450443 26.884524 500.000000
0.051646 0.090000 0.410000 62.329174 41.824232 -28.860644 500.000000
0.200437 0.260000 0.410000 92.087379 -81.581148 -110.135478 500.000000
0.260000 0.149884 0.410000 -96.419530 -22.023151 -43.870903 500.000000
-0.260000 0.090000 0.317807 159.441465 38.559341 -18.438567 500.000000
0.260000 0.090000 0.290000 -52.882875 153.694893 143.780462 500.000000
0.260000 0.260000 0.410000 -104.284519 -83.213895 -52.068108 500.000000
-0.074072 0.260000 0.290000 5.714384 -27.887144 33.816299 500.000000
0.049364 0.260000 0.410000 -4.890863 -71.476995 -50.277124 500.000000
0.260000 0.260000 0.410000 -341.177610 -104.341704 -21.439380 500.000000
0.223646 0.260000 0.410000 96.729109 -136.564829 -43.655852 500.000000
-0.260000 0.090000 0.410000 163.446290 35.649984 -43.107974 500.000000
0.260000 0.090000 0.290000 -208.137959 133.775836 148.753685 500.000000
0.260000 0.090000 0.290000 -96.183100 520.262625 159.975628 500.000000
0.051637 0.090000 0.410000 62.327334 28.625727 -39.245865 500.000000
0.090802 0.090000 0.410000 -11.819929 292.237487 -41.275407 500.000000
0.260000 0.260000 0.410000 -122.316890 -83.961393 -25.937843 500.000000
0.260000 0.260000 0.290000 -147.928779 -40.805544 60.944491 500.000000
-0.035136 0.260000 0.290000 -59.027203 -42.688300 560.026697 500.000000
-0.174961 0.173512 0.410000 17.007821 -17.297510 -149.078276 500.000000
-0.260000 0.090000 0.410000 96.453929 18.792874 -14.503824 500.000000
0.122519 0.260000 0.310190 11.133913 -23.926072 -19.962072 500.000000
0.260000 0.260000 0.290000 -137.380979 -43.872388 61.884970 500.000000
-0.260000 0.090000 0.290000 171.717889 112.862896 21.878757 500.000000
-0.260000 0.260000 0.290000 754.404342 -17.432637 29.035183 500.000000
-0.260000 0.260000 0.410000 185.705179 -71.283409 -39.539327 500.000000
0.083081 0.090000 0.410000 68.616294 43.535140 -32.495151 500.000000
-0.092839 0.090000 0.410000 33.432179 50.719851 -731.965934 500.000000
0.122431 0.260000 0.410000 76.486232 -84.690548 -28.597400 500.000000
-0.260000 0.090000 0.410000 551.511886 414.404939 -19.232066 500.000000
0.175269 0.216316 0.410000 87.053750 25.263270 -868.901188 500.000000
0.093710 0.090000 0.290000 70.742050 184.675175 330.570158 500.000000
0.060122 0.260000 0.410000 64.024342 -84.633196 -23.732508 500.000000
0.260000 0.260000 0.410000 -63.098954 -79.966549 -32.438895 500.000000
-0.260000 0.090000 0.290000 73.880784 31.307404 25.222489 500.000000
0.082791 0.260000 0.410000 68.558156 -180.318148 -25.148606 500.000000
0.050507 0.090000 0.410000 62.101427 30.249604 -54.139743 500.000000
-0.260000 0.260000 0.290000 199.027101 -42.112186 46.160095 500.000000
0.260000 0.090000 0.410000 -51.558698 29.587613 -41.151969 500.000000
0.260000 0.260000 0.290000 -148.662391 -27.205972 56.565234 500.000000
-0.260000 0.260000 0.290000 155.872691 -41.985236 48.849966 500.000000
-0.223945 0.090000 0.410000 -96.789027 25.903047 -81.162377 500.000000
-0.260000 0.260000 0.290000 105.152696 -42.849564 37.777051 500.000000
-0.260000 0.090000 0.290000 127.343783 118.888957 29.933659 500.000000
-0.249090 0.260000 0.290000 -101.818097 -26.587423 39.331410 500.000000
-0.058078 0.090000 0.290000 40.384334 131.777618 144.777663 500.000000
0.046715 0.090000 0.290000 25.597285 56.906629 16.495731 500.000000
0.260000 0.260000 0.410000 -688.597938 -71.676675 -38.038034 500.000000
-0.260000 0.090000 0.290000 75.302469 27.858679 29.623595 500.000000
0.260000 0.167154 0.410000 -86.444035 -18.569156 -28.743570 500.000000
0.260000 0.090000 0.290000 -91.708208 158.822203 171.352768 500.000000
0.260000 0.090000 0.290000 -54.477999 142.176983 159.600100 500.000000
0.069235 0.260000 0.410000 65.846961 -115.202734 -27.783551 500.000000
0.260000 0.260000 0.290000 -137.254820 -40.806065 61.970931 500.000000
0.260000 0.260000 0.290000 -137.694593 -41.238665 62.670008 500.000000
0.260000 0.260000 0.290000 -140.334173 -44.975113 58.787063 500.000000
0.260000 0.090000 0.410000 -565.830346 26.345347 -46.703811 500.000000
0.053734 0.090000 0.290000 62.746835 139.287404 195.317162 500.000000
-0.260000 0.090000 0.379533 89.912999 103.436707 17.906580 500.000000
0.218012 0.090000 0.290000 95.602320 137.574097 156.797383 500.000000
0.260000 0.260000 0.410000 -466.290960 -97.241821 -56.749412 500.000000
0.183682 0.260000 0.290000 29.470048 -53.219662 37.837998 500.000000
0.167827 0.090000 0.384529 57.643637 109.041009 18.905766 500.000000
-0.106113 0.260000 0.290000 -73.222600 -56.545933 722.592621 500.000000
0.025081 0.149534 0.410000 -46.983809 -22.093224 -69.393340 500.000000
-0.260000 0.260000 0.410000 185.459220 -105.221564 -47.434533 500.000000
0.065014 0.260000 0.410000 65.002806 -79.108597 -29.152599 500.000000
-0.260000 0.260000 0.290000 136.584586 -43.187364 49.133127 500.000000
0.260000 0.260000 0.290000 -70.672060 -51.789240 38.553351 500.000000
0.260000 0.260000 0.290000 -155.226515 -62.620424 57.854191 500.000000
0.260000 0.260000 0.329556 -40.569863 -56.981425 -16.088747 500.000000
0.260000 0.090000 0.290000 -58.355622 141.284012 144.558742 500.000000
-0.260000 0.161183 0.329790 21.305380 -5.380644 7.958032 500.000000
0.260000 0.260000 0.290000 -138.003768 -40.697256 61.575096 500.000000
0.181646 0.090000 0.410000 88.329129 22.507796 -62.985292 500.000000
-0.260000 0.260000 0.410000 381.796204 -70.626042 -153.985106 500.000000
-0.260000 0.090000 0.410000 70.696619 44.039070 -31.948064 500.000000
-0.260000 0.090000 0.290000 91.408270 25.714580 26.078614 500.000000
0.135433 0.260000 0.410000 79.086650 -84.971008 -22.629267 500.000000
-0.260000 0.260000 0.410000 185.343938 -76.247216 -38.062944 500.000000
-0.241177 0.090000 0.290000 -55.629794 71.911143 264.486180 500.000000
0.260000 0.090000 0.410000 -103.863461 29.351555 -31.484900 500.000000
0.084934 0.260000 0.410000 68.986861 -100.510030 -27.450982 500.000000
-0.260000 0.090000 0.290000 37.383013 25.435137 44.344191 500.000000
0.191445 0.090000 0.290000 21.065904 50.797840 15.434872 500.000000
0.080539 0.260000 0.410000 68.107710 -80.217768 -29.170003 500.000000
-0.038697 0.260000 0.318920 -36.518831 -48.399295 -18.215902 500.000000
-0.260000 0.090000 0.410000 173.556838 40.727968 -43.140462 500.000000
-0.260000 0.260000 0.290000 170.052105 -41.863198 48.458534 500.000000
0.260000 0.090000 0.290000 -133.885421 21.264444 269.463544 500.000000
-0.260000 0.148719 0.410000 83.048380 -22.256260 -42.897538 500.000000
0.260000 0.260000 0.410000 -48.658383 -36.263295 -67.423644 500.000000
-0.260000 0.260000 0.410000 186.661460 -85.343052 -42.657475 500.000000
-0.260000 0.090000 0.407998 96.782000 143.382169 23.599546 500.000000
0.157179 0.260000 0.410000 24.377593 -70.095215 -40.002289 500.000000
-0.260000 0.260000 0.290000 214.362853 -41.919211 45.831132 500.000000
-0.260000 0.090000 0.290000 78.392799 20.858069 25.343704 500.000000
0.260000 0.090000 0.290000 -214.546340 146.066599 150.680075 500.000000
-0.186803 0.260000 0.290000 -89.360663 -235.464410 14.730685 500.000000
0.260000 0.260000 0.410000 -102.443237 -84.049126 -39.512113 500.000000
-0.260000 0.260000 0.290000 141.252911 -41.964101 50.674661 500.000000
-0.260000 0.260000 0.410000 185.746625 -85.348735 -50.385812 500.000000
-0.260000 0.260000 0.290000 111.906177 -44.776457 38.031644 500.000000
0.086058 0.260000 0.410000 69.211556 -83.564724 -29.646821 500.000000
-0.260000 0.260000 0.290000 89.570825 -70.758009 38.981493 500.000000
0.110548 0.260000 0.410000 74.109614 -79.304221 -58.408816 500.000000
0.260000 0.260000 0.290000 -75.589085 -83.590709 33.225812 500.000000
0.260000 0.090000 0.410000 -54.968242 43.467965 -685.262312 500.000000
-0.082625 0.260000 0.410000 17.735303 -85.907800 -42.798664 500.000000
-0.162801 0.260000 0.390408 -11.852196 -10.333766 6.271211 500.000000
0.260000 0.260000 0.290000 -137.321225 -40.862311 61.943104 500.000000
-0.260000 0.116341 0.290000 214.035535 -28.731775 17.422405 500.000000
0.254929 0.260000 0.410000 102.985713 -127.737800 -33.290915 500.000000
0.072462 0.260000 0.290000 66.492456 -587.062199 48.232562 500.000000
-0.260000 0.090000 0.410000 80.952811 31.715963 -68.338180 500.000000
-0.260000 0.129768 0.410000 84.084806 -26.046412 -42.249770 500.000000
-0.260000 0.090000 0.410000 100.184548 30.085053 -43.143954 500.000000
0.224285 0.090000 0.410000 23.375384 312.300985 -40.823561 500.000000
0.260000 0.090000 0.410000 -86.929322 72.080189 -38.536892 500.000000
-0.147553 0.090000 0.290000 22.489336 142.399884 154.930192 500.000000
0.179422 0.260000 0.410000 87.884473 -106.425723 -21.266158 500.000000
0.260000 0.090000 0.290000 -56.727440 139.734523 149.251777 500.000000
-0.260000 0.260000 0.410000 186.168118 -74.961363 -38.704017 500.000000
-0.260000 0.260000 0.410000 192.270220 -75.008168 -38.422852 500.000000
0.260000 0.121280 0.410000 -42.374642 -27.743950 -31.596810 500.000000
0.119275 0.260000 0.410000 75.855041 -85.118041 -29.800617 500.000000
0.260000 0.090000 0.290000 -63.309916 140.378080 148.400052 500.000000
0.094747 0.260000 0.410000 70.949317 -79.358554 -28.818467 500.000000
0.260000 0.090000 0.410000 -41.159110 27.711228 -15.976868 500.000000
0.260000 0.260000 0.290000 -137.396573 -41.429747 61.832990 500.000000
0.260000 0.260000 0.290000 -77.077116 -55.706032 56.451964 500.000000
-0.052453 0.260000 0.290000 41.509478 -153.079917 41.463531 500.000000
-0.003600 0.140490 0.410000 14.125320 -23.902053 -43.853658 500.000000
0.075323 0.260000 0.410000 67.064513 -83.378356 -24.505733 500.000000
0.260000 0.260000 0.374443 -289.045508 -17.748943 16.888690 500.000000
0.260000 0.090000 0.290000 -59.763799 151.387189 144.357218 500.000000
0.260000 0.153615 0.290000 -43.756837 -21.277085 166.662399 500.000000
-0.260000 0.260000 0.290000 179.569750 -41.870342 42.877544 500.000000
-0.260000 0.260000 0.410000 187.224365 -75.478753 -38.443124 500.000000
-0.051126 0.260000 0.290000 41.774795 -856.556793 147.859471 500.000000
-0.260000 0.090000 0.290000 71.226049 27.237728 26.923518 500.000000
0.260000 0.090000 0.410000 -110.787628 50.858142 -43.528714 500.000000
0.101619 0.260000 0.410000 72.323740 -84.923362 -28.625348 500.000000
-0.260000 0.260000 0.410000 196.612058 -76.697848 -38.173834 500.000000
-0.260000 0.090000 0.410000 20.857035 374.680225 -42.453726 500.000000
0.260000 0.090000 0.410000 -53.701515 38.651349 -43.974632 500.000000
-0.260000 0.260000 0.410000 192.027786 -75.478641 -38.456870 500.000000
0.260000 0.090000 0.290000 -53.147949 141.815057 144.502144 500.000000
0.260000 0.152326 0.290000 -136.777190 -21.534867 211.662257 500.000000
0.260000 0.260000 0.290000 -139.001150 -40.481421 61.825486 500.000000
-0.260000 0.090000 0.410000 81.794608 49.256241 -46.276380 500.000000
-0.260000 0.260000 0.410000 196.065989 -75.486860 -39.150148 500.000000
0.260000 0.260000 0.290000 -138.850801 -41.419238 66.090753 500.000000
-0.260000 0.260000 0.410000 185.717282 -70.639016 -40.201176 500.000000
-0.260000 0.260000 0.290000 68.339920 -25.878634 28.574693 500.000000
-0.090278 0.124676 0.410000 -21.805099 6.935137 -5.731830 500.000000
-0.260000 0.090000 0.290000 73.675469 24.158668 25.292545 500.000000
0.260000 0.260000 0.410000 -59.034879 -231.146795 -775.638108 500.000000
-0.253662 0.090000 0.410000 -82.568531 29.390442 -41.130268 500.000000
0.260000 0.260000 0.410000 -343.990644 -64.326170 -39.113016 500.000000
-0.260000 0.260000 0.410000 187.514998 -75.135576 -38.435981 500.000000
-0.260000 0.090000 0.410000 48.517970 598.254865 -21.601697 500.000000
0.260000 0.260000 0.410000 -352.196142 -73.439857 -46.282769 500.000000
0.260000 0.178994 0.290000 -105.514457 17.798759 146.383669 500.000000
0.223835 0.260000 0.410000 96.767038 -88.558256 -32.647083 500.000000
-0.260000 0.090000 0.290000 71.643696 26.012665 26.832080 500.000000
0.071669 0.260000 0.410000 66.333792 -79.902438 -28.780533 500.000000
0.260000 0.260000 0.410000 -297.292807 -63.282284 -38.101613 500.000000
0.146753 0.090000 0.410000 81.350558 41.251923 -28.227566 500.000000
-0.260000 0.090000 0.290000 230.067743 122.236540 28.520495 500.000000
-0.260000 0.090000 0.290000 72.829987 54.758685 29.167020 500.000000
-0.151932 0.090000 0.410000 21.613673 24.486444 -17.956811 500.000000
0.013238 0.090000 0.290000 0.004912 63.801830 13.305038 500.000000
0.260000 0.260000 0.410000 -46.006105 -81.413223 -39.489467 500.000000
0.260000 0.090000 0.410000 -102.341927 36.385881 -40.297300 500.000000
0.017675 0.090000 0.410000 55.534922 21.963433 -36.617924 500.000000
0.021542 0.090000 0.410000 56.308302 693.508228 -22.036483 500.000000
0.093316 0.260000 0.410000 70.663255 -78.652310 -27.715263 500.000000
-0.260000 0.260000 0.410000 185.079270 -70.132806 -39.017576 500.000000
0.065153 0.103567 0.290000 -38.969477 -31.286624 52.017516 500.000000
0.260000 0.260000 0.290000 -137.746105 -27.774393 53.543235 500.000000
0.256623 0.178751 0.363394 22.618283 -16.249837 14.678825 500.000000
0.110146 0.090000 0.410000 74.029263 42.353971 -34.325527 500.000000
-0.076695 0.260000 0.290000 -67.339031 -32.206621 38.701991 500.000000
-0.260000 0.260000 0.410000 187.406602 -54.938812 -44.993910 500.000000
