ply
format ascii 1.0
element vertex 240
property float x
property float y
property float z
property float vx
property float vy
property float vz
property float density
end_header
-0.260000 0.260000 0.290000 82.886744 -38.155169 323.437280 500.000000
-0.260000 0.260000 0.410000 91.603260 -27.642366 -123.042224 500.000000
-0.257281 0.260000 0.290000 -103.456292 -483.069115 121.826074 500.000000
0.260000 0.260000 0.410000 -84.736016 -41.436789 -122.015327 500.000000
-0.260000 0.260000 0.290000 81.978833 -59.985146 37.146242 500.000000
-0.260000 0.260000 0.410000 172.142690 -74.088255 -35.954138 500.000000
-0.260000 0.260000 0.290000 98.435838 -225.756383 57.825770 500.000000
-0.122051 0.090000 0.290000 -15.927989 41.054438 12.662021 500.000000
0.260000 0.090000 0.290000 -105.271903 20.594718 56.019893 500.000000
0.088684 0.097539 0.410000 69.736847 -32.492259 -60.119301 500.000000
0.131896 0.090000 0.410000 78.379262 18.464328 -48.863258 500.000000
-0.143517 0.090000 0.290000 23.296542 28.403670 13.965717 500.000000
-0.189804 0.090000 0.410000 -89.960731 55.181995 -56.452517 500.000000
0.064794 0.260000 0.410000 -39.041266 -199.143571 -12.484259 500.000000
0.260000 0.260000 0.410000 -256.232012 -58.587897 -347.202815 500.000000
0.260000 0.090000 0.290000 -92.533001 37.801668 104.908653 500.000000
0.260000 0.090000 0.290000 -61.619972 148.973630 68.655156 500.000000
0.136320 0.090000 0.410000 79.264036 18.023195 -49.992606 500.000000
0.260000 0.090000 0.290000 -91.770160 984.676374 93.045705 500.000000
0.260000 0.090000 0.290000 -63.028869 421.801084 76.623652 500.000000
-0.260000 0.090000 0.291315 60.275116 30.466412 -23.737071 500.000000
-0.260000 0.090000 0.290000 52.655942 22.983328 26.920661 500.000000
0.260000 0.260000 0.290000 -57.563699 -166.773075 58.719051 500.000000
0.260000 0.185382 0.290000 -35.593570 19.076479 12.117952 500.000000
-0.245074 0.101077 0.290000 -101.014853 -31.784529 29.529108 500.000000
-0.105055 0.090000 0.410000 -73.010984 52.128956 -42.810231 500.000000
0.260000 0.108015 0.410000 -185.067792 -30.397059 -53.920829 500.000000
-0.260000 0.260000 0.290000 90.029826 -248.491723 61.439558 500.000000
-0.203548 0.090000 0.410000 -92.709649 55.454405 -51.840927 500.000000
0.018247 0.260000 0.290000 -10.139619 -15.713610 104.566735 500.000000
0.260000 0.260000 0.410000 -59.233871 -23.111278 -85.087763 500.000000
0.260000 0.260000 0.290000 -145.988017 -211.767704 284.346589 500.000000
0.231717 0.260000 0.290000 98.343491 -159.043779 320.069863 500.000000
0.260000 0.260000 0.290000 -54.301337 -187.065957 56.977005 500.000000
-0.260000 0.090000 0.290000 52.029144 40.803916 81.490206 500.000000
0.084940 0.260000 0.340625 -35.011962 -189.554546 10.124979 500.000000
0.260000 0.260000 0.410000 -26.249062 -17.509951 -71.256515 500.000000
0.090003 0.090000 0.290000 70.000577 18.737575 1152.667516 500.000000
-0.178063 0.090000 0.410000 -87.612612 47.445148 -52.648628 500.000000
0.000346 0.090000 0.290000 -51.930733 253.495344 23.220825 500.000000
-0.260000 0.260000 0.410000 42.376017 -34.603953 -278.929253 500.000000
0.131822 0.090000 0.410000 78.364391 18.458761 -48.798587 500.000000
0.260000 0.260000 0.410000 -33.371340 -25.327313 -85.590180 500.000000
-0.260000 0.260000 0.290000 65.711444 -59.955019 39.144054 500.000000
-0.126073 0.090000 0.410000 -77.214659 53.545975 -51.559823 500.000000
-0.260000 0.090000 0.410000 102.716620 206.466287 -14.222633 500.000000
0.252736 0.260000 0.290000 102.547198 -184.298058 198.660438 500.000000
-0.202906 0.090000 0.393535 -92.581295 48.813605 20.707030 500.000000
0.017328 0.260000 0.410000 -40.356737 -24.020900 -89.724006 500.000000
0.260000 0.260000 0.290000 -55.097022 -169.362734 55.819629 500.000000
0.236481 0.260000 0.290000 99.296227 -156.712449 326.012140 500.000000
0.130332 0.090000 0.410000 78.066386 18.019674 -49.749443 500.000000
0.238854 0.260000 0.290000 99.770751 -156.799635 366.809584 500.000000
0.260000 0.260000 0.410000 -118.319908 -45.368741 -322.109243 500.000000
0.113115 0.260000 0.410000 -19.492130 -23.399182 -87.281900 500.000000
-0.087323 0.090000 0.410000 -69.464613 51.966501 -62.213382 500.000000
0.124094 0.090000 0.410000 76.818702 17.873604 -48.956583 500.000000
0.260000 0.260000 0.410000 -47.526389 -271.855253 -130.425189 500.000000
-0.000717 0.090000 0.410000 -52.143446 16.616678 -26.613696 500.000000
0.260000 0.260000 0.290000 -53.480209 -169.755155 77.391742 500.000000
0.260000 0.260000 0.290000 -54.150404 -169.680563 120.796616 500.000000
0.188934 0.090000 0.290000 -14.213282 66.886934 12.911031 500.000000
-0.260000 0.260000 0.290000 81.820368 -59.702131 37.279614 500.000000
0.128575 0.090000 0.410000 77.715044 22.128621 -54.166975 500.000000
0.260000 0.260000 0.410000 -80.805933 -27.522084 -60.291876 500.000000
0.137422 0.090000 0.410000 79.484454 18.017512 -49.744258 500.000000
-0.248896 0.090000 0.290000 -101.779181 37.614051 48.428071 500.000000
-0.260000 0.090000 0.290000 54.360305 40.805022 59.869291 500.000000
0.039428 0.092312 0.290000 -44.114305 -33.537669 12.620824 500.000000
0.260000 0.260000 0.410000 -63.982401 -23.112378 -85.207882 500.000000
0.260000 0.260000 0.290000 -52.587222 -186.382816 58.458754 500.000000
0.107550 0.090000 0.410000 73.510097 18.097652 -49.716191 500.000000
-0.118865 0.090000 0.392473 -75.773007 61.702145 20.494654 500.000000
-0.260000 0.090000 0.290000 55.821138 65.421175 16.150931 500.000000
0.260000 0.260000 0.290000 -960.469300 -57.457629 27.552507 500.000000
0.260000 0.260000 0.410000 -156.613292 -27.911178 -122.739960 500.000000
0.073315 0.090000 0.410000 66.663066 218.109271 -27.365680 500.000000
-0.255057 0.090000 0.290000 -103.011337 40.803266 103.229234 500.000000
0.260000 0.260000 0.410000 -80.435929 -112.741030 -314.531739 500.000000
0.260000 0.090000 0.290000 -130.610982 126.265410 29.658647 500.000000
0.242801 0.090000 0.290000 100.560294 28.818080 61.650050 500.000000
0.085484 0.090000 0.308709 -34.903252 26.414974 -20.258160 500.000000
0.260000 0.260000 0.290000 -74.347853 -207.749149 57.482727 500.000000
0.260000 0.260000 0.290000 -416.300437 -176.270949 50.233984 500.000000
0.260000 0.260000 0.290000 -61.786296 -157.484202 58.170090 500.000000
0.116642 0.090000 0.410000 75.328385 18.380029 -49.701401 500.000000
0.102867 0.090000 0.410000 72.573396 18.016394 -49.751541 500.000000
0.260000 0.260000 0.340952 -212.875403 -126.791252 -13.809553 500.000000
0.260000 0.260000 0.290000 -83.956067 -238.167254 59.200631 500.000000
0.260000 0.260000 0.410000 -117.344427 -46.140416 -324.125698 500.000000
0.057905 0.260000 0.410000 -40.418915 -28.639902 -562.876600 500.000000
0.085389 0.238970 0.386465 11.060681 3.265942 -4.706985 500.000000
-0.135410 0.090000 0.410000 -79.082038 52.375076 -51.500024 500.000000
-0.260000 0.090000 0.410000 38.518059 309.859177 -209.549695 500.000000
-0.260000 0.090000 0.290000 371.616078 261.750075 62.233643 500.000000
0.240201 0.090000 0.290000 100.040177 894.457298 82.643040 500.000000
0.157383 0.090000 0.290000 14.191137 14.183743 16.879320 500.000000
-0.125949 0.090000 0.410000 -77.189887 51.558607 -27.028062 500.000000
-0.260000 0.096621 0.290000 69.359741 -32.675753 25.568173 500.000000
-0.260000 0.260000 0.290000 69.740953 -65.215382 107.472248 500.000000
-0.000019 0.260000 0.410000 -40.043318 -23.112875 -85.690360 500.000000
0.129824 0.090000 0.410000 77.964866 18.324353 -49.778742 500.000000
-0.088283 0.090000 0.410000 -69.656640 52.176652 -31.968369 500.000000
-0.260000 0.090000 0.385832 63.746885 49.491488 19.166364 500.000000
-0.260000 0.090000 0.290000 56.555186 301.740749 14.786207 500.000000
0.046672 0.260000 0.290000 21.728701 -22.209642 17.508021 500.000000
0.255306 0.260000 0.290000 103.061233 -157.551938 264.902522 500.000000
-0.000096 0.090000 0.410000 51.980764 36.887661 -44.538841 500.000000
0.260000 0.260000 0.290000 -64.201203 -157.848629 242.452831 500.000000
0.228013 0.260000 0.290000 97.602646 -160.930479 56.841557 500.000000
-0.260000 0.090000 0.290000 52.207163 36.440490 50.373413 500.000000
0.026953 0.090000 0.410000 28.770738 8.477487 -72.987788 500.000000
0.112896 0.090000 0.410000 74.579267 18.015639 -49.749396 500.000000
0.260000 0.090000 0.410000 -39.918606 18.579194 -475.103239 500.000000
0.164463 0.090000 0.290000 84.892605 26.934918 60.811478 500.000000
-0.260000 0.090000 0.410000 54.657938 52.555236 -57.074277 500.000000
-0.155926 0.090000 0.410000 -83.185189 89.700438 -65.866634 500.000000
-0.260000 0.260000 0.290000 141.936922 -37.816002 417.298587 500.000000
-0.260000 0.090000 0.410000 218.539533 28.046141 -47.855152 500.000000
0.260000 0.260000 0.290000 -52.136458 -169.759094 33.712768 500.000000
0.119617 0.090000 0.410000 75.923379 18.016089 -49.749373 500.000000
-0.076145 0.090000 0.346496 -67.228908 30.124478 -12.700825 500.000000
-0.260000 0.260000 0.290000 73.141203 -244.337349 60.466772 500.000000
-0.260000 0.090000 0.290000 52.651414 40.804031 70.602443 500.000000
-0.260000 0.090000 0.290000 36.469654 58.836881 20.672881 500.000000
-0.260000 0.090000 0.290000 77.606883 29.989790 14.591414 500.000000
0.260000 0.090000 0.410000 -52.748513 18.835150 -119.586281 500.000000
0.096582 0.201334 0.290000 -32.683685 22.266724 41.226151 500.000000
-0.148065 0.090000 0.290000 -81.612965 13.502462 11.337187 500.000000
-0.009817 0.144278 0.290000 5.708044 10.855621 10.695050 500.000000
-0.260000 0.090000 0.344326 55.020303 42.942116 -13.134886 500.000000
0.106149 0.090000 0.410000 73.229787 18.016398 -49.751338 500.000000
-0.057460 0.090000 0.410000 -2.752055 46.798434 -12.082589 500.000000
-0.260000 0.260000 0.290000 70.842554 -58.703368 44.212086 500.000000
-0.249782 0.090000 0.290000 -101.956391 37.525278 25.931043 500.000000
-0.260000 0.090000 0.290000 55.042343 40.867530 124.248576 500.000000
0.260000 0.090000 0.410000 -74.452506 36.728748 -90.556841 500.000000
0.260000 0.090000 0.371553 -134.892104 18.151783 16.310535 500.000000
0.260000 0.260000 0.410000 -122.493149 -45.818754 -321.696583 500.000000
-0.260000 0.090000 0.290000 52.162520 40.635009 48.315623 500.000000
0.260000 0.260000 0.316813 -35.961239 -112.159940 -18.637325 500.000000
-0.260000 0.260000 0.290000 66.105316 -57.411469 43.291391 500.000000
-0.260000 0.260000 0.290000 82.267844 -59.720598 37.322313 500.000000
0.091858 0.090000 0.290000 -33.628448 32.858904 12.551046 500.000000
-0.260000 0.146122 0.296863 168.644013 -22.775501 -22.627371 500.000000
0.260000 0.260000 0.290000 -62.372890 -159.168094 213.717571 500.000000
-0.260000 0.260000 0.410000 98.472733 -39.556659 -109.873609 500.000000
-0.260000 0.090000 0.290000 53.171831 40.811850 28.194380 500.000000
-0.260000 0.260000 0.290000 96.914974 -40.641271 346.442205 500.000000
-0.260000 0.260000 0.290000 90.584356 -58.244459 37.323802 500.000000
0.260000 0.260000 0.290000 -50.194145 -49.382126 265.927555 500.000000
0.260000 0.090000 0.410000 -293.143896 20.533883 -108.252370 500.000000
-0.260000 0.260000 0.290000 70.033589 -50.287950 41.454573 500.000000
-0.260000 0.260000 0.290000 121.575413 -59.188915 36.867726 500.000000
-0.182602 0.090000 0.410000 -3.173704 8.675458 -8.912513 500.000000
-0.065730 0.090000 0.296476 -33.392901 23.389885 -22.704816 500.000000
-0.260000 0.260000 0.290000 82.142730 -63.384026 38.070530 500.000000
0.096616 0.090000 0.290000 39.947224 79.625819 54.790092 500.000000
0.124597 0.090000 0.410000 76.919489 18.064363 -49.748066 500.000000
-0.105627 0.090000 0.410000 -73.125363 48.595103 -42.398787 500.000000
0.260000 0.260000 0.290000 -85.366944 -172.185264 54.829477 500.000000
-0.260000 0.260000 0.410000 572.635464 -49.504019 -191.196654 500.000000
0.102385 0.090000 0.410000 72.477087 18.147240 -48.794988 500.000000
-0.136513 0.090000 0.375695 -79.302619 51.541906 17.139098 500.000000
-0.260000 0.260000 0.290000 85.186831 -59.898687 37.507836 500.000000
0.260000 0.260000 0.290000 -65.257524 -161.052941 73.641219 500.000000
0.260000 0.260000 0.410000 -86.191948 -42.746648 -318.442979 500.000000
-0.146383 0.090000 0.410000 -81.276546 51.543131 -19.165848 500.000000
-0.260000 0.260000 0.290000 131.074043 -37.815589 373.671738 500.000000
-0.017471 0.090000 0.410000 -55.494148 61.066162 -20.789795 500.000000
0.260000 0.260000 0.290000 -68.416082 -25.383106 166.203319 500.000000
-0.260000 0.199385 0.290000 83.320030 21.877097 20.028056 500.000000
0.260000 0.260000 0.290000 -53.329171 -168.547778 176.475040 500.000000
0.260000 0.260000 0.410000 -25.984137 -23.128180 -85.085723 500.000000
0.260000 0.260000 0.410000 -18.701035 -25.393071 -88.232271 500.000000
0.260000 0.260000 0.290000 -183.706196 -276.797477 74.743562 500.000000
0.260000 0.260000 0.410000 -85.486785 -46.561028 -348.807579 500.000000
0.260000 0.260000 0.290000 -63.515254 -173.768336 39.161257 500.000000
0.260000 0.260000 0.410000 -105.298650 -23.112864 -85.088633 500.000000
-0.260000 0.260000 0.290000 76.109800 -61.747410 37.327498 500.000000
0.242171 0.090000 0.410000 100.434234 21.138055 -73.434380 500.000000
-0.260000 0.090000 0.290000 56.589835 40.813953 39.047153 500.000000
0.260000 0.260000 0.410000 -195.183051 -23.513507 -85.068542 500.000000
-0.260000 0.090000 0.290000 63.421766 118.773776 47.175682 500.000000
0.260000 0.090000 0.290000 -82.774612 109.648156 44.736026 500.000000
-0.140954 0.090000 0.387317 -80.190842 57.398800 19.463309 500.000000
-0.260000 0.090000 0.375150 264.052564 43.970819 17.029967 500.000000
-0.109471 0.090000 0.410000 -73.894168 51.850810 -36.577356 500.000000
-0.260000 0.090000 0.290000 56.043212 38.171715 61.282671 500.000000
0.251867 0.260000 0.290000 102.373422 -162.384128 56.208473 500.000000
0.260000 0.260000 0.290000 -54.261682 -169.457909 163.757588 500.000000
-0.260000 0.260000 0.290000 71.157132 -56.249146 70.216832 500.000000
-0.005459 0.260000 0.410000 -34.143449 -23.113086 -85.088601 500.000000
-0.260000 0.260000 0.290000 68.910779 -56.225386 46.082196 500.000000
-0.260000 0.090000 0.377375 231.464618 168.718801 17.475027 500.000000
-0.260000 0.260000 0.410000 251.072200 -27.024364 -321.544562 500.000000
-0.260000 0.260000 0.290000 18.072626 -77.478051 14.536356 500.000000
0.212936 0.260000 0.290000 94.587222 -156.172232 59.492381 500.000000
0.116460 0.134835 0.410000 75.291932 -25.033009 -253.777516 500.000000
-0.260000 0.090000 0.290000 57.478252 40.865468 49.229803 500.000000
0.107352 0.090000 0.410000 73.470459 19.690603 -49.829893 500.000000
-0.260000 0.260000 0.290000 82.197033 -59.701681 37.322324 500.000000
0.195271 0.260000 0.319806 40.298242 -35.235266 -18.038766 500.000000
-0.260000 0.090000 0.290000 56.597671 38.191763 48.919303 500.000000
0.260000 0.099333 0.410000 -52.879042 -32.133417 -50.284483 500.000000
-0.260000 0.260000 0.410000 91.598790 -29.365809 -265.388265 500.000000
0.260000 0.090000 0.290000 -88.219228 38.832946 109.602576 500.000000
-0.247915 0.090000 0.290000 -101.583095 37.718062 48.384913 500.000000
-0.260000 0.260000 0.290000 81.744996 -118.824211 53.134510 500.000000
-0.163060 0.090000 0.410000 -84.611900 52.473662 -51.958647 500.000000
0.260000 0.090000 0.290000 -510.223214 36.451141 97.988664 500.000000
-0.260000 0.260000 0.290000 76.442537 -55.924960 53.893328 500.000000
0.260000 0.090000 0.290000 -52.720514 906.836523 60.712478 500.000000
0.159038 0.260000 0.410000 83.807616 -63.507229 -662.497580 500.000000
0.112458 0.090000 0.410000 74.491576 18.385972 -48.796887 500.000000
0.260000 0.260000 0.410000 -112.631666 -23.110718 -85.090784 500.000000
-0.004563 0.260000 0.410000 7.189774 -53.528533 -15.477720 500.000000
-0.260000 0.090000 0.410000 70.950916 97.133183 -12.779119 500.000000
0.260000 0.090000 0.410000 -184.868372 18.445964 -92.026565 500.000000
-0.260000 0.260000 0.290000 66.711526 -38.567754 33.291405 500.000000
0.120813 0.090000 0.410000 76.162647 18.015368 -49.743894 500.000000
0.260000 0.260000 0.410000 -116.562348 -22.724604 -85.396743 500.000000
0.260000 0.260000 0.290000 -54.650957 -159.658506 183.735069 500.000000
0.125294 0.090000 0.410000 77.058873 18.071664 -49.748432 500.000000
-0.104359 0.090000 0.410000 -72.871842 52.154486 -53.116577 500.000000
0.118139 0.090000 0.410000 75.627844 18.543840 -49.716594 500.000000
-0.260000 0.090000 0.410000 266.373285 62.868899 -12.992057 500.000000
-0.260000 0.090000 0.410000 177.837522 313.653492 -177.906555 500.000000
0.260000 0.090000 0.290000 -80.794953 410.467239 72.710877 500.000000
0.105679 0.090000 0.410000 73.135720 18.067268 -68.504555 500.000000
0.260000 0.260000 0.410000 -41.360562 -23.040004 -90.255523 500.000000
-0.260000 0.260000 0.290000 72.926914 -54.486250 39.117488 500.000000
-0.260000 0.260000 0.410000 389.955075 -26.604030 -180.873901 500.000000
-0.104872 0.090000 0.410000 -72.974315 49.529107 -51.983134 500.000000
-0.260000 0.090000 0.290000 55.687642 40.874506 113.344179 500.000000
0.260000 0.260000 0.410000 -82.799585 -41.331392 -78.677111 500.000000
-0.137566 0.090000 0.410000 -79.513167 48.629708 -43.571724 500.000000
-0.260000 0.090000 0.290000 53.813566 40.803271 92.329864 500.000000
-0.260000 0.090000 0.290000 54.472607 40.864525 134.714184 500.000000
-0.142156 0.090000 0.290000 -80.431232 346.701245 15.258776 500.000000
