ply
format ascii 1.0
element vertex 240
property float x
property float y
property float z
property float vx
property float vy
property float vz
property float density
end_header
-0.172774 0.198218 0.290000 -86.554867 21.643606 85.603409 500.000000
0.260000 0.090000 0.410000 -45.903769 51.623685 -30.799401 500.000000
0.260000 0.260000 0.290000 -596.705398 -132.288035 30.451375 500.000000
-0.260000 0.260000 0.410000 60.742276 -24.707223 -30.886904 500.000000
-0.170506 0.252765 0.290000 -86.101147 32.552949 14.067674 500.000000
-0.260000 0.260000 0.410000 65.208988 -59.392233 -18.247194 500.000000
-0.211627 0.260000 0.290000 -94.325393 -57.697846 19.234882 500.000000
0.110126 0.106072 0.410000 74.025198 -30.785649 -121.426636 500.000000
0.260000 0.260000 0.290000 -52.502508 -33.217491 14.010970 500.000000
-0.260000 0.260000 0.410000 199.809789 -108.096127 -24.285067 500.000000
0.260000 0.090000 0.410000 -235.643588 86.673836 -34.329473 500.000000
0.260000 0.260000 0.410000 -60.850382 -41.697728 -63.789430 500.000000
0.207170 0.115481 0.410000 7.575377 -28.903885 -28.128801 500.000000
0.119040 0.260000 0.361230 75.808033 -98.625060 14.246031 500.000000
0.260000 0.260000 0.410000 -75.638788 -60.096177 -87.152180 500.000000
0.260000 0.090000 0.290000 -60.117843 43.033878 41.308315 500.000000
0.260000 0.090000 0.290000 -52.393788 70.811756 32.249869 500.000000
0.260000 0.260000 0.410000 -234.152171 -647.222945 -37.821933 500.000000
0.260000 0.090000 0.290000 -59.927237 279.623837 38.344191 500.000000
0.260000 0.090000 0.290000 -52.745821 138.981531 34.240910 500.000000
-0.260000 0.090000 0.410000 97.194626 52.337858 -463.810517 500.000000
-0.260000 0.090000 0.290000 92.088706 68.779823 32.432731 500.000000
0.260000 0.260000 0.290000 -113.077401 -52.109487 27.332032 500.000000
-0.104887 0.185300 0.408145 -37.263195 -14.940092 11.558472 500.000000
0.260000 0.260000 0.305518 -292.762681 -243.968715 -20.896417 500.000000
0.260000 0.090000 0.410000 -52.648586 90.893386 -47.447097 500.000000
0.260000 0.260000 0.410000 -65.027782 -145.272200 -17.818839 500.000000
-0.190623 0.260000 0.290000 -90.124561 -63.378740 20.137861 500.000000
0.260000 0.121423 0.410000 -59.412435 -27.715313 -28.121517 500.000000
0.260000 0.102922 0.290000 -13.092391 -15.705799 26.140724 500.000000
-0.260000 0.090000 0.410000 52.744013 16.203405 -21.658622 500.000000
0.260000 0.260000 0.290000 -135.170608 -63.351595 83.706071 500.000000
-0.260000 0.260000 0.290000 287.691382 -39.745013 92.453709 500.000000
0.260000 0.260000 0.290000 -112.262285 -57.179754 26.896774 500.000000
-0.260000 0.090000 0.290000 91.932099 73.232336 46.067052 500.000000
-0.258111 0.260000 0.290000 -31.219548 -48.615204 18.682536 500.000000
-0.009588 0.090000 0.410000 -27.674848 29.884542 -18.202508 500.000000
-0.256291 0.260000 0.290000 -103.258262 -29.959732 308.699296 500.000000
-0.047899 0.090000 0.410000 42.420136 89.723126 -44.203710 500.000000
-0.260000 0.090000 0.410000 21.013094 66.018326 -11.916597 500.000000
0.021640 0.260000 0.410000 13.962565 -18.151738 -69.684536 500.000000
0.260000 0.090000 0.410000 -192.729803 86.683671 -34.313318 500.000000
-0.037584 0.120207 0.410000 -26.153632 -2.637538 -21.784097 500.000000
-0.129858 0.252689 0.290000 -77.971660 32.537893 14.566868 500.000000
0.066260 0.126198 0.410000 6.593597 -26.760414 -39.020371 500.000000
-0.085213 0.090000 0.410000 -69.042682 68.814846 -31.563175 500.000000
-0.260000 0.260000 0.290000 405.802190 -46.139302 66.521363 500.000000
-0.105967 0.090000 0.290000 30.806612 45.784265 59.248796 500.000000
0.134905 0.260000 0.410000 78.981079 -102.977105 -22.436641 500.000000
0.260000 0.260000 0.290000 -112.461091 -52.756525 26.607599 500.000000
-0.260000 0.260000 0.290000 305.011123 -39.172652 94.744167 500.000000
0.260000 0.090000 0.410000 -164.708847 86.799260 -34.550857 500.000000
-0.260000 0.260000 0.290000 293.047576 -39.203937 105.429814 500.000000
0.151792 0.260000 0.410000 82.358446 -56.793158 -80.882146 500.000000
-0.140131 0.090000 0.410000 -11.779290 13.459719 -24.641285 500.000000
0.260000 0.090000 0.410000 -126.389978 90.852775 -43.084525 500.000000
-0.260000 0.161605 0.410000 20.944051 -19.678902 -13.506212 500.000000
-0.211335 0.260000 0.410000 -46.752214 -69.670636 -32.987155 500.000000
0.140304 0.090000 0.381624 18.411245 12.143370 18.324739 500.000000
0.260000 0.260000 0.290000 -112.057123 -52.854573 31.997486 500.000000
0.260000 0.260000 0.290000 -112.224574 -52.835936 42.842386 500.000000
-0.260000 0.092853 0.410000 26.565913 -33.429419 -7.601366 500.000000
-0.170110 0.252058 0.290000 -86.021955 32.411514 14.101000 500.000000
0.260000 0.090000 0.410000 -96.064665 88.091708 -35.654406 500.000000
-0.260000 0.090000 0.410000 67.759057 68.589910 -15.463877 500.000000
0.260000 0.260000 0.410000 -266.842807 -666.204262 -38.183027 500.000000
0.260000 0.090000 0.290000 -420.004637 67.559641 31.315833 500.000000
-0.260000 0.090000 0.290000 92.514545 73.232612 40.665019 500.000000
-0.259201 0.180058 0.410000 -32.940438 18.011518 -22.408529 500.000000
-0.171432 0.090000 0.410000 -22.319813 19.390332 -21.688642 500.000000
0.260000 0.260000 0.290000 -111.834006 -57.009068 27.266995 500.000000
-0.260000 0.090000 0.410000 120.261509 30.195647 -14.072250 500.000000
0.158789 0.090000 0.290000 83.757755 49.003809 109.336449 500.000000
-0.260000 0.090000 0.290000 92.879537 79.383012 29.741890 500.000000
0.260000 0.260000 0.290000 -338.672363 -24.796539 19.544933 500.000000
0.190092 0.090000 0.410000 90.018480 19.059178 -31.069440 500.000000
-0.260000 0.090000 0.374881 124.600753 78.440197 16.976126 500.000000
0.260000 0.090000 0.290000 -404.325558 70.424283 48.229149 500.000000
-0.260000 0.260000 0.410000 132.892545 -44.406554 -78.989164 500.000000
0.260000 0.090000 0.290000 -69.632162 65.137788 22.506043 500.000000
-0.260000 0.260000 0.290000 152.055051 -455.204460 19.716687 500.000000
0.184679 0.260000 0.410000 14.363421 -39.830926 -40.227293 500.000000
0.260000 0.260000 0.290000 -117.270996 -62.347541 27.023131 500.000000
0.260000 0.260000 0.290000 -202.709363 -54.482573 25.212000 500.000000
0.260000 0.260000 0.290000 -114.132435 -49.788621 27.194872 500.000000
-0.260000 0.090000 0.410000 87.744881 28.354560 -14.068560 500.000000
-0.260000 0.090000 0.410000 246.738277 31.866721 -14.081073 500.000000
0.260000 0.260000 0.410000 -69.727066 -77.138246 -88.778228 500.000000
0.260000 0.260000 0.290000 -119.671651 -69.947639 27.452357 500.000000
0.149355 0.260000 0.410000 81.870966 -56.985973 -81.385990 500.000000
0.260000 0.260000 0.410000 -17.531231 -24.283726 -143.521917 500.000000
0.260000 0.155443 0.329059 -42.722634 -20.911425 -16.188274 500.000000
-0.174540 0.129127 0.410000 -6.073715 -26.174607 -38.459878 500.000000
0.260000 0.090000 0.410000 -77.796676 77.422923 -78.706883 500.000000
-0.260000 0.090000 0.290000 171.781595 128.436218 41.255757 500.000000
-0.260000 0.090000 0.290000 179.434073 258.603381 22.744476 500.000000
-0.011659 0.260000 0.354673 -54.331716 -10.411563 -4.005974 500.000000
0.128116 0.090000 0.410000 77.623228 90.750908 -54.969996 500.000000
-0.260000 0.260000 0.290000 83.086178 -442.921863 17.329568 500.000000
-0.139927 0.260000 0.290000 -79.985372 -17.583357 31.640081 500.000000
0.082212 0.090000 0.410000 68.442303 18.591133 -21.401707 500.000000
0.260000 0.090000 0.410000 -126.407475 86.952211 -34.558178 500.000000
0.260000 0.090000 0.410000 -87.785728 90.905280 -35.846237 500.000000
0.260000 0.136315 0.290000 -24.611191 -24.736949 44.708180 500.000000
-0.260000 0.090000 0.290000 93.062941 138.427975 29.400911 500.000000
-0.067367 0.090000 0.410000 -10.533406 11.044168 -9.230364 500.000000
-0.260000 0.260000 0.290000 401.676223 -39.465735 83.413330 500.000000
-0.082924 0.090000 0.410000 35.415238 87.085087 -33.248568 500.000000
0.260000 0.260000 0.290000 -114.735811 -49.879675 73.238730 500.000000
-0.260000 0.260000 0.290000 286.679119 -40.216183 26.273662 500.000000
-0.260000 0.090000 0.290000 91.976578 72.142124 38.292453 500.000000
-0.260000 0.090000 0.410000 14.818992 17.755375 -18.226013 500.000000
-0.260000 0.090000 0.410000 90.331591 28.930948 -14.080549 500.000000
-0.260000 0.090000 0.410000 127.060881 36.489257 -125.506891 500.000000
0.115469 0.260000 0.290000 -28.906256 -362.371910 19.492162 500.000000
0.093566 0.090000 0.410000 1.531824 20.061762 -43.193263 500.000000
0.260000 0.090000 0.410000 -79.899568 32.431679 -32.558296 500.000000
-0.260000 0.197371 0.290000 58.032342 21.474111 109.056598 500.000000
-0.260000 0.260000 0.410000 60.619137 -342.367801 -39.424114 500.000000
0.260000 0.260000 0.290000 -111.721381 -52.855558 21.084101 500.000000
-0.072620 0.090000 0.410000 -66.523941 27.786141 -14.080543 500.000000
-0.065533 0.260000 0.290000 38.893424 -194.989448 245.766551 500.000000
-0.148423 0.260000 0.290000 -81.684618 -62.340684 19.894791 500.000000
-0.260000 0.090000 0.290000 92.087575 73.232364 43.346720 500.000000
-0.260000 0.090000 0.290000 88.044526 77.737911 30.871710 500.000000
-0.260000 0.090000 0.290000 98.322753 70.530403 29.352242 500.000000
0.041442 0.090000 0.410000 60.288457 112.733733 -57.893207 500.000000
-0.241129 0.204062 0.290000 -34.782849 -11.187631 12.801953 500.000000
-0.019273 0.206460 0.410000 -55.854650 9.789263 -15.952939 500.000000
0.081324 0.166702 0.353166 10.346530 2.604412 1.986180 500.000000
0.260000 0.141010 0.410000 -26.020149 -23.798075 -40.528783 500.000000
-0.260000 0.090000 0.410000 192.923036 30.601780 -14.081029 500.000000
0.020085 0.090000 0.290000 56.017088 35.477006 202.733334 500.000000
-0.142679 0.249562 0.290000 -80.535888 31.912391 15.833221 500.000000
0.260000 0.090000 0.290000 -386.410239 67.707507 25.949391 500.000000
-0.260000 0.090000 0.290000 92.684953 73.248230 56.750324 500.000000
0.095671 0.090000 0.410000 71.134255 117.204577 -50.639992 500.000000
0.200299 0.260000 0.290000 92.059871 -583.934140 60.962414 500.000000
0.162220 0.260000 0.410000 84.443949 -56.905601 -80.779036 500.000000
-0.260000 0.090000 0.290000 91.965423 73.190134 37.778309 500.000000
0.209866 0.260000 0.410000 93.973265 -73.486493 -271.826089 500.000000
-0.130842 0.246334 0.290000 -78.168494 31.266776 15.603166 500.000000
-0.171228 0.252104 0.290000 -86.245577 32.420743 14.111669 500.000000
-0.260000 0.260000 0.290000 236.235503 -31.888281 18.624786 500.000000
-0.260000 0.260000 0.410000 66.572911 -98.542470 -21.857269 500.000000
0.260000 0.260000 0.290000 -114.278999 -50.209349 66.059098 500.000000
0.260000 0.260000 0.410000 -183.031199 -40.428665 -34.610208 500.000000
-0.260000 0.090000 0.290000 92.217602 73.234318 32.750973 500.000000
-0.207827 0.204430 0.290000 -93.565354 22.886015 91.351666 500.000000
-0.192008 0.248415 0.290000 -90.401682 31.683055 14.112041 500.000000
0.260000 0.260000 0.290000 -111.236085 -22.778839 79.103994 500.000000
0.260000 0.090000 0.410000 -90.208746 113.158174 -55.061347 500.000000
-0.140658 0.228534 0.290000 -80.131614 27.706859 15.144199 500.000000
-0.260000 0.250775 0.290000 52.944598 32.155039 13.998081 500.000000
-0.071617 0.090000 0.410000 -66.323335 105.507747 -15.258998 500.000000
-0.157780 0.260000 0.384766 20.443951 -127.540804 18.953159 500.000000
-0.170915 0.260000 0.290000 -86.183053 -17.125755 14.298626 500.000000
0.185367 0.090000 0.290000 89.073375 53.553587 38.733643 500.000000
0.258659 0.090000 0.410000 103.731825 87.678521 -34.550523 500.000000
-0.136011 0.090000 0.410000 24.797765 90.010520 -47.766093 500.000000
0.260000 0.260000 0.290000 -120.024165 -53.461747 26.360204 500.000000
-0.260000 0.260000 0.410000 165.278467 -53.249471 -57.037001 500.000000
-0.260000 0.090000 0.410000 285.631623 32.124796 -13.842106 500.000000
-0.053424 0.090000 0.290000 41.315296 46.465421 102.429431 500.000000
-0.178522 0.252549 0.290000 -87.704316 32.509742 14.158026 500.000000
0.260000 0.260000 0.290000 -114.999737 -50.680286 31.060402 500.000000
0.260000 0.260000 0.410000 -75.619797 -23.742307 -79.966240 500.000000
-0.044708 0.090000 0.410000 -60.941650 30.104912 -28.082189 500.000000
-0.260000 0.197370 0.290000 55.318027 21.473904 98.155527 500.000000
0.260000 0.090000 0.290000 -91.931001 17.042707 55.786986 500.000000
0.260000 0.090000 0.290000 -115.793964 269.109383 54.185220 500.000000
0.260000 0.090000 0.410000 -33.151303 40.313289 -13.503077 500.000000
0.260000 0.260000 0.290000 -112.019385 -52.552905 56.753887 500.000000
0.010618 0.109164 0.410000 -23.898495 -7.044640 -21.658343 500.000000
0.142855 0.090000 0.410000 -4.732373 24.903264 -22.445039 500.000000
0.260000 0.260000 0.290000 -144.594662 -79.599571 31.335827 500.000000
-0.099046 0.260000 0.410000 13.656466 -25.291076 -87.553094 500.000000
0.260000 0.260000 0.290000 -114.564423 -53.857284 22.445430 500.000000
0.019658 0.090000 0.410000 55.931588 105.966592 -21.660589 500.000000
-0.155841 0.257168 0.290000 -83.168148 33.433625 14.112964 500.000000
-0.260000 0.090000 0.410000 116.327978 35.429630 -24.381904 500.000000
-0.260000 0.090000 0.290000 93.071598 73.234843 35.462562 500.000000
0.246685 0.260000 0.410000 101.336959 -47.787436 -21.655725 500.000000
-0.260000 0.090000 0.290000 94.778571 92.713276 37.493492 500.000000
0.260000 0.090000 0.290000 -57.679573 60.985733 26.273338 500.000000
0.076577 0.116577 0.290000 -0.629985 -28.684642 77.881060 500.000000
-0.260000 0.090000 0.290000 68.627720 46.109978 84.607003 500.000000
0.231915 0.090000 0.410000 19.254454 21.307426 -27.147030 500.000000
-0.260000 0.090000 0.290000 92.935023 72.574674 41.018155 500.000000
-0.260000 0.260000 0.290000 436.272437 -40.662229 30.790248 500.000000
0.260000 0.260000 0.290000 -112.252377 -52.780305 53.576375 500.000000
-0.143465 0.243430 0.290000 -80.693095 30.685915 22.331045 500.000000
-0.213441 0.090000 0.410000 -94.688110 129.643162 -24.959195 500.000000
-0.137852 0.243370 0.290000 -79.570499 30.674041 16.300507 500.000000
-0.260000 0.090000 0.290000 60.703955 77.278171 50.166825 500.000000
-0.260000 0.090000 0.410000 72.698438 18.352107 -84.773880 500.000000
0.260000 0.260000 0.410000 -134.909477 -21.128177 -163.163682 500.000000
-0.260000 0.260000 0.290000 177.487294 -39.027375 27.105505 500.000000
-0.169516 0.260000 0.410000 -85.903207 -134.281379 -72.668315 500.000000
-0.260000 0.090000 0.290000 93.293571 73.247715 38.006719 500.000000
-0.260000 0.090000 0.410000 161.859372 30.650599 -14.100654 500.000000
-0.171051 0.252056 0.290000 -86.210190 32.411290 14.111672 500.000000
-0.260000 0.260000 0.410000 55.287286 -49.686112 -31.738439 500.000000
-0.260000 0.090000 0.290000 93.073556 72.579683 37.929140 500.000000
-0.260000 0.260000 0.410000 133.033444 -97.380366 -17.981591 500.000000
0.260000 0.260000 0.410000 -53.591318 -17.477887 -66.514100 500.000000
0.260000 0.090000 0.290000 -59.039986 43.291557 42.481158 500.000000
0.260000 0.090000 0.290000 -452.706116 67.377749 31.058590 500.000000
-0.169921 0.260000 0.290000 -85.984289 -30.978631 18.062673 500.000000
0.026482 0.128875 0.410000 -31.578393 -26.224980 -34.100993 500.000000
0.260000 0.090000 0.290000 -164.483616 42.696430 39.579258 500.000000
-0.156672 0.242620 0.290000 -83.334431 30.523906 18.252280 500.000000
0.241701 0.090000 0.290000 100.340267 260.174456 30.265279 500.000000
-0.131734 0.260000 0.410000 -78.346843 -56.748349 -174.798353 500.000000
-0.260000 0.090000 0.410000 129.242906 29.109431 -13.842597 500.000000
0.037967 0.090000 0.410000 59.593345 193.259304 -21.661126 500.000000
0.260000 0.260000 0.290000 -29.268041 -21.592383 72.261242 500.000000
0.260000 0.090000 0.410000 -88.706034 25.125184 -32.283840 500.000000
0.260000 0.090000 0.410000 -63.155326 112.636492 -51.007213 500.000000
-0.132357 0.199249 0.290000 -78.471442 21.849792 13.104463 500.000000
-0.032677 0.124594 0.410000 -21.045791 -27.081124 -14.857126 500.000000
0.045606 0.090000 0.410000 61.121219 260.853814 -21.737420 500.000000
0.260000 0.260000 0.290000 -112.349640 -50.331881 58.567837 500.000000
0.260000 0.090000 0.410000 -87.921589 87.574851 -34.550614 500.000000
0.260000 0.090000 0.410000 -135.840721 90.899764 -49.517447 500.000000
-0.260000 0.090000 0.410000 60.598687 28.151473 -14.072355 500.000000
-0.260000 0.090000 0.410000 75.413353 32.934938 -31.255697 500.000000
-0.260000 0.090000 0.410000 53.291398 95.597137 -72.461997 500.000000
0.260000 0.090000 0.290000 -57.184927 136.149611 33.263248 500.000000
-0.260000 0.090000 0.410000 231.717977 30.770818 -18.765920 500.000000
-0.109003 0.166135 0.410000 -32.450211 4.261334 -25.690108 500.000000
-0.147888 0.239025 0.290000 -81.577529 29.804923 14.560230 500.000000
-0.260000 0.090000 0.410000 106.517276 87.692844 -49.435114 500.000000
0.260000 0.090000 0.410000 -95.234412 90.243863 -49.604871 500.000000
-0.260000 0.090000 0.290000 92.846183 73.249973 54.025836 500.000000
-0.260000 0.260000 0.410000 99.165429 -26.405876 -20.058348 500.000000
-0.103594 0.090000 0.410000 -72.718898 29.377038 -37.681199 500.000000
-0.260000 0.090000 0.290000 92.377941 73.232174 48.775364 500.000000
-0.260000 0.090000 0.290000 92.542604 73.247479 59.365179 500.000000
0.236146 0.090000 0.410000 99.229188 91.200188 -118.316076 500.000000
