ply
format ascii 1.0
element vertex 240
property float x
property float y
property float z
property float vx
property float vy
property float vz
property float density
end_header
0.260000 0.260000 0.410000 -157.054738 -51.419945 -13.534806 500.000000
-0.260000 0.090000 0.410000 164.591374 50.947900 -27.806356 500.000000
-0.260000 0.105509 0.290000 468.500657 -30.898214 16.344123 500.000000
0.260000 0.090000 0.290000 -45.875082 59.224093 25.922750 500.000000
-0.260000 0.092053 0.290000 87.275263 -33.589464 26.570391 500.000000
-0.260000 0.260000 0.410000 93.103864 -157.694740 -22.222983 500.000000
0.077935 0.173353 0.341009 -9.321823 8.334284 -13.798258 500.000000
-0.260000 0.123335 0.290000 272.888025 -27.333026 26.540233 500.000000
0.260000 0.260000 0.290000 -91.687041 -84.701499 41.173639 500.000000
-0.260000 0.260000 0.410000 139.550118 -29.019962 -21.027948 500.000000
-0.260000 0.260000 0.290000 68.745731 -117.758510 15.877104 500.000000
0.260000 0.090000 0.410000 -77.394024 128.428915 -51.550680 500.000000
-0.260000 0.260000 0.290000 68.904760 -118.086685 14.350414 500.000000
0.260000 0.090000 0.410000 -237.293261 44.186044 -25.018970 500.000000
-0.260000 0.260000 0.290000 69.509940 -118.325586 15.873435 500.000000
0.260000 0.260000 0.410000 -48.762539 -92.026932 -13.131067 500.000000
-0.260000 0.260000 0.290000 87.649434 -104.587555 12.514893 500.000000
-0.125651 0.090000 0.290000 -32.281430 253.092472 29.682645 500.000000
0.260000 0.090000 0.410000 -445.052574 50.558196 -27.691459 500.000000
-0.238041 0.204102 0.290000 -30.782944 -11.179681 15.728472 500.000000
0.260000 0.260000 0.410000 -119.532873 -18.230601 -29.195404 500.000000
-0.252261 0.260000 0.410000 -102.452297 -10.483443 -246.518961 500.000000
0.260000 0.107807 0.290000 -303.733484 -30.438647 29.928158 500.000000
0.260000 0.106367 0.290000 -307.509982 -30.726548 16.708874 500.000000
-0.260000 0.260000 0.410000 132.561819 -28.505409 -18.417991 500.000000
0.260000 0.090000 0.410000 -54.859127 118.757596 -48.745851 500.000000
-0.260000 0.260000 0.410000 120.055203 -44.007932 -57.708360 500.000000
-0.260000 0.260000 0.290000 69.362895 -118.056366 14.384345 500.000000
0.260000 0.260000 0.290000 -53.894708 -198.999185 59.144999 500.000000
0.260000 0.090000 0.342251 -58.869244 44.804280 -13.549743 500.000000
0.260000 0.090000 0.410000 -364.805953 44.519118 -25.266819 500.000000
0.190716 0.260000 0.290000 90.143145 -192.148952 56.275614 500.000000
0.226641 0.090000 0.410000 97.328192 118.783461 -49.193590 500.000000
-0.260000 0.260000 0.410000 133.264281 -28.393878 -21.995428 500.000000
-0.145242 0.260000 0.290000 -81.048378 -37.913112 33.212620 500.000000
0.147841 0.090000 0.310872 81.568210 61.423039 -19.825501 500.000000
-0.260000 0.090000 0.410000 175.815412 78.350861 -23.953884 500.000000
-0.260000 0.102111 0.354562 50.252408 -31.577780 12.912435 500.000000
-0.260000 0.260000 0.290000 69.153676 -118.355254 15.808138 500.000000
0.260000 0.260000 0.406911 -113.744499 -81.085809 23.382147 500.000000
-0.260000 0.260000 0.290000 69.268194 -117.905221 14.371984 500.000000
0.260000 0.090000 0.410000 -53.638808 121.506152 -49.494095 500.000000
0.200033 0.260000 0.290000 92.006524 -101.839185 230.603506 500.000000
-0.260000 0.260000 0.410000 187.807328 -104.353712 -13.098499 500.000000
-0.260000 0.260000 0.410000 380.318971 -39.174435 -87.406748 500.000000
-0.260000 0.260000 0.410000 69.514786 -287.394193 -27.254806 500.000000
-0.011155 0.090000 0.290000 -54.231097 98.513464 143.372148 500.000000
-0.260000 0.097120 0.364587 44.578977 -32.576003 14.917462 500.000000
-0.260000 0.260000 0.410000 91.272517 -67.565909 -31.544536 500.000000
0.260000 0.090000 0.410000 -63.541713 118.602317 -48.700652 500.000000
-0.177655 0.132822 0.410000 2.983588 -25.435643 -34.324712 500.000000
0.164706 0.260000 0.365192 84.941117 -334.173971 15.038495 500.000000
-0.260000 0.104819 0.290000 35.876154 -31.036290 16.357767 500.000000
-0.260000 0.090000 0.410000 163.766463 51.076492 -28.643601 500.000000
0.005019 0.229001 0.309805 53.003760 13.913790 -6.440983 500.000000
-0.260000 0.260000 0.290000 73.212593 -139.585047 14.603479 500.000000
-0.260000 0.260000 0.290000 69.298203 -119.203684 14.332000 500.000000
-0.260000 0.260000 0.410000 138.190769 -28.859900 -19.243524 500.000000
0.260000 0.105868 0.290000 -51.152981 -30.826304 16.352343 500.000000
-0.260000 0.094052 0.290000 633.723771 -33.189517 16.788379 500.000000
-0.260000 0.260000 0.290000 71.243996 -119.498904 17.155523 500.000000
0.071389 0.090000 0.290000 32.533135 14.636066 113.579629 500.000000
0.260000 0.260000 0.410000 -131.725914 -40.560730 -47.779929 500.000000
0.260000 0.105122 0.290000 -512.146602 -30.975586 18.277011 500.000000
-0.260000 0.260000 0.410000 147.580007 -78.915567 -15.077651 500.000000
-0.241260 0.090000 0.290000 -100.251994 45.960819 12.117001 500.000000
0.051101 0.260000 0.410000 -13.918802 -19.153266 -26.356619 500.000000
0.260000 0.090000 0.290000 -85.993784 75.330043 15.194045 500.000000
-0.260000 0.090000 0.410000 41.624260 64.722714 -67.851076 500.000000
0.260000 0.134859 0.290000 -468.951373 -25.028155 13.293644 500.000000
-0.219335 0.090000 0.290000 -48.453323 4.315359 35.383356 500.000000
0.213583 0.090000 0.410000 94.716625 117.459938 -47.982467 500.000000
-0.260000 0.260000 0.290000 138.667592 -25.361458 76.404644 500.000000
0.180299 0.090000 0.410000 88.059814 122.574469 -48.929036 500.000000
-0.260000 0.090000 0.410000 182.080362 52.133016 -25.533508 500.000000
0.260000 0.260000 0.410000 -31.676195 -94.936365 -19.624739 500.000000
-0.260000 0.260000 0.290000 65.185605 -103.588794 44.012601 500.000000
-0.260000 0.260000 0.290000 69.426059 -118.365985 15.787384 500.000000
0.217430 0.260000 0.290000 95.485963 -102.483593 161.389631 500.000000
-0.260000 0.105849 0.290000 420.989151 -30.830210 16.622850 500.000000
0.192244 0.260000 0.290000 90.448740 -83.635252 75.070542 500.000000
-0.260000 0.090000 0.410000 162.791233 51.115021 -27.914697 500.000000
-0.083017 0.260000 0.410000 -68.603347 -74.120233 -130.200243 500.000000
0.260000 0.105859 0.290000 -137.633208 -30.828233 16.353465 500.000000
0.260000 0.090000 0.290000 -78.135493 72.977529 12.203525 500.000000
-0.260000 0.260000 0.290000 76.471257 -203.430910 15.420081 500.000000
-0.260000 0.090000 0.290000 202.559856 20.080532 25.214850 500.000000
-0.260000 0.090000 0.410000 162.465682 254.785321 -18.548493 500.000000
-0.260000 0.090000 0.410000 165.095715 51.091176 -28.569247 500.000000
-0.260000 0.260000 0.290000 68.646904 -118.377297 15.935681 500.000000
-0.260000 0.260000 0.290000 70.421465 -118.547898 15.802494 500.000000
0.260000 0.104692 0.290000 -454.704379 -31.061576 18.034463 500.000000
-0.260000 0.260000 0.410000 81.360722 -38.586102 -80.615739 500.000000
0.260000 0.260000 0.290000 -83.182263 -128.665633 18.542493 500.000000
0.260000 0.260000 0.290000 -88.982375 -99.883519 93.225253 500.000000
0.260000 0.260000 0.410000 -370.157467 -52.880290 -14.339850 500.000000
-0.260000 0.260000 0.410000 134.733044 -28.508990 -18.471415 500.000000
0.105077 0.090000 0.410000 37.660495 18.220800 -111.651641 500.000000
0.015163 0.260000 0.410000 55.032688 -144.925146 -535.951190 500.000000
-0.260000 0.260000 0.290000 68.904507 -118.249266 15.791516 500.000000
-0.066587 0.260000 0.290000 38.682566 -93.687028 55.711037 500.000000
0.260000 0.260000 0.290000 -64.040079 -99.989126 29.706987 500.000000
-0.260000 0.260000 0.410000 135.619340 -35.476289 -92.737053 500.000000
-0.260000 0.105193 0.290000 296.163190 -30.961383 16.406229 500.000000
0.088304 0.190125 0.290000 24.948550 20.024982 19.289918 500.000000
-0.260000 0.260000 0.290000 69.103642 -117.903375 14.383322 500.000000
0.092040 0.090000 0.410000 -33.592098 292.191567 -59.303683 500.000000
-0.260000 0.090000 0.290000 63.512872 21.190576 16.112493 500.000000
-0.260000 0.260000 0.290000 68.684266 -118.376915 15.850347 500.000000
-0.260000 0.103064 0.290000 708.892649 -31.387177 15.742716 500.000000
0.260000 0.260000 0.290000 -52.696854 -86.471938 91.636353 500.000000
-0.260000 0.260000 0.290000 118.789864 -118.449608 34.357013 500.000000
0.068402 0.260000 0.290000 10.880356 -38.892135 15.795900 500.000000
-0.260000 0.090000 0.410000 193.770920 110.060279 -22.539266 500.000000
-0.260000 0.090000 0.290000 145.914636 22.728168 20.590716 500.000000
-0.260000 0.090000 0.290000 71.145446 1163.686939 44.370497 500.000000
-0.260000 0.090000 0.290000 96.264764 22.981626 17.590186 500.000000
0.260000 0.260000 0.353465 -99.507027 -75.930849 12.692902 500.000000
0.043372 0.090000 0.290000 -43.325639 383.516666 59.498289 500.000000
0.260000 0.260000 0.290000 -55.140899 -100.955051 34.016007 500.000000
-0.260000 0.107913 0.290000 535.546894 -30.417466 16.299100 500.000000
0.260000 0.140088 0.290000 -227.829217 -23.982356 26.556671 500.000000
0.260000 0.260000 0.410000 -1101.845273 -80.846562 -26.317982 500.000000
0.260000 0.105850 0.290000 -224.553136 -30.829993 16.388643 500.000000
0.260000 0.260000 0.290000 -81.713401 -99.948591 49.773890 500.000000
-0.260000 0.260000 0.410000 234.907345 -41.866863 -46.794804 500.000000
-0.260000 0.260000 0.410000 92.600310 -44.523651 -25.349671 500.000000
-0.260000 0.260000 0.290000 119.826432 -107.240438 54.164502 500.000000
-0.053666 0.090000 0.410000 -31.475630 21.090543 -81.631875 500.000000
0.050129 0.260000 0.290000 62.025726 -105.054851 242.268217 500.000000
-0.260000 0.190124 0.290000 123.936449 -13.975135 8.628499 500.000000
-0.260000 0.090000 0.410000 26.527302 9.568606 -128.223069 500.000000
-0.260000 0.090000 0.290000 206.249695 17.327656 47.043640 500.000000
0.260000 0.090000 0.290000 -130.735265 165.227845 28.659197 500.000000
0.260000 0.260000 0.410000 -363.772021 -17.382765 -114.969488 500.000000
-0.260000 0.260000 0.290000 99.585903 -121.097473 14.011679 500.000000
-0.260000 0.260000 0.290000 88.140276 -109.004072 17.121521 500.000000
-0.215031 0.090000 0.290000 -29.117003 17.652451 38.911327 500.000000
0.032266 0.090000 0.410000 58.453240 69.339854 -20.697452 500.000000
0.260000 0.090000 0.290000 -36.630068 26.725705 93.077636 500.000000
-0.260000 0.260000 0.410000 220.283452 -39.446635 -97.729679 500.000000
-0.260000 0.090000 0.290000 90.693143 1249.565613 44.415518 500.000000
0.260000 0.214001 0.410000 -95.675641 24.800152 -99.108154 500.000000
-0.260000 0.090000 0.410000 173.003170 79.308346 -33.135291 500.000000
0.247599 0.260000 0.290000 101.519775 -83.096696 33.361967 500.000000
0.260000 0.260000 0.401952 -199.818337 -99.807435 22.390388 500.000000
0.260000 0.090000 0.410000 -69.320069 132.580532 -52.588336 500.000000
0.014806 0.090000 0.365478 -49.038769 366.129182 15.095511 500.000000
-0.260000 0.260000 0.300960 34.993290 -19.691243 -21.808087 500.000000
0.208690 0.260000 0.290000 93.738015 -93.333091 70.968009 500.000000
0.260000 0.090000 0.290000 -264.961460 640.677828 57.275462 500.000000
0.260000 0.090000 0.290000 -372.135147 28.209415 143.597769 500.000000
-0.121247 0.090000 0.290000 -15.604288 18.614269 16.171341 500.000000
-0.260000 0.260000 0.290000 42.054252 -37.810398 132.785051 500.000000
-0.260000 0.092118 0.290000 89.302125 -33.576402 26.568731 500.000000
0.260000 0.260000 0.290000 -53.224277 -111.081082 86.586804 500.000000
-0.209117 0.090000 0.410000 -36.468128 66.991036 -194.710725 500.000000
-0.260000 0.260000 0.410000 55.399602 -35.038638 -78.978578 500.000000
-0.260000 0.260000 0.410000 132.428144 -28.670096 -18.498131 500.000000
0.165851 0.090000 0.410000 85.170180 119.411953 -46.479299 500.000000
-0.260000 0.091995 0.290000 85.704372 -33.600911 26.571724 500.000000
-0.260000 0.090000 0.290000 62.218091 31.443988 31.774678 500.000000
0.260000 0.105186 0.290000 -495.714858 -30.962817 17.347669 500.000000
-0.260000 0.126276 0.309650 603.239273 -26.744735 -20.069915 500.000000
0.260000 0.090000 0.409025 -109.180338 265.455425 23.805071 500.000000
0.260000 0.090000 0.290000 -67.112965 90.521573 13.527138 500.000000
0.019112 0.260000 0.410000 55.822462 -310.548338 -53.424707 500.000000
-0.260000 0.105865 0.290000 209.054805 -30.827041 16.350334 500.000000
0.260000 0.090000 0.410000 -29.064801 7.267007 -51.991655 500.000000
-0.208336 0.090000 0.399276 -53.515506 20.483958 21.855267 500.000000
0.260000 0.260000 0.410000 -112.263467 -19.798976 -81.771460 500.000000
0.180102 0.090000 0.410000 20.191978 238.726847 -35.876283 500.000000
-0.260000 0.260000 0.290000 69.244150 -118.793284 14.076393 500.000000
0.260000 0.090000 0.410000 -299.270264 34.968969 -19.760178 500.000000
0.260000 0.166657 0.290000 -21.854126 -18.668545 42.410577 500.000000
0.260000 0.090000 0.290000 -507.972664 589.331649 30.162563 500.000000
-0.260000 0.107223 0.290000 122.709015 -30.555434 16.264495 500.000000
-0.260000 0.090000 0.410000 141.486060 86.082628 -67.144146 500.000000
-0.260000 0.090000 0.410000 73.996478 75.043765 -49.304920 500.000000
0.060955 0.121745 0.410000 64.190992 -10.896148 -15.957233 500.000000
-0.260000 0.260000 0.290000 68.648465 -118.495693 15.787400 500.000000
-0.260000 0.090000 0.290000 157.701973 17.974889 16.035638 500.000000
-0.260000 0.090000 0.290000 236.845098 78.833833 18.906453 500.000000
0.148532 0.260000 0.366507 40.613776 -11.448356 15.301447 500.000000
-0.260000 0.260000 0.290000 69.148922 -118.470980 15.808620 500.000000
0.260000 0.090000 0.410000 -234.646974 35.358139 -19.886972 500.000000
0.260000 0.260000 0.290000 -1087.105076 -52.982363 53.127535 500.000000
-0.260000 0.099779 0.290000 69.554979 -32.044186 26.229552 500.000000
-0.260000 0.260000 0.410000 199.768648 -34.178882 -18.379074 500.000000
-0.170937 0.169965 0.410000 -45.833735 -18.007061 -19.922898 500.000000
-0.260000 0.260000 0.410000 86.126439 -73.455582 -22.078341 500.000000
-0.260000 0.260000 0.410000 322.396701 -43.819809 -98.481131 500.000000
-0.260000 0.260000 0.410000 28.064421 -34.603529 -78.443627 500.000000
0.260000 0.260000 0.410000 -119.819594 -50.352345 -82.713128 500.000000
0.260000 0.090000 0.410000 -344.941986 76.216910 -35.709410 500.000000
0.003783 0.090000 0.374192 52.756523 74.815402 16.838433 500.000000
0.260000 0.260000 0.290000 -71.980670 -99.984433 199.960728 500.000000
-0.260000 0.092185 0.290000 91.466078 -33.562933 26.572146 500.000000
-0.260000 0.260000 0.410000 131.350181 -28.765225 -21.933132 500.000000
0.260000 0.260000 0.410000 -102.265495 -42.566560 -117.325141 500.000000
-0.260000 0.260000 0.290000 77.136676 -120.192253 14.526354 500.000000
0.182174 0.260000 0.290000 58.426863 -26.347076 12.517991 500.000000
-0.260000 0.260000 0.290000 69.387290 -118.037420 28.069059 500.000000
-0.260000 0.260000 0.290000 71.431429 -119.236314 15.364044 500.000000
0.260000 0.260000 0.410000 -93.274749 -135.470965 -14.138589 500.000000
-0.260000 0.260000 0.410000 133.226792 -28.897220 -18.626563 500.000000
-0.260000 0.260000 0.410000 133.800726 -28.845930 -23.053011 500.000000
0.260000 0.260000 0.410000 -139.101299 -40.210436 -20.435009 500.000000
-0.260000 0.260000 0.290000 69.145244 -103.917640 52.418676 500.000000
0.190047 0.112179 0.290000 33.376541 -29.564278 21.182251 500.000000
-0.260000 0.260000 0.290000 68.831369 -118.378534 14.346999 500.000000
-0.248209 0.260000 0.290000 -101.641731 -105.439276 20.768493 500.000000
0.260000 0.105848 0.290000 -308.096665 -30.830435 16.366282 500.000000
0.260000 0.106382 0.290000 -55.104722 -30.723542 17.566722 500.000000
-0.260000 0.090000 0.410000 162.243561 51.104234 -28.471944 500.000000
0.260000 0.090000 0.290000 -57.460100 49.779141 181.522478 500.000000
-0.260000 0.260000 0.410000 141.674106 -29.562815 -79.055788 500.000000
-0.260000 0.090000 0.410000 165.786251 51.096265 -28.061361 500.000000
-0.260000 0.260000 0.410000 132.531356 -28.621614 -18.512419 500.000000
-0.260000 0.097455 0.290000 70.724383 -32.508985 26.257187 500.000000
-0.260000 0.260000 0.410000 134.600217 -29.709008 -18.468635 500.000000
0.260000 0.098884 0.290000 -248.803000 -32.223111 26.108741 500.000000
-0.260000 0.105848 0.290000 381.997025 -30.830332 16.340527 500.000000
0.260000 0.099922 0.290000 -405.654825 -32.015627 16.304544 500.000000
0.260000 0.090000 0.290000 -141.090005 183.511761 63.687776 500.000000
0.228742 0.125656 0.290000 43.168619 -26.868801 19.293217 500.000000
-0.260000 0.260000 0.290000 132.600543 -105.617475 53.840886 500.000000
0.260000 0.260000 0.410000 -117.095141 -43.983550 -49.577210 500.000000
-0.260000 0.260000 0.410000 103.966429 -122.379893 -14.867642 500.000000
0.260000 0.090000 0.290000 -32.521747 38.386150 242.389809 500.000000
-0.260000 0.260000 0.410000 169.361743 -37.919351 -149.692897 500.000000
0.260000 0.260000 0.290000 -109.672247 -99.838734 136.738033 500.000000
0.260000 0.209822 0.410000 -109.758343 23.964484 -20.535443 500.000000
-0.260000 0.260000 0.290000 68.862324 -118.171389 14.350411 500.000000
-0.260000 0.260000 0.410000 86.088817 -91.425205 -24.213821 500.000000
0.260000 0.090000 0.290000 -118.767329 57.605920 16.675779 500.000000
0.014097 0.260000 0.290000 54.819492 -87.377267 33.733281 500.000000
-0.260000 0.090000 0.410000 27.233834 71.805100 -63.202384 500.000000
-0.260000 0.260000 0.410000 86.451403 -78.475244 -25.299248 500.000000
-0.260000 0.260000 0.410000 105.845528 -64.270916 -16.816081 500.000000
