ply
format ascii 1.0
element vertex 240
property float x
property float y
property float z
property float vx
property float vy
property float vz
property float density
end_header
0.260000 0.260000 0.410000 -80.560280 -20.056704 -67.927611 500.000000
-0.260000 0.122632 0.410000 56.034038 -27.473602 -25.420689 500.000000
-0.260000 0.260000 0.290000 160.691482 -242.843436 38.795629 500.000000
-0.260000 0.090000 0.318819 53.090170 199.178443 -18.236172 500.000000
-0.217740 0.123258 0.292107 -95.548063 -27.348326 -23.578677 500.000000
-0.260000 0.260000 0.290000 60.636779 -228.968039 373.296031 500.000000
0.037620 0.260000 0.344757 -0.402776 -18.145702 10.951357 500.000000
-0.260000 0.260000 0.290000 102.524775 -301.548587 46.934778 500.000000
0.260000 0.260000 0.290000 -73.806293 -21.165472 53.055995 500.000000
-0.260000 0.090000 0.290000 60.570575 318.406906 24.939586 500.000000
-0.260000 0.260000 0.290000 61.411198 -64.082079 47.862118 500.000000
0.260000 0.090000 0.410000 -84.722042 37.262573 -74.989693 500.000000
-0.260000 0.260000 0.290000 61.450933 -64.164077 47.480657 500.000000
0.260000 0.097864 0.410000 -124.674530 -32.427230 -68.360469 500.000000
-0.260000 0.260000 0.290000 61.602144 -64.223769 47.861201 500.000000
-0.141092 0.260000 0.410000 -31.465296 -30.032072 -43.010434 500.000000
-0.260000 0.260000 0.290000 66.134505 -60.791164 47.022031 500.000000
0.260000 0.090000 0.335706 -19.074591 63.241349 -14.858730 500.000000
0.260000 0.090000 0.410000 -176.585356 17.805763 -69.028218 500.000000
0.157335 0.090000 0.410000 83.467026 42.491506 -173.425054 500.000000
0.260000 0.207640 0.410000 -71.185047 23.527993 -71.840577 500.000000
0.260000 0.260000 0.410000 -637.982519 -49.021591 -61.878519 500.000000
0.260000 0.260000 0.290000 -107.381442 -379.072528 51.299980 500.000000
0.260000 0.260000 0.290000 -108.016002 -310.016993 48.086950 500.000000
-0.260000 0.090000 0.290000 55.125057 433.350647 382.321256 500.000000
-0.260000 0.090000 0.410000 258.567047 33.437482 -37.763386 500.000000
-0.260000 0.260000 0.410000 69.886597 -162.865436 -237.520160 500.000000
-0.260000 0.260000 0.290000 61.565404 -64.156501 47.489135 500.000000
0.260000 0.260000 0.290000 -64.363398 -49.724203 57.546368 500.000000
-0.088773 0.090000 0.410000 -10.221964 23.390593 -57.320154 500.000000
0.260000 0.097032 0.410000 -156.534903 -32.593674 -68.422396 500.000000
-0.260000 0.260000 0.290000 100.373422 -81.055010 41.688041 500.000000
-0.260000 0.090000 0.410000 106.156329 29.680399 -24.819075 500.000000
-0.260000 0.090000 0.410000 58.637994 479.292748 -102.432778 500.000000
0.196644 0.184744 0.290000 91.328741 18.948841 50.133209 500.000000
-0.060777 0.095154 0.410000 -64.155379 -32.969145 -18.272979 500.000000
-0.260000 0.090000 0.410000 58.838564 20.583919 -24.458080 500.000000
-0.037763 0.260000 0.290000 -7.649950 -21.560639 24.044903 500.000000
-0.260000 0.260000 0.290000 61.513128 -64.231182 47.844886 500.000000
0.260000 0.260000 0.290000 -53.844213 -27.184678 309.163281 500.000000
-0.260000 0.260000 0.290000 61.541741 -64.118736 47.486046 500.000000
-0.260000 0.090000 0.410000 275.535691 33.538212 -36.531212 500.000000
-0.260000 0.260000 0.290000 53.591078 -58.491313 85.242300 500.000000
-0.260000 0.260000 0.290000 66.176269 -108.027393 229.985888 500.000000
-0.260000 0.260000 0.410000 134.910435 -161.657844 -244.939952 500.000000
-0.260000 0.260000 0.410000 57.259669 -223.672628 -229.911698 500.000000
-0.260000 0.090000 0.290000 251.464945 35.511384 55.019063 500.000000
0.260000 0.194163 0.290000 -54.523118 20.832619 49.365811 500.000000
-0.260000 0.260000 0.410000 62.695582 -168.751120 -230.983436 500.000000
0.260000 0.090000 0.410000 -81.260898 34.807295 -74.277583 500.000000
-0.260000 0.132166 0.384378 63.825605 8.433182 18.875658 500.000000
-0.092520 0.260000 0.290000 -70.504051 -116.543421 32.480956 500.000000
0.260000 0.260000 0.290000 -1672.444037 -145.626771 28.364794 500.000000
-0.260000 0.122311 0.410000 55.827920 -27.537864 -25.629890 500.000000
0.003808 0.166427 0.410000 -51.238345 -18.714643 -17.615396 500.000000
-0.260000 0.260000 0.290000 62.527295 -69.535689 47.543888 500.000000
-0.260000 0.260000 0.290000 61.549239 -64.443172 47.476056 500.000000
-0.260000 0.090000 0.290000 57.843598 270.490896 54.001234 500.000000
-0.260000 0.260000 0.347942 59.899315 -272.749710 -12.411632 500.000000
-0.260000 0.260000 0.290000 207.846384 -128.388535 35.847225 500.000000
-0.260000 0.260000 0.290000 62.035418 -64.516936 48.181546 500.000000
0.027680 0.236332 0.290000 -4.370357 14.631372 28.393381 500.000000
0.260000 0.260000 0.410000 -74.231606 -17.343415 -76.484116 500.000000
0.260000 0.260000 0.290000 -158.865384 -63.936496 48.552304 500.000000
-0.260000 0.260000 0.290000 57.542591 -146.820842 282.873549 500.000000
0.260000 0.090000 0.410000 -319.597717 113.729652 -301.508465 500.000000
-0.067644 0.139938 0.355920 38.471246 -4.861245 13.183901 500.000000
-0.260000 0.090000 0.290000 195.187809 207.233625 14.848180 500.000000
0.260000 0.090000 0.410000 -27.300052 29.332687 -23.165420 500.000000
0.260000 0.260000 0.410000 -126.931182 -138.998111 -204.074946 500.000000
0.260000 0.090000 0.290000 -168.277160 41.625994 51.048643 500.000000
-0.260000 0.090000 0.410000 80.146730 29.349950 -24.319055 500.000000
-0.260000 0.090000 0.290000 71.713955 1896.689232 58.371091 500.000000
0.219224 0.090000 0.410000 20.425893 30.628865 -12.213897 500.000000
-0.260000 0.119671 0.410000 60.403974 -28.065846 -24.852777 500.000000
-0.129545 0.260000 0.410000 -46.237428 -35.739677 -44.635072 500.000000
-0.260000 0.260000 0.290000 60.521660 -60.541612 54.892095 500.000000
-0.260000 0.260000 0.290000 61.581186 -64.233863 47.839701 500.000000
-0.260000 0.260000 0.290000 60.106286 -58.652323 67.985441 500.000000
-0.260000 0.260000 0.290000 148.616299 -304.019434 38.975535 500.000000
-0.260000 0.260000 0.290000 62.800224 -53.943110 46.383314 500.000000
-0.260000 0.122214 0.410000 55.584241 -27.557118 -25.447760 500.000000
0.260000 0.260000 0.410000 -58.459228 -18.747082 -57.337946 500.000000
0.260000 0.260000 0.290000 -65.470601 -229.178022 48.028656 500.000000
-0.260000 0.090000 0.410000 54.582217 202.615055 -14.065533 500.000000
-0.260000 0.260000 0.290000 63.341509 -85.488312 47.747926 500.000000
-0.260000 0.090000 0.299454 76.732563 285.063858 -22.109144 500.000000
-0.260000 0.090000 0.410000 55.502896 64.669214 -23.107447 500.000000
-0.260000 0.122274 0.410000 56.160057 -27.545202 -25.611311 500.000000
-0.260000 0.260000 0.290000 61.386505 -64.236689 47.876754 500.000000
-0.260000 0.260000 0.290000 61.829899 -64.279316 47.843476 500.000000
0.260000 0.260000 0.290000 -144.423082 -25.815017 48.516289 500.000000
-0.260000 0.260000 0.410000 60.219236 -161.510856 -243.243299 500.000000
0.260000 0.260000 0.410000 -67.836386 -32.162120 -907.478809 500.000000
0.260000 0.260000 0.290000 -73.130498 -24.958893 66.061753 500.000000
0.260000 0.260000 0.410000 -133.806247 -20.421587 -68.128760 500.000000
-0.260000 0.090000 0.290000 55.725532 443.395192 267.269264 500.000000
-0.141471 0.260000 0.410000 -23.425120 -14.950990 -27.886487 500.000000
-0.260000 0.260000 0.410000 62.186055 -188.078987 -357.002195 500.000000
-0.260000 0.260000 0.290000 61.450870 -64.204699 47.840733 500.000000
-0.020009 0.260000 0.290000 -29.332556 -23.410193 13.933026 500.000000
0.260000 0.260000 0.290000 -66.898348 -24.985281 50.190906 500.000000
-0.260000 0.260000 0.410000 73.775113 -160.733906 -246.271666 500.000000
-0.260000 0.260000 0.290000 117.834804 -203.209878 38.709704 500.000000
0.260000 0.214783 0.341276 -57.579700 -9.043352 -13.744769 500.000000
-0.260000 0.260000 0.290000 61.500626 -64.118275 47.488880 500.000000
0.011980 0.090000 0.410000 -26.512977 76.095609 -14.806269 500.000000
-0.159949 0.090000 0.322194 -83.989834 285.341177 -17.561121 500.000000
-0.260000 0.260000 0.290000 61.395840 -64.236594 47.855433 500.000000
-0.260000 0.260000 0.290000 222.223462 -143.267785 37.885998 500.000000
0.260000 0.260000 0.290000 -64.064099 -21.607839 65.664746 500.000000
-0.260000 0.260000 0.290000 73.915299 -64.254757 52.479536 500.000000
-0.260000 0.189613 0.410000 24.964417 19.922595 -9.063955 500.000000
-0.260000 0.090000 0.410000 63.325068 28.507082 -24.104613 500.000000
-0.260000 0.090000 0.311007 62.581076 285.725308 -19.798681 500.000000
-0.179017 0.090000 0.290000 -87.803475 570.767241 15.840164 500.000000
-0.241772 0.090000 0.318503 -100.354427 285.788629 -18.299455 500.000000
-0.260000 0.260000 0.290000 734.054536 -19.139562 39.268719 500.000000
0.144416 0.090000 0.290000 35.481228 95.832037 14.879707 500.000000
0.260000 0.260000 0.290000 -64.674774 -25.226629 51.267569 500.000000
-0.260000 0.260000 0.290000 175.982991 -430.762087 39.586909 500.000000
0.260000 0.260000 0.290000 -88.851565 -140.373221 48.613542 500.000000
0.260000 0.260000 0.410000 -316.626169 -27.409255 -71.121622 500.000000
0.260000 0.260000 0.290000 -87.181485 -185.601143 48.037966 500.000000
0.260000 0.260000 0.290000 -71.314252 -24.975152 55.204877 500.000000
-0.260000 0.260000 0.410000 98.581053 -162.330516 -234.793536 500.000000
-0.260000 0.260000 0.410000 63.027315 -162.994283 -229.435722 500.000000
-0.260000 0.260000 0.290000 74.174298 -61.454017 57.428664 500.000000
-0.260000 0.260000 0.410000 19.624293 -12.262937 -20.658989 500.000000
-0.225065 0.260000 0.290000 -97.013024 -60.158295 88.710831 500.000000
-0.146215 0.128475 0.290000 -81.243028 -26.305009 93.392201 500.000000
0.214744 0.260000 0.410000 46.931830 -13.041770 -38.250734 500.000000
-0.260000 0.090000 0.290000 77.654383 284.376116 16.507986 500.000000
0.260000 0.090000 0.290000 -69.396483 245.237099 51.411378 500.000000
0.260000 0.205522 0.410000 -132.210776 23.104312 -93.272137 500.000000
-0.260000 0.260000 0.290000 69.116969 -64.916357 47.396020 500.000000
-0.260000 0.260000 0.290000 66.257148 -61.894682 48.173050 500.000000
0.260000 0.090000 0.290000 -174.288069 39.112191 51.740674 500.000000
0.008992 0.090000 0.410000 -50.201570 20.833478 -23.843359 500.000000
-0.073480 0.090000 0.290000 -19.918073 191.059666 25.896152 500.000000
-0.260000 0.260000 0.410000 94.927445 -161.725850 -247.519015 500.000000
-0.227853 0.090000 0.290000 -97.570548 592.222024 15.851411 500.000000
-0.260000 0.090000 0.410000 210.209880 51.665027 -26.558600 500.000000
-0.260000 0.090000 0.410000 58.135876 20.823164 -26.752219 500.000000
-0.260000 0.260000 0.290000 218.087646 -53.808916 36.750870 500.000000
0.260000 0.260000 0.290000 -75.347512 -31.536744 311.764445 500.000000
0.260000 0.090000 0.410000 -82.704680 38.299898 -75.248962 500.000000
0.260000 0.090000 0.290000 -56.645349 111.171593 58.041849 500.000000
0.260000 0.090000 0.410000 -35.713909 17.716446 -568.372255 500.000000
-0.260000 0.260000 0.290000 54.033131 -56.366153 45.358396 500.000000
0.260000 0.090000 0.290000 -102.930855 364.021041 58.560717 500.000000
0.260000 0.090000 0.290000 -129.706569 211.005130 80.127031 500.000000
-0.025941 0.260000 0.410000 46.811763 -10.736401 -9.103815 500.000000
-0.260000 0.260000 0.290000 54.742025 -44.106124 77.072912 500.000000
-0.260000 0.260000 0.290000 72.289997 -65.763405 37.887816 500.000000
0.260000 0.260000 0.290000 -64.195882 -27.756747 64.403052 500.000000
0.260000 0.090000 0.410000 -107.234927 23.949901 -105.584543 500.000000
-0.260000 0.260000 0.410000 53.733156 -160.624564 -242.834273 500.000000
-0.260000 0.090000 0.290000 55.344473 233.516723 288.916031 500.000000
-0.260000 0.090000 0.410000 63.660814 29.838139 -23.862956 500.000000
-0.213903 0.090000 0.292218 -94.780580 56.633911 -23.556440 500.000000
-0.156714 0.090000 0.290000 -83.342893 287.902753 12.693392 500.000000
0.260000 0.260000 0.290000 -154.774529 -106.800530 48.316464 500.000000
-0.260000 0.260000 0.410000 176.537263 -307.118086 -343.378701 500.000000
0.260000 0.090000 0.290000 -72.741202 85.903016 303.059243 500.000000
-0.260000 0.090000 0.410000 35.803532 206.998864 -11.484965 500.000000
0.119102 0.260000 0.410000 11.698743 -77.596882 -13.338756 500.000000
-0.260000 0.260000 0.290000 95.666223 -369.351149 38.912628 500.000000
-0.260000 0.162684 0.410000 37.075821 7.267446 -34.807879 500.000000
0.260000 0.260000 0.290000 -69.101510 -243.097779 45.521431 500.000000
0.260000 0.211559 0.410000 -69.368709 24.311743 -84.977259 500.000000
-0.066868 0.090000 0.410000 -65.373668 59.650355 -21.213639 500.000000
-0.260000 0.260000 0.290000 61.535734 -64.340629 47.412190 500.000000
0.260000 0.120894 0.410000 -140.160129 -27.821266 -67.046505 500.000000
0.260000 0.260000 0.303906 -19.709227 -38.802221 -21.218811 500.000000
0.260000 0.090000 0.290000 -163.643506 351.192980 51.786971 500.000000
-0.260000 0.260000 0.290000 73.272825 -395.760127 39.342652 500.000000
-0.242608 0.090000 0.410000 -100.521528 22.515839 -35.249937 500.000000
0.260000 0.090000 0.410000 -230.359582 19.758030 -20.641373 500.000000
0.033945 0.260000 0.290000 -45.210928 -181.733403 331.953732 500.000000
-0.260000 0.260000 0.290000 61.386895 -64.266272 47.839705 500.000000
-0.260000 0.090000 0.322386 65.525867 284.537812 -17.522721 500.000000
-0.260000 0.090000 0.315214 85.297930 299.742000 -18.957133 500.000000
0.020138 0.260000 0.382888 -47.972398 -36.708244 -5.422409 500.000000
-0.260000 0.260000 0.290000 61.511940 -64.260097 47.845007 500.000000
0.260000 0.119921 0.410000 -124.013328 -28.015742 -67.078186 500.000000
0.260000 0.222400 0.290000 -322.524151 26.480086 56.042828 500.000000
-0.260000 0.260000 0.290000 64.419877 -142.033681 39.579219 500.000000
-0.260000 0.260000 0.290000 76.093985 -212.467791 270.131740 500.000000
0.002493 0.195598 0.290000 52.498541 21.119525 296.455693 500.000000
-0.260000 0.260000 0.290000 58.505417 -210.477258 448.556832 500.000000
-0.260000 0.260000 0.410000 120.439238 -162.818436 -247.706757 500.000000
0.260000 0.260000 0.410000 -543.900873 -93.421206 -125.647263 500.000000
0.260000 0.260000 0.410000 -71.256687 -19.789953 -85.212545 500.000000
0.260000 0.090000 0.410000 -151.571684 24.216860 -71.031586 500.000000
-0.015706 0.090000 0.290000 -55.141204 18.744291 121.789429 500.000000
0.260000 0.260000 0.290000 -68.882405 -24.984108 92.730969 500.000000
-0.260000 0.260000 0.290000 72.819720 -108.592697 37.902207 500.000000
-0.260000 0.090000 0.410000 58.899590 369.389457 -81.011091 500.000000
-0.260000 0.260000 0.410000 428.218207 -17.804318 -90.413226 500.000000
-0.260000 0.260000 0.290000 63.507772 -64.690177 47.524618 500.000000
-0.260000 0.090000 0.290000 79.560410 125.100853 74.558686 500.000000
-0.260000 0.260000 0.290000 61.571499 -64.151767 50.908418 500.000000
-0.260000 0.260000 0.290000 62.082250 -64.451325 47.733924 500.000000
-0.260000 0.260000 0.410000 75.862764 -40.830542 -44.488120 500.000000
-0.260000 0.090000 0.290000 55.929652 158.009815 215.967644 500.000000
-0.260000 0.090000 0.410000 60.429036 415.681947 -217.474457 500.000000
0.260000 0.260000 0.410000 -76.074424 -17.255890 -69.651699 500.000000
-0.260000 0.260000 0.290000 61.511021 -60.623778 56.992450 500.000000
-0.187671 0.260000 0.290000 -89.534257 -40.760360 33.987795 500.000000
-0.260000 0.260000 0.290000 61.432596 -64.236999 47.479804 500.000000
0.260000 0.260000 0.290000 -600.655141 -28.433590 56.513141 500.000000
0.260000 0.260000 0.290000 -108.050362 -141.939268 48.032512 500.000000
-0.260000 0.260000 0.337897 17.061331 -353.520072 -14.420668 500.000000
-0.260000 0.122241 0.410000 55.447395 -27.551728 -25.586998 500.000000
-0.260000 0.090000 0.290000 28.982872 196.819251 47.999222 500.000000
-0.260000 0.090000 0.410000 64.529921 379.553745 -326.671857 500.000000
-0.260000 0.122261 0.410000 56.332600 -27.547745 -25.484407 500.000000
-0.260000 0.090000 0.290000 55.334745 329.017499 241.041965 500.000000
-0.260000 0.260000 0.290000 65.899098 -128.347360 38.993683 500.000000
-0.260000 0.090000 0.290000 56.961849 37.159581 306.427282 500.000000
0.260000 0.230816 0.290000 -91.756096 28.163242 50.812177 500.000000
-0.260000 0.260000 0.290000 138.876388 -304.026603 38.904811 500.000000
0.260000 0.260000 0.290000 -131.152033 -44.210886 48.321418 500.000000
0.260000 0.090000 0.290000 -71.983457 249.805057 60.162736 500.000000
-0.260000 0.260000 0.410000 127.109522 -91.766797 -1458.006943 500.000000
-0.260000 0.260000 0.290000 77.366056 -61.048501 57.347805 500.000000
0.260000 0.260000 0.410000 -70.575953 -18.198643 -76.933186 500.000000
-0.204348 0.260000 0.290000 -92.869659 -152.337385 349.533391 500.000000
-0.260000 0.090000 0.290000 42.929719 193.972778 63.200088 500.000000
-0.260000 0.260000 0.410000 82.205255 -161.344276 -260.501413 500.000000
0.260000 0.260000 0.290000 -78.300125 -24.947703 76.933974 500.000000
0.260000 0.090000 0.290000 -80.667632 79.154001 421.804064 500.000000
-0.260000 0.260000 0.290000 61.440330 -64.185241 47.480656 500.000000
-0.260000 0.260000 0.410000 61.400495 -174.712084 -229.151943 500.000000
0.260000 0.090000 0.290000 -66.406477 218.349399 48.417504 500.000000
-0.229577 0.260000 0.290000 -97.915336 -59.829719 39.218341 500.000000
0.003537 0.090000 0.410000 3.984097 24.596728 -22.004254 500.000000
-0.260000 0.260000 0.410000 61.491083 -171.476689 -229.423125 500.000000
-0.234899 0.260000 0.290000 -98.979785 -188.496915 248.920195 500.000000
