ply
format ascii 1.0
element vertex 240
property float x
property float y
property float z
property float vx
property float vy
property float vz
property float density
end_header
0.063396 0.158967 0.325306 13.592647 -20.206505 -4.855233 500.000000
0.259768 0.260000 0.290000 103.953653 -683.093958 40.445616 500.000000
0.150153 0.260000 0.290000 82.030598 -69.145943 41.519813 500.000000
0.260000 0.090000 0.290000 -55.903440 67.014230 660.986830 500.000000
0.260000 0.090000 0.290000 -64.529819 90.959520 30.082233 500.000000
0.260000 0.158243 0.290000 -84.854162 -20.351442 22.312142 500.000000
0.260000 0.260000 0.290000 -101.735895 -111.983919 16.114015 500.000000
0.260000 0.260000 0.410000 -120.836638 -58.751512 -41.326487 500.000000
-0.260000 0.090000 0.290000 142.586617 32.162954 170.015854 500.000000
-0.260000 0.090000 0.290000 184.113229 109.765454 70.309430 500.000000
0.122960 0.090000 0.410000 76.591911 39.641659 -47.625987 500.000000
-0.260000 0.090000 0.290000 142.853464 57.658382 466.297893 500.000000
-0.179332 0.260000 0.334735 16.133582 -57.806646 -15.053092 500.000000
-0.196936 0.260000 0.410000 -91.387113 -36.656004 -120.406165 500.000000
-0.175148 0.260000 0.410000 -87.029569 -69.480965 -16.215794 500.000000
0.260000 0.260000 0.290000 -29.906944 -28.935761 36.112573 500.000000
-0.164772 0.260000 0.410000 -84.954381 -61.933378 -16.837640 500.000000
-0.260000 0.090000 0.290000 163.645513 178.243419 70.266988 500.000000
-0.260000 0.090000 0.290000 152.834901 32.384406 111.308363 500.000000
0.260000 0.090000 0.410000 -765.146743 59.792305 -71.479196 500.000000
0.260000 0.090000 0.290000 -144.588385 377.692613 42.406881 500.000000
-0.260000 0.090000 0.290000 131.785241 32.488092 57.120574 500.000000
0.065447 0.260000 0.316142 10.979983 -44.080170 -18.771518 500.000000
0.210465 0.090000 0.290000 94.092989 85.898007 27.887097 500.000000
-0.260000 0.260000 0.290000 84.711006 -39.358072 58.452051 500.000000
-0.260000 0.090000 0.290000 371.537081 17.803379 39.916347 500.000000
-0.260000 0.226731 0.290000 89.045416 27.346138 35.902555 500.000000
0.260000 0.260000 0.290000 -22.512081 -29.601003 34.655242 500.000000
0.260000 0.090000 0.290000 -844.467014 48.714008 16.087615 500.000000
0.260000 0.090000 0.290000 -60.503995 83.731219 31.614557 500.000000
-0.260000 0.260000 0.410000 112.925791 -82.487394 -57.690655 500.000000
-0.260000 0.090000 0.290000 149.027990 30.873329 72.741647 500.000000
-0.260000 0.090000 0.410000 54.772914 20.056961 -42.128452 500.000000
0.260000 0.260000 0.290000 -116.101242 -112.245390 26.312420 500.000000
-0.166646 0.260000 0.410000 -85.329254 -62.294680 -16.026323 500.000000
0.260000 0.260000 0.382946 -36.803560 -70.802151 18.589147 500.000000
0.180593 0.090000 0.410000 88.118568 26.585278 -47.697262 500.000000
-0.260000 0.260000 0.290000 85.447317 -41.061367 55.094865 500.000000
0.260000 0.260000 0.290000 -106.869114 -102.763707 20.704182 500.000000
-0.260000 0.090000 0.290000 153.026147 78.216647 70.647579 500.000000
0.260000 0.260000 0.376755 -44.723627 -72.887553 17.351042 500.000000
-0.260000 0.090000 0.290000 324.668838 110.767242 70.175573 500.000000
-0.161749 0.260000 0.410000 -84.349809 -62.690758 -16.309750 500.000000
0.260000 0.090000 0.340926 -40.520320 24.564701 -13.814793 500.000000
0.260000 0.090000 0.410000 -841.131913 21.858513 -70.550917 500.000000
0.260000 0.260000 0.410000 -188.724725 -79.956649 -65.958044 500.000000
-0.119948 0.257356 0.290000 28.010439 33.471298 37.303330 500.000000
0.260000 0.090000 0.410000 -55.914660 192.760219 -33.984147 500.000000
-0.260000 0.122350 0.410000 148.255259 -27.529969 -41.379807 500.000000
-0.260000 0.090000 0.290000 164.395487 30.203848 59.642297 500.000000
0.260000 0.260000 0.290000 -105.700822 -113.881716 27.034350 500.000000
0.180208 0.090000 0.410000 88.041557 26.618008 -47.090396 500.000000
-0.260000 0.140680 0.410000 164.454669 -23.864087 -38.794698 500.000000
0.260000 0.090000 0.290000 -148.624636 271.483728 79.889731 500.000000
-0.260000 0.090000 0.290000 155.180676 30.013395 70.925770 500.000000
0.260000 0.093351 0.410000 -124.313451 -33.329810 -65.305852 500.000000
-0.260000 0.090000 0.290000 139.368286 249.400667 70.304228 500.000000
-0.260000 0.260000 0.290000 133.074811 -37.063309 21.282054 500.000000
0.260000 0.156425 0.290000 -66.868235 -20.715018 23.354532 500.000000
-0.260000 0.260000 0.290000 364.095645 -112.207105 37.509835 500.000000
0.260000 0.260000 0.290000 -115.239163 -122.956656 50.128610 500.000000
-0.260000 0.090000 0.290000 35.427619 22.822197 21.531659 500.000000
-0.260000 0.128134 0.290000 60.411330 -26.373114 36.593837 500.000000
0.187501 0.090000 0.410000 89.500174 26.833479 -47.388537 500.000000
-0.260000 0.260000 0.410000 105.232348 -163.097195 -31.638520 500.000000
0.260000 0.150561 0.290000 -67.394297 -21.887815 39.605563 500.000000
0.260000 0.260000 0.410000 -213.940543 -59.744434 -46.356085 500.000000
-0.260000 0.090000 0.410000 177.281754 27.375670 -26.734178 500.000000
-0.260000 0.090000 0.301500 26.305988 47.282318 -21.700051 500.000000
-0.260000 0.090000 0.410000 156.194278 91.008510 -19.860550 500.000000
-0.215757 0.177225 0.410000 -56.362584 -16.554938 -15.651247 500.000000
0.260000 0.090000 0.290000 -47.521740 205.409346 12.056182 500.000000
-0.260000 0.260000 0.410000 51.490467 -26.458420 -69.318202 500.000000
-0.260000 0.090000 0.410000 114.578086 48.703272 -69.830815 500.000000
0.260000 0.090000 0.290000 -147.818577 241.151611 29.272384 500.000000
0.260000 0.260000 0.290000 -106.677230 -137.995414 88.840214 500.000000
-0.260000 0.154708 0.290000 15.290206 -21.058346 95.255141 500.000000
-0.260000 0.090000 0.410000 43.412025 39.921813 -79.410125 500.000000
-0.169165 0.260000 0.410000 -85.833061 -61.371458 -16.217245 500.000000
-0.260000 0.164858 0.290000 36.231174 -19.028398 13.464989 500.000000
0.260000 0.260000 0.290000 -105.780449 -103.612047 27.003332 500.000000
-0.260000 0.090000 0.410000 155.981933 37.035020 -18.056315 500.000000
-0.260000 0.090000 0.410000 149.361279 33.438969 -73.815945 500.000000
-0.260000 0.090000 0.410000 152.559826 41.067706 -18.756277 500.000000
-0.260000 0.090000 0.290000 374.403732 96.850091 69.877621 500.000000
-0.260000 0.090000 0.410000 154.632746 345.776963 -22.863261 500.000000
0.260000 0.090000 0.290000 -54.612852 86.788781 31.240149 500.000000
0.250895 0.090000 0.410000 102.179068 23.181072 -55.354258 500.000000
0.260000 0.090000 0.290000 -136.584046 86.373634 69.848248 500.000000
0.260000 0.260000 0.290000 -75.436572 -18.497798 39.001639 500.000000
0.104736 0.090000 0.410000 72.947180 18.507926 -56.433107 500.000000
0.260000 0.090000 0.410000 -157.590546 88.394423 -49.529489 500.000000
-0.260000 0.260000 0.290000 323.550031 -116.234409 39.537232 500.000000
0.260000 0.090000 0.410000 -27.739527 25.636057 -261.260523 500.000000
-0.260000 0.260000 0.336234 59.234063 -50.011711 -14.753167 500.000000
-0.260000 0.260000 0.290000 236.443912 -229.506909 54.278324 500.000000
-0.260000 0.090000 0.290000 314.559801 214.471404 69.701128 500.000000
-0.260000 0.090000 0.290000 169.981710 104.942931 83.204364 500.000000
-0.260000 0.260000 0.290000 91.268099 -56.929495 34.145833 500.000000
-0.260000 0.090000 0.290000 25.460074 14.898470 33.108833 500.000000
0.260000 0.090000 0.290000 -83.275718 42.160914 17.039997 500.000000
0.260000 0.090000 0.290000 -154.479588 19.846851 27.115553 500.000000
0.260000 0.260000 0.290000 -105.158421 -113.039637 28.476098 500.000000
-0.260000 0.090000 0.410000 149.430443 19.793460 -74.960840 500.000000
-0.260000 0.260000 0.410000 184.074681 -159.960128 -61.704243 500.000000
-0.260000 0.116368 0.410000 162.514456 -28.726373 -28.481743 500.000000
0.075422 0.260000 0.290000 1.036778 -35.342728 68.604269 500.000000
0.195058 0.090000 0.410000 91.011592 43.004057 -46.764324 500.000000
-0.260000 0.090000 0.410000 55.660386 62.783711 -110.202435 500.000000
-0.260000 0.090000 0.410000 186.724994 21.150284 -32.881138 500.000000
-0.260000 0.260000 0.290000 108.027720 -28.033384 57.182149 500.000000
-0.260000 0.090000 0.410000 194.512338 18.887942 -32.498972 500.000000
0.260000 0.260000 0.290000 -113.950695 -109.677311 40.536233 500.000000
-0.207925 0.090000 0.290000 -33.134449 9.753168 15.814542 500.000000
-0.260000 0.090000 0.290000 143.475808 32.232857 149.822826 500.000000
0.260000 0.260000 0.290000 -106.499920 -148.818715 110.212930 500.000000
0.243093 0.090000 0.290000 100.618565 86.562550 29.777373 500.000000
-0.260000 0.125050 0.410000 171.939958 -26.989953 -41.643468 500.000000
0.260000 0.260000 0.290000 -106.976199 -127.118222 67.190407 500.000000
0.260000 0.260000 0.410000 -112.908079 -70.152431 -97.517322 500.000000
-0.260000 0.115291 0.290000 25.374124 -28.941795 14.582292 500.000000
0.164192 0.090000 0.410000 84.838316 26.098632 -47.390267 500.000000
-0.260000 0.260000 0.290000 15.119916 -23.917012 35.342527 500.000000
0.260000 0.090000 0.290000 -75.667658 85.033825 29.562306 500.000000
-0.260000 0.090000 0.410000 147.555612 50.535513 -71.688365 500.000000
-0.260000 0.260000 0.290000 335.942931 -112.473467 38.221434 500.000000
0.260000 0.260000 0.290000 -113.289649 -122.473148 18.929942 500.000000
0.260000 0.090000 0.290000 -63.497598 83.781984 26.404147 500.000000
0.260000 0.090000 0.290000 -470.635323 31.589702 12.169071 500.000000
0.260000 0.133305 0.290000 -106.611969 -25.338983 25.270340 500.000000
-0.260000 0.260000 0.290000 298.291851 -37.315984 35.562064 500.000000
-0.248347 0.260000 0.410000 -101.669366 -62.432739 -42.645947 500.000000
-0.260000 0.090000 0.410000 194.580773 19.337875 -52.043861 500.000000
-0.172030 0.260000 0.410000 -86.406045 -71.725547 -16.247904 500.000000
0.260000 0.119193 0.290000 -91.854266 -28.161333 78.567197 500.000000
-0.260000 0.090000 0.410000 44.992045 22.887115 -28.469363 500.000000
0.260000 0.260000 0.290000 -111.998007 -111.620466 38.246008 500.000000
0.260000 0.199936 0.290000 -432.378676 21.987223 19.915559 500.000000
-0.260000 0.260000 0.290000 83.831023 -83.275242 59.549081 500.000000
-0.260000 0.090000 0.290000 153.082514 39.120764 58.374474 500.000000
0.260000 0.260000 0.290000 -103.658214 -108.724988 16.545569 500.000000
0.032639 0.260000 0.290000 58.527743 -23.980002 44.821546 500.000000
0.260000 0.260000 0.290000 -107.269617 -116.270527 45.606958 500.000000
0.260000 0.090000 0.290000 -41.158978 37.855329 12.575533 500.000000
0.260000 0.260000 0.290000 -107.505224 -105.540228 24.613992 500.000000
0.260000 0.260000 0.410000 -130.107217 -58.836630 -41.931393 500.000000
0.260000 0.129743 0.410000 -18.669517 -26.051305 -46.292575 500.000000
0.130713 0.090000 0.410000 78.142522 31.424750 -47.287907 500.000000
0.067265 0.260000 0.410000 65.452979 -24.713308 -85.508149 500.000000
0.124029 0.228223 0.410000 -27.194251 27.644614 -114.649624 500.000000
0.260000 0.260000 0.290000 -105.503011 -108.687457 27.434637 500.000000
0.093797 0.245498 0.290000 70.759318 31.099578 52.276914 500.000000
0.260000 0.153501 0.343645 -104.210064 -21.299836 -13.270985 500.000000
-0.260000 0.090000 0.410000 141.220455 22.170949 -72.400814 500.000000
0.260000 0.118819 0.290000 -178.007422 -28.236163 39.860334 500.000000
-0.260000 0.135142 0.410000 149.280599 -24.971687 -45.519355 500.000000
-0.260000 0.090000 0.410000 199.673387 24.317501 -33.930552 500.000000
0.122062 0.260000 0.410000 35.784609 -40.962963 -11.561836 500.000000
-0.260000 0.090000 0.410000 174.556101 29.003837 -1095.111823 500.000000
-0.229396 0.130993 0.290000 -73.027325 -25.801416 17.277951 500.000000
-0.260000 0.090000 0.410000 30.730666 19.456415 -30.803608 500.000000
0.260000 0.198295 0.318289 -36.192004 -12.340926 -18.342122 500.000000
0.260000 0.090000 0.410000 -519.237233 18.071121 -82.703891 500.000000
-0.260000 0.090000 0.410000 58.420852 18.804990 -54.164646 500.000000
-0.260000 0.090000 0.410000 60.229023 75.302853 -127.919853 500.000000
0.260000 0.231682 0.290000 -102.217317 28.336325 103.856939 500.000000
-0.162320 0.260000 0.410000 -84.464097 -62.290516 -16.215047 500.000000
-0.260000 0.090000 0.290000 19.971510 19.670402 6.633350 500.000000
0.176113 0.112850 0.410000 87.222528 -29.430010 -133.822465 500.000000
-0.176592 0.260000 0.410000 -87.318447 -63.602893 -16.221819 500.000000
0.260000 0.090000 0.410000 -132.761714 19.269986 -64.110661 500.000000
0.014322 0.260000 0.410000 9.275105 -74.391877 -14.068118 500.000000
-0.260000 0.090000 0.290000 143.377141 42.570020 121.037073 500.000000
0.260000 0.133234 0.290000 -48.663371 -25.353193 17.452718 500.000000
0.055095 0.159266 0.290000 34.345904 -20.146806 23.686974 500.000000
-0.260000 0.090000 0.290000 288.342509 26.111620 70.496815 500.000000
-0.260000 0.104665 0.410000 156.728155 -31.066902 -29.785547 500.000000
0.260000 0.260000 0.410000 -49.477009 -181.242119 -47.828354 500.000000
0.260000 0.090000 0.410000 -56.681541 63.644848 -54.311522 500.000000
0.260000 0.095364 0.410000 -99.595336 -32.927210 -29.032262 500.000000
0.113548 0.235030 0.290000 74.709581 29.005910 76.196760 500.000000
0.204085 0.260000 0.410000 92.816915 -572.462580 -360.795288 500.000000
-0.260000 0.090000 0.290000 163.302999 28.667845 64.296281 500.000000
-0.260000 0.090000 0.410000 153.523919 234.645949 -25.415133 500.000000
-0.260000 0.260000 0.290000 96.523455 -58.873424 47.466390 500.000000
0.056266 0.260000 0.410000 27.445091 -64.396528 -78.244573 500.000000
0.260000 0.090000 0.410000 -534.884753 21.585324 -67.931477 500.000000
0.260000 0.260000 0.290000 -149.214469 -145.074210 16.893572 500.000000
0.193124 0.115667 0.410000 90.624845 -28.866693 -52.068923 500.000000
0.260000 0.090000 0.290000 -664.862048 36.484983 74.807410 500.000000
-0.260000 0.090000 0.290000 229.442962 172.319879 70.233301 500.000000
-0.260000 0.090000 0.410000 139.399758 23.841094 -78.149235 500.000000
-0.260000 0.260000 0.290000 367.172725 -109.965518 36.937632 500.000000
-0.260000 0.090000 0.290000 145.270822 32.873704 65.704486 500.000000
-0.260000 0.090000 0.290000 147.973058 32.682965 68.571752 500.000000
-0.165761 0.260000 0.410000 -85.152158 -66.782900 -16.219303 500.000000
-0.260000 0.260000 0.410000 59.672524 -53.576648 -65.192124 500.000000
-0.260000 0.260000 0.410000 38.795697 -61.282866 -273.488699 500.000000
0.260000 0.090000 0.290000 -60.484040 87.846689 104.319755 500.000000
-0.260000 0.090000 0.410000 130.469243 78.142711 -81.011199 500.000000
0.079163 0.254504 0.410000 -10.724400 11.999640 -48.636740 500.000000
-0.236406 0.139999 0.290000 -9.860054 4.068454 7.029235 500.000000
0.260000 0.260000 0.310713 -15.283757 -8.633976 -19.857410 500.000000
0.260000 0.108833 0.290000 -44.283167 -30.233322 19.178489 500.000000
-0.260000 0.260000 0.410000 135.073001 -52.703297 -76.040488 500.000000
0.183926 0.090000 0.410000 88.785106 26.519521 -50.850355 500.000000
0.260000 0.106973 0.410000 -70.581619 -30.605307 -46.021728 500.000000
-0.063212 0.260000 0.290000 -64.642370 -336.583813 16.094855 500.000000
0.159396 0.090000 0.410000 83.879203 53.473438 -45.492215 500.000000
0.119049 0.090000 0.410000 75.809840 28.186786 -46.977589 500.000000
0.260000 0.104582 0.290000 -31.206532 -31.083531 17.566381 500.000000
0.260000 0.090000 0.290000 -447.514591 22.482116 28.583114 500.000000
-0.125448 0.128352 0.290000 -77.089637 -26.329626 128.148085 500.000000
-0.260000 0.090000 0.290000 135.095961 36.305938 57.784092 500.000000
-0.030659 0.128445 0.410000 -58.131839 -26.311071 -134.956908 500.000000
-0.141288 0.260000 0.290000 -15.635074 -34.033596 13.501021 500.000000
-0.260000 0.090000 0.290000 285.490792 179.744898 70.223745 500.000000
-0.260000 0.260000 0.410000 73.068857 -78.752484 -83.582834 500.000000
0.236117 0.090000 0.410000 15.388523 14.340788 -68.876906 500.000000
0.260000 0.090000 0.290000 -68.596704 248.964888 39.793633 500.000000
-0.260000 0.128277 0.410000 75.771274 -26.344659 -73.411303 500.000000
0.211390 0.260000 0.290000 61.978778 -26.633409 42.257810 500.000000
-0.260000 0.090000 0.290000 39.846009 23.810725 7.747095 500.000000
0.260000 0.260000 0.290000 -48.435561 -17.411343 92.463935 500.000000
-0.003613 0.260000 0.410000 51.277404 -11.003413 -9.253136 500.000000
-0.260000 0.098567 0.410000 140.998828 -32.286695 -73.531635 500.000000
-0.260000 0.260000 0.410000 55.895156 -57.661240 -129.886964 500.000000
0.260000 0.090000 0.410000 -99.628472 19.900713 -64.119753 500.000000
0.260000 0.090000 0.290000 -68.478488 86.547587 32.024440 500.000000
0.260000 0.090000 0.290000 -172.509516 222.171235 48.891752 500.000000
0.260000 0.260000 0.290000 -372.195465 -17.506011 30.650187 500.000000
-0.260000 0.180196 0.410000 127.593190 -15.960797 -17.510808 500.000000
-0.183910 0.260000 0.290000 -19.917099 -28.450164 14.361864 500.000000
0.260000 0.113021 0.290000 -165.861973 -29.395870 136.269908 500.000000
0.123532 0.090000 0.410000 14.102941 31.794837 -25.249852 500.000000
-0.162991 0.260000 0.410000 -84.598187 -61.815887 -16.806308 500.000000
0.260000 0.090000 0.290000 -144.851962 295.091492 70.263323 500.000000
-0.260000 0.260000 0.290000 96.305851 -48.288697 52.565649 500.000000
0.260000 0.260000 0.290000 -115.801939 -113.214987 28.268589 500.000000
0.260000 0.090000 0.290000 -160.267843 84.889271 46.669873 500.000000
