ply
format ascii 1.0
element vertex 240
property float x
property float y
property float z
property float vx
property float vy
property float vz
property float density
end_header
0.260000 0.090000 0.410000 -64.936814 140.513651 -180.441724 500.000000
0.260000 0.090000 0.410000 -54.305489 103.356007 -36.188993 500.000000
0.260000 0.090000 0.290000 -72.672621 65.049840 96.086868 500.000000
-0.176495 0.260000 0.410000 -87.298995 -243.836169 -12.313208 500.000000
0.260000 0.090000 0.290000 -71.019269 56.087443 94.962875 500.000000
0.260000 0.190478 0.320160 -87.704781 20.095651 -17.967958 500.000000
0.185268 0.090000 0.290000 5.394366 68.401086 34.995258 500.000000
-0.260000 0.090000 0.290000 171.616154 66.430495 44.907236 500.000000
0.260000 0.091494 0.290000 -17.007268 -16.670561 16.982054 500.000000
0.260000 0.260000 0.315669 -100.985924 -91.384588 -18.866273 500.000000
0.260000 0.090000 0.380182 -83.715072 18.171352 18.036492 500.000000
-0.260000 0.090000 0.410000 124.790716 101.315096 -182.102713 500.000000
-0.260000 0.260000 0.290000 189.480904 -101.250677 38.518371 500.000000
-0.101520 0.184407 0.290000 -27.492204 18.881463 18.176387 500.000000
0.260000 0.260000 0.290000 -96.246519 -30.549347 35.730738 500.000000
0.260000 0.090000 0.410000 -64.041184 139.097988 -82.921746 500.000000
-0.004643 0.192637 0.410000 17.458796 -13.472602 -56.780194 500.000000
0.260000 0.090000 0.359218 -40.187443 30.051194 13.843580 500.000000
0.260000 0.175065 0.355013 -69.810402 17.013074 -10.997448 500.000000
-0.260000 0.260000 0.290000 123.428579 -54.276683 36.926222 500.000000
-0.260000 0.260000 0.290000 133.115642 -54.185065 36.436118 500.000000
0.260000 0.260000 0.410000 -128.656318 -51.661565 -22.297195 500.000000
0.017482 0.090000 0.410000 -48.503593 103.436174 -22.419935 500.000000
0.260000 0.090000 0.290000 -123.111153 43.023564 121.991107 500.000000
-0.260000 0.260000 0.410000 168.797786 -77.216120 -16.679844 500.000000
-0.260000 0.090000 0.410000 94.486514 83.428417 -38.326603 500.000000
-0.260000 0.260000 0.290000 22.426073 -20.943124 13.243544 500.000000
0.260000 0.145872 0.290000 -58.721247 -22.825698 49.632984 500.000000
0.260000 0.219710 0.410000 -36.294482 25.941989 -21.030799 500.000000
0.260000 0.260000 0.410000 -423.131378 -40.688061 -16.633476 500.000000
-0.260000 0.090000 0.410000 448.214408 104.513310 -123.369807 500.000000
0.019017 0.260000 0.410000 28.316034 -19.330326 -62.461139 500.000000
0.260000 0.220216 0.320140 -72.588854 26.043139 -17.972064 500.000000
-0.260000 0.260000 0.321775 351.143806 -40.470692 -17.644937 500.000000
0.260000 0.137765 0.320282 -68.184197 9.552986 6.056467 500.000000
-0.138693 0.260000 0.410000 -79.738617 -67.923062 -12.244400 500.000000
-0.232278 0.090000 0.410000 -98.455552 443.891318 -37.689448 500.000000
0.260000 0.199749 0.315593 -74.880921 21.949816 -18.881462 500.000000
0.260000 0.260000 0.290000 -70.446186 -45.788251 19.487808 500.000000
0.260000 0.090000 0.410000 -77.196129 107.098139 -42.690157 500.000000
-0.260000 0.260000 0.290000 282.729079 -54.691769 44.052504 500.000000
0.260000 0.187141 0.314154 -92.477047 19.428234 -19.169260 500.000000
-0.260000 0.121777 0.410000 112.740065 -27.644679 -57.589361 500.000000
0.260000 0.090000 0.410000 -67.375771 103.011797 -22.299385 500.000000
0.220383 0.108776 0.290000 51.223417 -30.244728 16.274000 500.000000
0.260000 0.249365 0.318318 -75.037590 31.873097 -18.336344 500.000000
-0.260000 0.260000 0.290000 129.726193 -56.849715 43.021251 500.000000
0.260000 0.241351 0.290000 -53.014428 30.270212 19.456771 500.000000
0.260000 0.090000 0.302759 -53.677296 40.378484 -21.448207 500.000000
-0.260000 0.090000 0.410000 93.009076 95.893681 -41.013294 500.000000
-0.260000 0.260000 0.393863 48.989033 -28.665465 20.772566 500.000000
0.260000 0.199185 0.311788 -72.974575 21.837057 -19.642470 500.000000
0.260000 0.090000 0.290000 -74.911666 82.767493 97.092487 500.000000
0.260000 0.090000 0.410000 -55.651970 134.637481 -215.630777 500.000000
-0.086796 0.119582 0.299391 34.640714 -28.083529 -22.121787 500.000000
0.259389 0.090000 0.290000 103.877794 18.820218 14.485764 500.000000
-0.260000 0.260000 0.290000 290.428430 -387.844754 33.793754 500.000000
0.260000 0.260000 0.314072 -100.988624 -48.338090 -19.185614 500.000000
0.260000 0.090000 0.290000 -75.102772 55.822656 95.485257 500.000000
0.260000 0.186049 0.298449 -78.494418 19.209803 -22.310233 500.000000
-0.203740 0.224294 0.410000 -38.798569 26.858819 -16.540342 500.000000
-0.032310 0.090000 0.410000 -29.695184 21.691305 -210.539837 500.000000
-0.260000 0.260000 0.410000 122.972806 -121.264084 -41.629397 500.000000
0.260000 0.090000 0.290000 -301.749065 74.992398 47.219236 500.000000
0.260000 0.090000 0.410000 -60.887507 139.144487 -210.934106 500.000000
-0.260000 0.090000 0.290000 176.045411 111.935242 62.634724 500.000000
-0.260000 0.260000 0.290000 125.684683 -54.445735 37.572415 500.000000
-0.260000 0.260000 0.290000 153.935400 -50.833518 63.107461 500.000000
-0.260000 0.260000 0.290000 110.003088 -54.914933 43.969707 500.000000
-0.260000 0.260000 0.410000 98.145294 -70.849793 -26.451503 500.000000
0.260000 0.177459 0.395881 -15.562433 -16.508248 21.176268 500.000000
-0.260000 0.260000 0.312788 47.662265 -17.715413 -19.442358 500.000000
0.126652 0.201716 0.290000 17.546463 -11.656837 11.066405 500.000000
-0.260000 0.260000 0.410000 102.506037 -79.882396 -17.627575 500.000000
0.025659 0.260000 0.410000 57.131792 -42.689611 -53.035171 500.000000
0.260000 0.199491 0.316032 -72.694399 21.898267 -18.793501 500.000000
0.260000 0.260000 0.290000 -113.050604 -151.330651 31.909173 500.000000
0.260000 0.260000 0.290000 -88.200164 -41.393606 14.148775 500.000000
-0.260000 0.260000 0.410000 129.797978 -77.224325 -16.694876 500.000000
-0.260000 0.090000 0.290000 135.993111 122.632059 62.097214 500.000000
-0.260000 0.260000 0.290000 146.514163 -79.859570 38.523869 500.000000
0.260000 0.090000 0.410000 -55.927207 144.234708 -19.083445 500.000000
0.260000 0.196382 0.309908 -73.951500 21.276448 -20.018401 500.000000
0.260000 0.090000 0.290000 -75.573321 56.070166 95.242191 500.000000
0.260000 0.208062 0.309616 -73.678335 23.612439 -20.076781 500.000000
0.260000 0.187481 0.309818 -77.364223 19.496122 -20.036492 500.000000
-0.260000 0.260000 0.290000 109.426680 -17.336876 83.019964 500.000000
0.260000 0.260000 0.410000 -126.357606 -65.225682 -31.706850 500.000000
0.260000 0.090000 0.410000 -55.627931 138.432599 -197.332982 500.000000
0.260000 0.260000 0.290000 -81.802261 -31.271801 52.207579 500.000000
0.260000 0.260000 0.290000 -100.764565 -71.172227 13.265505 500.000000
0.260000 0.090000 0.290000 -283.603611 86.024538 53.705827 500.000000
0.260000 0.090000 0.364039 -131.068517 117.128044 14.807837 500.000000
-0.065819 0.260000 0.410000 38.836275 -48.806257 -19.364779 500.000000
-0.260000 0.260000 0.410000 113.106141 -122.614728 -29.949889 500.000000
-0.260000 0.197874 0.320072 1543.962879 21.574786 -17.985571 500.000000
0.244706 0.260000 0.410000 78.347589 -45.086343 -30.915938 500.000000
0.260000 0.189971 0.299832 -105.438720 19.994139 -22.033627 500.000000
-0.260000 0.090000 0.290000 215.801118 58.266889 99.967717 500.000000
0.260000 0.260000 0.290000 -44.804100 -18.811711 15.208840 500.000000
-0.059860 0.090000 0.410000 40.028078 248.160334 -30.553252 500.000000
-0.260000 0.260000 0.410000 116.706159 -98.105346 -134.228345 500.000000
-0.260000 0.260000 0.290000 97.160379 -75.237064 17.809146 500.000000
0.260000 0.090000 0.290000 -73.930952 73.155583 110.628383 500.000000
0.260000 0.260000 0.410000 -64.332643 -330.769433 -23.141335 500.000000
-0.260000 0.260000 0.290000 240.509110 -54.218076 46.961753 500.000000
0.161734 0.247725 0.410000 10.625672 31.544967 -16.734592 500.000000
-0.260000 0.090000 0.290000 139.163253 105.616444 62.587884 500.000000
0.260000 0.260000 0.290000 -93.334409 -50.048845 30.305059 500.000000
-0.260000 0.090000 0.290000 73.751213 45.290534 100.036788 500.000000
0.260000 0.090000 0.410000 -40.365863 87.728052 -29.647415 500.000000
0.001186 0.260000 0.410000 -51.762881 -12.704966 -19.931531 500.000000
-0.260000 0.260000 0.410000 6.221545 -11.746845 -7.059234 500.000000
-0.260000 0.090000 0.357254 54.583427 21.082363 13.450766 500.000000
-0.013376 0.260000 0.410000 49.324862 -41.885231 -16.728123 500.000000
0.260000 0.260000 0.290000 -111.948747 -32.804734 20.546665 500.000000
0.260000 0.260000 0.382337 -421.891330 -28.057938 18.467442 500.000000
0.142252 0.260000 0.290000 45.540855 -17.091962 18.052726 500.000000
-0.073645 0.260000 0.410000 37.270978 -81.093180 -20.352009 500.000000
-0.260000 0.090000 0.410000 51.380350 80.399958 -43.506216 500.000000
-0.260000 0.090000 0.290000 128.838612 90.222014 45.274180 500.000000
-0.260000 0.090000 0.290000 171.707431 110.979162 62.590651 500.000000
-0.260000 0.090000 0.311691 218.296223 46.549071 -19.661716 500.000000
0.260000 0.090000 0.290000 -75.820056 56.296005 103.990757 500.000000
-0.260000 0.260000 0.410000 114.802529 -117.258660 -30.113164 500.000000
-0.260000 0.260000 0.290000 120.355203 -67.060796 37.205343 500.000000
0.260000 0.090000 0.310744 -164.303471 24.611767 -19.851169 500.000000
0.260000 0.260000 0.290000 -1075.786899 -54.519948 126.251484 500.000000
0.260000 0.260000 0.311321 -77.202270 -76.929862 -19.735878 500.000000
-0.260000 0.133953 0.410000 130.176029 -25.209333 -37.366307 500.000000
-0.043085 0.090000 0.296225 43.383035 69.200135 -22.755090 500.000000
-0.260000 0.260000 0.290000 122.529806 -54.304793 36.896754 500.000000
-0.260000 0.090000 0.410000 60.972899 555.531882 -29.042869 500.000000
-0.260000 0.260000 0.410000 108.100093 -78.004826 -24.634725 500.000000
-0.260000 0.095893 0.290000 71.137486 -13.467539 18.289845 500.000000
-0.260000 0.090098 0.290000 67.549415 -17.620433 20.541129 500.000000
0.260000 0.260000 0.290000 -73.987656 -20.345728 44.826442 500.000000
-0.260000 0.260000 0.410000 140.726485 -17.940803 -12.655214 500.000000
0.067425 0.090000 0.290000 -1.569389 67.566350 39.624805 500.000000
-0.260000 0.202090 0.410000 60.800416 -11.582068 -31.426862 500.000000
-0.260000 0.260000 0.290000 114.307286 -197.737354 38.409743 500.000000
0.260000 0.260000 0.290000 -105.306058 -32.233422 31.665878 500.000000
-0.260000 0.260000 0.290000 126.354166 -54.400142 37.575458 500.000000
-0.137665 0.090000 0.301948 -79.533000 710.251062 -21.610348 500.000000
0.260000 0.260000 0.410000 -76.908345 -136.322267 -13.812002 500.000000
0.260000 0.090000 0.410000 -74.517088 91.524478 -28.983731 500.000000
0.260000 0.252037 0.300857 -71.112718 32.407410 -21.828695 500.000000
0.260000 0.260000 0.410000 -739.863202 -87.306459 -586.515964 500.000000
-0.260000 0.090000 0.410000 21.122019 28.180388 -13.719322 500.000000
-0.260000 0.090000 0.410000 81.188064 87.957730 -16.466341 500.000000
0.165728 0.090000 0.410000 -18.854438 57.104199 -22.905876 500.000000
0.260000 0.170719 0.410000 -57.321187 -17.856131 -15.275335 500.000000
-0.260000 0.090000 0.290000 110.653949 624.525310 74.685105 500.000000
-0.260000 0.260000 0.290000 114.359847 -120.936558 39.691109 500.000000
0.260000 0.090000 0.290000 -70.657287 56.066255 94.650474 500.000000
0.260000 0.260000 0.410000 -55.717943 -50.585813 -24.333363 500.000000
-0.260000 0.090000 0.290000 96.390967 46.652891 44.861393 500.000000
-0.260000 0.112311 0.310971 15.714854 2.876146 -19.805760 500.000000
-0.260000 0.260000 0.410000 134.498196 -119.473248 -37.243166 500.000000
-0.084237 0.260000 0.410000 35.152563 -46.608795 -27.628509 500.000000
0.260000 0.090000 0.290000 -71.611772 56.060012 95.203353 500.000000
-0.197247 0.090000 0.290000 -49.100293 68.315231 55.144960 500.000000
0.260000 0.090000 0.290000 -209.608526 73.346491 106.805323 500.000000
-0.111382 0.260000 0.387879 -51.225147 -24.694111 19.575814 500.000000
-0.260000 0.260000 0.410000 112.664951 -86.693994 -27.580139 500.000000
0.260000 0.260000 0.290000 -90.632351 -71.428629 24.972634 500.000000
-0.134411 0.090000 0.290000 25.117852 71.395116 27.972844 500.000000
0.260000 0.090000 0.290000 -74.081717 55.917107 96.115400 500.000000
-0.260000 0.260000 0.290000 57.002894 -120.809780 35.594317 500.000000
0.260000 0.090000 0.296664 -66.016869 56.361536 -22.667140 500.000000
-0.260000 0.090000 0.410000 68.527946 120.290143 -102.612042 500.000000
0.260000 0.199773 0.315365 -74.165344 21.954695 -18.927022 500.000000
0.260000 0.204618 0.311527 -73.057336 22.923607 -19.694588 500.000000
-0.260000 0.090000 0.410000 144.535968 135.351592 -109.525917 500.000000
-0.260000 0.090000 0.290000 357.529370 42.142963 36.058365 500.000000
-0.124990 0.260000 0.410000 -76.998008 -193.297898 -21.486467 500.000000
0.260000 0.090000 0.290000 -74.620656 21.065163 73.482444 500.000000
-0.260000 0.260000 0.290000 114.265450 -61.471698 38.557545 500.000000
0.260000 0.260000 0.315785 -90.190257 -112.828835 -18.842928 500.000000
0.022022 0.260000 0.410000 15.756707 -14.625003 -23.454968 500.000000
0.260000 0.260000 0.290000 -89.195576 -77.020930 14.152199 500.000000
-0.260000 0.090000 0.290000 152.854475 43.290466 42.894077 500.000000
0.121486 0.090000 0.410000 -27.702762 33.383786 -22.098078 500.000000
-0.260000 0.156824 0.290000 40.936405 -20.635298 17.781664 500.000000
0.260000 0.260000 0.290000 -85.252608 -60.526576 19.599829 500.000000
-0.260000 0.090000 0.410000 168.821270 106.367114 -59.071241 500.000000
0.260000 0.260000 0.290000 -609.524067 -117.968992 26.417369 500.000000
0.260000 0.090000 0.290000 -52.867685 18.292165 32.160998 500.000000
0.260000 0.260000 0.309579 -54.801708 -136.236451 -20.084252 500.000000
0.260000 0.260000 0.410000 -105.635571 -34.698772 -21.067289 500.000000
-0.260000 0.260000 0.410000 45.158865 -20.492895 -45.709631 500.000000
-0.260000 0.260000 0.290000 107.758509 -62.523674 98.379120 500.000000
-0.260000 0.260000 0.290000 126.116623 -53.917932 38.489343 500.000000
-0.260000 0.090000 0.314458 16.749198 49.227820 -19.108347 500.000000
0.260000 0.252541 0.410000 -96.947272 32.508183 -29.976598 500.000000
0.260000 0.260000 0.410000 -53.553096 -21.838319 -19.239088 500.000000
-0.260000 0.260000 0.410000 115.350456 -118.169702 -13.148499 500.000000
0.260000 0.090000 0.290000 -70.364254 56.067949 95.647128 500.000000
0.260000 0.260000 0.316244 -118.354702 -133.106274 -18.751188 500.000000
-0.260000 0.260000 0.290000 120.106814 -54.948957 36.917211 500.000000
-0.260000 0.090000 0.410000 45.609366 36.921342 -44.647595 500.000000
0.260000 0.260000 0.315601 -79.532121 -69.777977 -18.879891 500.000000
0.210028 0.260000 0.410000 94.005684 -41.908119 -16.536578 500.000000
0.260000 0.260000 0.383674 -64.195205 -367.852373 18.734741 500.000000
0.260000 0.090000 0.410000 -287.186248 209.852824 -15.052781 500.000000
0.260000 0.200020 0.315528 -72.889810 22.004001 -18.894313 500.000000
0.260000 0.260000 0.316443 -108.014888 -154.190811 -18.711493 500.000000
-0.260000 0.260000 0.410000 121.331822 -87.721065 -30.396990 500.000000
-0.260000 0.260000 0.290000 135.613193 -144.672419 38.518508 500.000000
-0.260000 0.260000 0.410000 38.820153 -44.107705 -31.735104 500.000000
-0.260000 0.260000 0.290000 170.650697 -176.131938 37.642036 500.000000
0.260000 0.091133 0.410000 -79.998048 -33.773421 -20.860956 500.000000
0.260000 0.090000 0.290000 -77.786589 56.352764 96.006185 500.000000
0.260000 0.188272 0.299190 -137.652404 19.654388 -22.162005 500.000000
0.260000 0.090000 0.410000 -56.519087 140.939799 -138.408143 500.000000
0.260000 0.260000 0.314567 -73.391982 -29.567531 -19.086545 500.000000
-0.260000 0.260000 0.290000 121.923773 -55.384484 36.876596 500.000000
0.260000 0.090000 0.410000 -54.185052 141.601138 -104.137165 500.000000
-0.260000 0.260000 0.410000 160.981299 -107.033055 -40.909377 500.000000
0.260000 0.090000 0.290000 -55.981725 67.373760 36.191838 500.000000
0.250449 0.260000 0.410000 102.089817 -335.642464 -19.246418 500.000000
0.260000 0.090000 0.290000 -24.702023 67.535763 36.168660 500.000000
0.260000 0.090000 0.290000 -73.131331 56.339441 94.656379 500.000000
-0.260000 0.090000 0.290000 55.770334 28.548606 60.550039 500.000000
-0.260000 0.260000 0.410000 107.952287 -77.242590 -16.707783 500.000000
-0.140259 0.090000 0.290000 -47.873404 19.475175 24.714353 500.000000
0.260000 0.260000 0.290000 -1029.935953 -45.028649 49.277863 500.000000
-0.260000 0.260000 0.410000 132.905683 -122.557427 -70.223368 500.000000
0.260000 0.090000 0.410000 -61.081505 139.027179 -159.231580 500.000000
-0.260000 0.254925 0.341738 49.497486 32.985033 -13.652414 500.000000
-0.260000 0.260000 0.290000 120.140759 -54.121524 36.669130 500.000000
-0.260000 0.260000 0.410000 112.574117 -117.332646 -29.828333 500.000000
-0.260000 0.090000 0.410000 57.084867 37.763781 -180.947638 500.000000
-0.260000 0.260000 0.290000 178.592826 -122.983638 38.517604 500.000000
0.238017 0.090000 0.410000 99.603383 102.590307 -45.810974 500.000000
0.260000 0.260000 0.290000 -78.787874 -76.756323 36.149455 500.000000
0.156103 0.260000 0.329304 52.569636 -21.170203 -16.139112 500.000000
-0.260000 0.260000 0.290000 126.896658 -49.960096 39.502385 500.000000
0.260000 0.090000 0.410000 -37.293393 20.025197 -151.490251 500.000000
0.147085 0.260000 0.313618 33.104140 -17.329773 -19.276409 500.000000
