ply
format ascii 1.0
element vertex 240
property float x
property float y
property float z
property float vx
property float vy
property float vz
property float density
end_header
-0.260000 0.090000 0.290000 97.650225 58.297135 61.150077 500.000000
0.049794 0.090000 0.407200 61.958826 79.540580 23.440075 500.000000
-0.260000 0.260000 0.290000 60.722858 -129.981352 12.564928 500.000000
-0.260000 0.090000 0.290000 588.874064 56.927815 61.577995 500.000000
-0.240718 0.090000 0.410000 -14.500834 56.604297 -24.035120 500.000000
0.260000 0.090000 0.410000 -75.418979 61.362566 -25.797633 500.000000
-0.020768 0.260000 0.410000 40.329384 -23.204269 -26.459206 500.000000
-0.260000 0.090000 0.410000 54.314877 21.623790 -16.931228 500.000000
-0.191481 0.090000 0.410000 -90.296104 29.375192 -60.051329 500.000000
-0.188364 0.090000 0.410000 -89.672799 30.276269 -59.831010 500.000000
0.260000 0.260000 0.290000 -70.912042 -88.958368 21.733368 500.000000
0.054967 0.260000 0.290000 62.993468 -66.040393 36.050771 500.000000
-0.260000 0.220705 0.410000 28.933376 26.141015 -195.622645 500.000000
-0.034256 0.209229 0.290000 45.148880 23.845844 37.393822 500.000000
-0.170272 0.090000 0.410000 -86.054372 69.572763 -47.744741 500.000000
0.260000 0.260000 0.290000 -105.109724 -24.877991 16.749016 500.000000
0.260000 0.090000 0.290000 -390.772623 65.844368 21.366764 500.000000
-0.260000 0.260000 0.290000 737.012850 -25.745854 47.570004 500.000000
0.260000 0.090000 0.290000 -93.044591 26.618646 22.951541 500.000000
0.260000 0.090000 0.290000 -95.779022 33.223708 24.048010 500.000000
-0.260000 0.090000 0.410000 80.314913 22.422857 -224.627673 500.000000
-0.260000 0.090000 0.410000 134.035682 52.607911 -21.047209 500.000000
-0.260000 0.090000 0.410000 59.574961 26.824086 -79.044517 500.000000
0.126205 0.260000 0.290000 47.872124 -48.070885 18.634894 500.000000
0.260000 0.122325 0.306850 -106.116033 -27.535086 -20.629985 500.000000
0.260000 0.260000 0.290000 -79.061336 -60.697270 21.136682 500.000000
0.113019 0.090000 0.410000 74.603827 88.021184 -79.079483 500.000000
-0.260000 0.260000 0.410000 82.019516 -22.227101 -17.871906 500.000000
-0.260000 0.260000 0.290000 92.756650 -491.305651 66.107968 500.000000
-0.207262 0.090000 0.410000 -93.452306 23.505709 -59.255924 500.000000
0.260000 0.090000 0.290000 -180.914437 57.058658 61.275019 500.000000
-0.006752 0.251320 0.410000 50.649631 12.421989 -14.650452 500.000000
-0.260000 0.260000 0.290000 27.214997 -21.740930 12.467485 500.000000
0.242226 0.260000 0.410000 100.445263 -32.140546 -201.024167 500.000000
0.260000 0.260000 0.290000 -246.639761 -24.793684 16.445035 500.000000
-0.051357 0.090000 0.290000 -50.951477 77.300621 57.239342 500.000000
-0.260000 0.090000 0.290000 76.850112 116.332118 120.754068 500.000000
-0.259134 0.114760 0.410000 -103.826826 -29.048074 -54.395305 500.000000
0.166304 0.260000 0.290000 42.092808 -51.550077 208.363898 500.000000
-0.260000 0.090000 0.338258 43.511407 35.561792 9.651523 500.000000
0.131078 0.260000 0.410000 27.903853 -70.650864 -43.785801 500.000000
0.260000 0.260000 0.290000 -74.799207 -59.360385 21.160925 500.000000
0.260000 0.090000 0.290000 -99.993662 341.252787 125.708485 500.000000
-0.260000 0.090000 0.410000 153.272100 113.491084 -30.987397 500.000000
-0.260000 0.260000 0.290000 47.984532 -258.296583 35.385977 500.000000
0.148532 0.090000 0.410000 81.706435 75.339099 -21.483009 500.000000
-0.260000 0.260000 0.290000 184.520576 -21.699918 12.957857 500.000000
-0.260000 0.260000 0.290000 178.466109 -34.199669 31.907123 500.000000
0.260000 0.090000 0.290000 -699.816555 57.426883 61.566742 500.000000
-0.195823 0.260000 0.290000 -3.901383 -53.405704 43.029372 500.000000
-0.260000 0.090000 0.290000 139.151279 35.956965 21.293735 500.000000
-0.260000 0.260000 0.290000 660.216052 -25.294300 16.385389 500.000000
-0.260000 0.090000 0.290000 175.136564 55.888184 20.511758 500.000000
-0.189315 0.090000 0.290000 -89.862982 54.161979 61.903395 500.000000
0.260000 0.090000 0.290000 -645.084960 58.572775 61.413120 500.000000
0.260000 0.260000 0.290000 -230.436082 -61.623675 21.669881 500.000000
0.260000 0.260000 0.290000 -68.393190 -55.827169 21.703057 500.000000
0.260000 0.260000 0.410000 -461.249982 -19.535694 -19.852637 500.000000
-0.260000 0.147072 0.320987 64.474344 11.414433 -17.802559 500.000000
-0.260000 0.090000 0.290000 426.713933 57.059510 61.386336 500.000000
-0.260000 0.090000 0.290000 512.750576 58.297505 61.283648 500.000000
0.260000 0.178988 0.310282 -48.411873 17.797583 -19.943502 500.000000
-0.232653 0.090000 0.410000 -98.530543 28.920314 -60.317069 500.000000
0.189769 0.188397 0.290000 23.335927 19.679465 7.505404 500.000000
0.260000 0.090000 0.410000 -72.551428 27.960894 -18.092826 500.000000
-0.260000 0.260000 0.290000 751.146723 -25.017040 15.720419 500.000000
0.260000 0.260000 0.410000 -83.927013 -39.453151 -40.661416 500.000000
0.260000 0.260000 0.290000 -545.376951 -24.781172 16.490647 500.000000
-0.203426 0.090000 0.410000 -92.685132 31.990621 -59.101223 500.000000
0.260000 0.090000 0.290000 -519.100087 57.137419 61.078061 500.000000
-0.260000 0.090000 0.410000 55.910875 29.088332 -60.852742 500.000000
-0.260000 0.260000 0.290000 368.053491 -35.294704 12.120979 500.000000
-0.260000 0.090000 0.290000 167.900367 22.187325 15.426698 500.000000
0.260000 0.090000 0.290000 -45.742034 60.344366 13.934110 500.000000
-0.260000 0.260000 0.410000 394.143132 -27.929303 -19.839873 500.000000
-0.241412 0.090000 0.290000 -100.282441 54.960979 71.387132 500.000000
0.260000 0.260000 0.401861 -27.055126 -19.262921 22.372260 500.000000
0.260000 0.260000 0.290000 -179.625129 -24.778610 16.424837 500.000000
0.260000 0.260000 0.290000 -99.582989 -58.134548 21.796349 500.000000
0.260000 0.260000 0.410000 -356.097675 -19.514494 -20.815518 500.000000
-0.260000 0.260000 0.410000 699.179465 -31.917168 -19.836918 500.000000
-0.260000 0.260000 0.410000 481.401080 -29.264298 -19.839533 500.000000
-0.260000 0.171745 0.290000 53.758852 -17.650998 23.767958 500.000000
-0.260000 0.260000 0.410000 132.794902 -25.284507 -19.842599 500.000000
-0.260000 0.090000 0.332877 61.350550 162.033415 -15.424548 500.000000
0.260000 0.260000 0.290000 -71.735240 -55.811734 131.828686 500.000000
-0.260000 0.260000 0.290000 307.989462 -24.873671 16.654404 500.000000
-0.260000 0.090000 0.410000 201.642050 85.303243 -70.785006 500.000000
-0.260000 0.260000 0.410000 45.721285 -21.244984 -19.839829 500.000000
0.260000 0.090000 0.290000 -52.108810 88.223453 72.115746 500.000000
0.260000 0.260000 0.410000 -199.944935 -18.846961 -19.814853 500.000000
-0.136649 0.195393 0.290000 -6.120243 21.078576 24.806789 500.000000
0.260000 0.260000 0.290000 -159.871182 -59.718502 89.266693 500.000000
0.260000 0.090000 0.381892 -26.867561 9.157506 18.378439 500.000000
0.260000 0.090000 0.290000 -98.884624 33.216140 24.030027 500.000000
0.180955 0.227120 0.290000 88.190945 27.423991 14.763859 500.000000
0.260000 0.090000 0.290000 -97.907115 28.008539 25.024071 500.000000
0.260000 0.260000 0.290000 -759.945939 -24.881364 17.458837 500.000000
-0.260000 0.090000 0.410000 44.487154 24.342901 -12.626093 500.000000
-0.260000 0.151223 0.294151 529.339483 12.244643 -23.169782 500.000000
0.260000 0.090000 0.290000 -578.547779 57.128547 61.082668 500.000000
-0.260000 0.260000 0.290000 653.706246 -64.368119 20.142867 500.000000
0.260000 0.260000 0.290000 -78.530619 -62.044087 21.120326 500.000000
0.260000 0.260000 0.290000 -77.160174 -58.034125 21.199069 500.000000
-0.260000 0.090000 0.410000 32.332639 296.732051 -53.682176 500.000000
-0.188277 0.260000 0.410000 -89.655456 -51.959720 -45.397925 500.000000
0.210457 0.090000 0.290000 13.067054 57.051654 61.386512 500.000000
-0.260000 0.207046 0.290000 33.802745 23.409140 26.590475 500.000000
-0.112904 0.205222 0.290000 -74.580752 23.044302 53.967482 500.000000
0.260000 0.260000 0.410000 -91.467336 -28.622652 -66.262405 500.000000
-0.260000 0.260000 0.410000 66.236597 -41.831269 -50.187359 500.000000
0.086989 0.260000 0.410000 69.397732 -257.582288 -14.479094 500.000000
-0.260000 0.260000 0.290000 436.611783 -24.776822 16.379364 500.000000
0.153036 0.090000 0.410000 82.607131 81.190772 -14.552182 500.000000
-0.260000 0.260000 0.410000 760.188401 -31.170952 -20.109624 500.000000
-0.260000 0.260000 0.388804 55.710485 -20.686057 19.760886 500.000000
-0.260000 0.090000 0.290000 37.059696 55.038853 20.113464 500.000000
-0.260000 0.090000 0.290000 123.512657 57.292703 61.388098 500.000000
-0.010525 0.090000 0.290000 -54.105044 18.628858 718.949257 500.000000
-0.260000 0.090000 0.290000 254.330008 57.204601 61.389757 500.000000
-0.260000 0.260000 0.290000 522.800194 -24.834598 16.376389 500.000000
-0.218959 0.142297 0.290000 -95.791845 10.459490 18.801358 500.000000
0.260000 0.260000 0.410000 -92.935409 -23.084218 -26.477125 500.000000
0.260000 0.260000 0.290000 -326.424847 -24.787504 16.451206 500.000000
-0.184249 0.180738 0.290000 -18.742048 18.147576 27.493001 500.000000
-0.260000 0.260000 0.410000 619.371537 -27.944371 -20.937445 500.000000
0.260000 0.260000 0.410000 -37.400139 -260.746340 -17.701431 500.000000
0.260000 0.090000 0.410000 -158.242586 28.299051 -18.595755 500.000000
0.260000 0.260000 0.290000 -77.462157 -64.977661 21.130365 500.000000
0.260000 0.191281 0.290000 -42.272359 20.256291 10.485381 500.000000
0.154946 0.090000 0.410000 46.236746 21.428322 -224.571338 500.000000
-0.260000 0.260000 0.290000 350.079205 -24.874206 16.628395 500.000000
-0.193596 0.090000 0.410000 -90.719296 28.056020 -59.575645 500.000000
-0.260000 0.260000 0.335072 399.586392 -57.097962 -14.985658 500.000000
-0.260000 0.090000 0.410000 53.481117 23.408098 -59.168783 500.000000
0.260000 0.260000 0.290000 -634.527700 -33.613097 16.249566 500.000000
-0.260000 0.090000 0.290000 17.994165 30.530922 49.694278 500.000000
0.260000 0.090000 0.410000 -31.495590 147.096053 -114.022550 500.000000
0.260000 0.090000 0.290000 -49.529799 99.981634 64.541090 500.000000
0.260000 0.260000 0.410000 -286.873198 -20.034344 -26.236369 500.000000
-0.260000 0.260000 0.410000 568.494063 -19.994081 -19.843599 500.000000
-0.260000 0.260000 0.410000 219.948538 -23.925263 -19.841432 500.000000
0.260000 0.260000 0.410000 -491.705503 -19.277387 -19.653189 500.000000
-0.260000 0.260000 0.410000 699.161109 -30.566155 -19.836639 500.000000
-0.139060 0.260000 0.410000 -79.812046 -59.961580 -49.647138 500.000000
0.247135 0.090000 0.290000 66.174847 55.902530 61.273371 500.000000
0.260000 0.260000 0.290000 -91.889596 -59.614221 46.211902 500.000000
0.260000 0.260000 0.290000 -391.306926 -24.870536 16.721735 500.000000
-0.260000 0.090000 0.290000 107.046339 363.075633 45.558206 500.000000
0.260000 0.260000 0.410000 -209.509515 -19.400095 -19.856927 500.000000
-0.260000 0.260000 0.290000 56.750782 -49.699083 34.324396 500.000000
0.260000 0.260000 0.290000 -119.928574 -145.575785 22.381487 500.000000
-0.260000 0.260000 0.410000 306.924061 -26.581224 -19.840179 500.000000
-0.163089 0.260000 0.410000 -16.333779 -28.895946 -99.496759 500.000000
0.041228 0.090000 0.410000 60.245607 114.562628 -74.362729 500.000000
0.133131 0.177806 0.410000 38.952487 -4.929849 -67.333455 500.000000
-0.260000 0.090000 0.410000 52.159196 49.089315 -58.348769 500.000000
-0.260000 0.260000 0.290000 65.211560 -24.929407 16.434878 500.000000
-0.260000 0.260000 0.290000 586.673624 -31.025532 16.208819 500.000000
0.260000 0.260000 0.410000 -526.072619 -23.586682 -20.438908 500.000000
0.260000 0.090000 0.410000 -187.736108 81.759519 -14.586051 500.000000
-0.260000 0.090000 0.410000 53.691871 28.312278 -58.993745 500.000000
0.260000 0.260000 0.290000 -76.206999 -56.685369 21.152679 500.000000
0.260000 0.260000 0.290000 -900.636796 -25.254283 16.732831 500.000000
-0.256911 0.090000 0.410000 -103.382226 30.514940 -59.776833 500.000000
0.260000 0.090000 0.290000 -93.976246 369.728068 14.325328 500.000000
0.260000 0.090000 0.410000 -137.082161 61.761846 -294.124474 500.000000
0.260000 0.260000 0.290000 -1026.763412 -25.175515 16.801714 500.000000
-0.260000 0.090000 0.290000 123.526068 57.246712 61.389597 500.000000
0.077867 0.090000 0.410000 19.680533 21.663152 -12.875028 500.000000
0.260000 0.260000 0.290000 -18.606048 -20.644121 13.651170 500.000000
0.260000 0.090000 0.410000 -67.796406 25.126225 -294.514131 500.000000
0.260000 0.243774 0.290000 -92.988450 30.754727 17.055061 500.000000
0.260000 0.090000 0.290000 -437.134170 59.240946 61.025270 500.000000
-0.260000 0.240176 0.390085 64.479843 30.035190 20.016901 500.000000
-0.260000 0.260000 0.293381 148.657370 -31.935868 -23.323720 500.000000
0.244392 0.260000 0.410000 82.001589 -22.599962 -19.884938 500.000000
-0.260000 0.260000 0.410000 327.928487 -28.228944 -14.470439 500.000000
0.260000 0.090000 0.290000 -268.062565 57.271801 61.389758 500.000000
0.260000 0.260000 0.410000 -122.759438 -30.191099 -20.319163 500.000000
-0.217169 0.090000 0.410000 -95.433761 25.401726 -59.472864 500.000000
0.260000 0.260000 0.290000 -829.880306 -25.187063 16.708047 500.000000
0.260000 0.090000 0.290000 -90.227704 108.589568 58.796671 500.000000
-0.070435 0.260000 0.290000 -0.593920 -14.416883 41.900640 500.000000
0.260000 0.090000 0.290000 -145.916341 31.880877 29.486171 500.000000
-0.260000 0.090000 0.290000 229.942481 18.830575 24.676170 500.000000
-0.260000 0.260000 0.290000 234.462414 -24.784094 16.687657 500.000000
0.260000 0.260000 0.290000 -83.293496 -56.386973 17.752503 500.000000
0.260000 0.260000 0.311844 -854.603283 -87.478145 -19.631163 500.000000
0.260000 0.090000 0.410000 -242.657958 28.072881 -18.773585 500.000000
-0.260000 0.090000 0.290000 527.197147 57.127902 61.022826 500.000000
0.260000 0.090000 0.290000 -112.058087 32.676336 23.490796 500.000000
0.260000 0.090000 0.290000 -354.543863 57.302635 61.389203 500.000000
0.260000 0.090000 0.290000 -104.412219 31.479388 25.512177 500.000000
-0.039181 0.090000 0.290000 44.163786 14.208533 18.076915 500.000000
-0.113395 0.260000 0.290000 -5.026193 -234.518203 17.650082 500.000000
-0.202834 0.090000 0.410000 -92.566815 22.437540 -58.890893 500.000000
0.260000 0.090000 0.290000 -102.116340 29.204171 26.703200 500.000000
0.260000 0.090000 0.410000 -93.408309 22.663206 -269.401844 500.000000
0.260000 0.260000 0.290000 -944.949272 -32.333309 16.550231 500.000000
-0.260000 0.260000 0.290000 365.511754 -239.583986 26.702733 500.000000
0.260000 0.260000 0.410000 -408.417794 -31.062656 -19.639584 500.000000
-0.260000 0.260000 0.410000 94.805487 -98.106177 -22.504086 500.000000
-0.248275 0.260000 0.410000 -11.164931 -70.978776 -114.861736 500.000000
0.242401 0.136386 0.342779 48.715378 -24.722775 -13.444148 500.000000
0.067977 0.260000 0.410000 57.335547 -25.587943 -128.219114 500.000000
0.260000 0.260000 0.290000 -20.135635 -24.870130 16.662228 500.000000
0.260000 0.260000 0.410000 -71.352240 -52.793279 -35.126070 500.000000
0.018609 0.260000 0.385703 -17.005836 -53.128956 19.140532 500.000000
0.260000 0.260000 0.290000 -80.269116 -56.748612 148.104599 500.000000
0.260000 0.095273 0.410000 -32.226440 -32.945497 -256.840299 500.000000
0.260000 0.090000 0.290000 -106.903359 32.780875 24.791890 500.000000
0.260000 0.090000 0.290000 -117.520355 32.287884 25.928370 500.000000
0.260000 0.260000 0.410000 -180.562730 -19.059453 -20.849646 500.000000
0.260000 0.260000 0.290000 -75.266857 -63.369445 21.205198 500.000000
0.260000 0.090000 0.290000 -93.893112 56.926520 61.650204 500.000000
-0.260000 0.167241 0.410000 88.281605 -18.551825 -77.080402 500.000000
0.152322 0.090000 0.410000 82.464350 95.795434 -18.599073 500.000000
0.260000 0.260000 0.290000 -77.812200 -65.061601 21.149628 500.000000
0.071501 0.260000 0.410000 66.300205 -183.087511 -23.358623 500.000000
-0.260000 0.260000 0.290000 538.142749 -24.742102 15.673718 500.000000
-0.260000 0.260000 0.290000 73.304465 -22.301084 16.562576 500.000000
-0.260000 0.090000 0.290000 643.860601 27.066796 41.656768 500.000000
-0.260000 0.260000 0.290000 595.611329 -31.961805 16.255694 500.000000
0.260000 0.260000 0.290000 -372.511753 -59.052148 28.706543 500.000000
-0.260000 0.260000 0.290000 503.849607 -92.516460 12.172648 500.000000
-0.260000 0.188826 0.410000 407.410477 19.765202 -14.440283 500.000000
0.130970 0.224481 0.410000 78.193977 4.683471 -7.333815 500.000000
0.260000 0.090000 0.290000 -92.281686 33.113499 24.070864 500.000000
0.260000 0.143591 0.410000 -92.083082 -23.281819 -37.356956 500.000000
-0.250427 0.090000 0.399653 -10.036573 39.213307 21.930510 500.000000
-0.260000 0.090000 0.410000 137.537414 74.071891 -27.582983 500.000000
0.260000 0.090000 0.410000 -113.511147 82.025329 -69.383539 500.000000
0.260000 0.260000 0.410000 -546.544731 -19.636489 -19.967635 500.000000
0.260000 0.260000 0.290000 -717.291977 -34.499365 16.252162 500.000000
-0.260000 0.090000 0.290000 340.537294 56.960553 61.449375 500.000000
-0.242310 0.260000 0.410000 -100.461903 -41.103936 -48.453656 500.000000
0.260000 0.260000 0.290000 -475.667632 -24.766843 16.428510 500.000000
0.260000 0.260000 0.290000 -562.101534 -33.553493 16.152296 500.000000
0.260000 0.260000 0.290000 -30.468940 -18.763221 22.989586 500.000000
