ply
format ascii 1.0
element vertex 240
property float x
property float y
property float z
property float vx
property float vy
property float vz
property float density
end_header
0.260000 0.090000 0.410000 -142.165756 222.137119 -715.494709 500.000000
0.260000 0.090000 0.410000 -99.617015 73.424610 -138.165719 500.000000
0.260000 0.090000 0.290000 -100.889315 255.209032 380.157620 500.000000
0.165113 0.090000 0.410000 85.022680 22.608974 -49.314514 500.000000
0.260000 0.090000 0.290000 -94.272344 219.340140 375.659227 500.000000
0.260000 0.260000 0.290000 -157.063655 -36.171910 18.588539 500.000000
-0.260000 0.090000 0.290000 83.680311 273.744439 107.584833 500.000000
-0.260000 0.090000 0.290000 412.580345 143.602658 41.511066 500.000000
-0.062945 0.182628 0.410000 -6.142824 -15.474391 -18.263468 500.000000
0.260000 0.260000 0.290000 -210.216124 -361.689807 20.386112 500.000000
-0.118989 0.090000 0.303511 -4.669327 72.720120 -21.297875 500.000000
0.217235 0.090000 0.290000 72.331998 394.275631 15.553529 500.000000
-0.260000 0.260000 0.290000 370.628061 -222.865817 40.472503 500.000000
0.260000 0.260000 0.290000 -22.093737 -36.351529 22.530305 500.000000
0.260000 0.260000 0.290000 -191.248547 -118.221059 125.631755 500.000000
0.260000 0.090000 0.410000 -138.581260 216.471345 -325.199774 500.000000
0.006848 0.202081 0.410000 18.864299 22.416240 -193.842664 500.000000
0.260000 0.090000 0.410000 -71.705577 108.494195 -20.363710 500.000000
-0.260000 0.191815 0.345588 84.309906 20.363011 11.117679 500.000000
-0.260000 0.260000 0.290000 106.266835 -34.861800 34.100244 500.000000
-0.260000 0.260000 0.290000 145.037367 -34.495116 32.138700 500.000000
0.260000 0.260000 0.410000 -514.510860 -29.238661 -18.486157 500.000000
0.213057 0.200196 0.410000 94.611313 -11.960796 -48.586347 500.000000
0.260000 0.090000 0.290000 -302.752091 167.056483 483.830374 500.000000
0.114530 0.260000 0.410000 74.905926 -51.324830 -66.219470 500.000000
-0.260000 0.090000 0.410000 76.123633 37.892737 -153.399886 500.000000
0.260000 0.260000 0.290000 -47.845481 -67.605910 35.661581 500.000000
-0.260000 0.187960 0.290000 75.846988 19.592032 185.634767 500.000000
0.078658 0.260000 0.410000 67.731633 -50.991093 -84.209367 500.000000
0.158063 0.260000 0.410000 83.612587 -51.325189 -66.239071 500.000000
0.260000 0.090000 0.410000 -93.640713 218.254624 -487.090573 500.000000
-0.260000 0.260000 0.345465 24.003033 -73.321817 -12.906944 500.000000
0.260000 0.260000 0.290000 -96.568196 -48.073132 18.596756 500.000000
0.220791 0.260000 0.290000 42.925455 -63.615593 30.842159 500.000000
0.127387 0.096426 0.313637 -26.522506 -14.507250 -0.849515 500.000000
-0.112339 0.090000 0.410000 -74.467869 22.687880 -47.747241 500.000000
0.056897 0.260000 0.410000 -13.838940 -29.535150 -146.944391 500.000000
0.260000 0.260000 0.290000 -105.741279 -39.882187 20.416506 500.000000
-0.075260 0.260000 0.290000 -67.051934 -179.203896 77.914191 500.000000
-0.260000 0.237062 0.410000 92.100193 29.412315 -89.933274 500.000000
-0.260000 0.260000 0.290000 743.835242 -36.523095 62.621764 500.000000
0.260000 0.260000 0.290000 -176.162742 -34.836376 20.992406 500.000000
0.260000 0.090000 0.410000 -61.609188 41.417237 -163.690667 500.000000
0.260000 0.090000 0.410000 -151.926961 72.047013 -82.576659 500.000000
-0.260000 0.090000 0.290000 44.864165 54.650692 32.661674 500.000000
0.260000 0.260000 0.290000 -106.368283 -59.739172 19.325699 500.000000
-0.260000 0.260000 0.290000 131.471776 -45.159846 58.494378 500.000000
-0.133458 0.260000 0.290000 -9.458886 -56.523680 77.789956 500.000000
-0.018862 0.090000 0.290000 -55.772357 154.190761 42.862792 500.000000
-0.260000 0.090000 0.410000 70.210558 87.781833 -164.152694 500.000000
0.108324 0.149745 0.410000 -4.409728 -22.050996 -41.612108 500.000000
0.260000 0.260000 0.290000 -98.111888 -39.656551 21.939321 500.000000
0.260000 0.090000 0.290000 -109.850318 326.117812 384.182262 500.000000
0.260000 0.090000 0.410000 -105.005908 198.619481 -856.328511 500.000000
-0.003342 0.090000 0.290000 -52.668406 35.330841 44.214062 500.000000
0.260000 0.090000 0.290000 -17.909755 70.190963 53.577426 500.000000
0.244364 0.090000 0.290000 34.587773 31.354739 43.262800 500.000000
0.260000 0.260000 0.290000 -210.226931 -189.413400 21.025131 500.000000
0.260000 0.090000 0.290000 -110.615153 218.280420 377.749880 500.000000
0.260000 0.260000 0.290000 -120.202854 -34.399284 27.277651 500.000000
0.184294 0.260000 0.410000 88.858842 -51.431241 -66.222060 500.000000
0.260000 0.260000 0.334425 -24.859897 -22.493281 -15.115018 500.000000
0.021112 0.260000 0.410000 -47.777669 -220.965302 -166.076967 500.000000
-0.260000 0.090000 0.290000 97.939490 276.354088 112.447386 500.000000
0.260000 0.090000 0.410000 -125.959597 216.657442 -837.531473 500.000000
-0.260000 0.090000 0.290000 430.307202 325.722617 112.460355 500.000000
-0.260000 0.260000 0.290000 115.296439 -35.538397 36.686502 500.000000
-0.260000 0.260000 0.290000 228.364289 -21.081220 138.885418 500.000000
-0.260000 0.260000 0.290000 52.533989 -37.416265 62.290383 500.000000
0.100223 0.141876 0.410000 -31.955303 -23.624701 -105.329580 500.000000
-0.024073 0.177326 0.410000 47.185412 -16.534844 -38.817882 500.000000
0.260000 0.260000 0.290000 -45.226376 -66.232815 21.563775 500.000000
-0.039320 0.245187 0.410000 44.135930 31.037337 -21.300424 500.000000
0.071169 0.260000 0.410000 66.233747 -61.996265 -70.011464 500.000000
-0.067871 0.260000 0.410000 -65.574250 -37.280887 -212.243009 500.000000
0.260000 0.260000 0.290000 -96.990596 -39.779036 20.240491 500.000000
0.260000 0.260000 0.290000 -258.500185 -601.599979 110.337472 500.000000
0.260000 0.260000 0.290000 -159.046228 -161.620875 39.258573 500.000000
0.115508 0.260000 0.410000 75.101531 -51.357667 -66.279662 500.000000
-0.260000 0.090000 0.290000 270.009128 368.533619 110.309123 500.000000
-0.260000 0.260000 0.290000 198.662271 -137.252189 40.494508 500.000000
0.260000 0.090000 0.410000 -106.107461 237.029551 -69.705810 500.000000
0.260000 0.260000 0.290000 -102.021641 -38.534744 22.691578 500.000000
0.260000 0.090000 0.290000 -112.498363 219.270993 376.777092 500.000000
0.260000 0.260000 0.290000 -100.928406 -43.209179 22.808401 500.000000
0.260000 0.260000 0.290000 -115.679701 -34.972222 22.727779 500.000000
0.260000 0.260000 0.401854 -66.553814 -18.637255 22.370725 500.000000
0.260000 0.260000 0.410000 -505.311143 -83.523874 -56.144717 500.000000
0.260000 0.090000 0.410000 -104.909699 213.808322 -783.096988 500.000000
-0.260000 0.260000 0.290000 15.324687 -40.721965 95.265552 500.000000
0.260000 0.260000 0.290000 -209.330223 -280.797908 35.723636 500.000000
-0.260000 0.090000 0.290000 100.399185 291.083843 106.532513 500.000000
-0.254162 0.090000 0.410000 -78.393475 140.316170 -29.665667 500.000000
-0.008513 0.111081 0.410000 -53.702617 -29.783714 -77.545724 500.000000
-0.260000 0.260000 0.410000 106.168674 -92.710736 -17.038100 500.000000
0.260000 0.260000 0.290000 -80.300614 -36.720344 18.597235 500.000000
-0.260000 0.260000 0.410000 21.221257 -40.125199 -21.482502 500.000000
0.260000 0.260000 0.290000 -228.036660 -35.968780 26.724148 500.000000
0.227159 0.090000 0.290000 97.431717 110.918337 293.161008 500.000000
0.260000 0.260000 0.290000 -23.318769 -74.935188 24.846450 500.000000
-0.117684 0.260000 0.410000 28.463298 -31.058489 -116.012383 500.000000
-0.260000 0.260000 0.331820 118.525221 -132.533723 -15.635966 500.000000
-0.092171 0.260000 0.290000 -70.434193 -202.772737 71.217467 500.000000
0.260000 0.090000 0.290000 -105.925347 287.649466 438.355003 500.000000
-0.052168 0.090000 0.410000 8.663693 24.999787 -92.618418 500.000000
-0.260000 0.260000 0.290000 574.858256 -34.627237 74.265448 500.000000
0.124496 0.260000 0.410000 76.899216 -49.761125 -67.017505 500.000000
-0.260000 0.090000 0.290000 282.696731 300.433402 112.272893 500.000000
0.260000 0.260000 0.290000 -179.593992 -196.260011 103.917646 500.000000
0.260000 0.090000 0.410000 -58.132619 166.577952 -13.437824 500.000000
-0.260000 0.241458 0.410000 93.416618 30.291675 -34.912486 500.000000
-0.083259 0.090000 0.410000 -68.651700 23.559913 -78.973905 500.000000
-0.201049 0.260000 0.373882 11.790254 -19.408126 -7.223645 500.000000
0.260000 0.090000 0.410000 -84.380139 69.024906 -20.236498 500.000000
0.128729 0.260000 0.410000 77.745803 -51.247037 -66.994198 500.000000
-0.074305 0.260000 0.290000 -66.861038 -127.240860 82.151978 500.000000
-0.032593 0.205859 0.410000 45.481444 -10.828297 -36.727673 500.000000
-0.260000 0.090000 0.290000 34.918034 31.266602 39.780591 500.000000
-0.083214 0.090000 0.410000 -68.642894 18.900901 -81.492598 500.000000
0.260000 0.246805 0.410000 -84.693574 31.360968 -144.176432 500.000000
-0.260000 0.090000 0.290000 241.375256 238.821523 42.979656 500.000000
-0.260000 0.090000 0.290000 412.945655 321.896176 112.283965 500.000000
0.260000 0.260000 0.290000 -70.520671 -32.019404 21.824540 500.000000
0.260000 0.090000 0.290000 -113.485834 220.174836 411.790200 500.000000
-0.260000 0.260000 0.410000 112.958288 -71.273642 -17.691592 500.000000
-0.260000 0.260000 0.290000 93.966260 -86.027655 35.217370 500.000000
0.161392 0.090000 0.290000 -1.102529 88.222634 14.460929 500.000000
-0.260000 0.260000 0.397114 99.702377 -17.429599 21.422760 500.000000
0.260000 0.260000 0.290000 -115.031551 -303.840541 22.126237 500.000000
0.260000 0.090000 0.410000 -56.043773 33.634897 -44.185191 500.000000
0.057138 0.090000 0.290000 -40.572443 266.421978 45.345167 500.000000
-0.260000 0.260000 0.290000 102.669675 -34.974304 33.982305 500.000000
0.066262 0.260000 0.410000 3.373562 -31.734041 -114.524381 500.000000
0.091944 0.260000 0.410000 70.388798 -54.481592 -98.058784 500.000000
-0.260000 0.090000 0.290000 284.503819 14.649440 40.726941 500.000000
0.260000 0.090000 0.352167 -96.052170 17.623715 12.433363 500.000000
0.260000 0.090000 0.290000 -31.221597 20.741591 173.050792 500.000000
0.169872 0.260000 0.410000 85.974437 -57.355000 -50.690510 500.000000
-0.260000 0.090000 0.290000 67.071235 270.404094 126.111657 500.000000
-0.060008 0.182108 0.328118 -0.841983 18.421507 -16.376401 500.000000
-0.260000 0.260000 0.290000 69.760681 -609.034458 40.037740 500.000000
-0.260000 0.260000 0.290000 17.681025 -41.890927 13.046384 500.000000
-0.260000 0.260000 0.290000 117.975909 -35.355919 36.698681 500.000000
-0.136928 0.260000 0.407559 24.614482 -29.926852 23.511778 500.000000
-0.228586 0.090000 0.410000 -97.717153 24.532437 -55.295299 500.000000
-0.033644 0.090000 0.410000 -58.728766 18.287171 -116.041228 500.000000
0.260000 0.260000 0.290000 -90.660552 -60.808360 26.314069 500.000000
-0.260000 0.260000 0.290891 30.048860 -15.809516 -23.821818 500.000000
0.260000 0.090000 0.410000 -65.991049 101.008482 -32.495480 500.000000
-0.107667 0.090000 0.410000 6.907548 56.021412 -65.905714 500.000000
0.080021 0.260000 0.324585 36.119844 -20.708809 -17.082904 500.000000
0.260000 0.090000 0.410000 -68.532265 23.953772 -48.763329 500.000000
-0.260000 0.258023 0.290000 98.167429 33.604570 131.100665 500.000000
-0.260000 0.260000 0.290000 69.971047 -301.654622 45.166152 500.000000
0.260000 0.090000 0.290000 -92.823637 219.255341 374.408949 500.000000
0.260000 0.260000 0.410000 -222.602792 -24.933375 -26.635144 500.000000
-0.260000 0.090000 0.290000 111.512678 64.448356 41.327593 500.000000
0.260000 0.260000 0.290000 -56.145016 -32.421969 22.293216 500.000000
-0.260000 0.260000 0.410000 191.788104 -80.137294 -46.228666 500.000000
-0.085005 0.260000 0.410000 -69.001048 -65.632867 -110.114682 500.000000
0.260000 0.090000 0.290000 -96.643632 219.230356 376.621654 500.000000
-0.260000 0.090000 0.290000 61.666336 273.401513 188.226338 500.000000
0.028256 0.090000 0.290000 57.651239 246.375580 378.666263 500.000000
-0.158924 0.260000 0.410000 -23.174878 -92.590636 -28.828670 500.000000
0.207575 0.115952 0.410000 -10.485039 -28.809552 -109.834172 500.000000
0.260000 0.260000 0.290000 -168.780082 -281.824056 82.576743 500.000000
-0.063967 0.090000 0.290000 -64.793397 280.599184 110.124018 500.000000
0.260000 0.090000 0.290000 -106.528731 218.658428 380.271809 500.000000
-0.137034 0.260000 0.290000 -79.406768 -473.179821 59.189915 500.000000
0.260000 0.090000 0.290000 -74.251969 220.437103 40.961859 500.000000
-0.094656 0.090000 0.410000 -70.931295 185.432316 -410.704066 500.000000
0.260000 0.260000 0.290000 -102.877467 -39.891950 20.507674 500.000000
0.260000 0.260000 0.290000 -98.443108 -41.830792 22.043613 500.000000
-0.260000 0.090000 0.410000 276.434045 245.702247 -438.357316 500.000000
0.253883 0.090000 0.290000 35.282095 46.368734 34.280267 500.000000
0.113422 0.126489 0.410000 74.684404 -26.702263 -86.017066 500.000000
-0.260000 0.090000 0.290000 58.307852 84.297869 261.617045 500.000000
-0.260000 0.260000 0.290000 69.593241 -63.658407 40.629287 500.000000
0.260000 0.260000 0.290000 -167.010777 -447.511841 20.339398 500.000000
-0.141674 0.090000 0.410000 -80.334751 20.732828 -93.080689 500.000000
0.260000 0.260000 0.290000 -163.029967 -304.205007 39.272275 500.000000
0.206334 0.090000 0.290000 41.732966 50.977995 65.853850 500.000000
0.033823 0.260000 0.410000 58.764694 -19.974370 -27.074648 500.000000
0.260000 0.090000 0.410000 -48.346250 29.518280 -12.116759 500.000000
0.260000 0.260000 0.290000 -147.249810 -238.192944 61.074239 500.000000
-0.260000 0.090000 0.410000 373.629888 129.699128 -236.425105 500.000000
-0.253960 0.260000 0.290000 -102.791923 -444.323980 67.548358 500.000000
-0.260000 0.177373 0.349967 90.015220 17.474541 11.993322 500.000000
-0.087015 0.260000 0.290000 -69.403031 -541.199433 40.110298 500.000000
0.260000 0.260000 0.410000 -31.819761 -67.063957 -13.562705 500.000000
0.260000 0.260000 0.290000 -19.592237 -75.445306 6.071294 500.000000
-0.260000 0.260000 0.381767 112.569005 -103.008044 18.353340 500.000000
-0.260000 0.260000 0.290000 117.025191 -33.425967 40.356322 500.000000
0.260000 0.260000 0.290000 -57.333159 -29.232750 20.898026 500.000000
-0.120540 0.260000 0.410000 4.724577 -52.386013 -111.919481 500.000000
-0.081202 0.090000 0.410000 -68.240341 19.874127 -77.034627 500.000000
0.253477 0.143887 0.410000 102.695354 -23.222543 -52.063704 500.000000
0.260000 0.090000 0.290000 -91.650872 219.262123 378.397711 500.000000
0.260000 0.260000 0.290000 -279.727717 -528.664190 20.155821 500.000000
-0.260000 0.260000 0.290000 92.972133 -37.552441 34.064180 500.000000
0.260000 0.090000 0.410000 -62.151014 134.330970 -120.165121 500.000000
0.260000 0.260000 0.290000 -124.355847 -275.217981 20.413362 500.000000
0.133444 0.260000 0.410000 78.688703 -51.338620 -66.227686 500.000000
-0.059465 0.090000 0.410000 -63.892950 27.064189 -37.483138 500.000000
-0.260000 0.236907 0.410000 102.179703 29.381322 -18.645309 500.000000
0.260000 0.260000 0.290000 -97.772651 -39.990615 20.442223 500.000000
0.260000 0.260000 0.290000 -238.346743 -613.046627 20.076390 500.000000
0.026987 0.260000 0.410000 57.397307 -88.433386 -121.120031 500.000000
-0.260000 0.260000 0.290000 155.033316 -396.652662 40.473049 500.000000
-0.260000 0.260000 0.410000 72.513583 -22.720120 -24.762609 500.000000
-0.260000 0.260000 0.290000 295.263921 -522.563097 36.965145 500.000000
0.108587 0.090000 0.410000 7.979619 24.885475 -37.909928 500.000000
0.260000 0.090000 0.290000 -121.356202 220.401997 379.834714 500.000000
0.260000 0.260000 0.290000 -356.959063 -35.288920 26.981039 500.000000
0.260000 0.090000 0.410000 -108.476284 223.842649 -547.267706 500.000000
0.260000 0.260000 0.290000 -99.782393 -114.291734 20.826888 500.000000
-0.260000 0.260000 0.290000 100.244147 -39.295549 33.901623 500.000000
0.260000 0.090000 0.410000 -99.135001 226.489464 -410.108228 500.000000
-0.260000 0.260000 0.410000 297.783912 -30.346745 -60.902289 500.000000
-0.260000 0.090000 0.290000 81.520022 269.633003 112.373668 500.000000
-0.068218 0.090000 0.410000 -65.643683 27.523731 -77.033914 500.000000
-0.260000 0.090000 0.290000 59.964496 270.282141 112.279509 500.000000
0.260000 0.090000 0.290000 -102.725142 220.348674 374.432580 500.000000
-0.260000 0.174963 0.410000 218.936141 -17.007348 -15.485908 500.000000
0.120057 0.260000 0.410000 76.011434 -51.430753 -66.331447 500.000000
0.260000 0.260000 0.290000 -9.457172 -28.823375 80.690684 500.000000
-0.260000 0.260000 0.290000 27.582490 -10.780311 83.544827 500.000000
-0.260000 0.260000 0.410000 185.414240 -92.481394 -178.228425 500.000000
0.260000 0.090000 0.410000 -126.736016 216.187951 -630.607367 500.000000
0.260000 0.260000 0.290000 -31.898957 -66.002566 9.459060 500.000000
-0.260000 0.260000 0.290000 93.107993 -34.240807 33.071283 500.000000
-0.260000 0.260000 0.410000 104.039304 -71.569764 -16.551586 500.000000
-0.260000 0.090000 0.410000 31.296412 128.845195 -6.231427 500.000000
-0.260000 0.260000 0.290000 327.050706 -309.847652 40.469433 500.000000
0.015331 0.090000 0.410000 -48.933876 61.134947 -183.387161 500.000000
0.260000 0.260000 0.290000 -121.377297 -303.146024 127.307505 500.000000
0.016744 0.129173 0.290000 -21.339073 7.834538 32.241034 500.000000
-0.260000 0.260000 0.290000 120.147127 -17.585523 44.410821 500.000000
-0.260000 0.090000 0.321285 70.014743 80.125097 -17.742943 500.000000
0.260000 0.260000 0.290000 -32.972045 -69.353715 20.993266 500.000000
