ply
format ascii 1.0
element vertex 240
property float x
property float y
property float z
property float vx
property float vy
property float vz
property float density
end_header
0.019598 0.090000 0.299436 55.919527 159.833606 -22.112819 500.000000
0.260000 0.090000 0.290000 -186.122883 93.541617 160.273899 500.000000
0.042321 0.260000 0.410000 60.464132 -9.758549 -35.633028 500.000000
0.081857 0.260000 0.410000 68.371353 -36.095293 -42.995843 500.000000
-0.260000 0.090000 0.290000 58.721634 248.627474 50.017760 500.000000
0.260000 0.090000 0.290000 -83.227196 86.179201 157.731699 500.000000
-0.260000 0.260000 0.290000 74.115221 -29.159348 12.153362 500.000000
-0.260000 0.260000 0.410000 74.636860 -58.719980 -29.887336 500.000000
-0.260000 0.090000 0.410000 108.417460 37.002617 -13.099926 500.000000
0.260000 0.260000 0.290000 -57.417238 -52.582817 36.158880 500.000000
0.260000 0.247855 0.410000 -101.407291 31.570992 -28.435135 500.000000
0.260000 0.230872 0.410000 -62.177312 28.174376 -28.766698 500.000000
-0.004132 0.136960 0.410000 -21.439911 9.392093 -27.007289 500.000000
0.224139 0.260000 0.290000 96.827897 -9.320276 54.543005 500.000000
-0.260000 0.260000 0.410000 103.349973 -186.713598 -18.358837 500.000000
0.176441 0.260000 0.290000 87.288287 -61.552714 74.586159 500.000000
-0.260000 0.260000 0.410000 86.729467 -65.813988 -28.319759 500.000000
0.260000 0.260000 0.290000 -57.484821 -52.231735 36.177537 500.000000
-0.260000 0.090000 0.410000 271.523941 39.410151 -13.410547 500.000000
-0.260000 0.230215 0.410000 118.864085 28.042915 -33.489164 500.000000
0.260000 0.260000 0.290000 -331.496396 -64.424898 41.452140 500.000000
-0.148056 0.090000 0.290000 -81.611153 198.555811 51.401169 500.000000
-0.260000 0.260000 0.290000 55.139759 -173.848542 28.267826 500.000000
-0.024501 0.090000 0.290000 -56.900109 154.393269 49.778358 500.000000
-0.260000 0.260000 0.290000 381.492602 -94.693551 72.273051 500.000000
0.068095 0.260000 0.290000 65.619082 -45.496029 117.385834 500.000000
-0.009021 0.260000 0.290000 -53.804230 -217.287601 60.544228 500.000000
-0.016953 0.260000 0.290000 48.609443 -91.354224 51.241410 500.000000
-0.260000 0.227977 0.290000 37.916106 27.595304 114.636334 500.000000
-0.226265 0.090000 0.290000 -97.252959 139.045194 47.055662 500.000000
0.260000 0.260000 0.410000 -71.271745 -222.796432 -193.584487 500.000000
0.260000 0.090000 0.290000 -94.321631 96.363791 156.824770 500.000000
-0.093044 0.090000 0.410000 33.391235 65.850804 -219.106969 500.000000
0.007630 0.260000 0.290000 -50.473999 -232.498644 24.168951 500.000000
-0.260000 0.260000 0.410000 89.731889 -71.601446 -15.323829 500.000000
0.260000 0.260000 0.410000 -41.632694 -30.897741 -39.148743 500.000000
0.260000 0.090000 0.410000 -225.901824 26.410123 -24.952229 500.000000
-0.260000 0.260000 0.290000 393.287135 -121.977656 18.496235 500.000000
0.260000 0.140892 0.410000 -219.505205 -23.821551 -14.734950 500.000000
0.260000 0.260000 0.290000 -58.585095 -54.214400 35.912373 500.000000
0.260000 0.260000 0.410000 -46.885664 -69.001457 -18.270314 500.000000
0.260000 0.260000 0.290000 -55.778443 -52.658853 36.074297 500.000000
-0.260000 0.260000 0.410000 81.887355 -77.945942 -19.863849 500.000000
-0.083189 0.090000 0.290000 -68.637708 228.951673 51.091528 500.000000
-0.260000 0.090000 0.410000 43.179924 28.142491 -25.053678 500.000000
-0.161299 0.260000 0.410000 -2.289139 -13.848147 -10.727845 500.000000
-0.062215 0.260000 0.290000 -64.443039 -263.333008 28.586937 500.000000
0.126269 0.260000 0.410000 -26.746101 -47.765814 -120.669056 500.000000
0.260000 0.090000 0.410000 -53.828494 34.204067 -219.479151 500.000000
-0.188942 0.090000 0.290000 -89.788395 161.958658 47.090568 500.000000
-0.196346 0.260000 0.290000 -91.269225 -257.605867 35.051813 500.000000
0.260000 0.090000 0.410000 -225.285037 26.934392 -15.231376 500.000000
-0.260000 0.090000 0.410000 495.081875 22.149731 -16.188897 500.000000
-0.220284 0.260000 0.410000 -24.028874 -33.308221 -18.482668 500.000000
-0.260000 0.090000 0.290000 400.698557 83.466814 86.781152 500.000000
0.260000 0.090000 0.410000 -85.435712 101.174090 -363.200582 500.000000
0.260000 0.260000 0.290000 -58.570311 -50.404050 39.547001 500.000000
-0.158665 0.260000 0.290000 -83.732947 -214.436709 58.069042 500.000000
0.260000 0.090000 0.290000 -78.224590 89.540293 174.487553 500.000000
-0.107191 0.260000 0.290000 -73.438106 -209.583575 32.978655 500.000000
0.260000 0.165564 0.410000 -232.089152 -18.887235 -23.773437 500.000000
0.260000 0.090000 0.410000 -59.028395 93.274309 -19.865898 500.000000
0.119877 0.090000 0.410000 75.975343 78.553596 -73.089736 500.000000
0.260000 0.090000 0.410000 -236.967189 30.385843 -20.007036 500.000000
-0.043473 0.090000 0.410000 -60.694552 27.979843 -69.718067 500.000000
0.260000 0.090000 0.290000 -86.599401 98.936001 434.815893 500.000000
-0.260000 0.260000 0.410000 80.451730 -71.670933 -18.435536 500.000000
-0.260000 0.260000 0.323023 34.855167 -19.327063 -17.395442 500.000000
-0.260000 0.259064 0.290000 58.526734 33.812705 12.835808 500.000000
0.072400 0.260000 0.410000 -4.342874 -18.651626 -50.249495 500.000000
0.115982 0.260000 0.290000 -2.420687 -54.524894 14.316169 500.000000
0.033272 0.260000 0.290000 58.654391 -63.522022 189.100496 500.000000
-0.056212 0.260000 0.290000 -63.242401 -219.542930 28.482160 500.000000
0.137484 0.260000 0.410000 79.496843 -35.847858 -43.154969 500.000000
-0.260000 0.260000 0.359757 66.458255 -43.078785 13.951469 500.000000
0.260000 0.144515 0.410000 -220.931085 -23.097001 -14.735080 500.000000
0.260000 0.090000 0.410000 -35.632167 24.577688 -18.283357 500.000000
-0.019520 0.260000 0.410000 48.095991 -56.827788 -59.889583 500.000000
-0.260000 0.260000 0.410000 93.766952 -56.812981 -18.382070 500.000000
0.260000 0.090000 0.290000 -62.731484 117.730539 162.143534 500.000000
0.260000 0.260000 0.290000 -78.064449 -94.201408 35.241079 500.000000
-0.031841 0.260000 0.410000 45.631879 -30.662980 -26.178275 500.000000
0.257905 0.253864 0.410000 103.580923 32.772863 -34.505481 500.000000
0.076664 0.260000 0.410000 67.332775 -25.480606 -43.438292 500.000000
0.260000 0.260000 0.290000 -53.281746 -52.884125 34.373477 500.000000
0.183243 0.260000 0.410000 88.648579 -23.193848 -39.916174 500.000000
-0.171511 0.090000 0.290000 -86.302183 188.021149 37.249135 500.000000
0.260000 0.090000 0.410000 -6.854243 19.712283 -23.918256 500.000000
-0.260000 0.090000 0.410000 16.459792 67.179046 -13.209948 500.000000
-0.034076 0.260000 0.290000 -58.815268 -260.160346 55.800337 500.000000
0.260000 0.090000 0.410000 -12.249899 6.079294 -241.154607 500.000000
0.092741 0.260000 0.410000 70.548106 -36.116700 -43.024164 500.000000
0.260000 0.260000 0.290000 -58.915588 -264.543220 75.028454 500.000000
-0.260000 0.231429 0.290000 49.296266 28.285893 13.051826 500.000000
-0.016351 0.090000 0.290000 -55.270285 60.662799 52.222758 500.000000
0.260000 0.090000 0.381174 -53.495820 18.396423 18.234834 500.000000
0.260000 0.260000 0.290000 -54.540441 -50.320937 33.854860 500.000000
0.236062 0.260000 0.290000 99.212317 -49.380276 27.530043 500.000000
-0.260000 0.126958 0.410000 481.001213 -26.608459 -14.845343 500.000000
0.177438 0.260000 0.290000 87.487585 -71.103576 27.243835 500.000000
0.260000 0.090000 0.290000 -52.799324 598.963067 73.360761 500.000000
-0.260000 0.090000 0.410000 67.400703 111.490167 -18.791799 500.000000
0.260000 0.260000 0.290000 -68.100140 -245.222689 58.833424 500.000000
0.066794 0.257653 0.410000 65.358728 33.530564 -88.430143 500.000000
0.260000 0.125737 0.410000 -237.998583 -26.852607 -21.209583 500.000000
0.260000 0.090000 0.410000 -52.819758 43.786551 -12.867228 500.000000
-0.260000 0.260000 0.410000 49.830734 -223.792310 -22.071332 500.000000
0.260000 0.233882 0.410000 -237.043025 28.776437 -28.251513 500.000000
0.260000 0.260000 0.290000 -52.921245 -47.746298 16.946121 500.000000
0.260000 0.090000 0.410000 -98.769689 123.189238 -14.879777 500.000000
0.260000 0.260000 0.382484 -105.714899 -206.365927 18.496825 500.000000
0.260000 0.090000 0.410000 -97.962807 93.942926 -13.140596 500.000000
0.260000 0.133735 0.410000 -267.737339 -25.252924 -16.274432 500.000000
0.104724 0.260000 0.410000 72.944781 -17.021033 -78.876640 500.000000
-0.260000 0.090000 0.410000 122.100320 37.853343 -13.175517 500.000000
0.260000 0.144555 0.410000 -218.174417 -23.088978 -14.720832 500.000000
-0.260000 0.090000 0.290000 59.497788 175.951773 46.620593 500.000000
-0.260000 0.090000 0.410000 603.503088 53.261097 -15.251684 500.000000
0.260000 0.144499 0.410000 -225.687312 -23.100260 -14.740782 500.000000
0.260000 0.260000 0.410000 -649.303613 -65.878218 -53.616065 500.000000
0.168556 0.090000 0.290000 -18.288782 178.645485 208.473216 500.000000
0.260000 0.090000 0.410000 -199.630098 18.614969 -20.034746 500.000000
-0.029018 0.260000 0.290000 -57.803639 -289.077441 55.529621 500.000000
-0.260000 0.090000 0.290000 57.554092 156.454473 38.338678 500.000000
-0.260000 0.090000 0.410000 188.599979 487.628770 -36.007253 500.000000
-0.151861 0.260000 0.290000 -82.372240 -216.498197 58.845383 500.000000
-0.260000 0.260000 0.290000 72.069774 -209.961948 59.955791 500.000000
-0.260000 0.090000 0.410000 6.771167 33.106206 -13.226056 500.000000
-0.195909 0.090000 0.290000 -91.181849 338.837844 59.335836 500.000000
-0.260000 0.090000 0.290000 69.614483 127.436581 157.641098 500.000000
0.177893 0.260000 0.290000 87.578563 -46.410551 38.408532 500.000000
-0.260000 0.260000 0.410000 220.602387 -73.812913 -441.725239 500.000000
0.260000 0.090000 0.410000 -96.637434 109.356170 -327.530083 500.000000
-0.260000 0.260000 0.410000 98.356075 -222.667996 -18.873180 500.000000
-0.260000 0.090000 0.410000 21.453262 68.775944 -13.205828 500.000000
-0.127915 0.090000 0.410000 -77.583034 111.185950 -25.462084 500.000000
-0.009002 0.260000 0.290000 -53.800394 -222.486444 215.347868 500.000000
-0.260000 0.260000 0.290000 26.865050 -21.641757 12.307615 500.000000
-0.260000 0.111791 0.410000 372.750407 -29.641880 -13.929297 500.000000
-0.174388 0.090000 0.290000 -86.877541 304.807187 60.373160 500.000000
-0.260000 0.260000 0.290000 45.835744 -24.837997 21.826990 500.000000
-0.260000 0.260000 0.290000 148.476795 -227.513944 27.986599 500.000000
0.260000 0.144469 0.410000 -230.342137 -23.106121 -14.746764 500.000000
-0.132921 0.196637 0.410000 -12.622726 21.327301 -20.216506 500.000000
0.260000 0.144388 0.410000 -233.959285 -23.122329 -14.770493 500.000000
-0.260000 0.260000 0.410000 76.067243 -59.522447 -16.720691 500.000000
-0.098234 0.090000 0.410000 -71.646813 150.892362 -327.987788 500.000000
0.260000 0.090000 0.410000 -146.003094 103.929346 -18.395135 500.000000
0.260000 0.122614 0.290000 -31.255460 -27.477154 51.794246 500.000000
-0.046076 0.179612 0.410000 42.784701 17.922320 -18.414978 500.000000
0.260000 0.260000 0.290000 -73.620151 -175.504794 42.150186 500.000000
-0.260000 0.260000 0.410000 69.546810 -57.263972 -15.936821 500.000000
-0.135897 0.090000 0.290000 -79.179370 170.534467 46.160932 500.000000
-0.260000 0.090000 0.410000 87.114271 33.244200 -47.420299 500.000000
-0.260000 0.090000 0.410000 38.714739 45.131030 -13.418933 500.000000
-0.260000 0.090000 0.410000 219.965571 42.496830 -14.218913 500.000000
0.260000 0.235438 0.410000 -87.774419 29.087543 -29.155720 500.000000
-0.015925 0.260000 0.290000 -55.185023 -269.237379 55.494635 500.000000
-0.127508 0.090000 0.290000 -77.501623 132.518133 36.643988 500.000000
-0.260000 0.090000 0.290000 72.456144 131.139258 29.613668 500.000000
-0.160367 0.090000 0.410000 -65.891655 56.235173 -119.288902 500.000000
-0.027765 0.260000 0.410000 46.446918 -30.389155 -25.758435 500.000000
0.105598 0.090000 0.410000 73.119604 62.010903 -263.301110 500.000000
-0.117279 0.090000 0.290000 -75.455752 173.110650 17.123603 500.000000
0.197693 0.260000 0.290000 91.538603 -100.701515 23.226030 500.000000
0.096551 0.090000 0.290000 -32.689795 31.575533 13.580712 500.000000
-0.260000 0.260000 0.410000 82.802710 -71.534742 -18.346874 500.000000
0.026482 0.090000 0.410000 36.473599 22.602646 -62.142797 500.000000
0.166857 0.260000 0.290000 3.111828 -17.195984 23.299638 500.000000
-0.260000 0.260000 0.410000 105.663639 -92.556803 -18.455338 500.000000
0.197477 0.226350 0.410000 91.495491 27.269989 -27.719363 500.000000
0.260000 0.260000 0.410000 -51.688904 -19.470246 -27.221960 500.000000
-0.260000 0.090000 0.410000 122.186575 100.303088 -22.042986 500.000000
-0.260000 0.090000 0.290000 95.182576 127.560716 32.399690 500.000000
0.260000 0.090000 0.290000 -88.799492 74.539887 158.570935 500.000000
0.260000 0.260000 0.290000 -56.355386 -55.441305 34.272092 500.000000
-0.260000 0.090000 0.410000 334.661328 92.494028 -13.959099 500.000000
0.020194 0.090000 0.410000 56.038751 18.277850 -57.413248 500.000000
0.064841 0.110137 0.410000 64.968235 -15.601816 -120.330610 500.000000
0.260000 0.090000 0.410000 -54.487189 63.175454 -134.857919 500.000000
-0.260000 0.260000 0.410000 67.891633 -70.990486 -15.860270 500.000000
0.260000 0.090000 0.290000 -116.900773 102.808476 35.485300 500.000000
0.260000 0.090000 0.290000 -105.636031 106.683574 168.171427 500.000000
0.201010 0.260000 0.410000 92.202085 -17.464861 -92.875372 500.000000
-0.260000 0.131227 0.410000 571.495445 -25.754661 -14.419974 500.000000
0.260000 0.260000 0.410000 -97.891383 -34.364818 -34.355329 500.000000
-0.260000 0.090000 0.410000 27.279908 23.793784 -36.579770 500.000000
-0.058417 0.206772 0.410000 40.316598 23.354415 -21.463173 500.000000
-0.195748 0.090000 0.296337 -4.564573 73.140714 -22.732675 500.000000
-0.260000 0.090000 0.410000 73.898630 109.113894 -21.158733 500.000000
0.260000 0.260000 0.290000 -57.109555 -52.221551 36.131369 500.000000
-0.260000 0.090000 0.410000 57.947716 59.998987 -139.506813 500.000000
0.260000 0.260000 0.290000 -56.915674 -185.470603 40.365914 500.000000
-0.260000 0.090000 0.410000 193.320013 20.566331 -17.592216 500.000000
-0.260000 0.090000 0.410000 193.729252 44.030758 -13.452948 500.000000
-0.260000 0.260000 0.410000 88.313498 -143.495148 -18.415044 500.000000
-0.260000 0.260000 0.294530 49.640776 -20.446131 -23.094095 500.000000
-0.211188 0.260000 0.290000 -94.237693 -210.315328 17.345317 500.000000
0.038238 0.090000 0.410000 -44.352443 145.366816 -19.537969 500.000000
0.131843 0.260000 0.410000 -25.631492 -39.745414 -166.623137 500.000000
0.200699 0.155674 0.290000 22.778645 -20.865204 18.734440 500.000000
-0.060806 0.148130 0.290000 -32.977082 11.625909 22.991030 500.000000
-0.051956 0.090000 0.410000 -62.391218 67.521197 -23.776067 500.000000
0.151058 0.240564 0.290000 20.603369 30.112895 60.382354 500.000000
0.260000 0.128092 0.410000 -223.304842 -26.381516 -16.197383 500.000000
0.260000 0.090000 0.410000 -231.240166 25.356816 -75.458837 500.000000
0.260000 0.090000 0.410000 -56.364681 95.554325 -108.736047 500.000000
0.260000 0.090000 0.290000 -111.252592 75.940378 170.476221 500.000000
-0.260000 0.234295 0.410000 82.194176 28.858903 -31.418153 500.000000
0.260000 0.090000 0.410000 -127.320509 52.063262 -13.424423 500.000000
-0.260000 0.090000 0.290000 86.156795 173.452194 34.225836 500.000000
-0.260000 0.090000 0.290000 148.937634 133.796262 162.290580 500.000000
0.260000 0.090000 0.410000 -63.628885 43.007138 -17.124086 500.000000
-0.004588 0.090000 0.290000 -52.917556 237.511761 49.315251 500.000000
-0.047467 0.090000 0.290000 -61.493408 164.481102 55.416213 500.000000
0.260000 0.090000 0.290000 -114.065734 72.546485 156.707337 500.000000
0.260000 0.260000 0.290000 -56.336954 -52.055364 37.299500 500.000000
0.260000 0.260000 0.410000 -215.491987 -34.275367 -27.122149 500.000000
0.135896 0.260000 0.290000 8.248145 -45.339269 18.648824 500.000000
0.260000 0.260000 0.290000 -62.091738 -51.074522 41.213704 500.000000
0.092964 0.260000 0.290000 1.579312 -25.367498 28.938257 500.000000
-0.260000 0.260000 0.290000 123.298381 -249.222979 30.589326 500.000000
-0.260000 0.090000 0.290000 55.998045 253.004403 15.268399 500.000000
-0.260000 0.260000 0.410000 19.125709 -144.532922 -16.867856 500.000000
0.260000 0.260000 0.290000 -36.578807 -19.583154 49.119069 500.000000
0.005277 0.090000 0.410000 53.055473 23.342447 -65.534248 500.000000
-0.028026 0.133668 0.290000 -27.426617 -25.266481 18.376286 500.000000
0.160103 0.227008 0.410000 84.020581 27.401625 -27.876004 500.000000
-0.260000 0.090000 0.290000 53.468949 184.158276 80.943431 500.000000
0.260000 0.260000 0.290000 -82.568339 -52.190431 182.809961 500.000000
-0.118925 0.260000 0.290000 -75.785042 -262.052186 25.073170 500.000000
-0.260000 0.260000 0.340812 13.286280 -37.544892 10.162456 500.000000
0.111889 0.260000 0.410000 13.346160 -68.754933 -20.543376 500.000000
-0.260000 0.090000 0.410000 46.474861 43.792176 -12.820956 500.000000
-0.089581 0.260000 0.410000 34.083816 -44.534541 -365.747998 500.000000
-0.260000 0.260000 0.410000 83.876652 -63.931983 -27.817865 500.000000
0.260000 0.132705 0.410000 -218.211678 -25.459005 -15.495396 500.000000
-0.260000 0.143469 0.410000 522.267599 -23.306127 -16.844066 500.000000
-0.002604 0.260000 0.290000 -52.520800 -248.031292 55.507001 500.000000
-0.259069 0.090000 0.410000 -26.257710 51.078539 -13.841598 500.000000
