ply
format ascii 1.0
element vertex 240
property float x
property float y
property float z
property float vx
property float vy
property float vz
property float density
end_header
-0.125987 0.090000 0.290000 26.802646 40.610400 170.544729 500.000000
0.260000 0.090000 0.410000 -65.524222 24.507186 -70.357831 500.000000
0.260000 0.260000 0.290000 -150.503261 -44.831476 127.572256 500.000000
0.260000 0.090000 0.390868 -29.049063 26.199167 20.173531 500.000000
0.144119 0.260000 0.410000 37.648955 -22.143372 -29.173688 500.000000
0.260000 0.260000 0.290000 -49.060381 -17.228243 55.268189 500.000000
-0.180764 0.260000 0.410000 15.847163 -37.002809 -432.099465 500.000000
0.174362 0.260000 0.410000 -17.127593 -46.712659 -87.173630 500.000000
-0.260000 0.090000 0.290000 40.166168 28.472339 48.236073 500.000000
-0.260000 0.260000 0.410000 53.279697 -35.460324 -60.144272 500.000000
0.260000 0.090000 0.410000 -112.931755 33.264658 -71.239839 500.000000
0.230370 0.260000 0.410000 98.073900 -18.290539 -77.353776 500.000000
-0.105848 0.260000 0.410000 -73.169628 -43.419256 -61.116486 500.000000
0.039200 0.260000 0.290000 -44.159912 -24.646303 97.927858 500.000000
0.260000 0.260000 0.410000 -52.732012 -22.887614 -83.191242 500.000000
0.021165 0.090000 0.290000 56.232980 30.028344 159.503425 500.000000
0.001866 0.090000 0.290000 52.373221 36.968733 157.240145 500.000000
0.260000 0.260000 0.410000 -92.338500 -169.588345 -70.865483 500.000000
0.020689 0.090000 0.290000 56.137732 89.141076 158.762830 500.000000
0.002746 0.090000 0.290000 52.549134 54.001162 157.737612 500.000000
-0.260000 0.090000 0.410000 67.906529 58.081411 -227.822130 500.000000
0.260000 0.090000 0.324688 -400.464198 17.187224 -17.062400 500.000000
0.036644 0.260000 0.290000 59.328875 -24.798142 126.792860 500.000000
-0.140959 0.260000 0.290000 23.808141 -27.506343 109.831651 500.000000
0.260000 0.260000 0.410000 -89.786017 -68.820392 -435.915828 500.000000
0.260000 0.090000 0.410000 -67.209452 34.318936 -74.517349 500.000000
0.147079 0.260000 0.290000 81.415897 -39.265643 140.211774 500.000000
-0.260000 0.260000 0.410000 73.301725 -67.335603 -134.076700 500.000000
-0.260000 0.260000 0.410000 213.903929 -167.678627 -18.815345 500.000000
-0.260000 0.260000 0.292556 41.527378 -233.998884 -23.488865 500.000000
0.260000 0.090000 0.410000 -85.930939 24.604993 -18.648602 500.000000
0.091846 0.260000 0.290000 70.369249 -27.607084 140.878422 500.000000
-0.260000 0.260000 0.290000 117.296663 -30.617767 111.728236 500.000000
0.034608 0.260000 0.290000 58.921547 -26.064994 126.684106 500.000000
0.260000 0.090000 0.291422 -732.139864 18.299501 -23.715547 500.000000
0.260000 0.260000 0.410000 -214.001860 -38.706255 -448.205175 500.000000
-0.049569 0.090000 0.290000 8.910459 23.839306 56.473824 500.000000
0.260000 0.260000 0.290000 -265.330372 -38.671876 182.894024 500.000000
-0.231252 0.090000 0.404819 -14.287342 36.048306 22.963747 500.000000
-0.180513 0.090000 0.410000 -20.382819 37.051642 -52.823416 500.000000
0.211967 0.090000 0.410000 27.102414 16.868663 -18.095877 500.000000
0.260000 0.090000 0.410000 -102.209511 33.267115 -71.235802 500.000000
0.102743 0.260000 0.290000 36.614457 -19.573386 46.787248 500.000000
0.260000 0.260000 0.410000 -149.983695 -39.020366 -243.117889 500.000000
-0.021108 0.260000 0.389479 -3.395794 -31.601221 19.895848 500.000000
-0.260000 0.090000 0.410000 82.939721 43.210395 -112.947822 500.000000
-0.260000 0.260000 0.290000 146.807235 -32.215412 105.248910 500.000000
0.260000 0.145596 0.290000 -27.394920 -22.880745 15.053161 500.000000
-0.260000 0.260000 0.410000 59.809025 -34.180909 -62.359086 500.000000
0.035104 0.260000 0.290000 59.020893 -24.959810 126.611853 500.000000
-0.260000 0.260000 0.290000 121.624086 -30.474760 112.300518 500.000000
0.260000 0.090000 0.410000 -95.208321 33.295996 -71.295153 500.000000
-0.260000 0.260000 0.290000 118.634934 -30.482577 114.970380 500.000000
0.146702 0.260000 0.410000 -22.659698 -22.641429 -75.565959 500.000000
0.260000 0.260000 0.352849 -43.988895 -23.786378 12.569819 500.000000
0.260000 0.090000 0.410000 -85.634142 34.308789 -73.427336 500.000000
-0.026881 0.260000 0.290000 23.445488 -5.465624 7.159415 500.000000
0.260000 0.260000 0.410000 -54.417440 -25.280307 -70.286586 500.000000
0.056530 0.181547 0.290000 -1.041727 -0.122501 27.651622 500.000000
0.034095 0.260000 0.290000 58.819023 -24.984308 127.958565 500.000000
0.034514 0.260000 0.290000 58.902702 -24.979652 130.668262 500.000000
-0.129428 0.260000 0.410000 -15.628436 -435.317477 -15.067834 500.000000
0.018705 0.090000 0.410000 55.740978 55.398771 -183.513082 500.000000
0.260000 0.090000 0.410000 -78.057197 33.618921 -71.570881 500.000000
0.260000 0.090000 0.397274 -98.950761 37.694415 21.454811 500.000000
0.260000 0.260000 0.410000 -100.506651 -174.331057 -70.955707 500.000000
0.260000 0.090000 0.290000 -118.035317 36.156182 157.006773 500.000000
0.260000 0.090000 0.301044 -187.856886 18.299712 -21.791296 500.000000
-0.026514 0.248459 0.290000 46.697287 31.691813 333.474479 500.000000
-0.136985 0.155038 0.290000 -10.837023 -20.992401 28.129510 500.000000
0.033538 0.260000 0.290000 58.707528 -26.022346 126.776610 500.000000
-0.260000 0.090000 0.410000 73.669910 52.549064 -115.452672 500.000000
-0.260000 0.137529 0.290000 116.912017 -24.494280 95.394798 500.000000
-0.260000 0.090000 0.324606 118.578350 19.836264 -17.078723 500.000000
0.260000 0.090000 0.290000 -86.026782 197.305161 32.045773 500.000000
-0.260000 0.090000 0.410000 76.266281 36.126336 -113.694991 500.000000
-0.260000 0.090000 0.290000 118.656318 20.154421 224.470991 500.000000
0.260000 0.090000 0.290000 -114.117851 36.871921 161.232617 500.000000
-0.105592 0.260000 0.410000 -73.118394 -19.546317 -73.813093 500.000000
0.044973 0.090000 0.410000 60.994635 35.657344 -432.567195 500.000000
-0.260000 0.260000 0.410000 83.409114 -134.414307 -193.982298 500.000000
-0.260000 0.189566 0.410000 20.064560 19.913185 -39.877626 500.000000
0.047122 0.260000 0.290000 61.424490 -27.356212 126.715678 500.000000
0.260000 0.260000 0.290000 -52.059793 -25.391079 126.263151 500.000000
0.039280 0.260000 0.290000 59.856094 -24.218253 126.758589 500.000000
0.260000 0.090000 0.410000 -870.695101 51.203646 -97.286960 500.000000
-0.260000 0.090000 0.410000 105.270792 52.966591 -115.454876 500.000000
0.252549 0.260000 0.410000 102.509794 -27.145782 -83.597530 500.000000
0.053121 0.260000 0.290000 62.624141 -29.255165 126.822924 500.000000
-0.229019 0.260000 0.410000 -97.803723 -22.689611 -75.889445 500.000000
-0.260000 0.090000 0.410000 73.805292 30.734405 -35.849793 500.000000
-0.260000 0.175126 0.379308 31.209871 17.025214 17.861689 500.000000
0.011828 0.260000 0.385982 34.169554 -20.763273 19.196487 500.000000
0.260000 0.090000 0.410000 -73.492840 30.953267 -82.327777 500.000000
-0.260000 0.090000 0.290000 129.164337 32.093420 78.384880 500.000000
-0.260000 0.090000 0.410000 127.479281 64.612899 -271.486502 500.000000
-0.128385 0.260000 0.397571 26.323000 -44.772201 9.782081 500.000000
-0.252058 0.090000 0.410000 -102.411569 54.343299 -126.362214 500.000000
-0.260000 0.260000 0.410000 66.177773 -131.378367 -221.193464 500.000000
0.260000 0.260000 0.290000 -106.324068 -119.011412 113.676953 500.000000
-0.260000 0.090000 0.290000 66.206336 36.916503 715.062575 500.000000
0.260000 0.090000 0.410000 -85.638514 33.334211 -71.296982 500.000000
0.260000 0.090000 0.410000 -75.988659 34.321907 -71.618811 500.000000
-0.260000 0.260000 0.290000 44.525577 -73.435762 15.270036 500.000000
-0.260000 0.090000 0.323202 271.566688 34.586638 -17.359676 500.000000
0.186879 0.131991 0.410000 89.375761 -25.601749 -70.390205 500.000000
-0.260000 0.260000 0.290000 145.776342 -30.547988 109.469452 500.000000
-0.260000 0.090000 0.410000 74.520318 48.138931 -113.368894 500.000000
0.040788 0.260000 0.290000 60.157612 -24.241003 138.263063 500.000000
-0.260000 0.260000 0.290000 117.043744 -30.735491 95.192822 500.000000
0.260000 0.090000 0.310637 -562.406228 18.027158 -19.872601 500.000000
0.260000 0.090000 0.410000 -48.971241 24.996752 -31.824405 500.000000
-0.260000 0.090000 0.410000 66.191764 52.233072 -115.454745 500.000000
-0.260000 0.090000 0.410000 75.368769 54.121556 -143.295200 500.000000
-0.260000 0.260000 0.410000 27.695750 -96.190757 -39.468110 500.000000
-0.260000 0.090000 0.410000 54.089999 40.448829 -116.989725 500.000000
0.260000 0.090000 0.410000 -74.018259 19.711958 -70.797300 500.000000
-0.260000 0.222441 0.290000 114.939834 -7.511849 95.324372 500.000000
0.260000 0.260000 0.410000 -33.460252 -93.229709 -26.583343 500.000000
0.033256 0.260000 0.290000 58.651247 -24.984554 125.231758 500.000000
0.249424 0.148705 0.290000 34.385647 -22.259091 19.998221 500.000000
0.260000 0.260000 0.290000 -32.856330 -50.900646 61.422174 500.000000
0.260000 0.260000 0.410000 -65.956962 -128.198042 -432.548483 500.000000
0.260000 0.090000 0.297429 -487.738447 18.299546 -22.514133 500.000000
0.260000 0.090000 0.332733 -447.423544 19.424745 -15.453406 500.000000
-0.260000 0.090000 0.290000 117.175835 17.625770 26.489515 500.000000
0.181119 0.090000 0.410000 4.244402 40.036090 -14.453404 500.000000
0.043550 0.090000 0.410000 60.710084 17.012083 -215.196583 500.000000
-0.095810 0.193107 0.290000 32.838011 -13.378546 60.347070 500.000000
0.175967 0.183449 0.386507 8.797861 1.319092 3.926950 500.000000
-0.148538 0.260000 0.394312 -43.428001 -78.786304 20.862403 500.000000
-0.260000 0.090000 0.410000 91.824773 52.650539 -115.454865 500.000000
-0.260000 0.166841 0.290000 101.049920 -18.631824 118.730159 500.000000
0.260000 0.249377 0.410000 -82.316483 31.875358 -287.284284 500.000000
0.260000 0.090000 0.290000 -109.641653 36.193127 155.665951 500.000000
0.260000 0.090000 0.290000 -33.154278 18.303654 15.075306 500.000000
-0.260000 0.090000 0.410000 23.407647 40.885241 -15.077868 500.000000
-0.260000 0.260000 0.290000 60.677683 -145.899031 104.147232 500.000000
0.260000 0.232528 0.410000 -56.122204 28.505700 -20.736516 500.000000
0.260000 0.090000 0.311975 -648.536285 18.288967 -19.605031 500.000000
-0.204849 0.260000 0.410000 -92.969721 -26.813304 -121.993651 500.000000
0.260000 0.090000 0.338461 -152.676430 31.591558 -5.858708 500.000000
-0.260000 0.090000 0.410000 87.597598 40.042345 -94.262549 500.000000
-0.260000 0.260000 0.410000 104.439887 -28.656695 -211.786994 500.000000
0.260000 0.260000 0.371659 -35.375406 -27.932631 14.232685 500.000000
0.039647 0.260000 0.290000 59.929335 -24.323375 136.469167 500.000000
0.260000 0.260000 0.410000 -79.565306 -17.973448 -70.062994 500.000000
0.260000 0.090000 0.323103 -327.961822 18.300066 -17.379348 500.000000
-0.039141 0.090000 0.290000 44.171720 19.314616 171.981348 500.000000
-0.260000 0.090000 0.290000 81.285031 46.762710 36.731328 500.000000
0.032046 0.090000 0.290000 58.409229 151.509883 38.438610 500.000000
0.260000 0.090000 0.410000 -76.594063 39.881915 -76.419811 500.000000
0.260000 0.090000 0.410000 -67.078286 127.459901 -35.202178 500.000000
-0.061097 0.090000 0.410000 -64.219319 221.181304 -218.037082 500.000000
0.081210 0.090000 0.290000 68.242090 35.081088 66.499930 500.000000
0.260000 0.260000 0.290000 -52.587806 -36.527678 36.175016 500.000000
-0.162194 0.260000 0.410000 -84.438847 -127.211048 -143.326864 500.000000
-0.260000 0.126053 0.290000 102.205382 -26.789428 77.754842 500.000000
-0.260000 0.090000 0.410000 423.298416 58.027351 -113.694770 500.000000
-0.083247 0.090000 0.410000 35.350659 24.030501 -74.596842 500.000000
0.054001 0.260000 0.290000 62.800298 -25.136016 126.550040 500.000000
-0.186514 0.260000 0.410000 -89.302826 -21.755882 -68.327943 500.000000
-0.260000 0.090000 0.410000 114.988498 53.031072 -115.395169 500.000000
-0.260000 0.143894 0.290000 48.401946 -23.221133 25.728898 500.000000
-0.260000 0.090000 0.290000 111.972331 20.176897 121.070236 500.000000
0.041448 0.260000 0.290000 60.289501 -24.441043 127.724426 500.000000
0.180912 0.090000 0.410000 88.182383 32.481750 -22.798097 500.000000
0.260000 0.090000 0.410000 -76.321461 22.076003 -69.678641 500.000000
-0.260000 0.090000 0.290000 114.261324 47.440727 92.600912 500.000000
0.100651 0.090000 0.290000 72.130211 23.534370 163.120966 500.000000
0.160273 0.090000 0.290000 84.054681 86.514007 162.720760 500.000000
0.259804 0.090000 0.410000 103.960727 26.704132 -36.643994 500.000000
0.034001 0.260000 0.290000 58.800165 -24.908934 134.144176 500.000000
-0.151080 0.260000 0.290000 -61.981381 -20.278514 4.723477 500.000000
0.117051 0.167685 0.410000 75.410163 -18.463025 -77.290082 500.000000
0.115393 0.260000 0.290000 75.078619 -31.666788 127.793244 500.000000
-0.237144 0.090000 0.410000 -6.193113 10.786134 -22.392988 500.000000
0.040360 0.260000 0.290000 60.071967 -25.234845 125.571898 500.000000
-0.228151 0.090000 0.290000 -97.630215 63.800395 757.302908 500.000000
0.163256 0.260000 0.410000 84.651108 -62.903864 -285.392010 500.000000
-0.260000 0.090000 0.410000 72.687097 53.856802 -118.028593 500.000000
-0.260000 0.090000 0.307946 357.940498 18.300402 -20.410849 500.000000
-0.260000 0.260000 0.290000 184.798760 -23.264527 268.229387 500.000000
-0.260000 0.090000 0.290000 419.550122 23.166786 14.097639 500.000000
0.015073 0.090000 0.290000 55.014561 34.513671 155.746890 500.000000
0.082903 0.172969 0.290000 5.709585 16.593720 19.473034 500.000000
0.260000 0.144782 0.290000 -74.097057 -23.043548 21.722892 500.000000
-0.260000 0.090000 0.410000 233.834012 39.684052 -111.845194 500.000000
-0.260000 0.090000 0.295781 199.385304 18.135450 -22.843759 500.000000
-0.260000 0.260000 0.290000 154.420378 -30.846938 96.321313 500.000000
0.034583 0.260000 0.290000 58.916595 -24.965752 133.350246 500.000000
0.260000 0.090000 0.410000 -68.959904 61.459534 -487.101314 500.000000
0.260000 0.090000 0.410000 -113.524185 34.124601 -69.865116 500.000000
0.260000 0.090000 0.290000 -119.546489 63.427137 16.779214 500.000000
0.260000 0.090000 0.290000 -47.847912 19.309803 12.563247 500.000000
0.260000 0.090000 0.410000 -26.095394 25.183610 -28.045220 500.000000
0.260000 0.090000 0.410000 -56.063039 35.581077 -41.174667 500.000000
-0.260000 0.260000 0.290000 89.761623 -30.438462 95.400662 500.000000
0.056640 0.260000 0.410000 63.328035 -41.423716 -87.995694 500.000000
-0.260000 0.090000 0.298495 506.349283 18.303665 -22.300923 500.000000
-0.260000 0.090000 0.410000 84.063354 52.662736 -115.459769 500.000000
-0.169951 0.090000 0.410000 -85.990158 54.829638 -94.262728 500.000000
0.180827 0.259832 0.393387 19.483027 33.966402 20.677301 500.000000
-0.260000 0.090000 0.301758 445.111956 18.136734 -21.648351 500.000000
-0.105948 0.260000 0.290000 -73.189542 -35.194247 174.912628 500.000000
0.067165 0.090000 0.410000 65.432955 51.216961 -17.409954 500.000000
0.018472 0.090000 0.290000 55.694368 30.092726 159.796464 500.000000
0.260000 0.090000 0.290000 -126.205883 36.110736 156.942500 500.000000
-0.192207 0.260000 0.410000 13.558534 -135.146613 -456.521842 500.000000
-0.260000 0.260000 0.384808 27.202898 -36.646935 18.961528 500.000000
0.260000 0.090000 0.290000 -54.192600 29.944032 159.071415 500.000000
-0.196919 0.090000 0.410000 12.616100 91.910046 -106.696267 500.000000
-0.260000 0.090000 0.290000 314.695334 74.436708 75.643595 500.000000
0.122440 0.260000 0.410000 76.487974 -22.052446 -109.633227 500.000000
-0.260000 0.090000 0.410000 75.913959 52.277667 -115.395292 500.000000
-0.260000 0.090000 0.290000 52.919531 80.056528 669.995744 500.000000
-0.151591 0.105734 0.290000 -47.427966 -9.262779 32.878762 500.000000
0.260000 0.090000 0.410000 -76.218603 17.886390 -70.728726 500.000000
0.260000 0.090000 0.410000 -69.834618 39.751570 -75.406863 500.000000
0.094351 0.090000 0.410000 70.870128 48.730621 -160.901491 500.000000
-0.009886 0.260000 0.290000 50.022801 -44.289616 47.422147 500.000000
0.090848 0.090000 0.290000 70.169623 76.861445 629.823503 500.000000
0.034826 0.260000 0.290000 58.965199 -24.353991 134.597408 500.000000
0.260000 0.090000 0.410000 -76.022605 33.489781 -71.295092 500.000000
0.260000 0.090000 0.410000 -87.995462 34.320529 -75.034637 500.000000
0.260000 0.090000 0.406044 -39.419835 27.590442 23.208741 500.000000
0.260000 0.090000 0.410000 -18.986974 29.578766 -15.126045 500.000000
0.144752 0.090000 0.410000 12.400718 44.442424 -31.226092 500.000000
0.013837 0.090000 0.290000 54.767383 53.293598 157.493341 500.000000
-0.260000 0.090000 0.410000 101.517892 52.692774 -116.625410 500.000000
-0.260000 0.129318 0.410000 260.277679 -26.136319 -16.863012 500.000000
0.077305 0.090000 0.410000 67.460912 113.922084 -146.487332 500.000000
-0.260000 0.090000 0.410000 70.235842 66.915040 -124.288268 500.000000
0.260000 0.090000 0.410000 -77.849754 34.156649 -75.056481 500.000000
-0.147256 0.090000 0.290000 -70.274162 18.304129 14.567610 500.000000
-0.021318 0.090000 0.290000 -56.263531 112.465374 47.063581 500.000000
-0.014667 0.260000 0.410000 -54.933461 -577.146882 -38.279208 500.000000
0.260000 0.090000 0.290000 -259.236452 18.299569 12.808255 500.000000
0.260000 0.090000 0.290000 -103.755388 18.303432 15.592297 500.000000
-0.260000 0.090000 0.410000 245.823843 57.306418 -134.620573 500.000000
